<?xml version="1.0" encoding="utf-8" standalone="no"?>
<!DOCTYPE svg PUBLIC "-//W3C//DTD SVG 1.1//EN"
  "http://www.w3.org/Graphics/SVG/1.1/DTD/svg11.dtd">
<svg xmlns:xlink="http://www.w3.org/1999/xlink" width="407.604475pt" height="314.667469pt" viewBox="0 0 407.604475 314.667469" xmlns="http://www.w3.org/2000/svg" version="1.1">
 <metadata>
  <rdf:RDF xmlns:dc="http://purl.org/dc/elements/1.1/" xmlns:cc="http://creativecommons.org/ns#" xmlns:rdf="http://www.w3.org/1999/02/22-rdf-syntax-ns#">
   <cc:Work>
    <dc:type rdf:resource="http://purl.org/dc/dcmitype/StillImage"/>
    <dc:date>2024-12-02T10:35:42.643109</dc:date>
    <dc:format>image/svg+xml</dc:format>
    <dc:creator>
     <cc:Agent>
      <dc:title>Matplotlib v3.9.0, https://matplotlib.org/</dc:title>
     </cc:Agent>
    </dc:creator>
   </cc:Work>
  </rdf:RDF>
 </metadata>
 <defs>
  <style type="text/css">*{stroke-linejoin: round; stroke-linecap: butt}</style>
 </defs>
 <g id="figure_1">
  <g id="patch_1">
   <path d="M 0 314.667469 
L 407.604475 314.667469 
L 407.604475 0 
L 0 0 
z
" style="fill: #ffffff"/>
  </g>
  <g id="axes_1">
   <g id="patch_2">
    <path d="M 43.78125 277.111219 
L 329.47725 277.111219 
L 329.47725 10.999219 
L 43.78125 10.999219 
z
" style="fill: #ffffff"/>
   </g>
   <g id="QuadContourSet_1">
    <path d="M 50.92365 277.111219 
L 58.06605 277.111219 
L 65.20845 277.111219 
L 72.35085 277.111219 
L 79.49325 277.111219 
L 86.63565 277.111219 
L 93.77805 277.111219 
L 100.92045 277.111219 
L 108.06285 277.111219 
L 115.20525 277.111219 
L 122.34765 277.111219 
L 129.49005 277.111219 
L 136.63245 277.111219 
L 143.77485 277.111219 
L 150.91725 277.111219 
L 158.05965 277.111219 
L 165.20205 277.111219 
L 172.34445 277.111219 
L 179.48685 277.111219 
L 186.62925 277.111219 
L 193.77165 277.111219 
L 200.91405 277.111219 
L 208.05645 277.111219 
L 215.19885 277.111219 
L 215.900136 277.111219 
L 215.19885 276.186098 
L 208.05645 276.186098 
L 201.907253 270.458419 
L 201.907253 263.805619 
L 200.91405 262.880498 
L 193.77165 262.880498 
L 186.62925 262.753491 
L 180.579331 257.152819 
L 179.48685 256.141462 
L 173.39289 250.500019 
L 172.34445 249.523448 
L 165.20205 249.523448 
L 159.041721 243.847219 
L 158.963933 237.194419 
L 158.05965 236.273708 
L 150.91725 236.131245 
L 143.77485 236.131245 
L 137.644652 230.541619 
L 136.63245 229.618675 
L 130.348461 223.888819 
L 129.49005 223.133977 
L 122.967658 217.236019 
L 122.34765 216.675368 
L 115.610508 210.583219 
L 115.20525 210.145287 
L 108.06285 210.397091 
L 105.455313 210.583219 
L 100.92045 214.807224 
L 93.77805 214.807224 
L 91.170513 217.236019 
L 91.170513 223.888819 
L 86.63565 228.112824 
L 79.49325 228.112824 
L 72.35085 228.112824 
L 69.743313 230.541619 
L 65.20845 234.765624 
L 62.600913 237.194419 
L 58.06605 241.418424 
L 55.458513 243.847219 
L 50.92365 248.071224 
L 48.316113 250.500019 
L 43.78125 254.724024 
L 43.78125 257.152819 
L 43.78125 263.805619 
L 43.78125 270.458419 
L 43.78125 277.111219 
z
" clip-path="url(#p9792ac7815)" style="fill: #fff0e8"/>
    <path d="M 208.05645 276.186098 
L 215.19885 276.186098 
L 215.900136 277.111219 
L 216.900935 277.111219 
L 215.19885 274.865867 
L 208.05645 274.865867 
L 203.324644 270.458419 
L 203.324644 263.805619 
L 200.91405 261.560267 
L 193.77165 261.560267 
L 186.62925 261.252008 
L 182.201252 257.152819 
L 179.48685 254.639979 
L 175.01481 250.500019 
L 172.34445 248.012707 
L 165.20205 248.012707 
L 160.681306 243.847219 
L 160.603518 237.194419 
L 158.05965 234.604337 
L 150.91725 234.20357 
L 143.77485 234.20357 
L 139.758752 230.541619 
L 136.63245 227.691 
L 132.46256 223.888819 
L 129.49005 221.274947 
L 125.023509 217.236019 
L 122.34765 214.816338 
L 117.666358 210.583219 
L 115.20525 207.923684 
L 108.06285 206.86655 
L 100.92045 207.376378 
L 93.77805 207.376378 
L 89.651524 203.930419 
L 88.827217 197.277619 
L 86.63565 195.866167 
L 79.49325 196.572194 
L 72.35694 197.277619 
L 72.35085 197.283292 
L 65.21454 203.930419 
L 65.20845 203.936092 
L 58.07214 210.583219 
L 58.06605 210.588892 
L 50.92974 217.236019 
L 50.92365 217.241692 
L 43.78734 223.888819 
L 43.78125 223.894492 
L 43.78125 230.541619 
L 43.78125 237.194419 
L 43.78125 243.847219 
L 43.78125 250.500019 
L 43.78125 254.724024 
L 48.316113 250.500019 
L 50.92365 248.071224 
L 55.458513 243.847219 
L 58.06605 241.418424 
L 62.600913 237.194419 
L 65.20845 234.765624 
L 69.743313 230.541619 
L 72.35085 228.112824 
L 79.49325 228.112824 
L 86.63565 228.112824 
L 91.170513 223.888819 
L 91.170513 217.236019 
L 93.77805 214.807224 
L 100.92045 214.807224 
L 105.455313 210.583219 
L 108.06285 210.397091 
L 115.20525 210.145287 
L 115.610508 210.583219 
L 122.34765 216.675368 
L 122.967658 217.236019 
L 129.49005 223.133977 
L 130.348461 223.888819 
L 136.63245 229.618675 
L 137.644652 230.541619 
L 143.77485 236.131245 
L 150.91725 236.131245 
L 158.05965 236.273708 
L 158.963933 237.194419 
L 159.041721 243.847219 
L 165.20205 249.523448 
L 172.34445 249.523448 
L 173.39289 250.500019 
L 179.48685 256.141462 
L 180.579331 257.152819 
L 186.62925 262.753491 
L 193.77165 262.880498 
L 200.91405 262.880498 
L 201.907253 263.805619 
L 201.907253 270.458419 
z
" clip-path="url(#p9792ac7815)" style="fill: #fee5d9"/>
    <path d="M 208.05645 274.865867 
L 215.19885 274.865867 
L 216.900935 277.111219 
L 217.901734 277.111219 
L 215.19885 273.545637 
L 208.05645 273.545637 
L 204.742034 270.458419 
L 204.742034 263.805619 
L 200.91405 260.240037 
L 193.77165 260.240037 
L 186.62925 259.750526 
L 183.823173 257.152819 
L 179.48685 253.138497 
L 176.636731 250.500019 
L 172.34445 246.501967 
L 165.20205 246.501967 
L 162.320891 243.847219 
L 162.243103 237.194419 
L 158.05965 232.934966 
L 150.91725 232.275896 
L 143.77485 232.275896 
L 141.872851 230.541619 
L 136.63245 225.763325 
L 134.57666 223.888819 
L 129.49005 219.415918 
L 127.079359 217.236019 
L 122.34765 212.957309 
L 119.722208 210.583219 
L 115.20525 205.702082 
L 109.307899 203.930419 
L 108.06285 203.556385 
L 100.92045 203.845837 
L 93.77805 203.112963 
L 93.055029 197.277619 
L 86.63565 193.143299 
L 79.49325 193.849325 
L 75.620441 190.624819 
L 75.620441 183.972019 
L 72.35085 180.442494 
L 65.20845 181.648109 
L 58.06605 181.178762 
L 55.87006 183.972019 
L 53.005265 190.624819 
L 53.005265 197.277619 
L 50.92365 199.216542 
L 45.862865 203.930419 
L 43.78125 205.869342 
L 43.78125 210.583219 
L 43.78125 217.236019 
L 43.78125 223.888819 
L 43.78125 223.894492 
L 43.78734 223.888819 
L 50.92365 217.241692 
L 50.92974 217.236019 
L 58.06605 210.588892 
L 58.07214 210.583219 
L 65.20845 203.936092 
L 65.21454 203.930419 
L 72.35085 197.283292 
L 72.35694 197.277619 
L 79.49325 196.572194 
L 86.63565 195.866167 
L 88.827217 197.277619 
L 89.651524 203.930419 
L 93.77805 207.376378 
L 100.92045 207.376378 
L 108.06285 206.86655 
L 115.20525 207.923684 
L 117.666358 210.583219 
L 122.34765 214.816338 
L 125.023509 217.236019 
L 129.49005 221.274947 
L 132.46256 223.888819 
L 136.63245 227.691 
L 139.758752 230.541619 
L 143.77485 234.20357 
L 150.91725 234.20357 
L 158.05965 234.604337 
L 160.603518 237.194419 
L 160.681306 243.847219 
L 165.20205 248.012707 
L 172.34445 248.012707 
L 175.01481 250.500019 
L 179.48685 254.639979 
L 182.201252 257.152819 
L 186.62925 261.252008 
L 193.77165 261.560267 
L 200.91405 261.560267 
L 203.324644 263.805619 
L 203.324644 270.458419 
z
" clip-path="url(#p9792ac7815)" style="fill: #fdd7c6"/>
    <path d="M 208.05645 273.545637 
L 215.19885 273.545637 
L 217.901734 277.111219 
L 218.902533 277.111219 
L 215.19885 272.225406 
L 208.05645 272.225406 
L 206.159425 270.458419 
L 206.159425 263.805619 
L 200.91405 258.919806 
L 193.77165 258.919806 
L 186.62925 258.249044 
L 185.445093 257.152819 
L 179.48685 251.637015 
L 178.258652 250.500019 
L 172.34445 244.991226 
L 165.20205 244.991226 
L 163.960475 243.847219 
L 163.882688 237.194419 
L 158.05965 231.265595 
L 152.259127 230.541619 
L 150.91725 230.374136 
L 143.77485 230.348221 
L 136.69076 223.888819 
L 136.63245 223.545204 
L 129.49005 217.556889 
L 129.135209 217.236019 
L 122.34765 211.09828 
L 121.778058 210.583219 
L 115.62162 203.930419 
L 115.20525 203.480479 
L 108.06285 201.334783 
L 100.92045 200.315296 
L 97.282841 197.277619 
L 93.77805 195.020403 
L 86.953005 190.624819 
L 86.63565 190.42043 
L 84.567986 190.624819 
L 79.49325 191.126457 
L 78.890755 190.624819 
L 78.890755 183.972019 
L 72.727905 177.319219 
L 72.35085 176.912188 
L 69.939486 177.319219 
L 65.20845 178.117804 
L 63.159449 177.319219 
L 58.06605 172.360819 
L 54.187289 177.319219 
L 50.92365 181.46296 
L 48.937608 183.972019 
L 44.894459 190.624819 
L 43.78125 192.456548 
L 43.78125 197.277619 
L 43.78125 203.930419 
L 43.78125 205.869342 
L 45.862865 203.930419 
L 50.92365 199.216542 
L 53.005265 197.277619 
L 53.005265 190.624819 
L 55.87006 183.972019 
L 58.06605 181.178762 
L 65.20845 181.648109 
L 72.35085 180.442494 
L 75.620441 183.972019 
L 75.620441 190.624819 
L 79.49325 193.849325 
L 86.63565 193.143299 
L 93.055029 197.277619 
L 93.77805 203.112963 
L 100.92045 203.845837 
L 108.06285 203.556385 
L 109.307899 203.930419 
L 115.20525 205.702082 
L 119.722208 210.583219 
L 122.34765 212.957309 
L 127.079359 217.236019 
L 129.49005 219.415918 
L 134.57666 223.888819 
L 136.63245 225.763325 
L 141.872851 230.541619 
L 143.77485 232.275896 
L 150.91725 232.275896 
L 158.05965 232.934966 
L 162.243103 237.194419 
L 162.320891 243.847219 
L 165.20205 246.501967 
L 172.34445 246.501967 
L 176.636731 250.500019 
L 179.48685 253.138497 
L 183.823173 257.152819 
L 186.62925 259.750526 
L 193.77165 260.240037 
L 200.91405 260.240037 
L 204.742034 263.805619 
L 204.742034 270.458419 
z
" clip-path="url(#p9792ac7815)" style="fill: #fcc4ad"/>
    <path d="M 208.05645 272.225406 
L 215.19885 272.225406 
L 218.902533 277.111219 
L 219.903332 277.111219 
L 215.19885 270.905175 
L 208.05645 270.905175 
L 207.576815 270.458419 
L 207.576815 263.805619 
L 200.91405 257.599575 
L 193.77165 257.599575 
L 189.798369 257.152819 
L 186.62925 256.747562 
L 179.880572 250.500019 
L 179.544751 243.847219 
L 179.48685 243.793287 
L 172.34445 243.480485 
L 165.522273 237.194419 
L 165.20205 230.918976 
L 165.056941 230.541619 
L 158.05965 229.596224 
L 150.91725 228.704765 
L 143.77485 228.420547 
L 138.804859 223.888819 
L 137.675912 217.236019 
L 136.63245 216.318453 
L 129.49005 215.697859 
L 123.833908 210.583219 
L 122.34765 208.977131 
L 117.67747 203.930419 
L 115.20525 201.258877 
L 108.06285 199.11318 
L 101.952801 197.277619 
L 100.92045 196.316034 
L 93.77805 192.297534 
L 91.180817 190.624819 
L 86.63565 187.697561 
L 82.16107 183.972019 
L 79.49325 181.092106 
L 75.998219 177.319219 
L 72.35085 173.381882 
L 65.383541 170.666419 
L 65.383541 164.013619 
L 65.20845 163.853133 
L 58.06605 163.959333 
L 58.020948 164.013619 
L 52.493582 170.666419 
L 50.92365 172.673336 
L 47.27117 177.319219 
L 43.78125 181.728197 
L 43.78125 183.972019 
L 43.78125 190.624819 
L 43.78125 192.456548 
L 44.894459 190.624819 
L 48.937608 183.972019 
L 50.92365 181.46296 
L 54.187289 177.319219 
L 58.06605 172.360819 
L 63.159449 177.319219 
L 65.20845 178.117804 
L 69.939486 177.319219 
L 72.35085 176.912188 
L 72.727905 177.319219 
L 78.890755 183.972019 
L 78.890755 190.624819 
L 79.49325 191.126457 
L 84.567986 190.624819 
L 86.63565 190.42043 
L 86.953005 190.624819 
L 93.77805 195.020403 
L 97.282841 197.277619 
L 100.92045 200.315296 
L 108.06285 201.334783 
L 115.20525 203.480479 
L 115.62162 203.930419 
L 121.778058 210.583219 
L 122.34765 211.09828 
L 129.135209 217.236019 
L 129.49005 217.556889 
L 136.63245 223.545204 
L 136.69076 223.888819 
L 143.77485 230.348221 
L 150.91725 230.374136 
L 152.259127 230.541619 
L 158.05965 231.265595 
L 163.882688 237.194419 
L 163.960475 243.847219 
L 165.20205 244.991226 
L 172.34445 244.991226 
L 178.258652 250.500019 
L 179.48685 251.637015 
L 185.445093 257.152819 
L 186.62925 258.249044 
L 193.77165 258.919806 
L 200.91405 258.919806 
L 206.159425 263.805619 
L 206.159425 270.458419 
z
" clip-path="url(#p9792ac7815)" style="fill: #fcb095"/>
    <path d="M 208.05645 270.905175 
L 215.19885 270.905175 
L 219.903332 277.111219 
L 220.904131 277.111219 
L 215.860986 270.458419 
L 215.19885 269.584944 
L 208.994206 263.805619 
L 208.05645 262.932144 
L 201.851806 257.152819 
L 200.91405 256.279344 
L 193.77165 256.159427 
L 186.62925 255.24608 
L 181.502493 250.500019 
L 181.166672 243.847219 
L 179.48685 242.282546 
L 172.34445 241.969745 
L 167.161858 237.194419 
L 166.822379 230.541619 
L 165.20205 228.891853 
L 158.05965 227.926853 
L 150.91725 227.035394 
L 143.77485 226.492872 
L 140.918959 223.888819 
L 139.790011 217.236019 
L 136.63245 214.459423 
L 129.49005 213.83883 
L 125.889759 210.583219 
L 122.34765 206.755529 
L 119.73332 203.930419 
L 115.20525 199.037274 
L 109.347869 197.277619 
L 108.06285 194.86714 
L 103.508324 190.624819 
L 100.92045 189.427886 
L 93.77805 187.968204 
L 86.63565 184.974693 
L 85.431384 183.972019 
L 79.49325 177.5618 
L 79.268533 177.319219 
L 77.854726 170.666419 
L 77.854726 164.013619 
L 77.854726 157.360819 
L 72.35085 152.234225 
L 70.63923 150.708019 
L 65.20845 145.865536 
L 63.178204 144.055219 
L 63.178204 137.402419 
L 63.178204 130.749619 
L 63.178204 124.096819 
L 63.178204 117.444019 
L 63.178204 110.791219 
L 63.178204 104.138419 
L 58.06605 99.376695 
L 56.867743 104.138419 
L 56.867743 110.791219 
L 56.867743 117.444019 
L 54.943387 124.096819 
L 54.943387 130.749619 
L 54.943387 137.402419 
L 54.943387 144.055219 
L 54.943387 150.708019 
L 54.943387 157.360819 
L 51.123018 164.013619 
L 50.92365 164.25358 
L 45.595652 170.666419 
L 43.78125 172.970109 
L 43.78125 177.319219 
L 43.78125 181.728197 
L 47.27117 177.319219 
L 50.92365 172.673336 
L 52.493582 170.666419 
L 58.020948 164.013619 
L 58.06605 163.959333 
L 65.20845 163.853133 
L 65.383541 164.013619 
L 65.383541 170.666419 
L 72.35085 173.381882 
L 75.998219 177.319219 
L 79.49325 181.092106 
L 82.16107 183.972019 
L 86.63565 187.697561 
L 91.180817 190.624819 
L 93.77805 192.297534 
L 100.92045 196.316034 
L 101.952801 197.277619 
L 108.06285 199.11318 
L 115.20525 201.258877 
L 117.67747 203.930419 
L 122.34765 208.977131 
L 123.833908 210.583219 
L 129.49005 215.697859 
L 136.63245 216.318453 
L 137.675912 217.236019 
L 138.804859 223.888819 
L 143.77485 228.420547 
L 150.91725 228.704765 
L 158.05965 229.596224 
L 165.056941 230.541619 
L 165.20205 230.918976 
L 165.522273 237.194419 
L 172.34445 243.480485 
L 179.48685 243.793287 
L 179.544751 243.847219 
L 179.880572 250.500019 
L 186.62925 256.747562 
L 189.798369 257.152819 
L 193.77165 257.599575 
L 200.91405 257.599575 
L 207.576815 263.805619 
L 207.576815 270.458419 
z
" clip-path="url(#p9792ac7815)" style="fill: #fc9c7d"/>
    <path d="M 216.861785 270.458419 
L 215.19885 268.264714 
L 210.411597 263.805619 
L 208.05645 261.611914 
L 203.269197 257.152819 
L 200.91405 254.959114 
L 193.77165 254.657945 
L 186.62925 253.744597 
L 183.124414 250.500019 
L 182.788593 243.847219 
L 179.48685 240.771805 
L 172.34445 240.459004 
L 168.801443 237.194419 
L 168.461964 230.541619 
L 165.20205 227.222482 
L 158.05965 226.257482 
L 150.91725 225.366023 
L 143.77485 224.565198 
L 143.033059 223.888819 
L 141.904111 217.236019 
L 136.63245 212.600394 
L 129.49005 211.9798 
L 127.945609 210.583219 
L 122.34765 204.533926 
L 121.78917 203.930419 
L 118.301967 197.277619 
L 115.20525 194.393177 
L 113.19635 190.624819 
L 108.06285 185.843212 
L 104.017167 183.972019 
L 104.017167 177.319219 
L 104.017167 170.666419 
L 100.92045 167.781977 
L 93.77805 164.842353 
L 93.160985 164.013619 
L 93.160985 157.360819 
L 93.160985 150.708019 
L 93.160985 144.055219 
L 86.63565 137.977185 
L 79.49325 137.977185 
L 78.876185 137.402419 
L 78.876185 130.749619 
L 78.876185 124.096819 
L 78.876185 117.444019 
L 78.876185 110.791219 
L 78.876185 104.138419 
L 72.35085 98.060385 
L 71.733785 97.485619 
L 65.20845 91.407585 
L 64.591385 90.832819 
L 64.591385 84.180019 
L 64.591385 77.527219 
L 64.591385 70.874419 
L 64.591385 64.221619 
L 58.06605 58.143585 
L 53.247937 64.221619 
L 53.247937 70.874419 
L 53.247937 77.527219 
L 53.247937 84.180019 
L 53.247937 90.832819 
L 51.06114 97.485619 
L 51.028912 104.138419 
L 51.028912 110.791219 
L 51.028912 117.444019 
L 50.92365 117.603119 
L 46.627374 124.096819 
L 43.78125 128.398654 
L 43.78125 130.749619 
L 43.78125 137.402419 
L 43.78125 144.055219 
L 43.78125 150.708019 
L 43.78125 157.360819 
L 43.78125 164.013619 
L 43.78125 170.666419 
L 43.78125 172.970109 
L 45.595652 170.666419 
L 50.92365 164.25358 
L 51.123018 164.013619 
L 54.943387 157.360819 
L 54.943387 150.708019 
L 54.943387 144.055219 
L 54.943387 137.402419 
L 54.943387 130.749619 
L 54.943387 124.096819 
L 56.867743 117.444019 
L 56.867743 110.791219 
L 56.867743 104.138419 
L 58.06605 99.376695 
L 63.178204 104.138419 
L 63.178204 110.791219 
L 63.178204 117.444019 
L 63.178204 124.096819 
L 63.178204 130.749619 
L 63.178204 137.402419 
L 63.178204 144.055219 
L 65.20845 145.865536 
L 70.63923 150.708019 
L 72.35085 152.234225 
L 77.854726 157.360819 
L 77.854726 164.013619 
L 77.854726 170.666419 
L 79.268533 177.319219 
L 79.49325 177.5618 
L 85.431384 183.972019 
L 86.63565 184.974693 
L 93.77805 187.968204 
L 100.92045 189.427886 
L 103.508324 190.624819 
L 108.06285 194.86714 
L 109.347869 197.277619 
L 115.20525 199.037274 
L 119.73332 203.930419 
L 122.34765 206.755529 
L 125.889759 210.583219 
L 129.49005 213.83883 
L 136.63245 214.459423 
L 139.790011 217.236019 
L 140.918959 223.888819 
L 143.77485 226.492872 
L 150.91725 227.035394 
L 158.05965 227.926853 
L 165.20205 228.891853 
L 166.822379 230.541619 
L 167.161858 237.194419 
L 172.34445 241.969745 
L 179.48685 242.282546 
L 181.166672 243.847219 
L 181.502493 250.500019 
L 186.62925 255.24608 
L 193.77165 256.159427 
L 200.91405 256.279344 
L 201.851806 257.152819 
L 208.05645 262.932144 
L 208.994206 263.805619 
L 215.19885 269.584944 
L 215.860986 270.458419 
L 220.904131 277.111219 
L 221.90493 277.111219 
z
" clip-path="url(#p9792ac7815)" style="fill: #fc8767"/>
    <path d="M 222.34125 277.111219 
L 222.905729 277.111219 
L 222.34125 276.366571 
L 217.862584 270.458419 
L 215.19885 266.944483 
L 211.828987 263.805619 
L 208.05645 260.291683 
L 204.686587 257.152819 
L 200.91405 253.638883 
L 193.77165 253.156463 
L 186.62925 252.243115 
L 184.746334 250.500019 
L 184.410513 243.847219 
L 179.48685 239.261065 
L 172.34445 238.948263 
L 170.441028 237.194419 
L 170.101549 230.541619 
L 165.20205 225.553111 
L 158.05965 224.588111 
L 152.456896 223.888819 
L 150.91725 222.454713 
L 145.314496 217.236019 
L 143.77485 215.801913 
L 136.63245 210.741364 
L 134.812356 210.583219 
L 134.812356 203.930419 
L 134.812356 197.277619 
L 134.812356 190.624819 
L 131.438453 183.972019 
L 129.49005 179.014548 
L 122.34765 179.014548 
L 120.527556 177.319219 
L 120.527556 170.666419 
L 117.153653 164.013619 
L 117.153653 157.360819 
L 117.153653 150.708019 
L 116.558293 144.055219 
L 115.20525 142.240375 
L 108.06285 142.240375 
L 102.868853 137.402419 
L 102.868853 130.749619 
L 102.868853 124.096819 
L 102.273493 117.444019 
L 100.92045 115.629175 
L 93.77805 115.629175 
L 88.584053 110.791219 
L 88.584053 104.138419 
L 88.584053 97.485619 
L 87.380483 90.832819 
L 86.63565 89.017975 
L 81.441653 84.180019 
L 79.49325 82.365175 
L 74.299253 77.527219 
L 73.095683 70.874419 
L 73.095683 64.221619 
L 72.35085 63.527843 
L 65.953283 57.568819 
L 65.20845 56.875043 
L 58.810883 50.916019 
L 58.810883 44.956995 
L 58.06605 44.263219 
L 58.06605 37.610419 
L 50.92365 37.610419 
L 50.814753 37.508987 
L 50.814753 37.610419 
L 50.814753 44.263219 
L 50.814753 50.916019 
L 45.621423 57.568819 
L 45.621423 64.221619 
L 45.621423 70.874419 
L 45.621423 77.527219 
L 45.621423 84.180019 
L 45.621423 90.832819 
L 45.19008 97.485619 
L 45.19008 104.138419 
L 45.19008 110.791219 
L 45.19008 117.444019 
L 43.78125 119.573426 
L 43.78125 124.096819 
L 43.78125 128.398654 
L 46.627374 124.096819 
L 50.92365 117.603119 
L 51.028912 117.444019 
L 51.028912 110.791219 
L 51.028912 104.138419 
L 51.06114 97.485619 
L 53.247937 90.832819 
L 53.247937 84.180019 
L 53.247937 77.527219 
L 53.247937 70.874419 
L 53.247937 64.221619 
L 58.06605 58.143585 
L 64.591385 64.221619 
L 64.591385 70.874419 
L 64.591385 77.527219 
L 64.591385 84.180019 
L 64.591385 90.832819 
L 65.20845 91.407585 
L 71.733785 97.485619 
L 72.35085 98.060385 
L 78.876185 104.138419 
L 78.876185 110.791219 
L 78.876185 117.444019 
L 78.876185 124.096819 
L 78.876185 130.749619 
L 78.876185 137.402419 
L 79.49325 137.977185 
L 86.63565 137.977185 
L 93.160985 144.055219 
L 93.160985 150.708019 
L 93.160985 157.360819 
L 93.160985 164.013619 
L 93.77805 164.842353 
L 100.92045 167.781977 
L 104.017167 170.666419 
L 104.017167 177.319219 
L 104.017167 183.972019 
L 108.06285 185.843212 
L 113.19635 190.624819 
L 115.20525 194.393177 
L 118.301967 197.277619 
L 121.78917 203.930419 
L 122.34765 204.533926 
L 127.945609 210.583219 
L 129.49005 211.9798 
L 136.63245 212.600394 
L 141.904111 217.236019 
L 143.033059 223.888819 
L 143.77485 224.565198 
L 150.91725 225.366023 
L 158.05965 226.257482 
L 165.20205 227.222482 
L 168.461964 230.541619 
L 168.801443 237.194419 
L 172.34445 240.459004 
L 179.48685 240.771805 
L 182.788593 243.847219 
L 183.124414 250.500019 
L 186.62925 253.744597 
L 193.77165 254.657945 
L 200.91405 254.959114 
L 203.269197 257.152819 
L 208.05645 261.611914 
L 210.411597 263.805619 
L 215.19885 268.264714 
L 216.861785 270.458419 
L 221.90493 277.111219 
z
" clip-path="url(#p9792ac7815)" style="fill: #fb7353"/>
    <path d="M 222.34125 276.366571 
L 222.905729 277.111219 
L 223.906528 277.111219 
L 222.34125 275.04634 
L 218.863383 270.458419 
L 215.19885 265.624252 
L 213.246378 263.805619 
L 208.05645 258.971452 
L 206.103978 257.152819 
L 200.91405 252.318652 
L 193.77165 251.654981 
L 186.62925 250.741633 
L 186.368255 250.500019 
L 186.032434 243.847219 
L 179.48685 237.750324 
L 172.34445 237.437523 
L 172.080613 237.194419 
L 171.741134 230.541619 
L 165.239637 223.888819 
L 165.20205 223.853808 
L 158.097237 217.236019 
L 158.05965 217.201008 
L 150.954837 210.583219 
L 150.954837 203.930419 
L 150.954837 197.277619 
L 150.91725 197.242608 
L 143.812437 190.624819 
L 143.77485 190.589808 
L 139.270985 183.972019 
L 136.670037 177.319219 
L 136.670037 170.666419 
L 136.63245 170.61598 
L 129.544201 164.013619 
L 129.49005 163.978608 
L 124.986185 157.360819 
L 124.179946 150.708019 
L 122.34765 145.122613 
L 121.997491 144.055219 
L 117.037546 137.402419 
L 115.20525 134.944751 
L 110.701385 130.749619 
L 109.895146 124.096819 
L 108.06285 118.511413 
L 107.712691 117.444019 
L 102.752746 110.791219 
L 100.92045 108.333551 
L 96.416585 104.138419 
L 94.786706 97.485619 
L 93.77805 95.964684 
L 90.374693 90.832819 
L 87.644306 84.180019 
L 86.63565 81.722351 
L 82.131785 77.527219 
L 79.49325 76.006284 
L 76.089893 70.874419 
L 76.089893 64.221619 
L 72.35085 60.738881 
L 68.947493 57.568819 
L 65.20845 54.086081 
L 61.805093 50.916019 
L 61.805093 47.745957 
L 58.810883 44.956995 
L 58.810883 50.916019 
L 65.20845 56.875043 
L 65.953283 57.568819 
L 72.35085 63.527843 
L 73.095683 64.221619 
L 73.095683 70.874419 
L 74.299253 77.527219 
L 79.49325 82.365175 
L 81.441653 84.180019 
L 86.63565 89.017975 
L 87.380483 90.832819 
L 88.584053 97.485619 
L 88.584053 104.138419 
L 88.584053 110.791219 
L 93.77805 115.629175 
L 100.92045 115.629175 
L 102.273493 117.444019 
L 102.868853 124.096819 
L 102.868853 130.749619 
L 102.868853 137.402419 
L 108.06285 142.240375 
L 115.20525 142.240375 
L 116.558293 144.055219 
L 117.153653 150.708019 
L 117.153653 157.360819 
L 117.153653 164.013619 
L 120.527556 170.666419 
L 120.527556 177.319219 
L 122.34765 179.014548 
L 129.49005 179.014548 
L 131.438453 183.972019 
L 134.812356 190.624819 
L 134.812356 197.277619 
L 134.812356 203.930419 
L 134.812356 210.583219 
L 136.63245 210.741364 
L 143.77485 215.801913 
L 145.314496 217.236019 
L 150.91725 222.454713 
L 152.456896 223.888819 
L 158.05965 224.588111 
L 165.20205 225.553111 
L 170.101549 230.541619 
L 170.441028 237.194419 
L 172.34445 238.948263 
L 179.48685 239.261065 
L 184.410513 243.847219 
L 184.746334 250.500019 
L 186.62925 252.243115 
L 193.77165 253.156463 
L 200.91405 253.638883 
L 204.686587 257.152819 
L 208.05645 260.291683 
L 211.828987 263.805619 
L 215.19885 266.944483 
L 217.862584 270.458419 
z
M 45.19008 117.444019 
L 45.19008 110.791219 
L 45.19008 104.138419 
L 45.19008 97.485619 
L 45.621423 90.832819 
L 45.621423 84.180019 
L 45.621423 77.527219 
L 45.621423 70.874419 
L 45.621423 64.221619 
L 45.621423 57.568819 
L 50.814753 50.916019 
L 50.814753 44.263219 
L 50.814753 37.610419 
L 50.814753 37.508987 
L 43.78125 30.957619 
L 43.78125 37.610419 
L 43.78125 44.263219 
L 43.78125 50.916019 
L 43.78125 57.568819 
L 43.78125 64.221619 
L 43.78125 70.874419 
L 43.78125 77.527219 
L 43.78125 84.180019 
L 43.78125 90.832819 
L 43.78125 97.485619 
L 43.78125 104.138419 
L 43.78125 110.791219 
L 43.78125 117.444019 
L 43.78125 119.573426 
z
" clip-path="url(#p9792ac7815)" style="fill: #f85d42"/>
    <path d="M 222.34125 275.04634 
L 223.906528 277.111219 
L 224.907327 277.111219 
L 222.34125 273.726109 
L 219.864182 270.458419 
L 215.19885 264.304022 
L 214.663768 263.805619 
L 208.05645 257.651222 
L 207.521368 257.152819 
L 200.91405 250.998422 
L 196.481447 250.500019 
L 196.481447 243.847219 
L 194.194127 237.194419 
L 193.77165 236.800902 
L 187.051727 230.541619 
L 186.62925 230.148102 
L 179.909327 223.888819 
L 179.909327 217.236019 
L 179.48685 216.842502 
L 172.34445 216.842502 
L 165.624527 210.583219 
L 165.624527 203.930419 
L 165.624527 197.277619 
L 165.20205 197.130364 
L 158.217742 190.624819 
L 158.05965 190.231302 
L 151.339727 183.972019 
L 151.339727 177.319219 
L 151.339727 170.666419 
L 150.91725 170.272902 
L 144.197327 164.013619 
L 143.77485 163.620102 
L 137.054927 157.360819 
L 136.63245 157.213564 
L 129.648142 150.708019 
L 129.49005 150.314502 
L 127.436688 144.055219 
L 122.462693 137.402419 
L 122.34765 137.255164 
L 117.265206 130.749619 
L 115.363342 124.096819 
L 115.20525 123.703302 
L 113.151888 117.444019 
L 108.177893 110.791219 
L 108.06285 110.643964 
L 102.980406 104.138419 
L 100.92045 102.21967 
L 97.780916 97.485619 
L 93.77805 91.449764 
L 93.368903 90.832819 
L 90.638516 84.180019 
L 88.695606 77.527219 
L 86.63565 75.60847 
L 79.49325 71.491364 
L 79.084103 70.874419 
L 79.084103 64.221619 
L 72.35085 57.949919 
L 71.941703 57.568819 
L 65.20845 51.297119 
L 64.799303 50.916019 
L 64.799303 50.534919 
L 61.805093 47.745957 
L 61.805093 50.916019 
L 65.20845 54.086081 
L 68.947493 57.568819 
L 72.35085 60.738881 
L 76.089893 64.221619 
L 76.089893 70.874419 
L 79.49325 76.006284 
L 82.131785 77.527219 
L 86.63565 81.722351 
L 87.644306 84.180019 
L 90.374693 90.832819 
L 93.77805 95.964684 
L 94.786706 97.485619 
L 96.416585 104.138419 
L 100.92045 108.333551 
L 102.752746 110.791219 
L 107.712691 117.444019 
L 108.06285 118.511413 
L 109.895146 124.096819 
L 110.701385 130.749619 
L 115.20525 134.944751 
L 117.037546 137.402419 
L 121.997491 144.055219 
L 122.34765 145.122613 
L 124.179946 150.708019 
L 124.986185 157.360819 
L 129.49005 163.978608 
L 129.544201 164.013619 
L 136.63245 170.61598 
L 136.670037 170.666419 
L 136.670037 177.319219 
L 139.270985 183.972019 
L 143.77485 190.589808 
L 143.812437 190.624819 
L 150.91725 197.242608 
L 150.954837 197.277619 
L 150.954837 203.930419 
L 150.954837 210.583219 
L 158.05965 217.201008 
L 158.097237 217.236019 
L 165.20205 223.853808 
L 165.239637 223.888819 
L 171.741134 230.541619 
L 172.080613 237.194419 
L 172.34445 237.437523 
L 179.48685 237.750324 
L 186.032434 243.847219 
L 186.368255 250.500019 
L 186.62925 250.741633 
L 193.77165 251.654981 
L 200.91405 252.318652 
L 206.103978 257.152819 
L 208.05645 258.971452 
L 213.246378 263.805619 
L 215.19885 265.624252 
L 218.863383 270.458419 
z
" clip-path="url(#p9792ac7815)" style="fill: #f24633"/>
    <path d="M 222.34125 273.726109 
L 224.907327 277.111219 
L 225.908126 277.111219 
L 222.34125 272.405879 
L 220.864981 270.458419 
L 217.317803 263.805619 
L 215.19885 257.262683 
L 215.080901 257.152819 
L 208.05645 250.609883 
L 207.938501 250.500019 
L 207.938501 243.847219 
L 207.938501 237.194419 
L 200.91405 230.651483 
L 200.796101 230.541619 
L 193.77165 223.998683 
L 193.653701 223.888819 
L 193.653701 217.236019 
L 190.775653 210.583219 
L 186.62925 206.721045 
L 183.633253 203.930419 
L 179.48685 200.068245 
L 176.490853 197.277619 
L 172.34445 193.415445 
L 165.20205 190.92595 
L 164.878758 190.624819 
L 162.206053 183.972019 
L 162.206053 177.319219 
L 162.206053 170.666419 
L 158.05965 166.804245 
L 155.063653 164.013619 
L 150.91725 160.151445 
L 147.921253 157.360819 
L 143.77485 153.498645 
L 136.63245 151.00915 
L 136.309158 150.708019 
L 133.636453 144.055219 
L 129.49005 140.193045 
L 127.309879 137.402419 
L 122.34765 131.05075 
L 122.112392 130.749619 
L 122.024358 124.096819 
L 119.351653 117.444019 
L 115.20525 113.581845 
L 113.025079 110.791219 
L 108.06285 104.43955 
L 107.827592 104.138419 
L 100.92045 97.70475 
L 100.775126 97.485619 
L 96.363114 90.832819 
L 93.77805 84.534112 
L 93.632726 84.180019 
L 93.542792 77.527219 
L 86.63565 71.09355 
L 86.255498 70.874419 
L 86.255498 70.520326 
L 79.49325 64.221619 
L 72.35085 57.568819 
L 65.20845 50.916019 
L 64.799303 50.534919 
L 64.799303 50.916019 
L 65.20845 51.297119 
L 71.941703 57.568819 
L 72.35085 57.949919 
L 79.084103 64.221619 
L 79.084103 70.874419 
L 79.49325 71.491364 
L 86.63565 75.60847 
L 88.695606 77.527219 
L 90.638516 84.180019 
L 93.368903 90.832819 
L 93.77805 91.449764 
L 97.780916 97.485619 
L 100.92045 102.21967 
L 102.980406 104.138419 
L 108.06285 110.643964 
L 108.177893 110.791219 
L 113.151888 117.444019 
L 115.20525 123.703302 
L 115.363342 124.096819 
L 117.265206 130.749619 
L 122.34765 137.255164 
L 122.462693 137.402419 
L 127.436688 144.055219 
L 129.49005 150.314502 
L 129.648142 150.708019 
L 136.63245 157.213564 
L 137.054927 157.360819 
L 143.77485 163.620102 
L 144.197327 164.013619 
L 150.91725 170.272902 
L 151.339727 170.666419 
L 151.339727 177.319219 
L 151.339727 183.972019 
L 158.05965 190.231302 
L 158.217742 190.624819 
L 165.20205 197.130364 
L 165.624527 197.277619 
L 165.624527 203.930419 
L 165.624527 210.583219 
L 172.34445 216.842502 
L 179.48685 216.842502 
L 179.909327 217.236019 
L 179.909327 223.888819 
L 186.62925 230.148102 
L 187.051727 230.541619 
L 193.77165 236.800902 
L 194.194127 237.194419 
L 196.481447 243.847219 
L 196.481447 250.500019 
L 200.91405 250.998422 
L 207.521368 257.152819 
L 208.05645 257.651222 
L 214.663768 263.805619 
L 215.19885 264.304022 
L 219.864182 270.458419 
z
" clip-path="url(#p9792ac7815)" style="fill: #e53228"/>
    <path d="M 222.34125 272.405879 
L 225.908126 277.111219 
L 226.908925 277.111219 
L 222.34125 271.085648 
L 221.86578 270.458419 
L 220.721807 263.805619 
L 219.981718 257.152819 
L 216.922471 250.500019 
L 216.922471 243.847219 
L 219.109661 237.194419 
L 215.19885 231.794276 
L 214.265385 230.541619 
L 208.05645 224.758297 
L 206.711606 223.888819 
L 200.91405 218.488676 
L 200.363043 217.236019 
L 197.436669 210.583219 
L 197.436669 203.930419 
L 193.77165 200.516631 
L 186.62925 200.516631 
L 183.151869 197.277619 
L 179.48685 193.863831 
L 176.009469 190.624819 
L 172.34445 187.211031 
L 168.867069 183.972019 
L 168.867069 177.319219 
L 168.867069 170.666419 
L 168.867069 164.013619 
L 165.20205 160.599831 
L 158.05965 160.599831 
L 154.582269 157.360819 
L 150.91725 153.947031 
L 147.439869 150.708019 
L 143.77485 147.294231 
L 140.297469 144.055219 
L 136.63245 140.641431 
L 133.155069 137.402419 
L 129.49005 133.988631 
L 126.959578 130.749619 
L 126.959578 124.096819 
L 126.012669 117.444019 
L 122.34765 114.030231 
L 118.870269 110.791219 
L 115.20525 107.377431 
L 112.674778 104.138419 
L 112.674778 97.485619 
L 108.06285 93.189831 
L 100.92045 93.189831 
L 99.357324 90.832819 
L 98.389978 84.180019 
L 98.389978 77.527219 
L 93.77805 77.527219 
L 86.63565 70.874419 
L 86.255498 70.520326 
L 86.255498 70.874419 
L 86.63565 71.09355 
L 93.542792 77.527219 
L 93.632726 84.180019 
L 93.77805 84.534112 
L 96.363114 90.832819 
L 100.775126 97.485619 
L 100.92045 97.70475 
L 107.827592 104.138419 
L 108.06285 104.43955 
L 113.025079 110.791219 
L 115.20525 113.581845 
L 119.351653 117.444019 
L 122.024358 124.096819 
L 122.112392 130.749619 
L 122.34765 131.05075 
L 127.309879 137.402419 
L 129.49005 140.193045 
L 133.636453 144.055219 
L 136.309158 150.708019 
L 136.63245 151.00915 
L 143.77485 153.498645 
L 147.921253 157.360819 
L 150.91725 160.151445 
L 155.063653 164.013619 
L 158.05965 166.804245 
L 162.206053 170.666419 
L 162.206053 177.319219 
L 162.206053 183.972019 
L 164.878758 190.624819 
L 165.20205 190.92595 
L 172.34445 193.415445 
L 176.490853 197.277619 
L 179.48685 200.068245 
L 183.633253 203.930419 
L 186.62925 206.721045 
L 190.775653 210.583219 
L 193.653701 217.236019 
L 193.653701 223.888819 
L 193.77165 223.998683 
L 200.796101 230.541619 
L 200.91405 230.651483 
L 207.938501 237.194419 
L 207.938501 243.847219 
L 207.938501 250.500019 
L 208.05645 250.609883 
L 215.080901 257.152819 
L 215.19885 257.262683 
L 217.317803 263.805619 
L 220.864981 270.458419 
z
" clip-path="url(#p9792ac7815)" style="fill: #d32020"/>
    <path d="M 222.34125 271.085648 
L 226.908925 277.111219 
L 227.909724 277.111219 
L 224.128044 270.458419 
L 224.125812 263.805619 
L 224.083509 257.152819 
L 222.34125 251.773042 
L 221.755859 250.500019 
L 221.755859 243.847219 
L 222.34125 242.872258 
L 229.48365 237.629504 
L 229.847655 237.194419 
L 229.847655 230.541619 
L 229.847655 223.888819 
L 229.847655 217.236019 
L 229.847655 210.583219 
L 229.847655 204.269472 
L 229.48365 203.930419 
L 222.34125 197.277619 
L 215.19885 190.624819 
L 208.05645 183.972019 
L 200.91405 177.319219 
L 200.91405 170.666419 
L 193.77165 170.666419 
L 186.62925 164.013619 
L 186.62925 157.360819 
L 179.48685 157.360819 
L 172.34445 150.708019 
L 172.34445 144.055219 
L 165.20205 144.055219 
L 158.05965 137.402419 
L 158.05965 130.749619 
L 150.91725 130.749619 
L 143.77485 124.096819 
L 136.63245 117.444019 
L 129.49005 110.791219 
L 122.34765 104.138419 
L 115.20525 97.485619 
L 108.06285 90.832819 
L 100.92045 84.180019 
L 100.92045 77.527219 
L 98.389978 77.527219 
L 98.389978 84.180019 
L 99.357324 90.832819 
L 100.92045 93.189831 
L 108.06285 93.189831 
L 112.674778 97.485619 
L 112.674778 104.138419 
L 115.20525 107.377431 
L 118.870269 110.791219 
L 122.34765 114.030231 
L 126.012669 117.444019 
L 126.959578 124.096819 
L 126.959578 130.749619 
L 129.49005 133.988631 
L 133.155069 137.402419 
L 136.63245 140.641431 
L 140.297469 144.055219 
L 143.77485 147.294231 
L 147.439869 150.708019 
L 150.91725 153.947031 
L 154.582269 157.360819 
L 158.05965 160.599831 
L 165.20205 160.599831 
L 168.867069 164.013619 
L 168.867069 170.666419 
L 168.867069 177.319219 
L 168.867069 183.972019 
L 172.34445 187.211031 
L 176.009469 190.624819 
L 179.48685 193.863831 
L 183.151869 197.277619 
L 186.62925 200.516631 
L 193.77165 200.516631 
L 197.436669 203.930419 
L 197.436669 210.583219 
L 200.363043 217.236019 
L 200.91405 218.488676 
L 206.711606 223.888819 
L 208.05645 224.758297 
L 214.265385 230.541619 
L 215.19885 231.794276 
L 219.109661 237.194419 
L 216.922471 243.847219 
L 216.922471 250.500019 
L 219.981718 257.152819 
L 220.721807 263.805619 
L 221.86578 270.458419 
z
" clip-path="url(#p9792ac7815)" style="fill: #c1161b"/>
    <path d="M 227.532049 270.458419 
L 227.529817 263.805619 
L 227.487514 257.152819 
L 226.589246 250.500019 
L 229.48365 245.679435 
L 231.016535 243.847219 
L 236.582459 237.194419 
L 236.582459 230.541619 
L 236.582459 223.888819 
L 236.582459 217.236019 
L 236.582459 210.583219 
L 236.582459 210.542615 
L 229.847655 204.269472 
L 229.847655 210.583219 
L 229.847655 217.236019 
L 229.847655 223.888819 
L 229.847655 230.541619 
L 229.847655 237.194419 
L 229.48365 237.629504 
L 222.34125 242.872258 
L 221.755859 243.847219 
L 221.755859 250.500019 
L 222.34125 251.773042 
L 224.083509 257.152819 
L 224.125812 263.805619 
L 224.128044 270.458419 
L 227.909724 277.111219 
L 228.910523 277.111219 
z
" clip-path="url(#p9792ac7815)" style="fill: #ad1117"/>
    <path d="M 229.48365 277.111219 
L 236.62605 277.111219 
L 243.76845 277.111219 
L 250.91085 277.111219 
L 258.05325 277.111219 
L 265.19565 277.111219 
L 272.33805 277.111219 
L 279.48045 277.111219 
L 286.095251 277.111219 
L 279.48045 271.021988 
L 278.868238 270.458419 
L 272.33805 264.447077 
L 265.19565 264.447077 
L 258.05325 264.447077 
L 257.362567 263.805619 
L 257.362567 257.152819 
L 250.91085 251.143357 
L 243.76845 251.143357 
L 243.037165 250.500019 
L 242.271107 243.847219 
L 243.317262 237.194419 
L 243.317262 230.541619 
L 243.317262 223.888819 
L 243.317262 217.236019 
L 243.317262 216.815759 
L 236.62605 210.583219 
L 236.582459 210.542615 
L 236.582459 210.583219 
L 236.582459 217.236019 
L 236.582459 223.888819 
L 236.582459 230.541619 
L 236.582459 237.194419 
L 231.016535 243.847219 
L 229.48365 245.679435 
L 226.589246 250.500019 
L 227.487514 257.152819 
L 227.529817 263.805619 
L 227.532049 270.458419 
L 228.910523 277.111219 
z
" clip-path="url(#p9792ac7815)" style="fill: #940b13"/>
    <path d="M 279.48045 271.021988 
L 286.095251 277.111219 
L 286.62285 277.111219 
L 293.76525 277.111219 
L 300.90765 277.111219 
L 308.05005 277.111219 
L 300.90765 270.458419 
L 300.90765 263.805619 
L 293.76525 263.805619 
L 286.62285 257.152819 
L 279.48045 250.500019 
L 272.33805 243.847219 
L 265.19565 237.194419 
L 258.05325 230.541619 
L 258.05325 223.888819 
L 250.91085 223.888819 
L 243.76845 217.236019 
L 243.317262 216.815759 
L 243.317262 217.236019 
L 243.317262 223.888819 
L 243.317262 230.541619 
L 243.317262 237.194419 
L 242.271107 243.847219 
L 243.037165 250.500019 
L 243.76845 251.143357 
L 250.91085 251.143357 
L 257.362567 257.152819 
L 257.362567 263.805619 
L 258.05325 264.447077 
L 265.19565 264.447077 
L 272.33805 264.447077 
L 278.868238 270.458419 
z
" clip-path="url(#p9792ac7815)" style="fill: #75030f"/>
   </g>
   <g id="matplotlib.axis_1">
    <g id="xtick_1">
     <g id="line2d_1">
      <defs>
       <path id="m067ae58c87" d="M 0 0 
L 0 3.5 
" style="stroke: #000000; stroke-width: 0.8"/>
      </defs>
      <g>
       <use xlink:href="#m067ae58c87" x="43.78125" y="277.111219" style="stroke: #000000; stroke-width: 0.8"/>
      </g>
     </g>
     <g id="text_1">
      <!-- 0.0 -->
      <g transform="translate(35.829688 291.709656) scale(0.1 -0.1)">
       <defs>
        <path id="DejaVuSans-30" d="M 2034 4250 
Q 1547 4250 1301 3770 
Q 1056 3291 1056 2328 
Q 1056 1369 1301 889 
Q 1547 409 2034 409 
Q 2525 409 2770 889 
Q 3016 1369 3016 2328 
Q 3016 3291 2770 3770 
Q 2525 4250 2034 4250 
z
M 2034 4750 
Q 2819 4750 3233 4129 
Q 3647 3509 3647 2328 
Q 3647 1150 3233 529 
Q 2819 -91 2034 -91 
Q 1250 -91 836 529 
Q 422 1150 422 2328 
Q 422 3509 836 4129 
Q 1250 4750 2034 4750 
z
" transform="scale(0.015625)"/>
        <path id="DejaVuSans-2e" d="M 684 794 
L 1344 794 
L 1344 0 
L 684 0 
L 684 794 
z
" transform="scale(0.015625)"/>
       </defs>
       <use xlink:href="#DejaVuSans-30"/>
       <use xlink:href="#DejaVuSans-2e" x="63.623047"/>
       <use xlink:href="#DejaVuSans-30" x="95.410156"/>
      </g>
     </g>
    </g>
    <g id="xtick_2">
     <g id="line2d_2">
      <g>
       <use xlink:href="#m067ae58c87" x="100.92045" y="277.111219" style="stroke: #000000; stroke-width: 0.8"/>
      </g>
     </g>
     <g id="text_2">
      <!-- 0.2 -->
      <g transform="translate(92.968888 291.709656) scale(0.1 -0.1)">
       <defs>
        <path id="DejaVuSans-32" d="M 1228 531 
L 3431 531 
L 3431 0 
L 469 0 
L 469 531 
Q 828 903 1448 1529 
Q 2069 2156 2228 2338 
Q 2531 2678 2651 2914 
Q 2772 3150 2772 3378 
Q 2772 3750 2511 3984 
Q 2250 4219 1831 4219 
Q 1534 4219 1204 4116 
Q 875 4013 500 3803 
L 500 4441 
Q 881 4594 1212 4672 
Q 1544 4750 1819 4750 
Q 2544 4750 2975 4387 
Q 3406 4025 3406 3419 
Q 3406 3131 3298 2873 
Q 3191 2616 2906 2266 
Q 2828 2175 2409 1742 
Q 1991 1309 1228 531 
z
" transform="scale(0.015625)"/>
       </defs>
       <use xlink:href="#DejaVuSans-30"/>
       <use xlink:href="#DejaVuSans-2e" x="63.623047"/>
       <use xlink:href="#DejaVuSans-32" x="95.410156"/>
      </g>
     </g>
    </g>
    <g id="xtick_3">
     <g id="line2d_3">
      <g>
       <use xlink:href="#m067ae58c87" x="158.05965" y="277.111219" style="stroke: #000000; stroke-width: 0.8"/>
      </g>
     </g>
     <g id="text_3">
      <!-- 0.4 -->
      <g transform="translate(150.108088 291.709656) scale(0.1 -0.1)">
       <defs>
        <path id="DejaVuSans-34" d="M 2419 4116 
L 825 1625 
L 2419 1625 
L 2419 4116 
z
M 2253 4666 
L 3047 4666 
L 3047 1625 
L 3713 1625 
L 3713 1100 
L 3047 1100 
L 3047 0 
L 2419 0 
L 2419 1100 
L 313 1100 
L 313 1709 
L 2253 4666 
z
" transform="scale(0.015625)"/>
       </defs>
       <use xlink:href="#DejaVuSans-30"/>
       <use xlink:href="#DejaVuSans-2e" x="63.623047"/>
       <use xlink:href="#DejaVuSans-34" x="95.410156"/>
      </g>
     </g>
    </g>
    <g id="xtick_4">
     <g id="line2d_4">
      <g>
       <use xlink:href="#m067ae58c87" x="215.19885" y="277.111219" style="stroke: #000000; stroke-width: 0.8"/>
      </g>
     </g>
     <g id="text_4">
      <!-- 0.6 -->
      <g transform="translate(207.247288 291.709656) scale(0.1 -0.1)">
       <defs>
        <path id="DejaVuSans-36" d="M 2113 2584 
Q 1688 2584 1439 2293 
Q 1191 2003 1191 1497 
Q 1191 994 1439 701 
Q 1688 409 2113 409 
Q 2538 409 2786 701 
Q 3034 994 3034 1497 
Q 3034 2003 2786 2293 
Q 2538 2584 2113 2584 
z
M 3366 4563 
L 3366 3988 
Q 3128 4100 2886 4159 
Q 2644 4219 2406 4219 
Q 1781 4219 1451 3797 
Q 1122 3375 1075 2522 
Q 1259 2794 1537 2939 
Q 1816 3084 2150 3084 
Q 2853 3084 3261 2657 
Q 3669 2231 3669 1497 
Q 3669 778 3244 343 
Q 2819 -91 2113 -91 
Q 1303 -91 875 529 
Q 447 1150 447 2328 
Q 447 3434 972 4092 
Q 1497 4750 2381 4750 
Q 2619 4750 2861 4703 
Q 3103 4656 3366 4563 
z
" transform="scale(0.015625)"/>
       </defs>
       <use xlink:href="#DejaVuSans-30"/>
       <use xlink:href="#DejaVuSans-2e" x="63.623047"/>
       <use xlink:href="#DejaVuSans-36" x="95.410156"/>
      </g>
     </g>
    </g>
    <g id="xtick_5">
     <g id="line2d_5">
      <g>
       <use xlink:href="#m067ae58c87" x="272.33805" y="277.111219" style="stroke: #000000; stroke-width: 0.8"/>
      </g>
     </g>
     <g id="text_5">
      <!-- 0.8 -->
      <g transform="translate(264.386488 291.709656) scale(0.1 -0.1)">
       <defs>
        <path id="DejaVuSans-38" d="M 2034 2216 
Q 1584 2216 1326 1975 
Q 1069 1734 1069 1313 
Q 1069 891 1326 650 
Q 1584 409 2034 409 
Q 2484 409 2743 651 
Q 3003 894 3003 1313 
Q 3003 1734 2745 1975 
Q 2488 2216 2034 2216 
z
M 1403 2484 
Q 997 2584 770 2862 
Q 544 3141 544 3541 
Q 544 4100 942 4425 
Q 1341 4750 2034 4750 
Q 2731 4750 3128 4425 
Q 3525 4100 3525 3541 
Q 3525 3141 3298 2862 
Q 3072 2584 2669 2484 
Q 3125 2378 3379 2068 
Q 3634 1759 3634 1313 
Q 3634 634 3220 271 
Q 2806 -91 2034 -91 
Q 1263 -91 848 271 
Q 434 634 434 1313 
Q 434 1759 690 2068 
Q 947 2378 1403 2484 
z
M 1172 3481 
Q 1172 3119 1398 2916 
Q 1625 2713 2034 2713 
Q 2441 2713 2670 2916 
Q 2900 3119 2900 3481 
Q 2900 3844 2670 4047 
Q 2441 4250 2034 4250 
Q 1625 4250 1398 4047 
Q 1172 3844 1172 3481 
z
" transform="scale(0.015625)"/>
       </defs>
       <use xlink:href="#DejaVuSans-30"/>
       <use xlink:href="#DejaVuSans-2e" x="63.623047"/>
       <use xlink:href="#DejaVuSans-38" x="95.410156"/>
      </g>
     </g>
    </g>
    <g id="xtick_6">
     <g id="line2d_6">
      <g>
       <use xlink:href="#m067ae58c87" x="329.47725" y="277.111219" style="stroke: #000000; stroke-width: 0.8"/>
      </g>
     </g>
     <g id="text_6">
      <!-- 1.0 -->
      <g transform="translate(321.525688 291.709656) scale(0.1 -0.1)">
       <defs>
        <path id="DejaVuSans-31" d="M 794 531 
L 1825 531 
L 1825 4091 
L 703 3866 
L 703 4441 
L 1819 4666 
L 2450 4666 
L 2450 531 
L 3481 531 
L 3481 0 
L 794 0 
L 794 531 
z
" transform="scale(0.015625)"/>
       </defs>
       <use xlink:href="#DejaVuSans-31"/>
       <use xlink:href="#DejaVuSans-2e" x="63.623047"/>
       <use xlink:href="#DejaVuSans-30" x="95.410156"/>
      </g>
     </g>
    </g>
    <g id="text_7">
     <!-- Equity in Vaccination Burden Multiplier (a) -->
     <g transform="translate(81.262844 305.387781) scale(0.1 -0.1)">
      <defs>
       <path id="DejaVuSans-45" d="M 628 4666 
L 3578 4666 
L 3578 4134 
L 1259 4134 
L 1259 2753 
L 3481 2753 
L 3481 2222 
L 1259 2222 
L 1259 531 
L 3634 531 
L 3634 0 
L 628 0 
L 628 4666 
z
" transform="scale(0.015625)"/>
       <path id="DejaVuSans-71" d="M 947 1747 
Q 947 1113 1208 752 
Q 1469 391 1925 391 
Q 2381 391 2643 752 
Q 2906 1113 2906 1747 
Q 2906 2381 2643 2742 
Q 2381 3103 1925 3103 
Q 1469 3103 1208 2742 
Q 947 2381 947 1747 
z
M 2906 525 
Q 2725 213 2448 61 
Q 2172 -91 1784 -91 
Q 1150 -91 751 415 
Q 353 922 353 1747 
Q 353 2572 751 3078 
Q 1150 3584 1784 3584 
Q 2172 3584 2448 3432 
Q 2725 3281 2906 2969 
L 2906 3500 
L 3481 3500 
L 3481 -1331 
L 2906 -1331 
L 2906 525 
z
" transform="scale(0.015625)"/>
       <path id="DejaVuSans-75" d="M 544 1381 
L 544 3500 
L 1119 3500 
L 1119 1403 
Q 1119 906 1312 657 
Q 1506 409 1894 409 
Q 2359 409 2629 706 
Q 2900 1003 2900 1516 
L 2900 3500 
L 3475 3500 
L 3475 0 
L 2900 0 
L 2900 538 
Q 2691 219 2414 64 
Q 2138 -91 1772 -91 
Q 1169 -91 856 284 
Q 544 659 544 1381 
z
M 1991 3584 
L 1991 3584 
z
" transform="scale(0.015625)"/>
       <path id="DejaVuSans-69" d="M 603 3500 
L 1178 3500 
L 1178 0 
L 603 0 
L 603 3500 
z
M 603 4863 
L 1178 4863 
L 1178 4134 
L 603 4134 
L 603 4863 
z
" transform="scale(0.015625)"/>
       <path id="DejaVuSans-74" d="M 1172 4494 
L 1172 3500 
L 2356 3500 
L 2356 3053 
L 1172 3053 
L 1172 1153 
Q 1172 725 1289 603 
Q 1406 481 1766 481 
L 2356 481 
L 2356 0 
L 1766 0 
Q 1100 0 847 248 
Q 594 497 594 1153 
L 594 3053 
L 172 3053 
L 172 3500 
L 594 3500 
L 594 4494 
L 1172 4494 
z
" transform="scale(0.015625)"/>
       <path id="DejaVuSans-79" d="M 2059 -325 
Q 1816 -950 1584 -1140 
Q 1353 -1331 966 -1331 
L 506 -1331 
L 506 -850 
L 844 -850 
Q 1081 -850 1212 -737 
Q 1344 -625 1503 -206 
L 1606 56 
L 191 3500 
L 800 3500 
L 1894 763 
L 2988 3500 
L 3597 3500 
L 2059 -325 
z
" transform="scale(0.015625)"/>
       <path id="DejaVuSans-20" transform="scale(0.015625)"/>
       <path id="DejaVuSans-6e" d="M 3513 2113 
L 3513 0 
L 2938 0 
L 2938 2094 
Q 2938 2591 2744 2837 
Q 2550 3084 2163 3084 
Q 1697 3084 1428 2787 
Q 1159 2491 1159 1978 
L 1159 0 
L 581 0 
L 581 3500 
L 1159 3500 
L 1159 2956 
Q 1366 3272 1645 3428 
Q 1925 3584 2291 3584 
Q 2894 3584 3203 3211 
Q 3513 2838 3513 2113 
z
" transform="scale(0.015625)"/>
       <path id="DejaVuSans-56" d="M 1831 0 
L 50 4666 
L 709 4666 
L 2188 738 
L 3669 4666 
L 4325 4666 
L 2547 0 
L 1831 0 
z
" transform="scale(0.015625)"/>
       <path id="DejaVuSans-61" d="M 2194 1759 
Q 1497 1759 1228 1600 
Q 959 1441 959 1056 
Q 959 750 1161 570 
Q 1363 391 1709 391 
Q 2188 391 2477 730 
Q 2766 1069 2766 1631 
L 2766 1759 
L 2194 1759 
z
M 3341 1997 
L 3341 0 
L 2766 0 
L 2766 531 
Q 2569 213 2275 61 
Q 1981 -91 1556 -91 
Q 1019 -91 701 211 
Q 384 513 384 1019 
Q 384 1609 779 1909 
Q 1175 2209 1959 2209 
L 2766 2209 
L 2766 2266 
Q 2766 2663 2505 2880 
Q 2244 3097 1772 3097 
Q 1472 3097 1187 3025 
Q 903 2953 641 2809 
L 641 3341 
Q 956 3463 1253 3523 
Q 1550 3584 1831 3584 
Q 2591 3584 2966 3190 
Q 3341 2797 3341 1997 
z
" transform="scale(0.015625)"/>
       <path id="DejaVuSans-63" d="M 3122 3366 
L 3122 2828 
Q 2878 2963 2633 3030 
Q 2388 3097 2138 3097 
Q 1578 3097 1268 2742 
Q 959 2388 959 1747 
Q 959 1106 1268 751 
Q 1578 397 2138 397 
Q 2388 397 2633 464 
Q 2878 531 3122 666 
L 3122 134 
Q 2881 22 2623 -34 
Q 2366 -91 2075 -91 
Q 1284 -91 818 406 
Q 353 903 353 1747 
Q 353 2603 823 3093 
Q 1294 3584 2113 3584 
Q 2378 3584 2631 3529 
Q 2884 3475 3122 3366 
z
" transform="scale(0.015625)"/>
       <path id="DejaVuSans-6f" d="M 1959 3097 
Q 1497 3097 1228 2736 
Q 959 2375 959 1747 
Q 959 1119 1226 758 
Q 1494 397 1959 397 
Q 2419 397 2687 759 
Q 2956 1122 2956 1747 
Q 2956 2369 2687 2733 
Q 2419 3097 1959 3097 
z
M 1959 3584 
Q 2709 3584 3137 3096 
Q 3566 2609 3566 1747 
Q 3566 888 3137 398 
Q 2709 -91 1959 -91 
Q 1206 -91 779 398 
Q 353 888 353 1747 
Q 353 2609 779 3096 
Q 1206 3584 1959 3584 
z
" transform="scale(0.015625)"/>
       <path id="DejaVuSans-42" d="M 1259 2228 
L 1259 519 
L 2272 519 
Q 2781 519 3026 730 
Q 3272 941 3272 1375 
Q 3272 1813 3026 2020 
Q 2781 2228 2272 2228 
L 1259 2228 
z
M 1259 4147 
L 1259 2741 
L 2194 2741 
Q 2656 2741 2882 2914 
Q 3109 3088 3109 3444 
Q 3109 3797 2882 3972 
Q 2656 4147 2194 4147 
L 1259 4147 
z
M 628 4666 
L 2241 4666 
Q 2963 4666 3353 4366 
Q 3744 4066 3744 3513 
Q 3744 3084 3544 2831 
Q 3344 2578 2956 2516 
Q 3422 2416 3680 2098 
Q 3938 1781 3938 1306 
Q 3938 681 3513 340 
Q 3088 0 2303 0 
L 628 0 
L 628 4666 
z
" transform="scale(0.015625)"/>
       <path id="DejaVuSans-72" d="M 2631 2963 
Q 2534 3019 2420 3045 
Q 2306 3072 2169 3072 
Q 1681 3072 1420 2755 
Q 1159 2438 1159 1844 
L 1159 0 
L 581 0 
L 581 3500 
L 1159 3500 
L 1159 2956 
Q 1341 3275 1631 3429 
Q 1922 3584 2338 3584 
Q 2397 3584 2469 3576 
Q 2541 3569 2628 3553 
L 2631 2963 
z
" transform="scale(0.015625)"/>
       <path id="DejaVuSans-64" d="M 2906 2969 
L 2906 4863 
L 3481 4863 
L 3481 0 
L 2906 0 
L 2906 525 
Q 2725 213 2448 61 
Q 2172 -91 1784 -91 
Q 1150 -91 751 415 
Q 353 922 353 1747 
Q 353 2572 751 3078 
Q 1150 3584 1784 3584 
Q 2172 3584 2448 3432 
Q 2725 3281 2906 2969 
z
M 947 1747 
Q 947 1113 1208 752 
Q 1469 391 1925 391 
Q 2381 391 2643 752 
Q 2906 1113 2906 1747 
Q 2906 2381 2643 2742 
Q 2381 3103 1925 3103 
Q 1469 3103 1208 2742 
Q 947 2381 947 1747 
z
" transform="scale(0.015625)"/>
       <path id="DejaVuSans-65" d="M 3597 1894 
L 3597 1613 
L 953 1613 
Q 991 1019 1311 708 
Q 1631 397 2203 397 
Q 2534 397 2845 478 
Q 3156 559 3463 722 
L 3463 178 
Q 3153 47 2828 -22 
Q 2503 -91 2169 -91 
Q 1331 -91 842 396 
Q 353 884 353 1716 
Q 353 2575 817 3079 
Q 1281 3584 2069 3584 
Q 2775 3584 3186 3129 
Q 3597 2675 3597 1894 
z
M 3022 2063 
Q 3016 2534 2758 2815 
Q 2500 3097 2075 3097 
Q 1594 3097 1305 2825 
Q 1016 2553 972 2059 
L 3022 2063 
z
" transform="scale(0.015625)"/>
       <path id="DejaVuSans-4d" d="M 628 4666 
L 1569 4666 
L 2759 1491 
L 3956 4666 
L 4897 4666 
L 4897 0 
L 4281 0 
L 4281 4097 
L 3078 897 
L 2444 897 
L 1241 4097 
L 1241 0 
L 628 0 
L 628 4666 
z
" transform="scale(0.015625)"/>
       <path id="DejaVuSans-6c" d="M 603 4863 
L 1178 4863 
L 1178 0 
L 603 0 
L 603 4863 
z
" transform="scale(0.015625)"/>
       <path id="DejaVuSans-70" d="M 1159 525 
L 1159 -1331 
L 581 -1331 
L 581 3500 
L 1159 3500 
L 1159 2969 
Q 1341 3281 1617 3432 
Q 1894 3584 2278 3584 
Q 2916 3584 3314 3078 
Q 3713 2572 3713 1747 
Q 3713 922 3314 415 
Q 2916 -91 2278 -91 
Q 1894 -91 1617 61 
Q 1341 213 1159 525 
z
M 3116 1747 
Q 3116 2381 2855 2742 
Q 2594 3103 2138 3103 
Q 1681 3103 1420 2742 
Q 1159 2381 1159 1747 
Q 1159 1113 1420 752 
Q 1681 391 2138 391 
Q 2594 391 2855 752 
Q 3116 1113 3116 1747 
z
" transform="scale(0.015625)"/>
       <path id="DejaVuSans-28" d="M 1984 4856 
Q 1566 4138 1362 3434 
Q 1159 2731 1159 2009 
Q 1159 1288 1364 580 
Q 1569 -128 1984 -844 
L 1484 -844 
Q 1016 -109 783 600 
Q 550 1309 550 2009 
Q 550 2706 781 3412 
Q 1013 4119 1484 4856 
L 1984 4856 
z
" transform="scale(0.015625)"/>
       <path id="DejaVuSans-29" d="M 513 4856 
L 1013 4856 
Q 1481 4119 1714 3412 
Q 1947 2706 1947 2009 
Q 1947 1309 1714 600 
Q 1481 -109 1013 -844 
L 513 -844 
Q 928 -128 1133 580 
Q 1338 1288 1338 2009 
Q 1338 2731 1133 3434 
Q 928 4138 513 4856 
z
" transform="scale(0.015625)"/>
      </defs>
      <use xlink:href="#DejaVuSans-45"/>
      <use xlink:href="#DejaVuSans-71" x="63.183594"/>
      <use xlink:href="#DejaVuSans-75" x="126.660156"/>
      <use xlink:href="#DejaVuSans-69" x="190.039062"/>
      <use xlink:href="#DejaVuSans-74" x="217.822266"/>
      <use xlink:href="#DejaVuSans-79" x="257.03125"/>
      <use xlink:href="#DejaVuSans-20" x="316.210938"/>
      <use xlink:href="#DejaVuSans-69" x="347.998047"/>
      <use xlink:href="#DejaVuSans-6e" x="375.78125"/>
      <use xlink:href="#DejaVuSans-20" x="439.160156"/>
      <use xlink:href="#DejaVuSans-56" x="470.947266"/>
      <use xlink:href="#DejaVuSans-61" x="531.605469"/>
      <use xlink:href="#DejaVuSans-63" x="592.884766"/>
      <use xlink:href="#DejaVuSans-63" x="647.865234"/>
      <use xlink:href="#DejaVuSans-69" x="702.845703"/>
      <use xlink:href="#DejaVuSans-6e" x="730.628906"/>
      <use xlink:href="#DejaVuSans-61" x="794.007812"/>
      <use xlink:href="#DejaVuSans-74" x="855.287109"/>
      <use xlink:href="#DejaVuSans-69" x="894.496094"/>
      <use xlink:href="#DejaVuSans-6f" x="922.279297"/>
      <use xlink:href="#DejaVuSans-6e" x="983.460938"/>
      <use xlink:href="#DejaVuSans-20" x="1046.839844"/>
      <use xlink:href="#DejaVuSans-42" x="1078.626953"/>
      <use xlink:href="#DejaVuSans-75" x="1147.230469"/>
      <use xlink:href="#DejaVuSans-72" x="1210.609375"/>
      <use xlink:href="#DejaVuSans-64" x="1249.972656"/>
      <use xlink:href="#DejaVuSans-65" x="1313.449219"/>
      <use xlink:href="#DejaVuSans-6e" x="1374.972656"/>
      <use xlink:href="#DejaVuSans-20" x="1438.351562"/>
      <use xlink:href="#DejaVuSans-4d" x="1470.138672"/>
      <use xlink:href="#DejaVuSans-75" x="1556.417969"/>
      <use xlink:href="#DejaVuSans-6c" x="1619.796875"/>
      <use xlink:href="#DejaVuSans-74" x="1647.580078"/>
      <use xlink:href="#DejaVuSans-69" x="1686.789062"/>
      <use xlink:href="#DejaVuSans-70" x="1714.572266"/>
      <use xlink:href="#DejaVuSans-6c" x="1778.048828"/>
      <use xlink:href="#DejaVuSans-69" x="1805.832031"/>
      <use xlink:href="#DejaVuSans-65" x="1833.615234"/>
      <use xlink:href="#DejaVuSans-72" x="1895.138672"/>
      <use xlink:href="#DejaVuSans-20" x="1936.251953"/>
      <use xlink:href="#DejaVuSans-28" x="1968.039062"/>
      <use xlink:href="#DejaVuSans-61" x="2007.052734"/>
      <use xlink:href="#DejaVuSans-29" x="2068.332031"/>
     </g>
    </g>
   </g>
   <g id="matplotlib.axis_2">
    <g id="ytick_1">
     <g id="line2d_7">
      <defs>
       <path id="m1edcb51b2f" d="M 0 0 
L -3.5 0 
" style="stroke: #000000; stroke-width: 0.8"/>
      </defs>
      <g>
       <use xlink:href="#m1edcb51b2f" x="43.78125" y="277.111219" style="stroke: #000000; stroke-width: 0.8"/>
      </g>
     </g>
     <g id="text_8">
      <!-- 0.0 -->
      <g transform="translate(20.878125 280.910437) scale(0.1 -0.1)">
       <use xlink:href="#DejaVuSans-30"/>
       <use xlink:href="#DejaVuSans-2e" x="63.623047"/>
       <use xlink:href="#DejaVuSans-30" x="95.410156"/>
      </g>
     </g>
    </g>
    <g id="ytick_2">
     <g id="line2d_8">
      <g>
       <use xlink:href="#m1edcb51b2f" x="43.78125" y="223.888819" style="stroke: #000000; stroke-width: 0.8"/>
      </g>
     </g>
     <g id="text_9">
      <!-- 0.2 -->
      <g transform="translate(20.878125 227.688037) scale(0.1 -0.1)">
       <use xlink:href="#DejaVuSans-30"/>
       <use xlink:href="#DejaVuSans-2e" x="63.623047"/>
       <use xlink:href="#DejaVuSans-32" x="95.410156"/>
      </g>
     </g>
    </g>
    <g id="ytick_3">
     <g id="line2d_9">
      <g>
       <use xlink:href="#m1edcb51b2f" x="43.78125" y="170.666419" style="stroke: #000000; stroke-width: 0.8"/>
      </g>
     </g>
     <g id="text_10">
      <!-- 0.4 -->
      <g transform="translate(20.878125 174.465637) scale(0.1 -0.1)">
       <use xlink:href="#DejaVuSans-30"/>
       <use xlink:href="#DejaVuSans-2e" x="63.623047"/>
       <use xlink:href="#DejaVuSans-34" x="95.410156"/>
      </g>
     </g>
    </g>
    <g id="ytick_4">
     <g id="line2d_10">
      <g>
       <use xlink:href="#m1edcb51b2f" x="43.78125" y="117.444019" style="stroke: #000000; stroke-width: 0.8"/>
      </g>
     </g>
     <g id="text_11">
      <!-- 0.6 -->
      <g transform="translate(20.878125 121.243237) scale(0.1 -0.1)">
       <use xlink:href="#DejaVuSans-30"/>
       <use xlink:href="#DejaVuSans-2e" x="63.623047"/>
       <use xlink:href="#DejaVuSans-36" x="95.410156"/>
      </g>
     </g>
    </g>
    <g id="ytick_5">
     <g id="line2d_11">
      <g>
       <use xlink:href="#m1edcb51b2f" x="43.78125" y="64.221619" style="stroke: #000000; stroke-width: 0.8"/>
      </g>
     </g>
     <g id="text_12">
      <!-- 0.8 -->
      <g transform="translate(20.878125 68.020837) scale(0.1 -0.1)">
       <use xlink:href="#DejaVuSans-30"/>
       <use xlink:href="#DejaVuSans-2e" x="63.623047"/>
       <use xlink:href="#DejaVuSans-38" x="95.410156"/>
      </g>
     </g>
    </g>
    <g id="ytick_6">
     <g id="line2d_12">
      <g>
       <use xlink:href="#m1edcb51b2f" x="43.78125" y="10.999219" style="stroke: #000000; stroke-width: 0.8"/>
      </g>
     </g>
     <g id="text_13">
      <!-- 1.0 -->
      <g transform="translate(20.878125 14.798437) scale(0.1 -0.1)">
       <use xlink:href="#DejaVuSans-31"/>
       <use xlink:href="#DejaVuSans-2e" x="63.623047"/>
       <use xlink:href="#DejaVuSans-30" x="95.410156"/>
      </g>
     </g>
    </g>
    <g id="text_14">
     <!-- Equity in Infection Burden Multiplier (b) -->
     <g transform="translate(14.798438 242.544281) rotate(-90) scale(0.1 -0.1)">
      <defs>
       <path id="DejaVuSans-49" d="M 628 4666 
L 1259 4666 
L 1259 0 
L 628 0 
L 628 4666 
z
" transform="scale(0.015625)"/>
       <path id="DejaVuSans-66" d="M 2375 4863 
L 2375 4384 
L 1825 4384 
Q 1516 4384 1395 4259 
Q 1275 4134 1275 3809 
L 1275 3500 
L 2222 3500 
L 2222 3053 
L 1275 3053 
L 1275 0 
L 697 0 
L 697 3053 
L 147 3053 
L 147 3500 
L 697 3500 
L 697 3744 
Q 697 4328 969 4595 
Q 1241 4863 1831 4863 
L 2375 4863 
z
" transform="scale(0.015625)"/>
       <path id="DejaVuSans-62" d="M 3116 1747 
Q 3116 2381 2855 2742 
Q 2594 3103 2138 3103 
Q 1681 3103 1420 2742 
Q 1159 2381 1159 1747 
Q 1159 1113 1420 752 
Q 1681 391 2138 391 
Q 2594 391 2855 752 
Q 3116 1113 3116 1747 
z
M 1159 2969 
Q 1341 3281 1617 3432 
Q 1894 3584 2278 3584 
Q 2916 3584 3314 3078 
Q 3713 2572 3713 1747 
Q 3713 922 3314 415 
Q 2916 -91 2278 -91 
Q 1894 -91 1617 61 
Q 1341 213 1159 525 
L 1159 0 
L 581 0 
L 581 4863 
L 1159 4863 
L 1159 2969 
z
" transform="scale(0.015625)"/>
      </defs>
      <use xlink:href="#DejaVuSans-45"/>
      <use xlink:href="#DejaVuSans-71" x="63.183594"/>
      <use xlink:href="#DejaVuSans-75" x="126.660156"/>
      <use xlink:href="#DejaVuSans-69" x="190.039062"/>
      <use xlink:href="#DejaVuSans-74" x="217.822266"/>
      <use xlink:href="#DejaVuSans-79" x="257.03125"/>
      <use xlink:href="#DejaVuSans-20" x="316.210938"/>
      <use xlink:href="#DejaVuSans-69" x="347.998047"/>
      <use xlink:href="#DejaVuSans-6e" x="375.78125"/>
      <use xlink:href="#DejaVuSans-20" x="439.160156"/>
      <use xlink:href="#DejaVuSans-49" x="470.947266"/>
      <use xlink:href="#DejaVuSans-6e" x="500.439453"/>
      <use xlink:href="#DejaVuSans-66" x="563.818359"/>
      <use xlink:href="#DejaVuSans-65" x="599.023438"/>
      <use xlink:href="#DejaVuSans-63" x="660.546875"/>
      <use xlink:href="#DejaVuSans-74" x="715.527344"/>
      <use xlink:href="#DejaVuSans-69" x="754.736328"/>
      <use xlink:href="#DejaVuSans-6f" x="782.519531"/>
      <use xlink:href="#DejaVuSans-6e" x="843.701172"/>
      <use xlink:href="#DejaVuSans-20" x="907.080078"/>
      <use xlink:href="#DejaVuSans-42" x="938.867188"/>
      <use xlink:href="#DejaVuSans-75" x="1007.470703"/>
      <use xlink:href="#DejaVuSans-72" x="1070.849609"/>
      <use xlink:href="#DejaVuSans-64" x="1110.212891"/>
      <use xlink:href="#DejaVuSans-65" x="1173.689453"/>
      <use xlink:href="#DejaVuSans-6e" x="1235.212891"/>
      <use xlink:href="#DejaVuSans-20" x="1298.591797"/>
      <use xlink:href="#DejaVuSans-4d" x="1330.378906"/>
      <use xlink:href="#DejaVuSans-75" x="1416.658203"/>
      <use xlink:href="#DejaVuSans-6c" x="1480.037109"/>
      <use xlink:href="#DejaVuSans-74" x="1507.820312"/>
      <use xlink:href="#DejaVuSans-69" x="1547.029297"/>
      <use xlink:href="#DejaVuSans-70" x="1574.8125"/>
      <use xlink:href="#DejaVuSans-6c" x="1638.289062"/>
      <use xlink:href="#DejaVuSans-69" x="1666.072266"/>
      <use xlink:href="#DejaVuSans-65" x="1693.855469"/>
      <use xlink:href="#DejaVuSans-72" x="1755.378906"/>
      <use xlink:href="#DejaVuSans-20" x="1796.492188"/>
      <use xlink:href="#DejaVuSans-28" x="1828.279297"/>
      <use xlink:href="#DejaVuSans-62" x="1867.292969"/>
      <use xlink:href="#DejaVuSans-29" x="1930.769531"/>
     </g>
    </g>
   </g>
   <g id="patch_3">
    <path d="M 43.78125 277.111219 
L 43.78125 10.999219 
" style="fill: none; stroke: #000000; stroke-width: 0.8; stroke-linejoin: miter; stroke-linecap: square"/>
   </g>
   <g id="patch_4">
    <path d="M 329.47725 277.111219 
L 329.47725 10.999219 
" style="fill: none; stroke: #000000; stroke-width: 0.8; stroke-linejoin: miter; stroke-linecap: square"/>
   </g>
   <g id="patch_5">
    <path d="M 43.78125 277.111219 
L 329.47725 277.111219 
" style="fill: none; stroke: #000000; stroke-width: 0.8; stroke-linejoin: miter; stroke-linecap: square"/>
   </g>
   <g id="patch_6">
    <path d="M 43.78125 10.999219 
L 329.47725 10.999219 
" style="fill: none; stroke: #000000; stroke-width: 0.8; stroke-linejoin: miter; stroke-linecap: square"/>
   </g>
  </g>
  <g id="axes_2">
   <g id="patch_7">
    <path d="M 347.33325 277.111219 
L 360.63885 277.111219 
L 360.63885 10.999219 
L 347.33325 10.999219 
z
" style="fill: #ffffff"/>
   </g>
   <g id="QuadMesh_1">
    <path d="M 347.33325 277.111219 
L 360.63885 277.111219 
L 360.63885 260.479219 
L 347.33325 260.479219 
L 347.33325 277.111219 
" clip-path="url(#p10fe712cdf)" style="fill: #fff0e8"/>
    <path d="M 347.33325 260.479219 
L 360.63885 260.479219 
L 360.63885 243.847219 
L 347.33325 243.847219 
L 347.33325 260.479219 
" clip-path="url(#p10fe712cdf)" style="fill: #fee5d9"/>
    <path d="M 347.33325 243.847219 
L 360.63885 243.847219 
L 360.63885 227.215219 
L 347.33325 227.215219 
L 347.33325 243.847219 
" clip-path="url(#p10fe712cdf)" style="fill: #fdd7c6"/>
    <path d="M 347.33325 227.215219 
L 360.63885 227.215219 
L 360.63885 210.583219 
L 347.33325 210.583219 
L 347.33325 227.215219 
" clip-path="url(#p10fe712cdf)" style="fill: #fcc4ad"/>
    <path d="M 347.33325 210.583219 
L 360.63885 210.583219 
L 360.63885 193.951219 
L 347.33325 193.951219 
L 347.33325 210.583219 
" clip-path="url(#p10fe712cdf)" style="fill: #fcb095"/>
    <path d="M 347.33325 193.951219 
L 360.63885 193.951219 
L 360.63885 177.319219 
L 347.33325 177.319219 
L 347.33325 193.951219 
" clip-path="url(#p10fe712cdf)" style="fill: #fc9c7d"/>
    <path d="M 347.33325 177.319219 
L 360.63885 177.319219 
L 360.63885 160.687219 
L 347.33325 160.687219 
L 347.33325 177.319219 
" clip-path="url(#p10fe712cdf)" style="fill: #fc8767"/>
    <path d="M 347.33325 160.687219 
L 360.63885 160.687219 
L 360.63885 144.055219 
L 347.33325 144.055219 
L 347.33325 160.687219 
" clip-path="url(#p10fe712cdf)" style="fill: #fb7353"/>
    <path d="M 347.33325 144.055219 
L 360.63885 144.055219 
L 360.63885 127.423219 
L 347.33325 127.423219 
L 347.33325 144.055219 
" clip-path="url(#p10fe712cdf)" style="fill: #f85d42"/>
    <path d="M 347.33325 127.423219 
L 360.63885 127.423219 
L 360.63885 110.791219 
L 347.33325 110.791219 
L 347.33325 127.423219 
" clip-path="url(#p10fe712cdf)" style="fill: #f24633"/>
    <path d="M 347.33325 110.791219 
L 360.63885 110.791219 
L 360.63885 94.159219 
L 347.33325 94.159219 
L 347.33325 110.791219 
" clip-path="url(#p10fe712cdf)" style="fill: #e53228"/>
    <path d="M 347.33325 94.159219 
L 360.63885 94.159219 
L 360.63885 77.527219 
L 347.33325 77.527219 
L 347.33325 94.159219 
" clip-path="url(#p10fe712cdf)" style="fill: #d32020"/>
    <path d="M 347.33325 77.527219 
L 360.63885 77.527219 
L 360.63885 60.895219 
L 347.33325 60.895219 
L 347.33325 77.527219 
" clip-path="url(#p10fe712cdf)" style="fill: #c1161b"/>
    <path d="M 347.33325 60.895219 
L 360.63885 60.895219 
L 360.63885 44.263219 
L 347.33325 44.263219 
L 347.33325 60.895219 
" clip-path="url(#p10fe712cdf)" style="fill: #ad1117"/>
    <path d="M 347.33325 44.263219 
L 360.63885 44.263219 
L 360.63885 27.631219 
L 347.33325 27.631219 
L 347.33325 44.263219 
" clip-path="url(#p10fe712cdf)" style="fill: #940b13"/>
    <path d="M 347.33325 27.631219 
L 360.63885 27.631219 
L 360.63885 10.999219 
L 347.33325 10.999219 
L 347.33325 27.631219 
" clip-path="url(#p10fe712cdf)" style="fill: #75030f"/>
   </g>
   <g id="matplotlib.axis_3"/>
   <g id="matplotlib.axis_4">
    <g id="ytick_7">
     <g id="line2d_13">
      <defs>
       <path id="m45680c47a5" d="M 0 0 
L 3.5 0 
" style="stroke: #000000; stroke-width: 0.8"/>
      </defs>
      <g>
       <use xlink:href="#m45680c47a5" x="360.63885" y="277.111219" style="stroke: #000000; stroke-width: 0.8"/>
      </g>
     </g>
     <g id="text_15">
      <!-- 80 -->
      <g transform="translate(367.63885 280.910437) scale(0.1 -0.1)">
       <use xlink:href="#DejaVuSans-38"/>
       <use xlink:href="#DejaVuSans-30" x="63.623047"/>
      </g>
     </g>
    </g>
    <g id="ytick_8">
     <g id="line2d_14">
      <g>
       <use xlink:href="#m45680c47a5" x="360.63885" y="243.847219" style="stroke: #000000; stroke-width: 0.8"/>
      </g>
     </g>
     <g id="text_16">
      <!-- 160 -->
      <g transform="translate(367.63885 247.646437) scale(0.1 -0.1)">
       <use xlink:href="#DejaVuSans-31"/>
       <use xlink:href="#DejaVuSans-36" x="63.623047"/>
       <use xlink:href="#DejaVuSans-30" x="127.246094"/>
      </g>
     </g>
    </g>
    <g id="ytick_9">
     <g id="line2d_15">
      <g>
       <use xlink:href="#m45680c47a5" x="360.63885" y="210.583219" style="stroke: #000000; stroke-width: 0.8"/>
      </g>
     </g>
     <g id="text_17">
      <!-- 240 -->
      <g transform="translate(367.63885 214.382437) scale(0.1 -0.1)">
       <use xlink:href="#DejaVuSans-32"/>
       <use xlink:href="#DejaVuSans-34" x="63.623047"/>
       <use xlink:href="#DejaVuSans-30" x="127.246094"/>
      </g>
     </g>
    </g>
    <g id="ytick_10">
     <g id="line2d_16">
      <g>
       <use xlink:href="#m45680c47a5" x="360.63885" y="177.319219" style="stroke: #000000; stroke-width: 0.8"/>
      </g>
     </g>
     <g id="text_18">
      <!-- 320 -->
      <g transform="translate(367.63885 181.118437) scale(0.1 -0.1)">
       <defs>
        <path id="DejaVuSans-33" d="M 2597 2516 
Q 3050 2419 3304 2112 
Q 3559 1806 3559 1356 
Q 3559 666 3084 287 
Q 2609 -91 1734 -91 
Q 1441 -91 1130 -33 
Q 819 25 488 141 
L 488 750 
Q 750 597 1062 519 
Q 1375 441 1716 441 
Q 2309 441 2620 675 
Q 2931 909 2931 1356 
Q 2931 1769 2642 2001 
Q 2353 2234 1838 2234 
L 1294 2234 
L 1294 2753 
L 1863 2753 
Q 2328 2753 2575 2939 
Q 2822 3125 2822 3475 
Q 2822 3834 2567 4026 
Q 2313 4219 1838 4219 
Q 1578 4219 1281 4162 
Q 984 4106 628 3988 
L 628 4550 
Q 988 4650 1302 4700 
Q 1616 4750 1894 4750 
Q 2613 4750 3031 4423 
Q 3450 4097 3450 3541 
Q 3450 3153 3228 2886 
Q 3006 2619 2597 2516 
z
" transform="scale(0.015625)"/>
       </defs>
       <use xlink:href="#DejaVuSans-33"/>
       <use xlink:href="#DejaVuSans-32" x="63.623047"/>
       <use xlink:href="#DejaVuSans-30" x="127.246094"/>
      </g>
     </g>
    </g>
    <g id="ytick_11">
     <g id="line2d_17">
      <g>
       <use xlink:href="#m45680c47a5" x="360.63885" y="144.055219" style="stroke: #000000; stroke-width: 0.8"/>
      </g>
     </g>
     <g id="text_19">
      <!-- 400 -->
      <g transform="translate(367.63885 147.854437) scale(0.1 -0.1)">
       <use xlink:href="#DejaVuSans-34"/>
       <use xlink:href="#DejaVuSans-30" x="63.623047"/>
       <use xlink:href="#DejaVuSans-30" x="127.246094"/>
      </g>
     </g>
    </g>
    <g id="ytick_12">
     <g id="line2d_18">
      <g>
       <use xlink:href="#m45680c47a5" x="360.63885" y="110.791219" style="stroke: #000000; stroke-width: 0.8"/>
      </g>
     </g>
     <g id="text_20">
      <!-- 480 -->
      <g transform="translate(367.63885 114.590437) scale(0.1 -0.1)">
       <use xlink:href="#DejaVuSans-34"/>
       <use xlink:href="#DejaVuSans-38" x="63.623047"/>
       <use xlink:href="#DejaVuSans-30" x="127.246094"/>
      </g>
     </g>
    </g>
    <g id="ytick_13">
     <g id="line2d_19">
      <g>
       <use xlink:href="#m45680c47a5" x="360.63885" y="77.527219" style="stroke: #000000; stroke-width: 0.8"/>
      </g>
     </g>
     <g id="text_21">
      <!-- 560 -->
      <g transform="translate(367.63885 81.326437) scale(0.1 -0.1)">
       <defs>
        <path id="DejaVuSans-35" d="M 691 4666 
L 3169 4666 
L 3169 4134 
L 1269 4134 
L 1269 2991 
Q 1406 3038 1543 3061 
Q 1681 3084 1819 3084 
Q 2600 3084 3056 2656 
Q 3513 2228 3513 1497 
Q 3513 744 3044 326 
Q 2575 -91 1722 -91 
Q 1428 -91 1123 -41 
Q 819 9 494 109 
L 494 744 
Q 775 591 1075 516 
Q 1375 441 1709 441 
Q 2250 441 2565 725 
Q 2881 1009 2881 1497 
Q 2881 1984 2565 2268 
Q 2250 2553 1709 2553 
Q 1456 2553 1204 2497 
Q 953 2441 691 2322 
L 691 4666 
z
" transform="scale(0.015625)"/>
       </defs>
       <use xlink:href="#DejaVuSans-35"/>
       <use xlink:href="#DejaVuSans-36" x="63.623047"/>
       <use xlink:href="#DejaVuSans-30" x="127.246094"/>
      </g>
     </g>
    </g>
    <g id="ytick_14">
     <g id="line2d_20">
      <g>
       <use xlink:href="#m45680c47a5" x="360.63885" y="44.263219" style="stroke: #000000; stroke-width: 0.8"/>
      </g>
     </g>
     <g id="text_22">
      <!-- 640 -->
      <g transform="translate(367.63885 48.062437) scale(0.1 -0.1)">
       <use xlink:href="#DejaVuSans-36"/>
       <use xlink:href="#DejaVuSans-34" x="63.623047"/>
       <use xlink:href="#DejaVuSans-30" x="127.246094"/>
      </g>
     </g>
    </g>
    <g id="ytick_15">
     <g id="line2d_21">
      <g>
       <use xlink:href="#m45680c47a5" x="360.63885" y="10.999219" style="stroke: #000000; stroke-width: 0.8"/>
      </g>
     </g>
     <g id="text_23">
      <!-- 720 -->
      <g transform="translate(367.63885 14.798437) scale(0.1 -0.1)">
       <defs>
        <path id="DejaVuSans-37" d="M 525 4666 
L 3525 4666 
L 3525 4397 
L 1831 0 
L 1172 0 
L 2766 4134 
L 525 4134 
L 525 4666 
z
" transform="scale(0.015625)"/>
       </defs>
       <use xlink:href="#DejaVuSans-37"/>
       <use xlink:href="#DejaVuSans-32" x="63.623047"/>
       <use xlink:href="#DejaVuSans-30" x="127.246094"/>
      </g>
     </g>
    </g>
    <g id="text_24">
     <!-- Total Clinical Burden -->
     <g transform="translate(398.324788 194.926312) rotate(-90) scale(0.1 -0.1)">
      <defs>
       <path id="DejaVuSans-54" d="M -19 4666 
L 3928 4666 
L 3928 4134 
L 2272 4134 
L 2272 0 
L 1638 0 
L 1638 4134 
L -19 4134 
L -19 4666 
z
" transform="scale(0.015625)"/>
       <path id="DejaVuSans-43" d="M 4122 4306 
L 4122 3641 
Q 3803 3938 3442 4084 
Q 3081 4231 2675 4231 
Q 1875 4231 1450 3742 
Q 1025 3253 1025 2328 
Q 1025 1406 1450 917 
Q 1875 428 2675 428 
Q 3081 428 3442 575 
Q 3803 722 4122 1019 
L 4122 359 
Q 3791 134 3420 21 
Q 3050 -91 2638 -91 
Q 1578 -91 968 557 
Q 359 1206 359 2328 
Q 359 3453 968 4101 
Q 1578 4750 2638 4750 
Q 3056 4750 3426 4639 
Q 3797 4528 4122 4306 
z
" transform="scale(0.015625)"/>
      </defs>
      <use xlink:href="#DejaVuSans-54"/>
      <use xlink:href="#DejaVuSans-6f" x="44.083984"/>
      <use xlink:href="#DejaVuSans-74" x="105.265625"/>
      <use xlink:href="#DejaVuSans-61" x="144.474609"/>
      <use xlink:href="#DejaVuSans-6c" x="205.753906"/>
      <use xlink:href="#DejaVuSans-20" x="233.537109"/>
      <use xlink:href="#DejaVuSans-43" x="265.324219"/>
      <use xlink:href="#DejaVuSans-6c" x="335.148438"/>
      <use xlink:href="#DejaVuSans-69" x="362.931641"/>
      <use xlink:href="#DejaVuSans-6e" x="390.714844"/>
      <use xlink:href="#DejaVuSans-69" x="454.09375"/>
      <use xlink:href="#DejaVuSans-63" x="481.876953"/>
      <use xlink:href="#DejaVuSans-61" x="536.857422"/>
      <use xlink:href="#DejaVuSans-6c" x="598.136719"/>
      <use xlink:href="#DejaVuSans-20" x="625.919922"/>
      <use xlink:href="#DejaVuSans-42" x="657.707031"/>
      <use xlink:href="#DejaVuSans-75" x="726.310547"/>
      <use xlink:href="#DejaVuSans-72" x="789.689453"/>
      <use xlink:href="#DejaVuSans-64" x="829.052734"/>
      <use xlink:href="#DejaVuSans-65" x="892.529297"/>
      <use xlink:href="#DejaVuSans-6e" x="954.052734"/>
     </g>
    </g>
   </g>
   <g id="LineCollection_1"/>
   <g id="patch_8">
    <path d="M 347.33325 277.111219 
L 353.98605 277.111219 
L 360.63885 277.111219 
L 360.63885 10.999219 
L 353.98605 10.999219 
L 347.33325 10.999219 
L 347.33325 277.111219 
z
" style="fill: none; stroke: #000000; stroke-width: 0.8; stroke-linejoin: miter; stroke-linecap: square"/>
   </g>
  </g>
 </g>
 <defs>
  <clipPath id="p9792ac7815">
   <rect x="43.78125" y="10.999219" width="285.696" height="266.112"/>
  </clipPath>
  <clipPath id="p10fe712cdf">
   <rect x="347.33325" y="10.999219" width="13.3056" height="266.112"/>
  </clipPath>
 </defs>
</svg>
