<?xml version="1.0" encoding="utf-8" standalone="no"?>
<!DOCTYPE svg PUBLIC "-//W3C//DTD SVG 1.1//EN"
  "http://www.w3.org/Graphics/SVG/1.1/DTD/svg11.dtd">
<svg xmlns:xlink="http://www.w3.org/1999/xlink" width="401.241975pt" height="314.667469pt" viewBox="0 0 401.241975 314.667469" xmlns="http://www.w3.org/2000/svg" version="1.1">
 <metadata>
  <rdf:RDF xmlns:dc="http://purl.org/dc/elements/1.1/" xmlns:cc="http://creativecommons.org/ns#" xmlns:rdf="http://www.w3.org/1999/02/22-rdf-syntax-ns#">
   <cc:Work>
    <dc:type rdf:resource="http://purl.org/dc/dcmitype/StillImage"/>
    <dc:date>2024-10-31T11:14:29.205265</dc:date>
    <dc:format>image/svg+xml</dc:format>
    <dc:creator>
     <cc:Agent>
      <dc:title>Matplotlib v3.9.0, https://matplotlib.org/</dc:title>
     </cc:Agent>
    </dc:creator>
   </cc:Work>
  </rdf:RDF>
 </metadata>
 <defs>
  <style type="text/css">*{stroke-linejoin: round; stroke-linecap: butt}</style>
 </defs>
 <g id="figure_1">
  <g id="patch_1">
   <path d="M 0 314.667469 
L 401.241975 314.667469 
L 401.241975 0 
L 0 0 
z
" style="fill: #ffffff"/>
  </g>
  <g id="axes_1">
   <g id="patch_2">
    <path d="M 43.78125 277.111219 
L 329.47725 277.111219 
L 329.47725 10.999219 
L 43.78125 10.999219 
z
" style="fill: #ffffff"/>
   </g>
   <g id="QuadContourSet_1">
    <path d="M 50.92365 277.111219 
L 58.06605 277.111219 
L 65.20845 277.111219 
L 72.35085 277.111219 
L 79.49325 277.111219 
L 83.536339 277.111219 
L 79.49325 273.345277 
L 76.393939 270.458419 
L 72.35085 266.692477 
L 65.20845 266.692477 
L 58.06605 266.692477 
L 50.92365 266.692477 
L 43.78125 266.692477 
L 43.78125 270.458419 
L 43.78125 277.111219 
z
M 236.62605 277.111219 
L 243.76845 277.111219 
L 250.91085 277.111219 
L 258.05325 277.111219 
L 265.19565 277.111219 
L 272.33805 277.111219 
L 279.48045 277.111219 
L 286.62285 277.111219 
L 293.76525 277.111219 
L 300.90765 277.111219 
L 308.05005 277.111219 
L 315.19245 277.111219 
L 315.259815 277.111219 
L 315.19245 276.997254 
L 308.05005 276.997254 
L 301.030002 270.458419 
L 301.030002 263.805619 
L 300.90765 263.691654 
L 293.76525 263.691654 
L 286.62285 262.762855 
L 279.48045 262.762855 
L 272.33805 262.762855 
L 270.1519 263.805619 
L 265.19565 268.422126 
L 263.0095 270.458419 
L 258.05325 275.074926 
L 250.91085 275.074926 
L 243.76845 275.074926 
L 236.62605 276.786995 
L 235.687459 277.111219 
z
" clip-path="url(#p8aeed5cc33)" style="fill: #fff0e8"/>
    <path d="M 79.49325 273.345277 
L 83.536339 277.111219 
L 86.63565 277.111219 
L 93.77805 277.111219 
L 100.92045 277.111219 
L 108.06285 277.111219 
L 115.20525 277.111219 
L 122.34765 277.111219 
L 129.49005 277.111219 
L 136.63245 277.111219 
L 143.77485 277.111219 
L 150.91725 277.111219 
L 158.05965 277.111219 
L 165.20205 277.111219 
L 172.34445 277.111219 
L 179.48685 277.111219 
L 186.62925 277.111219 
L 193.77165 277.111219 
L 200.91405 277.111219 
L 208.05645 277.111219 
L 215.19885 277.111219 
L 222.34125 277.111219 
L 229.48365 277.111219 
L 235.687459 277.111219 
L 236.62605 276.786995 
L 243.76845 275.074926 
L 250.91085 275.074926 
L 258.05325 275.074926 
L 263.0095 270.458419 
L 265.19565 268.422126 
L 270.1519 263.805619 
L 272.33805 262.762855 
L 279.48045 262.762855 
L 286.62285 262.762855 
L 293.76525 263.691654 
L 300.90765 263.691654 
L 301.030002 263.805619 
L 301.030002 270.458419 
L 308.05005 276.997254 
L 315.19245 276.997254 
L 315.259815 277.111219 
L 316.021201 277.111219 
L 315.19245 275.709168 
L 308.05005 275.709168 
L 302.412882 270.458419 
L 302.412882 263.805619 
L 300.90765 262.403568 
L 293.76525 262.403568 
L 287.436392 257.152819 
L 286.62285 250.977066 
L 279.48045 250.977066 
L 272.33805 250.977066 
L 265.19565 250.977066 
L 258.05325 251.477753 
L 257.003561 250.500019 
L 250.91085 244.824953 
L 249.861161 243.847219 
L 243.76845 238.172153 
L 236.62605 238.172153 
L 229.48365 238.172153 
L 228.433961 237.194419 
L 222.34125 231.519353 
L 221.291561 230.541619 
L 215.19885 224.866553 
L 208.05645 224.866553 
L 200.91405 224.866553 
L 199.864361 223.888819 
L 193.77165 218.213753 
L 192.721961 217.236019 
L 186.62925 211.560953 
L 179.48685 211.560953 
L 172.34445 211.560953 
L 171.294761 210.583219 
L 165.20205 204.908153 
L 164.152361 203.930419 
L 158.05965 198.255353 
L 157.009961 197.277619 
L 150.91725 191.602553 
L 149.867561 190.624819 
L 143.77485 184.949753 
L 136.63245 184.949753 
L 129.49005 184.949753 
L 128.440361 183.972019 
L 128.440361 177.319219 
L 122.34765 171.644153 
L 115.20525 171.644153 
L 108.06285 171.644153 
L 100.92045 171.644153 
L 99.870761 170.666419 
L 99.870761 164.013619 
L 93.77805 158.338553 
L 86.63565 158.338553 
L 79.49325 158.338553 
L 72.35085 158.338553 
L 71.301161 157.360819 
L 65.20845 151.685753 
L 64.158761 150.708019 
L 58.06605 145.032953 
L 50.92365 145.032953 
L 43.78125 145.032953 
L 43.78125 150.708019 
L 43.78125 157.360819 
L 43.78125 164.013619 
L 43.78125 170.666419 
L 43.78125 177.319219 
L 43.78125 183.972019 
L 43.78125 190.624819 
L 43.78125 197.277619 
L 43.78125 203.930419 
L 43.78125 210.583219 
L 43.78125 217.236019 
L 43.78125 223.888819 
L 43.78125 230.541619 
L 43.78125 237.194419 
L 43.78125 243.847219 
L 43.78125 250.500019 
L 43.78125 257.152819 
L 43.78125 263.805619 
L 43.78125 266.692477 
L 50.92365 266.692477 
L 58.06605 266.692477 
L 65.20845 266.692477 
L 72.35085 266.692477 
L 76.393939 270.458419 
z
" clip-path="url(#p8aeed5cc33)" style="fill: #fee5d8"/>
    <path d="M 308.05005 275.709168 
L 315.19245 275.709168 
L 316.021201 277.111219 
L 316.782587 277.111219 
L 315.19245 274.421082 
L 308.05005 274.421082 
L 303.795762 270.458419 
L 303.795762 263.805619 
L 300.90765 261.115482 
L 293.76525 261.115482 
L 288.988954 257.152819 
L 288.112569 250.500019 
L 286.62285 249.112417 
L 280.509601 243.847219 
L 279.48045 242.960835 
L 272.785254 237.194419 
L 272.33805 236.77787 
L 265.642854 230.541619 
L 265.19565 230.12507 
L 258.500454 223.888819 
L 258.05325 223.47227 
L 251.358054 217.236019 
L 250.91085 216.81947 
L 244.215654 210.583219 
L 243.76845 210.16667 
L 236.62605 206.345388 
L 229.48365 206.345388 
L 226.355881 203.930419 
L 222.34125 200.190984 
L 219.748556 197.277619 
L 215.19885 193.039788 
L 208.05645 193.039788 
L 205.463756 190.624819 
L 205.463756 183.972019 
L 200.91405 179.734188 
L 193.77165 179.734188 
L 186.62925 179.734188 
L 179.48685 179.734188 
L 176.894156 177.319219 
L 176.894156 170.666419 
L 172.34445 166.428588 
L 165.20205 166.428588 
L 158.05965 166.428588 
L 154.931881 164.013619 
L 150.91725 160.274184 
L 148.324556 157.360819 
L 143.77485 153.122988 
L 141.182156 150.708019 
L 136.63245 146.470188 
L 134.039756 144.055219 
L 129.49005 142.087164 
L 122.34765 139.817388 
L 115.20525 139.817388 
L 112.612556 137.402419 
L 108.06285 133.164588 
L 105.470156 130.749619 
L 100.92045 126.511788 
L 93.77805 126.511788 
L 86.63565 126.511788 
L 84.042956 124.096819 
L 79.49325 119.858988 
L 76.900556 117.444019 
L 72.35085 113.206188 
L 65.20845 113.206188 
L 58.06605 113.206188 
L 55.473356 110.791219 
L 50.92365 106.553388 
L 48.330956 104.138419 
L 43.78125 99.900588 
L 43.78125 104.138419 
L 43.78125 110.791219 
L 43.78125 117.444019 
L 43.78125 124.096819 
L 43.78125 130.749619 
L 43.78125 137.402419 
L 43.78125 144.055219 
L 43.78125 145.032953 
L 50.92365 145.032953 
L 58.06605 145.032953 
L 64.158761 150.708019 
L 65.20845 151.685753 
L 71.301161 157.360819 
L 72.35085 158.338553 
L 79.49325 158.338553 
L 86.63565 158.338553 
L 93.77805 158.338553 
L 99.870761 164.013619 
L 99.870761 170.666419 
L 100.92045 171.644153 
L 108.06285 171.644153 
L 115.20525 171.644153 
L 122.34765 171.644153 
L 128.440361 177.319219 
L 128.440361 183.972019 
L 129.49005 184.949753 
L 136.63245 184.949753 
L 143.77485 184.949753 
L 149.867561 190.624819 
L 150.91725 191.602553 
L 157.009961 197.277619 
L 158.05965 198.255353 
L 164.152361 203.930419 
L 165.20205 204.908153 
L 171.294761 210.583219 
L 172.34445 211.560953 
L 179.48685 211.560953 
L 186.62925 211.560953 
L 192.721961 217.236019 
L 193.77165 218.213753 
L 199.864361 223.888819 
L 200.91405 224.866553 
L 208.05645 224.866553 
L 215.19885 224.866553 
L 221.291561 230.541619 
L 222.34125 231.519353 
L 228.433961 237.194419 
L 229.48365 238.172153 
L 236.62605 238.172153 
L 243.76845 238.172153 
L 249.861161 243.847219 
L 250.91085 244.824953 
L 257.003561 250.500019 
L 258.05325 251.477753 
L 265.19565 250.977066 
L 272.33805 250.977066 
L 279.48045 250.977066 
L 286.62285 250.977066 
L 287.436392 257.152819 
L 293.76525 262.403568 
L 300.90765 262.403568 
L 302.412882 263.805619 
L 302.412882 270.458419 
z
" clip-path="url(#p8aeed5cc33)" style="fill: #fdd4c2"/>
    <path d="M 308.05005 274.421082 
L 315.19245 274.421082 
L 316.782587 277.111219 
L 317.543973 277.111219 
L 315.19245 273.132997 
L 308.05005 273.132997 
L 305.178642 270.458419 
L 305.178642 263.805619 
L 300.90765 259.827397 
L 293.76525 259.827397 
L 290.541515 257.152819 
L 289.665131 250.500019 
L 286.62285 247.666281 
L 282.188662 243.847219 
L 279.48045 241.514699 
L 274.464315 237.194419 
L 272.33805 235.213906 
L 267.321915 230.541619 
L 265.19565 228.561106 
L 260.179515 223.888819 
L 258.05325 221.908306 
L 253.037115 217.236019 
L 250.91085 215.255506 
L 245.894715 210.583219 
L 243.76845 208.602706 
L 238.205518 203.930419 
L 236.62605 202.603829 
L 230.284541 197.277619 
L 229.48365 196.422528 
L 223.259269 190.624819 
L 222.34125 189.769728 
L 216.116869 183.972019 
L 215.19885 183.116928 
L 208.974469 177.319219 
L 208.05645 176.464128 
L 201.832069 170.666419 
L 200.91405 169.811328 
L 193.77165 164.732648 
L 186.62925 164.732648 
L 185.857305 164.013619 
L 179.48685 158.079848 
L 178.714905 157.360819 
L 172.34445 151.427048 
L 165.20205 151.427048 
L 158.05965 151.427048 
L 157.287705 150.708019 
L 150.91725 144.774248 
L 150.145305 144.055219 
L 143.77485 138.121448 
L 142.884559 137.402419 
L 136.63245 134.69796 
L 129.49005 134.69796 
L 122.34765 131.13473 
L 121.575705 130.749619 
L 115.20525 124.815848 
L 114.314959 124.096819 
L 108.06285 118.273282 
L 107.290905 117.444019 
L 100.92045 111.510248 
L 93.77805 111.510248 
L 86.63565 111.510248 
L 85.863705 110.791219 
L 79.49325 104.857448 
L 78.721305 104.138419 
L 72.35085 98.204648 
L 65.20845 98.204648 
L 58.06605 98.204648 
L 57.294105 97.485619 
L 50.92365 91.551848 
L 50.151705 90.832819 
L 43.78125 84.899048 
L 43.78125 90.832819 
L 43.78125 97.485619 
L 43.78125 99.900588 
L 48.330956 104.138419 
L 50.92365 106.553388 
L 55.473356 110.791219 
L 58.06605 113.206188 
L 65.20845 113.206188 
L 72.35085 113.206188 
L 76.900556 117.444019 
L 79.49325 119.858988 
L 84.042956 124.096819 
L 86.63565 126.511788 
L 93.77805 126.511788 
L 100.92045 126.511788 
L 105.470156 130.749619 
L 108.06285 133.164588 
L 112.612556 137.402419 
L 115.20525 139.817388 
L 122.34765 139.817388 
L 129.49005 142.087164 
L 134.039756 144.055219 
L 136.63245 146.470188 
L 141.182156 150.708019 
L 143.77485 153.122988 
L 148.324556 157.360819 
L 150.91725 160.274184 
L 154.931881 164.013619 
L 158.05965 166.428588 
L 165.20205 166.428588 
L 172.34445 166.428588 
L 176.894156 170.666419 
L 176.894156 177.319219 
L 179.48685 179.734188 
L 186.62925 179.734188 
L 193.77165 179.734188 
L 200.91405 179.734188 
L 205.463756 183.972019 
L 205.463756 190.624819 
L 208.05645 193.039788 
L 215.19885 193.039788 
L 219.748556 197.277619 
L 222.34125 200.190984 
L 226.355881 203.930419 
L 229.48365 206.345388 
L 236.62605 206.345388 
L 243.76845 210.16667 
L 244.215654 210.583219 
L 250.91085 216.81947 
L 251.358054 217.236019 
L 258.05325 223.47227 
L 258.500454 223.888819 
L 265.19565 230.12507 
L 265.642854 230.541619 
L 272.33805 236.77787 
L 272.785254 237.194419 
L 279.48045 242.960835 
L 280.509601 243.847219 
L 286.62285 249.112417 
L 288.112569 250.500019 
L 288.988954 257.152819 
L 293.76525 261.115482 
L 300.90765 261.115482 
L 303.795762 263.805619 
L 303.795762 270.458419 
z
" clip-path="url(#p8aeed5cc33)" style="fill: #fcc1a8"/>
    <path d="M 308.05005 273.132997 
L 315.19245 273.132997 
L 317.543973 277.111219 
L 318.305359 277.111219 
L 315.19245 271.844911 
L 308.05005 271.844911 
L 306.561522 270.458419 
L 306.561522 263.805619 
L 300.90765 258.539311 
L 293.76525 258.539311 
L 292.094077 257.152819 
L 291.217692 250.500019 
L 286.62285 246.220145 
L 283.867723 243.847219 
L 279.48045 240.068563 
L 276.143376 237.194419 
L 272.33805 233.649942 
L 269.000976 230.541619 
L 265.19565 226.997142 
L 261.858576 223.888819 
L 258.05325 220.344342 
L 254.716176 217.236019 
L 250.91085 213.691542 
L 247.573776 210.583219 
L 243.76845 207.038742 
L 240.067609 203.930419 
L 236.62605 201.039865 
L 232.146633 197.277619 
L 229.48365 194.434422 
L 225.393687 190.624819 
L 222.34125 187.781622 
L 218.251287 183.972019 
L 215.19885 181.128822 
L 211.108887 177.319219 
L 208.05645 174.476022 
L 203.966487 170.666419 
L 200.91405 167.823222 
L 196.135465 164.013619 
L 193.77165 162.129128 
L 187.790509 157.360819 
L 186.62925 156.279162 
L 180.648109 150.708019 
L 179.48685 149.626362 
L 173.505709 144.055219 
L 172.34445 142.973562 
L 165.20205 142.973562 
L 159.220909 137.402419 
L 159.220909 130.749619 
L 158.05965 129.430042 
L 152.333939 124.096819 
L 150.91725 122.777242 
L 145.191539 117.444019 
L 143.77485 116.124442 
L 138.049139 110.791219 
L 136.63245 109.471642 
L 130.906739 104.138419 
L 129.49005 102.818842 
L 123.764339 97.485619 
L 122.34765 96.166042 
L 116.621939 90.832819 
L 115.20525 89.513242 
L 109.479539 84.180019 
L 108.06285 82.860442 
L 102.337139 77.527219 
L 100.92045 76.207642 
L 93.77805 76.207642 
L 88.052339 70.874419 
L 88.052339 64.221619 
L 86.63565 62.902042 
L 80.909939 57.568819 
L 79.49325 56.249242 
L 73.767539 50.916019 
L 72.35085 49.596442 
L 65.20845 49.596442 
L 59.482739 44.263219 
L 59.482739 37.610419 
L 58.06605 36.290842 
L 52.340339 30.957619 
L 50.92365 29.638042 
L 45.197939 24.304819 
L 43.78125 23.982107 
L 43.78125 24.304819 
L 43.78125 30.957619 
L 43.78125 37.610419 
L 43.78125 44.263219 
L 43.78125 50.916019 
L 43.78125 57.568819 
L 43.78125 64.221619 
L 43.78125 70.874419 
L 43.78125 77.527219 
L 43.78125 84.180019 
L 43.78125 84.899048 
L 50.151705 90.832819 
L 50.92365 91.551848 
L 57.294105 97.485619 
L 58.06605 98.204648 
L 65.20845 98.204648 
L 72.35085 98.204648 
L 78.721305 104.138419 
L 79.49325 104.857448 
L 85.863705 110.791219 
L 86.63565 111.510248 
L 93.77805 111.510248 
L 100.92045 111.510248 
L 107.290905 117.444019 
L 108.06285 118.273282 
L 114.314959 124.096819 
L 115.20525 124.815848 
L 121.575705 130.749619 
L 122.34765 131.13473 
L 129.49005 134.69796 
L 136.63245 134.69796 
L 142.884559 137.402419 
L 143.77485 138.121448 
L 150.145305 144.055219 
L 150.91725 144.774248 
L 157.287705 150.708019 
L 158.05965 151.427048 
L 165.20205 151.427048 
L 172.34445 151.427048 
L 178.714905 157.360819 
L 179.48685 158.079848 
L 185.857305 164.013619 
L 186.62925 164.732648 
L 193.77165 164.732648 
L 200.91405 169.811328 
L 201.832069 170.666419 
L 208.05645 176.464128 
L 208.974469 177.319219 
L 215.19885 183.116928 
L 216.116869 183.972019 
L 222.34125 189.769728 
L 223.259269 190.624819 
L 229.48365 196.422528 
L 230.284541 197.277619 
L 236.62605 202.603829 
L 238.205518 203.930419 
L 243.76845 208.602706 
L 245.894715 210.583219 
L 250.91085 215.255506 
L 253.037115 217.236019 
L 258.05325 221.908306 
L 260.179515 223.888819 
L 265.19565 228.561106 
L 267.321915 230.541619 
L 272.33805 235.213906 
L 274.464315 237.194419 
L 279.48045 241.514699 
L 282.188662 243.847219 
L 286.62285 247.666281 
L 289.665131 250.500019 
L 290.541515 257.152819 
L 293.76525 259.827397 
L 300.90765 259.827397 
L 305.178642 263.805619 
L 305.178642 270.458419 
z
" clip-path="url(#p8aeed5cc33)" style="fill: #fcab8f"/>
    <path d="M 308.05005 271.844911 
L 315.19245 271.844911 
L 318.305359 277.111219 
L 319.066745 277.111219 
L 315.19245 270.556825 
L 308.05005 270.556825 
L 307.944402 270.458419 
L 307.944402 263.805619 
L 300.90765 257.251225 
L 293.76525 257.251225 
L 293.646638 257.152819 
L 292.770254 250.500019 
L 286.62285 244.774009 
L 285.546784 243.847219 
L 279.48045 238.622427 
L 277.822437 237.194419 
L 272.33805 232.085978 
L 270.680037 230.541619 
L 265.19565 225.433178 
L 263.537637 223.888819 
L 258.05325 218.780378 
L 256.395237 217.236019 
L 250.91085 212.127578 
L 249.252837 210.583219 
L 243.76845 205.474778 
L 241.929701 203.930419 
L 236.62605 199.475901 
L 234.008724 197.277619 
L 229.48365 192.446315 
L 227.528104 190.624819 
L 222.34125 185.793515 
L 220.385704 183.972019 
L 215.19885 179.140715 
L 213.243304 177.319219 
L 208.05645 172.487915 
L 206.100904 170.666419 
L 200.91405 165.835115 
L 198.629252 164.013619 
L 193.77165 160.141022 
L 190.284295 157.360819 
L 186.62925 153.956321 
L 183.141895 150.708019 
L 179.48685 147.303521 
L 175.999495 144.055219 
L 172.34445 140.650721 
L 165.20205 140.650721 
L 161.714695 137.402419 
L 161.714695 130.749619 
L 158.05965 126.596269 
L 155.376258 124.096819 
L 150.91725 119.943469 
L 148.233858 117.444019 
L 143.77485 113.290669 
L 141.091458 110.791219 
L 136.63245 106.637869 
L 133.949058 104.138419 
L 129.49005 99.985069 
L 126.806658 97.485619 
L 122.34765 93.332269 
L 119.664258 90.832819 
L 115.20525 86.679469 
L 112.521858 84.180019 
L 108.06285 80.026669 
L 105.379458 77.527219 
L 100.92045 73.373869 
L 93.77805 73.373869 
L 91.094658 70.874419 
L 91.094658 64.221619 
L 86.63565 60.068269 
L 83.952258 57.568819 
L 79.49325 53.415469 
L 76.809858 50.916019 
L 72.35085 46.762669 
L 65.20845 46.762669 
L 62.525058 44.263219 
L 62.525058 37.610419 
L 58.06605 33.457069 
L 55.382658 30.957619 
L 50.92365 26.804269 
L 48.240258 24.304819 
L 43.78125 23.289088 
L 43.78125 23.982107 
L 45.197939 24.304819 
L 50.92365 29.638042 
L 52.340339 30.957619 
L 58.06605 36.290842 
L 59.482739 37.610419 
L 59.482739 44.263219 
L 65.20845 49.596442 
L 72.35085 49.596442 
L 73.767539 50.916019 
L 79.49325 56.249242 
L 80.909939 57.568819 
L 86.63565 62.902042 
L 88.052339 64.221619 
L 88.052339 70.874419 
L 93.77805 76.207642 
L 100.92045 76.207642 
L 102.337139 77.527219 
L 108.06285 82.860442 
L 109.479539 84.180019 
L 115.20525 89.513242 
L 116.621939 90.832819 
L 122.34765 96.166042 
L 123.764339 97.485619 
L 129.49005 102.818842 
L 130.906739 104.138419 
L 136.63245 109.471642 
L 138.049139 110.791219 
L 143.77485 116.124442 
L 145.191539 117.444019 
L 150.91725 122.777242 
L 152.333939 124.096819 
L 158.05965 129.430042 
L 159.220909 130.749619 
L 159.220909 137.402419 
L 165.20205 142.973562 
L 172.34445 142.973562 
L 173.505709 144.055219 
L 179.48685 149.626362 
L 180.648109 150.708019 
L 186.62925 156.279162 
L 187.790509 157.360819 
L 193.77165 162.129128 
L 196.135465 164.013619 
L 200.91405 167.823222 
L 203.966487 170.666419 
L 208.05645 174.476022 
L 211.108887 177.319219 
L 215.19885 181.128822 
L 218.251287 183.972019 
L 222.34125 187.781622 
L 225.393687 190.624819 
L 229.48365 194.434422 
L 232.146633 197.277619 
L 236.62605 201.039865 
L 240.067609 203.930419 
L 243.76845 207.038742 
L 247.573776 210.583219 
L 250.91085 213.691542 
L 254.716176 217.236019 
L 258.05325 220.344342 
L 261.858576 223.888819 
L 265.19565 226.997142 
L 269.000976 230.541619 
L 272.33805 233.649942 
L 276.143376 237.194419 
L 279.48045 240.068563 
L 283.867723 243.847219 
L 286.62285 246.220145 
L 291.217692 250.500019 
L 292.094077 257.152819 
L 293.76525 258.539311 
L 300.90765 258.539311 
L 306.561522 263.805619 
L 306.561522 270.458419 
z
" clip-path="url(#p8aeed5cc33)" style="fill: #fc9576"/>
    <path d="M 308.05005 270.556825 
L 315.19245 270.556825 
L 319.066745 277.111219 
L 319.828132 277.111219 
L 316.757174 271.915884 
L 315.19245 270.458419 
L 308.05005 263.805619 
L 300.90765 257.152819 
L 300.90765 255.963139 
L 294.322816 250.500019 
L 293.76525 249.980673 
L 287.180416 243.847219 
L 286.62285 243.847219 
L 279.48045 237.194419 
L 272.33805 230.541619 
L 272.33805 230.522014 
L 265.216698 223.888819 
L 265.19565 223.869214 
L 258.074298 217.236019 
L 258.05325 217.216414 
L 250.931898 210.583219 
L 250.91085 210.583219 
L 243.76845 203.930419 
L 243.554317 203.730964 
L 236.62605 197.911938 
L 235.870816 197.277619 
L 230.706726 191.764055 
L 229.48365 190.624819 
L 222.34125 183.972019 
L 215.19885 177.319219 
L 208.05645 170.666419 
L 200.91405 164.013619 
L 200.91405 163.847008 
L 193.77165 158.152915 
L 192.778082 157.360819 
L 186.62925 151.63348 
L 185.635682 150.708019 
L 179.48685 144.98068 
L 178.493282 144.055219 
L 172.34445 138.32788 
L 165.20205 138.32788 
L 164.208482 137.402419 
L 164.208482 130.749619 
L 159.691433 125.616746 
L 158.05965 124.096819 
L 150.91725 117.444019 
L 143.77485 110.791219 
L 136.63245 104.138419 
L 129.49005 97.485619 
L 122.34765 90.832819 
L 115.20525 84.180019 
L 115.20525 83.845696 
L 108.421776 77.527219 
L 108.06285 77.192896 
L 101.279376 70.874419 
L 100.92045 70.540096 
L 94.136976 64.221619 
L 93.77805 64.221619 
L 86.63565 57.568819 
L 79.49325 50.916019 
L 79.49325 50.581696 
L 72.709776 44.263219 
L 72.35085 43.928896 
L 65.567376 37.610419 
L 65.20845 37.610419 
L 58.06605 30.957619 
L 50.92365 24.304819 
L 50.807456 24.19659 
L 43.78125 22.596068 
L 43.78125 23.289088 
L 48.240258 24.304819 
L 50.92365 26.804269 
L 55.382658 30.957619 
L 58.06605 33.457069 
L 62.525058 37.610419 
L 62.525058 44.263219 
L 65.20845 46.762669 
L 72.35085 46.762669 
L 76.809858 50.916019 
L 79.49325 53.415469 
L 83.952258 57.568819 
L 86.63565 60.068269 
L 91.094658 64.221619 
L 91.094658 70.874419 
L 93.77805 73.373869 
L 100.92045 73.373869 
L 105.379458 77.527219 
L 108.06285 80.026669 
L 112.521858 84.180019 
L 115.20525 86.679469 
L 119.664258 90.832819 
L 122.34765 93.332269 
L 126.806658 97.485619 
L 129.49005 99.985069 
L 133.949058 104.138419 
L 136.63245 106.637869 
L 141.091458 110.791219 
L 143.77485 113.290669 
L 148.233858 117.444019 
L 150.91725 119.943469 
L 155.376258 124.096819 
L 158.05965 126.596269 
L 161.714695 130.749619 
L 161.714695 137.402419 
L 165.20205 140.650721 
L 172.34445 140.650721 
L 175.999495 144.055219 
L 179.48685 147.303521 
L 183.141895 150.708019 
L 186.62925 153.956321 
L 190.284295 157.360819 
L 193.77165 160.141022 
L 198.629252 164.013619 
L 200.91405 165.835115 
L 206.100904 170.666419 
L 208.05645 172.487915 
L 213.243304 177.319219 
L 215.19885 179.140715 
L 220.385704 183.972019 
L 222.34125 185.793515 
L 227.528104 190.624819 
L 229.48365 192.446315 
L 234.008724 197.277619 
L 236.62605 199.475901 
L 241.929701 203.930419 
L 243.76845 205.474778 
L 249.252837 210.583219 
L 250.91085 212.127578 
L 256.395237 217.236019 
L 258.05325 218.780378 
L 263.537637 223.888819 
L 265.19565 225.433178 
L 270.680037 230.541619 
L 272.33805 232.085978 
L 277.822437 237.194419 
L 279.48045 238.622427 
L 285.546784 243.847219 
L 286.62285 244.774009 
L 292.770254 250.500019 
L 293.646638 257.152819 
L 293.76525 257.251225 
L 300.90765 257.251225 
L 307.944402 263.805619 
L 307.944402 270.458419 
z
" clip-path="url(#p8aeed5cc33)" style="fill: #fc8060"/>
    <path d="M 318.451328 273.493906 
L 316.757174 271.915884 
L 319.828132 277.111219 
L 320.589518 277.111219 
z
M 300.90765 255.963139 
L 300.90765 254.675054 
L 295.875377 250.500019 
L 293.76525 248.534537 
L 288.732977 243.847219 
L 287.180416 243.847219 
L 293.76525 249.980673 
L 294.322816 250.500019 
z
M 272.33805 230.522014 
L 272.33805 228.95805 
L 266.895759 223.888819 
L 265.19565 222.30525 
L 259.753359 217.236019 
L 258.05325 215.65245 
L 252.610959 210.583219 
L 250.931898 210.583219 
L 258.05325 217.216414 
L 258.074298 217.236019 
L 265.19565 223.869214 
L 265.216698 223.888819 
z
M 236.62605 197.911938 
L 243.554317 203.730964 
L 236.62605 197.277619 
L 230.706726 191.764055 
L 235.870816 197.277619 
z
M 193.77165 158.152915 
L 200.91405 163.847008 
L 200.91405 161.858902 
L 195.271868 157.360819 
L 193.77165 157.360819 
L 186.62925 150.708019 
L 186.62925 149.310638 
L 180.987068 144.055219 
L 179.48685 144.055219 
L 172.34445 137.402419 
L 172.34445 136.005038 
L 166.702268 130.749619 
L 165.20205 130.749619 
L 159.691433 125.616746 
L 164.208482 130.749619 
L 164.208482 137.402419 
L 165.20205 138.32788 
L 172.34445 138.32788 
L 178.493282 144.055219 
L 179.48685 144.98068 
L 185.635682 150.708019 
L 186.62925 151.63348 
L 192.778082 157.360819 
z
M 115.20525 83.845696 
L 115.20525 81.011924 
L 111.464095 77.527219 
L 108.06285 74.359124 
L 104.321695 70.874419 
L 100.92045 67.706324 
L 97.179295 64.221619 
L 94.136976 64.221619 
L 100.92045 70.540096 
L 101.279376 70.874419 
L 108.06285 77.192896 
L 108.421776 77.527219 
z
M 79.49325 50.581696 
L 79.49325 47.747924 
L 75.752095 44.263219 
L 72.35085 41.095124 
L 68.609695 37.610419 
L 65.567376 37.610419 
L 72.35085 43.928896 
L 72.709776 44.263219 
z
M 50.807456 24.19659 
L 49.822576 23.279222 
L 43.78125 21.903049 
L 43.78125 22.596068 
z
" clip-path="url(#p8aeed5cc33)" style="fill: #fb694a"/>
    <path d="M 320.145481 275.071927 
L 318.451328 273.493906 
L 320.589518 277.111219 
L 321.350904 277.111219 
z
M 300.90765 254.675054 
L 300.90765 253.386968 
L 297.427939 250.500019 
L 293.76525 247.088401 
L 290.285539 243.847219 
L 288.732977 243.847219 
L 293.76525 248.534537 
L 295.875377 250.500019 
z
M 272.33805 228.95805 
L 272.33805 227.394086 
L 268.57482 223.888819 
L 265.19565 220.741286 
L 261.43242 217.236019 
L 258.05325 214.088486 
L 254.29002 210.583219 
L 252.610959 210.583219 
L 258.05325 215.65245 
L 259.753359 217.236019 
L 265.19565 222.30525 
L 266.895759 223.888819 
z
M 200.91405 161.858902 
L 200.91405 159.870795 
L 197.765655 157.360819 
L 195.271868 157.360819 
z
M 186.62925 149.310638 
L 186.62925 146.987797 
L 183.480855 144.055219 
L 180.987068 144.055219 
z
M 172.34445 136.005038 
L 172.34445 133.682197 
L 169.196055 130.749619 
L 166.702268 130.749619 
z
M 115.20525 81.011924 
L 115.20525 78.178151 
L 114.506414 77.527219 
L 108.06285 71.525351 
L 107.364014 70.874419 
L 100.92045 64.872551 
L 100.221614 64.221619 
L 97.179295 64.221619 
L 100.92045 67.706324 
L 104.321695 70.874419 
L 108.06285 74.359124 
L 111.464095 77.527219 
z
M 79.49325 47.747924 
L 79.49325 44.914151 
L 78.794414 44.263219 
L 72.35085 38.261351 
L 71.652014 37.610419 
L 68.609695 37.610419 
L 72.35085 41.095124 
L 75.752095 44.263219 
z
M 49.822576 23.279222 
L 48.837696 22.361854 
L 43.78125 21.21003 
L 43.78125 21.903049 
z
" clip-path="url(#p8aeed5cc33)" style="fill: #f4503a"/>
    <path d="M 321.839634 276.649949 
L 320.145481 275.071927 
L 321.350904 277.111219 
L 322.11229 277.111219 
z
M 300.90765 253.386968 
L 300.90765 252.098882 
L 298.9805 250.500019 
L 293.76525 245.642265 
L 291.8381 243.847219 
L 290.285539 243.847219 
L 293.76525 247.088401 
L 297.427939 250.500019 
z
M 272.33805 227.394086 
L 272.33805 225.830122 
L 270.25388 223.888819 
L 265.19565 219.177322 
L 263.11148 217.236019 
L 258.05325 212.524522 
L 255.96908 210.583219 
L 254.29002 210.583219 
L 258.05325 214.088486 
L 261.43242 217.236019 
L 265.19565 220.741286 
L 268.57482 223.888819 
z
M 200.91405 159.870795 
L 200.91405 157.882689 
L 200.259441 157.360819 
L 197.765655 157.360819 
z
M 186.62925 146.987797 
L 186.62925 144.664955 
L 185.974641 144.055219 
L 183.480855 144.055219 
z
M 172.34445 133.682197 
L 172.34445 131.359355 
L 171.689841 130.749619 
L 169.196055 130.749619 
z
M 115.20525 78.178151 
L 115.20525 77.527219 
L 108.06285 70.874419 
L 100.92045 64.221619 
L 100.221614 64.221619 
L 100.92045 64.872551 
L 107.364014 70.874419 
L 108.06285 71.525351 
L 114.506414 77.527219 
z
M 79.49325 44.914151 
L 79.49325 44.263219 
L 72.35085 37.610419 
L 71.652014 37.610419 
L 72.35085 38.261351 
L 78.794414 44.263219 
z
M 48.837696 22.361854 
L 47.852816 21.444485 
L 43.78125 20.517011 
L 43.78125 21.21003 
z
" clip-path="url(#p8aeed5cc33)" style="fill: #ec382b"/>
    <path d="M 322.33485 277.111219 
L 321.839634 276.649949 
L 322.11229 277.111219 
z
M 300.90765 252.098882 
L 300.90765 250.810796 
L 300.533062 250.500019 
L 293.76525 244.196129 
L 293.390662 243.847219 
L 291.8381 243.847219 
L 293.76525 245.642265 
L 298.9805 250.500019 
z
M 272.33805 225.830122 
L 272.33805 224.266158 
L 271.932941 223.888819 
L 265.19565 217.613358 
L 264.790541 217.236019 
L 258.05325 210.960558 
L 257.648141 210.583219 
L 255.96908 210.583219 
L 258.05325 212.524522 
L 263.11148 217.236019 
L 265.19565 219.177322 
L 270.25388 223.888819 
z
M 200.91405 157.882689 
L 200.91405 157.360819 
L 200.259441 157.360819 
z
M 186.62925 144.664955 
L 186.62925 144.055219 
L 185.974641 144.055219 
z
M 172.34445 131.359355 
L 172.34445 130.749619 
L 171.689841 130.749619 
z
M 47.852816 21.444485 
L 46.867936 20.527117 
L 43.78125 19.823992 
L 43.78125 20.517011 
z
" clip-path="url(#p8aeed5cc33)" style="fill: #d92523"/>
    <path d="M 300.90765 250.810796 
L 300.90765 250.500019 
L 293.76525 243.847219 
L 293.390662 243.847219 
L 293.76525 244.196129 
L 300.533062 250.500019 
z
M 272.33805 224.266158 
L 272.33805 223.888819 
L 265.19565 217.236019 
L 258.05325 210.583219 
L 257.648141 210.583219 
L 258.05325 210.960558 
L 264.790541 217.236019 
L 265.19565 217.613358 
L 271.932941 223.888819 
z
M 46.867936 20.527117 
L 45.883056 19.609749 
L 43.78125 19.130972 
L 43.78125 19.823992 
z
" clip-path="url(#p8aeed5cc33)" style="fill: #c5171c"/>
    <path d="M 45.883056 19.609749 
L 44.898176 18.692381 
L 43.78125 18.437953 
L 43.78125 19.130972 
z
" clip-path="url(#p8aeed5cc33)" style="fill: #b11218"/>
    <path d="M 44.898176 18.692381 
L 43.913296 17.775013 
L 43.78125 17.744934 
L 43.78125 18.437953 
z
" clip-path="url(#p8aeed5cc33)" style="fill: #980c13"/>
    <path d="M 43.913296 17.775013 
L 43.78125 17.652019 
L 43.78125 17.744934 
z
" clip-path="url(#p8aeed5cc33)" style="fill: #77040f"/>
   </g>
   <g id="matplotlib.axis_1">
    <g id="xtick_1">
     <g id="line2d_1">
      <defs>
       <path id="m69a16a837a" d="M 0 0 
L 0 3.5 
" style="stroke: #000000; stroke-width: 0.8"/>
      </defs>
      <g>
       <use xlink:href="#m69a16a837a" x="43.78125" y="277.111219" style="stroke: #000000; stroke-width: 0.8"/>
      </g>
     </g>
     <g id="text_1">
      <!-- 0.0 -->
      <g transform="translate(35.829688 291.709656) scale(0.1 -0.1)">
       <defs>
        <path id="DejaVuSans-30" d="M 2034 4250 
Q 1547 4250 1301 3770 
Q 1056 3291 1056 2328 
Q 1056 1369 1301 889 
Q 1547 409 2034 409 
Q 2525 409 2770 889 
Q 3016 1369 3016 2328 
Q 3016 3291 2770 3770 
Q 2525 4250 2034 4250 
z
M 2034 4750 
Q 2819 4750 3233 4129 
Q 3647 3509 3647 2328 
Q 3647 1150 3233 529 
Q 2819 -91 2034 -91 
Q 1250 -91 836 529 
Q 422 1150 422 2328 
Q 422 3509 836 4129 
Q 1250 4750 2034 4750 
z
" transform="scale(0.015625)"/>
        <path id="DejaVuSans-2e" d="M 684 794 
L 1344 794 
L 1344 0 
L 684 0 
L 684 794 
z
" transform="scale(0.015625)"/>
       </defs>
       <use xlink:href="#DejaVuSans-30"/>
       <use xlink:href="#DejaVuSans-2e" x="63.623047"/>
       <use xlink:href="#DejaVuSans-30" x="95.410156"/>
      </g>
     </g>
    </g>
    <g id="xtick_2">
     <g id="line2d_2">
      <g>
       <use xlink:href="#m69a16a837a" x="100.92045" y="277.111219" style="stroke: #000000; stroke-width: 0.8"/>
      </g>
     </g>
     <g id="text_2">
      <!-- 0.2 -->
      <g transform="translate(92.968888 291.709656) scale(0.1 -0.1)">
       <defs>
        <path id="DejaVuSans-32" d="M 1228 531 
L 3431 531 
L 3431 0 
L 469 0 
L 469 531 
Q 828 903 1448 1529 
Q 2069 2156 2228 2338 
Q 2531 2678 2651 2914 
Q 2772 3150 2772 3378 
Q 2772 3750 2511 3984 
Q 2250 4219 1831 4219 
Q 1534 4219 1204 4116 
Q 875 4013 500 3803 
L 500 4441 
Q 881 4594 1212 4672 
Q 1544 4750 1819 4750 
Q 2544 4750 2975 4387 
Q 3406 4025 3406 3419 
Q 3406 3131 3298 2873 
Q 3191 2616 2906 2266 
Q 2828 2175 2409 1742 
Q 1991 1309 1228 531 
z
" transform="scale(0.015625)"/>
       </defs>
       <use xlink:href="#DejaVuSans-30"/>
       <use xlink:href="#DejaVuSans-2e" x="63.623047"/>
       <use xlink:href="#DejaVuSans-32" x="95.410156"/>
      </g>
     </g>
    </g>
    <g id="xtick_3">
     <g id="line2d_3">
      <g>
       <use xlink:href="#m69a16a837a" x="158.05965" y="277.111219" style="stroke: #000000; stroke-width: 0.8"/>
      </g>
     </g>
     <g id="text_3">
      <!-- 0.4 -->
      <g transform="translate(150.108088 291.709656) scale(0.1 -0.1)">
       <defs>
        <path id="DejaVuSans-34" d="M 2419 4116 
L 825 1625 
L 2419 1625 
L 2419 4116 
z
M 2253 4666 
L 3047 4666 
L 3047 1625 
L 3713 1625 
L 3713 1100 
L 3047 1100 
L 3047 0 
L 2419 0 
L 2419 1100 
L 313 1100 
L 313 1709 
L 2253 4666 
z
" transform="scale(0.015625)"/>
       </defs>
       <use xlink:href="#DejaVuSans-30"/>
       <use xlink:href="#DejaVuSans-2e" x="63.623047"/>
       <use xlink:href="#DejaVuSans-34" x="95.410156"/>
      </g>
     </g>
    </g>
    <g id="xtick_4">
     <g id="line2d_4">
      <g>
       <use xlink:href="#m69a16a837a" x="215.19885" y="277.111219" style="stroke: #000000; stroke-width: 0.8"/>
      </g>
     </g>
     <g id="text_4">
      <!-- 0.6 -->
      <g transform="translate(207.247288 291.709656) scale(0.1 -0.1)">
       <defs>
        <path id="DejaVuSans-36" d="M 2113 2584 
Q 1688 2584 1439 2293 
Q 1191 2003 1191 1497 
Q 1191 994 1439 701 
Q 1688 409 2113 409 
Q 2538 409 2786 701 
Q 3034 994 3034 1497 
Q 3034 2003 2786 2293 
Q 2538 2584 2113 2584 
z
M 3366 4563 
L 3366 3988 
Q 3128 4100 2886 4159 
Q 2644 4219 2406 4219 
Q 1781 4219 1451 3797 
Q 1122 3375 1075 2522 
Q 1259 2794 1537 2939 
Q 1816 3084 2150 3084 
Q 2853 3084 3261 2657 
Q 3669 2231 3669 1497 
Q 3669 778 3244 343 
Q 2819 -91 2113 -91 
Q 1303 -91 875 529 
Q 447 1150 447 2328 
Q 447 3434 972 4092 
Q 1497 4750 2381 4750 
Q 2619 4750 2861 4703 
Q 3103 4656 3366 4563 
z
" transform="scale(0.015625)"/>
       </defs>
       <use xlink:href="#DejaVuSans-30"/>
       <use xlink:href="#DejaVuSans-2e" x="63.623047"/>
       <use xlink:href="#DejaVuSans-36" x="95.410156"/>
      </g>
     </g>
    </g>
    <g id="xtick_5">
     <g id="line2d_5">
      <g>
       <use xlink:href="#m69a16a837a" x="272.33805" y="277.111219" style="stroke: #000000; stroke-width: 0.8"/>
      </g>
     </g>
     <g id="text_5">
      <!-- 0.8 -->
      <g transform="translate(264.386488 291.709656) scale(0.1 -0.1)">
       <defs>
        <path id="DejaVuSans-38" d="M 2034 2216 
Q 1584 2216 1326 1975 
Q 1069 1734 1069 1313 
Q 1069 891 1326 650 
Q 1584 409 2034 409 
Q 2484 409 2743 651 
Q 3003 894 3003 1313 
Q 3003 1734 2745 1975 
Q 2488 2216 2034 2216 
z
M 1403 2484 
Q 997 2584 770 2862 
Q 544 3141 544 3541 
Q 544 4100 942 4425 
Q 1341 4750 2034 4750 
Q 2731 4750 3128 4425 
Q 3525 4100 3525 3541 
Q 3525 3141 3298 2862 
Q 3072 2584 2669 2484 
Q 3125 2378 3379 2068 
Q 3634 1759 3634 1313 
Q 3634 634 3220 271 
Q 2806 -91 2034 -91 
Q 1263 -91 848 271 
Q 434 634 434 1313 
Q 434 1759 690 2068 
Q 947 2378 1403 2484 
z
M 1172 3481 
Q 1172 3119 1398 2916 
Q 1625 2713 2034 2713 
Q 2441 2713 2670 2916 
Q 2900 3119 2900 3481 
Q 2900 3844 2670 4047 
Q 2441 4250 2034 4250 
Q 1625 4250 1398 4047 
Q 1172 3844 1172 3481 
z
" transform="scale(0.015625)"/>
       </defs>
       <use xlink:href="#DejaVuSans-30"/>
       <use xlink:href="#DejaVuSans-2e" x="63.623047"/>
       <use xlink:href="#DejaVuSans-38" x="95.410156"/>
      </g>
     </g>
    </g>
    <g id="xtick_6">
     <g id="line2d_6">
      <g>
       <use xlink:href="#m69a16a837a" x="329.47725" y="277.111219" style="stroke: #000000; stroke-width: 0.8"/>
      </g>
     </g>
     <g id="text_6">
      <!-- 1.0 -->
      <g transform="translate(321.525688 291.709656) scale(0.1 -0.1)">
       <defs>
        <path id="DejaVuSans-31" d="M 794 531 
L 1825 531 
L 1825 4091 
L 703 3866 
L 703 4441 
L 1819 4666 
L 2450 4666 
L 2450 531 
L 3481 531 
L 3481 0 
L 794 0 
L 794 531 
z
" transform="scale(0.015625)"/>
       </defs>
       <use xlink:href="#DejaVuSans-31"/>
       <use xlink:href="#DejaVuSans-2e" x="63.623047"/>
       <use xlink:href="#DejaVuSans-30" x="95.410156"/>
      </g>
     </g>
    </g>
    <g id="text_7">
     <!-- Equity in Vaccination Burden Multiplier (a) -->
     <g transform="translate(81.262844 305.387781) scale(0.1 -0.1)">
      <defs>
       <path id="DejaVuSans-45" d="M 628 4666 
L 3578 4666 
L 3578 4134 
L 1259 4134 
L 1259 2753 
L 3481 2753 
L 3481 2222 
L 1259 2222 
L 1259 531 
L 3634 531 
L 3634 0 
L 628 0 
L 628 4666 
z
" transform="scale(0.015625)"/>
       <path id="DejaVuSans-71" d="M 947 1747 
Q 947 1113 1208 752 
Q 1469 391 1925 391 
Q 2381 391 2643 752 
Q 2906 1113 2906 1747 
Q 2906 2381 2643 2742 
Q 2381 3103 1925 3103 
Q 1469 3103 1208 2742 
Q 947 2381 947 1747 
z
M 2906 525 
Q 2725 213 2448 61 
Q 2172 -91 1784 -91 
Q 1150 -91 751 415 
Q 353 922 353 1747 
Q 353 2572 751 3078 
Q 1150 3584 1784 3584 
Q 2172 3584 2448 3432 
Q 2725 3281 2906 2969 
L 2906 3500 
L 3481 3500 
L 3481 -1331 
L 2906 -1331 
L 2906 525 
z
" transform="scale(0.015625)"/>
       <path id="DejaVuSans-75" d="M 544 1381 
L 544 3500 
L 1119 3500 
L 1119 1403 
Q 1119 906 1312 657 
Q 1506 409 1894 409 
Q 2359 409 2629 706 
Q 2900 1003 2900 1516 
L 2900 3500 
L 3475 3500 
L 3475 0 
L 2900 0 
L 2900 538 
Q 2691 219 2414 64 
Q 2138 -91 1772 -91 
Q 1169 -91 856 284 
Q 544 659 544 1381 
z
M 1991 3584 
L 1991 3584 
z
" transform="scale(0.015625)"/>
       <path id="DejaVuSans-69" d="M 603 3500 
L 1178 3500 
L 1178 0 
L 603 0 
L 603 3500 
z
M 603 4863 
L 1178 4863 
L 1178 4134 
L 603 4134 
L 603 4863 
z
" transform="scale(0.015625)"/>
       <path id="DejaVuSans-74" d="M 1172 4494 
L 1172 3500 
L 2356 3500 
L 2356 3053 
L 1172 3053 
L 1172 1153 
Q 1172 725 1289 603 
Q 1406 481 1766 481 
L 2356 481 
L 2356 0 
L 1766 0 
Q 1100 0 847 248 
Q 594 497 594 1153 
L 594 3053 
L 172 3053 
L 172 3500 
L 594 3500 
L 594 4494 
L 1172 4494 
z
" transform="scale(0.015625)"/>
       <path id="DejaVuSans-79" d="M 2059 -325 
Q 1816 -950 1584 -1140 
Q 1353 -1331 966 -1331 
L 506 -1331 
L 506 -850 
L 844 -850 
Q 1081 -850 1212 -737 
Q 1344 -625 1503 -206 
L 1606 56 
L 191 3500 
L 800 3500 
L 1894 763 
L 2988 3500 
L 3597 3500 
L 2059 -325 
z
" transform="scale(0.015625)"/>
       <path id="DejaVuSans-20" transform="scale(0.015625)"/>
       <path id="DejaVuSans-6e" d="M 3513 2113 
L 3513 0 
L 2938 0 
L 2938 2094 
Q 2938 2591 2744 2837 
Q 2550 3084 2163 3084 
Q 1697 3084 1428 2787 
Q 1159 2491 1159 1978 
L 1159 0 
L 581 0 
L 581 3500 
L 1159 3500 
L 1159 2956 
Q 1366 3272 1645 3428 
Q 1925 3584 2291 3584 
Q 2894 3584 3203 3211 
Q 3513 2838 3513 2113 
z
" transform="scale(0.015625)"/>
       <path id="DejaVuSans-56" d="M 1831 0 
L 50 4666 
L 709 4666 
L 2188 738 
L 3669 4666 
L 4325 4666 
L 2547 0 
L 1831 0 
z
" transform="scale(0.015625)"/>
       <path id="DejaVuSans-61" d="M 2194 1759 
Q 1497 1759 1228 1600 
Q 959 1441 959 1056 
Q 959 750 1161 570 
Q 1363 391 1709 391 
Q 2188 391 2477 730 
Q 2766 1069 2766 1631 
L 2766 1759 
L 2194 1759 
z
M 3341 1997 
L 3341 0 
L 2766 0 
L 2766 531 
Q 2569 213 2275 61 
Q 1981 -91 1556 -91 
Q 1019 -91 701 211 
Q 384 513 384 1019 
Q 384 1609 779 1909 
Q 1175 2209 1959 2209 
L 2766 2209 
L 2766 2266 
Q 2766 2663 2505 2880 
Q 2244 3097 1772 3097 
Q 1472 3097 1187 3025 
Q 903 2953 641 2809 
L 641 3341 
Q 956 3463 1253 3523 
Q 1550 3584 1831 3584 
Q 2591 3584 2966 3190 
Q 3341 2797 3341 1997 
z
" transform="scale(0.015625)"/>
       <path id="DejaVuSans-63" d="M 3122 3366 
L 3122 2828 
Q 2878 2963 2633 3030 
Q 2388 3097 2138 3097 
Q 1578 3097 1268 2742 
Q 959 2388 959 1747 
Q 959 1106 1268 751 
Q 1578 397 2138 397 
Q 2388 397 2633 464 
Q 2878 531 3122 666 
L 3122 134 
Q 2881 22 2623 -34 
Q 2366 -91 2075 -91 
Q 1284 -91 818 406 
Q 353 903 353 1747 
Q 353 2603 823 3093 
Q 1294 3584 2113 3584 
Q 2378 3584 2631 3529 
Q 2884 3475 3122 3366 
z
" transform="scale(0.015625)"/>
       <path id="DejaVuSans-6f" d="M 1959 3097 
Q 1497 3097 1228 2736 
Q 959 2375 959 1747 
Q 959 1119 1226 758 
Q 1494 397 1959 397 
Q 2419 397 2687 759 
Q 2956 1122 2956 1747 
Q 2956 2369 2687 2733 
Q 2419 3097 1959 3097 
z
M 1959 3584 
Q 2709 3584 3137 3096 
Q 3566 2609 3566 1747 
Q 3566 888 3137 398 
Q 2709 -91 1959 -91 
Q 1206 -91 779 398 
Q 353 888 353 1747 
Q 353 2609 779 3096 
Q 1206 3584 1959 3584 
z
" transform="scale(0.015625)"/>
       <path id="DejaVuSans-42" d="M 1259 2228 
L 1259 519 
L 2272 519 
Q 2781 519 3026 730 
Q 3272 941 3272 1375 
Q 3272 1813 3026 2020 
Q 2781 2228 2272 2228 
L 1259 2228 
z
M 1259 4147 
L 1259 2741 
L 2194 2741 
Q 2656 2741 2882 2914 
Q 3109 3088 3109 3444 
Q 3109 3797 2882 3972 
Q 2656 4147 2194 4147 
L 1259 4147 
z
M 628 4666 
L 2241 4666 
Q 2963 4666 3353 4366 
Q 3744 4066 3744 3513 
Q 3744 3084 3544 2831 
Q 3344 2578 2956 2516 
Q 3422 2416 3680 2098 
Q 3938 1781 3938 1306 
Q 3938 681 3513 340 
Q 3088 0 2303 0 
L 628 0 
L 628 4666 
z
" transform="scale(0.015625)"/>
       <path id="DejaVuSans-72" d="M 2631 2963 
Q 2534 3019 2420 3045 
Q 2306 3072 2169 3072 
Q 1681 3072 1420 2755 
Q 1159 2438 1159 1844 
L 1159 0 
L 581 0 
L 581 3500 
L 1159 3500 
L 1159 2956 
Q 1341 3275 1631 3429 
Q 1922 3584 2338 3584 
Q 2397 3584 2469 3576 
Q 2541 3569 2628 3553 
L 2631 2963 
z
" transform="scale(0.015625)"/>
       <path id="DejaVuSans-64" d="M 2906 2969 
L 2906 4863 
L 3481 4863 
L 3481 0 
L 2906 0 
L 2906 525 
Q 2725 213 2448 61 
Q 2172 -91 1784 -91 
Q 1150 -91 751 415 
Q 353 922 353 1747 
Q 353 2572 751 3078 
Q 1150 3584 1784 3584 
Q 2172 3584 2448 3432 
Q 2725 3281 2906 2969 
z
M 947 1747 
Q 947 1113 1208 752 
Q 1469 391 1925 391 
Q 2381 391 2643 752 
Q 2906 1113 2906 1747 
Q 2906 2381 2643 2742 
Q 2381 3103 1925 3103 
Q 1469 3103 1208 2742 
Q 947 2381 947 1747 
z
" transform="scale(0.015625)"/>
       <path id="DejaVuSans-65" d="M 3597 1894 
L 3597 1613 
L 953 1613 
Q 991 1019 1311 708 
Q 1631 397 2203 397 
Q 2534 397 2845 478 
Q 3156 559 3463 722 
L 3463 178 
Q 3153 47 2828 -22 
Q 2503 -91 2169 -91 
Q 1331 -91 842 396 
Q 353 884 353 1716 
Q 353 2575 817 3079 
Q 1281 3584 2069 3584 
Q 2775 3584 3186 3129 
Q 3597 2675 3597 1894 
z
M 3022 2063 
Q 3016 2534 2758 2815 
Q 2500 3097 2075 3097 
Q 1594 3097 1305 2825 
Q 1016 2553 972 2059 
L 3022 2063 
z
" transform="scale(0.015625)"/>
       <path id="DejaVuSans-4d" d="M 628 4666 
L 1569 4666 
L 2759 1491 
L 3956 4666 
L 4897 4666 
L 4897 0 
L 4281 0 
L 4281 4097 
L 3078 897 
L 2444 897 
L 1241 4097 
L 1241 0 
L 628 0 
L 628 4666 
z
" transform="scale(0.015625)"/>
       <path id="DejaVuSans-6c" d="M 603 4863 
L 1178 4863 
L 1178 0 
L 603 0 
L 603 4863 
z
" transform="scale(0.015625)"/>
       <path id="DejaVuSans-70" d="M 1159 525 
L 1159 -1331 
L 581 -1331 
L 581 3500 
L 1159 3500 
L 1159 2969 
Q 1341 3281 1617 3432 
Q 1894 3584 2278 3584 
Q 2916 3584 3314 3078 
Q 3713 2572 3713 1747 
Q 3713 922 3314 415 
Q 2916 -91 2278 -91 
Q 1894 -91 1617 61 
Q 1341 213 1159 525 
z
M 3116 1747 
Q 3116 2381 2855 2742 
Q 2594 3103 2138 3103 
Q 1681 3103 1420 2742 
Q 1159 2381 1159 1747 
Q 1159 1113 1420 752 
Q 1681 391 2138 391 
Q 2594 391 2855 752 
Q 3116 1113 3116 1747 
z
" transform="scale(0.015625)"/>
       <path id="DejaVuSans-28" d="M 1984 4856 
Q 1566 4138 1362 3434 
Q 1159 2731 1159 2009 
Q 1159 1288 1364 580 
Q 1569 -128 1984 -844 
L 1484 -844 
Q 1016 -109 783 600 
Q 550 1309 550 2009 
Q 550 2706 781 3412 
Q 1013 4119 1484 4856 
L 1984 4856 
z
" transform="scale(0.015625)"/>
       <path id="DejaVuSans-29" d="M 513 4856 
L 1013 4856 
Q 1481 4119 1714 3412 
Q 1947 2706 1947 2009 
Q 1947 1309 1714 600 
Q 1481 -109 1013 -844 
L 513 -844 
Q 928 -128 1133 580 
Q 1338 1288 1338 2009 
Q 1338 2731 1133 3434 
Q 928 4138 513 4856 
z
" transform="scale(0.015625)"/>
      </defs>
      <use xlink:href="#DejaVuSans-45"/>
      <use xlink:href="#DejaVuSans-71" x="63.183594"/>
      <use xlink:href="#DejaVuSans-75" x="126.660156"/>
      <use xlink:href="#DejaVuSans-69" x="190.039062"/>
      <use xlink:href="#DejaVuSans-74" x="217.822266"/>
      <use xlink:href="#DejaVuSans-79" x="257.03125"/>
      <use xlink:href="#DejaVuSans-20" x="316.210938"/>
      <use xlink:href="#DejaVuSans-69" x="347.998047"/>
      <use xlink:href="#DejaVuSans-6e" x="375.78125"/>
      <use xlink:href="#DejaVuSans-20" x="439.160156"/>
      <use xlink:href="#DejaVuSans-56" x="470.947266"/>
      <use xlink:href="#DejaVuSans-61" x="531.605469"/>
      <use xlink:href="#DejaVuSans-63" x="592.884766"/>
      <use xlink:href="#DejaVuSans-63" x="647.865234"/>
      <use xlink:href="#DejaVuSans-69" x="702.845703"/>
      <use xlink:href="#DejaVuSans-6e" x="730.628906"/>
      <use xlink:href="#DejaVuSans-61" x="794.007812"/>
      <use xlink:href="#DejaVuSans-74" x="855.287109"/>
      <use xlink:href="#DejaVuSans-69" x="894.496094"/>
      <use xlink:href="#DejaVuSans-6f" x="922.279297"/>
      <use xlink:href="#DejaVuSans-6e" x="983.460938"/>
      <use xlink:href="#DejaVuSans-20" x="1046.839844"/>
      <use xlink:href="#DejaVuSans-42" x="1078.626953"/>
      <use xlink:href="#DejaVuSans-75" x="1147.230469"/>
      <use xlink:href="#DejaVuSans-72" x="1210.609375"/>
      <use xlink:href="#DejaVuSans-64" x="1249.972656"/>
      <use xlink:href="#DejaVuSans-65" x="1313.449219"/>
      <use xlink:href="#DejaVuSans-6e" x="1374.972656"/>
      <use xlink:href="#DejaVuSans-20" x="1438.351562"/>
      <use xlink:href="#DejaVuSans-4d" x="1470.138672"/>
      <use xlink:href="#DejaVuSans-75" x="1556.417969"/>
      <use xlink:href="#DejaVuSans-6c" x="1619.796875"/>
      <use xlink:href="#DejaVuSans-74" x="1647.580078"/>
      <use xlink:href="#DejaVuSans-69" x="1686.789062"/>
      <use xlink:href="#DejaVuSans-70" x="1714.572266"/>
      <use xlink:href="#DejaVuSans-6c" x="1778.048828"/>
      <use xlink:href="#DejaVuSans-69" x="1805.832031"/>
      <use xlink:href="#DejaVuSans-65" x="1833.615234"/>
      <use xlink:href="#DejaVuSans-72" x="1895.138672"/>
      <use xlink:href="#DejaVuSans-20" x="1936.251953"/>
      <use xlink:href="#DejaVuSans-28" x="1968.039062"/>
      <use xlink:href="#DejaVuSans-61" x="2007.052734"/>
      <use xlink:href="#DejaVuSans-29" x="2068.332031"/>
     </g>
    </g>
   </g>
   <g id="matplotlib.axis_2">
    <g id="ytick_1">
     <g id="line2d_7">
      <defs>
       <path id="ma24056f4b6" d="M 0 0 
L -3.5 0 
" style="stroke: #000000; stroke-width: 0.8"/>
      </defs>
      <g>
       <use xlink:href="#ma24056f4b6" x="43.78125" y="277.111219" style="stroke: #000000; stroke-width: 0.8"/>
      </g>
     </g>
     <g id="text_8">
      <!-- 0.0 -->
      <g transform="translate(20.878125 280.910437) scale(0.1 -0.1)">
       <use xlink:href="#DejaVuSans-30"/>
       <use xlink:href="#DejaVuSans-2e" x="63.623047"/>
       <use xlink:href="#DejaVuSans-30" x="95.410156"/>
      </g>
     </g>
    </g>
    <g id="ytick_2">
     <g id="line2d_8">
      <g>
       <use xlink:href="#ma24056f4b6" x="43.78125" y="223.888819" style="stroke: #000000; stroke-width: 0.8"/>
      </g>
     </g>
     <g id="text_9">
      <!-- 0.2 -->
      <g transform="translate(20.878125 227.688037) scale(0.1 -0.1)">
       <use xlink:href="#DejaVuSans-30"/>
       <use xlink:href="#DejaVuSans-2e" x="63.623047"/>
       <use xlink:href="#DejaVuSans-32" x="95.410156"/>
      </g>
     </g>
    </g>
    <g id="ytick_3">
     <g id="line2d_9">
      <g>
       <use xlink:href="#ma24056f4b6" x="43.78125" y="170.666419" style="stroke: #000000; stroke-width: 0.8"/>
      </g>
     </g>
     <g id="text_10">
      <!-- 0.4 -->
      <g transform="translate(20.878125 174.465637) scale(0.1 -0.1)">
       <use xlink:href="#DejaVuSans-30"/>
       <use xlink:href="#DejaVuSans-2e" x="63.623047"/>
       <use xlink:href="#DejaVuSans-34" x="95.410156"/>
      </g>
     </g>
    </g>
    <g id="ytick_4">
     <g id="line2d_10">
      <g>
       <use xlink:href="#ma24056f4b6" x="43.78125" y="117.444019" style="stroke: #000000; stroke-width: 0.8"/>
      </g>
     </g>
     <g id="text_11">
      <!-- 0.6 -->
      <g transform="translate(20.878125 121.243237) scale(0.1 -0.1)">
       <use xlink:href="#DejaVuSans-30"/>
       <use xlink:href="#DejaVuSans-2e" x="63.623047"/>
       <use xlink:href="#DejaVuSans-36" x="95.410156"/>
      </g>
     </g>
    </g>
    <g id="ytick_5">
     <g id="line2d_11">
      <g>
       <use xlink:href="#ma24056f4b6" x="43.78125" y="64.221619" style="stroke: #000000; stroke-width: 0.8"/>
      </g>
     </g>
     <g id="text_12">
      <!-- 0.8 -->
      <g transform="translate(20.878125 68.020837) scale(0.1 -0.1)">
       <use xlink:href="#DejaVuSans-30"/>
       <use xlink:href="#DejaVuSans-2e" x="63.623047"/>
       <use xlink:href="#DejaVuSans-38" x="95.410156"/>
      </g>
     </g>
    </g>
    <g id="ytick_6">
     <g id="line2d_12">
      <g>
       <use xlink:href="#ma24056f4b6" x="43.78125" y="10.999219" style="stroke: #000000; stroke-width: 0.8"/>
      </g>
     </g>
     <g id="text_13">
      <!-- 1.0 -->
      <g transform="translate(20.878125 14.798437) scale(0.1 -0.1)">
       <use xlink:href="#DejaVuSans-31"/>
       <use xlink:href="#DejaVuSans-2e" x="63.623047"/>
       <use xlink:href="#DejaVuSans-30" x="95.410156"/>
      </g>
     </g>
    </g>
    <g id="text_14">
     <!-- Equity in Infection Burden Multiplier (b) -->
     <g transform="translate(14.798438 242.544281) rotate(-90) scale(0.1 -0.1)">
      <defs>
       <path id="DejaVuSans-49" d="M 628 4666 
L 1259 4666 
L 1259 0 
L 628 0 
L 628 4666 
z
" transform="scale(0.015625)"/>
       <path id="DejaVuSans-66" d="M 2375 4863 
L 2375 4384 
L 1825 4384 
Q 1516 4384 1395 4259 
Q 1275 4134 1275 3809 
L 1275 3500 
L 2222 3500 
L 2222 3053 
L 1275 3053 
L 1275 0 
L 697 0 
L 697 3053 
L 147 3053 
L 147 3500 
L 697 3500 
L 697 3744 
Q 697 4328 969 4595 
Q 1241 4863 1831 4863 
L 2375 4863 
z
" transform="scale(0.015625)"/>
       <path id="DejaVuSans-62" d="M 3116 1747 
Q 3116 2381 2855 2742 
Q 2594 3103 2138 3103 
Q 1681 3103 1420 2742 
Q 1159 2381 1159 1747 
Q 1159 1113 1420 752 
Q 1681 391 2138 391 
Q 2594 391 2855 752 
Q 3116 1113 3116 1747 
z
M 1159 2969 
Q 1341 3281 1617 3432 
Q 1894 3584 2278 3584 
Q 2916 3584 3314 3078 
Q 3713 2572 3713 1747 
Q 3713 922 3314 415 
Q 2916 -91 2278 -91 
Q 1894 -91 1617 61 
Q 1341 213 1159 525 
L 1159 0 
L 581 0 
L 581 4863 
L 1159 4863 
L 1159 2969 
z
" transform="scale(0.015625)"/>
      </defs>
      <use xlink:href="#DejaVuSans-45"/>
      <use xlink:href="#DejaVuSans-71" x="63.183594"/>
      <use xlink:href="#DejaVuSans-75" x="126.660156"/>
      <use xlink:href="#DejaVuSans-69" x="190.039062"/>
      <use xlink:href="#DejaVuSans-74" x="217.822266"/>
      <use xlink:href="#DejaVuSans-79" x="257.03125"/>
      <use xlink:href="#DejaVuSans-20" x="316.210938"/>
      <use xlink:href="#DejaVuSans-69" x="347.998047"/>
      <use xlink:href="#DejaVuSans-6e" x="375.78125"/>
      <use xlink:href="#DejaVuSans-20" x="439.160156"/>
      <use xlink:href="#DejaVuSans-49" x="470.947266"/>
      <use xlink:href="#DejaVuSans-6e" x="500.439453"/>
      <use xlink:href="#DejaVuSans-66" x="563.818359"/>
      <use xlink:href="#DejaVuSans-65" x="599.023438"/>
      <use xlink:href="#DejaVuSans-63" x="660.546875"/>
      <use xlink:href="#DejaVuSans-74" x="715.527344"/>
      <use xlink:href="#DejaVuSans-69" x="754.736328"/>
      <use xlink:href="#DejaVuSans-6f" x="782.519531"/>
      <use xlink:href="#DejaVuSans-6e" x="843.701172"/>
      <use xlink:href="#DejaVuSans-20" x="907.080078"/>
      <use xlink:href="#DejaVuSans-42" x="938.867188"/>
      <use xlink:href="#DejaVuSans-75" x="1007.470703"/>
      <use xlink:href="#DejaVuSans-72" x="1070.849609"/>
      <use xlink:href="#DejaVuSans-64" x="1110.212891"/>
      <use xlink:href="#DejaVuSans-65" x="1173.689453"/>
      <use xlink:href="#DejaVuSans-6e" x="1235.212891"/>
      <use xlink:href="#DejaVuSans-20" x="1298.591797"/>
      <use xlink:href="#DejaVuSans-4d" x="1330.378906"/>
      <use xlink:href="#DejaVuSans-75" x="1416.658203"/>
      <use xlink:href="#DejaVuSans-6c" x="1480.037109"/>
      <use xlink:href="#DejaVuSans-74" x="1507.820312"/>
      <use xlink:href="#DejaVuSans-69" x="1547.029297"/>
      <use xlink:href="#DejaVuSans-70" x="1574.8125"/>
      <use xlink:href="#DejaVuSans-6c" x="1638.289062"/>
      <use xlink:href="#DejaVuSans-69" x="1666.072266"/>
      <use xlink:href="#DejaVuSans-65" x="1693.855469"/>
      <use xlink:href="#DejaVuSans-72" x="1755.378906"/>
      <use xlink:href="#DejaVuSans-20" x="1796.492188"/>
      <use xlink:href="#DejaVuSans-28" x="1828.279297"/>
      <use xlink:href="#DejaVuSans-62" x="1867.292969"/>
      <use xlink:href="#DejaVuSans-29" x="1930.769531"/>
     </g>
    </g>
   </g>
   <g id="patch_3">
    <path d="M 43.78125 277.111219 
L 43.78125 10.999219 
" style="fill: none; stroke: #000000; stroke-width: 0.8; stroke-linejoin: miter; stroke-linecap: square"/>
   </g>
   <g id="patch_4">
    <path d="M 329.47725 277.111219 
L 329.47725 10.999219 
" style="fill: none; stroke: #000000; stroke-width: 0.8; stroke-linejoin: miter; stroke-linecap: square"/>
   </g>
   <g id="patch_5">
    <path d="M 43.78125 277.111219 
L 329.47725 277.111219 
" style="fill: none; stroke: #000000; stroke-width: 0.8; stroke-linejoin: miter; stroke-linecap: square"/>
   </g>
   <g id="patch_6">
    <path d="M 43.78125 10.999219 
L 329.47725 10.999219 
" style="fill: none; stroke: #000000; stroke-width: 0.8; stroke-linejoin: miter; stroke-linecap: square"/>
   </g>
  </g>
  <g id="axes_2">
   <g id="patch_7">
    <path d="M 347.33325 277.111219 
L 360.63885 277.111219 
L 360.63885 10.999219 
L 347.33325 10.999219 
z
" style="fill: #ffffff"/>
   </g>
   <g id="QuadMesh_1">
    <path d="M 347.33325 277.111219 
L 360.63885 277.111219 
L 360.63885 259.370419 
L 347.33325 259.370419 
L 347.33325 277.111219 
" clip-path="url(#p651a241073)" style="fill: #fff0e8"/>
    <path d="M 347.33325 259.370419 
L 360.63885 259.370419 
L 360.63885 241.629619 
L 347.33325 241.629619 
L 347.33325 259.370419 
" clip-path="url(#p651a241073)" style="fill: #fee5d8"/>
    <path d="M 347.33325 241.629619 
L 360.63885 241.629619 
L 360.63885 223.888819 
L 347.33325 223.888819 
L 347.33325 241.629619 
" clip-path="url(#p651a241073)" style="fill: #fdd4c2"/>
    <path d="M 347.33325 223.888819 
L 360.63885 223.888819 
L 360.63885 206.148019 
L 347.33325 206.148019 
L 347.33325 223.888819 
" clip-path="url(#p651a241073)" style="fill: #fcc1a8"/>
    <path d="M 347.33325 206.148019 
L 360.63885 206.148019 
L 360.63885 188.407219 
L 347.33325 188.407219 
L 347.33325 206.148019 
" clip-path="url(#p651a241073)" style="fill: #fcab8f"/>
    <path d="M 347.33325 188.407219 
L 360.63885 188.407219 
L 360.63885 170.666419 
L 347.33325 170.666419 
L 347.33325 188.407219 
" clip-path="url(#p651a241073)" style="fill: #fc9576"/>
    <path d="M 347.33325 170.666419 
L 360.63885 170.666419 
L 360.63885 152.925619 
L 347.33325 152.925619 
L 347.33325 170.666419 
" clip-path="url(#p651a241073)" style="fill: #fc8060"/>
    <path d="M 347.33325 152.925619 
L 360.63885 152.925619 
L 360.63885 135.184819 
L 347.33325 135.184819 
L 347.33325 152.925619 
" clip-path="url(#p651a241073)" style="fill: #fb694a"/>
    <path d="M 347.33325 135.184819 
L 360.63885 135.184819 
L 360.63885 117.444019 
L 347.33325 117.444019 
L 347.33325 135.184819 
" clip-path="url(#p651a241073)" style="fill: #f4503a"/>
    <path d="M 347.33325 117.444019 
L 360.63885 117.444019 
L 360.63885 99.703219 
L 347.33325 99.703219 
L 347.33325 117.444019 
" clip-path="url(#p651a241073)" style="fill: #ec382b"/>
    <path d="M 347.33325 99.703219 
L 360.63885 99.703219 
L 360.63885 81.962419 
L 347.33325 81.962419 
L 347.33325 99.703219 
" clip-path="url(#p651a241073)" style="fill: #d92523"/>
    <path d="M 347.33325 81.962419 
L 360.63885 81.962419 
L 360.63885 64.221619 
L 347.33325 64.221619 
L 347.33325 81.962419 
" clip-path="url(#p651a241073)" style="fill: #c5171c"/>
    <path d="M 347.33325 64.221619 
L 360.63885 64.221619 
L 360.63885 46.480819 
L 347.33325 46.480819 
L 347.33325 64.221619 
" clip-path="url(#p651a241073)" style="fill: #b11218"/>
    <path d="M 347.33325 46.480819 
L 360.63885 46.480819 
L 360.63885 28.740019 
L 347.33325 28.740019 
L 347.33325 46.480819 
" clip-path="url(#p651a241073)" style="fill: #980c13"/>
    <path d="M 347.33325 28.740019 
L 360.63885 28.740019 
L 360.63885 10.999219 
L 347.33325 10.999219 
L 347.33325 28.740019 
" clip-path="url(#p651a241073)" style="fill: #77040f"/>
   </g>
   <g id="matplotlib.axis_3"/>
   <g id="matplotlib.axis_4">
    <g id="ytick_7">
     <g id="line2d_13">
      <defs>
       <path id="m71297d585f" d="M 0 0 
L 3.5 0 
" style="stroke: #000000; stroke-width: 0.8"/>
      </defs>
      <g>
       <use xlink:href="#m71297d585f" x="360.63885" y="277.111219" style="stroke: #000000; stroke-width: 0.8"/>
      </g>
     </g>
     <g id="text_15">
      <!-- 0 -->
      <g transform="translate(367.63885 280.910437) scale(0.1 -0.1)">
       <use xlink:href="#DejaVuSans-30"/>
      </g>
     </g>
    </g>
    <g id="ytick_8">
     <g id="line2d_14">
      <g>
       <use xlink:href="#m71297d585f" x="360.63885" y="241.629619" style="stroke: #000000; stroke-width: 0.8"/>
      </g>
     </g>
     <g id="text_16">
      <!-- 8 -->
      <g transform="translate(367.63885 245.428837) scale(0.1 -0.1)">
       <use xlink:href="#DejaVuSans-38"/>
      </g>
     </g>
    </g>
    <g id="ytick_9">
     <g id="line2d_15">
      <g>
       <use xlink:href="#m71297d585f" x="360.63885" y="206.148019" style="stroke: #000000; stroke-width: 0.8"/>
      </g>
     </g>
     <g id="text_17">
      <!-- 16 -->
      <g transform="translate(367.63885 209.947237) scale(0.1 -0.1)">
       <use xlink:href="#DejaVuSans-31"/>
       <use xlink:href="#DejaVuSans-36" x="63.623047"/>
      </g>
     </g>
    </g>
    <g id="ytick_10">
     <g id="line2d_16">
      <g>
       <use xlink:href="#m71297d585f" x="360.63885" y="170.666419" style="stroke: #000000; stroke-width: 0.8"/>
      </g>
     </g>
     <g id="text_18">
      <!-- 24 -->
      <g transform="translate(367.63885 174.465637) scale(0.1 -0.1)">
       <use xlink:href="#DejaVuSans-32"/>
       <use xlink:href="#DejaVuSans-34" x="63.623047"/>
      </g>
     </g>
    </g>
    <g id="ytick_11">
     <g id="line2d_17">
      <g>
       <use xlink:href="#m71297d585f" x="360.63885" y="135.184819" style="stroke: #000000; stroke-width: 0.8"/>
      </g>
     </g>
     <g id="text_19">
      <!-- 32 -->
      <g transform="translate(367.63885 138.984037) scale(0.1 -0.1)">
       <defs>
        <path id="DejaVuSans-33" d="M 2597 2516 
Q 3050 2419 3304 2112 
Q 3559 1806 3559 1356 
Q 3559 666 3084 287 
Q 2609 -91 1734 -91 
Q 1441 -91 1130 -33 
Q 819 25 488 141 
L 488 750 
Q 750 597 1062 519 
Q 1375 441 1716 441 
Q 2309 441 2620 675 
Q 2931 909 2931 1356 
Q 2931 1769 2642 2001 
Q 2353 2234 1838 2234 
L 1294 2234 
L 1294 2753 
L 1863 2753 
Q 2328 2753 2575 2939 
Q 2822 3125 2822 3475 
Q 2822 3834 2567 4026 
Q 2313 4219 1838 4219 
Q 1578 4219 1281 4162 
Q 984 4106 628 3988 
L 628 4550 
Q 988 4650 1302 4700 
Q 1616 4750 1894 4750 
Q 2613 4750 3031 4423 
Q 3450 4097 3450 3541 
Q 3450 3153 3228 2886 
Q 3006 2619 2597 2516 
z
" transform="scale(0.015625)"/>
       </defs>
       <use xlink:href="#DejaVuSans-33"/>
       <use xlink:href="#DejaVuSans-32" x="63.623047"/>
      </g>
     </g>
    </g>
    <g id="ytick_12">
     <g id="line2d_18">
      <g>
       <use xlink:href="#m71297d585f" x="360.63885" y="99.703219" style="stroke: #000000; stroke-width: 0.8"/>
      </g>
     </g>
     <g id="text_20">
      <!-- 40 -->
      <g transform="translate(367.63885 103.502437) scale(0.1 -0.1)">
       <use xlink:href="#DejaVuSans-34"/>
       <use xlink:href="#DejaVuSans-30" x="63.623047"/>
      </g>
     </g>
    </g>
    <g id="ytick_13">
     <g id="line2d_19">
      <g>
       <use xlink:href="#m71297d585f" x="360.63885" y="64.221619" style="stroke: #000000; stroke-width: 0.8"/>
      </g>
     </g>
     <g id="text_21">
      <!-- 48 -->
      <g transform="translate(367.63885 68.020837) scale(0.1 -0.1)">
       <use xlink:href="#DejaVuSans-34"/>
       <use xlink:href="#DejaVuSans-38" x="63.623047"/>
      </g>
     </g>
    </g>
    <g id="ytick_14">
     <g id="line2d_20">
      <g>
       <use xlink:href="#m71297d585f" x="360.63885" y="28.740019" style="stroke: #000000; stroke-width: 0.8"/>
      </g>
     </g>
     <g id="text_22">
      <!-- 56 -->
      <g transform="translate(367.63885 32.539237) scale(0.1 -0.1)">
       <defs>
        <path id="DejaVuSans-35" d="M 691 4666 
L 3169 4666 
L 3169 4134 
L 1269 4134 
L 1269 2991 
Q 1406 3038 1543 3061 
Q 1681 3084 1819 3084 
Q 2600 3084 3056 2656 
Q 3513 2228 3513 1497 
Q 3513 744 3044 326 
Q 2575 -91 1722 -91 
Q 1428 -91 1123 -41 
Q 819 9 494 109 
L 494 744 
Q 775 591 1075 516 
Q 1375 441 1709 441 
Q 2250 441 2565 725 
Q 2881 1009 2881 1497 
Q 2881 1984 2565 2268 
Q 2250 2553 1709 2553 
Q 1456 2553 1204 2497 
Q 953 2441 691 2322 
L 691 4666 
z
" transform="scale(0.015625)"/>
       </defs>
       <use xlink:href="#DejaVuSans-35"/>
       <use xlink:href="#DejaVuSans-36" x="63.623047"/>
      </g>
     </g>
    </g>
    <g id="text_23">
     <!-- Infections in group 1 (%) -->
     <g transform="translate(391.962288 205.734125) rotate(-90) scale(0.1 -0.1)">
      <defs>
       <path id="DejaVuSans-73" d="M 2834 3397 
L 2834 2853 
Q 2591 2978 2328 3040 
Q 2066 3103 1784 3103 
Q 1356 3103 1142 2972 
Q 928 2841 928 2578 
Q 928 2378 1081 2264 
Q 1234 2150 1697 2047 
L 1894 2003 
Q 2506 1872 2764 1633 
Q 3022 1394 3022 966 
Q 3022 478 2636 193 
Q 2250 -91 1575 -91 
Q 1294 -91 989 -36 
Q 684 19 347 128 
L 347 722 
Q 666 556 975 473 
Q 1284 391 1588 391 
Q 1994 391 2212 530 
Q 2431 669 2431 922 
Q 2431 1156 2273 1281 
Q 2116 1406 1581 1522 
L 1381 1569 
Q 847 1681 609 1914 
Q 372 2147 372 2553 
Q 372 3047 722 3315 
Q 1072 3584 1716 3584 
Q 2034 3584 2315 3537 
Q 2597 3491 2834 3397 
z
" transform="scale(0.015625)"/>
       <path id="DejaVuSans-67" d="M 2906 1791 
Q 2906 2416 2648 2759 
Q 2391 3103 1925 3103 
Q 1463 3103 1205 2759 
Q 947 2416 947 1791 
Q 947 1169 1205 825 
Q 1463 481 1925 481 
Q 2391 481 2648 825 
Q 2906 1169 2906 1791 
z
M 3481 434 
Q 3481 -459 3084 -895 
Q 2688 -1331 1869 -1331 
Q 1566 -1331 1297 -1286 
Q 1028 -1241 775 -1147 
L 775 -588 
Q 1028 -725 1275 -790 
Q 1522 -856 1778 -856 
Q 2344 -856 2625 -561 
Q 2906 -266 2906 331 
L 2906 616 
Q 2728 306 2450 153 
Q 2172 0 1784 0 
Q 1141 0 747 490 
Q 353 981 353 1791 
Q 353 2603 747 3093 
Q 1141 3584 1784 3584 
Q 2172 3584 2450 3431 
Q 2728 3278 2906 2969 
L 2906 3500 
L 3481 3500 
L 3481 434 
z
" transform="scale(0.015625)"/>
       <path id="DejaVuSans-25" d="M 4653 2053 
Q 4381 2053 4226 1822 
Q 4072 1591 4072 1178 
Q 4072 772 4226 539 
Q 4381 306 4653 306 
Q 4919 306 5073 539 
Q 5228 772 5228 1178 
Q 5228 1588 5073 1820 
Q 4919 2053 4653 2053 
z
M 4653 2450 
Q 5147 2450 5437 2106 
Q 5728 1763 5728 1178 
Q 5728 594 5436 251 
Q 5144 -91 4653 -91 
Q 4153 -91 3862 251 
Q 3572 594 3572 1178 
Q 3572 1766 3864 2108 
Q 4156 2450 4653 2450 
z
M 1428 4353 
Q 1159 4353 1004 4120 
Q 850 3888 850 3481 
Q 850 3069 1003 2837 
Q 1156 2606 1428 2606 
Q 1700 2606 1854 2837 
Q 2009 3069 2009 3481 
Q 2009 3884 1853 4118 
Q 1697 4353 1428 4353 
z
M 4250 4750 
L 4750 4750 
L 1831 -91 
L 1331 -91 
L 4250 4750 
z
M 1428 4750 
Q 1922 4750 2215 4408 
Q 2509 4066 2509 3481 
Q 2509 2891 2217 2550 
Q 1925 2209 1428 2209 
Q 931 2209 642 2551 
Q 353 2894 353 3481 
Q 353 4063 643 4406 
Q 934 4750 1428 4750 
z
" transform="scale(0.015625)"/>
      </defs>
      <use xlink:href="#DejaVuSans-49"/>
      <use xlink:href="#DejaVuSans-6e" x="29.492188"/>
      <use xlink:href="#DejaVuSans-66" x="92.871094"/>
      <use xlink:href="#DejaVuSans-65" x="128.076172"/>
      <use xlink:href="#DejaVuSans-63" x="189.599609"/>
      <use xlink:href="#DejaVuSans-74" x="244.580078"/>
      <use xlink:href="#DejaVuSans-69" x="283.789062"/>
      <use xlink:href="#DejaVuSans-6f" x="311.572266"/>
      <use xlink:href="#DejaVuSans-6e" x="372.753906"/>
      <use xlink:href="#DejaVuSans-73" x="436.132812"/>
      <use xlink:href="#DejaVuSans-20" x="488.232422"/>
      <use xlink:href="#DejaVuSans-69" x="520.019531"/>
      <use xlink:href="#DejaVuSans-6e" x="547.802734"/>
      <use xlink:href="#DejaVuSans-20" x="611.181641"/>
      <use xlink:href="#DejaVuSans-67" x="642.96875"/>
      <use xlink:href="#DejaVuSans-72" x="706.445312"/>
      <use xlink:href="#DejaVuSans-6f" x="745.308594"/>
      <use xlink:href="#DejaVuSans-75" x="806.490234"/>
      <use xlink:href="#DejaVuSans-70" x="869.869141"/>
      <use xlink:href="#DejaVuSans-20" x="933.345703"/>
      <use xlink:href="#DejaVuSans-31" x="965.132812"/>
      <use xlink:href="#DejaVuSans-20" x="1028.755859"/>
      <use xlink:href="#DejaVuSans-28" x="1060.542969"/>
      <use xlink:href="#DejaVuSans-25" x="1099.556641"/>
      <use xlink:href="#DejaVuSans-29" x="1194.576172"/>
     </g>
    </g>
   </g>
   <g id="LineCollection_1"/>
   <g id="patch_8">
    <path d="M 347.33325 277.111219 
L 353.98605 277.111219 
L 360.63885 277.111219 
L 360.63885 10.999219 
L 353.98605 10.999219 
L 347.33325 10.999219 
L 347.33325 277.111219 
z
" style="fill: none; stroke: #000000; stroke-width: 0.8; stroke-linejoin: miter; stroke-linecap: square"/>
   </g>
  </g>
 </g>
 <defs>
  <clipPath id="p8aeed5cc33">
   <rect x="43.78125" y="10.999219" width="285.696" height="266.112"/>
  </clipPath>
  <clipPath id="p651a241073">
   <rect x="347.33325" y="10.999219" width="13.3056" height="266.112"/>
  </clipPath>
 </defs>
</svg>
