<?xml version="1.0" encoding="utf-8" standalone="no"?>
<!DOCTYPE svg PUBLIC "-//W3C//DTD SVG 1.1//EN"
  "http://www.w3.org/Graphics/SVG/1.1/DTD/svg11.dtd">
<svg xmlns:xlink="http://www.w3.org/1999/xlink" width="426.691975pt" height="314.667469pt" viewBox="0 0 426.691975 314.667469" xmlns="http://www.w3.org/2000/svg" version="1.1">
 <metadata>
  <rdf:RDF xmlns:dc="http://purl.org/dc/elements/1.1/" xmlns:cc="http://creativecommons.org/ns#" xmlns:rdf="http://www.w3.org/1999/02/22-rdf-syntax-ns#">
   <cc:Work>
    <dc:type rdf:resource="http://purl.org/dc/dcmitype/StillImage"/>
    <dc:date>2024-11-11T09:33:25.488827</dc:date>
    <dc:format>image/svg+xml</dc:format>
    <dc:creator>
     <cc:Agent>
      <dc:title>Matplotlib v3.9.0, https://matplotlib.org/</dc:title>
     </cc:Agent>
    </dc:creator>
   </cc:Work>
  </rdf:RDF>
 </metadata>
 <defs>
  <style type="text/css">*{stroke-linejoin: round; stroke-linecap: butt}</style>
 </defs>
 <g id="figure_1">
  <g id="patch_1">
   <path d="M 0 314.667469 
L 426.691975 314.667469 
L 426.691975 0 
L 0 0 
z
" style="fill: #ffffff"/>
  </g>
  <g id="axes_1">
   <g id="patch_2">
    <path d="M 43.78125 277.111219 
L 329.47725 277.111219 
L 329.47725 10.999219 
L 43.78125 10.999219 
z
" style="fill: #ffffff"/>
   </g>
   <g id="QuadContourSet_1">
    <path d="M 100.92045 223.93241 
L 101.057827 223.888819 
L 101.057827 217.236019 
L 101.075268 210.583219 
L 101.075268 203.930419 
L 101.075268 197.277619 
L 100.92045 197.133413 
L 93.932868 190.624819 
L 93.77805 190.480613 
L 86.790468 183.972019 
L 86.790468 177.319219 
L 86.790468 170.666419 
L 86.790468 164.013619 
L 86.790468 157.360819 
L 86.63565 157.216613 
L 79.49325 157.216613 
L 72.505668 150.708019 
L 72.505668 144.055219 
L 72.505668 137.402419 
L 72.505668 130.749619 
L 73.335386 124.096819 
L 74.183486 117.444019 
L 72.35085 115.737007 
L 65.20845 116.526971 
L 59.050586 110.791219 
L 59.898686 104.138419 
L 59.898686 97.485619 
L 59.898686 90.832819 
L 59.898686 84.180019 
L 59.898686 77.527219 
L 58.06605 75.820207 
L 50.92365 75.820207 
L 45.613886 70.874419 
L 45.613886 64.221619 
L 45.613886 57.568819 
L 45.613886 50.916019 
L 45.613886 44.263219 
L 45.613886 37.610419 
L 43.78125 35.903407 
L 43.78125 37.610419 
L 43.78125 44.263219 
L 43.78125 50.916019 
L 43.78125 57.568819 
L 43.78125 64.221619 
L 43.78125 70.874419 
L 43.78125 77.527219 
L 43.78125 84.180019 
L 43.78125 90.832819 
L 43.78125 97.485619 
L 43.78125 104.138419 
L 43.78125 110.791219 
L 43.78125 117.444019 
L 43.78125 124.096819 
L 43.78125 130.749619 
L 43.78125 137.402419 
L 43.78125 144.055219 
L 43.78125 150.708019 
L 43.78125 157.360819 
L 43.78125 164.013619 
L 43.78125 170.666419 
L 43.78125 177.319219 
L 43.78125 183.972019 
L 43.78125 190.624819 
L 43.78125 197.277619 
L 43.78125 197.32121 
L 50.92365 197.32121 
L 58.019251 203.930419 
L 58.019251 210.583219 
L 58.06605 210.62681 
L 65.20845 210.62681 
L 72.35085 210.62681 
L 79.49325 210.62681 
L 86.63565 210.62681 
L 93.731251 217.236019 
L 93.77805 217.27961 
L 100.873651 223.888819 
z
" clip-path="url(#p00efc674cf)" style="fill: #ffefe8"/>
    <path d="M 100.92045 225.576161 
L 106.238079 223.888819 
L 106.238079 217.236019 
L 106.91319 210.583219 
L 106.91319 203.930419 
L 106.91319 197.277619 
L 100.92045 191.695671 
L 99.77079 190.624819 
L 93.77805 185.042871 
L 92.62839 183.972019 
L 92.62839 177.319219 
L 92.62839 170.666419 
L 92.62839 164.013619 
L 92.62839 157.360819 
L 86.63565 151.778871 
L 79.49325 151.778871 
L 78.34359 150.708019 
L 78.34359 144.055219 
L 78.34359 137.402419 
L 78.34359 130.749619 
L 78.480103 124.096819 
L 79.328204 117.444019 
L 72.35085 110.944951 
L 65.20845 111.734916 
L 64.195303 110.791219 
L 65.043404 104.138419 
L 65.043404 97.485619 
L 65.043404 90.832819 
L 65.043404 84.180019 
L 65.043404 77.527219 
L 58.06605 71.028151 
L 50.92365 71.028151 
L 50.758604 70.874419 
L 50.758604 64.221619 
L 50.758604 57.568819 
L 50.758604 50.916019 
L 50.758604 44.263219 
L 50.758604 37.610419 
L 43.78125 31.111351 
L 43.78125 35.903407 
L 45.613886 37.610419 
L 45.613886 44.263219 
L 45.613886 50.916019 
L 45.613886 57.568819 
L 45.613886 64.221619 
L 45.613886 70.874419 
L 50.92365 75.820207 
L 58.06605 75.820207 
L 59.898686 77.527219 
L 59.898686 84.180019 
L 59.898686 90.832819 
L 59.898686 97.485619 
L 59.898686 104.138419 
L 59.050586 110.791219 
L 65.20845 116.526971 
L 72.35085 115.737007 
L 74.183486 117.444019 
L 73.335386 124.096819 
L 72.505668 130.749619 
L 72.505668 137.402419 
L 72.505668 144.055219 
L 72.505668 150.708019 
L 79.49325 157.216613 
L 86.63565 157.216613 
L 86.790468 157.360819 
L 86.790468 164.013619 
L 86.790468 170.666419 
L 86.790468 177.319219 
L 86.790468 183.972019 
L 93.77805 190.480613 
L 93.932868 190.624819 
L 100.92045 197.133413 
L 101.075268 197.277619 
L 101.075268 203.930419 
L 101.075268 210.583219 
L 101.057827 217.236019 
L 101.057827 223.888819 
L 100.92045 223.93241 
L 100.873651 223.888819 
L 93.77805 217.27961 
L 93.731251 217.236019 
L 86.63565 210.62681 
L 79.49325 210.62681 
L 72.35085 210.62681 
L 65.20845 210.62681 
L 58.06605 210.62681 
L 58.019251 210.583219 
L 58.019251 203.930419 
L 50.92365 197.32121 
L 43.78125 197.32121 
L 43.78125 198.964961 
L 50.92365 198.964961 
L 56.254532 203.930419 
L 56.254532 210.583219 
L 58.06605 212.270561 
L 65.20845 212.270561 
L 72.35085 212.270561 
L 79.49325 212.270561 
L 86.63565 212.270561 
L 91.966532 217.236019 
L 93.77805 218.923361 
L 99.108932 223.888819 
z
" clip-path="url(#p00efc674cf)" style="fill: #fee2d5"/>
    <path d="M 243.76845 277.111219 
L 250.91085 277.111219 
L 258.05325 277.111219 
L 265.19565 277.111219 
L 272.33805 277.111219 
L 279.48045 277.111219 
L 286.62285 277.111219 
L 293.76525 277.111219 
L 300.90765 277.111219 
L 308.05005 277.111219 
L 300.90765 270.458419 
L 300.90765 263.805619 
L 293.76525 263.805619 
L 286.62285 257.152819 
L 279.48045 250.500019 
L 272.33805 243.847219 
L 265.19565 237.194419 
L 264.407461 236.460259 
L 264.407461 237.194419 
L 258.05325 243.113059 
L 250.91085 243.113059 
L 250.122661 243.847219 
L 250.122661 250.500019 
L 243.76845 256.418659 
L 236.62605 256.418659 
L 235.837861 257.152819 
L 235.837861 263.805619 
L 236.62605 263.882984 
L 243.012405 270.458419 
L 243.012405 277.111219 
z
M 100.92045 227.219911 
L 108.06285 224.953549 
L 111.41833 223.888819 
L 111.844332 217.236019 
L 112.751112 210.583219 
L 112.751112 203.930419 
L 112.751112 197.277619 
L 112.751112 190.624819 
L 108.06285 186.257929 
L 100.92045 186.257929 
L 98.466312 183.972019 
L 98.466312 177.319219 
L 98.466312 170.666419 
L 98.466312 164.013619 
L 98.466312 157.360819 
L 93.77805 152.993929 
L 91.323912 150.708019 
L 86.63565 146.341129 
L 84.181512 144.055219 
L 84.181512 137.402419 
L 84.181512 130.749619 
L 84.181512 124.096819 
L 84.472921 117.444019 
L 79.49325 112.805696 
L 77.330521 110.791219 
L 72.35085 106.152896 
L 70.188121 104.138419 
L 70.188121 97.485619 
L 70.188121 90.832819 
L 70.188121 84.180019 
L 70.188121 77.527219 
L 65.20845 72.888896 
L 63.045721 70.874419 
L 58.06605 66.236096 
L 55.903321 64.221619 
L 55.903321 57.568819 
L 55.903321 50.916019 
L 55.903321 44.263219 
L 55.903321 37.610419 
L 50.92365 37.610419 
L 43.78125 30.957619 
L 43.78125 31.111351 
L 50.758604 37.610419 
L 50.758604 44.263219 
L 50.758604 50.916019 
L 50.758604 57.568819 
L 50.758604 64.221619 
L 50.758604 70.874419 
L 50.92365 71.028151 
L 58.06605 71.028151 
L 65.043404 77.527219 
L 65.043404 84.180019 
L 65.043404 90.832819 
L 65.043404 97.485619 
L 65.043404 104.138419 
L 64.195303 110.791219 
L 65.20845 111.734916 
L 72.35085 110.944951 
L 79.328204 117.444019 
L 78.480103 124.096819 
L 78.34359 130.749619 
L 78.34359 137.402419 
L 78.34359 144.055219 
L 78.34359 150.708019 
L 79.49325 151.778871 
L 86.63565 151.778871 
L 92.62839 157.360819 
L 92.62839 164.013619 
L 92.62839 170.666419 
L 92.62839 177.319219 
L 92.62839 183.972019 
L 93.77805 185.042871 
L 99.77079 190.624819 
L 100.92045 191.695671 
L 106.91319 197.277619 
L 106.91319 203.930419 
L 106.91319 210.583219 
L 106.238079 217.236019 
L 106.238079 223.888819 
L 100.92045 225.576161 
L 99.108932 223.888819 
L 93.77805 218.923361 
L 91.966532 217.236019 
L 86.63565 212.270561 
L 79.49325 212.270561 
L 72.35085 212.270561 
L 65.20845 212.270561 
L 58.06605 212.270561 
L 56.254532 210.583219 
L 56.254532 203.930419 
L 50.92365 198.964961 
L 43.78125 198.964961 
L 43.78125 200.608711 
L 50.92365 200.608711 
L 54.489812 203.930419 
L 54.489812 210.583219 
L 58.06605 213.914311 
L 65.20845 213.914311 
L 72.35085 213.914311 
L 79.49325 213.914311 
L 86.63565 213.914311 
L 90.201812 217.236019 
L 93.77805 220.567111 
L 97.344212 223.888819 
z
" clip-path="url(#p00efc674cf)" style="fill: #fdccb8"/>
    <path d="M 243.012405 270.458419 
L 236.62605 263.882984 
L 235.837861 263.805619 
L 235.837861 257.152819 
L 236.62605 256.418659 
L 243.76845 256.418659 
L 250.122661 250.500019 
L 250.122661 243.847219 
L 250.91085 243.113059 
L 258.05325 243.113059 
L 264.407461 237.194419 
L 264.407461 236.460259 
L 258.05325 230.541619 
L 258.05325 223.888819 
L 250.91085 223.888819 
L 243.76845 217.236019 
L 236.62605 210.583219 
L 229.48365 203.930419 
L 222.34125 197.277619 
L 215.19885 190.624819 
L 208.05645 183.972019 
L 200.91405 177.319219 
L 200.91405 170.666419 
L 193.77165 170.666419 
L 186.62925 164.013619 
L 186.62925 157.360819 
L 179.48685 157.360819 
L 172.34445 150.708019 
L 172.34445 144.055219 
L 165.20205 144.055219 
L 158.05965 137.402419 
L 158.05965 130.749619 
L 150.91725 130.749619 
L 143.77485 124.096819 
L 136.63245 117.444019 
L 129.49005 110.791219 
L 122.34765 104.138419 
L 115.20525 97.485619 
L 108.06285 90.832819 
L 100.92045 84.180019 
L 100.92045 77.527219 
L 93.77805 77.527219 
L 86.63565 70.874419 
L 79.49325 64.221619 
L 72.35085 57.568819 
L 65.20845 50.916019 
L 58.06605 44.263219 
L 58.06605 37.610419 
L 55.903321 37.610419 
L 55.903321 44.263219 
L 55.903321 50.916019 
L 55.903321 57.568819 
L 55.903321 64.221619 
L 58.06605 66.236096 
L 63.045721 70.874419 
L 65.20845 72.888896 
L 70.188121 77.527219 
L 70.188121 84.180019 
L 70.188121 90.832819 
L 70.188121 97.485619 
L 70.188121 104.138419 
L 72.35085 106.152896 
L 77.330521 110.791219 
L 79.49325 112.805696 
L 84.472921 117.444019 
L 84.181512 124.096819 
L 84.181512 130.749619 
L 84.181512 137.402419 
L 84.181512 144.055219 
L 86.63565 146.341129 
L 91.323912 150.708019 
L 93.77805 152.993929 
L 98.466312 157.360819 
L 98.466312 164.013619 
L 98.466312 170.666419 
L 98.466312 177.319219 
L 98.466312 183.972019 
L 100.92045 186.257929 
L 108.06285 186.257929 
L 112.751112 190.624819 
L 112.751112 197.277619 
L 112.751112 203.930419 
L 112.751112 210.583219 
L 111.844332 217.236019 
L 111.41833 223.888819 
L 108.06285 224.953549 
L 100.92045 227.219911 
L 97.344212 223.888819 
L 93.77805 220.567111 
L 90.201812 217.236019 
L 86.63565 213.914311 
L 79.49325 213.914311 
L 72.35085 213.914311 
L 65.20845 213.914311 
L 58.06605 213.914311 
L 54.489812 210.583219 
L 54.489812 203.930419 
L 50.92365 200.608711 
L 43.78125 200.608711 
L 43.78125 202.252461 
L 50.92365 202.252461 
L 52.725093 203.930419 
L 52.725093 210.583219 
L 58.06605 215.558061 
L 65.20845 215.558061 
L 72.35085 215.558061 
L 79.49325 215.558061 
L 86.63565 215.558061 
L 88.437093 217.236019 
L 93.77805 222.210861 
L 95.579493 223.888819 
L 100.92045 228.863661 
L 108.06285 226.5973 
L 115.20525 224.40018 
L 122.34765 224.695484 
L 128.62402 230.541619 
L 128.941056 237.194419 
L 129.49005 237.70578 
L 136.63245 237.966799 
L 143.77485 238.249552 
L 150.91725 238.249552 
L 158.05965 238.249552 
L 165.20205 238.249552 
L 171.211666 243.847219 
L 171.211666 250.500019 
L 172.34445 251.555152 
L 179.48685 251.555152 
L 186.62925 251.555152 
L 193.77165 251.555152 
L 199.781266 257.152819 
L 199.781266 263.805619 
L 200.91405 264.860752 
L 208.05645 264.860752 
L 215.19885 264.860752 
L 222.34125 264.66558 
L 229.48365 264.66558 
L 236.62605 265.366644 
L 241.571408 270.458419 
L 241.571408 277.111219 
L 243.012405 277.111219 
z
" clip-path="url(#p00efc674cf)" style="fill: #fcb69b"/>
    <path d="M 241.571408 270.458419 
L 236.62605 265.366644 
L 229.48365 264.66558 
L 222.34125 264.66558 
L 215.19885 264.860752 
L 208.05645 264.860752 
L 200.91405 264.860752 
L 199.781266 263.805619 
L 199.781266 257.152819 
L 193.77165 251.555152 
L 186.62925 251.555152 
L 179.48685 251.555152 
L 172.34445 251.555152 
L 171.211666 250.500019 
L 171.211666 243.847219 
L 165.20205 238.249552 
L 158.05965 238.249552 
L 150.91725 238.249552 
L 143.77485 238.249552 
L 136.63245 237.966799 
L 129.49005 237.70578 
L 128.941056 237.194419 
L 128.62402 230.541619 
L 122.34765 224.695484 
L 115.20525 224.40018 
L 108.06285 226.5973 
L 100.92045 228.863661 
L 95.579493 223.888819 
L 93.77805 222.210861 
L 88.437093 217.236019 
L 86.63565 215.558061 
L 79.49325 215.558061 
L 72.35085 215.558061 
L 65.20845 215.558061 
L 58.06605 215.558061 
L 52.725093 210.583219 
L 52.725093 203.930419 
L 50.92365 202.252461 
L 43.78125 202.252461 
L 43.78125 203.896212 
L 50.92365 203.896212 
L 50.960374 203.930419 
L 50.960374 210.583219 
L 58.06605 217.201812 
L 65.20845 217.201812 
L 72.35085 217.201812 
L 79.49325 217.201812 
L 86.63565 217.201812 
L 86.672374 217.236019 
L 93.77805 223.854612 
L 93.814774 223.888819 
L 100.92045 230.507412 
L 108.06285 228.24105 
L 115.20525 226.301367 
L 122.34765 226.59667 
L 126.58292 230.541619 
L 126.899955 237.194419 
L 129.49005 239.606967 
L 136.63245 239.787183 
L 143.77485 240.069935 
L 150.91725 240.069935 
L 158.05965 240.069935 
L 165.20205 240.069935 
L 169.257315 243.847219 
L 169.257315 250.500019 
L 172.34445 253.375535 
L 179.48685 253.375535 
L 186.62925 253.375535 
L 193.77165 253.375535 
L 197.826915 257.152819 
L 197.826915 263.805619 
L 200.91405 266.681135 
L 208.05645 266.681135 
L 215.19885 266.681135 
L 222.34125 266.149241 
L 229.48365 266.149241 
L 236.62605 266.850305 
L 240.130411 270.458419 
L 240.130411 277.111219 
L 241.571408 277.111219 
z
" clip-path="url(#p00efc674cf)" style="fill: #fc9c7d"/>
    <path d="M 240.130411 270.458419 
L 236.62605 266.850305 
L 229.48365 266.149241 
L 222.34125 266.149241 
L 215.19885 266.681135 
L 208.05645 266.681135 
L 200.91405 266.681135 
L 197.826915 263.805619 
L 197.826915 257.152819 
L 193.77165 253.375535 
L 186.62925 253.375535 
L 179.48685 253.375535 
L 172.34445 253.375535 
L 169.257315 250.500019 
L 169.257315 243.847219 
L 165.20205 240.069935 
L 158.05965 240.069935 
L 150.91725 240.069935 
L 143.77485 240.069935 
L 136.63245 239.787183 
L 129.49005 239.606967 
L 126.899955 237.194419 
L 126.58292 230.541619 
L 122.34765 226.59667 
L 115.20525 226.301367 
L 108.06285 228.24105 
L 100.92045 230.507412 
L 93.814774 223.888819 
L 93.77805 223.854612 
L 86.672374 217.236019 
L 86.63565 217.201812 
L 79.49325 217.201812 
L 72.35085 217.201812 
L 65.20845 217.201812 
L 58.06605 217.201812 
L 50.960374 210.583219 
L 50.960374 203.930419 
L 50.92365 203.896212 
L 43.78125 203.896212 
L 43.78125 203.930419 
L 43.78125 205.539962 
L 49.195655 210.583219 
L 49.195655 217.236019 
L 50.92365 218.845562 
L 58.06605 218.845562 
L 65.20845 218.845562 
L 72.35085 218.845562 
L 79.49325 218.845562 
L 86.63565 218.845562 
L 92.050055 223.888819 
L 93.77805 225.498362 
L 99.192455 230.541619 
L 100.92045 232.151162 
L 105.992899 230.541619 
L 108.06285 229.884801 
L 115.20525 228.202553 
L 122.34765 228.497856 
L 124.541819 230.541619 
L 124.858855 237.194419 
L 129.49005 241.508153 
L 136.63245 241.607566 
L 143.77485 241.890319 
L 150.91725 241.890319 
L 158.05965 241.890319 
L 165.20205 241.890319 
L 167.302964 243.847219 
L 167.302964 250.500019 
L 172.34445 255.195919 
L 179.48685 255.195919 
L 186.62925 255.195919 
L 193.77165 255.195919 
L 195.872564 257.152819 
L 195.872564 263.805619 
L 200.91405 268.501519 
L 208.05645 268.501519 
L 215.19885 268.501519 
L 222.34125 267.632902 
L 229.48365 267.632902 
L 236.62605 268.333966 
L 238.689413 270.458419 
L 238.689413 277.111219 
L 240.130411 277.111219 
z
" clip-path="url(#p00efc674cf)" style="fill: #fc8262"/>
    <path d="M 238.689413 270.458419 
L 236.62605 268.333966 
L 229.48365 267.632902 
L 222.34125 267.632902 
L 215.19885 268.501519 
L 208.05645 268.501519 
L 200.91405 268.501519 
L 195.872564 263.805619 
L 195.872564 257.152819 
L 193.77165 255.195919 
L 186.62925 255.195919 
L 179.48685 255.195919 
L 172.34445 255.195919 
L 167.302964 250.500019 
L 167.302964 243.847219 
L 165.20205 241.890319 
L 158.05965 241.890319 
L 150.91725 241.890319 
L 143.77485 241.890319 
L 136.63245 241.607566 
L 129.49005 241.508153 
L 124.858855 237.194419 
L 124.541819 230.541619 
L 122.34765 228.497856 
L 115.20525 228.202553 
L 108.06285 229.884801 
L 105.992899 230.541619 
L 100.92045 232.151162 
L 99.192455 230.541619 
L 93.77805 225.498362 
L 92.050055 223.888819 
L 86.63565 218.845562 
L 79.49325 218.845562 
L 72.35085 218.845562 
L 65.20845 218.845562 
L 58.06605 218.845562 
L 50.92365 218.845562 
L 49.195655 217.236019 
L 49.195655 210.583219 
L 43.78125 205.539962 
L 43.78125 207.183713 
L 47.430936 210.583219 
L 47.430936 217.236019 
L 50.92365 220.489313 
L 58.06605 220.489313 
L 65.20845 220.489313 
L 72.35085 220.489313 
L 79.49325 220.489313 
L 86.63565 220.489313 
L 90.285336 223.888819 
L 93.77805 227.142113 
L 97.427736 230.541619 
L 100.92045 233.794913 
L 108.06285 231.683119 
L 113.225036 230.541619 
L 115.20525 230.103739 
L 122.34765 230.399043 
L 122.500719 230.541619 
L 122.817754 237.194419 
L 122.34765 239.038892 
L 121.122143 243.847219 
L 122.34765 244.988719 
L 127.509836 243.847219 
L 129.49005 243.409339 
L 136.63245 243.42795 
L 143.77485 243.710702 
L 150.91725 243.710702 
L 158.05965 243.710702 
L 165.20205 243.710702 
L 165.348613 243.847219 
L 165.348613 250.500019 
L 172.34445 257.016302 
L 179.48685 257.016302 
L 186.62925 257.016302 
L 193.77165 257.016302 
L 193.918213 257.152819 
L 193.918213 263.805619 
L 200.91405 270.321902 
L 208.05645 270.321902 
L 215.19885 270.321902 
L 222.34125 269.116562 
L 229.48365 269.116562 
L 236.62605 269.817626 
L 237.248416 270.458419 
L 237.248416 277.111219 
L 238.689413 277.111219 
z
" clip-path="url(#p00efc674cf)" style="fill: #fb694a"/>
    <path d="M 200.91405 272.142286 
L 208.05645 272.142286 
L 215.19885 272.142286 
L 222.34125 270.632406 
L 229.48365 270.600223 
L 235.807419 277.111219 
L 236.62605 277.111219 
L 237.248416 277.111219 
L 237.248416 270.458419 
L 236.62605 269.817626 
L 229.48365 269.116562 
L 222.34125 269.116562 
L 215.19885 270.321902 
L 208.05645 270.321902 
L 200.91405 270.321902 
L 193.918213 263.805619 
L 193.918213 257.152819 
L 193.77165 257.016302 
L 186.62925 257.016302 
L 179.48685 257.016302 
L 172.34445 257.016302 
L 165.348613 250.500019 
L 165.348613 243.847219 
L 165.20205 243.710702 
L 158.05965 243.710702 
L 150.91725 243.710702 
L 143.77485 243.710702 
L 136.63245 243.42795 
L 129.49005 243.409339 
L 127.509836 243.847219 
L 122.34765 244.988719 
L 121.122143 243.847219 
L 122.34765 239.038892 
L 122.817754 237.194419 
L 122.500719 230.541619 
L 122.34765 230.399043 
L 115.20525 230.103739 
L 113.225036 230.541619 
L 108.06285 231.683119 
L 100.92045 233.794913 
L 97.427736 230.541619 
L 93.77805 227.142113 
L 90.285336 223.888819 
L 86.63565 220.489313 
L 79.49325 220.489313 
L 72.35085 220.489313 
L 65.20845 220.489313 
L 58.06605 220.489313 
L 50.92365 220.489313 
L 47.430936 217.236019 
L 47.430936 210.583219 
L 43.78125 207.183713 
L 43.78125 208.827463 
L 45.666217 210.583219 
L 45.666217 217.236019 
L 50.92365 222.133063 
L 58.06605 222.133063 
L 65.20845 222.133063 
L 72.35085 222.133063 
L 79.49325 222.133063 
L 86.63565 222.133063 
L 88.520617 223.888819 
L 93.77805 228.785863 
L 95.663017 230.541619 
L 100.92045 235.438663 
L 108.06285 233.584306 
L 115.20525 232.004926 
L 120.776654 237.194419 
L 119.081042 243.847219 
L 122.34765 246.889906 
L 129.49005 245.310526 
L 136.63245 245.310526 
L 143.77485 245.531086 
L 150.91725 245.531086 
L 158.05965 245.531086 
L 163.394262 250.500019 
L 165.20205 252.183886 
L 170.536662 257.152819 
L 172.34445 258.836686 
L 179.48685 258.836686 
L 186.62925 258.836686 
L 191.963862 263.805619 
L 193.77165 265.489486 
L 199.106262 270.458419 
z
" clip-path="url(#p00efc674cf)" style="fill: #f44d38"/>
    <path d="M 200.91405 273.962669 
L 208.05645 273.962669 
L 215.19885 273.962669 
L 222.34125 272.452789 
L 229.48365 272.083884 
L 234.366422 277.111219 
L 235.807419 277.111219 
L 229.48365 270.600223 
L 222.34125 270.632406 
L 215.19885 272.142286 
L 208.05645 272.142286 
L 200.91405 272.142286 
L 199.106262 270.458419 
L 193.77165 265.489486 
L 191.963862 263.805619 
L 186.62925 258.836686 
L 179.48685 258.836686 
L 172.34445 258.836686 
L 170.536662 257.152819 
L 165.20205 252.183886 
L 163.394262 250.500019 
L 158.05965 245.531086 
L 150.91725 245.531086 
L 143.77485 245.531086 
L 136.63245 245.310526 
L 129.49005 245.310526 
L 122.34765 246.889906 
L 119.081042 243.847219 
L 120.776654 237.194419 
L 115.20525 232.004926 
L 108.06285 233.584306 
L 100.92045 235.438663 
L 95.663017 230.541619 
L 93.77805 228.785863 
L 88.520617 223.888819 
L 86.63565 222.133063 
L 79.49325 222.133063 
L 72.35085 222.133063 
L 65.20845 222.133063 
L 58.06605 222.133063 
L 50.92365 222.133063 
L 45.666217 217.236019 
L 45.666217 210.583219 
L 43.78125 208.827463 
L 43.78125 210.471214 
L 43.901498 210.583219 
L 43.901498 217.236019 
L 50.92365 223.776814 
L 58.06605 223.776814 
L 65.20845 223.776814 
L 72.35085 223.776814 
L 79.49325 223.776814 
L 86.63565 223.776814 
L 86.755898 223.888819 
L 93.77805 230.429614 
L 93.898298 230.541619 
L 100.92045 237.082414 
L 108.06285 235.485492 
L 115.20525 233.906112 
L 118.735553 237.194419 
L 117.039942 243.847219 
L 122.34765 248.791092 
L 129.49005 247.211712 
L 136.63245 247.211712 
L 143.77485 247.351469 
L 150.91725 247.351469 
L 158.05965 247.351469 
L 161.439911 250.500019 
L 165.20205 254.004269 
L 168.582311 257.152819 
L 172.34445 260.657069 
L 179.48685 260.657069 
L 186.62925 260.657069 
L 190.009511 263.805619 
L 193.77165 267.309869 
L 197.151911 270.458419 
z
" clip-path="url(#p00efc674cf)" style="fill: #e63328"/>
    <path d="M 50.92365 277.111219 
L 58.06605 277.111219 
L 65.20845 277.111219 
L 72.35085 277.111219 
L 79.49325 277.111219 
L 86.63565 277.111219 
L 93.77805 277.111219 
L 100.92045 277.111219 
L 108.06285 277.111219 
L 115.20525 277.111219 
L 122.34765 277.111219 
L 129.49005 277.111219 
L 136.63245 277.111219 
L 137.501902 277.111219 
L 137.501902 270.458419 
L 136.63245 269.648566 
L 129.49005 269.648566 
L 123.217102 263.805619 
L 123.217102 257.152819 
L 123.217102 250.500019 
L 129.49005 249.112898 
L 136.63245 249.112898 
L 143.77485 249.171853 
L 150.91725 249.171853 
L 158.05965 249.171853 
L 159.48556 250.500019 
L 165.20205 255.824653 
L 166.62796 257.152819 
L 172.34445 262.477453 
L 179.48685 262.477453 
L 186.62925 262.477453 
L 188.05516 263.805619 
L 193.77165 269.130253 
L 195.19756 270.458419 
L 200.91405 275.783053 
L 208.05645 275.783053 
L 215.19885 275.783053 
L 222.34125 274.273173 
L 229.48365 273.567544 
L 232.925424 277.111219 
L 234.366422 277.111219 
L 229.48365 272.083884 
L 222.34125 272.452789 
L 215.19885 273.962669 
L 208.05645 273.962669 
L 200.91405 273.962669 
L 197.151911 270.458419 
L 193.77165 267.309869 
L 190.009511 263.805619 
L 186.62925 260.657069 
L 179.48685 260.657069 
L 172.34445 260.657069 
L 168.582311 257.152819 
L 165.20205 254.004269 
L 161.439911 250.500019 
L 158.05965 247.351469 
L 150.91725 247.351469 
L 143.77485 247.351469 
L 136.63245 247.211712 
L 129.49005 247.211712 
L 122.34765 248.791092 
L 117.039942 243.847219 
L 118.735553 237.194419 
L 115.20525 233.906112 
L 108.06285 235.485492 
L 100.92045 237.082414 
L 93.898298 230.541619 
L 93.77805 230.429614 
L 86.755898 223.888819 
L 86.63565 223.776814 
L 79.49325 223.776814 
L 72.35085 223.776814 
L 65.20845 223.776814 
L 58.06605 223.776814 
L 50.92365 223.776814 
L 43.901498 217.236019 
L 43.901498 210.583219 
L 43.78125 210.471214 
L 43.78125 210.583219 
L 43.78125 217.236019 
L 43.78125 223.888819 
L 43.78125 230.541619 
L 43.78125 237.194419 
L 43.78125 243.847219 
L 43.78125 250.500019 
L 43.78125 257.152819 
L 43.78125 263.805619 
L 43.78125 270.458419 
L 43.78125 277.111219 
z
M 108.932302 237.194419 
L 115.20525 235.807298 
L 116.694453 237.194419 
L 115.20525 243.037366 
z
" clip-path="url(#p00efc674cf)" style="fill: #d01d1f"/>
    <path d="M 143.77485 277.111219 
L 150.91725 277.111219 
L 158.05965 277.111219 
L 165.20205 277.111219 
L 172.34445 277.111219 
L 179.48685 277.111219 
L 186.62925 277.111219 
L 193.77165 277.111219 
L 200.91405 277.111219 
L 208.05645 277.111219 
L 215.19885 277.111219 
L 217.527256 277.111219 
L 222.34125 276.093556 
L 229.48365 275.051205 
L 231.484427 277.111219 
L 232.925424 277.111219 
L 229.48365 273.567544 
L 222.34125 274.273173 
L 215.19885 275.783053 
L 208.05645 275.783053 
L 200.91405 275.783053 
L 195.19756 270.458419 
L 193.77165 269.130253 
L 188.05516 263.805619 
L 186.62925 262.477453 
L 179.48685 262.477453 
L 172.34445 262.477453 
L 166.62796 257.152819 
L 165.20205 255.824653 
L 159.48556 250.500019 
L 158.05965 249.171853 
L 150.91725 249.171853 
L 143.77485 249.171853 
L 136.63245 249.112898 
L 129.49005 249.112898 
L 123.217102 250.500019 
L 123.217102 257.152819 
L 123.217102 263.805619 
L 129.49005 269.648566 
L 136.63245 269.648566 
L 137.501902 270.458419 
L 137.501902 277.111219 
z
M 115.20525 243.037366 
L 116.694453 237.194419 
L 115.20525 235.807298 
L 108.932302 237.194419 
z
" clip-path="url(#p00efc674cf)" style="fill: #b91419"/>
    <path d="M 222.34125 277.111219 
L 226.138475 277.111219 
L 229.48365 276.534866 
L 230.04343 277.111219 
L 231.484427 277.111219 
L 229.48365 275.051205 
L 222.34125 276.093556 
L 217.527256 277.111219 
z
" clip-path="url(#p00efc674cf)" style="fill: #9f0e14"/>
    <path d="M 229.48365 277.111219 
L 230.04343 277.111219 
L 229.48365 276.534866 
L 226.138475 277.111219 
z
" clip-path="url(#p00efc674cf)" style="fill: #79040f"/>
   </g>
   <g id="matplotlib.axis_1">
    <g id="xtick_1">
     <g id="line2d_1">
      <defs>
       <path id="m6977f0bc9d" d="M 0 0 
L 0 3.5 
" style="stroke: #000000; stroke-width: 0.8"/>
      </defs>
      <g>
       <use xlink:href="#m6977f0bc9d" x="43.78125" y="277.111219" style="stroke: #000000; stroke-width: 0.8"/>
      </g>
     </g>
     <g id="text_1">
      <!-- 0.0 -->
      <g transform="translate(35.829688 291.709656) scale(0.1 -0.1)">
       <defs>
        <path id="DejaVuSans-30" d="M 2034 4250 
Q 1547 4250 1301 3770 
Q 1056 3291 1056 2328 
Q 1056 1369 1301 889 
Q 1547 409 2034 409 
Q 2525 409 2770 889 
Q 3016 1369 3016 2328 
Q 3016 3291 2770 3770 
Q 2525 4250 2034 4250 
z
M 2034 4750 
Q 2819 4750 3233 4129 
Q 3647 3509 3647 2328 
Q 3647 1150 3233 529 
Q 2819 -91 2034 -91 
Q 1250 -91 836 529 
Q 422 1150 422 2328 
Q 422 3509 836 4129 
Q 1250 4750 2034 4750 
z
" transform="scale(0.015625)"/>
        <path id="DejaVuSans-2e" d="M 684 794 
L 1344 794 
L 1344 0 
L 684 0 
L 684 794 
z
" transform="scale(0.015625)"/>
       </defs>
       <use xlink:href="#DejaVuSans-30"/>
       <use xlink:href="#DejaVuSans-2e" x="63.623047"/>
       <use xlink:href="#DejaVuSans-30" x="95.410156"/>
      </g>
     </g>
    </g>
    <g id="xtick_2">
     <g id="line2d_2">
      <g>
       <use xlink:href="#m6977f0bc9d" x="100.92045" y="277.111219" style="stroke: #000000; stroke-width: 0.8"/>
      </g>
     </g>
     <g id="text_2">
      <!-- 0.2 -->
      <g transform="translate(92.968888 291.709656) scale(0.1 -0.1)">
       <defs>
        <path id="DejaVuSans-32" d="M 1228 531 
L 3431 531 
L 3431 0 
L 469 0 
L 469 531 
Q 828 903 1448 1529 
Q 2069 2156 2228 2338 
Q 2531 2678 2651 2914 
Q 2772 3150 2772 3378 
Q 2772 3750 2511 3984 
Q 2250 4219 1831 4219 
Q 1534 4219 1204 4116 
Q 875 4013 500 3803 
L 500 4441 
Q 881 4594 1212 4672 
Q 1544 4750 1819 4750 
Q 2544 4750 2975 4387 
Q 3406 4025 3406 3419 
Q 3406 3131 3298 2873 
Q 3191 2616 2906 2266 
Q 2828 2175 2409 1742 
Q 1991 1309 1228 531 
z
" transform="scale(0.015625)"/>
       </defs>
       <use xlink:href="#DejaVuSans-30"/>
       <use xlink:href="#DejaVuSans-2e" x="63.623047"/>
       <use xlink:href="#DejaVuSans-32" x="95.410156"/>
      </g>
     </g>
    </g>
    <g id="xtick_3">
     <g id="line2d_3">
      <g>
       <use xlink:href="#m6977f0bc9d" x="158.05965" y="277.111219" style="stroke: #000000; stroke-width: 0.8"/>
      </g>
     </g>
     <g id="text_3">
      <!-- 0.4 -->
      <g transform="translate(150.108088 291.709656) scale(0.1 -0.1)">
       <defs>
        <path id="DejaVuSans-34" d="M 2419 4116 
L 825 1625 
L 2419 1625 
L 2419 4116 
z
M 2253 4666 
L 3047 4666 
L 3047 1625 
L 3713 1625 
L 3713 1100 
L 3047 1100 
L 3047 0 
L 2419 0 
L 2419 1100 
L 313 1100 
L 313 1709 
L 2253 4666 
z
" transform="scale(0.015625)"/>
       </defs>
       <use xlink:href="#DejaVuSans-30"/>
       <use xlink:href="#DejaVuSans-2e" x="63.623047"/>
       <use xlink:href="#DejaVuSans-34" x="95.410156"/>
      </g>
     </g>
    </g>
    <g id="xtick_4">
     <g id="line2d_4">
      <g>
       <use xlink:href="#m6977f0bc9d" x="215.19885" y="277.111219" style="stroke: #000000; stroke-width: 0.8"/>
      </g>
     </g>
     <g id="text_4">
      <!-- 0.6 -->
      <g transform="translate(207.247288 291.709656) scale(0.1 -0.1)">
       <defs>
        <path id="DejaVuSans-36" d="M 2113 2584 
Q 1688 2584 1439 2293 
Q 1191 2003 1191 1497 
Q 1191 994 1439 701 
Q 1688 409 2113 409 
Q 2538 409 2786 701 
Q 3034 994 3034 1497 
Q 3034 2003 2786 2293 
Q 2538 2584 2113 2584 
z
M 3366 4563 
L 3366 3988 
Q 3128 4100 2886 4159 
Q 2644 4219 2406 4219 
Q 1781 4219 1451 3797 
Q 1122 3375 1075 2522 
Q 1259 2794 1537 2939 
Q 1816 3084 2150 3084 
Q 2853 3084 3261 2657 
Q 3669 2231 3669 1497 
Q 3669 778 3244 343 
Q 2819 -91 2113 -91 
Q 1303 -91 875 529 
Q 447 1150 447 2328 
Q 447 3434 972 4092 
Q 1497 4750 2381 4750 
Q 2619 4750 2861 4703 
Q 3103 4656 3366 4563 
z
" transform="scale(0.015625)"/>
       </defs>
       <use xlink:href="#DejaVuSans-30"/>
       <use xlink:href="#DejaVuSans-2e" x="63.623047"/>
       <use xlink:href="#DejaVuSans-36" x="95.410156"/>
      </g>
     </g>
    </g>
    <g id="xtick_5">
     <g id="line2d_5">
      <g>
       <use xlink:href="#m6977f0bc9d" x="272.33805" y="277.111219" style="stroke: #000000; stroke-width: 0.8"/>
      </g>
     </g>
     <g id="text_5">
      <!-- 0.8 -->
      <g transform="translate(264.386488 291.709656) scale(0.1 -0.1)">
       <defs>
        <path id="DejaVuSans-38" d="M 2034 2216 
Q 1584 2216 1326 1975 
Q 1069 1734 1069 1313 
Q 1069 891 1326 650 
Q 1584 409 2034 409 
Q 2484 409 2743 651 
Q 3003 894 3003 1313 
Q 3003 1734 2745 1975 
Q 2488 2216 2034 2216 
z
M 1403 2484 
Q 997 2584 770 2862 
Q 544 3141 544 3541 
Q 544 4100 942 4425 
Q 1341 4750 2034 4750 
Q 2731 4750 3128 4425 
Q 3525 4100 3525 3541 
Q 3525 3141 3298 2862 
Q 3072 2584 2669 2484 
Q 3125 2378 3379 2068 
Q 3634 1759 3634 1313 
Q 3634 634 3220 271 
Q 2806 -91 2034 -91 
Q 1263 -91 848 271 
Q 434 634 434 1313 
Q 434 1759 690 2068 
Q 947 2378 1403 2484 
z
M 1172 3481 
Q 1172 3119 1398 2916 
Q 1625 2713 2034 2713 
Q 2441 2713 2670 2916 
Q 2900 3119 2900 3481 
Q 2900 3844 2670 4047 
Q 2441 4250 2034 4250 
Q 1625 4250 1398 4047 
Q 1172 3844 1172 3481 
z
" transform="scale(0.015625)"/>
       </defs>
       <use xlink:href="#DejaVuSans-30"/>
       <use xlink:href="#DejaVuSans-2e" x="63.623047"/>
       <use xlink:href="#DejaVuSans-38" x="95.410156"/>
      </g>
     </g>
    </g>
    <g id="xtick_6">
     <g id="line2d_6">
      <g>
       <use xlink:href="#m6977f0bc9d" x="329.47725" y="277.111219" style="stroke: #000000; stroke-width: 0.8"/>
      </g>
     </g>
     <g id="text_6">
      <!-- 1.0 -->
      <g transform="translate(321.525688 291.709656) scale(0.1 -0.1)">
       <defs>
        <path id="DejaVuSans-31" d="M 794 531 
L 1825 531 
L 1825 4091 
L 703 3866 
L 703 4441 
L 1819 4666 
L 2450 4666 
L 2450 531 
L 3481 531 
L 3481 0 
L 794 0 
L 794 531 
z
" transform="scale(0.015625)"/>
       </defs>
       <use xlink:href="#DejaVuSans-31"/>
       <use xlink:href="#DejaVuSans-2e" x="63.623047"/>
       <use xlink:href="#DejaVuSans-30" x="95.410156"/>
      </g>
     </g>
    </g>
    <g id="text_7">
     <!-- Equity in Vaccination Burden Multiplier (a) -->
     <g transform="translate(81.262844 305.387781) scale(0.1 -0.1)">
      <defs>
       <path id="DejaVuSans-45" d="M 628 4666 
L 3578 4666 
L 3578 4134 
L 1259 4134 
L 1259 2753 
L 3481 2753 
L 3481 2222 
L 1259 2222 
L 1259 531 
L 3634 531 
L 3634 0 
L 628 0 
L 628 4666 
z
" transform="scale(0.015625)"/>
       <path id="DejaVuSans-71" d="M 947 1747 
Q 947 1113 1208 752 
Q 1469 391 1925 391 
Q 2381 391 2643 752 
Q 2906 1113 2906 1747 
Q 2906 2381 2643 2742 
Q 2381 3103 1925 3103 
Q 1469 3103 1208 2742 
Q 947 2381 947 1747 
z
M 2906 525 
Q 2725 213 2448 61 
Q 2172 -91 1784 -91 
Q 1150 -91 751 415 
Q 353 922 353 1747 
Q 353 2572 751 3078 
Q 1150 3584 1784 3584 
Q 2172 3584 2448 3432 
Q 2725 3281 2906 2969 
L 2906 3500 
L 3481 3500 
L 3481 -1331 
L 2906 -1331 
L 2906 525 
z
" transform="scale(0.015625)"/>
       <path id="DejaVuSans-75" d="M 544 1381 
L 544 3500 
L 1119 3500 
L 1119 1403 
Q 1119 906 1312 657 
Q 1506 409 1894 409 
Q 2359 409 2629 706 
Q 2900 1003 2900 1516 
L 2900 3500 
L 3475 3500 
L 3475 0 
L 2900 0 
L 2900 538 
Q 2691 219 2414 64 
Q 2138 -91 1772 -91 
Q 1169 -91 856 284 
Q 544 659 544 1381 
z
M 1991 3584 
L 1991 3584 
z
" transform="scale(0.015625)"/>
       <path id="DejaVuSans-69" d="M 603 3500 
L 1178 3500 
L 1178 0 
L 603 0 
L 603 3500 
z
M 603 4863 
L 1178 4863 
L 1178 4134 
L 603 4134 
L 603 4863 
z
" transform="scale(0.015625)"/>
       <path id="DejaVuSans-74" d="M 1172 4494 
L 1172 3500 
L 2356 3500 
L 2356 3053 
L 1172 3053 
L 1172 1153 
Q 1172 725 1289 603 
Q 1406 481 1766 481 
L 2356 481 
L 2356 0 
L 1766 0 
Q 1100 0 847 248 
Q 594 497 594 1153 
L 594 3053 
L 172 3053 
L 172 3500 
L 594 3500 
L 594 4494 
L 1172 4494 
z
" transform="scale(0.015625)"/>
       <path id="DejaVuSans-79" d="M 2059 -325 
Q 1816 -950 1584 -1140 
Q 1353 -1331 966 -1331 
L 506 -1331 
L 506 -850 
L 844 -850 
Q 1081 -850 1212 -737 
Q 1344 -625 1503 -206 
L 1606 56 
L 191 3500 
L 800 3500 
L 1894 763 
L 2988 3500 
L 3597 3500 
L 2059 -325 
z
" transform="scale(0.015625)"/>
       <path id="DejaVuSans-20" transform="scale(0.015625)"/>
       <path id="DejaVuSans-6e" d="M 3513 2113 
L 3513 0 
L 2938 0 
L 2938 2094 
Q 2938 2591 2744 2837 
Q 2550 3084 2163 3084 
Q 1697 3084 1428 2787 
Q 1159 2491 1159 1978 
L 1159 0 
L 581 0 
L 581 3500 
L 1159 3500 
L 1159 2956 
Q 1366 3272 1645 3428 
Q 1925 3584 2291 3584 
Q 2894 3584 3203 3211 
Q 3513 2838 3513 2113 
z
" transform="scale(0.015625)"/>
       <path id="DejaVuSans-56" d="M 1831 0 
L 50 4666 
L 709 4666 
L 2188 738 
L 3669 4666 
L 4325 4666 
L 2547 0 
L 1831 0 
z
" transform="scale(0.015625)"/>
       <path id="DejaVuSans-61" d="M 2194 1759 
Q 1497 1759 1228 1600 
Q 959 1441 959 1056 
Q 959 750 1161 570 
Q 1363 391 1709 391 
Q 2188 391 2477 730 
Q 2766 1069 2766 1631 
L 2766 1759 
L 2194 1759 
z
M 3341 1997 
L 3341 0 
L 2766 0 
L 2766 531 
Q 2569 213 2275 61 
Q 1981 -91 1556 -91 
Q 1019 -91 701 211 
Q 384 513 384 1019 
Q 384 1609 779 1909 
Q 1175 2209 1959 2209 
L 2766 2209 
L 2766 2266 
Q 2766 2663 2505 2880 
Q 2244 3097 1772 3097 
Q 1472 3097 1187 3025 
Q 903 2953 641 2809 
L 641 3341 
Q 956 3463 1253 3523 
Q 1550 3584 1831 3584 
Q 2591 3584 2966 3190 
Q 3341 2797 3341 1997 
z
" transform="scale(0.015625)"/>
       <path id="DejaVuSans-63" d="M 3122 3366 
L 3122 2828 
Q 2878 2963 2633 3030 
Q 2388 3097 2138 3097 
Q 1578 3097 1268 2742 
Q 959 2388 959 1747 
Q 959 1106 1268 751 
Q 1578 397 2138 397 
Q 2388 397 2633 464 
Q 2878 531 3122 666 
L 3122 134 
Q 2881 22 2623 -34 
Q 2366 -91 2075 -91 
Q 1284 -91 818 406 
Q 353 903 353 1747 
Q 353 2603 823 3093 
Q 1294 3584 2113 3584 
Q 2378 3584 2631 3529 
Q 2884 3475 3122 3366 
z
" transform="scale(0.015625)"/>
       <path id="DejaVuSans-6f" d="M 1959 3097 
Q 1497 3097 1228 2736 
Q 959 2375 959 1747 
Q 959 1119 1226 758 
Q 1494 397 1959 397 
Q 2419 397 2687 759 
Q 2956 1122 2956 1747 
Q 2956 2369 2687 2733 
Q 2419 3097 1959 3097 
z
M 1959 3584 
Q 2709 3584 3137 3096 
Q 3566 2609 3566 1747 
Q 3566 888 3137 398 
Q 2709 -91 1959 -91 
Q 1206 -91 779 398 
Q 353 888 353 1747 
Q 353 2609 779 3096 
Q 1206 3584 1959 3584 
z
" transform="scale(0.015625)"/>
       <path id="DejaVuSans-42" d="M 1259 2228 
L 1259 519 
L 2272 519 
Q 2781 519 3026 730 
Q 3272 941 3272 1375 
Q 3272 1813 3026 2020 
Q 2781 2228 2272 2228 
L 1259 2228 
z
M 1259 4147 
L 1259 2741 
L 2194 2741 
Q 2656 2741 2882 2914 
Q 3109 3088 3109 3444 
Q 3109 3797 2882 3972 
Q 2656 4147 2194 4147 
L 1259 4147 
z
M 628 4666 
L 2241 4666 
Q 2963 4666 3353 4366 
Q 3744 4066 3744 3513 
Q 3744 3084 3544 2831 
Q 3344 2578 2956 2516 
Q 3422 2416 3680 2098 
Q 3938 1781 3938 1306 
Q 3938 681 3513 340 
Q 3088 0 2303 0 
L 628 0 
L 628 4666 
z
" transform="scale(0.015625)"/>
       <path id="DejaVuSans-72" d="M 2631 2963 
Q 2534 3019 2420 3045 
Q 2306 3072 2169 3072 
Q 1681 3072 1420 2755 
Q 1159 2438 1159 1844 
L 1159 0 
L 581 0 
L 581 3500 
L 1159 3500 
L 1159 2956 
Q 1341 3275 1631 3429 
Q 1922 3584 2338 3584 
Q 2397 3584 2469 3576 
Q 2541 3569 2628 3553 
L 2631 2963 
z
" transform="scale(0.015625)"/>
       <path id="DejaVuSans-64" d="M 2906 2969 
L 2906 4863 
L 3481 4863 
L 3481 0 
L 2906 0 
L 2906 525 
Q 2725 213 2448 61 
Q 2172 -91 1784 -91 
Q 1150 -91 751 415 
Q 353 922 353 1747 
Q 353 2572 751 3078 
Q 1150 3584 1784 3584 
Q 2172 3584 2448 3432 
Q 2725 3281 2906 2969 
z
M 947 1747 
Q 947 1113 1208 752 
Q 1469 391 1925 391 
Q 2381 391 2643 752 
Q 2906 1113 2906 1747 
Q 2906 2381 2643 2742 
Q 2381 3103 1925 3103 
Q 1469 3103 1208 2742 
Q 947 2381 947 1747 
z
" transform="scale(0.015625)"/>
       <path id="DejaVuSans-65" d="M 3597 1894 
L 3597 1613 
L 953 1613 
Q 991 1019 1311 708 
Q 1631 397 2203 397 
Q 2534 397 2845 478 
Q 3156 559 3463 722 
L 3463 178 
Q 3153 47 2828 -22 
Q 2503 -91 2169 -91 
Q 1331 -91 842 396 
Q 353 884 353 1716 
Q 353 2575 817 3079 
Q 1281 3584 2069 3584 
Q 2775 3584 3186 3129 
Q 3597 2675 3597 1894 
z
M 3022 2063 
Q 3016 2534 2758 2815 
Q 2500 3097 2075 3097 
Q 1594 3097 1305 2825 
Q 1016 2553 972 2059 
L 3022 2063 
z
" transform="scale(0.015625)"/>
       <path id="DejaVuSans-4d" d="M 628 4666 
L 1569 4666 
L 2759 1491 
L 3956 4666 
L 4897 4666 
L 4897 0 
L 4281 0 
L 4281 4097 
L 3078 897 
L 2444 897 
L 1241 4097 
L 1241 0 
L 628 0 
L 628 4666 
z
" transform="scale(0.015625)"/>
       <path id="DejaVuSans-6c" d="M 603 4863 
L 1178 4863 
L 1178 0 
L 603 0 
L 603 4863 
z
" transform="scale(0.015625)"/>
       <path id="DejaVuSans-70" d="M 1159 525 
L 1159 -1331 
L 581 -1331 
L 581 3500 
L 1159 3500 
L 1159 2969 
Q 1341 3281 1617 3432 
Q 1894 3584 2278 3584 
Q 2916 3584 3314 3078 
Q 3713 2572 3713 1747 
Q 3713 922 3314 415 
Q 2916 -91 2278 -91 
Q 1894 -91 1617 61 
Q 1341 213 1159 525 
z
M 3116 1747 
Q 3116 2381 2855 2742 
Q 2594 3103 2138 3103 
Q 1681 3103 1420 2742 
Q 1159 2381 1159 1747 
Q 1159 1113 1420 752 
Q 1681 391 2138 391 
Q 2594 391 2855 752 
Q 3116 1113 3116 1747 
z
" transform="scale(0.015625)"/>
       <path id="DejaVuSans-28" d="M 1984 4856 
Q 1566 4138 1362 3434 
Q 1159 2731 1159 2009 
Q 1159 1288 1364 580 
Q 1569 -128 1984 -844 
L 1484 -844 
Q 1016 -109 783 600 
Q 550 1309 550 2009 
Q 550 2706 781 3412 
Q 1013 4119 1484 4856 
L 1984 4856 
z
" transform="scale(0.015625)"/>
       <path id="DejaVuSans-29" d="M 513 4856 
L 1013 4856 
Q 1481 4119 1714 3412 
Q 1947 2706 1947 2009 
Q 1947 1309 1714 600 
Q 1481 -109 1013 -844 
L 513 -844 
Q 928 -128 1133 580 
Q 1338 1288 1338 2009 
Q 1338 2731 1133 3434 
Q 928 4138 513 4856 
z
" transform="scale(0.015625)"/>
      </defs>
      <use xlink:href="#DejaVuSans-45"/>
      <use xlink:href="#DejaVuSans-71" x="63.183594"/>
      <use xlink:href="#DejaVuSans-75" x="126.660156"/>
      <use xlink:href="#DejaVuSans-69" x="190.039062"/>
      <use xlink:href="#DejaVuSans-74" x="217.822266"/>
      <use xlink:href="#DejaVuSans-79" x="257.03125"/>
      <use xlink:href="#DejaVuSans-20" x="316.210938"/>
      <use xlink:href="#DejaVuSans-69" x="347.998047"/>
      <use xlink:href="#DejaVuSans-6e" x="375.78125"/>
      <use xlink:href="#DejaVuSans-20" x="439.160156"/>
      <use xlink:href="#DejaVuSans-56" x="470.947266"/>
      <use xlink:href="#DejaVuSans-61" x="531.605469"/>
      <use xlink:href="#DejaVuSans-63" x="592.884766"/>
      <use xlink:href="#DejaVuSans-63" x="647.865234"/>
      <use xlink:href="#DejaVuSans-69" x="702.845703"/>
      <use xlink:href="#DejaVuSans-6e" x="730.628906"/>
      <use xlink:href="#DejaVuSans-61" x="794.007812"/>
      <use xlink:href="#DejaVuSans-74" x="855.287109"/>
      <use xlink:href="#DejaVuSans-69" x="894.496094"/>
      <use xlink:href="#DejaVuSans-6f" x="922.279297"/>
      <use xlink:href="#DejaVuSans-6e" x="983.460938"/>
      <use xlink:href="#DejaVuSans-20" x="1046.839844"/>
      <use xlink:href="#DejaVuSans-42" x="1078.626953"/>
      <use xlink:href="#DejaVuSans-75" x="1147.230469"/>
      <use xlink:href="#DejaVuSans-72" x="1210.609375"/>
      <use xlink:href="#DejaVuSans-64" x="1249.972656"/>
      <use xlink:href="#DejaVuSans-65" x="1313.449219"/>
      <use xlink:href="#DejaVuSans-6e" x="1374.972656"/>
      <use xlink:href="#DejaVuSans-20" x="1438.351562"/>
      <use xlink:href="#DejaVuSans-4d" x="1470.138672"/>
      <use xlink:href="#DejaVuSans-75" x="1556.417969"/>
      <use xlink:href="#DejaVuSans-6c" x="1619.796875"/>
      <use xlink:href="#DejaVuSans-74" x="1647.580078"/>
      <use xlink:href="#DejaVuSans-69" x="1686.789062"/>
      <use xlink:href="#DejaVuSans-70" x="1714.572266"/>
      <use xlink:href="#DejaVuSans-6c" x="1778.048828"/>
      <use xlink:href="#DejaVuSans-69" x="1805.832031"/>
      <use xlink:href="#DejaVuSans-65" x="1833.615234"/>
      <use xlink:href="#DejaVuSans-72" x="1895.138672"/>
      <use xlink:href="#DejaVuSans-20" x="1936.251953"/>
      <use xlink:href="#DejaVuSans-28" x="1968.039062"/>
      <use xlink:href="#DejaVuSans-61" x="2007.052734"/>
      <use xlink:href="#DejaVuSans-29" x="2068.332031"/>
     </g>
    </g>
   </g>
   <g id="matplotlib.axis_2">
    <g id="ytick_1">
     <g id="line2d_7">
      <defs>
       <path id="mdba386e505" d="M 0 0 
L -3.5 0 
" style="stroke: #000000; stroke-width: 0.8"/>
      </defs>
      <g>
       <use xlink:href="#mdba386e505" x="43.78125" y="277.111219" style="stroke: #000000; stroke-width: 0.8"/>
      </g>
     </g>
     <g id="text_8">
      <!-- 0.0 -->
      <g transform="translate(20.878125 280.910437) scale(0.1 -0.1)">
       <use xlink:href="#DejaVuSans-30"/>
       <use xlink:href="#DejaVuSans-2e" x="63.623047"/>
       <use xlink:href="#DejaVuSans-30" x="95.410156"/>
      </g>
     </g>
    </g>
    <g id="ytick_2">
     <g id="line2d_8">
      <g>
       <use xlink:href="#mdba386e505" x="43.78125" y="223.888819" style="stroke: #000000; stroke-width: 0.8"/>
      </g>
     </g>
     <g id="text_9">
      <!-- 0.2 -->
      <g transform="translate(20.878125 227.688037) scale(0.1 -0.1)">
       <use xlink:href="#DejaVuSans-30"/>
       <use xlink:href="#DejaVuSans-2e" x="63.623047"/>
       <use xlink:href="#DejaVuSans-32" x="95.410156"/>
      </g>
     </g>
    </g>
    <g id="ytick_3">
     <g id="line2d_9">
      <g>
       <use xlink:href="#mdba386e505" x="43.78125" y="170.666419" style="stroke: #000000; stroke-width: 0.8"/>
      </g>
     </g>
     <g id="text_10">
      <!-- 0.4 -->
      <g transform="translate(20.878125 174.465637) scale(0.1 -0.1)">
       <use xlink:href="#DejaVuSans-30"/>
       <use xlink:href="#DejaVuSans-2e" x="63.623047"/>
       <use xlink:href="#DejaVuSans-34" x="95.410156"/>
      </g>
     </g>
    </g>
    <g id="ytick_4">
     <g id="line2d_10">
      <g>
       <use xlink:href="#mdba386e505" x="43.78125" y="117.444019" style="stroke: #000000; stroke-width: 0.8"/>
      </g>
     </g>
     <g id="text_11">
      <!-- 0.6 -->
      <g transform="translate(20.878125 121.243237) scale(0.1 -0.1)">
       <use xlink:href="#DejaVuSans-30"/>
       <use xlink:href="#DejaVuSans-2e" x="63.623047"/>
       <use xlink:href="#DejaVuSans-36" x="95.410156"/>
      </g>
     </g>
    </g>
    <g id="ytick_5">
     <g id="line2d_11">
      <g>
       <use xlink:href="#mdba386e505" x="43.78125" y="64.221619" style="stroke: #000000; stroke-width: 0.8"/>
      </g>
     </g>
     <g id="text_12">
      <!-- 0.8 -->
      <g transform="translate(20.878125 68.020837) scale(0.1 -0.1)">
       <use xlink:href="#DejaVuSans-30"/>
       <use xlink:href="#DejaVuSans-2e" x="63.623047"/>
       <use xlink:href="#DejaVuSans-38" x="95.410156"/>
      </g>
     </g>
    </g>
    <g id="ytick_6">
     <g id="line2d_12">
      <g>
       <use xlink:href="#mdba386e505" x="43.78125" y="10.999219" style="stroke: #000000; stroke-width: 0.8"/>
      </g>
     </g>
     <g id="text_13">
      <!-- 1.0 -->
      <g transform="translate(20.878125 14.798437) scale(0.1 -0.1)">
       <use xlink:href="#DejaVuSans-31"/>
       <use xlink:href="#DejaVuSans-2e" x="63.623047"/>
       <use xlink:href="#DejaVuSans-30" x="95.410156"/>
      </g>
     </g>
    </g>
    <g id="text_14">
     <!-- Equity in Infection Burden Multiplier (b) -->
     <g transform="translate(14.798438 242.544281) rotate(-90) scale(0.1 -0.1)">
      <defs>
       <path id="DejaVuSans-49" d="M 628 4666 
L 1259 4666 
L 1259 0 
L 628 0 
L 628 4666 
z
" transform="scale(0.015625)"/>
       <path id="DejaVuSans-66" d="M 2375 4863 
L 2375 4384 
L 1825 4384 
Q 1516 4384 1395 4259 
Q 1275 4134 1275 3809 
L 1275 3500 
L 2222 3500 
L 2222 3053 
L 1275 3053 
L 1275 0 
L 697 0 
L 697 3053 
L 147 3053 
L 147 3500 
L 697 3500 
L 697 3744 
Q 697 4328 969 4595 
Q 1241 4863 1831 4863 
L 2375 4863 
z
" transform="scale(0.015625)"/>
       <path id="DejaVuSans-62" d="M 3116 1747 
Q 3116 2381 2855 2742 
Q 2594 3103 2138 3103 
Q 1681 3103 1420 2742 
Q 1159 2381 1159 1747 
Q 1159 1113 1420 752 
Q 1681 391 2138 391 
Q 2594 391 2855 752 
Q 3116 1113 3116 1747 
z
M 1159 2969 
Q 1341 3281 1617 3432 
Q 1894 3584 2278 3584 
Q 2916 3584 3314 3078 
Q 3713 2572 3713 1747 
Q 3713 922 3314 415 
Q 2916 -91 2278 -91 
Q 1894 -91 1617 61 
Q 1341 213 1159 525 
L 1159 0 
L 581 0 
L 581 4863 
L 1159 4863 
L 1159 2969 
z
" transform="scale(0.015625)"/>
      </defs>
      <use xlink:href="#DejaVuSans-45"/>
      <use xlink:href="#DejaVuSans-71" x="63.183594"/>
      <use xlink:href="#DejaVuSans-75" x="126.660156"/>
      <use xlink:href="#DejaVuSans-69" x="190.039062"/>
      <use xlink:href="#DejaVuSans-74" x="217.822266"/>
      <use xlink:href="#DejaVuSans-79" x="257.03125"/>
      <use xlink:href="#DejaVuSans-20" x="316.210938"/>
      <use xlink:href="#DejaVuSans-69" x="347.998047"/>
      <use xlink:href="#DejaVuSans-6e" x="375.78125"/>
      <use xlink:href="#DejaVuSans-20" x="439.160156"/>
      <use xlink:href="#DejaVuSans-49" x="470.947266"/>
      <use xlink:href="#DejaVuSans-6e" x="500.439453"/>
      <use xlink:href="#DejaVuSans-66" x="563.818359"/>
      <use xlink:href="#DejaVuSans-65" x="599.023438"/>
      <use xlink:href="#DejaVuSans-63" x="660.546875"/>
      <use xlink:href="#DejaVuSans-74" x="715.527344"/>
      <use xlink:href="#DejaVuSans-69" x="754.736328"/>
      <use xlink:href="#DejaVuSans-6f" x="782.519531"/>
      <use xlink:href="#DejaVuSans-6e" x="843.701172"/>
      <use xlink:href="#DejaVuSans-20" x="907.080078"/>
      <use xlink:href="#DejaVuSans-42" x="938.867188"/>
      <use xlink:href="#DejaVuSans-75" x="1007.470703"/>
      <use xlink:href="#DejaVuSans-72" x="1070.849609"/>
      <use xlink:href="#DejaVuSans-64" x="1110.212891"/>
      <use xlink:href="#DejaVuSans-65" x="1173.689453"/>
      <use xlink:href="#DejaVuSans-6e" x="1235.212891"/>
      <use xlink:href="#DejaVuSans-20" x="1298.591797"/>
      <use xlink:href="#DejaVuSans-4d" x="1330.378906"/>
      <use xlink:href="#DejaVuSans-75" x="1416.658203"/>
      <use xlink:href="#DejaVuSans-6c" x="1480.037109"/>
      <use xlink:href="#DejaVuSans-74" x="1507.820312"/>
      <use xlink:href="#DejaVuSans-69" x="1547.029297"/>
      <use xlink:href="#DejaVuSans-70" x="1574.8125"/>
      <use xlink:href="#DejaVuSans-6c" x="1638.289062"/>
      <use xlink:href="#DejaVuSans-69" x="1666.072266"/>
      <use xlink:href="#DejaVuSans-65" x="1693.855469"/>
      <use xlink:href="#DejaVuSans-72" x="1755.378906"/>
      <use xlink:href="#DejaVuSans-20" x="1796.492188"/>
      <use xlink:href="#DejaVuSans-28" x="1828.279297"/>
      <use xlink:href="#DejaVuSans-62" x="1867.292969"/>
      <use xlink:href="#DejaVuSans-29" x="1930.769531"/>
     </g>
    </g>
   </g>
   <g id="patch_3">
    <path d="M 43.78125 277.111219 
L 43.78125 10.999219 
" style="fill: none; stroke: #000000; stroke-width: 0.8; stroke-linejoin: miter; stroke-linecap: square"/>
   </g>
   <g id="patch_4">
    <path d="M 329.47725 277.111219 
L 329.47725 10.999219 
" style="fill: none; stroke: #000000; stroke-width: 0.8; stroke-linejoin: miter; stroke-linecap: square"/>
   </g>
   <g id="patch_5">
    <path d="M 43.78125 277.111219 
L 329.47725 277.111219 
" style="fill: none; stroke: #000000; stroke-width: 0.8; stroke-linejoin: miter; stroke-linecap: square"/>
   </g>
   <g id="patch_6">
    <path d="M 43.78125 10.999219 
L 329.47725 10.999219 
" style="fill: none; stroke: #000000; stroke-width: 0.8; stroke-linejoin: miter; stroke-linecap: square"/>
   </g>
  </g>
  <g id="axes_2">
   <g id="patch_7">
    <path d="M 347.33325 277.111219 
L 360.63885 277.111219 
L 360.63885 10.999219 
L 347.33325 10.999219 
z
" style="fill: #ffffff"/>
   </g>
   <g id="QuadMesh_1">
    <path d="M 347.33325 277.111219 
L 360.63885 277.111219 
L 360.63885 256.641065 
L 347.33325 256.641065 
L 347.33325 277.111219 
" clip-path="url(#p1e418f52c0)" style="fill: #ffefe8"/>
    <path d="M 347.33325 256.641065 
L 360.63885 256.641065 
L 360.63885 236.170911 
L 347.33325 236.170911 
L 347.33325 256.641065 
" clip-path="url(#p1e418f52c0)" style="fill: #fee2d5"/>
    <path d="M 347.33325 236.170911 
L 360.63885 236.170911 
L 360.63885 215.700757 
L 347.33325 215.700757 
L 347.33325 236.170911 
" clip-path="url(#p1e418f52c0)" style="fill: #fdccb8"/>
    <path d="M 347.33325 215.700757 
L 360.63885 215.700757 
L 360.63885 195.230603 
L 347.33325 195.230603 
L 347.33325 215.700757 
" clip-path="url(#p1e418f52c0)" style="fill: #fcb69b"/>
    <path d="M 347.33325 195.230603 
L 360.63885 195.230603 
L 360.63885 174.76045 
L 347.33325 174.76045 
L 347.33325 195.230603 
" clip-path="url(#p1e418f52c0)" style="fill: #fc9c7d"/>
    <path d="M 347.33325 174.76045 
L 360.63885 174.76045 
L 360.63885 154.290296 
L 347.33325 154.290296 
L 347.33325 174.76045 
" clip-path="url(#p1e418f52c0)" style="fill: #fc8262"/>
    <path d="M 347.33325 154.290296 
L 360.63885 154.290296 
L 360.63885 133.820142 
L 347.33325 133.820142 
L 347.33325 154.290296 
" clip-path="url(#p1e418f52c0)" style="fill: #fb694a"/>
    <path d="M 347.33325 133.820142 
L 360.63885 133.820142 
L 360.63885 113.349988 
L 347.33325 113.349988 
L 347.33325 133.820142 
" clip-path="url(#p1e418f52c0)" style="fill: #f44d38"/>
    <path d="M 347.33325 113.349988 
L 360.63885 113.349988 
L 360.63885 92.879834 
L 347.33325 92.879834 
L 347.33325 113.349988 
" clip-path="url(#p1e418f52c0)" style="fill: #e63328"/>
    <path d="M 347.33325 92.879834 
L 360.63885 92.879834 
L 360.63885 72.40968 
L 347.33325 72.40968 
L 347.33325 92.879834 
" clip-path="url(#p1e418f52c0)" style="fill: #d01d1f"/>
    <path d="M 347.33325 72.40968 
L 360.63885 72.40968 
L 360.63885 51.939526 
L 347.33325 51.939526 
L 347.33325 72.40968 
" clip-path="url(#p1e418f52c0)" style="fill: #b91419"/>
    <path d="M 347.33325 51.939526 
L 360.63885 51.939526 
L 360.63885 31.469373 
L 347.33325 31.469373 
L 347.33325 51.939526 
" clip-path="url(#p1e418f52c0)" style="fill: #9f0e14"/>
    <path d="M 347.33325 31.469373 
L 360.63885 31.469373 
L 360.63885 10.999219 
L 347.33325 10.999219 
L 347.33325 31.469373 
" clip-path="url(#p1e418f52c0)" style="fill: #79040f"/>
   </g>
   <g id="matplotlib.axis_3"/>
   <g id="matplotlib.axis_4">
    <g id="ytick_7">
     <g id="line2d_13">
      <defs>
       <path id="mf99e63c39b" d="M 0 0 
L 3.5 0 
" style="stroke: #000000; stroke-width: 0.8"/>
      </defs>
      <g>
       <use xlink:href="#mf99e63c39b" x="360.63885" y="277.111219" style="stroke: #000000; stroke-width: 0.8"/>
      </g>
     </g>
     <g id="text_15">
      <!-- 228000 -->
      <g transform="translate(367.63885 280.910437) scale(0.1 -0.1)">
       <use xlink:href="#DejaVuSans-32"/>
       <use xlink:href="#DejaVuSans-32" x="63.623047"/>
       <use xlink:href="#DejaVuSans-38" x="127.246094"/>
       <use xlink:href="#DejaVuSans-30" x="190.869141"/>
       <use xlink:href="#DejaVuSans-30" x="254.492188"/>
       <use xlink:href="#DejaVuSans-30" x="318.115234"/>
      </g>
     </g>
    </g>
    <g id="ytick_8">
     <g id="line2d_14">
      <g>
       <use xlink:href="#mf99e63c39b" x="360.63885" y="236.170911" style="stroke: #000000; stroke-width: 0.8"/>
      </g>
     </g>
     <g id="text_16">
      <!-- 236000 -->
      <g transform="translate(367.63885 239.97013) scale(0.1 -0.1)">
       <defs>
        <path id="DejaVuSans-33" d="M 2597 2516 
Q 3050 2419 3304 2112 
Q 3559 1806 3559 1356 
Q 3559 666 3084 287 
Q 2609 -91 1734 -91 
Q 1441 -91 1130 -33 
Q 819 25 488 141 
L 488 750 
Q 750 597 1062 519 
Q 1375 441 1716 441 
Q 2309 441 2620 675 
Q 2931 909 2931 1356 
Q 2931 1769 2642 2001 
Q 2353 2234 1838 2234 
L 1294 2234 
L 1294 2753 
L 1863 2753 
Q 2328 2753 2575 2939 
Q 2822 3125 2822 3475 
Q 2822 3834 2567 4026 
Q 2313 4219 1838 4219 
Q 1578 4219 1281 4162 
Q 984 4106 628 3988 
L 628 4550 
Q 988 4650 1302 4700 
Q 1616 4750 1894 4750 
Q 2613 4750 3031 4423 
Q 3450 4097 3450 3541 
Q 3450 3153 3228 2886 
Q 3006 2619 2597 2516 
z
" transform="scale(0.015625)"/>
       </defs>
       <use xlink:href="#DejaVuSans-32"/>
       <use xlink:href="#DejaVuSans-33" x="63.623047"/>
       <use xlink:href="#DejaVuSans-36" x="127.246094"/>
       <use xlink:href="#DejaVuSans-30" x="190.869141"/>
       <use xlink:href="#DejaVuSans-30" x="254.492188"/>
       <use xlink:href="#DejaVuSans-30" x="318.115234"/>
      </g>
     </g>
    </g>
    <g id="ytick_9">
     <g id="line2d_15">
      <g>
       <use xlink:href="#mf99e63c39b" x="360.63885" y="195.230603" style="stroke: #000000; stroke-width: 0.8"/>
      </g>
     </g>
     <g id="text_17">
      <!-- 244000 -->
      <g transform="translate(367.63885 199.029822) scale(0.1 -0.1)">
       <use xlink:href="#DejaVuSans-32"/>
       <use xlink:href="#DejaVuSans-34" x="63.623047"/>
       <use xlink:href="#DejaVuSans-34" x="127.246094"/>
       <use xlink:href="#DejaVuSans-30" x="190.869141"/>
       <use xlink:href="#DejaVuSans-30" x="254.492188"/>
       <use xlink:href="#DejaVuSans-30" x="318.115234"/>
      </g>
     </g>
    </g>
    <g id="ytick_10">
     <g id="line2d_16">
      <g>
       <use xlink:href="#mf99e63c39b" x="360.63885" y="154.290296" style="stroke: #000000; stroke-width: 0.8"/>
      </g>
     </g>
     <g id="text_18">
      <!-- 252000 -->
      <g transform="translate(367.63885 158.089514) scale(0.1 -0.1)">
       <defs>
        <path id="DejaVuSans-35" d="M 691 4666 
L 3169 4666 
L 3169 4134 
L 1269 4134 
L 1269 2991 
Q 1406 3038 1543 3061 
Q 1681 3084 1819 3084 
Q 2600 3084 3056 2656 
Q 3513 2228 3513 1497 
Q 3513 744 3044 326 
Q 2575 -91 1722 -91 
Q 1428 -91 1123 -41 
Q 819 9 494 109 
L 494 744 
Q 775 591 1075 516 
Q 1375 441 1709 441 
Q 2250 441 2565 725 
Q 2881 1009 2881 1497 
Q 2881 1984 2565 2268 
Q 2250 2553 1709 2553 
Q 1456 2553 1204 2497 
Q 953 2441 691 2322 
L 691 4666 
z
" transform="scale(0.015625)"/>
       </defs>
       <use xlink:href="#DejaVuSans-32"/>
       <use xlink:href="#DejaVuSans-35" x="63.623047"/>
       <use xlink:href="#DejaVuSans-32" x="127.246094"/>
       <use xlink:href="#DejaVuSans-30" x="190.869141"/>
       <use xlink:href="#DejaVuSans-30" x="254.492188"/>
       <use xlink:href="#DejaVuSans-30" x="318.115234"/>
      </g>
     </g>
    </g>
    <g id="ytick_11">
     <g id="line2d_17">
      <g>
       <use xlink:href="#mf99e63c39b" x="360.63885" y="113.349988" style="stroke: #000000; stroke-width: 0.8"/>
      </g>
     </g>
     <g id="text_19">
      <!-- 260000 -->
      <g transform="translate(367.63885 117.149207) scale(0.1 -0.1)">
       <use xlink:href="#DejaVuSans-32"/>
       <use xlink:href="#DejaVuSans-36" x="63.623047"/>
       <use xlink:href="#DejaVuSans-30" x="127.246094"/>
       <use xlink:href="#DejaVuSans-30" x="190.869141"/>
       <use xlink:href="#DejaVuSans-30" x="254.492188"/>
       <use xlink:href="#DejaVuSans-30" x="318.115234"/>
      </g>
     </g>
    </g>
    <g id="ytick_12">
     <g id="line2d_18">
      <g>
       <use xlink:href="#mf99e63c39b" x="360.63885" y="72.40968" style="stroke: #000000; stroke-width: 0.8"/>
      </g>
     </g>
     <g id="text_20">
      <!-- 268000 -->
      <g transform="translate(367.63885 76.208899) scale(0.1 -0.1)">
       <use xlink:href="#DejaVuSans-32"/>
       <use xlink:href="#DejaVuSans-36" x="63.623047"/>
       <use xlink:href="#DejaVuSans-38" x="127.246094"/>
       <use xlink:href="#DejaVuSans-30" x="190.869141"/>
       <use xlink:href="#DejaVuSans-30" x="254.492188"/>
       <use xlink:href="#DejaVuSans-30" x="318.115234"/>
      </g>
     </g>
    </g>
    <g id="ytick_13">
     <g id="line2d_19">
      <g>
       <use xlink:href="#mf99e63c39b" x="360.63885" y="31.469373" style="stroke: #000000; stroke-width: 0.8"/>
      </g>
     </g>
     <g id="text_21">
      <!-- 276000 -->
      <g transform="translate(367.63885 35.268591) scale(0.1 -0.1)">
       <defs>
        <path id="DejaVuSans-37" d="M 525 4666 
L 3525 4666 
L 3525 4397 
L 1831 0 
L 1172 0 
L 2766 4134 
L 525 4134 
L 525 4666 
z
" transform="scale(0.015625)"/>
       </defs>
       <use xlink:href="#DejaVuSans-32"/>
       <use xlink:href="#DejaVuSans-37" x="63.623047"/>
       <use xlink:href="#DejaVuSans-36" x="127.246094"/>
       <use xlink:href="#DejaVuSans-30" x="190.869141"/>
       <use xlink:href="#DejaVuSans-30" x="254.492188"/>
       <use xlink:href="#DejaVuSans-30" x="318.115234"/>
      </g>
     </g>
    </g>
    <g id="text_22">
     <!-- Total Clinical Burden -->
     <g transform="translate(417.412288 194.926312) rotate(-90) scale(0.1 -0.1)">
      <defs>
       <path id="DejaVuSans-54" d="M -19 4666 
L 3928 4666 
L 3928 4134 
L 2272 4134 
L 2272 0 
L 1638 0 
L 1638 4134 
L -19 4134 
L -19 4666 
z
" transform="scale(0.015625)"/>
       <path id="DejaVuSans-43" d="M 4122 4306 
L 4122 3641 
Q 3803 3938 3442 4084 
Q 3081 4231 2675 4231 
Q 1875 4231 1450 3742 
Q 1025 3253 1025 2328 
Q 1025 1406 1450 917 
Q 1875 428 2675 428 
Q 3081 428 3442 575 
Q 3803 722 4122 1019 
L 4122 359 
Q 3791 134 3420 21 
Q 3050 -91 2638 -91 
Q 1578 -91 968 557 
Q 359 1206 359 2328 
Q 359 3453 968 4101 
Q 1578 4750 2638 4750 
Q 3056 4750 3426 4639 
Q 3797 4528 4122 4306 
z
" transform="scale(0.015625)"/>
      </defs>
      <use xlink:href="#DejaVuSans-54"/>
      <use xlink:href="#DejaVuSans-6f" x="44.083984"/>
      <use xlink:href="#DejaVuSans-74" x="105.265625"/>
      <use xlink:href="#DejaVuSans-61" x="144.474609"/>
      <use xlink:href="#DejaVuSans-6c" x="205.753906"/>
      <use xlink:href="#DejaVuSans-20" x="233.537109"/>
      <use xlink:href="#DejaVuSans-43" x="265.324219"/>
      <use xlink:href="#DejaVuSans-6c" x="335.148438"/>
      <use xlink:href="#DejaVuSans-69" x="362.931641"/>
      <use xlink:href="#DejaVuSans-6e" x="390.714844"/>
      <use xlink:href="#DejaVuSans-69" x="454.09375"/>
      <use xlink:href="#DejaVuSans-63" x="481.876953"/>
      <use xlink:href="#DejaVuSans-61" x="536.857422"/>
      <use xlink:href="#DejaVuSans-6c" x="598.136719"/>
      <use xlink:href="#DejaVuSans-20" x="625.919922"/>
      <use xlink:href="#DejaVuSans-42" x="657.707031"/>
      <use xlink:href="#DejaVuSans-75" x="726.310547"/>
      <use xlink:href="#DejaVuSans-72" x="789.689453"/>
      <use xlink:href="#DejaVuSans-64" x="829.052734"/>
      <use xlink:href="#DejaVuSans-65" x="892.529297"/>
      <use xlink:href="#DejaVuSans-6e" x="954.052734"/>
     </g>
    </g>
   </g>
   <g id="LineCollection_1"/>
   <g id="patch_8">
    <path d="M 347.33325 277.111219 
L 353.98605 277.111219 
L 360.63885 277.111219 
L 360.63885 10.999219 
L 353.98605 10.999219 
L 347.33325 10.999219 
L 347.33325 277.111219 
z
" style="fill: none; stroke: #000000; stroke-width: 0.8; stroke-linejoin: miter; stroke-linecap: square"/>
   </g>
  </g>
 </g>
 <defs>
  <clipPath id="p00efc674cf">
   <rect x="43.78125" y="10.999219" width="285.696" height="266.112"/>
  </clipPath>
  <clipPath id="p1e418f52c0">
   <rect x="347.33325" y="10.999219" width="13.3056" height="266.112"/>
  </clipPath>
 </defs>
</svg>
