<?xml version="1.0" encoding="utf-8" standalone="no"?>
<!DOCTYPE svg PUBLIC "-//W3C//DTD SVG 1.1//EN"
  "http://www.w3.org/Graphics/SVG/1.1/DTD/svg11.dtd">
<svg xmlns:xlink="http://www.w3.org/1999/xlink" width="401.241975pt" height="314.667469pt" viewBox="0 0 401.241975 314.667469" xmlns="http://www.w3.org/2000/svg" version="1.1">
 <metadata>
  <rdf:RDF xmlns:dc="http://purl.org/dc/elements/1.1/" xmlns:cc="http://creativecommons.org/ns#" xmlns:rdf="http://www.w3.org/1999/02/22-rdf-syntax-ns#">
   <cc:Work>
    <dc:type rdf:resource="http://purl.org/dc/dcmitype/StillImage"/>
    <dc:date>2024-11-11T09:33:25.052371</dc:date>
    <dc:format>image/svg+xml</dc:format>
    <dc:creator>
     <cc:Agent>
      <dc:title>Matplotlib v3.9.0, https://matplotlib.org/</dc:title>
     </cc:Agent>
    </dc:creator>
   </cc:Work>
  </rdf:RDF>
 </metadata>
 <defs>
  <style type="text/css">*{stroke-linejoin: round; stroke-linecap: butt}</style>
 </defs>
 <g id="figure_1">
  <g id="patch_1">
   <path d="M 0 314.667469 
L 401.241975 314.667469 
L 401.241975 0 
L 0 0 
z
" style="fill: #ffffff"/>
  </g>
  <g id="axes_1">
   <g id="patch_2">
    <path d="M 43.78125 277.111219 
L 329.47725 277.111219 
L 329.47725 10.999219 
L 43.78125 10.999219 
z
" style="fill: #ffffff"/>
   </g>
   <g id="QuadContourSet_1">
    <path d="M 200.91405 277.111219 
L 208.05645 277.111219 
L 215.19885 277.111219 
L 215.19885 277.111219 
L 222.34125 277.111219 
L 229.48365 277.111219 
L 229.48365 277.111219 
L 230.618781 277.111219 
L 229.48365 275.92702 
L 222.34125 275.92702 
L 215.19885 275.92702 
L 208.05645 275.92702 
L 200.91405 275.92702 
L 195.042997 270.458419 
L 193.77165 269.27422 
L 187.900597 263.805619 
L 186.62925 262.62142 
L 179.48685 262.62142 
L 172.34445 262.62142 
L 166.473397 257.152819 
L 165.20205 255.96862 
L 159.330997 250.500019 
L 158.05965 249.31582 
L 150.91725 249.31582 
L 143.77485 249.31582 
L 136.63245 249.266479 
L 129.49005 249.266479 
L 122.34765 249.266479 
L 116.52957 243.847219 
L 116.52957 237.194419 
L 115.20525 235.960879 
L 108.06285 235.960879 
L 100.92045 236.097939 
L 94.955223 230.541619 
L 93.77805 229.445139 
L 87.812823 223.888819 
L 86.63565 222.792339 
L 79.49325 222.792339 
L 72.35085 222.792339 
L 65.20845 222.792339 
L 58.06605 222.792339 
L 50.92365 222.792339 
L 44.958423 217.236019 
L 44.958423 210.583219 
L 43.78125 209.486739 
L 43.78125 210.583219 
L 43.78125 210.583219 
L 43.78125 217.236019 
L 50.92365 223.888819 
L 58.06605 223.888819 
L 65.20845 223.888819 
L 72.35085 223.888819 
L 79.49325 223.888819 
L 86.63565 223.888819 
L 86.63565 223.888819 
L 86.63565 230.541619 
L 93.77805 237.194419 
L 93.77805 237.194419 
L 100.92045 243.847219 
L 108.06285 243.847219 
L 115.20525 243.847219 
L 115.20525 243.847219 
L 122.34765 250.500019 
L 129.49005 250.500019 
L 136.63245 250.500019 
L 143.77485 250.500019 
L 150.91725 250.500019 
L 158.05965 250.500019 
L 158.05965 250.500019 
L 165.20205 257.152819 
L 165.20205 257.152819 
L 172.34445 263.805619 
L 179.48685 263.805619 
L 186.62925 263.805619 
L 186.62925 263.805619 
L 193.77165 270.458419 
L 193.77165 270.458419 
L 193.77165 277.111219 
z
" clip-path="url(#pbae29ca7b6)" style="fill: #f8f7fb"/>
    <path d="M 200.91405 275.92702 
L 208.05645 275.92702 
L 215.19885 275.92702 
L 222.34125 275.92702 
L 229.48365 275.92702 
L 230.618781 277.111219 
L 231.753913 277.111219 
L 229.48365 274.742822 
L 222.34125 274.742822 
L 215.19885 274.742822 
L 208.05645 274.742822 
L 200.91405 274.742822 
L 196.314344 270.458419 
L 193.77165 268.090022 
L 189.171944 263.805619 
L 186.62925 261.437222 
L 179.48685 261.437222 
L 172.34445 261.437222 
L 167.744744 257.152819 
L 165.20205 254.784422 
L 160.602344 250.500019 
L 158.05965 248.131622 
L 150.91725 248.131622 
L 143.77485 248.131622 
L 136.63245 248.032939 
L 129.49005 248.032939 
L 122.34765 248.032939 
L 117.85389 243.847219 
L 117.85389 237.194419 
L 115.20525 234.727339 
L 108.06285 234.727339 
L 100.92045 235.001459 
L 96.132397 230.541619 
L 93.77805 228.348659 
L 88.989997 223.888819 
L 86.63565 221.695859 
L 79.49325 221.695859 
L 72.35085 221.695859 
L 65.20845 221.695859 
L 58.06605 221.695859 
L 50.92365 221.695859 
L 46.135597 217.236019 
L 46.135597 210.583219 
L 43.78125 208.390259 
L 43.78125 209.486739 
L 44.958423 210.583219 
L 44.958423 217.236019 
L 50.92365 222.792339 
L 58.06605 222.792339 
L 65.20845 222.792339 
L 72.35085 222.792339 
L 79.49325 222.792339 
L 86.63565 222.792339 
L 87.812823 223.888819 
L 93.77805 229.445139 
L 94.955223 230.541619 
L 100.92045 236.097939 
L 108.06285 235.960879 
L 115.20525 235.960879 
L 116.52957 237.194419 
L 116.52957 243.847219 
L 122.34765 249.266479 
L 129.49005 249.266479 
L 136.63245 249.266479 
L 143.77485 249.31582 
L 150.91725 249.31582 
L 158.05965 249.31582 
L 159.330997 250.500019 
L 165.20205 255.96862 
L 166.473397 257.152819 
L 172.34445 262.62142 
L 179.48685 262.62142 
L 186.62925 262.62142 
L 187.900597 263.805619 
L 193.77165 269.27422 
L 195.042997 270.458419 
z
" clip-path="url(#pbae29ca7b6)" style="fill: #f0eef6"/>
    <path d="M 200.91405 274.742822 
L 208.05645 274.742822 
L 215.19885 274.742822 
L 222.34125 274.742822 
L 229.48365 274.742822 
L 231.753913 277.111219 
L 232.889044 277.111219 
L 229.48365 273.558624 
L 222.34125 273.558624 
L 215.19885 273.558624 
L 208.05645 273.558624 
L 200.91405 273.558624 
L 197.585692 270.458419 
L 193.77165 266.905824 
L 190.443292 263.805619 
L 186.62925 260.253024 
L 179.48685 260.253024 
L 172.34445 260.253024 
L 169.016092 257.152819 
L 165.20205 253.600224 
L 161.873692 250.500019 
L 158.05965 246.947424 
L 150.91725 246.947424 
L 143.77485 246.947424 
L 136.63245 246.799399 
L 129.49005 246.799399 
L 122.34765 246.799399 
L 119.17821 243.847219 
L 119.17821 237.194419 
L 115.20525 233.493799 
L 108.06285 233.493799 
L 100.92045 233.904979 
L 97.30957 230.541619 
L 93.77805 227.252179 
L 90.16717 223.888819 
L 86.63565 220.599379 
L 79.49325 220.599379 
L 72.35085 220.599379 
L 65.20845 220.599379 
L 58.06605 220.599379 
L 50.92365 220.599379 
L 47.31277 217.236019 
L 47.31277 210.583219 
L 43.78125 207.293779 
L 43.78125 208.390259 
L 46.135597 210.583219 
L 46.135597 217.236019 
L 50.92365 221.695859 
L 58.06605 221.695859 
L 65.20845 221.695859 
L 72.35085 221.695859 
L 79.49325 221.695859 
L 86.63565 221.695859 
L 88.989997 223.888819 
L 93.77805 228.348659 
L 96.132397 230.541619 
L 100.92045 235.001459 
L 108.06285 234.727339 
L 115.20525 234.727339 
L 117.85389 237.194419 
L 117.85389 243.847219 
L 122.34765 248.032939 
L 129.49005 248.032939 
L 136.63245 248.032939 
L 143.77485 248.131622 
L 150.91725 248.131622 
L 158.05965 248.131622 
L 160.602344 250.500019 
L 165.20205 254.784422 
L 167.744744 257.152819 
L 172.34445 261.437222 
L 179.48685 261.437222 
L 186.62925 261.437222 
L 189.171944 263.805619 
L 193.77165 268.090022 
L 196.314344 270.458419 
z
" clip-path="url(#pbae29ca7b6)" style="fill: #e4e3f0"/>
    <path d="M 200.91405 273.558624 
L 208.05645 273.558624 
L 215.19885 273.558624 
L 222.34125 273.558624 
L 229.48365 273.558624 
L 232.889044 277.111219 
L 234.024176 277.111219 
L 229.48365 272.374425 
L 222.34125 272.374425 
L 215.19885 272.374425 
L 208.05645 272.374425 
L 200.91405 272.374425 
L 198.857039 270.458419 
L 193.77165 265.721625 
L 191.714639 263.805619 
L 186.62925 259.068825 
L 179.48685 259.068825 
L 172.34445 259.068825 
L 170.287439 257.152819 
L 165.20205 252.416025 
L 163.145039 250.500019 
L 158.05965 245.763225 
L 150.91725 245.763225 
L 143.77485 245.763225 
L 136.63245 245.565859 
L 129.49005 245.565859 
L 122.34765 245.565859 
L 120.50253 243.847219 
L 120.50253 237.194419 
L 115.20525 232.260259 
L 108.06285 232.260259 
L 100.92045 232.808499 
L 98.486743 230.541619 
L 93.77805 226.155699 
L 91.344343 223.888819 
L 86.63565 219.502899 
L 79.49325 219.502899 
L 72.35085 219.502899 
L 65.20845 219.502899 
L 58.06605 219.502899 
L 50.92365 219.502899 
L 48.489943 217.236019 
L 48.489943 210.583219 
L 43.78125 206.197299 
L 43.78125 207.293779 
L 47.31277 210.583219 
L 47.31277 217.236019 
L 50.92365 220.599379 
L 58.06605 220.599379 
L 65.20845 220.599379 
L 72.35085 220.599379 
L 79.49325 220.599379 
L 86.63565 220.599379 
L 90.16717 223.888819 
L 93.77805 227.252179 
L 97.30957 230.541619 
L 100.92045 233.904979 
L 108.06285 233.493799 
L 115.20525 233.493799 
L 119.17821 237.194419 
L 119.17821 243.847219 
L 122.34765 246.799399 
L 129.49005 246.799399 
L 136.63245 246.799399 
L 143.77485 246.947424 
L 150.91725 246.947424 
L 158.05965 246.947424 
L 161.873692 250.500019 
L 165.20205 253.600224 
L 169.016092 257.152819 
L 172.34445 260.253024 
L 179.48685 260.253024 
L 186.62925 260.253024 
L 190.443292 263.805619 
L 193.77165 266.905824 
L 197.585692 270.458419 
z
" clip-path="url(#pbae29ca7b6)" style="fill: #d6d6e9"/>
    <path d="M 200.91405 272.374425 
L 208.05645 272.374425 
L 215.19885 272.374425 
L 222.34125 272.374425 
L 229.48365 272.374425 
L 234.024176 277.111219 
L 235.159307 277.111219 
L 229.48365 271.190227 
L 222.34125 271.190227 
L 215.19885 271.190227 
L 208.05645 271.190227 
L 200.91405 271.190227 
L 200.128386 270.458419 
L 193.77165 264.537427 
L 192.985986 263.805619 
L 186.62925 257.884627 
L 179.48685 257.884627 
L 172.34445 257.884627 
L 171.558786 257.152819 
L 165.20205 251.231827 
L 164.416386 250.500019 
L 158.05965 244.579027 
L 150.91725 244.579027 
L 143.77485 244.579027 
L 136.63245 244.332319 
L 129.49005 244.332319 
L 122.34765 244.332319 
L 121.82685 243.847219 
L 121.82685 237.194419 
L 115.20525 231.026719 
L 108.06285 231.026719 
L 100.92045 231.712019 
L 99.663917 230.541619 
L 93.77805 225.059219 
L 92.521517 223.888819 
L 86.63565 218.406419 
L 79.49325 218.406419 
L 72.35085 218.406419 
L 65.20845 218.406419 
L 58.06605 218.406419 
L 50.92365 218.406419 
L 49.667117 217.236019 
L 49.667117 210.583219 
L 43.78125 205.100819 
L 43.78125 206.197299 
L 48.489943 210.583219 
L 48.489943 217.236019 
L 50.92365 219.502899 
L 58.06605 219.502899 
L 65.20845 219.502899 
L 72.35085 219.502899 
L 79.49325 219.502899 
L 86.63565 219.502899 
L 91.344343 223.888819 
L 93.77805 226.155699 
L 98.486743 230.541619 
L 100.92045 232.808499 
L 108.06285 232.260259 
L 115.20525 232.260259 
L 120.50253 237.194419 
L 120.50253 243.847219 
L 122.34765 245.565859 
L 129.49005 245.565859 
L 136.63245 245.565859 
L 143.77485 245.763225 
L 150.91725 245.763225 
L 158.05965 245.763225 
L 163.145039 250.500019 
L 165.20205 252.416025 
L 170.287439 257.152819 
L 172.34445 259.068825 
L 179.48685 259.068825 
L 186.62925 259.068825 
L 191.714639 263.805619 
L 193.77165 265.721625 
L 198.857039 270.458419 
z
" clip-path="url(#pbae29ca7b6)" style="fill: #c3c4e0"/>
    <path d="M 200.91405 271.190227 
L 208.05645 271.190227 
L 215.19885 271.190227 
L 222.34125 271.190227 
L 229.48365 271.190227 
L 235.159307 277.111219 
L 236.294439 277.111219 
L 233.53101 270.458419 
L 229.48365 270.006028 
L 222.34125 270.006028 
L 215.19885 270.006028 
L 208.05645 270.006028 
L 200.91405 270.006028 
L 194.257333 263.805619 
L 194.257333 257.152819 
L 193.77165 256.700428 
L 186.62925 256.700428 
L 179.48685 256.700428 
L 172.34445 256.700428 
L 165.687733 250.500019 
L 165.687733 243.847219 
L 165.20205 243.394828 
L 158.05965 243.394828 
L 150.91725 243.394828 
L 143.77485 243.394828 
L 136.63245 243.128716 
L 129.49005 243.098779 
L 123.15117 237.194419 
L 122.85357 230.541619 
L 122.34765 230.070379 
L 115.20525 229.793179 
L 108.06285 229.876339 
L 101.63469 230.541619 
L 100.92045 230.615539 
L 100.84109 230.541619 
L 93.77805 223.962739 
L 93.69869 223.888819 
L 86.63565 217.309939 
L 79.49325 217.309939 
L 72.35085 217.309939 
L 65.20845 217.309939 
L 58.06605 217.309939 
L 50.92365 217.309939 
L 50.84429 217.236019 
L 50.84429 210.583219 
L 43.78125 204.004339 
L 43.78125 205.100819 
L 49.667117 210.583219 
L 49.667117 217.236019 
L 50.92365 218.406419 
L 58.06605 218.406419 
L 65.20845 218.406419 
L 72.35085 218.406419 
L 79.49325 218.406419 
L 86.63565 218.406419 
L 92.521517 223.888819 
L 93.77805 225.059219 
L 99.663917 230.541619 
L 100.92045 231.712019 
L 108.06285 231.026719 
L 115.20525 231.026719 
L 121.82685 237.194419 
L 121.82685 243.847219 
L 122.34765 244.332319 
L 129.49005 244.332319 
L 136.63245 244.332319 
L 143.77485 244.579027 
L 150.91725 244.579027 
L 158.05965 244.579027 
L 164.416386 250.500019 
L 165.20205 251.231827 
L 171.558786 257.152819 
L 172.34445 257.884627 
L 179.48685 257.884627 
L 186.62925 257.884627 
L 192.985986 263.805619 
L 193.77165 264.537427 
L 200.128386 270.458419 
z
" clip-path="url(#pbae29ca7b6)" style="fill: #b0afd4"/>
    <path d="M 236.62605 277.111219 
L 237.42957 277.111219 
L 237.42957 270.458419 
L 236.62605 269.620166 
L 229.48365 268.82183 
L 222.34125 268.82183 
L 215.19885 268.82183 
L 208.05645 268.82183 
L 200.91405 268.82183 
L 195.52868 263.805619 
L 195.52868 257.152819 
L 193.77165 255.51623 
L 186.62925 255.51623 
L 179.48685 255.51623 
L 172.34445 255.51623 
L 166.95908 250.500019 
L 166.95908 243.847219 
L 165.20205 242.21063 
L 158.05965 242.21063 
L 150.91725 242.21063 
L 143.77485 242.21063 
L 136.63245 241.944518 
L 129.49005 241.865239 
L 124.47549 237.194419 
L 124.17789 230.541619 
L 122.34765 228.836839 
L 115.20525 228.559639 
L 108.06285 228.779859 
L 100.92045 229.519059 
L 94.875863 223.888819 
L 93.77805 222.866259 
L 87.733463 217.236019 
L 86.63565 216.213459 
L 79.49325 216.213459 
L 72.35085 216.213459 
L 65.20845 216.213459 
L 58.06605 216.213459 
L 52.021463 210.583219 
L 52.021463 203.930419 
L 50.92365 202.907859 
L 43.78125 202.907859 
L 43.78125 203.930419 
L 43.78125 204.004339 
L 50.84429 210.583219 
L 50.84429 217.236019 
L 50.92365 217.309939 
L 58.06605 217.309939 
L 65.20845 217.309939 
L 72.35085 217.309939 
L 79.49325 217.309939 
L 86.63565 217.309939 
L 93.69869 223.888819 
L 93.77805 223.962739 
L 100.84109 230.541619 
L 100.92045 230.615539 
L 101.63469 230.541619 
L 108.06285 229.876339 
L 115.20525 229.793179 
L 122.34765 230.070379 
L 122.85357 230.541619 
L 123.15117 237.194419 
L 129.49005 243.098779 
L 136.63245 243.128716 
L 143.77485 243.394828 
L 150.91725 243.394828 
L 158.05965 243.394828 
L 165.20205 243.394828 
L 165.687733 243.847219 
L 165.687733 250.500019 
L 172.34445 256.700428 
L 179.48685 256.700428 
L 186.62925 256.700428 
L 193.77165 256.700428 
L 194.257333 257.152819 
L 194.257333 263.805619 
L 200.91405 270.006028 
L 208.05645 270.006028 
L 215.19885 270.006028 
L 222.34125 270.006028 
L 229.48365 270.006028 
L 233.53101 270.458419 
L 236.294439 277.111219 
z
" clip-path="url(#pbae29ca7b6)" style="fill: #9e9ac8"/>
    <path d="M 238.564701 270.458419 
L 236.62605 268.435968 
L 229.48365 267.637632 
L 222.34125 267.637632 
L 215.19885 267.637632 
L 208.05645 267.637632 
L 200.91405 267.637632 
L 196.800028 263.805619 
L 196.800028 257.152819 
L 193.77165 254.332032 
L 186.62925 254.332032 
L 179.48685 254.332032 
L 172.34445 254.332032 
L 168.230428 250.500019 
L 168.230428 243.847219 
L 165.20205 241.026432 
L 158.05965 241.026432 
L 150.91725 241.026432 
L 143.77485 241.026432 
L 136.63245 240.76032 
L 129.49005 240.631699 
L 125.79981 237.194419 
L 125.50221 230.541619 
L 122.34765 227.603299 
L 115.20525 227.326099 
L 108.06285 227.683379 
L 100.92045 228.422579 
L 96.053037 223.888819 
L 93.77805 221.769779 
L 88.910637 217.236019 
L 86.63565 215.116979 
L 79.49325 215.116979 
L 72.35085 215.116979 
L 65.20845 215.116979 
L 58.06605 215.116979 
L 53.198637 210.583219 
L 53.198637 203.930419 
L 50.92365 201.811379 
L 43.78125 201.811379 
L 43.78125 202.907859 
L 50.92365 202.907859 
L 52.021463 203.930419 
L 52.021463 210.583219 
L 58.06605 216.213459 
L 65.20845 216.213459 
L 72.35085 216.213459 
L 79.49325 216.213459 
L 86.63565 216.213459 
L 87.733463 217.236019 
L 93.77805 222.866259 
L 94.875863 223.888819 
L 100.92045 229.519059 
L 108.06285 228.779859 
L 115.20525 228.559639 
L 122.34765 228.836839 
L 124.17789 230.541619 
L 124.47549 237.194419 
L 129.49005 241.865239 
L 136.63245 241.944518 
L 143.77485 242.21063 
L 150.91725 242.21063 
L 158.05965 242.21063 
L 165.20205 242.21063 
L 166.95908 243.847219 
L 166.95908 250.500019 
L 172.34445 255.51623 
L 179.48685 255.51623 
L 186.62925 255.51623 
L 193.77165 255.51623 
L 195.52868 257.152819 
L 195.52868 263.805619 
L 200.91405 268.82183 
L 208.05645 268.82183 
L 215.19885 268.82183 
L 222.34125 268.82183 
L 229.48365 268.82183 
L 236.62605 269.620166 
L 237.42957 270.458419 
L 237.42957 277.111219 
L 238.564701 277.111219 
z
" clip-path="url(#pbae29ca7b6)" style="fill: #8c88bf"/>
    <path d="M 239.699833 270.458419 
L 236.62605 267.251769 
L 229.48365 266.453433 
L 222.34125 266.453433 
L 215.19885 266.453433 
L 208.05645 266.453433 
L 200.91405 266.453433 
L 198.071375 263.805619 
L 198.071375 257.152819 
L 193.77165 253.147833 
L 186.62925 253.147833 
L 179.48685 253.147833 
L 172.34445 253.147833 
L 169.501775 250.500019 
L 169.501775 243.847219 
L 165.20205 239.842233 
L 158.05965 239.842233 
L 150.91725 239.842233 
L 143.77485 239.842233 
L 136.63245 239.576121 
L 129.49005 239.398159 
L 127.12413 237.194419 
L 126.82653 230.541619 
L 122.34765 226.369759 
L 115.20525 226.092559 
L 108.06285 226.586899 
L 100.92045 227.326099 
L 97.23021 223.888819 
L 93.77805 220.673299 
L 90.08781 217.236019 
L 86.63565 214.020499 
L 79.49325 214.020499 
L 72.35085 214.020499 
L 65.20845 214.020499 
L 58.06605 214.020499 
L 54.37581 210.583219 
L 54.37581 203.930419 
L 50.92365 200.714899 
L 43.78125 200.714899 
L 43.78125 201.811379 
L 50.92365 201.811379 
L 53.198637 203.930419 
L 53.198637 210.583219 
L 58.06605 215.116979 
L 65.20845 215.116979 
L 72.35085 215.116979 
L 79.49325 215.116979 
L 86.63565 215.116979 
L 88.910637 217.236019 
L 93.77805 221.769779 
L 96.053037 223.888819 
L 100.92045 228.422579 
L 108.06285 227.683379 
L 115.20525 227.326099 
L 122.34765 227.603299 
L 125.50221 230.541619 
L 125.79981 237.194419 
L 129.49005 240.631699 
L 136.63245 240.76032 
L 143.77485 241.026432 
L 150.91725 241.026432 
L 158.05965 241.026432 
L 165.20205 241.026432 
L 168.230428 243.847219 
L 168.230428 250.500019 
L 172.34445 254.332032 
L 179.48685 254.332032 
L 186.62925 254.332032 
L 193.77165 254.332032 
L 196.800028 257.152819 
L 196.800028 263.805619 
L 200.91405 267.637632 
L 208.05645 267.637632 
L 215.19885 267.637632 
L 222.34125 267.637632 
L 229.48365 267.637632 
L 236.62605 268.435968 
L 238.564701 270.458419 
L 238.564701 277.111219 
L 239.699833 277.111219 
z
" clip-path="url(#pbae29ca7b6)" style="fill: #7b72b4"/>
    <path d="M 240.834964 270.458419 
L 236.62605 266.067571 
L 229.48365 265.269235 
L 222.34125 265.269235 
L 215.19885 265.269235 
L 208.05645 265.269235 
L 200.91405 265.269235 
L 199.342722 263.805619 
L 199.342722 257.152819 
L 193.77165 251.963635 
L 186.62925 251.963635 
L 179.48685 251.963635 
L 172.34445 251.963635 
L 170.773122 250.500019 
L 170.773122 243.847219 
L 165.20205 238.658035 
L 158.05965 238.658035 
L 150.91725 238.658035 
L 143.77485 238.658035 
L 136.63245 238.391923 
L 129.49005 238.164619 
L 128.44845 237.194419 
L 128.15085 230.541619 
L 122.34765 225.136219 
L 115.20525 224.859019 
L 108.06285 225.490419 
L 100.92045 226.229619 
L 98.407383 223.888819 
L 93.77805 219.576819 
L 91.264983 217.236019 
L 86.63565 212.924019 
L 79.49325 212.924019 
L 72.35085 212.924019 
L 65.20845 212.924019 
L 58.06605 212.924019 
L 55.552983 210.583219 
L 55.552983 203.930419 
L 50.92365 199.618419 
L 43.78125 199.618419 
L 43.78125 200.714899 
L 50.92365 200.714899 
L 54.37581 203.930419 
L 54.37581 210.583219 
L 58.06605 214.020499 
L 65.20845 214.020499 
L 72.35085 214.020499 
L 79.49325 214.020499 
L 86.63565 214.020499 
L 90.08781 217.236019 
L 93.77805 220.673299 
L 97.23021 223.888819 
L 100.92045 227.326099 
L 108.06285 226.586899 
L 115.20525 226.092559 
L 122.34765 226.369759 
L 126.82653 230.541619 
L 127.12413 237.194419 
L 129.49005 239.398159 
L 136.63245 239.576121 
L 143.77485 239.842233 
L 150.91725 239.842233 
L 158.05965 239.842233 
L 165.20205 239.842233 
L 169.501775 243.847219 
L 169.501775 250.500019 
L 172.34445 253.147833 
L 179.48685 253.147833 
L 186.62925 253.147833 
L 193.77165 253.147833 
L 198.071375 257.152819 
L 198.071375 263.805619 
L 200.91405 266.453433 
L 208.05645 266.453433 
L 215.19885 266.453433 
L 222.34125 266.453433 
L 229.48365 266.453433 
L 236.62605 267.251769 
L 239.699833 270.458419 
L 239.699833 277.111219 
L 240.834964 277.111219 
z
" clip-path="url(#pbae29ca7b6)" style="fill: #6d57a6"/>
    <path d="M 241.970096 270.458419 
L 236.62605 264.883372 
L 229.48365 264.085036 
L 222.34125 264.085036 
L 215.19885 264.085036 
L 208.05645 264.085036 
L 200.91405 264.085036 
L 200.614069 263.805619 
L 200.614069 257.152819 
L 193.77165 250.779436 
L 186.62925 250.779436 
L 179.48685 250.779436 
L 172.34445 250.779436 
L 172.044469 250.500019 
L 172.044469 243.847219 
L 165.20205 237.473836 
L 158.05965 237.473836 
L 150.91725 237.473836 
L 143.77485 237.473836 
L 136.63245 237.207724 
L 136.27533 237.194419 
L 129.49005 230.874259 
L 129.47517 230.541619 
L 122.34765 223.902679 
L 121.99053 223.888819 
L 115.20525 217.568659 
L 112.94349 223.888819 
L 108.06285 224.393939 
L 100.92045 225.133139 
L 99.584557 223.888819 
L 93.77805 218.480339 
L 92.442157 217.236019 
L 86.63565 211.827539 
L 79.49325 211.827539 
L 72.35085 211.827539 
L 65.20845 211.827539 
L 58.06605 211.827539 
L 56.730157 210.583219 
L 56.730157 203.930419 
L 50.92365 198.521939 
L 43.78125 198.521939 
L 43.78125 199.618419 
L 50.92365 199.618419 
L 55.552983 203.930419 
L 55.552983 210.583219 
L 58.06605 212.924019 
L 65.20845 212.924019 
L 72.35085 212.924019 
L 79.49325 212.924019 
L 86.63565 212.924019 
L 91.264983 217.236019 
L 93.77805 219.576819 
L 98.407383 223.888819 
L 100.92045 226.229619 
L 108.06285 225.490419 
L 115.20525 224.859019 
L 122.34765 225.136219 
L 128.15085 230.541619 
L 128.44845 237.194419 
L 129.49005 238.164619 
L 136.63245 238.391923 
L 143.77485 238.658035 
L 150.91725 238.658035 
L 158.05965 238.658035 
L 165.20205 238.658035 
L 170.773122 243.847219 
L 170.773122 250.500019 
L 172.34445 251.963635 
L 179.48685 251.963635 
L 186.62925 251.963635 
L 193.77165 251.963635 
L 199.342722 257.152819 
L 199.342722 263.805619 
L 200.91405 265.269235 
L 208.05645 265.269235 
L 215.19885 265.269235 
L 222.34125 265.269235 
L 229.48365 265.269235 
L 236.62605 266.067571 
L 240.834964 270.458419 
L 240.834964 277.111219 
L 241.970096 277.111219 
z
" clip-path="url(#pbae29ca7b6)" style="fill: #603e9a"/>
    <path d="M 243.105227 270.458419 
L 237.57837 263.805619 
L 243.76845 258.039859 
L 244.72077 257.152819 
L 250.91085 251.387059 
L 251.86317 250.500019 
L 258.05325 244.734259 
L 259.00557 243.847219 
L 265.19565 238.081459 
L 266.14797 238.081459 
L 265.19565 237.194419 
L 258.05325 230.541619 
L 258.05325 223.888819 
L 250.91085 223.888819 
L 243.76845 217.236019 
L 236.62605 210.583219 
L 229.48365 203.930419 
L 222.34125 197.277619 
L 215.19885 190.624819 
L 208.05645 183.972019 
L 200.91405 177.319219 
L 200.91405 170.666419 
L 193.77165 170.666419 
L 186.62925 164.013619 
L 186.62925 157.360819 
L 179.48685 157.360819 
L 172.34445 150.708019 
L 172.34445 144.055219 
L 165.20205 144.055219 
L 158.05965 137.402419 
L 158.05965 130.749619 
L 150.91725 130.749619 
L 143.77485 124.096819 
L 136.63245 117.444019 
L 129.49005 110.791219 
L 122.34765 104.138419 
L 115.20525 97.485619 
L 108.06285 90.832819 
L 100.92045 84.180019 
L 100.92045 77.527219 
L 93.77805 77.527219 
L 86.63565 70.874419 
L 79.49325 64.221619 
L 72.35085 57.568819 
L 65.20845 50.916019 
L 58.06605 44.263219 
L 58.06605 37.610419 
L 50.92365 37.610419 
L 43.78125 30.957619 
L 43.78125 31.844659 
L 49.97133 37.610419 
L 49.97133 44.263219 
L 49.97133 50.916019 
L 49.97133 57.568819 
L 49.97133 64.221619 
L 49.97133 70.874419 
L 50.92365 71.761459 
L 58.06605 71.761459 
L 64.25613 77.527219 
L 64.25613 84.180019 
L 64.25613 90.832819 
L 64.25613 97.485619 
L 64.25613 104.138419 
L 61.87533 110.791219 
L 65.20845 113.895859 
L 72.35085 111.678259 
L 78.54093 117.444019 
L 76.16013 124.096819 
L 74.49357 130.749619 
L 74.49357 137.402419 
L 74.49357 144.055219 
L 74.49357 150.708019 
L 79.49325 155.364979 
L 86.63565 155.364979 
L 88.77837 157.360819 
L 88.77837 164.013619 
L 88.77837 170.666419 
L 88.77837 177.319219 
L 88.77837 183.972019 
L 93.77805 188.628979 
L 95.92077 190.624819 
L 100.92045 195.281779 
L 103.06317 197.277619 
L 103.06317 203.930419 
L 103.06317 210.583219 
L 102.34893 217.236019 
L 102.34893 223.888819 
L 100.92045 224.036659 
L 100.76173 223.888819 
L 93.77805 217.383859 
L 93.61933 217.236019 
L 86.63565 210.731059 
L 79.49325 210.731059 
L 72.35085 210.731059 
L 65.20845 210.731059 
L 58.06605 210.731059 
L 57.90733 210.583219 
L 57.90733 203.930419 
L 50.92365 197.425459 
L 43.78125 197.425459 
L 43.78125 198.521939 
L 50.92365 198.521939 
L 56.730157 203.930419 
L 56.730157 210.583219 
L 58.06605 211.827539 
L 65.20845 211.827539 
L 72.35085 211.827539 
L 79.49325 211.827539 
L 86.63565 211.827539 
L 92.442157 217.236019 
L 93.77805 218.480339 
L 99.584557 223.888819 
L 100.92045 225.133139 
L 108.06285 224.393939 
L 112.94349 223.888819 
L 115.20525 217.568659 
L 121.99053 223.888819 
L 122.34765 223.902679 
L 129.47517 230.541619 
L 129.49005 230.874259 
L 136.27533 237.194419 
L 136.63245 237.207724 
L 143.77485 237.473836 
L 150.91725 237.473836 
L 158.05965 237.473836 
L 165.20205 237.473836 
L 172.044469 243.847219 
L 172.044469 250.500019 
L 172.34445 250.779436 
L 179.48685 250.779436 
L 186.62925 250.779436 
L 193.77165 250.779436 
L 200.614069 257.152819 
L 200.614069 263.805619 
L 200.91405 264.085036 
L 208.05645 264.085036 
L 215.19885 264.085036 
L 222.34125 264.085036 
L 229.48365 264.085036 
L 236.62605 264.883372 
L 241.970096 270.458419 
L 241.970096 277.111219 
L 243.105227 277.111219 
z
" clip-path="url(#pbae29ca7b6)" style="fill: #52238d"/>
    <path d="M 243.76845 277.111219 
L 250.91085 277.111219 
L 258.05325 277.111219 
L 265.19565 277.111219 
L 272.33805 277.111219 
L 279.48045 277.111219 
L 286.62285 277.111219 
L 293.76525 277.111219 
L 300.90765 277.111219 
L 308.05005 277.111219 
L 300.90765 270.458419 
L 300.90765 263.805619 
L 293.76525 263.805619 
L 286.62285 257.152819 
L 279.48045 250.500019 
L 272.33805 243.847219 
L 266.14797 238.081459 
L 265.19565 238.081459 
L 259.00557 243.847219 
L 258.05325 244.734259 
L 251.86317 250.500019 
L 250.91085 251.387059 
L 244.72077 257.152819 
L 243.76845 258.039859 
L 237.57837 263.805619 
L 243.105227 270.458419 
L 243.105227 277.111219 
z
M 100.92045 224.036659 
L 102.34893 223.888819 
L 102.34893 217.236019 
L 103.06317 210.583219 
L 103.06317 203.930419 
L 103.06317 197.277619 
L 100.92045 195.281779 
L 95.92077 190.624819 
L 93.77805 188.628979 
L 88.77837 183.972019 
L 88.77837 177.319219 
L 88.77837 170.666419 
L 88.77837 164.013619 
L 88.77837 157.360819 
L 86.63565 155.364979 
L 79.49325 155.364979 
L 74.49357 150.708019 
L 74.49357 144.055219 
L 74.49357 137.402419 
L 74.49357 130.749619 
L 76.16013 124.096819 
L 78.54093 117.444019 
L 72.35085 111.678259 
L 65.20845 113.895859 
L 61.87533 110.791219 
L 64.25613 104.138419 
L 64.25613 97.485619 
L 64.25613 90.832819 
L 64.25613 84.180019 
L 64.25613 77.527219 
L 58.06605 71.761459 
L 50.92365 71.761459 
L 49.97133 70.874419 
L 49.97133 64.221619 
L 49.97133 57.568819 
L 49.97133 50.916019 
L 49.97133 44.263219 
L 49.97133 37.610419 
L 43.78125 31.844659 
L 43.78125 37.610419 
L 43.78125 44.263219 
L 43.78125 50.916019 
L 43.78125 57.568819 
L 43.78125 64.221619 
L 43.78125 70.874419 
L 43.78125 77.527219 
L 43.78125 84.180019 
L 43.78125 90.832819 
L 43.78125 97.485619 
L 43.78125 104.138419 
L 43.78125 110.791219 
L 43.78125 117.444019 
L 43.78125 124.096819 
L 43.78125 130.749619 
L 43.78125 137.402419 
L 43.78125 144.055219 
L 43.78125 150.708019 
L 43.78125 157.360819 
L 43.78125 164.013619 
L 43.78125 170.666419 
L 43.78125 177.319219 
L 43.78125 183.972019 
L 43.78125 190.624819 
L 43.78125 197.277619 
L 43.78125 197.425459 
L 50.92365 197.425459 
L 57.90733 203.930419 
L 57.90733 210.583219 
L 58.06605 210.731059 
L 65.20845 210.731059 
L 72.35085 210.731059 
L 79.49325 210.731059 
L 86.63565 210.731059 
L 93.61933 217.236019 
L 93.77805 217.383859 
L 100.76173 223.888819 
z
" clip-path="url(#pbae29ca7b6)" style="fill: #450b82"/>
   </g>
   <g id="matplotlib.axis_1">
    <g id="xtick_1">
     <g id="line2d_1">
      <defs>
       <path id="m76ee7472db" d="M 0 0 
L 0 3.5 
" style="stroke: #000000; stroke-width: 0.8"/>
      </defs>
      <g>
       <use xlink:href="#m76ee7472db" x="43.78125" y="277.111219" style="stroke: #000000; stroke-width: 0.8"/>
      </g>
     </g>
     <g id="text_1">
      <!-- 0.0 -->
      <g transform="translate(35.829688 291.709656) scale(0.1 -0.1)">
       <defs>
        <path id="DejaVuSans-30" d="M 2034 4250 
Q 1547 4250 1301 3770 
Q 1056 3291 1056 2328 
Q 1056 1369 1301 889 
Q 1547 409 2034 409 
Q 2525 409 2770 889 
Q 3016 1369 3016 2328 
Q 3016 3291 2770 3770 
Q 2525 4250 2034 4250 
z
M 2034 4750 
Q 2819 4750 3233 4129 
Q 3647 3509 3647 2328 
Q 3647 1150 3233 529 
Q 2819 -91 2034 -91 
Q 1250 -91 836 529 
Q 422 1150 422 2328 
Q 422 3509 836 4129 
Q 1250 4750 2034 4750 
z
" transform="scale(0.015625)"/>
        <path id="DejaVuSans-2e" d="M 684 794 
L 1344 794 
L 1344 0 
L 684 0 
L 684 794 
z
" transform="scale(0.015625)"/>
       </defs>
       <use xlink:href="#DejaVuSans-30"/>
       <use xlink:href="#DejaVuSans-2e" x="63.623047"/>
       <use xlink:href="#DejaVuSans-30" x="95.410156"/>
      </g>
     </g>
    </g>
    <g id="xtick_2">
     <g id="line2d_2">
      <g>
       <use xlink:href="#m76ee7472db" x="100.92045" y="277.111219" style="stroke: #000000; stroke-width: 0.8"/>
      </g>
     </g>
     <g id="text_2">
      <!-- 0.2 -->
      <g transform="translate(92.968888 291.709656) scale(0.1 -0.1)">
       <defs>
        <path id="DejaVuSans-32" d="M 1228 531 
L 3431 531 
L 3431 0 
L 469 0 
L 469 531 
Q 828 903 1448 1529 
Q 2069 2156 2228 2338 
Q 2531 2678 2651 2914 
Q 2772 3150 2772 3378 
Q 2772 3750 2511 3984 
Q 2250 4219 1831 4219 
Q 1534 4219 1204 4116 
Q 875 4013 500 3803 
L 500 4441 
Q 881 4594 1212 4672 
Q 1544 4750 1819 4750 
Q 2544 4750 2975 4387 
Q 3406 4025 3406 3419 
Q 3406 3131 3298 2873 
Q 3191 2616 2906 2266 
Q 2828 2175 2409 1742 
Q 1991 1309 1228 531 
z
" transform="scale(0.015625)"/>
       </defs>
       <use xlink:href="#DejaVuSans-30"/>
       <use xlink:href="#DejaVuSans-2e" x="63.623047"/>
       <use xlink:href="#DejaVuSans-32" x="95.410156"/>
      </g>
     </g>
    </g>
    <g id="xtick_3">
     <g id="line2d_3">
      <g>
       <use xlink:href="#m76ee7472db" x="158.05965" y="277.111219" style="stroke: #000000; stroke-width: 0.8"/>
      </g>
     </g>
     <g id="text_3">
      <!-- 0.4 -->
      <g transform="translate(150.108088 291.709656) scale(0.1 -0.1)">
       <defs>
        <path id="DejaVuSans-34" d="M 2419 4116 
L 825 1625 
L 2419 1625 
L 2419 4116 
z
M 2253 4666 
L 3047 4666 
L 3047 1625 
L 3713 1625 
L 3713 1100 
L 3047 1100 
L 3047 0 
L 2419 0 
L 2419 1100 
L 313 1100 
L 313 1709 
L 2253 4666 
z
" transform="scale(0.015625)"/>
       </defs>
       <use xlink:href="#DejaVuSans-30"/>
       <use xlink:href="#DejaVuSans-2e" x="63.623047"/>
       <use xlink:href="#DejaVuSans-34" x="95.410156"/>
      </g>
     </g>
    </g>
    <g id="xtick_4">
     <g id="line2d_4">
      <g>
       <use xlink:href="#m76ee7472db" x="215.19885" y="277.111219" style="stroke: #000000; stroke-width: 0.8"/>
      </g>
     </g>
     <g id="text_4">
      <!-- 0.6 -->
      <g transform="translate(207.247288 291.709656) scale(0.1 -0.1)">
       <defs>
        <path id="DejaVuSans-36" d="M 2113 2584 
Q 1688 2584 1439 2293 
Q 1191 2003 1191 1497 
Q 1191 994 1439 701 
Q 1688 409 2113 409 
Q 2538 409 2786 701 
Q 3034 994 3034 1497 
Q 3034 2003 2786 2293 
Q 2538 2584 2113 2584 
z
M 3366 4563 
L 3366 3988 
Q 3128 4100 2886 4159 
Q 2644 4219 2406 4219 
Q 1781 4219 1451 3797 
Q 1122 3375 1075 2522 
Q 1259 2794 1537 2939 
Q 1816 3084 2150 3084 
Q 2853 3084 3261 2657 
Q 3669 2231 3669 1497 
Q 3669 778 3244 343 
Q 2819 -91 2113 -91 
Q 1303 -91 875 529 
Q 447 1150 447 2328 
Q 447 3434 972 4092 
Q 1497 4750 2381 4750 
Q 2619 4750 2861 4703 
Q 3103 4656 3366 4563 
z
" transform="scale(0.015625)"/>
       </defs>
       <use xlink:href="#DejaVuSans-30"/>
       <use xlink:href="#DejaVuSans-2e" x="63.623047"/>
       <use xlink:href="#DejaVuSans-36" x="95.410156"/>
      </g>
     </g>
    </g>
    <g id="xtick_5">
     <g id="line2d_5">
      <g>
       <use xlink:href="#m76ee7472db" x="272.33805" y="277.111219" style="stroke: #000000; stroke-width: 0.8"/>
      </g>
     </g>
     <g id="text_5">
      <!-- 0.8 -->
      <g transform="translate(264.386488 291.709656) scale(0.1 -0.1)">
       <defs>
        <path id="DejaVuSans-38" d="M 2034 2216 
Q 1584 2216 1326 1975 
Q 1069 1734 1069 1313 
Q 1069 891 1326 650 
Q 1584 409 2034 409 
Q 2484 409 2743 651 
Q 3003 894 3003 1313 
Q 3003 1734 2745 1975 
Q 2488 2216 2034 2216 
z
M 1403 2484 
Q 997 2584 770 2862 
Q 544 3141 544 3541 
Q 544 4100 942 4425 
Q 1341 4750 2034 4750 
Q 2731 4750 3128 4425 
Q 3525 4100 3525 3541 
Q 3525 3141 3298 2862 
Q 3072 2584 2669 2484 
Q 3125 2378 3379 2068 
Q 3634 1759 3634 1313 
Q 3634 634 3220 271 
Q 2806 -91 2034 -91 
Q 1263 -91 848 271 
Q 434 634 434 1313 
Q 434 1759 690 2068 
Q 947 2378 1403 2484 
z
M 1172 3481 
Q 1172 3119 1398 2916 
Q 1625 2713 2034 2713 
Q 2441 2713 2670 2916 
Q 2900 3119 2900 3481 
Q 2900 3844 2670 4047 
Q 2441 4250 2034 4250 
Q 1625 4250 1398 4047 
Q 1172 3844 1172 3481 
z
" transform="scale(0.015625)"/>
       </defs>
       <use xlink:href="#DejaVuSans-30"/>
       <use xlink:href="#DejaVuSans-2e" x="63.623047"/>
       <use xlink:href="#DejaVuSans-38" x="95.410156"/>
      </g>
     </g>
    </g>
    <g id="xtick_6">
     <g id="line2d_6">
      <g>
       <use xlink:href="#m76ee7472db" x="329.47725" y="277.111219" style="stroke: #000000; stroke-width: 0.8"/>
      </g>
     </g>
     <g id="text_6">
      <!-- 1.0 -->
      <g transform="translate(321.525688 291.709656) scale(0.1 -0.1)">
       <defs>
        <path id="DejaVuSans-31" d="M 794 531 
L 1825 531 
L 1825 4091 
L 703 3866 
L 703 4441 
L 1819 4666 
L 2450 4666 
L 2450 531 
L 3481 531 
L 3481 0 
L 794 0 
L 794 531 
z
" transform="scale(0.015625)"/>
       </defs>
       <use xlink:href="#DejaVuSans-31"/>
       <use xlink:href="#DejaVuSans-2e" x="63.623047"/>
       <use xlink:href="#DejaVuSans-30" x="95.410156"/>
      </g>
     </g>
    </g>
    <g id="text_7">
     <!-- Equity in Vaccination Burden Multiplier (a) -->
     <g transform="translate(81.262844 305.387781) scale(0.1 -0.1)">
      <defs>
       <path id="DejaVuSans-45" d="M 628 4666 
L 3578 4666 
L 3578 4134 
L 1259 4134 
L 1259 2753 
L 3481 2753 
L 3481 2222 
L 1259 2222 
L 1259 531 
L 3634 531 
L 3634 0 
L 628 0 
L 628 4666 
z
" transform="scale(0.015625)"/>
       <path id="DejaVuSans-71" d="M 947 1747 
Q 947 1113 1208 752 
Q 1469 391 1925 391 
Q 2381 391 2643 752 
Q 2906 1113 2906 1747 
Q 2906 2381 2643 2742 
Q 2381 3103 1925 3103 
Q 1469 3103 1208 2742 
Q 947 2381 947 1747 
z
M 2906 525 
Q 2725 213 2448 61 
Q 2172 -91 1784 -91 
Q 1150 -91 751 415 
Q 353 922 353 1747 
Q 353 2572 751 3078 
Q 1150 3584 1784 3584 
Q 2172 3584 2448 3432 
Q 2725 3281 2906 2969 
L 2906 3500 
L 3481 3500 
L 3481 -1331 
L 2906 -1331 
L 2906 525 
z
" transform="scale(0.015625)"/>
       <path id="DejaVuSans-75" d="M 544 1381 
L 544 3500 
L 1119 3500 
L 1119 1403 
Q 1119 906 1312 657 
Q 1506 409 1894 409 
Q 2359 409 2629 706 
Q 2900 1003 2900 1516 
L 2900 3500 
L 3475 3500 
L 3475 0 
L 2900 0 
L 2900 538 
Q 2691 219 2414 64 
Q 2138 -91 1772 -91 
Q 1169 -91 856 284 
Q 544 659 544 1381 
z
M 1991 3584 
L 1991 3584 
z
" transform="scale(0.015625)"/>
       <path id="DejaVuSans-69" d="M 603 3500 
L 1178 3500 
L 1178 0 
L 603 0 
L 603 3500 
z
M 603 4863 
L 1178 4863 
L 1178 4134 
L 603 4134 
L 603 4863 
z
" transform="scale(0.015625)"/>
       <path id="DejaVuSans-74" d="M 1172 4494 
L 1172 3500 
L 2356 3500 
L 2356 3053 
L 1172 3053 
L 1172 1153 
Q 1172 725 1289 603 
Q 1406 481 1766 481 
L 2356 481 
L 2356 0 
L 1766 0 
Q 1100 0 847 248 
Q 594 497 594 1153 
L 594 3053 
L 172 3053 
L 172 3500 
L 594 3500 
L 594 4494 
L 1172 4494 
z
" transform="scale(0.015625)"/>
       <path id="DejaVuSans-79" d="M 2059 -325 
Q 1816 -950 1584 -1140 
Q 1353 -1331 966 -1331 
L 506 -1331 
L 506 -850 
L 844 -850 
Q 1081 -850 1212 -737 
Q 1344 -625 1503 -206 
L 1606 56 
L 191 3500 
L 800 3500 
L 1894 763 
L 2988 3500 
L 3597 3500 
L 2059 -325 
z
" transform="scale(0.015625)"/>
       <path id="DejaVuSans-20" transform="scale(0.015625)"/>
       <path id="DejaVuSans-6e" d="M 3513 2113 
L 3513 0 
L 2938 0 
L 2938 2094 
Q 2938 2591 2744 2837 
Q 2550 3084 2163 3084 
Q 1697 3084 1428 2787 
Q 1159 2491 1159 1978 
L 1159 0 
L 581 0 
L 581 3500 
L 1159 3500 
L 1159 2956 
Q 1366 3272 1645 3428 
Q 1925 3584 2291 3584 
Q 2894 3584 3203 3211 
Q 3513 2838 3513 2113 
z
" transform="scale(0.015625)"/>
       <path id="DejaVuSans-56" d="M 1831 0 
L 50 4666 
L 709 4666 
L 2188 738 
L 3669 4666 
L 4325 4666 
L 2547 0 
L 1831 0 
z
" transform="scale(0.015625)"/>
       <path id="DejaVuSans-61" d="M 2194 1759 
Q 1497 1759 1228 1600 
Q 959 1441 959 1056 
Q 959 750 1161 570 
Q 1363 391 1709 391 
Q 2188 391 2477 730 
Q 2766 1069 2766 1631 
L 2766 1759 
L 2194 1759 
z
M 3341 1997 
L 3341 0 
L 2766 0 
L 2766 531 
Q 2569 213 2275 61 
Q 1981 -91 1556 -91 
Q 1019 -91 701 211 
Q 384 513 384 1019 
Q 384 1609 779 1909 
Q 1175 2209 1959 2209 
L 2766 2209 
L 2766 2266 
Q 2766 2663 2505 2880 
Q 2244 3097 1772 3097 
Q 1472 3097 1187 3025 
Q 903 2953 641 2809 
L 641 3341 
Q 956 3463 1253 3523 
Q 1550 3584 1831 3584 
Q 2591 3584 2966 3190 
Q 3341 2797 3341 1997 
z
" transform="scale(0.015625)"/>
       <path id="DejaVuSans-63" d="M 3122 3366 
L 3122 2828 
Q 2878 2963 2633 3030 
Q 2388 3097 2138 3097 
Q 1578 3097 1268 2742 
Q 959 2388 959 1747 
Q 959 1106 1268 751 
Q 1578 397 2138 397 
Q 2388 397 2633 464 
Q 2878 531 3122 666 
L 3122 134 
Q 2881 22 2623 -34 
Q 2366 -91 2075 -91 
Q 1284 -91 818 406 
Q 353 903 353 1747 
Q 353 2603 823 3093 
Q 1294 3584 2113 3584 
Q 2378 3584 2631 3529 
Q 2884 3475 3122 3366 
z
" transform="scale(0.015625)"/>
       <path id="DejaVuSans-6f" d="M 1959 3097 
Q 1497 3097 1228 2736 
Q 959 2375 959 1747 
Q 959 1119 1226 758 
Q 1494 397 1959 397 
Q 2419 397 2687 759 
Q 2956 1122 2956 1747 
Q 2956 2369 2687 2733 
Q 2419 3097 1959 3097 
z
M 1959 3584 
Q 2709 3584 3137 3096 
Q 3566 2609 3566 1747 
Q 3566 888 3137 398 
Q 2709 -91 1959 -91 
Q 1206 -91 779 398 
Q 353 888 353 1747 
Q 353 2609 779 3096 
Q 1206 3584 1959 3584 
z
" transform="scale(0.015625)"/>
       <path id="DejaVuSans-42" d="M 1259 2228 
L 1259 519 
L 2272 519 
Q 2781 519 3026 730 
Q 3272 941 3272 1375 
Q 3272 1813 3026 2020 
Q 2781 2228 2272 2228 
L 1259 2228 
z
M 1259 4147 
L 1259 2741 
L 2194 2741 
Q 2656 2741 2882 2914 
Q 3109 3088 3109 3444 
Q 3109 3797 2882 3972 
Q 2656 4147 2194 4147 
L 1259 4147 
z
M 628 4666 
L 2241 4666 
Q 2963 4666 3353 4366 
Q 3744 4066 3744 3513 
Q 3744 3084 3544 2831 
Q 3344 2578 2956 2516 
Q 3422 2416 3680 2098 
Q 3938 1781 3938 1306 
Q 3938 681 3513 340 
Q 3088 0 2303 0 
L 628 0 
L 628 4666 
z
" transform="scale(0.015625)"/>
       <path id="DejaVuSans-72" d="M 2631 2963 
Q 2534 3019 2420 3045 
Q 2306 3072 2169 3072 
Q 1681 3072 1420 2755 
Q 1159 2438 1159 1844 
L 1159 0 
L 581 0 
L 581 3500 
L 1159 3500 
L 1159 2956 
Q 1341 3275 1631 3429 
Q 1922 3584 2338 3584 
Q 2397 3584 2469 3576 
Q 2541 3569 2628 3553 
L 2631 2963 
z
" transform="scale(0.015625)"/>
       <path id="DejaVuSans-64" d="M 2906 2969 
L 2906 4863 
L 3481 4863 
L 3481 0 
L 2906 0 
L 2906 525 
Q 2725 213 2448 61 
Q 2172 -91 1784 -91 
Q 1150 -91 751 415 
Q 353 922 353 1747 
Q 353 2572 751 3078 
Q 1150 3584 1784 3584 
Q 2172 3584 2448 3432 
Q 2725 3281 2906 2969 
z
M 947 1747 
Q 947 1113 1208 752 
Q 1469 391 1925 391 
Q 2381 391 2643 752 
Q 2906 1113 2906 1747 
Q 2906 2381 2643 2742 
Q 2381 3103 1925 3103 
Q 1469 3103 1208 2742 
Q 947 2381 947 1747 
z
" transform="scale(0.015625)"/>
       <path id="DejaVuSans-65" d="M 3597 1894 
L 3597 1613 
L 953 1613 
Q 991 1019 1311 708 
Q 1631 397 2203 397 
Q 2534 397 2845 478 
Q 3156 559 3463 722 
L 3463 178 
Q 3153 47 2828 -22 
Q 2503 -91 2169 -91 
Q 1331 -91 842 396 
Q 353 884 353 1716 
Q 353 2575 817 3079 
Q 1281 3584 2069 3584 
Q 2775 3584 3186 3129 
Q 3597 2675 3597 1894 
z
M 3022 2063 
Q 3016 2534 2758 2815 
Q 2500 3097 2075 3097 
Q 1594 3097 1305 2825 
Q 1016 2553 972 2059 
L 3022 2063 
z
" transform="scale(0.015625)"/>
       <path id="DejaVuSans-4d" d="M 628 4666 
L 1569 4666 
L 2759 1491 
L 3956 4666 
L 4897 4666 
L 4897 0 
L 4281 0 
L 4281 4097 
L 3078 897 
L 2444 897 
L 1241 4097 
L 1241 0 
L 628 0 
L 628 4666 
z
" transform="scale(0.015625)"/>
       <path id="DejaVuSans-6c" d="M 603 4863 
L 1178 4863 
L 1178 0 
L 603 0 
L 603 4863 
z
" transform="scale(0.015625)"/>
       <path id="DejaVuSans-70" d="M 1159 525 
L 1159 -1331 
L 581 -1331 
L 581 3500 
L 1159 3500 
L 1159 2969 
Q 1341 3281 1617 3432 
Q 1894 3584 2278 3584 
Q 2916 3584 3314 3078 
Q 3713 2572 3713 1747 
Q 3713 922 3314 415 
Q 2916 -91 2278 -91 
Q 1894 -91 1617 61 
Q 1341 213 1159 525 
z
M 3116 1747 
Q 3116 2381 2855 2742 
Q 2594 3103 2138 3103 
Q 1681 3103 1420 2742 
Q 1159 2381 1159 1747 
Q 1159 1113 1420 752 
Q 1681 391 2138 391 
Q 2594 391 2855 752 
Q 3116 1113 3116 1747 
z
" transform="scale(0.015625)"/>
       <path id="DejaVuSans-28" d="M 1984 4856 
Q 1566 4138 1362 3434 
Q 1159 2731 1159 2009 
Q 1159 1288 1364 580 
Q 1569 -128 1984 -844 
L 1484 -844 
Q 1016 -109 783 600 
Q 550 1309 550 2009 
Q 550 2706 781 3412 
Q 1013 4119 1484 4856 
L 1984 4856 
z
" transform="scale(0.015625)"/>
       <path id="DejaVuSans-29" d="M 513 4856 
L 1013 4856 
Q 1481 4119 1714 3412 
Q 1947 2706 1947 2009 
Q 1947 1309 1714 600 
Q 1481 -109 1013 -844 
L 513 -844 
Q 928 -128 1133 580 
Q 1338 1288 1338 2009 
Q 1338 2731 1133 3434 
Q 928 4138 513 4856 
z
" transform="scale(0.015625)"/>
      </defs>
      <use xlink:href="#DejaVuSans-45"/>
      <use xlink:href="#DejaVuSans-71" x="63.183594"/>
      <use xlink:href="#DejaVuSans-75" x="126.660156"/>
      <use xlink:href="#DejaVuSans-69" x="190.039062"/>
      <use xlink:href="#DejaVuSans-74" x="217.822266"/>
      <use xlink:href="#DejaVuSans-79" x="257.03125"/>
      <use xlink:href="#DejaVuSans-20" x="316.210938"/>
      <use xlink:href="#DejaVuSans-69" x="347.998047"/>
      <use xlink:href="#DejaVuSans-6e" x="375.78125"/>
      <use xlink:href="#DejaVuSans-20" x="439.160156"/>
      <use xlink:href="#DejaVuSans-56" x="470.947266"/>
      <use xlink:href="#DejaVuSans-61" x="531.605469"/>
      <use xlink:href="#DejaVuSans-63" x="592.884766"/>
      <use xlink:href="#DejaVuSans-63" x="647.865234"/>
      <use xlink:href="#DejaVuSans-69" x="702.845703"/>
      <use xlink:href="#DejaVuSans-6e" x="730.628906"/>
      <use xlink:href="#DejaVuSans-61" x="794.007812"/>
      <use xlink:href="#DejaVuSans-74" x="855.287109"/>
      <use xlink:href="#DejaVuSans-69" x="894.496094"/>
      <use xlink:href="#DejaVuSans-6f" x="922.279297"/>
      <use xlink:href="#DejaVuSans-6e" x="983.460938"/>
      <use xlink:href="#DejaVuSans-20" x="1046.839844"/>
      <use xlink:href="#DejaVuSans-42" x="1078.626953"/>
      <use xlink:href="#DejaVuSans-75" x="1147.230469"/>
      <use xlink:href="#DejaVuSans-72" x="1210.609375"/>
      <use xlink:href="#DejaVuSans-64" x="1249.972656"/>
      <use xlink:href="#DejaVuSans-65" x="1313.449219"/>
      <use xlink:href="#DejaVuSans-6e" x="1374.972656"/>
      <use xlink:href="#DejaVuSans-20" x="1438.351562"/>
      <use xlink:href="#DejaVuSans-4d" x="1470.138672"/>
      <use xlink:href="#DejaVuSans-75" x="1556.417969"/>
      <use xlink:href="#DejaVuSans-6c" x="1619.796875"/>
      <use xlink:href="#DejaVuSans-74" x="1647.580078"/>
      <use xlink:href="#DejaVuSans-69" x="1686.789062"/>
      <use xlink:href="#DejaVuSans-70" x="1714.572266"/>
      <use xlink:href="#DejaVuSans-6c" x="1778.048828"/>
      <use xlink:href="#DejaVuSans-69" x="1805.832031"/>
      <use xlink:href="#DejaVuSans-65" x="1833.615234"/>
      <use xlink:href="#DejaVuSans-72" x="1895.138672"/>
      <use xlink:href="#DejaVuSans-20" x="1936.251953"/>
      <use xlink:href="#DejaVuSans-28" x="1968.039062"/>
      <use xlink:href="#DejaVuSans-61" x="2007.052734"/>
      <use xlink:href="#DejaVuSans-29" x="2068.332031"/>
     </g>
    </g>
   </g>
   <g id="matplotlib.axis_2">
    <g id="ytick_1">
     <g id="line2d_7">
      <defs>
       <path id="m70ece5d5f8" d="M 0 0 
L -3.5 0 
" style="stroke: #000000; stroke-width: 0.8"/>
      </defs>
      <g>
       <use xlink:href="#m70ece5d5f8" x="43.78125" y="277.111219" style="stroke: #000000; stroke-width: 0.8"/>
      </g>
     </g>
     <g id="text_8">
      <!-- 0.0 -->
      <g transform="translate(20.878125 280.910437) scale(0.1 -0.1)">
       <use xlink:href="#DejaVuSans-30"/>
       <use xlink:href="#DejaVuSans-2e" x="63.623047"/>
       <use xlink:href="#DejaVuSans-30" x="95.410156"/>
      </g>
     </g>
    </g>
    <g id="ytick_2">
     <g id="line2d_8">
      <g>
       <use xlink:href="#m70ece5d5f8" x="43.78125" y="223.888819" style="stroke: #000000; stroke-width: 0.8"/>
      </g>
     </g>
     <g id="text_9">
      <!-- 0.2 -->
      <g transform="translate(20.878125 227.688037) scale(0.1 -0.1)">
       <use xlink:href="#DejaVuSans-30"/>
       <use xlink:href="#DejaVuSans-2e" x="63.623047"/>
       <use xlink:href="#DejaVuSans-32" x="95.410156"/>
      </g>
     </g>
    </g>
    <g id="ytick_3">
     <g id="line2d_9">
      <g>
       <use xlink:href="#m70ece5d5f8" x="43.78125" y="170.666419" style="stroke: #000000; stroke-width: 0.8"/>
      </g>
     </g>
     <g id="text_10">
      <!-- 0.4 -->
      <g transform="translate(20.878125 174.465637) scale(0.1 -0.1)">
       <use xlink:href="#DejaVuSans-30"/>
       <use xlink:href="#DejaVuSans-2e" x="63.623047"/>
       <use xlink:href="#DejaVuSans-34" x="95.410156"/>
      </g>
     </g>
    </g>
    <g id="ytick_4">
     <g id="line2d_10">
      <g>
       <use xlink:href="#m70ece5d5f8" x="43.78125" y="117.444019" style="stroke: #000000; stroke-width: 0.8"/>
      </g>
     </g>
     <g id="text_11">
      <!-- 0.6 -->
      <g transform="translate(20.878125 121.243237) scale(0.1 -0.1)">
       <use xlink:href="#DejaVuSans-30"/>
       <use xlink:href="#DejaVuSans-2e" x="63.623047"/>
       <use xlink:href="#DejaVuSans-36" x="95.410156"/>
      </g>
     </g>
    </g>
    <g id="ytick_5">
     <g id="line2d_11">
      <g>
       <use xlink:href="#m70ece5d5f8" x="43.78125" y="64.221619" style="stroke: #000000; stroke-width: 0.8"/>
      </g>
     </g>
     <g id="text_12">
      <!-- 0.8 -->
      <g transform="translate(20.878125 68.020837) scale(0.1 -0.1)">
       <use xlink:href="#DejaVuSans-30"/>
       <use xlink:href="#DejaVuSans-2e" x="63.623047"/>
       <use xlink:href="#DejaVuSans-38" x="95.410156"/>
      </g>
     </g>
    </g>
    <g id="ytick_6">
     <g id="line2d_12">
      <g>
       <use xlink:href="#m70ece5d5f8" x="43.78125" y="10.999219" style="stroke: #000000; stroke-width: 0.8"/>
      </g>
     </g>
     <g id="text_13">
      <!-- 1.0 -->
      <g transform="translate(20.878125 14.798437) scale(0.1 -0.1)">
       <use xlink:href="#DejaVuSans-31"/>
       <use xlink:href="#DejaVuSans-2e" x="63.623047"/>
       <use xlink:href="#DejaVuSans-30" x="95.410156"/>
      </g>
     </g>
    </g>
    <g id="text_14">
     <!-- Equity in Infection Burden Multiplier (b) -->
     <g transform="translate(14.798438 242.544281) rotate(-90) scale(0.1 -0.1)">
      <defs>
       <path id="DejaVuSans-49" d="M 628 4666 
L 1259 4666 
L 1259 0 
L 628 0 
L 628 4666 
z
" transform="scale(0.015625)"/>
       <path id="DejaVuSans-66" d="M 2375 4863 
L 2375 4384 
L 1825 4384 
Q 1516 4384 1395 4259 
Q 1275 4134 1275 3809 
L 1275 3500 
L 2222 3500 
L 2222 3053 
L 1275 3053 
L 1275 0 
L 697 0 
L 697 3053 
L 147 3053 
L 147 3500 
L 697 3500 
L 697 3744 
Q 697 4328 969 4595 
Q 1241 4863 1831 4863 
L 2375 4863 
z
" transform="scale(0.015625)"/>
       <path id="DejaVuSans-62" d="M 3116 1747 
Q 3116 2381 2855 2742 
Q 2594 3103 2138 3103 
Q 1681 3103 1420 2742 
Q 1159 2381 1159 1747 
Q 1159 1113 1420 752 
Q 1681 391 2138 391 
Q 2594 391 2855 752 
Q 3116 1113 3116 1747 
z
M 1159 2969 
Q 1341 3281 1617 3432 
Q 1894 3584 2278 3584 
Q 2916 3584 3314 3078 
Q 3713 2572 3713 1747 
Q 3713 922 3314 415 
Q 2916 -91 2278 -91 
Q 1894 -91 1617 61 
Q 1341 213 1159 525 
L 1159 0 
L 581 0 
L 581 4863 
L 1159 4863 
L 1159 2969 
z
" transform="scale(0.015625)"/>
      </defs>
      <use xlink:href="#DejaVuSans-45"/>
      <use xlink:href="#DejaVuSans-71" x="63.183594"/>
      <use xlink:href="#DejaVuSans-75" x="126.660156"/>
      <use xlink:href="#DejaVuSans-69" x="190.039062"/>
      <use xlink:href="#DejaVuSans-74" x="217.822266"/>
      <use xlink:href="#DejaVuSans-79" x="257.03125"/>
      <use xlink:href="#DejaVuSans-20" x="316.210938"/>
      <use xlink:href="#DejaVuSans-69" x="347.998047"/>
      <use xlink:href="#DejaVuSans-6e" x="375.78125"/>
      <use xlink:href="#DejaVuSans-20" x="439.160156"/>
      <use xlink:href="#DejaVuSans-49" x="470.947266"/>
      <use xlink:href="#DejaVuSans-6e" x="500.439453"/>
      <use xlink:href="#DejaVuSans-66" x="563.818359"/>
      <use xlink:href="#DejaVuSans-65" x="599.023438"/>
      <use xlink:href="#DejaVuSans-63" x="660.546875"/>
      <use xlink:href="#DejaVuSans-74" x="715.527344"/>
      <use xlink:href="#DejaVuSans-69" x="754.736328"/>
      <use xlink:href="#DejaVuSans-6f" x="782.519531"/>
      <use xlink:href="#DejaVuSans-6e" x="843.701172"/>
      <use xlink:href="#DejaVuSans-20" x="907.080078"/>
      <use xlink:href="#DejaVuSans-42" x="938.867188"/>
      <use xlink:href="#DejaVuSans-75" x="1007.470703"/>
      <use xlink:href="#DejaVuSans-72" x="1070.849609"/>
      <use xlink:href="#DejaVuSans-64" x="1110.212891"/>
      <use xlink:href="#DejaVuSans-65" x="1173.689453"/>
      <use xlink:href="#DejaVuSans-6e" x="1235.212891"/>
      <use xlink:href="#DejaVuSans-20" x="1298.591797"/>
      <use xlink:href="#DejaVuSans-4d" x="1330.378906"/>
      <use xlink:href="#DejaVuSans-75" x="1416.658203"/>
      <use xlink:href="#DejaVuSans-6c" x="1480.037109"/>
      <use xlink:href="#DejaVuSans-74" x="1507.820312"/>
      <use xlink:href="#DejaVuSans-69" x="1547.029297"/>
      <use xlink:href="#DejaVuSans-70" x="1574.8125"/>
      <use xlink:href="#DejaVuSans-6c" x="1638.289062"/>
      <use xlink:href="#DejaVuSans-69" x="1666.072266"/>
      <use xlink:href="#DejaVuSans-65" x="1693.855469"/>
      <use xlink:href="#DejaVuSans-72" x="1755.378906"/>
      <use xlink:href="#DejaVuSans-20" x="1796.492188"/>
      <use xlink:href="#DejaVuSans-28" x="1828.279297"/>
      <use xlink:href="#DejaVuSans-62" x="1867.292969"/>
      <use xlink:href="#DejaVuSans-29" x="1930.769531"/>
     </g>
    </g>
   </g>
   <g id="patch_3">
    <path d="M 43.78125 277.111219 
L 43.78125 10.999219 
" style="fill: none; stroke: #000000; stroke-width: 0.8; stroke-linejoin: miter; stroke-linecap: square"/>
   </g>
   <g id="patch_4">
    <path d="M 329.47725 277.111219 
L 329.47725 10.999219 
" style="fill: none; stroke: #000000; stroke-width: 0.8; stroke-linejoin: miter; stroke-linecap: square"/>
   </g>
   <g id="patch_5">
    <path d="M 43.78125 277.111219 
L 329.47725 277.111219 
" style="fill: none; stroke: #000000; stroke-width: 0.8; stroke-linejoin: miter; stroke-linecap: square"/>
   </g>
   <g id="patch_6">
    <path d="M 43.78125 10.999219 
L 329.47725 10.999219 
" style="fill: none; stroke: #000000; stroke-width: 0.8; stroke-linejoin: miter; stroke-linecap: square"/>
   </g>
  </g>
  <g id="axes_2">
   <g id="patch_7">
    <path d="M 347.33325 277.111219 
L 360.63885 277.111219 
L 360.63885 10.999219 
L 347.33325 10.999219 
z
" style="fill: #ffffff"/>
   </g>
   <g id="QuadMesh_1">
    <path d="M 347.33325 277.111219 
L 360.63885 277.111219 
L 360.63885 256.641065 
L 347.33325 256.641065 
L 347.33325 277.111219 
" clip-path="url(#p040fd7713b)" style="fill: #f8f7fb"/>
    <path d="M 347.33325 256.641065 
L 360.63885 256.641065 
L 360.63885 236.170911 
L 347.33325 236.170911 
L 347.33325 256.641065 
" clip-path="url(#p040fd7713b)" style="fill: #f0eef6"/>
    <path d="M 347.33325 236.170911 
L 360.63885 236.170911 
L 360.63885 215.700757 
L 347.33325 215.700757 
L 347.33325 236.170911 
" clip-path="url(#p040fd7713b)" style="fill: #e4e3f0"/>
    <path d="M 347.33325 215.700757 
L 360.63885 215.700757 
L 360.63885 195.230603 
L 347.33325 195.230603 
L 347.33325 215.700757 
" clip-path="url(#p040fd7713b)" style="fill: #d6d6e9"/>
    <path d="M 347.33325 195.230603 
L 360.63885 195.230603 
L 360.63885 174.76045 
L 347.33325 174.76045 
L 347.33325 195.230603 
" clip-path="url(#p040fd7713b)" style="fill: #c3c4e0"/>
    <path d="M 347.33325 174.76045 
L 360.63885 174.76045 
L 360.63885 154.290296 
L 347.33325 154.290296 
L 347.33325 174.76045 
" clip-path="url(#p040fd7713b)" style="fill: #b0afd4"/>
    <path d="M 347.33325 154.290296 
L 360.63885 154.290296 
L 360.63885 133.820142 
L 347.33325 133.820142 
L 347.33325 154.290296 
" clip-path="url(#p040fd7713b)" style="fill: #9e9ac8"/>
    <path d="M 347.33325 133.820142 
L 360.63885 133.820142 
L 360.63885 113.349988 
L 347.33325 113.349988 
L 347.33325 133.820142 
" clip-path="url(#p040fd7713b)" style="fill: #8c88bf"/>
    <path d="M 347.33325 113.349988 
L 360.63885 113.349988 
L 360.63885 92.879834 
L 347.33325 92.879834 
L 347.33325 113.349988 
" clip-path="url(#p040fd7713b)" style="fill: #7b72b4"/>
    <path d="M 347.33325 92.879834 
L 360.63885 92.879834 
L 360.63885 72.40968 
L 347.33325 72.40968 
L 347.33325 92.879834 
" clip-path="url(#p040fd7713b)" style="fill: #6d57a6"/>
    <path d="M 347.33325 72.40968 
L 360.63885 72.40968 
L 360.63885 51.939526 
L 347.33325 51.939526 
L 347.33325 72.40968 
" clip-path="url(#p040fd7713b)" style="fill: #603e9a"/>
    <path d="M 347.33325 51.939526 
L 360.63885 51.939526 
L 360.63885 31.469373 
L 347.33325 31.469373 
L 347.33325 51.939526 
" clip-path="url(#p040fd7713b)" style="fill: #52238d"/>
    <path d="M 347.33325 31.469373 
L 360.63885 31.469373 
L 360.63885 10.999219 
L 347.33325 10.999219 
L 347.33325 31.469373 
" clip-path="url(#p040fd7713b)" style="fill: #450b82"/>
   </g>
   <g id="matplotlib.axis_3"/>
   <g id="matplotlib.axis_4">
    <g id="ytick_7">
     <g id="line2d_13">
      <defs>
       <path id="m6293e8f039" d="M 0 0 
L 3.5 0 
" style="stroke: #000000; stroke-width: 0.8"/>
      </defs>
      <g>
       <use xlink:href="#m6293e8f039" x="360.63885" y="277.111219" style="stroke: #000000; stroke-width: 0.8"/>
      </g>
     </g>
     <g id="text_15">
      <!-- 0 -->
      <g transform="translate(367.63885 280.910437) scale(0.1 -0.1)">
       <use xlink:href="#DejaVuSans-30"/>
      </g>
     </g>
    </g>
    <g id="ytick_8">
     <g id="line2d_14">
      <g>
       <use xlink:href="#m6293e8f039" x="360.63885" y="236.170911" style="stroke: #000000; stroke-width: 0.8"/>
      </g>
     </g>
     <g id="text_16">
      <!-- 5 -->
      <g transform="translate(367.63885 239.97013) scale(0.1 -0.1)">
       <defs>
        <path id="DejaVuSans-35" d="M 691 4666 
L 3169 4666 
L 3169 4134 
L 1269 4134 
L 1269 2991 
Q 1406 3038 1543 3061 
Q 1681 3084 1819 3084 
Q 2600 3084 3056 2656 
Q 3513 2228 3513 1497 
Q 3513 744 3044 326 
Q 2575 -91 1722 -91 
Q 1428 -91 1123 -41 
Q 819 9 494 109 
L 494 744 
Q 775 591 1075 516 
Q 1375 441 1709 441 
Q 2250 441 2565 725 
Q 2881 1009 2881 1497 
Q 2881 1984 2565 2268 
Q 2250 2553 1709 2553 
Q 1456 2553 1204 2497 
Q 953 2441 691 2322 
L 691 4666 
z
" transform="scale(0.015625)"/>
       </defs>
       <use xlink:href="#DejaVuSans-35"/>
      </g>
     </g>
    </g>
    <g id="ytick_9">
     <g id="line2d_15">
      <g>
       <use xlink:href="#m6293e8f039" x="360.63885" y="195.230603" style="stroke: #000000; stroke-width: 0.8"/>
      </g>
     </g>
     <g id="text_17">
      <!-- 10 -->
      <g transform="translate(367.63885 199.029822) scale(0.1 -0.1)">
       <use xlink:href="#DejaVuSans-31"/>
       <use xlink:href="#DejaVuSans-30" x="63.623047"/>
      </g>
     </g>
    </g>
    <g id="ytick_10">
     <g id="line2d_16">
      <g>
       <use xlink:href="#m6293e8f039" x="360.63885" y="154.290296" style="stroke: #000000; stroke-width: 0.8"/>
      </g>
     </g>
     <g id="text_18">
      <!-- 15 -->
      <g transform="translate(367.63885 158.089514) scale(0.1 -0.1)">
       <use xlink:href="#DejaVuSans-31"/>
       <use xlink:href="#DejaVuSans-35" x="63.623047"/>
      </g>
     </g>
    </g>
    <g id="ytick_11">
     <g id="line2d_17">
      <g>
       <use xlink:href="#m6293e8f039" x="360.63885" y="113.349988" style="stroke: #000000; stroke-width: 0.8"/>
      </g>
     </g>
     <g id="text_19">
      <!-- 20 -->
      <g transform="translate(367.63885 117.149207) scale(0.1 -0.1)">
       <use xlink:href="#DejaVuSans-32"/>
       <use xlink:href="#DejaVuSans-30" x="63.623047"/>
      </g>
     </g>
    </g>
    <g id="ytick_12">
     <g id="line2d_18">
      <g>
       <use xlink:href="#m6293e8f039" x="360.63885" y="72.40968" style="stroke: #000000; stroke-width: 0.8"/>
      </g>
     </g>
     <g id="text_20">
      <!-- 25 -->
      <g transform="translate(367.63885 76.208899) scale(0.1 -0.1)">
       <use xlink:href="#DejaVuSans-32"/>
       <use xlink:href="#DejaVuSans-35" x="63.623047"/>
      </g>
     </g>
    </g>
    <g id="ytick_13">
     <g id="line2d_19">
      <g>
       <use xlink:href="#m6293e8f039" x="360.63885" y="31.469373" style="stroke: #000000; stroke-width: 0.8"/>
      </g>
     </g>
     <g id="text_21">
      <!-- 30 -->
      <g transform="translate(367.63885 35.268591) scale(0.1 -0.1)">
       <defs>
        <path id="DejaVuSans-33" d="M 2597 2516 
Q 3050 2419 3304 2112 
Q 3559 1806 3559 1356 
Q 3559 666 3084 287 
Q 2609 -91 1734 -91 
Q 1441 -91 1130 -33 
Q 819 25 488 141 
L 488 750 
Q 750 597 1062 519 
Q 1375 441 1716 441 
Q 2309 441 2620 675 
Q 2931 909 2931 1356 
Q 2931 1769 2642 2001 
Q 2353 2234 1838 2234 
L 1294 2234 
L 1294 2753 
L 1863 2753 
Q 2328 2753 2575 2939 
Q 2822 3125 2822 3475 
Q 2822 3834 2567 4026 
Q 2313 4219 1838 4219 
Q 1578 4219 1281 4162 
Q 984 4106 628 3988 
L 628 4550 
Q 988 4650 1302 4700 
Q 1616 4750 1894 4750 
Q 2613 4750 3031 4423 
Q 3450 4097 3450 3541 
Q 3450 3153 3228 2886 
Q 3006 2619 2597 2516 
z
" transform="scale(0.015625)"/>
       </defs>
       <use xlink:href="#DejaVuSans-33"/>
       <use xlink:href="#DejaVuSans-30" x="63.623047"/>
      </g>
     </g>
    </g>
    <g id="text_22">
     <!-- Vaccinations in group 1 (%) -->
     <g transform="translate(391.962288 212.721625) rotate(-90) scale(0.1 -0.1)">
      <defs>
       <path id="DejaVuSans-73" d="M 2834 3397 
L 2834 2853 
Q 2591 2978 2328 3040 
Q 2066 3103 1784 3103 
Q 1356 3103 1142 2972 
Q 928 2841 928 2578 
Q 928 2378 1081 2264 
Q 1234 2150 1697 2047 
L 1894 2003 
Q 2506 1872 2764 1633 
Q 3022 1394 3022 966 
Q 3022 478 2636 193 
Q 2250 -91 1575 -91 
Q 1294 -91 989 -36 
Q 684 19 347 128 
L 347 722 
Q 666 556 975 473 
Q 1284 391 1588 391 
Q 1994 391 2212 530 
Q 2431 669 2431 922 
Q 2431 1156 2273 1281 
Q 2116 1406 1581 1522 
L 1381 1569 
Q 847 1681 609 1914 
Q 372 2147 372 2553 
Q 372 3047 722 3315 
Q 1072 3584 1716 3584 
Q 2034 3584 2315 3537 
Q 2597 3491 2834 3397 
z
" transform="scale(0.015625)"/>
       <path id="DejaVuSans-67" d="M 2906 1791 
Q 2906 2416 2648 2759 
Q 2391 3103 1925 3103 
Q 1463 3103 1205 2759 
Q 947 2416 947 1791 
Q 947 1169 1205 825 
Q 1463 481 1925 481 
Q 2391 481 2648 825 
Q 2906 1169 2906 1791 
z
M 3481 434 
Q 3481 -459 3084 -895 
Q 2688 -1331 1869 -1331 
Q 1566 -1331 1297 -1286 
Q 1028 -1241 775 -1147 
L 775 -588 
Q 1028 -725 1275 -790 
Q 1522 -856 1778 -856 
Q 2344 -856 2625 -561 
Q 2906 -266 2906 331 
L 2906 616 
Q 2728 306 2450 153 
Q 2172 0 1784 0 
Q 1141 0 747 490 
Q 353 981 353 1791 
Q 353 2603 747 3093 
Q 1141 3584 1784 3584 
Q 2172 3584 2450 3431 
Q 2728 3278 2906 2969 
L 2906 3500 
L 3481 3500 
L 3481 434 
z
" transform="scale(0.015625)"/>
       <path id="DejaVuSans-25" d="M 4653 2053 
Q 4381 2053 4226 1822 
Q 4072 1591 4072 1178 
Q 4072 772 4226 539 
Q 4381 306 4653 306 
Q 4919 306 5073 539 
Q 5228 772 5228 1178 
Q 5228 1588 5073 1820 
Q 4919 2053 4653 2053 
z
M 4653 2450 
Q 5147 2450 5437 2106 
Q 5728 1763 5728 1178 
Q 5728 594 5436 251 
Q 5144 -91 4653 -91 
Q 4153 -91 3862 251 
Q 3572 594 3572 1178 
Q 3572 1766 3864 2108 
Q 4156 2450 4653 2450 
z
M 1428 4353 
Q 1159 4353 1004 4120 
Q 850 3888 850 3481 
Q 850 3069 1003 2837 
Q 1156 2606 1428 2606 
Q 1700 2606 1854 2837 
Q 2009 3069 2009 3481 
Q 2009 3884 1853 4118 
Q 1697 4353 1428 4353 
z
M 4250 4750 
L 4750 4750 
L 1831 -91 
L 1331 -91 
L 4250 4750 
z
M 1428 4750 
Q 1922 4750 2215 4408 
Q 2509 4066 2509 3481 
Q 2509 2891 2217 2550 
Q 1925 2209 1428 2209 
Q 931 2209 642 2551 
Q 353 2894 353 3481 
Q 353 4063 643 4406 
Q 934 4750 1428 4750 
z
" transform="scale(0.015625)"/>
      </defs>
      <use xlink:href="#DejaVuSans-56"/>
      <use xlink:href="#DejaVuSans-61" x="60.658203"/>
      <use xlink:href="#DejaVuSans-63" x="121.9375"/>
      <use xlink:href="#DejaVuSans-63" x="176.917969"/>
      <use xlink:href="#DejaVuSans-69" x="231.898438"/>
      <use xlink:href="#DejaVuSans-6e" x="259.681641"/>
      <use xlink:href="#DejaVuSans-61" x="323.060547"/>
      <use xlink:href="#DejaVuSans-74" x="384.339844"/>
      <use xlink:href="#DejaVuSans-69" x="423.548828"/>
      <use xlink:href="#DejaVuSans-6f" x="451.332031"/>
      <use xlink:href="#DejaVuSans-6e" x="512.513672"/>
      <use xlink:href="#DejaVuSans-73" x="575.892578"/>
      <use xlink:href="#DejaVuSans-20" x="627.992188"/>
      <use xlink:href="#DejaVuSans-69" x="659.779297"/>
      <use xlink:href="#DejaVuSans-6e" x="687.5625"/>
      <use xlink:href="#DejaVuSans-20" x="750.941406"/>
      <use xlink:href="#DejaVuSans-67" x="782.728516"/>
      <use xlink:href="#DejaVuSans-72" x="846.205078"/>
      <use xlink:href="#DejaVuSans-6f" x="885.068359"/>
      <use xlink:href="#DejaVuSans-75" x="946.25"/>
      <use xlink:href="#DejaVuSans-70" x="1009.628906"/>
      <use xlink:href="#DejaVuSans-20" x="1073.105469"/>
      <use xlink:href="#DejaVuSans-31" x="1104.892578"/>
      <use xlink:href="#DejaVuSans-20" x="1168.515625"/>
      <use xlink:href="#DejaVuSans-28" x="1200.302734"/>
      <use xlink:href="#DejaVuSans-25" x="1239.316406"/>
      <use xlink:href="#DejaVuSans-29" x="1334.335938"/>
     </g>
    </g>
   </g>
   <g id="LineCollection_1"/>
   <g id="patch_8">
    <path d="M 347.33325 277.111219 
L 353.98605 277.111219 
L 360.63885 277.111219 
L 360.63885 10.999219 
L 353.98605 10.999219 
L 347.33325 10.999219 
L 347.33325 277.111219 
z
" style="fill: none; stroke: #000000; stroke-width: 0.8; stroke-linejoin: miter; stroke-linecap: square"/>
   </g>
  </g>
 </g>
 <defs>
  <clipPath id="pbae29ca7b6">
   <rect x="43.78125" y="10.999219" width="285.696" height="266.112"/>
  </clipPath>
  <clipPath id="p040fd7713b">
   <rect x="347.33325" y="10.999219" width="13.3056" height="266.112"/>
  </clipPath>
 </defs>
</svg>
