<?xml version="1.0" encoding="utf-8" standalone="no"?>
<!DOCTYPE svg PUBLIC "-//W3C//DTD SVG 1.1//EN"
  "http://www.w3.org/Graphics/SVG/1.1/DTD/svg11.dtd">
<svg xmlns:xlink="http://www.w3.org/1999/xlink" width="426.691975pt" height="314.667469pt" viewBox="0 0 426.691975 314.667469" xmlns="http://www.w3.org/2000/svg" version="1.1">
 <metadata>
  <rdf:RDF xmlns:dc="http://purl.org/dc/elements/1.1/" xmlns:cc="http://creativecommons.org/ns#" xmlns:rdf="http://www.w3.org/1999/02/22-rdf-syntax-ns#">
   <cc:Work>
    <dc:type rdf:resource="http://purl.org/dc/dcmitype/StillImage"/>
    <dc:date>2024-10-31T14:27:30.788857</dc:date>
    <dc:format>image/svg+xml</dc:format>
    <dc:creator>
     <cc:Agent>
      <dc:title>Matplotlib v3.9.0, https://matplotlib.org/</dc:title>
     </cc:Agent>
    </dc:creator>
   </cc:Work>
  </rdf:RDF>
 </metadata>
 <defs>
  <style type="text/css">*{stroke-linejoin: round; stroke-linecap: butt}</style>
 </defs>
 <g id="figure_1">
  <g id="patch_1">
   <path d="M 0 314.667469 
L 426.691975 314.667469 
L 426.691975 0 
L 0 0 
z
" style="fill: #ffffff"/>
  </g>
  <g id="axes_1">
   <g id="patch_2">
    <path d="M 43.78125 277.111219 
L 329.47725 277.111219 
L 329.47725 10.999219 
L 43.78125 10.999219 
z
" style="fill: #ffffff"/>
   </g>
   <g id="QuadContourSet_1">
    <path d="M 50.92365 277.111219 
L 58.06605 277.111219 
L 65.20845 277.111219 
L 72.35085 277.111219 
L 79.49325 277.111219 
L 86.63565 277.111219 
L 93.77805 277.111219 
L 100.92045 277.111219 
L 108.06285 277.111219 
L 115.20525 277.111219 
L 122.34765 277.111219 
L 129.49005 277.111219 
L 136.63245 277.111219 
L 143.77485 277.111219 
L 150.91725 277.111219 
L 158.05965 277.111219 
L 165.20205 277.111219 
L 172.34445 277.111219 
L 179.48685 277.111219 
L 186.62925 277.111219 
L 193.77165 277.111219 
L 200.91405 277.111219 
L 208.05645 277.111219 
L 215.19885 277.111219 
L 222.34125 277.111219 
L 229.48365 277.111219 
L 236.62605 277.111219 
L 243.76845 277.111219 
L 250.91085 277.111219 
L 258.05325 277.111219 
L 265.19565 277.111219 
L 272.33805 277.111219 
L 279.48045 277.111219 
L 286.62285 277.111219 
L 293.76525 277.111219 
L 300.90765 277.111219 
L 308.05005 277.111219 
L 315.19245 277.111219 
L 315.227115 277.111219 
L 315.19245 277.054646 
L 308.05005 277.054646 
L 300.968386 270.458419 
L 300.968386 263.805619 
L 300.90765 263.749046 
L 293.76525 263.749046 
L 286.62285 262.664811 
L 279.48045 262.664811 
L 272.33805 262.664811 
L 265.19565 263.00184 
L 258.05325 263.408622 
L 251.337062 257.152819 
L 250.91085 256.755822 
L 244.194662 250.500019 
L 243.76845 250.103022 
L 236.62605 250.103022 
L 229.48365 250.103022 
L 222.34125 250.103022 
L 215.625062 243.847219 
L 215.625062 237.194419 
L 215.19885 236.797422 
L 208.05645 236.797422 
L 200.91405 236.797422 
L 193.77165 236.797422 
L 187.055462 230.541619 
L 187.055462 223.888819 
L 186.62925 223.491822 
L 179.48685 223.491822 
L 172.34445 223.491822 
L 165.628262 217.236019 
L 165.20205 216.839022 
L 158.485862 210.583219 
L 158.05965 210.186222 
L 150.91725 210.186222 
L 144.201062 203.930419 
L 144.201062 197.277619 
L 143.77485 196.880622 
L 136.63245 196.880622 
L 129.49005 196.880622 
L 122.773862 190.624819 
L 122.34765 190.227822 
L 115.631462 183.972019 
L 115.20525 183.575022 
L 108.06285 183.575022 
L 100.92045 183.575022 
L 94.204262 177.319219 
L 93.77805 176.922222 
L 87.061862 170.666419 
L 86.63565 170.269422 
L 79.49325 170.269422 
L 72.35085 170.269422 
L 65.20845 170.269422 
L 58.492262 164.013619 
L 58.492262 157.360819 
L 58.06605 156.963822 
L 50.92365 156.963822 
L 43.78125 156.963822 
L 43.78125 157.360819 
L 43.78125 164.013619 
L 43.78125 170.666419 
L 43.78125 177.319219 
L 43.78125 183.972019 
L 43.78125 190.624819 
L 43.78125 197.277619 
L 43.78125 203.930419 
L 43.78125 210.583219 
L 43.78125 217.236019 
L 43.78125 223.888819 
L 43.78125 230.541619 
L 43.78125 237.194419 
L 43.78125 243.847219 
L 43.78125 250.500019 
L 43.78125 257.152819 
L 43.78125 263.805619 
L 43.78125 270.458419 
L 43.78125 277.111219 
z
" clip-path="url(#pc60e2497ec)" style="fill: #fff0e8"/>
    <path d="M 308.05005 277.054646 
L 315.19245 277.054646 
L 315.227115 277.111219 
L 316.06796 277.111219 
L 315.19245 275.682406 
L 308.05005 275.682406 
L 302.441613 270.458419 
L 302.441613 263.805619 
L 300.90765 262.376806 
L 293.76525 262.376806 
L 287.86418 257.152819 
L 287.491509 250.500019 
L 286.62285 249.690905 
L 279.906988 243.847219 
L 279.48045 243.476075 
L 272.33805 238.209504 
L 271.248261 237.194419 
L 265.19565 231.556704 
L 264.105861 230.541619 
L 258.05325 224.903904 
L 250.91085 224.903904 
L 243.76845 224.903904 
L 242.678661 223.888819 
L 242.678661 217.236019 
L 236.62605 211.598304 
L 229.48365 211.598304 
L 228.393861 210.583219 
L 222.34125 206.06653 
L 220.047936 203.930419 
L 215.19885 198.292704 
L 208.05645 198.292704 
L 200.91405 198.292704 
L 199.824261 197.277619 
L 193.77165 191.639904 
L 192.681861 190.624819 
L 186.62925 184.987104 
L 179.48685 184.987104 
L 172.34445 184.987104 
L 171.254661 183.972019 
L 165.20205 178.334304 
L 164.112261 177.319219 
L 158.05965 171.681504 
L 156.969861 170.666419 
L 150.91725 166.14973 
L 148.623936 164.013619 
L 143.77485 158.375904 
L 136.63245 158.375904 
L 129.49005 158.375904 
L 128.400261 157.360819 
L 128.400261 150.708019 
L 122.34765 145.070304 
L 115.20525 145.070304 
L 108.06285 145.070304 
L 100.92045 145.070304 
L 99.830661 144.055219 
L 99.830661 137.402419 
L 93.77805 131.764704 
L 86.63565 131.764704 
L 79.49325 131.764704 
L 72.35085 131.764704 
L 71.261061 130.749619 
L 71.261061 124.096819 
L 65.20845 118.459104 
L 58.06605 118.459104 
L 56.976261 117.444019 
L 50.92365 111.806304 
L 49.833861 110.791219 
L 43.78125 105.153504 
L 43.78125 110.791219 
L 43.78125 117.444019 
L 43.78125 124.096819 
L 43.78125 130.749619 
L 43.78125 137.402419 
L 43.78125 144.055219 
L 43.78125 150.708019 
L 43.78125 156.963822 
L 50.92365 156.963822 
L 58.06605 156.963822 
L 58.492262 157.360819 
L 58.492262 164.013619 
L 65.20845 170.269422 
L 72.35085 170.269422 
L 79.49325 170.269422 
L 86.63565 170.269422 
L 87.061862 170.666419 
L 93.77805 176.922222 
L 94.204262 177.319219 
L 100.92045 183.575022 
L 108.06285 183.575022 
L 115.20525 183.575022 
L 115.631462 183.972019 
L 122.34765 190.227822 
L 122.773862 190.624819 
L 129.49005 196.880622 
L 136.63245 196.880622 
L 143.77485 196.880622 
L 144.201062 197.277619 
L 144.201062 203.930419 
L 150.91725 210.186222 
L 158.05965 210.186222 
L 158.485862 210.583219 
L 165.20205 216.839022 
L 165.628262 217.236019 
L 172.34445 223.491822 
L 179.48685 223.491822 
L 186.62925 223.491822 
L 187.055462 223.888819 
L 187.055462 230.541619 
L 193.77165 236.797422 
L 200.91405 236.797422 
L 208.05645 236.797422 
L 215.19885 236.797422 
L 215.625062 237.194419 
L 215.625062 243.847219 
L 222.34125 250.103022 
L 229.48365 250.103022 
L 236.62605 250.103022 
L 243.76845 250.103022 
L 244.194662 250.500019 
L 250.91085 256.755822 
L 251.337062 257.152819 
L 258.05325 263.408622 
L 265.19565 263.00184 
L 272.33805 262.664811 
L 279.48045 262.664811 
L 286.62285 262.664811 
L 293.76525 263.749046 
L 300.90765 263.749046 
L 300.968386 263.805619 
L 300.968386 270.458419 
z
" clip-path="url(#pc60e2497ec)" style="fill: #fee5d8"/>
    <path d="M 308.05005 275.682406 
L 315.19245 275.682406 
L 316.06796 277.111219 
L 316.908806 277.111219 
L 315.19245 274.310167 
L 308.05005 274.310167 
L 303.91484 270.458419 
L 303.91484 263.805619 
L 300.90765 261.004567 
L 293.76525 261.004567 
L 289.414276 257.152819 
L 289.041605 250.500019 
L 286.62285 248.247066 
L 281.566322 243.847219 
L 279.48045 242.032235 
L 273.920585 237.194419 
L 272.33805 235.720364 
L 266.778185 230.541619 
L 265.19565 229.067564 
L 259.635785 223.888819 
L 258.05325 222.414764 
L 252.493385 217.236019 
L 250.91085 215.761964 
L 245.350985 210.583219 
L 243.76845 209.109164 
L 237.672357 203.930419 
L 236.62605 203.041561 
L 229.841101 197.277619 
L 229.48365 196.902907 
L 222.743538 190.624819 
L 222.34125 190.250107 
L 215.601138 183.972019 
L 215.19885 183.597307 
L 208.458738 177.319219 
L 208.05645 176.944507 
L 201.316338 170.666419 
L 200.91405 170.291707 
L 193.77165 167.723691 
L 186.62925 167.723691 
L 182.646142 164.013619 
L 179.48685 161.070891 
L 175.503742 157.360819 
L 172.34445 154.418091 
L 165.20205 154.418091 
L 158.05965 154.418091 
L 154.076542 150.708019 
L 150.91725 147.765291 
L 146.934142 144.055219 
L 143.77485 141.112491 
L 139.102196 137.402419 
L 136.63245 136.343825 
L 129.49005 136.343825 
L 122.34765 132.752433 
L 118.364542 130.749619 
L 115.20525 127.806891 
L 110.532596 124.096819 
L 108.06285 121.79637 
L 104.079742 117.444019 
L 100.92045 114.501291 
L 93.77805 114.501291 
L 86.63565 114.501291 
L 82.652542 110.791219 
L 79.49325 107.848491 
L 75.510142 104.138419 
L 72.35085 101.195691 
L 65.20845 101.195691 
L 58.06605 101.195691 
L 54.082942 97.485619 
L 50.92365 94.542891 
L 46.940542 90.832819 
L 43.78125 87.890091 
L 43.78125 90.832819 
L 43.78125 97.485619 
L 43.78125 104.138419 
L 43.78125 105.153504 
L 49.833861 110.791219 
L 50.92365 111.806304 
L 56.976261 117.444019 
L 58.06605 118.459104 
L 65.20845 118.459104 
L 71.261061 124.096819 
L 71.261061 130.749619 
L 72.35085 131.764704 
L 79.49325 131.764704 
L 86.63565 131.764704 
L 93.77805 131.764704 
L 99.830661 137.402419 
L 99.830661 144.055219 
L 100.92045 145.070304 
L 108.06285 145.070304 
L 115.20525 145.070304 
L 122.34765 145.070304 
L 128.400261 150.708019 
L 128.400261 157.360819 
L 129.49005 158.375904 
L 136.63245 158.375904 
L 143.77485 158.375904 
L 148.623936 164.013619 
L 150.91725 166.14973 
L 156.969861 170.666419 
L 158.05965 171.681504 
L 164.112261 177.319219 
L 165.20205 178.334304 
L 171.254661 183.972019 
L 172.34445 184.987104 
L 179.48685 184.987104 
L 186.62925 184.987104 
L 192.681861 190.624819 
L 193.77165 191.639904 
L 199.824261 197.277619 
L 200.91405 198.292704 
L 208.05645 198.292704 
L 215.19885 198.292704 
L 220.047936 203.930419 
L 222.34125 206.06653 
L 228.393861 210.583219 
L 229.48365 211.598304 
L 236.62605 211.598304 
L 242.678661 217.236019 
L 242.678661 223.888819 
L 243.76845 224.903904 
L 250.91085 224.903904 
L 258.05325 224.903904 
L 264.105861 230.541619 
L 265.19565 231.556704 
L 271.248261 237.194419 
L 272.33805 238.209504 
L 279.48045 243.476075 
L 279.906988 243.847219 
L 286.62285 249.690905 
L 287.491509 250.500019 
L 287.86418 257.152819 
L 293.76525 262.376806 
L 300.90765 262.376806 
L 302.441613 263.805619 
L 302.441613 270.458419 
z
" clip-path="url(#pc60e2497ec)" style="fill: #fdd4c2"/>
    <path d="M 308.05005 274.310167 
L 315.19245 274.310167 
L 316.908806 277.111219 
L 317.749651 277.111219 
L 315.19245 272.937927 
L 308.05005 272.937927 
L 305.388067 270.458419 
L 305.388067 263.805619 
L 300.90765 259.632327 
L 293.76525 259.632327 
L 290.964372 257.152819 
L 290.591701 250.500019 
L 286.62285 246.803226 
L 283.225656 243.847219 
L 279.48045 240.588396 
L 275.579919 237.194419 
L 272.33805 234.174775 
L 268.437519 230.541619 
L 265.19565 227.521975 
L 261.295119 223.888819 
L 258.05325 220.869175 
L 254.152719 217.236019 
L 250.91085 214.216375 
L 247.010319 210.583219 
L 243.76845 207.563575 
L 239.491728 203.930419 
L 236.62605 201.495972 
L 231.660471 197.277619 
L 229.48365 194.99568 
L 224.791124 190.624819 
L 222.34125 188.34288 
L 217.648724 183.972019 
L 215.19885 181.69008 
L 210.506324 177.319219 
L 208.05645 175.03728 
L 203.363924 170.666419 
L 200.91405 168.38448 
L 195.536814 164.013619 
L 193.77165 162.578813 
L 187.352231 157.360819 
L 186.62925 156.687397 
L 180.209831 150.708019 
L 179.48685 150.034597 
L 173.067431 144.055219 
L 172.34445 143.381797 
L 165.20205 143.381797 
L 158.782631 137.402419 
L 158.782631 130.749619 
L 158.05965 129.953137 
L 151.772348 124.096819 
L 150.91725 123.300337 
L 144.629948 117.444019 
L 143.77485 116.647537 
L 137.487548 110.791219 
L 136.63245 109.994737 
L 130.345148 104.138419 
L 129.49005 103.341937 
L 123.202748 97.485619 
L 122.34765 96.689137 
L 116.060348 90.832819 
L 115.20525 90.036337 
L 108.917948 84.180019 
L 108.06285 83.383537 
L 101.775548 77.527219 
L 100.92045 76.730737 
L 93.77805 76.730737 
L 87.490748 70.874419 
L 87.490748 64.221619 
L 86.63565 63.425137 
L 80.348348 57.568819 
L 79.49325 56.772337 
L 73.205948 50.916019 
L 72.35085 50.119537 
L 65.20845 50.119537 
L 58.921148 44.263219 
L 58.921148 37.610419 
L 58.06605 36.813937 
L 51.778748 30.957619 
L 50.92365 30.161137 
L 44.636348 24.304819 
L 43.78125 24.121254 
L 43.78125 24.304819 
L 43.78125 30.957619 
L 43.78125 37.610419 
L 43.78125 44.263219 
L 43.78125 50.916019 
L 43.78125 57.568819 
L 43.78125 64.221619 
L 43.78125 70.874419 
L 43.78125 77.527219 
L 43.78125 84.180019 
L 43.78125 87.890091 
L 46.940542 90.832819 
L 50.92365 94.542891 
L 54.082942 97.485619 
L 58.06605 101.195691 
L 65.20845 101.195691 
L 72.35085 101.195691 
L 75.510142 104.138419 
L 79.49325 107.848491 
L 82.652542 110.791219 
L 86.63565 114.501291 
L 93.77805 114.501291 
L 100.92045 114.501291 
L 104.079742 117.444019 
L 108.06285 121.79637 
L 110.532596 124.096819 
L 115.20525 127.806891 
L 118.364542 130.749619 
L 122.34765 132.752433 
L 129.49005 136.343825 
L 136.63245 136.343825 
L 139.102196 137.402419 
L 143.77485 141.112491 
L 146.934142 144.055219 
L 150.91725 147.765291 
L 154.076542 150.708019 
L 158.05965 154.418091 
L 165.20205 154.418091 
L 172.34445 154.418091 
L 175.503742 157.360819 
L 179.48685 161.070891 
L 182.646142 164.013619 
L 186.62925 167.723691 
L 193.77165 167.723691 
L 200.91405 170.291707 
L 201.316338 170.666419 
L 208.05645 176.944507 
L 208.458738 177.319219 
L 215.19885 183.597307 
L 215.601138 183.972019 
L 222.34125 190.250107 
L 222.743538 190.624819 
L 229.48365 196.902907 
L 229.841101 197.277619 
L 236.62605 203.041561 
L 237.672357 203.930419 
L 243.76845 209.109164 
L 245.350985 210.583219 
L 250.91085 215.761964 
L 252.493385 217.236019 
L 258.05325 222.414764 
L 259.635785 223.888819 
L 265.19565 229.067564 
L 266.778185 230.541619 
L 272.33805 235.720364 
L 273.920585 237.194419 
L 279.48045 242.032235 
L 281.566322 243.847219 
L 286.62285 248.247066 
L 289.041605 250.500019 
L 289.414276 257.152819 
L 293.76525 261.004567 
L 300.90765 261.004567 
L 303.91484 263.805619 
L 303.91484 270.458419 
z
" clip-path="url(#pc60e2497ec)" style="fill: #fcc1a8"/>
    <path d="M 308.05005 272.937927 
L 315.19245 272.937927 
L 317.749651 277.111219 
L 318.590496 277.111219 
L 315.19245 271.565687 
L 308.05005 271.565687 
L 306.861294 270.458419 
L 306.861294 263.805619 
L 300.90765 258.260087 
L 293.76525 258.260087 
L 292.514468 257.152819 
L 292.141797 250.500019 
L 286.62285 245.359387 
L 284.88499 243.847219 
L 279.48045 239.144556 
L 277.239253 237.194419 
L 272.33805 232.629185 
L 270.096853 230.541619 
L 265.19565 225.976385 
L 262.954453 223.888819 
L 258.05325 219.323585 
L 255.812053 217.236019 
L 250.91085 212.670785 
L 248.669653 210.583219 
L 243.76845 206.017985 
L 241.311098 203.930419 
L 236.62605 199.950382 
L 233.479841 197.277619 
L 229.48365 193.088453 
L 226.838709 190.624819 
L 222.34125 186.435653 
L 219.696309 183.972019 
L 215.19885 179.782853 
L 212.553909 177.319219 
L 208.05645 173.130053 
L 205.411509 170.666419 
L 200.91405 166.477253 
L 197.883173 164.013619 
L 193.77165 160.671587 
L 189.69859 157.360819 
L 186.62925 154.501877 
L 182.55619 150.708019 
L 179.48685 147.849077 
L 175.41379 144.055219 
L 172.34445 141.196277 
L 165.20205 141.196277 
L 161.12899 137.402419 
L 161.12899 130.749619 
L 158.05965 127.368239 
L 154.547476 124.096819 
L 150.91725 120.715439 
L 147.405076 117.444019 
L 143.77485 114.062639 
L 140.262676 110.791219 
L 136.63245 107.409839 
L 133.120276 104.138419 
L 129.49005 100.757039 
L 125.977876 97.485619 
L 122.34765 94.104239 
L 118.835476 90.832819 
L 115.20525 87.451439 
L 111.693076 84.180019 
L 108.06285 80.798639 
L 104.550676 77.527219 
L 100.92045 74.145839 
L 93.77805 74.145839 
L 90.265876 70.874419 
L 90.265876 64.221619 
L 86.63565 60.840239 
L 83.123476 57.568819 
L 79.49325 54.187439 
L 75.981076 50.916019 
L 72.35085 47.534639 
L 65.20845 47.534639 
L 61.696276 44.263219 
L 61.696276 37.610419 
L 58.06605 34.229039 
L 54.553876 30.957619 
L 50.92365 27.576239 
L 47.411476 24.304819 
L 43.78125 23.525514 
L 43.78125 24.121254 
L 44.636348 24.304819 
L 50.92365 30.161137 
L 51.778748 30.957619 
L 58.06605 36.813937 
L 58.921148 37.610419 
L 58.921148 44.263219 
L 65.20845 50.119537 
L 72.35085 50.119537 
L 73.205948 50.916019 
L 79.49325 56.772337 
L 80.348348 57.568819 
L 86.63565 63.425137 
L 87.490748 64.221619 
L 87.490748 70.874419 
L 93.77805 76.730737 
L 100.92045 76.730737 
L 101.775548 77.527219 
L 108.06285 83.383537 
L 108.917948 84.180019 
L 115.20525 90.036337 
L 116.060348 90.832819 
L 122.34765 96.689137 
L 123.202748 97.485619 
L 129.49005 103.341937 
L 130.345148 104.138419 
L 136.63245 109.994737 
L 137.487548 110.791219 
L 143.77485 116.647537 
L 144.629948 117.444019 
L 150.91725 123.300337 
L 151.772348 124.096819 
L 158.05965 129.953137 
L 158.782631 130.749619 
L 158.782631 137.402419 
L 165.20205 143.381797 
L 172.34445 143.381797 
L 173.067431 144.055219 
L 179.48685 150.034597 
L 180.209831 150.708019 
L 186.62925 156.687397 
L 187.352231 157.360819 
L 193.77165 162.578813 
L 195.536814 164.013619 
L 200.91405 168.38448 
L 203.363924 170.666419 
L 208.05645 175.03728 
L 210.506324 177.319219 
L 215.19885 181.69008 
L 217.648724 183.972019 
L 222.34125 188.34288 
L 224.791124 190.624819 
L 229.48365 194.99568 
L 231.660471 197.277619 
L 236.62605 201.495972 
L 239.491728 203.930419 
L 243.76845 207.563575 
L 247.010319 210.583219 
L 250.91085 214.216375 
L 254.152719 217.236019 
L 258.05325 220.869175 
L 261.295119 223.888819 
L 265.19565 227.521975 
L 268.437519 230.541619 
L 272.33805 234.174775 
L 275.579919 237.194419 
L 279.48045 240.588396 
L 283.225656 243.847219 
L 286.62285 246.803226 
L 290.591701 250.500019 
L 290.964372 257.152819 
L 293.76525 259.632327 
L 300.90765 259.632327 
L 305.388067 263.805619 
L 305.388067 270.458419 
z
" clip-path="url(#pc60e2497ec)" style="fill: #fcab8f"/>
    <path d="M 308.05005 271.565687 
L 315.19245 271.565687 
L 318.590496 277.111219 
L 319.431342 277.111219 
L 315.570697 270.810738 
L 315.19245 270.458419 
L 308.05005 263.805619 
L 300.90765 257.152819 
L 300.90765 256.887847 
L 293.76525 251.809558 
L 293.691893 250.500019 
L 286.62285 243.915547 
L 286.544324 243.847219 
L 279.48045 237.700716 
L 278.898587 237.194419 
L 272.33805 231.083596 
L 271.756187 230.541619 
L 265.19565 224.430796 
L 264.613787 223.888819 
L 258.05325 217.777996 
L 257.471387 217.236019 
L 250.91085 211.125196 
L 250.328987 210.583219 
L 243.76845 204.472396 
L 243.130468 203.930419 
L 236.62605 198.404793 
L 235.299212 197.277619 
L 229.48365 191.181226 
L 228.886295 190.624819 
L 222.34125 184.528426 
L 221.743895 183.972019 
L 215.19885 177.875626 
L 214.601495 177.319219 
L 208.05645 171.222826 
L 207.459095 170.666419 
L 200.91405 164.570026 
L 200.229531 164.013619 
L 193.77165 158.76436 
L 192.044949 157.360819 
L 186.62925 152.316357 
L 184.902549 150.708019 
L 179.48685 145.663557 
L 177.760149 144.055219 
L 172.34445 139.010757 
L 165.20205 139.010757 
L 163.475349 137.402419 
L 163.475349 130.749619 
L 158.05965 124.783341 
L 157.322604 124.096819 
L 150.91725 118.130541 
L 150.180204 117.444019 
L 143.77485 111.477741 
L 143.037804 110.791219 
L 136.63245 104.824941 
L 135.895404 104.138419 
L 129.49005 98.172141 
L 128.753004 97.485619 
L 122.34765 91.519341 
L 121.610604 90.832819 
L 115.20525 84.866541 
L 114.468204 84.180019 
L 108.06285 78.213741 
L 107.325804 77.527219 
L 100.92045 71.560941 
L 93.77805 71.560941 
L 93.041004 70.874419 
L 93.041004 64.221619 
L 86.63565 58.255341 
L 85.898604 57.568819 
L 79.49325 51.602541 
L 78.756204 50.916019 
L 72.35085 44.949741 
L 65.20845 44.949741 
L 64.471404 44.263219 
L 64.471404 37.610419 
L 58.06605 31.644141 
L 57.329004 30.957619 
L 50.92365 24.991341 
L 50.186604 24.304819 
L 43.78125 22.929774 
L 43.78125 23.525514 
L 47.411476 24.304819 
L 50.92365 27.576239 
L 54.553876 30.957619 
L 58.06605 34.229039 
L 61.696276 37.610419 
L 61.696276 44.263219 
L 65.20845 47.534639 
L 72.35085 47.534639 
L 75.981076 50.916019 
L 79.49325 54.187439 
L 83.123476 57.568819 
L 86.63565 60.840239 
L 90.265876 64.221619 
L 90.265876 70.874419 
L 93.77805 74.145839 
L 100.92045 74.145839 
L 104.550676 77.527219 
L 108.06285 80.798639 
L 111.693076 84.180019 
L 115.20525 87.451439 
L 118.835476 90.832819 
L 122.34765 94.104239 
L 125.977876 97.485619 
L 129.49005 100.757039 
L 133.120276 104.138419 
L 136.63245 107.409839 
L 140.262676 110.791219 
L 143.77485 114.062639 
L 147.405076 117.444019 
L 150.91725 120.715439 
L 154.547476 124.096819 
L 158.05965 127.368239 
L 161.12899 130.749619 
L 161.12899 137.402419 
L 165.20205 141.196277 
L 172.34445 141.196277 
L 175.41379 144.055219 
L 179.48685 147.849077 
L 182.55619 150.708019 
L 186.62925 154.501877 
L 189.69859 157.360819 
L 193.77165 160.671587 
L 197.883173 164.013619 
L 200.91405 166.477253 
L 205.411509 170.666419 
L 208.05645 173.130053 
L 212.553909 177.319219 
L 215.19885 179.782853 
L 219.696309 183.972019 
L 222.34125 186.435653 
L 226.838709 190.624819 
L 229.48365 193.088453 
L 233.479841 197.277619 
L 236.62605 199.950382 
L 241.311098 203.930419 
L 243.76845 206.017985 
L 248.669653 210.583219 
L 250.91085 212.670785 
L 255.812053 217.236019 
L 258.05325 219.323585 
L 262.954453 223.888819 
L 265.19565 225.976385 
L 270.096853 230.541619 
L 272.33805 232.629185 
L 277.239253 237.194419 
L 279.48045 239.144556 
L 284.88499 243.847219 
L 286.62285 245.359387 
L 292.141797 250.500019 
L 292.514468 257.152819 
L 293.76525 258.260087 
L 300.90765 258.260087 
L 306.861294 263.805619 
L 306.861294 270.458419 
z
" clip-path="url(#pc60e2497ec)" style="fill: #fc9576"/>
    <path d="M 317.529571 272.635334 
L 315.570697 270.810738 
L 319.431342 277.111219 
L 320.272187 277.111219 
z
M 293.76525 251.809558 
L 300.90765 256.887847 
L 300.90765 255.515608 
L 295.241989 250.500019 
L 293.76525 249.124507 
L 288.099589 243.847219 
L 286.62285 243.847219 
L 279.48045 237.194419 
L 272.33805 230.541619 
L 272.33805 229.538007 
L 266.273121 223.888819 
L 265.19565 222.885207 
L 259.130721 217.236019 
L 258.05325 216.232407 
L 251.988321 210.583219 
L 250.91085 210.583219 
L 243.76845 203.930419 
L 236.62605 197.277619 
L 229.48365 190.624819 
L 222.34125 183.972019 
L 215.19885 177.319219 
L 208.05645 170.666419 
L 200.91405 164.013619 
L 200.91405 162.6628 
L 194.391308 157.360819 
L 193.77165 157.360819 
L 186.62925 150.708019 
L 186.62925 150.130838 
L 180.106508 144.055219 
L 179.48685 144.055219 
L 172.34445 137.402419 
L 172.34445 136.825238 
L 165.821708 130.749619 
L 165.20205 130.749619 
L 158.05965 124.096819 
L 150.91725 117.444019 
L 143.77485 110.791219 
L 136.63245 104.138419 
L 129.49005 97.485619 
L 122.34765 90.832819 
L 115.20525 84.180019 
L 115.20525 82.281644 
L 110.100932 77.527219 
L 108.06285 75.628844 
L 102.958532 70.874419 
L 100.92045 68.976044 
L 95.816132 64.221619 
L 93.77805 64.221619 
L 86.63565 57.568819 
L 79.49325 50.916019 
L 79.49325 49.017644 
L 74.388932 44.263219 
L 72.35085 42.364844 
L 67.246532 37.610419 
L 65.20845 37.610419 
L 58.06605 30.957619 
L 50.92365 24.304819 
L 50.313257 23.736268 
L 43.78125 22.334034 
L 43.78125 22.929774 
L 50.186604 24.304819 
L 50.92365 24.991341 
L 57.329004 30.957619 
L 58.06605 31.644141 
L 64.471404 37.610419 
L 64.471404 44.263219 
L 65.20845 44.949741 
L 72.35085 44.949741 
L 78.756204 50.916019 
L 79.49325 51.602541 
L 85.898604 57.568819 
L 86.63565 58.255341 
L 93.041004 64.221619 
L 93.041004 70.874419 
L 93.77805 71.560941 
L 100.92045 71.560941 
L 107.325804 77.527219 
L 108.06285 78.213741 
L 114.468204 84.180019 
L 115.20525 84.866541 
L 121.610604 90.832819 
L 122.34765 91.519341 
L 128.753004 97.485619 
L 129.49005 98.172141 
L 135.895404 104.138419 
L 136.63245 104.824941 
L 143.037804 110.791219 
L 143.77485 111.477741 
L 150.180204 117.444019 
L 150.91725 118.130541 
L 157.322604 124.096819 
L 158.05965 124.783341 
L 163.475349 130.749619 
L 163.475349 137.402419 
L 165.20205 139.010757 
L 172.34445 139.010757 
L 177.760149 144.055219 
L 179.48685 145.663557 
L 184.902549 150.708019 
L 186.62925 152.316357 
L 192.044949 157.360819 
L 193.77165 158.76436 
L 200.229531 164.013619 
L 200.91405 164.570026 
L 207.459095 170.666419 
L 208.05645 171.222826 
L 214.601495 177.319219 
L 215.19885 177.875626 
L 221.743895 183.972019 
L 222.34125 184.528426 
L 228.886295 190.624819 
L 229.48365 191.181226 
L 235.299212 197.277619 
L 236.62605 198.404793 
L 243.130468 203.930419 
L 243.76845 204.472396 
L 250.328987 210.583219 
L 250.91085 211.125196 
L 257.471387 217.236019 
L 258.05325 217.777996 
L 264.613787 223.888819 
L 265.19565 224.430796 
L 271.756187 230.541619 
L 272.33805 231.083596 
L 278.898587 237.194419 
L 279.48045 237.700716 
L 286.544324 243.847219 
L 286.62285 243.915547 
L 293.691893 250.500019 
z
" clip-path="url(#pc60e2497ec)" style="fill: #fc8060"/>
    <path d="M 319.488444 274.45993 
L 317.529571 272.635334 
L 320.272187 277.111219 
L 321.113032 277.111219 
z
M 300.90765 255.515608 
L 300.90765 254.143368 
L 296.792086 250.500019 
L 293.76525 247.680668 
L 289.649686 243.847219 
L 288.099589 243.847219 
L 293.76525 249.124507 
L 295.241989 250.500019 
z
M 272.33805 229.538007 
L 272.33805 227.992417 
L 267.932455 223.888819 
L 265.19565 221.339617 
L 260.790055 217.236019 
L 258.05325 214.686817 
L 253.647655 210.583219 
L 251.988321 210.583219 
L 258.05325 216.232407 
L 259.130721 217.236019 
L 265.19565 222.885207 
L 266.273121 223.888819 
z
M 200.91405 162.6628 
L 200.91405 160.755573 
L 196.737666 157.360819 
L 194.391308 157.360819 
z
M 186.62925 150.130838 
L 186.62925 147.945318 
L 182.452866 144.055219 
L 180.106508 144.055219 
z
M 172.34445 136.825238 
L 172.34445 134.639718 
L 168.168066 130.749619 
L 165.821708 130.749619 
z
M 115.20525 82.281644 
L 115.20525 79.696746 
L 112.876061 77.527219 
L 108.06285 73.043946 
L 105.733661 70.874419 
L 100.92045 66.391146 
L 98.591261 64.221619 
L 95.816132 64.221619 
L 100.92045 68.976044 
L 102.958532 70.874419 
L 108.06285 75.628844 
L 110.100932 77.527219 
z
M 79.49325 49.017644 
L 79.49325 46.432746 
L 77.164061 44.263219 
L 72.35085 39.779946 
L 70.021661 37.610419 
L 67.246532 37.610419 
L 72.35085 42.364844 
L 74.388932 44.263219 
z
M 50.313257 23.736268 
L 49.482124 22.962107 
L 43.78125 21.738294 
L 43.78125 22.334034 
z
" clip-path="url(#pc60e2497ec)" style="fill: #fb694a"/>
    <path d="M 321.447318 276.284526 
L 319.488444 274.45993 
L 321.113032 277.111219 
L 321.953877 277.111219 
z
M 300.90765 254.143368 
L 300.90765 252.771128 
L 298.342182 250.500019 
L 293.76525 246.236828 
L 291.199782 243.847219 
L 289.649686 243.847219 
L 293.76525 247.680668 
L 296.792086 250.500019 
z
M 272.33805 227.992417 
L 272.33805 226.446828 
L 269.591789 223.888819 
L 265.19565 219.794028 
L 262.449389 217.236019 
L 258.05325 213.141228 
L 255.306989 210.583219 
L 253.647655 210.583219 
L 258.05325 214.686817 
L 260.790055 217.236019 
L 265.19565 221.339617 
L 267.932455 223.888819 
z
M 200.91405 160.755573 
L 200.91405 158.848346 
L 199.084025 157.360819 
L 196.737666 157.360819 
z
M 186.62925 147.945318 
L 186.62925 145.759798 
L 184.799225 144.055219 
L 182.452866 144.055219 
z
M 172.34445 134.639718 
L 172.34445 132.454198 
L 170.514425 130.749619 
L 168.168066 130.749619 
z
M 115.20525 79.696746 
L 115.20525 77.527219 
L 108.06285 70.874419 
L 100.92045 64.221619 
L 98.591261 64.221619 
L 100.92045 66.391146 
L 105.733661 70.874419 
L 108.06285 73.043946 
L 112.876061 77.527219 
z
M 79.49325 46.432746 
L 79.49325 44.263219 
L 72.35085 37.610419 
L 70.021661 37.610419 
L 72.35085 39.779946 
L 77.164061 44.263219 
z
M 49.482124 22.962107 
L 48.650991 22.187947 
L 43.78125 21.142554 
L 43.78125 21.738294 
z
" clip-path="url(#pc60e2497ec)" style="fill: #f4503a"/>
    <path d="M 322.33485 277.111219 
L 321.447318 276.284526 
L 321.953877 277.111219 
z
M 300.90765 252.771128 
L 300.90765 251.398888 
L 299.892278 250.500019 
L 293.76525 244.792989 
L 292.749878 243.847219 
L 291.199782 243.847219 
L 293.76525 246.236828 
L 298.342182 250.500019 
z
M 272.33805 226.446828 
L 272.33805 224.901239 
L 271.251123 223.888819 
L 265.19565 218.248439 
L 264.108723 217.236019 
L 258.05325 211.595639 
L 256.966323 210.583219 
L 255.306989 210.583219 
L 258.05325 213.141228 
L 262.449389 217.236019 
L 265.19565 219.794028 
L 269.591789 223.888819 
z
M 200.91405 158.848346 
L 200.91405 157.360819 
L 199.084025 157.360819 
z
M 186.62925 145.759798 
L 186.62925 144.055219 
L 184.799225 144.055219 
z
M 172.34445 132.454198 
L 172.34445 130.749619 
L 170.514425 130.749619 
z
M 48.650991 22.187947 
L 47.819858 21.413787 
L 43.78125 20.546814 
L 43.78125 21.142554 
z
" clip-path="url(#pc60e2497ec)" style="fill: #ec382b"/>
    <path d="M 300.90765 251.398888 
L 300.90765 250.500019 
L 293.76525 243.847219 
L 292.749878 243.847219 
L 293.76525 244.792989 
L 299.892278 250.500019 
z
M 272.33805 224.901239 
L 272.33805 223.888819 
L 265.19565 217.236019 
L 258.05325 210.583219 
L 256.966323 210.583219 
L 258.05325 211.595639 
L 264.108723 217.236019 
L 265.19565 218.248439 
L 271.251123 223.888819 
z
M 47.819858 21.413787 
L 46.988725 20.639627 
L 43.78125 19.951074 
L 43.78125 20.546814 
z
" clip-path="url(#pc60e2497ec)" style="fill: #d92523"/>
    <path d="M 46.988725 20.639627 
L 46.157592 19.865466 
L 43.78125 19.355334 
L 43.78125 19.951074 
z
" clip-path="url(#pc60e2497ec)" style="fill: #c5171c"/>
    <path d="M 46.157592 19.865466 
L 45.326459 19.091306 
L 43.78125 18.759594 
L 43.78125 19.355334 
z
" clip-path="url(#pc60e2497ec)" style="fill: #b11218"/>
    <path d="M 45.326459 19.091306 
L 44.495326 18.317146 
L 43.78125 18.163854 
L 43.78125 18.759594 
z
" clip-path="url(#pc60e2497ec)" style="fill: #980c13"/>
    <path d="M 44.495326 18.317146 
L 43.78125 17.652019 
L 43.78125 18.163854 
z
" clip-path="url(#pc60e2497ec)" style="fill: #77040f"/>
   </g>
   <g id="matplotlib.axis_1">
    <g id="xtick_1">
     <g id="line2d_1">
      <defs>
       <path id="m67c8227e39" d="M 0 0 
L 0 3.5 
" style="stroke: #000000; stroke-width: 0.8"/>
      </defs>
      <g>
       <use xlink:href="#m67c8227e39" x="43.78125" y="277.111219" style="stroke: #000000; stroke-width: 0.8"/>
      </g>
     </g>
     <g id="text_1">
      <!-- 0.0 -->
      <g transform="translate(35.829688 291.709656) scale(0.1 -0.1)">
       <defs>
        <path id="DejaVuSans-30" d="M 2034 4250 
Q 1547 4250 1301 3770 
Q 1056 3291 1056 2328 
Q 1056 1369 1301 889 
Q 1547 409 2034 409 
Q 2525 409 2770 889 
Q 3016 1369 3016 2328 
Q 3016 3291 2770 3770 
Q 2525 4250 2034 4250 
z
M 2034 4750 
Q 2819 4750 3233 4129 
Q 3647 3509 3647 2328 
Q 3647 1150 3233 529 
Q 2819 -91 2034 -91 
Q 1250 -91 836 529 
Q 422 1150 422 2328 
Q 422 3509 836 4129 
Q 1250 4750 2034 4750 
z
" transform="scale(0.015625)"/>
        <path id="DejaVuSans-2e" d="M 684 794 
L 1344 794 
L 1344 0 
L 684 0 
L 684 794 
z
" transform="scale(0.015625)"/>
       </defs>
       <use xlink:href="#DejaVuSans-30"/>
       <use xlink:href="#DejaVuSans-2e" x="63.623047"/>
       <use xlink:href="#DejaVuSans-30" x="95.410156"/>
      </g>
     </g>
    </g>
    <g id="xtick_2">
     <g id="line2d_2">
      <g>
       <use xlink:href="#m67c8227e39" x="100.92045" y="277.111219" style="stroke: #000000; stroke-width: 0.8"/>
      </g>
     </g>
     <g id="text_2">
      <!-- 0.2 -->
      <g transform="translate(92.968888 291.709656) scale(0.1 -0.1)">
       <defs>
        <path id="DejaVuSans-32" d="M 1228 531 
L 3431 531 
L 3431 0 
L 469 0 
L 469 531 
Q 828 903 1448 1529 
Q 2069 2156 2228 2338 
Q 2531 2678 2651 2914 
Q 2772 3150 2772 3378 
Q 2772 3750 2511 3984 
Q 2250 4219 1831 4219 
Q 1534 4219 1204 4116 
Q 875 4013 500 3803 
L 500 4441 
Q 881 4594 1212 4672 
Q 1544 4750 1819 4750 
Q 2544 4750 2975 4387 
Q 3406 4025 3406 3419 
Q 3406 3131 3298 2873 
Q 3191 2616 2906 2266 
Q 2828 2175 2409 1742 
Q 1991 1309 1228 531 
z
" transform="scale(0.015625)"/>
       </defs>
       <use xlink:href="#DejaVuSans-30"/>
       <use xlink:href="#DejaVuSans-2e" x="63.623047"/>
       <use xlink:href="#DejaVuSans-32" x="95.410156"/>
      </g>
     </g>
    </g>
    <g id="xtick_3">
     <g id="line2d_3">
      <g>
       <use xlink:href="#m67c8227e39" x="158.05965" y="277.111219" style="stroke: #000000; stroke-width: 0.8"/>
      </g>
     </g>
     <g id="text_3">
      <!-- 0.4 -->
      <g transform="translate(150.108088 291.709656) scale(0.1 -0.1)">
       <defs>
        <path id="DejaVuSans-34" d="M 2419 4116 
L 825 1625 
L 2419 1625 
L 2419 4116 
z
M 2253 4666 
L 3047 4666 
L 3047 1625 
L 3713 1625 
L 3713 1100 
L 3047 1100 
L 3047 0 
L 2419 0 
L 2419 1100 
L 313 1100 
L 313 1709 
L 2253 4666 
z
" transform="scale(0.015625)"/>
       </defs>
       <use xlink:href="#DejaVuSans-30"/>
       <use xlink:href="#DejaVuSans-2e" x="63.623047"/>
       <use xlink:href="#DejaVuSans-34" x="95.410156"/>
      </g>
     </g>
    </g>
    <g id="xtick_4">
     <g id="line2d_4">
      <g>
       <use xlink:href="#m67c8227e39" x="215.19885" y="277.111219" style="stroke: #000000; stroke-width: 0.8"/>
      </g>
     </g>
     <g id="text_4">
      <!-- 0.6 -->
      <g transform="translate(207.247288 291.709656) scale(0.1 -0.1)">
       <defs>
        <path id="DejaVuSans-36" d="M 2113 2584 
Q 1688 2584 1439 2293 
Q 1191 2003 1191 1497 
Q 1191 994 1439 701 
Q 1688 409 2113 409 
Q 2538 409 2786 701 
Q 3034 994 3034 1497 
Q 3034 2003 2786 2293 
Q 2538 2584 2113 2584 
z
M 3366 4563 
L 3366 3988 
Q 3128 4100 2886 4159 
Q 2644 4219 2406 4219 
Q 1781 4219 1451 3797 
Q 1122 3375 1075 2522 
Q 1259 2794 1537 2939 
Q 1816 3084 2150 3084 
Q 2853 3084 3261 2657 
Q 3669 2231 3669 1497 
Q 3669 778 3244 343 
Q 2819 -91 2113 -91 
Q 1303 -91 875 529 
Q 447 1150 447 2328 
Q 447 3434 972 4092 
Q 1497 4750 2381 4750 
Q 2619 4750 2861 4703 
Q 3103 4656 3366 4563 
z
" transform="scale(0.015625)"/>
       </defs>
       <use xlink:href="#DejaVuSans-30"/>
       <use xlink:href="#DejaVuSans-2e" x="63.623047"/>
       <use xlink:href="#DejaVuSans-36" x="95.410156"/>
      </g>
     </g>
    </g>
    <g id="xtick_5">
     <g id="line2d_5">
      <g>
       <use xlink:href="#m67c8227e39" x="272.33805" y="277.111219" style="stroke: #000000; stroke-width: 0.8"/>
      </g>
     </g>
     <g id="text_5">
      <!-- 0.8 -->
      <g transform="translate(264.386488 291.709656) scale(0.1 -0.1)">
       <defs>
        <path id="DejaVuSans-38" d="M 2034 2216 
Q 1584 2216 1326 1975 
Q 1069 1734 1069 1313 
Q 1069 891 1326 650 
Q 1584 409 2034 409 
Q 2484 409 2743 651 
Q 3003 894 3003 1313 
Q 3003 1734 2745 1975 
Q 2488 2216 2034 2216 
z
M 1403 2484 
Q 997 2584 770 2862 
Q 544 3141 544 3541 
Q 544 4100 942 4425 
Q 1341 4750 2034 4750 
Q 2731 4750 3128 4425 
Q 3525 4100 3525 3541 
Q 3525 3141 3298 2862 
Q 3072 2584 2669 2484 
Q 3125 2378 3379 2068 
Q 3634 1759 3634 1313 
Q 3634 634 3220 271 
Q 2806 -91 2034 -91 
Q 1263 -91 848 271 
Q 434 634 434 1313 
Q 434 1759 690 2068 
Q 947 2378 1403 2484 
z
M 1172 3481 
Q 1172 3119 1398 2916 
Q 1625 2713 2034 2713 
Q 2441 2713 2670 2916 
Q 2900 3119 2900 3481 
Q 2900 3844 2670 4047 
Q 2441 4250 2034 4250 
Q 1625 4250 1398 4047 
Q 1172 3844 1172 3481 
z
" transform="scale(0.015625)"/>
       </defs>
       <use xlink:href="#DejaVuSans-30"/>
       <use xlink:href="#DejaVuSans-2e" x="63.623047"/>
       <use xlink:href="#DejaVuSans-38" x="95.410156"/>
      </g>
     </g>
    </g>
    <g id="xtick_6">
     <g id="line2d_6">
      <g>
       <use xlink:href="#m67c8227e39" x="329.47725" y="277.111219" style="stroke: #000000; stroke-width: 0.8"/>
      </g>
     </g>
     <g id="text_6">
      <!-- 1.0 -->
      <g transform="translate(321.525688 291.709656) scale(0.1 -0.1)">
       <defs>
        <path id="DejaVuSans-31" d="M 794 531 
L 1825 531 
L 1825 4091 
L 703 3866 
L 703 4441 
L 1819 4666 
L 2450 4666 
L 2450 531 
L 3481 531 
L 3481 0 
L 794 0 
L 794 531 
z
" transform="scale(0.015625)"/>
       </defs>
       <use xlink:href="#DejaVuSans-31"/>
       <use xlink:href="#DejaVuSans-2e" x="63.623047"/>
       <use xlink:href="#DejaVuSans-30" x="95.410156"/>
      </g>
     </g>
    </g>
    <g id="text_7">
     <!-- Equity in Vaccination Burden Multiplier (a) -->
     <g transform="translate(81.262844 305.387781) scale(0.1 -0.1)">
      <defs>
       <path id="DejaVuSans-45" d="M 628 4666 
L 3578 4666 
L 3578 4134 
L 1259 4134 
L 1259 2753 
L 3481 2753 
L 3481 2222 
L 1259 2222 
L 1259 531 
L 3634 531 
L 3634 0 
L 628 0 
L 628 4666 
z
" transform="scale(0.015625)"/>
       <path id="DejaVuSans-71" d="M 947 1747 
Q 947 1113 1208 752 
Q 1469 391 1925 391 
Q 2381 391 2643 752 
Q 2906 1113 2906 1747 
Q 2906 2381 2643 2742 
Q 2381 3103 1925 3103 
Q 1469 3103 1208 2742 
Q 947 2381 947 1747 
z
M 2906 525 
Q 2725 213 2448 61 
Q 2172 -91 1784 -91 
Q 1150 -91 751 415 
Q 353 922 353 1747 
Q 353 2572 751 3078 
Q 1150 3584 1784 3584 
Q 2172 3584 2448 3432 
Q 2725 3281 2906 2969 
L 2906 3500 
L 3481 3500 
L 3481 -1331 
L 2906 -1331 
L 2906 525 
z
" transform="scale(0.015625)"/>
       <path id="DejaVuSans-75" d="M 544 1381 
L 544 3500 
L 1119 3500 
L 1119 1403 
Q 1119 906 1312 657 
Q 1506 409 1894 409 
Q 2359 409 2629 706 
Q 2900 1003 2900 1516 
L 2900 3500 
L 3475 3500 
L 3475 0 
L 2900 0 
L 2900 538 
Q 2691 219 2414 64 
Q 2138 -91 1772 -91 
Q 1169 -91 856 284 
Q 544 659 544 1381 
z
M 1991 3584 
L 1991 3584 
z
" transform="scale(0.015625)"/>
       <path id="DejaVuSans-69" d="M 603 3500 
L 1178 3500 
L 1178 0 
L 603 0 
L 603 3500 
z
M 603 4863 
L 1178 4863 
L 1178 4134 
L 603 4134 
L 603 4863 
z
" transform="scale(0.015625)"/>
       <path id="DejaVuSans-74" d="M 1172 4494 
L 1172 3500 
L 2356 3500 
L 2356 3053 
L 1172 3053 
L 1172 1153 
Q 1172 725 1289 603 
Q 1406 481 1766 481 
L 2356 481 
L 2356 0 
L 1766 0 
Q 1100 0 847 248 
Q 594 497 594 1153 
L 594 3053 
L 172 3053 
L 172 3500 
L 594 3500 
L 594 4494 
L 1172 4494 
z
" transform="scale(0.015625)"/>
       <path id="DejaVuSans-79" d="M 2059 -325 
Q 1816 -950 1584 -1140 
Q 1353 -1331 966 -1331 
L 506 -1331 
L 506 -850 
L 844 -850 
Q 1081 -850 1212 -737 
Q 1344 -625 1503 -206 
L 1606 56 
L 191 3500 
L 800 3500 
L 1894 763 
L 2988 3500 
L 3597 3500 
L 2059 -325 
z
" transform="scale(0.015625)"/>
       <path id="DejaVuSans-20" transform="scale(0.015625)"/>
       <path id="DejaVuSans-6e" d="M 3513 2113 
L 3513 0 
L 2938 0 
L 2938 2094 
Q 2938 2591 2744 2837 
Q 2550 3084 2163 3084 
Q 1697 3084 1428 2787 
Q 1159 2491 1159 1978 
L 1159 0 
L 581 0 
L 581 3500 
L 1159 3500 
L 1159 2956 
Q 1366 3272 1645 3428 
Q 1925 3584 2291 3584 
Q 2894 3584 3203 3211 
Q 3513 2838 3513 2113 
z
" transform="scale(0.015625)"/>
       <path id="DejaVuSans-56" d="M 1831 0 
L 50 4666 
L 709 4666 
L 2188 738 
L 3669 4666 
L 4325 4666 
L 2547 0 
L 1831 0 
z
" transform="scale(0.015625)"/>
       <path id="DejaVuSans-61" d="M 2194 1759 
Q 1497 1759 1228 1600 
Q 959 1441 959 1056 
Q 959 750 1161 570 
Q 1363 391 1709 391 
Q 2188 391 2477 730 
Q 2766 1069 2766 1631 
L 2766 1759 
L 2194 1759 
z
M 3341 1997 
L 3341 0 
L 2766 0 
L 2766 531 
Q 2569 213 2275 61 
Q 1981 -91 1556 -91 
Q 1019 -91 701 211 
Q 384 513 384 1019 
Q 384 1609 779 1909 
Q 1175 2209 1959 2209 
L 2766 2209 
L 2766 2266 
Q 2766 2663 2505 2880 
Q 2244 3097 1772 3097 
Q 1472 3097 1187 3025 
Q 903 2953 641 2809 
L 641 3341 
Q 956 3463 1253 3523 
Q 1550 3584 1831 3584 
Q 2591 3584 2966 3190 
Q 3341 2797 3341 1997 
z
" transform="scale(0.015625)"/>
       <path id="DejaVuSans-63" d="M 3122 3366 
L 3122 2828 
Q 2878 2963 2633 3030 
Q 2388 3097 2138 3097 
Q 1578 3097 1268 2742 
Q 959 2388 959 1747 
Q 959 1106 1268 751 
Q 1578 397 2138 397 
Q 2388 397 2633 464 
Q 2878 531 3122 666 
L 3122 134 
Q 2881 22 2623 -34 
Q 2366 -91 2075 -91 
Q 1284 -91 818 406 
Q 353 903 353 1747 
Q 353 2603 823 3093 
Q 1294 3584 2113 3584 
Q 2378 3584 2631 3529 
Q 2884 3475 3122 3366 
z
" transform="scale(0.015625)"/>
       <path id="DejaVuSans-6f" d="M 1959 3097 
Q 1497 3097 1228 2736 
Q 959 2375 959 1747 
Q 959 1119 1226 758 
Q 1494 397 1959 397 
Q 2419 397 2687 759 
Q 2956 1122 2956 1747 
Q 2956 2369 2687 2733 
Q 2419 3097 1959 3097 
z
M 1959 3584 
Q 2709 3584 3137 3096 
Q 3566 2609 3566 1747 
Q 3566 888 3137 398 
Q 2709 -91 1959 -91 
Q 1206 -91 779 398 
Q 353 888 353 1747 
Q 353 2609 779 3096 
Q 1206 3584 1959 3584 
z
" transform="scale(0.015625)"/>
       <path id="DejaVuSans-42" d="M 1259 2228 
L 1259 519 
L 2272 519 
Q 2781 519 3026 730 
Q 3272 941 3272 1375 
Q 3272 1813 3026 2020 
Q 2781 2228 2272 2228 
L 1259 2228 
z
M 1259 4147 
L 1259 2741 
L 2194 2741 
Q 2656 2741 2882 2914 
Q 3109 3088 3109 3444 
Q 3109 3797 2882 3972 
Q 2656 4147 2194 4147 
L 1259 4147 
z
M 628 4666 
L 2241 4666 
Q 2963 4666 3353 4366 
Q 3744 4066 3744 3513 
Q 3744 3084 3544 2831 
Q 3344 2578 2956 2516 
Q 3422 2416 3680 2098 
Q 3938 1781 3938 1306 
Q 3938 681 3513 340 
Q 3088 0 2303 0 
L 628 0 
L 628 4666 
z
" transform="scale(0.015625)"/>
       <path id="DejaVuSans-72" d="M 2631 2963 
Q 2534 3019 2420 3045 
Q 2306 3072 2169 3072 
Q 1681 3072 1420 2755 
Q 1159 2438 1159 1844 
L 1159 0 
L 581 0 
L 581 3500 
L 1159 3500 
L 1159 2956 
Q 1341 3275 1631 3429 
Q 1922 3584 2338 3584 
Q 2397 3584 2469 3576 
Q 2541 3569 2628 3553 
L 2631 2963 
z
" transform="scale(0.015625)"/>
       <path id="DejaVuSans-64" d="M 2906 2969 
L 2906 4863 
L 3481 4863 
L 3481 0 
L 2906 0 
L 2906 525 
Q 2725 213 2448 61 
Q 2172 -91 1784 -91 
Q 1150 -91 751 415 
Q 353 922 353 1747 
Q 353 2572 751 3078 
Q 1150 3584 1784 3584 
Q 2172 3584 2448 3432 
Q 2725 3281 2906 2969 
z
M 947 1747 
Q 947 1113 1208 752 
Q 1469 391 1925 391 
Q 2381 391 2643 752 
Q 2906 1113 2906 1747 
Q 2906 2381 2643 2742 
Q 2381 3103 1925 3103 
Q 1469 3103 1208 2742 
Q 947 2381 947 1747 
z
" transform="scale(0.015625)"/>
       <path id="DejaVuSans-65" d="M 3597 1894 
L 3597 1613 
L 953 1613 
Q 991 1019 1311 708 
Q 1631 397 2203 397 
Q 2534 397 2845 478 
Q 3156 559 3463 722 
L 3463 178 
Q 3153 47 2828 -22 
Q 2503 -91 2169 -91 
Q 1331 -91 842 396 
Q 353 884 353 1716 
Q 353 2575 817 3079 
Q 1281 3584 2069 3584 
Q 2775 3584 3186 3129 
Q 3597 2675 3597 1894 
z
M 3022 2063 
Q 3016 2534 2758 2815 
Q 2500 3097 2075 3097 
Q 1594 3097 1305 2825 
Q 1016 2553 972 2059 
L 3022 2063 
z
" transform="scale(0.015625)"/>
       <path id="DejaVuSans-4d" d="M 628 4666 
L 1569 4666 
L 2759 1491 
L 3956 4666 
L 4897 4666 
L 4897 0 
L 4281 0 
L 4281 4097 
L 3078 897 
L 2444 897 
L 1241 4097 
L 1241 0 
L 628 0 
L 628 4666 
z
" transform="scale(0.015625)"/>
       <path id="DejaVuSans-6c" d="M 603 4863 
L 1178 4863 
L 1178 0 
L 603 0 
L 603 4863 
z
" transform="scale(0.015625)"/>
       <path id="DejaVuSans-70" d="M 1159 525 
L 1159 -1331 
L 581 -1331 
L 581 3500 
L 1159 3500 
L 1159 2969 
Q 1341 3281 1617 3432 
Q 1894 3584 2278 3584 
Q 2916 3584 3314 3078 
Q 3713 2572 3713 1747 
Q 3713 922 3314 415 
Q 2916 -91 2278 -91 
Q 1894 -91 1617 61 
Q 1341 213 1159 525 
z
M 3116 1747 
Q 3116 2381 2855 2742 
Q 2594 3103 2138 3103 
Q 1681 3103 1420 2742 
Q 1159 2381 1159 1747 
Q 1159 1113 1420 752 
Q 1681 391 2138 391 
Q 2594 391 2855 752 
Q 3116 1113 3116 1747 
z
" transform="scale(0.015625)"/>
       <path id="DejaVuSans-28" d="M 1984 4856 
Q 1566 4138 1362 3434 
Q 1159 2731 1159 2009 
Q 1159 1288 1364 580 
Q 1569 -128 1984 -844 
L 1484 -844 
Q 1016 -109 783 600 
Q 550 1309 550 2009 
Q 550 2706 781 3412 
Q 1013 4119 1484 4856 
L 1984 4856 
z
" transform="scale(0.015625)"/>
       <path id="DejaVuSans-29" d="M 513 4856 
L 1013 4856 
Q 1481 4119 1714 3412 
Q 1947 2706 1947 2009 
Q 1947 1309 1714 600 
Q 1481 -109 1013 -844 
L 513 -844 
Q 928 -128 1133 580 
Q 1338 1288 1338 2009 
Q 1338 2731 1133 3434 
Q 928 4138 513 4856 
z
" transform="scale(0.015625)"/>
      </defs>
      <use xlink:href="#DejaVuSans-45"/>
      <use xlink:href="#DejaVuSans-71" x="63.183594"/>
      <use xlink:href="#DejaVuSans-75" x="126.660156"/>
      <use xlink:href="#DejaVuSans-69" x="190.039062"/>
      <use xlink:href="#DejaVuSans-74" x="217.822266"/>
      <use xlink:href="#DejaVuSans-79" x="257.03125"/>
      <use xlink:href="#DejaVuSans-20" x="316.210938"/>
      <use xlink:href="#DejaVuSans-69" x="347.998047"/>
      <use xlink:href="#DejaVuSans-6e" x="375.78125"/>
      <use xlink:href="#DejaVuSans-20" x="439.160156"/>
      <use xlink:href="#DejaVuSans-56" x="470.947266"/>
      <use xlink:href="#DejaVuSans-61" x="531.605469"/>
      <use xlink:href="#DejaVuSans-63" x="592.884766"/>
      <use xlink:href="#DejaVuSans-63" x="647.865234"/>
      <use xlink:href="#DejaVuSans-69" x="702.845703"/>
      <use xlink:href="#DejaVuSans-6e" x="730.628906"/>
      <use xlink:href="#DejaVuSans-61" x="794.007812"/>
      <use xlink:href="#DejaVuSans-74" x="855.287109"/>
      <use xlink:href="#DejaVuSans-69" x="894.496094"/>
      <use xlink:href="#DejaVuSans-6f" x="922.279297"/>
      <use xlink:href="#DejaVuSans-6e" x="983.460938"/>
      <use xlink:href="#DejaVuSans-20" x="1046.839844"/>
      <use xlink:href="#DejaVuSans-42" x="1078.626953"/>
      <use xlink:href="#DejaVuSans-75" x="1147.230469"/>
      <use xlink:href="#DejaVuSans-72" x="1210.609375"/>
      <use xlink:href="#DejaVuSans-64" x="1249.972656"/>
      <use xlink:href="#DejaVuSans-65" x="1313.449219"/>
      <use xlink:href="#DejaVuSans-6e" x="1374.972656"/>
      <use xlink:href="#DejaVuSans-20" x="1438.351562"/>
      <use xlink:href="#DejaVuSans-4d" x="1470.138672"/>
      <use xlink:href="#DejaVuSans-75" x="1556.417969"/>
      <use xlink:href="#DejaVuSans-6c" x="1619.796875"/>
      <use xlink:href="#DejaVuSans-74" x="1647.580078"/>
      <use xlink:href="#DejaVuSans-69" x="1686.789062"/>
      <use xlink:href="#DejaVuSans-70" x="1714.572266"/>
      <use xlink:href="#DejaVuSans-6c" x="1778.048828"/>
      <use xlink:href="#DejaVuSans-69" x="1805.832031"/>
      <use xlink:href="#DejaVuSans-65" x="1833.615234"/>
      <use xlink:href="#DejaVuSans-72" x="1895.138672"/>
      <use xlink:href="#DejaVuSans-20" x="1936.251953"/>
      <use xlink:href="#DejaVuSans-28" x="1968.039062"/>
      <use xlink:href="#DejaVuSans-61" x="2007.052734"/>
      <use xlink:href="#DejaVuSans-29" x="2068.332031"/>
     </g>
    </g>
   </g>
   <g id="matplotlib.axis_2">
    <g id="ytick_1">
     <g id="line2d_7">
      <defs>
       <path id="me41f6feefe" d="M 0 0 
L -3.5 0 
" style="stroke: #000000; stroke-width: 0.8"/>
      </defs>
      <g>
       <use xlink:href="#me41f6feefe" x="43.78125" y="277.111219" style="stroke: #000000; stroke-width: 0.8"/>
      </g>
     </g>
     <g id="text_8">
      <!-- 0.0 -->
      <g transform="translate(20.878125 280.910437) scale(0.1 -0.1)">
       <use xlink:href="#DejaVuSans-30"/>
       <use xlink:href="#DejaVuSans-2e" x="63.623047"/>
       <use xlink:href="#DejaVuSans-30" x="95.410156"/>
      </g>
     </g>
    </g>
    <g id="ytick_2">
     <g id="line2d_8">
      <g>
       <use xlink:href="#me41f6feefe" x="43.78125" y="223.888819" style="stroke: #000000; stroke-width: 0.8"/>
      </g>
     </g>
     <g id="text_9">
      <!-- 0.2 -->
      <g transform="translate(20.878125 227.688037) scale(0.1 -0.1)">
       <use xlink:href="#DejaVuSans-30"/>
       <use xlink:href="#DejaVuSans-2e" x="63.623047"/>
       <use xlink:href="#DejaVuSans-32" x="95.410156"/>
      </g>
     </g>
    </g>
    <g id="ytick_3">
     <g id="line2d_9">
      <g>
       <use xlink:href="#me41f6feefe" x="43.78125" y="170.666419" style="stroke: #000000; stroke-width: 0.8"/>
      </g>
     </g>
     <g id="text_10">
      <!-- 0.4 -->
      <g transform="translate(20.878125 174.465637) scale(0.1 -0.1)">
       <use xlink:href="#DejaVuSans-30"/>
       <use xlink:href="#DejaVuSans-2e" x="63.623047"/>
       <use xlink:href="#DejaVuSans-34" x="95.410156"/>
      </g>
     </g>
    </g>
    <g id="ytick_4">
     <g id="line2d_10">
      <g>
       <use xlink:href="#me41f6feefe" x="43.78125" y="117.444019" style="stroke: #000000; stroke-width: 0.8"/>
      </g>
     </g>
     <g id="text_11">
      <!-- 0.6 -->
      <g transform="translate(20.878125 121.243237) scale(0.1 -0.1)">
       <use xlink:href="#DejaVuSans-30"/>
       <use xlink:href="#DejaVuSans-2e" x="63.623047"/>
       <use xlink:href="#DejaVuSans-36" x="95.410156"/>
      </g>
     </g>
    </g>
    <g id="ytick_5">
     <g id="line2d_11">
      <g>
       <use xlink:href="#me41f6feefe" x="43.78125" y="64.221619" style="stroke: #000000; stroke-width: 0.8"/>
      </g>
     </g>
     <g id="text_12">
      <!-- 0.8 -->
      <g transform="translate(20.878125 68.020837) scale(0.1 -0.1)">
       <use xlink:href="#DejaVuSans-30"/>
       <use xlink:href="#DejaVuSans-2e" x="63.623047"/>
       <use xlink:href="#DejaVuSans-38" x="95.410156"/>
      </g>
     </g>
    </g>
    <g id="ytick_6">
     <g id="line2d_12">
      <g>
       <use xlink:href="#me41f6feefe" x="43.78125" y="10.999219" style="stroke: #000000; stroke-width: 0.8"/>
      </g>
     </g>
     <g id="text_13">
      <!-- 1.0 -->
      <g transform="translate(20.878125 14.798437) scale(0.1 -0.1)">
       <use xlink:href="#DejaVuSans-31"/>
       <use xlink:href="#DejaVuSans-2e" x="63.623047"/>
       <use xlink:href="#DejaVuSans-30" x="95.410156"/>
      </g>
     </g>
    </g>
    <g id="text_14">
     <!-- Equity in Infection Burden Multiplier (b) -->
     <g transform="translate(14.798438 242.544281) rotate(-90) scale(0.1 -0.1)">
      <defs>
       <path id="DejaVuSans-49" d="M 628 4666 
L 1259 4666 
L 1259 0 
L 628 0 
L 628 4666 
z
" transform="scale(0.015625)"/>
       <path id="DejaVuSans-66" d="M 2375 4863 
L 2375 4384 
L 1825 4384 
Q 1516 4384 1395 4259 
Q 1275 4134 1275 3809 
L 1275 3500 
L 2222 3500 
L 2222 3053 
L 1275 3053 
L 1275 0 
L 697 0 
L 697 3053 
L 147 3053 
L 147 3500 
L 697 3500 
L 697 3744 
Q 697 4328 969 4595 
Q 1241 4863 1831 4863 
L 2375 4863 
z
" transform="scale(0.015625)"/>
       <path id="DejaVuSans-62" d="M 3116 1747 
Q 3116 2381 2855 2742 
Q 2594 3103 2138 3103 
Q 1681 3103 1420 2742 
Q 1159 2381 1159 1747 
Q 1159 1113 1420 752 
Q 1681 391 2138 391 
Q 2594 391 2855 752 
Q 3116 1113 3116 1747 
z
M 1159 2969 
Q 1341 3281 1617 3432 
Q 1894 3584 2278 3584 
Q 2916 3584 3314 3078 
Q 3713 2572 3713 1747 
Q 3713 922 3314 415 
Q 2916 -91 2278 -91 
Q 1894 -91 1617 61 
Q 1341 213 1159 525 
L 1159 0 
L 581 0 
L 581 4863 
L 1159 4863 
L 1159 2969 
z
" transform="scale(0.015625)"/>
      </defs>
      <use xlink:href="#DejaVuSans-45"/>
      <use xlink:href="#DejaVuSans-71" x="63.183594"/>
      <use xlink:href="#DejaVuSans-75" x="126.660156"/>
      <use xlink:href="#DejaVuSans-69" x="190.039062"/>
      <use xlink:href="#DejaVuSans-74" x="217.822266"/>
      <use xlink:href="#DejaVuSans-79" x="257.03125"/>
      <use xlink:href="#DejaVuSans-20" x="316.210938"/>
      <use xlink:href="#DejaVuSans-69" x="347.998047"/>
      <use xlink:href="#DejaVuSans-6e" x="375.78125"/>
      <use xlink:href="#DejaVuSans-20" x="439.160156"/>
      <use xlink:href="#DejaVuSans-49" x="470.947266"/>
      <use xlink:href="#DejaVuSans-6e" x="500.439453"/>
      <use xlink:href="#DejaVuSans-66" x="563.818359"/>
      <use xlink:href="#DejaVuSans-65" x="599.023438"/>
      <use xlink:href="#DejaVuSans-63" x="660.546875"/>
      <use xlink:href="#DejaVuSans-74" x="715.527344"/>
      <use xlink:href="#DejaVuSans-69" x="754.736328"/>
      <use xlink:href="#DejaVuSans-6f" x="782.519531"/>
      <use xlink:href="#DejaVuSans-6e" x="843.701172"/>
      <use xlink:href="#DejaVuSans-20" x="907.080078"/>
      <use xlink:href="#DejaVuSans-42" x="938.867188"/>
      <use xlink:href="#DejaVuSans-75" x="1007.470703"/>
      <use xlink:href="#DejaVuSans-72" x="1070.849609"/>
      <use xlink:href="#DejaVuSans-64" x="1110.212891"/>
      <use xlink:href="#DejaVuSans-65" x="1173.689453"/>
      <use xlink:href="#DejaVuSans-6e" x="1235.212891"/>
      <use xlink:href="#DejaVuSans-20" x="1298.591797"/>
      <use xlink:href="#DejaVuSans-4d" x="1330.378906"/>
      <use xlink:href="#DejaVuSans-75" x="1416.658203"/>
      <use xlink:href="#DejaVuSans-6c" x="1480.037109"/>
      <use xlink:href="#DejaVuSans-74" x="1507.820312"/>
      <use xlink:href="#DejaVuSans-69" x="1547.029297"/>
      <use xlink:href="#DejaVuSans-70" x="1574.8125"/>
      <use xlink:href="#DejaVuSans-6c" x="1638.289062"/>
      <use xlink:href="#DejaVuSans-69" x="1666.072266"/>
      <use xlink:href="#DejaVuSans-65" x="1693.855469"/>
      <use xlink:href="#DejaVuSans-72" x="1755.378906"/>
      <use xlink:href="#DejaVuSans-20" x="1796.492188"/>
      <use xlink:href="#DejaVuSans-28" x="1828.279297"/>
      <use xlink:href="#DejaVuSans-62" x="1867.292969"/>
      <use xlink:href="#DejaVuSans-29" x="1930.769531"/>
     </g>
    </g>
   </g>
   <g id="patch_3">
    <path d="M 43.78125 277.111219 
L 43.78125 10.999219 
" style="fill: none; stroke: #000000; stroke-width: 0.8; stroke-linejoin: miter; stroke-linecap: square"/>
   </g>
   <g id="patch_4">
    <path d="M 329.47725 277.111219 
L 329.47725 10.999219 
" style="fill: none; stroke: #000000; stroke-width: 0.8; stroke-linejoin: miter; stroke-linecap: square"/>
   </g>
   <g id="patch_5">
    <path d="M 43.78125 277.111219 
L 329.47725 277.111219 
" style="fill: none; stroke: #000000; stroke-width: 0.8; stroke-linejoin: miter; stroke-linecap: square"/>
   </g>
   <g id="patch_6">
    <path d="M 43.78125 10.999219 
L 329.47725 10.999219 
" style="fill: none; stroke: #000000; stroke-width: 0.8; stroke-linejoin: miter; stroke-linecap: square"/>
   </g>
  </g>
  <g id="axes_2">
   <g id="patch_7">
    <path d="M 347.33325 277.111219 
L 360.63885 277.111219 
L 360.63885 10.999219 
L 347.33325 10.999219 
z
" style="fill: #ffffff"/>
   </g>
   <g id="QuadMesh_1">
    <path d="M 347.33325 277.111219 
L 360.63885 277.111219 
L 360.63885 259.370419 
L 347.33325 259.370419 
L 347.33325 277.111219 
" clip-path="url(#p370e989ae0)" style="fill: #fff0e8"/>
    <path d="M 347.33325 259.370419 
L 360.63885 259.370419 
L 360.63885 241.629619 
L 347.33325 241.629619 
L 347.33325 259.370419 
" clip-path="url(#p370e989ae0)" style="fill: #fee5d8"/>
    <path d="M 347.33325 241.629619 
L 360.63885 241.629619 
L 360.63885 223.888819 
L 347.33325 223.888819 
L 347.33325 241.629619 
" clip-path="url(#p370e989ae0)" style="fill: #fdd4c2"/>
    <path d="M 347.33325 223.888819 
L 360.63885 223.888819 
L 360.63885 206.148019 
L 347.33325 206.148019 
L 347.33325 223.888819 
" clip-path="url(#p370e989ae0)" style="fill: #fcc1a8"/>
    <path d="M 347.33325 206.148019 
L 360.63885 206.148019 
L 360.63885 188.407219 
L 347.33325 188.407219 
L 347.33325 206.148019 
" clip-path="url(#p370e989ae0)" style="fill: #fcab8f"/>
    <path d="M 347.33325 188.407219 
L 360.63885 188.407219 
L 360.63885 170.666419 
L 347.33325 170.666419 
L 347.33325 188.407219 
" clip-path="url(#p370e989ae0)" style="fill: #fc9576"/>
    <path d="M 347.33325 170.666419 
L 360.63885 170.666419 
L 360.63885 152.925619 
L 347.33325 152.925619 
L 347.33325 170.666419 
" clip-path="url(#p370e989ae0)" style="fill: #fc8060"/>
    <path d="M 347.33325 152.925619 
L 360.63885 152.925619 
L 360.63885 135.184819 
L 347.33325 135.184819 
L 347.33325 152.925619 
" clip-path="url(#p370e989ae0)" style="fill: #fb694a"/>
    <path d="M 347.33325 135.184819 
L 360.63885 135.184819 
L 360.63885 117.444019 
L 347.33325 117.444019 
L 347.33325 135.184819 
" clip-path="url(#p370e989ae0)" style="fill: #f4503a"/>
    <path d="M 347.33325 117.444019 
L 360.63885 117.444019 
L 360.63885 99.703219 
L 347.33325 99.703219 
L 347.33325 117.444019 
" clip-path="url(#p370e989ae0)" style="fill: #ec382b"/>
    <path d="M 347.33325 99.703219 
L 360.63885 99.703219 
L 360.63885 81.962419 
L 347.33325 81.962419 
L 347.33325 99.703219 
" clip-path="url(#p370e989ae0)" style="fill: #d92523"/>
    <path d="M 347.33325 81.962419 
L 360.63885 81.962419 
L 360.63885 64.221619 
L 347.33325 64.221619 
L 347.33325 81.962419 
" clip-path="url(#p370e989ae0)" style="fill: #c5171c"/>
    <path d="M 347.33325 64.221619 
L 360.63885 64.221619 
L 360.63885 46.480819 
L 347.33325 46.480819 
L 347.33325 64.221619 
" clip-path="url(#p370e989ae0)" style="fill: #b11218"/>
    <path d="M 347.33325 46.480819 
L 360.63885 46.480819 
L 360.63885 28.740019 
L 347.33325 28.740019 
L 347.33325 46.480819 
" clip-path="url(#p370e989ae0)" style="fill: #980c13"/>
    <path d="M 347.33325 28.740019 
L 360.63885 28.740019 
L 360.63885 10.999219 
L 347.33325 10.999219 
L 347.33325 28.740019 
" clip-path="url(#p370e989ae0)" style="fill: #77040f"/>
   </g>
   <g id="matplotlib.axis_3"/>
   <g id="matplotlib.axis_4">
    <g id="ytick_7">
     <g id="line2d_13">
      <defs>
       <path id="m3d06c0f40c" d="M 0 0 
L 3.5 0 
" style="stroke: #000000; stroke-width: 0.8"/>
      </defs>
      <g>
       <use xlink:href="#m3d06c0f40c" x="360.63885" y="277.111219" style="stroke: #000000; stroke-width: 0.8"/>
      </g>
     </g>
     <g id="text_15">
      <!-- 70000 -->
      <g transform="translate(367.63885 280.910437) scale(0.1 -0.1)">
       <defs>
        <path id="DejaVuSans-37" d="M 525 4666 
L 3525 4666 
L 3525 4397 
L 1831 0 
L 1172 0 
L 2766 4134 
L 525 4134 
L 525 4666 
z
" transform="scale(0.015625)"/>
       </defs>
       <use xlink:href="#DejaVuSans-37"/>
       <use xlink:href="#DejaVuSans-30" x="63.623047"/>
       <use xlink:href="#DejaVuSans-30" x="127.246094"/>
       <use xlink:href="#DejaVuSans-30" x="190.869141"/>
       <use xlink:href="#DejaVuSans-30" x="254.492188"/>
      </g>
     </g>
    </g>
    <g id="ytick_8">
     <g id="line2d_14">
      <g>
       <use xlink:href="#m3d06c0f40c" x="360.63885" y="241.629619" style="stroke: #000000; stroke-width: 0.8"/>
      </g>
     </g>
     <g id="text_16">
      <!-- 90000 -->
      <g transform="translate(367.63885 245.428837) scale(0.1 -0.1)">
       <defs>
        <path id="DejaVuSans-39" d="M 703 97 
L 703 672 
Q 941 559 1184 500 
Q 1428 441 1663 441 
Q 2288 441 2617 861 
Q 2947 1281 2994 2138 
Q 2813 1869 2534 1725 
Q 2256 1581 1919 1581 
Q 1219 1581 811 2004 
Q 403 2428 403 3163 
Q 403 3881 828 4315 
Q 1253 4750 1959 4750 
Q 2769 4750 3195 4129 
Q 3622 3509 3622 2328 
Q 3622 1225 3098 567 
Q 2575 -91 1691 -91 
Q 1453 -91 1209 -44 
Q 966 3 703 97 
z
M 1959 2075 
Q 2384 2075 2632 2365 
Q 2881 2656 2881 3163 
Q 2881 3666 2632 3958 
Q 2384 4250 1959 4250 
Q 1534 4250 1286 3958 
Q 1038 3666 1038 3163 
Q 1038 2656 1286 2365 
Q 1534 2075 1959 2075 
z
" transform="scale(0.015625)"/>
       </defs>
       <use xlink:href="#DejaVuSans-39"/>
       <use xlink:href="#DejaVuSans-30" x="63.623047"/>
       <use xlink:href="#DejaVuSans-30" x="127.246094"/>
       <use xlink:href="#DejaVuSans-30" x="190.869141"/>
       <use xlink:href="#DejaVuSans-30" x="254.492188"/>
      </g>
     </g>
    </g>
    <g id="ytick_9">
     <g id="line2d_15">
      <g>
       <use xlink:href="#m3d06c0f40c" x="360.63885" y="206.148019" style="stroke: #000000; stroke-width: 0.8"/>
      </g>
     </g>
     <g id="text_17">
      <!-- 110000 -->
      <g transform="translate(367.63885 209.947237) scale(0.1 -0.1)">
       <use xlink:href="#DejaVuSans-31"/>
       <use xlink:href="#DejaVuSans-31" x="63.623047"/>
       <use xlink:href="#DejaVuSans-30" x="127.246094"/>
       <use xlink:href="#DejaVuSans-30" x="190.869141"/>
       <use xlink:href="#DejaVuSans-30" x="254.492188"/>
       <use xlink:href="#DejaVuSans-30" x="318.115234"/>
      </g>
     </g>
    </g>
    <g id="ytick_10">
     <g id="line2d_16">
      <g>
       <use xlink:href="#m3d06c0f40c" x="360.63885" y="170.666419" style="stroke: #000000; stroke-width: 0.8"/>
      </g>
     </g>
     <g id="text_18">
      <!-- 130000 -->
      <g transform="translate(367.63885 174.465637) scale(0.1 -0.1)">
       <defs>
        <path id="DejaVuSans-33" d="M 2597 2516 
Q 3050 2419 3304 2112 
Q 3559 1806 3559 1356 
Q 3559 666 3084 287 
Q 2609 -91 1734 -91 
Q 1441 -91 1130 -33 
Q 819 25 488 141 
L 488 750 
Q 750 597 1062 519 
Q 1375 441 1716 441 
Q 2309 441 2620 675 
Q 2931 909 2931 1356 
Q 2931 1769 2642 2001 
Q 2353 2234 1838 2234 
L 1294 2234 
L 1294 2753 
L 1863 2753 
Q 2328 2753 2575 2939 
Q 2822 3125 2822 3475 
Q 2822 3834 2567 4026 
Q 2313 4219 1838 4219 
Q 1578 4219 1281 4162 
Q 984 4106 628 3988 
L 628 4550 
Q 988 4650 1302 4700 
Q 1616 4750 1894 4750 
Q 2613 4750 3031 4423 
Q 3450 4097 3450 3541 
Q 3450 3153 3228 2886 
Q 3006 2619 2597 2516 
z
" transform="scale(0.015625)"/>
       </defs>
       <use xlink:href="#DejaVuSans-31"/>
       <use xlink:href="#DejaVuSans-33" x="63.623047"/>
       <use xlink:href="#DejaVuSans-30" x="127.246094"/>
       <use xlink:href="#DejaVuSans-30" x="190.869141"/>
       <use xlink:href="#DejaVuSans-30" x="254.492188"/>
       <use xlink:href="#DejaVuSans-30" x="318.115234"/>
      </g>
     </g>
    </g>
    <g id="ytick_11">
     <g id="line2d_17">
      <g>
       <use xlink:href="#m3d06c0f40c" x="360.63885" y="135.184819" style="stroke: #000000; stroke-width: 0.8"/>
      </g>
     </g>
     <g id="text_19">
      <!-- 150000 -->
      <g transform="translate(367.63885 138.984037) scale(0.1 -0.1)">
       <defs>
        <path id="DejaVuSans-35" d="M 691 4666 
L 3169 4666 
L 3169 4134 
L 1269 4134 
L 1269 2991 
Q 1406 3038 1543 3061 
Q 1681 3084 1819 3084 
Q 2600 3084 3056 2656 
Q 3513 2228 3513 1497 
Q 3513 744 3044 326 
Q 2575 -91 1722 -91 
Q 1428 -91 1123 -41 
Q 819 9 494 109 
L 494 744 
Q 775 591 1075 516 
Q 1375 441 1709 441 
Q 2250 441 2565 725 
Q 2881 1009 2881 1497 
Q 2881 1984 2565 2268 
Q 2250 2553 1709 2553 
Q 1456 2553 1204 2497 
Q 953 2441 691 2322 
L 691 4666 
z
" transform="scale(0.015625)"/>
       </defs>
       <use xlink:href="#DejaVuSans-31"/>
       <use xlink:href="#DejaVuSans-35" x="63.623047"/>
       <use xlink:href="#DejaVuSans-30" x="127.246094"/>
       <use xlink:href="#DejaVuSans-30" x="190.869141"/>
       <use xlink:href="#DejaVuSans-30" x="254.492188"/>
       <use xlink:href="#DejaVuSans-30" x="318.115234"/>
      </g>
     </g>
    </g>
    <g id="ytick_12">
     <g id="line2d_18">
      <g>
       <use xlink:href="#m3d06c0f40c" x="360.63885" y="99.703219" style="stroke: #000000; stroke-width: 0.8"/>
      </g>
     </g>
     <g id="text_20">
      <!-- 170000 -->
      <g transform="translate(367.63885 103.502437) scale(0.1 -0.1)">
       <use xlink:href="#DejaVuSans-31"/>
       <use xlink:href="#DejaVuSans-37" x="63.623047"/>
       <use xlink:href="#DejaVuSans-30" x="127.246094"/>
       <use xlink:href="#DejaVuSans-30" x="190.869141"/>
       <use xlink:href="#DejaVuSans-30" x="254.492188"/>
       <use xlink:href="#DejaVuSans-30" x="318.115234"/>
      </g>
     </g>
    </g>
    <g id="ytick_13">
     <g id="line2d_19">
      <g>
       <use xlink:href="#m3d06c0f40c" x="360.63885" y="64.221619" style="stroke: #000000; stroke-width: 0.8"/>
      </g>
     </g>
     <g id="text_21">
      <!-- 190000 -->
      <g transform="translate(367.63885 68.020837) scale(0.1 -0.1)">
       <use xlink:href="#DejaVuSans-31"/>
       <use xlink:href="#DejaVuSans-39" x="63.623047"/>
       <use xlink:href="#DejaVuSans-30" x="127.246094"/>
       <use xlink:href="#DejaVuSans-30" x="190.869141"/>
       <use xlink:href="#DejaVuSans-30" x="254.492188"/>
       <use xlink:href="#DejaVuSans-30" x="318.115234"/>
      </g>
     </g>
    </g>
    <g id="ytick_14">
     <g id="line2d_20">
      <g>
       <use xlink:href="#m3d06c0f40c" x="360.63885" y="28.740019" style="stroke: #000000; stroke-width: 0.8"/>
      </g>
     </g>
     <g id="text_22">
      <!-- 210000 -->
      <g transform="translate(367.63885 32.539237) scale(0.1 -0.1)">
       <use xlink:href="#DejaVuSans-32"/>
       <use xlink:href="#DejaVuSans-31" x="63.623047"/>
       <use xlink:href="#DejaVuSans-30" x="127.246094"/>
       <use xlink:href="#DejaVuSans-30" x="190.869141"/>
       <use xlink:href="#DejaVuSans-30" x="254.492188"/>
       <use xlink:href="#DejaVuSans-30" x="318.115234"/>
      </g>
     </g>
    </g>
    <g id="text_23">
     <!-- Total Clinical Burden -->
     <g transform="translate(417.412288 194.926312) rotate(-90) scale(0.1 -0.1)">
      <defs>
       <path id="DejaVuSans-54" d="M -19 4666 
L 3928 4666 
L 3928 4134 
L 2272 4134 
L 2272 0 
L 1638 0 
L 1638 4134 
L -19 4134 
L -19 4666 
z
" transform="scale(0.015625)"/>
       <path id="DejaVuSans-43" d="M 4122 4306 
L 4122 3641 
Q 3803 3938 3442 4084 
Q 3081 4231 2675 4231 
Q 1875 4231 1450 3742 
Q 1025 3253 1025 2328 
Q 1025 1406 1450 917 
Q 1875 428 2675 428 
Q 3081 428 3442 575 
Q 3803 722 4122 1019 
L 4122 359 
Q 3791 134 3420 21 
Q 3050 -91 2638 -91 
Q 1578 -91 968 557 
Q 359 1206 359 2328 
Q 359 3453 968 4101 
Q 1578 4750 2638 4750 
Q 3056 4750 3426 4639 
Q 3797 4528 4122 4306 
z
" transform="scale(0.015625)"/>
      </defs>
      <use xlink:href="#DejaVuSans-54"/>
      <use xlink:href="#DejaVuSans-6f" x="44.083984"/>
      <use xlink:href="#DejaVuSans-74" x="105.265625"/>
      <use xlink:href="#DejaVuSans-61" x="144.474609"/>
      <use xlink:href="#DejaVuSans-6c" x="205.753906"/>
      <use xlink:href="#DejaVuSans-20" x="233.537109"/>
      <use xlink:href="#DejaVuSans-43" x="265.324219"/>
      <use xlink:href="#DejaVuSans-6c" x="335.148438"/>
      <use xlink:href="#DejaVuSans-69" x="362.931641"/>
      <use xlink:href="#DejaVuSans-6e" x="390.714844"/>
      <use xlink:href="#DejaVuSans-69" x="454.09375"/>
      <use xlink:href="#DejaVuSans-63" x="481.876953"/>
      <use xlink:href="#DejaVuSans-61" x="536.857422"/>
      <use xlink:href="#DejaVuSans-6c" x="598.136719"/>
      <use xlink:href="#DejaVuSans-20" x="625.919922"/>
      <use xlink:href="#DejaVuSans-42" x="657.707031"/>
      <use xlink:href="#DejaVuSans-75" x="726.310547"/>
      <use xlink:href="#DejaVuSans-72" x="789.689453"/>
      <use xlink:href="#DejaVuSans-64" x="829.052734"/>
      <use xlink:href="#DejaVuSans-65" x="892.529297"/>
      <use xlink:href="#DejaVuSans-6e" x="954.052734"/>
     </g>
    </g>
   </g>
   <g id="LineCollection_1"/>
   <g id="patch_8">
    <path d="M 347.33325 277.111219 
L 353.98605 277.111219 
L 360.63885 277.111219 
L 360.63885 10.999219 
L 353.98605 10.999219 
L 347.33325 10.999219 
L 347.33325 277.111219 
z
" style="fill: none; stroke: #000000; stroke-width: 0.8; stroke-linejoin: miter; stroke-linecap: square"/>
   </g>
  </g>
 </g>
 <defs>
  <clipPath id="pc60e2497ec">
   <rect x="43.78125" y="10.999219" width="285.696" height="266.112"/>
  </clipPath>
  <clipPath id="p370e989ae0">
   <rect x="347.33325" y="10.999219" width="13.3056" height="266.112"/>
  </clipPath>
 </defs>
</svg>
