<?xml version="1.0" encoding="utf-8" standalone="no"?>
<!DOCTYPE svg PUBLIC "-//W3C//DTD SVG 1.1//EN"
  "http://www.w3.org/Graphics/SVG/1.1/DTD/svg11.dtd">
<svg xmlns:xlink="http://www.w3.org/1999/xlink" width="410.7826pt" height="314.667469pt" viewBox="0 0 410.7826 314.667469" xmlns="http://www.w3.org/2000/svg" version="1.1">
 <metadata>
  <rdf:RDF xmlns:dc="http://purl.org/dc/elements/1.1/" xmlns:cc="http://creativecommons.org/ns#" xmlns:rdf="http://www.w3.org/1999/02/22-rdf-syntax-ns#">
   <cc:Work>
    <dc:type rdf:resource="http://purl.org/dc/dcmitype/StillImage"/>
    <dc:date>2024-11-11T09:33:24.812796</dc:date>
    <dc:format>image/svg+xml</dc:format>
    <dc:creator>
     <cc:Agent>
      <dc:title>Matplotlib v3.9.0, https://matplotlib.org/</dc:title>
     </cc:Agent>
    </dc:creator>
   </cc:Work>
  </rdf:RDF>
 </metadata>
 <defs>
  <style type="text/css">*{stroke-linejoin: round; stroke-linecap: butt}</style>
 </defs>
 <g id="figure_1">
  <g id="patch_1">
   <path d="M 0 314.667469 
L 410.7826 314.667469 
L 410.7826 0 
L 0 0 
z
" style="fill: #ffffff"/>
  </g>
  <g id="axes_1">
   <g id="patch_2">
    <path d="M 43.78125 277.111219 
L 329.47725 277.111219 
L 329.47725 10.999219 
L 43.78125 10.999219 
z
" style="fill: #ffffff"/>
   </g>
   <g id="QuadContourSet_1">
    <path d="M 50.92365 277.111219 
L 58.06605 277.111219 
L 65.20845 277.111219 
L 72.35085 277.111219 
L 79.49325 277.111219 
L 86.63565 277.111219 
L 93.77805 277.111219 
L 100.92045 277.111219 
L 108.06285 277.111219 
L 115.20525 277.111219 
L 122.34765 277.111219 
L 129.49005 277.111219 
L 130.467345 277.111219 
L 129.49005 276.200915 
L 122.34765 276.200915 
L 116.182545 270.458419 
L 116.182545 263.805619 
L 116.182545 257.152819 
L 116.182545 250.500019 
L 115.20525 249.589715 
L 109.040145 243.847219 
L 108.06285 242.936915 
L 101.897745 237.194419 
L 102.133193 230.541619 
L 102.379401 223.888819 
L 102.379401 217.236019 
L 102.382335 210.583219 
L 102.382335 203.930419 
L 102.382335 197.277619 
L 100.92045 195.915944 
L 95.239935 190.624819 
L 93.77805 189.263144 
L 88.097535 183.972019 
L 88.097535 177.319219 
L 88.097535 170.666419 
L 88.097535 164.013619 
L 88.097535 157.360819 
L 86.63565 155.999144 
L 79.49325 155.999144 
L 73.812735 150.708019 
L 73.812735 144.055219 
L 73.812735 137.402419 
L 73.812735 130.749619 
L 73.829768 124.096819 
L 73.851185 117.444019 
L 72.35085 116.046529 
L 65.20845 116.066478 
L 59.544968 110.791219 
L 59.566385 104.138419 
L 59.566385 97.485619 
L 59.566385 90.832819 
L 59.566385 84.180019 
L 59.566385 77.527219 
L 58.06605 76.129729 
L 50.92365 76.129729 
L 45.281585 70.874419 
L 45.281585 64.221619 
L 45.281585 57.568819 
L 45.281585 50.916019 
L 45.281585 44.263219 
L 45.281585 37.610419 
L 43.78125 36.212929 
L 43.78125 37.610419 
L 43.78125 44.263219 
L 43.78125 50.916019 
L 43.78125 57.568819 
L 43.78125 64.221619 
L 43.78125 70.874419 
L 43.78125 77.527219 
L 43.78125 84.180019 
L 43.78125 90.832819 
L 43.78125 97.485619 
L 43.78125 104.138419 
L 43.78125 110.791219 
L 43.78125 117.444019 
L 43.78125 124.096819 
L 43.78125 130.749619 
L 43.78125 137.402419 
L 43.78125 144.055219 
L 43.78125 150.708019 
L 43.78125 157.360819 
L 43.78125 164.013619 
L 43.78125 170.666419 
L 43.78125 177.319219 
L 43.78125 183.972019 
L 43.78125 190.624819 
L 43.78125 197.277619 
L 43.78125 203.930419 
L 43.78125 210.583219 
L 43.78125 217.236019 
L 43.78125 223.888819 
L 43.78125 230.541619 
L 43.78125 237.194419 
L 43.78125 243.847219 
L 43.78125 250.500019 
L 43.78125 257.152819 
L 43.78125 263.805619 
L 43.78125 270.458419 
L 43.78125 277.111219 
z
" clip-path="url(#pbff9fcaa6f)" style="fill: #ffefe8"/>
    <path d="M 122.34765 276.200915 
L 129.49005 276.200915 
L 130.467345 277.111219 
L 132.83382 277.111219 
L 129.49005 273.996659 
L 122.34765 273.996659 
L 118.54902 270.458419 
L 118.54902 263.805619 
L 118.54902 257.152819 
L 118.54902 250.500019 
L 115.20525 247.385459 
L 111.40662 243.847219 
L 108.06285 240.732659 
L 104.26422 237.194419 
L 104.473612 230.541619 
L 104.71982 223.888819 
L 104.71982 217.236019 
L 104.727461 210.583219 
L 104.727461 203.930419 
L 104.727461 197.277619 
L 100.92045 193.731572 
L 97.585061 190.624819 
L 93.77805 187.078772 
L 90.442661 183.972019 
L 90.442661 177.319219 
L 90.442661 170.666419 
L 90.442661 164.013619 
L 90.442661 157.360819 
L 86.63565 153.814772 
L 79.49325 153.814772 
L 76.157861 150.708019 
L 76.157861 144.055219 
L 76.157861 137.402419 
L 76.157861 130.749619 
L 76.167863 124.096819 
L 76.189279 117.444019 
L 72.35085 113.868708 
L 65.20845 113.888656 
L 61.883063 110.791219 
L 61.904479 104.138419 
L 61.904479 97.485619 
L 61.904479 90.832819 
L 61.904479 84.180019 
L 61.904479 77.527219 
L 58.06605 73.951908 
L 50.92365 73.951908 
L 47.619679 70.874419 
L 47.619679 64.221619 
L 47.619679 57.568819 
L 47.619679 50.916019 
L 47.619679 44.263219 
L 47.619679 37.610419 
L 43.78125 34.035108 
L 43.78125 36.212929 
L 45.281585 37.610419 
L 45.281585 44.263219 
L 45.281585 50.916019 
L 45.281585 57.568819 
L 45.281585 64.221619 
L 45.281585 70.874419 
L 50.92365 76.129729 
L 58.06605 76.129729 
L 59.566385 77.527219 
L 59.566385 84.180019 
L 59.566385 90.832819 
L 59.566385 97.485619 
L 59.566385 104.138419 
L 59.544968 110.791219 
L 65.20845 116.066478 
L 72.35085 116.046529 
L 73.851185 117.444019 
L 73.829768 124.096819 
L 73.812735 130.749619 
L 73.812735 137.402419 
L 73.812735 144.055219 
L 73.812735 150.708019 
L 79.49325 155.999144 
L 86.63565 155.999144 
L 88.097535 157.360819 
L 88.097535 164.013619 
L 88.097535 170.666419 
L 88.097535 177.319219 
L 88.097535 183.972019 
L 93.77805 189.263144 
L 95.239935 190.624819 
L 100.92045 195.915944 
L 102.382335 197.277619 
L 102.382335 203.930419 
L 102.382335 210.583219 
L 102.379401 217.236019 
L 102.379401 223.888819 
L 102.133193 230.541619 
L 101.897745 237.194419 
L 108.06285 242.936915 
L 109.040145 243.847219 
L 115.20525 249.589715 
L 116.182545 250.500019 
L 116.182545 257.152819 
L 116.182545 263.805619 
L 116.182545 270.458419 
z
" clip-path="url(#pbff9fcaa6f)" style="fill: #fee2d5"/>
    <path d="M 122.34765 273.996659 
L 129.49005 273.996659 
L 132.83382 277.111219 
L 135.200295 277.111219 
L 129.49005 271.792402 
L 122.34765 271.792402 
L 120.915495 270.458419 
L 120.915495 263.805619 
L 120.915495 257.152819 
L 120.915495 250.500019 
L 115.20525 245.181202 
L 113.773095 243.847219 
L 108.06285 238.528402 
L 106.630695 237.194419 
L 106.814032 230.541619 
L 107.06024 223.888819 
L 107.06024 217.236019 
L 107.072588 210.583219 
L 107.072588 203.930419 
L 107.072588 197.277619 
L 100.92045 191.5472 
L 99.930188 190.624819 
L 93.77805 184.8944 
L 92.787788 183.972019 
L 92.787788 177.319219 
L 92.787788 170.666419 
L 92.787788 164.013619 
L 92.787788 157.360819 
L 86.63565 151.6304 
L 79.49325 151.6304 
L 78.502988 150.708019 
L 78.502988 144.055219 
L 78.502988 137.402419 
L 78.502988 130.749619 
L 78.505957 124.096819 
L 78.527374 117.444019 
L 72.35085 111.690886 
L 65.20845 111.710834 
L 64.221157 110.791219 
L 64.242574 104.138419 
L 64.242574 97.485619 
L 64.242574 90.832819 
L 64.242574 84.180019 
L 64.242574 77.527219 
L 58.06605 71.774086 
L 50.92365 71.774086 
L 49.957774 70.874419 
L 49.957774 64.221619 
L 49.957774 57.568819 
L 49.957774 50.916019 
L 49.957774 44.263219 
L 49.957774 37.610419 
L 43.78125 31.857286 
L 43.78125 34.035108 
L 47.619679 37.610419 
L 47.619679 44.263219 
L 47.619679 50.916019 
L 47.619679 57.568819 
L 47.619679 64.221619 
L 47.619679 70.874419 
L 50.92365 73.951908 
L 58.06605 73.951908 
L 61.904479 77.527219 
L 61.904479 84.180019 
L 61.904479 90.832819 
L 61.904479 97.485619 
L 61.904479 104.138419 
L 61.883063 110.791219 
L 65.20845 113.888656 
L 72.35085 113.868708 
L 76.189279 117.444019 
L 76.167863 124.096819 
L 76.157861 130.749619 
L 76.157861 137.402419 
L 76.157861 144.055219 
L 76.157861 150.708019 
L 79.49325 153.814772 
L 86.63565 153.814772 
L 90.442661 157.360819 
L 90.442661 164.013619 
L 90.442661 170.666419 
L 90.442661 177.319219 
L 90.442661 183.972019 
L 93.77805 187.078772 
L 97.585061 190.624819 
L 100.92045 193.731572 
L 104.727461 197.277619 
L 104.727461 203.930419 
L 104.727461 210.583219 
L 104.71982 217.236019 
L 104.71982 223.888819 
L 104.473612 230.541619 
L 104.26422 237.194419 
L 108.06285 240.732659 
L 111.40662 243.847219 
L 115.20525 247.385459 
L 118.54902 250.500019 
L 118.54902 257.152819 
L 118.54902 263.805619 
L 118.54902 270.458419 
z
" clip-path="url(#pbff9fcaa6f)" style="fill: #fdccb8"/>
    <path d="M 122.34765 271.792402 
L 129.49005 271.792402 
L 135.200295 277.111219 
L 136.63245 277.111219 
L 137.566769 277.111219 
L 137.566769 270.458419 
L 136.63245 269.588145 
L 129.49005 269.588145 
L 123.281969 263.805619 
L 123.281969 257.152819 
L 123.281969 250.500019 
L 123.451404 243.847219 
L 122.34765 242.819125 
L 115.20525 242.976945 
L 108.997169 237.194419 
L 109.166604 230.541619 
L 109.400659 223.888819 
L 109.40335 217.236019 
L 109.417714 210.583219 
L 109.417714 203.930419 
L 109.417714 197.277619 
L 109.417714 190.624819 
L 108.06285 189.362828 
L 100.92045 189.362828 
L 95.132914 183.972019 
L 95.132914 177.319219 
L 95.132914 170.666419 
L 95.132914 164.013619 
L 95.132914 157.360819 
L 93.77805 156.098828 
L 87.990514 150.708019 
L 86.63565 149.446028 
L 80.848114 144.055219 
L 80.848114 137.402419 
L 80.848114 130.749619 
L 80.848114 124.096819 
L 80.865468 117.444019 
L 79.49325 116.165864 
L 73.723068 110.791219 
L 72.35085 109.513064 
L 66.580668 104.138419 
L 66.580668 97.485619 
L 66.580668 90.832819 
L 66.580668 84.180019 
L 66.580668 77.527219 
L 65.20845 76.249064 
L 59.438268 70.874419 
L 58.06605 69.596264 
L 52.295868 64.221619 
L 52.295868 57.568819 
L 52.295868 50.916019 
L 52.295868 44.263219 
L 52.295868 37.610419 
L 50.92365 37.610419 
L 43.78125 30.957619 
L 43.78125 31.857286 
L 49.957774 37.610419 
L 49.957774 44.263219 
L 49.957774 50.916019 
L 49.957774 57.568819 
L 49.957774 64.221619 
L 49.957774 70.874419 
L 50.92365 71.774086 
L 58.06605 71.774086 
L 64.242574 77.527219 
L 64.242574 84.180019 
L 64.242574 90.832819 
L 64.242574 97.485619 
L 64.242574 104.138419 
L 64.221157 110.791219 
L 65.20845 111.710834 
L 72.35085 111.690886 
L 78.527374 117.444019 
L 78.505957 124.096819 
L 78.502988 130.749619 
L 78.502988 137.402419 
L 78.502988 144.055219 
L 78.502988 150.708019 
L 79.49325 151.6304 
L 86.63565 151.6304 
L 92.787788 157.360819 
L 92.787788 164.013619 
L 92.787788 170.666419 
L 92.787788 177.319219 
L 92.787788 183.972019 
L 93.77805 184.8944 
L 99.930188 190.624819 
L 100.92045 191.5472 
L 107.072588 197.277619 
L 107.072588 203.930419 
L 107.072588 210.583219 
L 107.06024 217.236019 
L 107.06024 223.888819 
L 106.814032 230.541619 
L 106.630695 237.194419 
L 108.06285 238.528402 
L 113.773095 243.847219 
L 115.20525 245.181202 
L 120.915495 250.500019 
L 120.915495 257.152819 
L 120.915495 263.805619 
L 120.915495 270.458419 
z
" clip-path="url(#pbff9fcaa6f)" style="fill: #fcb69b"/>
    <path d="M 139.933244 270.458419 
L 136.63245 267.383889 
L 129.49005 267.383889 
L 125.648444 263.805619 
L 125.648444 257.152819 
L 125.648444 250.500019 
L 125.817878 243.847219 
L 122.34765 240.614869 
L 115.20525 240.772689 
L 111.363644 237.194419 
L 111.533078 230.541619 
L 111.741079 223.888819 
L 111.748476 217.236019 
L 111.762841 210.583219 
L 111.762841 203.930419 
L 111.762841 197.277619 
L 111.762841 190.624819 
L 108.06285 187.178457 
L 100.92045 187.178457 
L 97.478041 183.972019 
L 97.478041 177.319219 
L 97.478041 170.666419 
L 97.478041 164.013619 
L 97.478041 157.360819 
L 93.77805 153.914457 
L 90.335641 150.708019 
L 86.63565 147.261657 
L 83.193241 144.055219 
L 83.193241 137.402419 
L 83.193241 130.749619 
L 83.193241 124.096819 
L 83.203563 117.444019 
L 79.49325 113.988042 
L 76.061163 110.791219 
L 72.35085 107.335242 
L 68.918763 104.138419 
L 68.918763 97.485619 
L 68.918763 90.832819 
L 68.918763 84.180019 
L 68.918763 77.527219 
L 65.20845 74.071242 
L 61.776363 70.874419 
L 58.06605 67.418442 
L 54.633963 64.221619 
L 54.633963 57.568819 
L 54.633963 50.916019 
L 54.633963 44.263219 
L 54.633963 37.610419 
L 52.295868 37.610419 
L 52.295868 44.263219 
L 52.295868 50.916019 
L 52.295868 57.568819 
L 52.295868 64.221619 
L 58.06605 69.596264 
L 59.438268 70.874419 
L 65.20845 76.249064 
L 66.580668 77.527219 
L 66.580668 84.180019 
L 66.580668 90.832819 
L 66.580668 97.485619 
L 66.580668 104.138419 
L 72.35085 109.513064 
L 73.723068 110.791219 
L 79.49325 116.165864 
L 80.865468 117.444019 
L 80.848114 124.096819 
L 80.848114 130.749619 
L 80.848114 137.402419 
L 80.848114 144.055219 
L 86.63565 149.446028 
L 87.990514 150.708019 
L 93.77805 156.098828 
L 95.132914 157.360819 
L 95.132914 164.013619 
L 95.132914 170.666419 
L 95.132914 177.319219 
L 95.132914 183.972019 
L 100.92045 189.362828 
L 108.06285 189.362828 
L 109.417714 190.624819 
L 109.417714 197.277619 
L 109.417714 203.930419 
L 109.417714 210.583219 
L 109.40335 217.236019 
L 109.400659 223.888819 
L 109.166604 230.541619 
L 108.997169 237.194419 
L 115.20525 242.976945 
L 122.34765 242.819125 
L 123.451404 243.847219 
L 123.281969 250.500019 
L 123.281969 257.152819 
L 123.281969 263.805619 
L 129.49005 269.588145 
L 136.63245 269.588145 
L 137.566769 270.458419 
L 137.566769 277.111219 
L 139.933244 277.111219 
z
" clip-path="url(#pbff9fcaa6f)" style="fill: #fc9c7d"/>
    <path d="M 142.299719 270.458419 
L 136.63245 265.179632 
L 129.49005 265.179632 
L 128.014919 263.805619 
L 128.014919 257.152819 
L 128.014919 250.500019 
L 128.184353 243.847219 
L 122.34765 238.410612 
L 115.20525 238.568432 
L 113.730119 237.194419 
L 113.899553 230.541619 
L 114.081498 223.888819 
L 114.093602 217.236019 
L 114.107967 210.583219 
L 114.107967 203.930419 
L 114.107967 197.277619 
L 114.107967 190.624819 
L 108.06285 184.994085 
L 100.92045 184.994085 
L 99.823167 183.972019 
L 99.823167 177.319219 
L 99.823167 170.666419 
L 99.823167 164.013619 
L 99.823167 157.360819 
L 93.77805 151.730085 
L 92.680767 150.708019 
L 86.63565 145.077285 
L 85.538367 144.055219 
L 85.538367 137.402419 
L 85.538367 130.749619 
L 85.538367 124.096819 
L 85.541657 117.444019 
L 79.49325 111.81022 
L 78.399257 110.791219 
L 72.35085 105.15742 
L 71.256857 104.138419 
L 71.256857 97.485619 
L 71.256857 90.832819 
L 71.256857 84.180019 
L 71.256857 77.527219 
L 65.20845 71.89342 
L 64.114457 70.874419 
L 58.06605 65.24062 
L 56.972057 64.221619 
L 56.972057 57.568819 
L 56.972057 50.916019 
L 56.972057 44.263219 
L 56.972057 37.610419 
L 54.633963 37.610419 
L 54.633963 44.263219 
L 54.633963 50.916019 
L 54.633963 57.568819 
L 54.633963 64.221619 
L 58.06605 67.418442 
L 61.776363 70.874419 
L 65.20845 74.071242 
L 68.918763 77.527219 
L 68.918763 84.180019 
L 68.918763 90.832819 
L 68.918763 97.485619 
L 68.918763 104.138419 
L 72.35085 107.335242 
L 76.061163 110.791219 
L 79.49325 113.988042 
L 83.203563 117.444019 
L 83.193241 124.096819 
L 83.193241 130.749619 
L 83.193241 137.402419 
L 83.193241 144.055219 
L 86.63565 147.261657 
L 90.335641 150.708019 
L 93.77805 153.914457 
L 97.478041 157.360819 
L 97.478041 164.013619 
L 97.478041 170.666419 
L 97.478041 177.319219 
L 97.478041 183.972019 
L 100.92045 187.178457 
L 108.06285 187.178457 
L 111.762841 190.624819 
L 111.762841 197.277619 
L 111.762841 203.930419 
L 111.762841 210.583219 
L 111.748476 217.236019 
L 111.741079 223.888819 
L 111.533078 230.541619 
L 111.363644 237.194419 
L 115.20525 240.772689 
L 122.34765 240.614869 
L 125.817878 243.847219 
L 125.648444 250.500019 
L 125.648444 257.152819 
L 125.648444 263.805619 
L 129.49005 267.383889 
L 136.63245 267.383889 
L 139.933244 270.458419 
L 139.933244 277.111219 
L 142.299719 277.111219 
z
" clip-path="url(#pbff9fcaa6f)" style="fill: #fc8262"/>
    <path d="M 143.77485 277.111219 
L 150.91725 277.111219 
L 158.05965 277.111219 
L 165.20205 277.111219 
L 172.34445 277.111219 
L 179.48685 277.111219 
L 186.62925 277.111219 
L 193.77165 277.111219 
L 200.91405 277.111219 
L 208.05645 277.111219 
L 215.19885 277.111219 
L 216.090114 277.111219 
L 216.274027 270.458419 
L 222.34125 264.94896 
L 229.48365 264.94896 
L 236.62605 264.99472 
L 242.451769 270.458419 
L 242.451769 277.111219 
L 243.76845 277.111219 
L 250.91085 277.111219 
L 258.05325 277.111219 
L 265.19565 277.111219 
L 272.33805 277.111219 
L 279.48045 277.111219 
L 286.62285 277.111219 
L 293.76525 277.111219 
L 300.90765 277.111219 
L 308.05005 277.111219 
L 300.90765 270.458419 
L 300.90765 263.805619 
L 293.76525 263.805619 
L 286.62285 257.152819 
L 279.48045 250.500019 
L 272.33805 243.847219 
L 265.19565 237.194419 
L 258.05325 230.541619 
L 258.05325 223.888819 
L 250.91085 223.888819 
L 243.76845 217.236019 
L 236.62605 210.583219 
L 229.48365 203.930419 
L 222.34125 197.277619 
L 215.19885 190.624819 
L 208.05645 183.972019 
L 200.91405 177.319219 
L 200.91405 170.666419 
L 193.77165 170.666419 
L 186.62925 164.013619 
L 186.62925 157.360819 
L 179.48685 157.360819 
L 172.34445 150.708019 
L 172.34445 144.055219 
L 165.20205 144.055219 
L 158.05965 137.402419 
L 158.05965 130.749619 
L 150.91725 130.749619 
L 143.77485 124.096819 
L 136.63245 117.444019 
L 129.49005 110.791219 
L 122.34765 104.138419 
L 115.20525 97.485619 
L 108.06285 90.832819 
L 100.92045 84.180019 
L 100.92045 77.527219 
L 93.77805 77.527219 
L 86.63565 70.874419 
L 79.49325 64.221619 
L 72.35085 57.568819 
L 65.20845 50.916019 
L 58.06605 44.263219 
L 58.06605 37.610419 
L 56.972057 37.610419 
L 56.972057 44.263219 
L 56.972057 50.916019 
L 56.972057 57.568819 
L 56.972057 64.221619 
L 58.06605 65.24062 
L 64.114457 70.874419 
L 65.20845 71.89342 
L 71.256857 77.527219 
L 71.256857 84.180019 
L 71.256857 90.832819 
L 71.256857 97.485619 
L 71.256857 104.138419 
L 72.35085 105.15742 
L 78.399257 110.791219 
L 79.49325 111.81022 
L 85.541657 117.444019 
L 85.538367 124.096819 
L 85.538367 130.749619 
L 85.538367 137.402419 
L 85.538367 144.055219 
L 86.63565 145.077285 
L 92.680767 150.708019 
L 93.77805 151.730085 
L 99.823167 157.360819 
L 99.823167 164.013619 
L 99.823167 170.666419 
L 99.823167 177.319219 
L 99.823167 183.972019 
L 100.92045 184.994085 
L 108.06285 184.994085 
L 114.107967 190.624819 
L 114.107967 197.277619 
L 114.107967 203.930419 
L 114.107967 210.583219 
L 114.093602 217.236019 
L 114.081498 223.888819 
L 113.899553 230.541619 
L 113.730119 237.194419 
L 115.20525 238.568432 
L 122.34765 238.410612 
L 128.184353 243.847219 
L 128.014919 250.500019 
L 128.014919 257.152819 
L 128.014919 263.805619 
L 129.49005 265.179632 
L 136.63245 265.179632 
L 142.299719 270.458419 
L 142.299719 277.111219 
z
" clip-path="url(#pbff9fcaa6f)" style="fill: #fb694a"/>
    <path d="M 218.640291 270.458419 
L 222.34125 267.097692 
L 229.48365 267.097692 
L 236.62605 267.143451 
L 240.160664 270.458419 
L 240.160664 277.111219 
L 242.451769 277.111219 
L 242.451769 270.458419 
L 236.62605 264.99472 
L 229.48365 264.94896 
L 222.34125 264.94896 
L 216.274027 270.458419 
L 216.090114 277.111219 
L 218.456378 277.111219 
z
" clip-path="url(#pbff9fcaa6f)" style="fill: #f44d38"/>
    <path d="M 221.006555 270.458419 
L 222.34125 269.246423 
L 229.48365 269.246423 
L 236.62605 269.292183 
L 237.86956 270.458419 
L 237.86956 277.111219 
L 240.160664 277.111219 
L 240.160664 270.458419 
L 236.62605 267.143451 
L 229.48365 267.097692 
L 222.34125 267.097692 
L 218.640291 270.458419 
L 218.456378 277.111219 
L 220.822642 277.111219 
z
" clip-path="url(#pbff9fcaa6f)" style="fill: #e63328"/>
    <path d="M 222.34125 277.111219 
L 223.188906 277.111219 
L 229.48365 271.395155 
L 235.578455 277.111219 
L 236.62605 277.111219 
L 237.86956 277.111219 
L 237.86956 270.458419 
L 236.62605 269.292183 
L 229.48365 269.246423 
L 222.34125 269.246423 
L 221.006555 270.458419 
L 220.822642 277.111219 
z
" clip-path="url(#pbff9fcaa6f)" style="fill: #d01d1f"/>
    <path d="M 229.48365 273.543887 
L 233.28735 277.111219 
L 235.578455 277.111219 
L 229.48365 271.395155 
L 223.188906 277.111219 
L 225.55517 277.111219 
z
" clip-path="url(#pbff9fcaa6f)" style="fill: #b91419"/>
    <path d="M 229.48365 275.692618 
L 230.996246 277.111219 
L 233.28735 277.111219 
L 229.48365 273.543887 
L 225.55517 277.111219 
L 227.921434 277.111219 
z
" clip-path="url(#pbff9fcaa6f)" style="fill: #9f0e14"/>
    <path d="M 229.48365 277.111219 
L 230.996246 277.111219 
L 229.48365 275.692618 
L 227.921434 277.111219 
z
" clip-path="url(#pbff9fcaa6f)" style="fill: #79040f"/>
   </g>
   <g id="matplotlib.axis_1">
    <g id="xtick_1">
     <g id="line2d_1">
      <defs>
       <path id="me720fcd21e" d="M 0 0 
L 0 3.5 
" style="stroke: #000000; stroke-width: 0.8"/>
      </defs>
      <g>
       <use xlink:href="#me720fcd21e" x="43.78125" y="277.111219" style="stroke: #000000; stroke-width: 0.8"/>
      </g>
     </g>
     <g id="text_1">
      <!-- 0.0 -->
      <g transform="translate(35.829688 291.709656) scale(0.1 -0.1)">
       <defs>
        <path id="DejaVuSans-30" d="M 2034 4250 
Q 1547 4250 1301 3770 
Q 1056 3291 1056 2328 
Q 1056 1369 1301 889 
Q 1547 409 2034 409 
Q 2525 409 2770 889 
Q 3016 1369 3016 2328 
Q 3016 3291 2770 3770 
Q 2525 4250 2034 4250 
z
M 2034 4750 
Q 2819 4750 3233 4129 
Q 3647 3509 3647 2328 
Q 3647 1150 3233 529 
Q 2819 -91 2034 -91 
Q 1250 -91 836 529 
Q 422 1150 422 2328 
Q 422 3509 836 4129 
Q 1250 4750 2034 4750 
z
" transform="scale(0.015625)"/>
        <path id="DejaVuSans-2e" d="M 684 794 
L 1344 794 
L 1344 0 
L 684 0 
L 684 794 
z
" transform="scale(0.015625)"/>
       </defs>
       <use xlink:href="#DejaVuSans-30"/>
       <use xlink:href="#DejaVuSans-2e" x="63.623047"/>
       <use xlink:href="#DejaVuSans-30" x="95.410156"/>
      </g>
     </g>
    </g>
    <g id="xtick_2">
     <g id="line2d_2">
      <g>
       <use xlink:href="#me720fcd21e" x="100.92045" y="277.111219" style="stroke: #000000; stroke-width: 0.8"/>
      </g>
     </g>
     <g id="text_2">
      <!-- 0.2 -->
      <g transform="translate(92.968888 291.709656) scale(0.1 -0.1)">
       <defs>
        <path id="DejaVuSans-32" d="M 1228 531 
L 3431 531 
L 3431 0 
L 469 0 
L 469 531 
Q 828 903 1448 1529 
Q 2069 2156 2228 2338 
Q 2531 2678 2651 2914 
Q 2772 3150 2772 3378 
Q 2772 3750 2511 3984 
Q 2250 4219 1831 4219 
Q 1534 4219 1204 4116 
Q 875 4013 500 3803 
L 500 4441 
Q 881 4594 1212 4672 
Q 1544 4750 1819 4750 
Q 2544 4750 2975 4387 
Q 3406 4025 3406 3419 
Q 3406 3131 3298 2873 
Q 3191 2616 2906 2266 
Q 2828 2175 2409 1742 
Q 1991 1309 1228 531 
z
" transform="scale(0.015625)"/>
       </defs>
       <use xlink:href="#DejaVuSans-30"/>
       <use xlink:href="#DejaVuSans-2e" x="63.623047"/>
       <use xlink:href="#DejaVuSans-32" x="95.410156"/>
      </g>
     </g>
    </g>
    <g id="xtick_3">
     <g id="line2d_3">
      <g>
       <use xlink:href="#me720fcd21e" x="158.05965" y="277.111219" style="stroke: #000000; stroke-width: 0.8"/>
      </g>
     </g>
     <g id="text_3">
      <!-- 0.4 -->
      <g transform="translate(150.108088 291.709656) scale(0.1 -0.1)">
       <defs>
        <path id="DejaVuSans-34" d="M 2419 4116 
L 825 1625 
L 2419 1625 
L 2419 4116 
z
M 2253 4666 
L 3047 4666 
L 3047 1625 
L 3713 1625 
L 3713 1100 
L 3047 1100 
L 3047 0 
L 2419 0 
L 2419 1100 
L 313 1100 
L 313 1709 
L 2253 4666 
z
" transform="scale(0.015625)"/>
       </defs>
       <use xlink:href="#DejaVuSans-30"/>
       <use xlink:href="#DejaVuSans-2e" x="63.623047"/>
       <use xlink:href="#DejaVuSans-34" x="95.410156"/>
      </g>
     </g>
    </g>
    <g id="xtick_4">
     <g id="line2d_4">
      <g>
       <use xlink:href="#me720fcd21e" x="215.19885" y="277.111219" style="stroke: #000000; stroke-width: 0.8"/>
      </g>
     </g>
     <g id="text_4">
      <!-- 0.6 -->
      <g transform="translate(207.247288 291.709656) scale(0.1 -0.1)">
       <defs>
        <path id="DejaVuSans-36" d="M 2113 2584 
Q 1688 2584 1439 2293 
Q 1191 2003 1191 1497 
Q 1191 994 1439 701 
Q 1688 409 2113 409 
Q 2538 409 2786 701 
Q 3034 994 3034 1497 
Q 3034 2003 2786 2293 
Q 2538 2584 2113 2584 
z
M 3366 4563 
L 3366 3988 
Q 3128 4100 2886 4159 
Q 2644 4219 2406 4219 
Q 1781 4219 1451 3797 
Q 1122 3375 1075 2522 
Q 1259 2794 1537 2939 
Q 1816 3084 2150 3084 
Q 2853 3084 3261 2657 
Q 3669 2231 3669 1497 
Q 3669 778 3244 343 
Q 2819 -91 2113 -91 
Q 1303 -91 875 529 
Q 447 1150 447 2328 
Q 447 3434 972 4092 
Q 1497 4750 2381 4750 
Q 2619 4750 2861 4703 
Q 3103 4656 3366 4563 
z
" transform="scale(0.015625)"/>
       </defs>
       <use xlink:href="#DejaVuSans-30"/>
       <use xlink:href="#DejaVuSans-2e" x="63.623047"/>
       <use xlink:href="#DejaVuSans-36" x="95.410156"/>
      </g>
     </g>
    </g>
    <g id="xtick_5">
     <g id="line2d_5">
      <g>
       <use xlink:href="#me720fcd21e" x="272.33805" y="277.111219" style="stroke: #000000; stroke-width: 0.8"/>
      </g>
     </g>
     <g id="text_5">
      <!-- 0.8 -->
      <g transform="translate(264.386488 291.709656) scale(0.1 -0.1)">
       <defs>
        <path id="DejaVuSans-38" d="M 2034 2216 
Q 1584 2216 1326 1975 
Q 1069 1734 1069 1313 
Q 1069 891 1326 650 
Q 1584 409 2034 409 
Q 2484 409 2743 651 
Q 3003 894 3003 1313 
Q 3003 1734 2745 1975 
Q 2488 2216 2034 2216 
z
M 1403 2484 
Q 997 2584 770 2862 
Q 544 3141 544 3541 
Q 544 4100 942 4425 
Q 1341 4750 2034 4750 
Q 2731 4750 3128 4425 
Q 3525 4100 3525 3541 
Q 3525 3141 3298 2862 
Q 3072 2584 2669 2484 
Q 3125 2378 3379 2068 
Q 3634 1759 3634 1313 
Q 3634 634 3220 271 
Q 2806 -91 2034 -91 
Q 1263 -91 848 271 
Q 434 634 434 1313 
Q 434 1759 690 2068 
Q 947 2378 1403 2484 
z
M 1172 3481 
Q 1172 3119 1398 2916 
Q 1625 2713 2034 2713 
Q 2441 2713 2670 2916 
Q 2900 3119 2900 3481 
Q 2900 3844 2670 4047 
Q 2441 4250 2034 4250 
Q 1625 4250 1398 4047 
Q 1172 3844 1172 3481 
z
" transform="scale(0.015625)"/>
       </defs>
       <use xlink:href="#DejaVuSans-30"/>
       <use xlink:href="#DejaVuSans-2e" x="63.623047"/>
       <use xlink:href="#DejaVuSans-38" x="95.410156"/>
      </g>
     </g>
    </g>
    <g id="xtick_6">
     <g id="line2d_6">
      <g>
       <use xlink:href="#me720fcd21e" x="329.47725" y="277.111219" style="stroke: #000000; stroke-width: 0.8"/>
      </g>
     </g>
     <g id="text_6">
      <!-- 1.0 -->
      <g transform="translate(321.525688 291.709656) scale(0.1 -0.1)">
       <defs>
        <path id="DejaVuSans-31" d="M 794 531 
L 1825 531 
L 1825 4091 
L 703 3866 
L 703 4441 
L 1819 4666 
L 2450 4666 
L 2450 531 
L 3481 531 
L 3481 0 
L 794 0 
L 794 531 
z
" transform="scale(0.015625)"/>
       </defs>
       <use xlink:href="#DejaVuSans-31"/>
       <use xlink:href="#DejaVuSans-2e" x="63.623047"/>
       <use xlink:href="#DejaVuSans-30" x="95.410156"/>
      </g>
     </g>
    </g>
    <g id="text_7">
     <!-- Equity in Vaccination Burden Multiplier (a) -->
     <g transform="translate(81.262844 305.387781) scale(0.1 -0.1)">
      <defs>
       <path id="DejaVuSans-45" d="M 628 4666 
L 3578 4666 
L 3578 4134 
L 1259 4134 
L 1259 2753 
L 3481 2753 
L 3481 2222 
L 1259 2222 
L 1259 531 
L 3634 531 
L 3634 0 
L 628 0 
L 628 4666 
z
" transform="scale(0.015625)"/>
       <path id="DejaVuSans-71" d="M 947 1747 
Q 947 1113 1208 752 
Q 1469 391 1925 391 
Q 2381 391 2643 752 
Q 2906 1113 2906 1747 
Q 2906 2381 2643 2742 
Q 2381 3103 1925 3103 
Q 1469 3103 1208 2742 
Q 947 2381 947 1747 
z
M 2906 525 
Q 2725 213 2448 61 
Q 2172 -91 1784 -91 
Q 1150 -91 751 415 
Q 353 922 353 1747 
Q 353 2572 751 3078 
Q 1150 3584 1784 3584 
Q 2172 3584 2448 3432 
Q 2725 3281 2906 2969 
L 2906 3500 
L 3481 3500 
L 3481 -1331 
L 2906 -1331 
L 2906 525 
z
" transform="scale(0.015625)"/>
       <path id="DejaVuSans-75" d="M 544 1381 
L 544 3500 
L 1119 3500 
L 1119 1403 
Q 1119 906 1312 657 
Q 1506 409 1894 409 
Q 2359 409 2629 706 
Q 2900 1003 2900 1516 
L 2900 3500 
L 3475 3500 
L 3475 0 
L 2900 0 
L 2900 538 
Q 2691 219 2414 64 
Q 2138 -91 1772 -91 
Q 1169 -91 856 284 
Q 544 659 544 1381 
z
M 1991 3584 
L 1991 3584 
z
" transform="scale(0.015625)"/>
       <path id="DejaVuSans-69" d="M 603 3500 
L 1178 3500 
L 1178 0 
L 603 0 
L 603 3500 
z
M 603 4863 
L 1178 4863 
L 1178 4134 
L 603 4134 
L 603 4863 
z
" transform="scale(0.015625)"/>
       <path id="DejaVuSans-74" d="M 1172 4494 
L 1172 3500 
L 2356 3500 
L 2356 3053 
L 1172 3053 
L 1172 1153 
Q 1172 725 1289 603 
Q 1406 481 1766 481 
L 2356 481 
L 2356 0 
L 1766 0 
Q 1100 0 847 248 
Q 594 497 594 1153 
L 594 3053 
L 172 3053 
L 172 3500 
L 594 3500 
L 594 4494 
L 1172 4494 
z
" transform="scale(0.015625)"/>
       <path id="DejaVuSans-79" d="M 2059 -325 
Q 1816 -950 1584 -1140 
Q 1353 -1331 966 -1331 
L 506 -1331 
L 506 -850 
L 844 -850 
Q 1081 -850 1212 -737 
Q 1344 -625 1503 -206 
L 1606 56 
L 191 3500 
L 800 3500 
L 1894 763 
L 2988 3500 
L 3597 3500 
L 2059 -325 
z
" transform="scale(0.015625)"/>
       <path id="DejaVuSans-20" transform="scale(0.015625)"/>
       <path id="DejaVuSans-6e" d="M 3513 2113 
L 3513 0 
L 2938 0 
L 2938 2094 
Q 2938 2591 2744 2837 
Q 2550 3084 2163 3084 
Q 1697 3084 1428 2787 
Q 1159 2491 1159 1978 
L 1159 0 
L 581 0 
L 581 3500 
L 1159 3500 
L 1159 2956 
Q 1366 3272 1645 3428 
Q 1925 3584 2291 3584 
Q 2894 3584 3203 3211 
Q 3513 2838 3513 2113 
z
" transform="scale(0.015625)"/>
       <path id="DejaVuSans-56" d="M 1831 0 
L 50 4666 
L 709 4666 
L 2188 738 
L 3669 4666 
L 4325 4666 
L 2547 0 
L 1831 0 
z
" transform="scale(0.015625)"/>
       <path id="DejaVuSans-61" d="M 2194 1759 
Q 1497 1759 1228 1600 
Q 959 1441 959 1056 
Q 959 750 1161 570 
Q 1363 391 1709 391 
Q 2188 391 2477 730 
Q 2766 1069 2766 1631 
L 2766 1759 
L 2194 1759 
z
M 3341 1997 
L 3341 0 
L 2766 0 
L 2766 531 
Q 2569 213 2275 61 
Q 1981 -91 1556 -91 
Q 1019 -91 701 211 
Q 384 513 384 1019 
Q 384 1609 779 1909 
Q 1175 2209 1959 2209 
L 2766 2209 
L 2766 2266 
Q 2766 2663 2505 2880 
Q 2244 3097 1772 3097 
Q 1472 3097 1187 3025 
Q 903 2953 641 2809 
L 641 3341 
Q 956 3463 1253 3523 
Q 1550 3584 1831 3584 
Q 2591 3584 2966 3190 
Q 3341 2797 3341 1997 
z
" transform="scale(0.015625)"/>
       <path id="DejaVuSans-63" d="M 3122 3366 
L 3122 2828 
Q 2878 2963 2633 3030 
Q 2388 3097 2138 3097 
Q 1578 3097 1268 2742 
Q 959 2388 959 1747 
Q 959 1106 1268 751 
Q 1578 397 2138 397 
Q 2388 397 2633 464 
Q 2878 531 3122 666 
L 3122 134 
Q 2881 22 2623 -34 
Q 2366 -91 2075 -91 
Q 1284 -91 818 406 
Q 353 903 353 1747 
Q 353 2603 823 3093 
Q 1294 3584 2113 3584 
Q 2378 3584 2631 3529 
Q 2884 3475 3122 3366 
z
" transform="scale(0.015625)"/>
       <path id="DejaVuSans-6f" d="M 1959 3097 
Q 1497 3097 1228 2736 
Q 959 2375 959 1747 
Q 959 1119 1226 758 
Q 1494 397 1959 397 
Q 2419 397 2687 759 
Q 2956 1122 2956 1747 
Q 2956 2369 2687 2733 
Q 2419 3097 1959 3097 
z
M 1959 3584 
Q 2709 3584 3137 3096 
Q 3566 2609 3566 1747 
Q 3566 888 3137 398 
Q 2709 -91 1959 -91 
Q 1206 -91 779 398 
Q 353 888 353 1747 
Q 353 2609 779 3096 
Q 1206 3584 1959 3584 
z
" transform="scale(0.015625)"/>
       <path id="DejaVuSans-42" d="M 1259 2228 
L 1259 519 
L 2272 519 
Q 2781 519 3026 730 
Q 3272 941 3272 1375 
Q 3272 1813 3026 2020 
Q 2781 2228 2272 2228 
L 1259 2228 
z
M 1259 4147 
L 1259 2741 
L 2194 2741 
Q 2656 2741 2882 2914 
Q 3109 3088 3109 3444 
Q 3109 3797 2882 3972 
Q 2656 4147 2194 4147 
L 1259 4147 
z
M 628 4666 
L 2241 4666 
Q 2963 4666 3353 4366 
Q 3744 4066 3744 3513 
Q 3744 3084 3544 2831 
Q 3344 2578 2956 2516 
Q 3422 2416 3680 2098 
Q 3938 1781 3938 1306 
Q 3938 681 3513 340 
Q 3088 0 2303 0 
L 628 0 
L 628 4666 
z
" transform="scale(0.015625)"/>
       <path id="DejaVuSans-72" d="M 2631 2963 
Q 2534 3019 2420 3045 
Q 2306 3072 2169 3072 
Q 1681 3072 1420 2755 
Q 1159 2438 1159 1844 
L 1159 0 
L 581 0 
L 581 3500 
L 1159 3500 
L 1159 2956 
Q 1341 3275 1631 3429 
Q 1922 3584 2338 3584 
Q 2397 3584 2469 3576 
Q 2541 3569 2628 3553 
L 2631 2963 
z
" transform="scale(0.015625)"/>
       <path id="DejaVuSans-64" d="M 2906 2969 
L 2906 4863 
L 3481 4863 
L 3481 0 
L 2906 0 
L 2906 525 
Q 2725 213 2448 61 
Q 2172 -91 1784 -91 
Q 1150 -91 751 415 
Q 353 922 353 1747 
Q 353 2572 751 3078 
Q 1150 3584 1784 3584 
Q 2172 3584 2448 3432 
Q 2725 3281 2906 2969 
z
M 947 1747 
Q 947 1113 1208 752 
Q 1469 391 1925 391 
Q 2381 391 2643 752 
Q 2906 1113 2906 1747 
Q 2906 2381 2643 2742 
Q 2381 3103 1925 3103 
Q 1469 3103 1208 2742 
Q 947 2381 947 1747 
z
" transform="scale(0.015625)"/>
       <path id="DejaVuSans-65" d="M 3597 1894 
L 3597 1613 
L 953 1613 
Q 991 1019 1311 708 
Q 1631 397 2203 397 
Q 2534 397 2845 478 
Q 3156 559 3463 722 
L 3463 178 
Q 3153 47 2828 -22 
Q 2503 -91 2169 -91 
Q 1331 -91 842 396 
Q 353 884 353 1716 
Q 353 2575 817 3079 
Q 1281 3584 2069 3584 
Q 2775 3584 3186 3129 
Q 3597 2675 3597 1894 
z
M 3022 2063 
Q 3016 2534 2758 2815 
Q 2500 3097 2075 3097 
Q 1594 3097 1305 2825 
Q 1016 2553 972 2059 
L 3022 2063 
z
" transform="scale(0.015625)"/>
       <path id="DejaVuSans-4d" d="M 628 4666 
L 1569 4666 
L 2759 1491 
L 3956 4666 
L 4897 4666 
L 4897 0 
L 4281 0 
L 4281 4097 
L 3078 897 
L 2444 897 
L 1241 4097 
L 1241 0 
L 628 0 
L 628 4666 
z
" transform="scale(0.015625)"/>
       <path id="DejaVuSans-6c" d="M 603 4863 
L 1178 4863 
L 1178 0 
L 603 0 
L 603 4863 
z
" transform="scale(0.015625)"/>
       <path id="DejaVuSans-70" d="M 1159 525 
L 1159 -1331 
L 581 -1331 
L 581 3500 
L 1159 3500 
L 1159 2969 
Q 1341 3281 1617 3432 
Q 1894 3584 2278 3584 
Q 2916 3584 3314 3078 
Q 3713 2572 3713 1747 
Q 3713 922 3314 415 
Q 2916 -91 2278 -91 
Q 1894 -91 1617 61 
Q 1341 213 1159 525 
z
M 3116 1747 
Q 3116 2381 2855 2742 
Q 2594 3103 2138 3103 
Q 1681 3103 1420 2742 
Q 1159 2381 1159 1747 
Q 1159 1113 1420 752 
Q 1681 391 2138 391 
Q 2594 391 2855 752 
Q 3116 1113 3116 1747 
z
" transform="scale(0.015625)"/>
       <path id="DejaVuSans-28" d="M 1984 4856 
Q 1566 4138 1362 3434 
Q 1159 2731 1159 2009 
Q 1159 1288 1364 580 
Q 1569 -128 1984 -844 
L 1484 -844 
Q 1016 -109 783 600 
Q 550 1309 550 2009 
Q 550 2706 781 3412 
Q 1013 4119 1484 4856 
L 1984 4856 
z
" transform="scale(0.015625)"/>
       <path id="DejaVuSans-29" d="M 513 4856 
L 1013 4856 
Q 1481 4119 1714 3412 
Q 1947 2706 1947 2009 
Q 1947 1309 1714 600 
Q 1481 -109 1013 -844 
L 513 -844 
Q 928 -128 1133 580 
Q 1338 1288 1338 2009 
Q 1338 2731 1133 3434 
Q 928 4138 513 4856 
z
" transform="scale(0.015625)"/>
      </defs>
      <use xlink:href="#DejaVuSans-45"/>
      <use xlink:href="#DejaVuSans-71" x="63.183594"/>
      <use xlink:href="#DejaVuSans-75" x="126.660156"/>
      <use xlink:href="#DejaVuSans-69" x="190.039062"/>
      <use xlink:href="#DejaVuSans-74" x="217.822266"/>
      <use xlink:href="#DejaVuSans-79" x="257.03125"/>
      <use xlink:href="#DejaVuSans-20" x="316.210938"/>
      <use xlink:href="#DejaVuSans-69" x="347.998047"/>
      <use xlink:href="#DejaVuSans-6e" x="375.78125"/>
      <use xlink:href="#DejaVuSans-20" x="439.160156"/>
      <use xlink:href="#DejaVuSans-56" x="470.947266"/>
      <use xlink:href="#DejaVuSans-61" x="531.605469"/>
      <use xlink:href="#DejaVuSans-63" x="592.884766"/>
      <use xlink:href="#DejaVuSans-63" x="647.865234"/>
      <use xlink:href="#DejaVuSans-69" x="702.845703"/>
      <use xlink:href="#DejaVuSans-6e" x="730.628906"/>
      <use xlink:href="#DejaVuSans-61" x="794.007812"/>
      <use xlink:href="#DejaVuSans-74" x="855.287109"/>
      <use xlink:href="#DejaVuSans-69" x="894.496094"/>
      <use xlink:href="#DejaVuSans-6f" x="922.279297"/>
      <use xlink:href="#DejaVuSans-6e" x="983.460938"/>
      <use xlink:href="#DejaVuSans-20" x="1046.839844"/>
      <use xlink:href="#DejaVuSans-42" x="1078.626953"/>
      <use xlink:href="#DejaVuSans-75" x="1147.230469"/>
      <use xlink:href="#DejaVuSans-72" x="1210.609375"/>
      <use xlink:href="#DejaVuSans-64" x="1249.972656"/>
      <use xlink:href="#DejaVuSans-65" x="1313.449219"/>
      <use xlink:href="#DejaVuSans-6e" x="1374.972656"/>
      <use xlink:href="#DejaVuSans-20" x="1438.351562"/>
      <use xlink:href="#DejaVuSans-4d" x="1470.138672"/>
      <use xlink:href="#DejaVuSans-75" x="1556.417969"/>
      <use xlink:href="#DejaVuSans-6c" x="1619.796875"/>
      <use xlink:href="#DejaVuSans-74" x="1647.580078"/>
      <use xlink:href="#DejaVuSans-69" x="1686.789062"/>
      <use xlink:href="#DejaVuSans-70" x="1714.572266"/>
      <use xlink:href="#DejaVuSans-6c" x="1778.048828"/>
      <use xlink:href="#DejaVuSans-69" x="1805.832031"/>
      <use xlink:href="#DejaVuSans-65" x="1833.615234"/>
      <use xlink:href="#DejaVuSans-72" x="1895.138672"/>
      <use xlink:href="#DejaVuSans-20" x="1936.251953"/>
      <use xlink:href="#DejaVuSans-28" x="1968.039062"/>
      <use xlink:href="#DejaVuSans-61" x="2007.052734"/>
      <use xlink:href="#DejaVuSans-29" x="2068.332031"/>
     </g>
    </g>
   </g>
   <g id="matplotlib.axis_2">
    <g id="ytick_1">
     <g id="line2d_7">
      <defs>
       <path id="mcf251a20e2" d="M 0 0 
L -3.5 0 
" style="stroke: #000000; stroke-width: 0.8"/>
      </defs>
      <g>
       <use xlink:href="#mcf251a20e2" x="43.78125" y="277.111219" style="stroke: #000000; stroke-width: 0.8"/>
      </g>
     </g>
     <g id="text_8">
      <!-- 0.0 -->
      <g transform="translate(20.878125 280.910437) scale(0.1 -0.1)">
       <use xlink:href="#DejaVuSans-30"/>
       <use xlink:href="#DejaVuSans-2e" x="63.623047"/>
       <use xlink:href="#DejaVuSans-30" x="95.410156"/>
      </g>
     </g>
    </g>
    <g id="ytick_2">
     <g id="line2d_8">
      <g>
       <use xlink:href="#mcf251a20e2" x="43.78125" y="223.888819" style="stroke: #000000; stroke-width: 0.8"/>
      </g>
     </g>
     <g id="text_9">
      <!-- 0.2 -->
      <g transform="translate(20.878125 227.688037) scale(0.1 -0.1)">
       <use xlink:href="#DejaVuSans-30"/>
       <use xlink:href="#DejaVuSans-2e" x="63.623047"/>
       <use xlink:href="#DejaVuSans-32" x="95.410156"/>
      </g>
     </g>
    </g>
    <g id="ytick_3">
     <g id="line2d_9">
      <g>
       <use xlink:href="#mcf251a20e2" x="43.78125" y="170.666419" style="stroke: #000000; stroke-width: 0.8"/>
      </g>
     </g>
     <g id="text_10">
      <!-- 0.4 -->
      <g transform="translate(20.878125 174.465637) scale(0.1 -0.1)">
       <use xlink:href="#DejaVuSans-30"/>
       <use xlink:href="#DejaVuSans-2e" x="63.623047"/>
       <use xlink:href="#DejaVuSans-34" x="95.410156"/>
      </g>
     </g>
    </g>
    <g id="ytick_4">
     <g id="line2d_10">
      <g>
       <use xlink:href="#mcf251a20e2" x="43.78125" y="117.444019" style="stroke: #000000; stroke-width: 0.8"/>
      </g>
     </g>
     <g id="text_11">
      <!-- 0.6 -->
      <g transform="translate(20.878125 121.243237) scale(0.1 -0.1)">
       <use xlink:href="#DejaVuSans-30"/>
       <use xlink:href="#DejaVuSans-2e" x="63.623047"/>
       <use xlink:href="#DejaVuSans-36" x="95.410156"/>
      </g>
     </g>
    </g>
    <g id="ytick_5">
     <g id="line2d_11">
      <g>
       <use xlink:href="#mcf251a20e2" x="43.78125" y="64.221619" style="stroke: #000000; stroke-width: 0.8"/>
      </g>
     </g>
     <g id="text_12">
      <!-- 0.8 -->
      <g transform="translate(20.878125 68.020837) scale(0.1 -0.1)">
       <use xlink:href="#DejaVuSans-30"/>
       <use xlink:href="#DejaVuSans-2e" x="63.623047"/>
       <use xlink:href="#DejaVuSans-38" x="95.410156"/>
      </g>
     </g>
    </g>
    <g id="ytick_6">
     <g id="line2d_12">
      <g>
       <use xlink:href="#mcf251a20e2" x="43.78125" y="10.999219" style="stroke: #000000; stroke-width: 0.8"/>
      </g>
     </g>
     <g id="text_13">
      <!-- 1.0 -->
      <g transform="translate(20.878125 14.798437) scale(0.1 -0.1)">
       <use xlink:href="#DejaVuSans-31"/>
       <use xlink:href="#DejaVuSans-2e" x="63.623047"/>
       <use xlink:href="#DejaVuSans-30" x="95.410156"/>
      </g>
     </g>
    </g>
    <g id="text_14">
     <!-- Equity in Infection Burden Multiplier (b) -->
     <g transform="translate(14.798438 242.544281) rotate(-90) scale(0.1 -0.1)">
      <defs>
       <path id="DejaVuSans-49" d="M 628 4666 
L 1259 4666 
L 1259 0 
L 628 0 
L 628 4666 
z
" transform="scale(0.015625)"/>
       <path id="DejaVuSans-66" d="M 2375 4863 
L 2375 4384 
L 1825 4384 
Q 1516 4384 1395 4259 
Q 1275 4134 1275 3809 
L 1275 3500 
L 2222 3500 
L 2222 3053 
L 1275 3053 
L 1275 0 
L 697 0 
L 697 3053 
L 147 3053 
L 147 3500 
L 697 3500 
L 697 3744 
Q 697 4328 969 4595 
Q 1241 4863 1831 4863 
L 2375 4863 
z
" transform="scale(0.015625)"/>
       <path id="DejaVuSans-62" d="M 3116 1747 
Q 3116 2381 2855 2742 
Q 2594 3103 2138 3103 
Q 1681 3103 1420 2742 
Q 1159 2381 1159 1747 
Q 1159 1113 1420 752 
Q 1681 391 2138 391 
Q 2594 391 2855 752 
Q 3116 1113 3116 1747 
z
M 1159 2969 
Q 1341 3281 1617 3432 
Q 1894 3584 2278 3584 
Q 2916 3584 3314 3078 
Q 3713 2572 3713 1747 
Q 3713 922 3314 415 
Q 2916 -91 2278 -91 
Q 1894 -91 1617 61 
Q 1341 213 1159 525 
L 1159 0 
L 581 0 
L 581 4863 
L 1159 4863 
L 1159 2969 
z
" transform="scale(0.015625)"/>
      </defs>
      <use xlink:href="#DejaVuSans-45"/>
      <use xlink:href="#DejaVuSans-71" x="63.183594"/>
      <use xlink:href="#DejaVuSans-75" x="126.660156"/>
      <use xlink:href="#DejaVuSans-69" x="190.039062"/>
      <use xlink:href="#DejaVuSans-74" x="217.822266"/>
      <use xlink:href="#DejaVuSans-79" x="257.03125"/>
      <use xlink:href="#DejaVuSans-20" x="316.210938"/>
      <use xlink:href="#DejaVuSans-69" x="347.998047"/>
      <use xlink:href="#DejaVuSans-6e" x="375.78125"/>
      <use xlink:href="#DejaVuSans-20" x="439.160156"/>
      <use xlink:href="#DejaVuSans-49" x="470.947266"/>
      <use xlink:href="#DejaVuSans-6e" x="500.439453"/>
      <use xlink:href="#DejaVuSans-66" x="563.818359"/>
      <use xlink:href="#DejaVuSans-65" x="599.023438"/>
      <use xlink:href="#DejaVuSans-63" x="660.546875"/>
      <use xlink:href="#DejaVuSans-74" x="715.527344"/>
      <use xlink:href="#DejaVuSans-69" x="754.736328"/>
      <use xlink:href="#DejaVuSans-6f" x="782.519531"/>
      <use xlink:href="#DejaVuSans-6e" x="843.701172"/>
      <use xlink:href="#DejaVuSans-20" x="907.080078"/>
      <use xlink:href="#DejaVuSans-42" x="938.867188"/>
      <use xlink:href="#DejaVuSans-75" x="1007.470703"/>
      <use xlink:href="#DejaVuSans-72" x="1070.849609"/>
      <use xlink:href="#DejaVuSans-64" x="1110.212891"/>
      <use xlink:href="#DejaVuSans-65" x="1173.689453"/>
      <use xlink:href="#DejaVuSans-6e" x="1235.212891"/>
      <use xlink:href="#DejaVuSans-20" x="1298.591797"/>
      <use xlink:href="#DejaVuSans-4d" x="1330.378906"/>
      <use xlink:href="#DejaVuSans-75" x="1416.658203"/>
      <use xlink:href="#DejaVuSans-6c" x="1480.037109"/>
      <use xlink:href="#DejaVuSans-74" x="1507.820312"/>
      <use xlink:href="#DejaVuSans-69" x="1547.029297"/>
      <use xlink:href="#DejaVuSans-70" x="1574.8125"/>
      <use xlink:href="#DejaVuSans-6c" x="1638.289062"/>
      <use xlink:href="#DejaVuSans-69" x="1666.072266"/>
      <use xlink:href="#DejaVuSans-65" x="1693.855469"/>
      <use xlink:href="#DejaVuSans-72" x="1755.378906"/>
      <use xlink:href="#DejaVuSans-20" x="1796.492188"/>
      <use xlink:href="#DejaVuSans-28" x="1828.279297"/>
      <use xlink:href="#DejaVuSans-62" x="1867.292969"/>
      <use xlink:href="#DejaVuSans-29" x="1930.769531"/>
     </g>
    </g>
   </g>
   <g id="patch_3">
    <path d="M 43.78125 277.111219 
L 43.78125 10.999219 
" style="fill: none; stroke: #000000; stroke-width: 0.8; stroke-linejoin: miter; stroke-linecap: square"/>
   </g>
   <g id="patch_4">
    <path d="M 329.47725 277.111219 
L 329.47725 10.999219 
" style="fill: none; stroke: #000000; stroke-width: 0.8; stroke-linejoin: miter; stroke-linecap: square"/>
   </g>
   <g id="patch_5">
    <path d="M 43.78125 277.111219 
L 329.47725 277.111219 
" style="fill: none; stroke: #000000; stroke-width: 0.8; stroke-linejoin: miter; stroke-linecap: square"/>
   </g>
   <g id="patch_6">
    <path d="M 43.78125 10.999219 
L 329.47725 10.999219 
" style="fill: none; stroke: #000000; stroke-width: 0.8; stroke-linejoin: miter; stroke-linecap: square"/>
   </g>
  </g>
  <g id="axes_2">
   <g id="patch_7">
    <path d="M 347.33325 277.111219 
L 360.63885 277.111219 
L 360.63885 10.999219 
L 347.33325 10.999219 
z
" style="fill: #ffffff"/>
   </g>
   <g id="QuadMesh_1">
    <path d="M 347.33325 277.111219 
L 360.63885 277.111219 
L 360.63885 256.641065 
L 347.33325 256.641065 
L 347.33325 277.111219 
" clip-path="url(#p9d1bd75179)" style="fill: #ffefe8"/>
    <path d="M 347.33325 256.641065 
L 360.63885 256.641065 
L 360.63885 236.170911 
L 347.33325 236.170911 
L 347.33325 256.641065 
" clip-path="url(#p9d1bd75179)" style="fill: #fee2d5"/>
    <path d="M 347.33325 236.170911 
L 360.63885 236.170911 
L 360.63885 215.700757 
L 347.33325 215.700757 
L 347.33325 236.170911 
" clip-path="url(#p9d1bd75179)" style="fill: #fdccb8"/>
    <path d="M 347.33325 215.700757 
L 360.63885 215.700757 
L 360.63885 195.230603 
L 347.33325 195.230603 
L 347.33325 215.700757 
" clip-path="url(#p9d1bd75179)" style="fill: #fcb69b"/>
    <path d="M 347.33325 195.230603 
L 360.63885 195.230603 
L 360.63885 174.76045 
L 347.33325 174.76045 
L 347.33325 195.230603 
" clip-path="url(#p9d1bd75179)" style="fill: #fc9c7d"/>
    <path d="M 347.33325 174.76045 
L 360.63885 174.76045 
L 360.63885 154.290296 
L 347.33325 154.290296 
L 347.33325 174.76045 
" clip-path="url(#p9d1bd75179)" style="fill: #fc8262"/>
    <path d="M 347.33325 154.290296 
L 360.63885 154.290296 
L 360.63885 133.820142 
L 347.33325 133.820142 
L 347.33325 154.290296 
" clip-path="url(#p9d1bd75179)" style="fill: #fb694a"/>
    <path d="M 347.33325 133.820142 
L 360.63885 133.820142 
L 360.63885 113.349988 
L 347.33325 113.349988 
L 347.33325 133.820142 
" clip-path="url(#p9d1bd75179)" style="fill: #f44d38"/>
    <path d="M 347.33325 113.349988 
L 360.63885 113.349988 
L 360.63885 92.879834 
L 347.33325 92.879834 
L 347.33325 113.349988 
" clip-path="url(#p9d1bd75179)" style="fill: #e63328"/>
    <path d="M 347.33325 92.879834 
L 360.63885 92.879834 
L 360.63885 72.40968 
L 347.33325 72.40968 
L 347.33325 92.879834 
" clip-path="url(#p9d1bd75179)" style="fill: #d01d1f"/>
    <path d="M 347.33325 72.40968 
L 360.63885 72.40968 
L 360.63885 51.939526 
L 347.33325 51.939526 
L 347.33325 72.40968 
" clip-path="url(#p9d1bd75179)" style="fill: #b91419"/>
    <path d="M 347.33325 51.939526 
L 360.63885 51.939526 
L 360.63885 31.469373 
L 347.33325 31.469373 
L 347.33325 51.939526 
" clip-path="url(#p9d1bd75179)" style="fill: #9f0e14"/>
    <path d="M 347.33325 31.469373 
L 360.63885 31.469373 
L 360.63885 10.999219 
L 347.33325 10.999219 
L 347.33325 31.469373 
" clip-path="url(#p9d1bd75179)" style="fill: #79040f"/>
   </g>
   <g id="matplotlib.axis_3"/>
   <g id="matplotlib.axis_4">
    <g id="ytick_7">
     <g id="line2d_13">
      <defs>
       <path id="mce66dda4ab" d="M 0 0 
L 3.5 0 
" style="stroke: #000000; stroke-width: 0.8"/>
      </defs>
      <g>
       <use xlink:href="#mce66dda4ab" x="360.63885" y="277.111219" style="stroke: #000000; stroke-width: 0.8"/>
      </g>
     </g>
     <g id="text_15">
      <!-- 51.2 -->
      <g transform="translate(367.63885 280.910437) scale(0.1 -0.1)">
       <defs>
        <path id="DejaVuSans-35" d="M 691 4666 
L 3169 4666 
L 3169 4134 
L 1269 4134 
L 1269 2991 
Q 1406 3038 1543 3061 
Q 1681 3084 1819 3084 
Q 2600 3084 3056 2656 
Q 3513 2228 3513 1497 
Q 3513 744 3044 326 
Q 2575 -91 1722 -91 
Q 1428 -91 1123 -41 
Q 819 9 494 109 
L 494 744 
Q 775 591 1075 516 
Q 1375 441 1709 441 
Q 2250 441 2565 725 
Q 2881 1009 2881 1497 
Q 2881 1984 2565 2268 
Q 2250 2553 1709 2553 
Q 1456 2553 1204 2497 
Q 953 2441 691 2322 
L 691 4666 
z
" transform="scale(0.015625)"/>
       </defs>
       <use xlink:href="#DejaVuSans-35"/>
       <use xlink:href="#DejaVuSans-31" x="63.623047"/>
       <use xlink:href="#DejaVuSans-2e" x="127.246094"/>
       <use xlink:href="#DejaVuSans-32" x="159.033203"/>
      </g>
     </g>
    </g>
    <g id="ytick_8">
     <g id="line2d_14">
      <g>
       <use xlink:href="#mce66dda4ab" x="360.63885" y="236.170911" style="stroke: #000000; stroke-width: 0.8"/>
      </g>
     </g>
     <g id="text_16">
      <!-- 52.8 -->
      <g transform="translate(367.63885 239.97013) scale(0.1 -0.1)">
       <use xlink:href="#DejaVuSans-35"/>
       <use xlink:href="#DejaVuSans-32" x="63.623047"/>
       <use xlink:href="#DejaVuSans-2e" x="127.246094"/>
       <use xlink:href="#DejaVuSans-38" x="159.033203"/>
      </g>
     </g>
    </g>
    <g id="ytick_9">
     <g id="line2d_15">
      <g>
       <use xlink:href="#mce66dda4ab" x="360.63885" y="195.230603" style="stroke: #000000; stroke-width: 0.8"/>
      </g>
     </g>
     <g id="text_17">
      <!-- 54.4 -->
      <g transform="translate(367.63885 199.029822) scale(0.1 -0.1)">
       <use xlink:href="#DejaVuSans-35"/>
       <use xlink:href="#DejaVuSans-34" x="63.623047"/>
       <use xlink:href="#DejaVuSans-2e" x="127.246094"/>
       <use xlink:href="#DejaVuSans-34" x="159.033203"/>
      </g>
     </g>
    </g>
    <g id="ytick_10">
     <g id="line2d_16">
      <g>
       <use xlink:href="#mce66dda4ab" x="360.63885" y="154.290296" style="stroke: #000000; stroke-width: 0.8"/>
      </g>
     </g>
     <g id="text_18">
      <!-- 56.0 -->
      <g transform="translate(367.63885 158.089514) scale(0.1 -0.1)">
       <use xlink:href="#DejaVuSans-35"/>
       <use xlink:href="#DejaVuSans-36" x="63.623047"/>
       <use xlink:href="#DejaVuSans-2e" x="127.246094"/>
       <use xlink:href="#DejaVuSans-30" x="159.033203"/>
      </g>
     </g>
    </g>
    <g id="ytick_11">
     <g id="line2d_17">
      <g>
       <use xlink:href="#mce66dda4ab" x="360.63885" y="113.349988" style="stroke: #000000; stroke-width: 0.8"/>
      </g>
     </g>
     <g id="text_19">
      <!-- 57.6 -->
      <g transform="translate(367.63885 117.149207) scale(0.1 -0.1)">
       <defs>
        <path id="DejaVuSans-37" d="M 525 4666 
L 3525 4666 
L 3525 4397 
L 1831 0 
L 1172 0 
L 2766 4134 
L 525 4134 
L 525 4666 
z
" transform="scale(0.015625)"/>
       </defs>
       <use xlink:href="#DejaVuSans-35"/>
       <use xlink:href="#DejaVuSans-37" x="63.623047"/>
       <use xlink:href="#DejaVuSans-2e" x="127.246094"/>
       <use xlink:href="#DejaVuSans-36" x="159.033203"/>
      </g>
     </g>
    </g>
    <g id="ytick_12">
     <g id="line2d_18">
      <g>
       <use xlink:href="#mce66dda4ab" x="360.63885" y="72.40968" style="stroke: #000000; stroke-width: 0.8"/>
      </g>
     </g>
     <g id="text_20">
      <!-- 59.2 -->
      <g transform="translate(367.63885 76.208899) scale(0.1 -0.1)">
       <defs>
        <path id="DejaVuSans-39" d="M 703 97 
L 703 672 
Q 941 559 1184 500 
Q 1428 441 1663 441 
Q 2288 441 2617 861 
Q 2947 1281 2994 2138 
Q 2813 1869 2534 1725 
Q 2256 1581 1919 1581 
Q 1219 1581 811 2004 
Q 403 2428 403 3163 
Q 403 3881 828 4315 
Q 1253 4750 1959 4750 
Q 2769 4750 3195 4129 
Q 3622 3509 3622 2328 
Q 3622 1225 3098 567 
Q 2575 -91 1691 -91 
Q 1453 -91 1209 -44 
Q 966 3 703 97 
z
M 1959 2075 
Q 2384 2075 2632 2365 
Q 2881 2656 2881 3163 
Q 2881 3666 2632 3958 
Q 2384 4250 1959 4250 
Q 1534 4250 1286 3958 
Q 1038 3666 1038 3163 
Q 1038 2656 1286 2365 
Q 1534 2075 1959 2075 
z
" transform="scale(0.015625)"/>
       </defs>
       <use xlink:href="#DejaVuSans-35"/>
       <use xlink:href="#DejaVuSans-39" x="63.623047"/>
       <use xlink:href="#DejaVuSans-2e" x="127.246094"/>
       <use xlink:href="#DejaVuSans-32" x="159.033203"/>
      </g>
     </g>
    </g>
    <g id="ytick_13">
     <g id="line2d_19">
      <g>
       <use xlink:href="#mce66dda4ab" x="360.63885" y="31.469373" style="stroke: #000000; stroke-width: 0.8"/>
      </g>
     </g>
     <g id="text_21">
      <!-- 60.8 -->
      <g transform="translate(367.63885 35.268591) scale(0.1 -0.1)">
       <use xlink:href="#DejaVuSans-36"/>
       <use xlink:href="#DejaVuSans-30" x="63.623047"/>
       <use xlink:href="#DejaVuSans-2e" x="127.246094"/>
       <use xlink:href="#DejaVuSans-38" x="159.033203"/>
      </g>
     </g>
    </g>
    <g id="text_22">
     <!-- Infections in group 2 (%) -->
     <g transform="translate(401.502913 205.734125) rotate(-90) scale(0.1 -0.1)">
      <defs>
       <path id="DejaVuSans-73" d="M 2834 3397 
L 2834 2853 
Q 2591 2978 2328 3040 
Q 2066 3103 1784 3103 
Q 1356 3103 1142 2972 
Q 928 2841 928 2578 
Q 928 2378 1081 2264 
Q 1234 2150 1697 2047 
L 1894 2003 
Q 2506 1872 2764 1633 
Q 3022 1394 3022 966 
Q 3022 478 2636 193 
Q 2250 -91 1575 -91 
Q 1294 -91 989 -36 
Q 684 19 347 128 
L 347 722 
Q 666 556 975 473 
Q 1284 391 1588 391 
Q 1994 391 2212 530 
Q 2431 669 2431 922 
Q 2431 1156 2273 1281 
Q 2116 1406 1581 1522 
L 1381 1569 
Q 847 1681 609 1914 
Q 372 2147 372 2553 
Q 372 3047 722 3315 
Q 1072 3584 1716 3584 
Q 2034 3584 2315 3537 
Q 2597 3491 2834 3397 
z
" transform="scale(0.015625)"/>
       <path id="DejaVuSans-67" d="M 2906 1791 
Q 2906 2416 2648 2759 
Q 2391 3103 1925 3103 
Q 1463 3103 1205 2759 
Q 947 2416 947 1791 
Q 947 1169 1205 825 
Q 1463 481 1925 481 
Q 2391 481 2648 825 
Q 2906 1169 2906 1791 
z
M 3481 434 
Q 3481 -459 3084 -895 
Q 2688 -1331 1869 -1331 
Q 1566 -1331 1297 -1286 
Q 1028 -1241 775 -1147 
L 775 -588 
Q 1028 -725 1275 -790 
Q 1522 -856 1778 -856 
Q 2344 -856 2625 -561 
Q 2906 -266 2906 331 
L 2906 616 
Q 2728 306 2450 153 
Q 2172 0 1784 0 
Q 1141 0 747 490 
Q 353 981 353 1791 
Q 353 2603 747 3093 
Q 1141 3584 1784 3584 
Q 2172 3584 2450 3431 
Q 2728 3278 2906 2969 
L 2906 3500 
L 3481 3500 
L 3481 434 
z
" transform="scale(0.015625)"/>
       <path id="DejaVuSans-25" d="M 4653 2053 
Q 4381 2053 4226 1822 
Q 4072 1591 4072 1178 
Q 4072 772 4226 539 
Q 4381 306 4653 306 
Q 4919 306 5073 539 
Q 5228 772 5228 1178 
Q 5228 1588 5073 1820 
Q 4919 2053 4653 2053 
z
M 4653 2450 
Q 5147 2450 5437 2106 
Q 5728 1763 5728 1178 
Q 5728 594 5436 251 
Q 5144 -91 4653 -91 
Q 4153 -91 3862 251 
Q 3572 594 3572 1178 
Q 3572 1766 3864 2108 
Q 4156 2450 4653 2450 
z
M 1428 4353 
Q 1159 4353 1004 4120 
Q 850 3888 850 3481 
Q 850 3069 1003 2837 
Q 1156 2606 1428 2606 
Q 1700 2606 1854 2837 
Q 2009 3069 2009 3481 
Q 2009 3884 1853 4118 
Q 1697 4353 1428 4353 
z
M 4250 4750 
L 4750 4750 
L 1831 -91 
L 1331 -91 
L 4250 4750 
z
M 1428 4750 
Q 1922 4750 2215 4408 
Q 2509 4066 2509 3481 
Q 2509 2891 2217 2550 
Q 1925 2209 1428 2209 
Q 931 2209 642 2551 
Q 353 2894 353 3481 
Q 353 4063 643 4406 
Q 934 4750 1428 4750 
z
" transform="scale(0.015625)"/>
      </defs>
      <use xlink:href="#DejaVuSans-49"/>
      <use xlink:href="#DejaVuSans-6e" x="29.492188"/>
      <use xlink:href="#DejaVuSans-66" x="92.871094"/>
      <use xlink:href="#DejaVuSans-65" x="128.076172"/>
      <use xlink:href="#DejaVuSans-63" x="189.599609"/>
      <use xlink:href="#DejaVuSans-74" x="244.580078"/>
      <use xlink:href="#DejaVuSans-69" x="283.789062"/>
      <use xlink:href="#DejaVuSans-6f" x="311.572266"/>
      <use xlink:href="#DejaVuSans-6e" x="372.753906"/>
      <use xlink:href="#DejaVuSans-73" x="436.132812"/>
      <use xlink:href="#DejaVuSans-20" x="488.232422"/>
      <use xlink:href="#DejaVuSans-69" x="520.019531"/>
      <use xlink:href="#DejaVuSans-6e" x="547.802734"/>
      <use xlink:href="#DejaVuSans-20" x="611.181641"/>
      <use xlink:href="#DejaVuSans-67" x="642.96875"/>
      <use xlink:href="#DejaVuSans-72" x="706.445312"/>
      <use xlink:href="#DejaVuSans-6f" x="745.308594"/>
      <use xlink:href="#DejaVuSans-75" x="806.490234"/>
      <use xlink:href="#DejaVuSans-70" x="869.869141"/>
      <use xlink:href="#DejaVuSans-20" x="933.345703"/>
      <use xlink:href="#DejaVuSans-32" x="965.132812"/>
      <use xlink:href="#DejaVuSans-20" x="1028.755859"/>
      <use xlink:href="#DejaVuSans-28" x="1060.542969"/>
      <use xlink:href="#DejaVuSans-25" x="1099.556641"/>
      <use xlink:href="#DejaVuSans-29" x="1194.576172"/>
     </g>
    </g>
   </g>
   <g id="LineCollection_1"/>
   <g id="patch_8">
    <path d="M 347.33325 277.111219 
L 353.98605 277.111219 
L 360.63885 277.111219 
L 360.63885 10.999219 
L 353.98605 10.999219 
L 347.33325 10.999219 
L 347.33325 277.111219 
z
" style="fill: none; stroke: #000000; stroke-width: 0.8; stroke-linejoin: miter; stroke-linecap: square"/>
   </g>
  </g>
 </g>
 <defs>
  <clipPath id="pbff9fcaa6f">
   <rect x="43.78125" y="10.999219" width="285.696" height="266.112"/>
  </clipPath>
  <clipPath id="p9d1bd75179">
   <rect x="347.33325" y="10.999219" width="13.3056" height="266.112"/>
  </clipPath>
 </defs>
</svg>
