<?xml version="1.0" encoding="utf-8" standalone="no"?>
<!DOCTYPE svg PUBLIC "-//W3C//DTD SVG 1.1//EN"
  "http://www.w3.org/Graphics/SVG/1.1/DTD/svg11.dtd">
<svg xmlns:xlink="http://www.w3.org/1999/xlink" width="404.4201pt" height="321.466687pt" viewBox="0 0 404.4201 321.466687" xmlns="http://www.w3.org/2000/svg" version="1.1">
 <metadata>
  <rdf:RDF xmlns:dc="http://purl.org/dc/elements/1.1/" xmlns:cc="http://creativecommons.org/ns#" xmlns:rdf="http://www.w3.org/1999/02/22-rdf-syntax-ns#">
   <cc:Work>
    <dc:type rdf:resource="http://purl.org/dc/dcmitype/StillImage"/>
    <dc:date>2024-12-02T10:35:42.873796</dc:date>
    <dc:format>image/svg+xml</dc:format>
    <dc:creator>
     <cc:Agent>
      <dc:title>Matplotlib v3.9.0, https://matplotlib.org/</dc:title>
     </cc:Agent>
    </dc:creator>
   </cc:Work>
  </rdf:RDF>
 </metadata>
 <defs>
  <style type="text/css">*{stroke-linejoin: round; stroke-linecap: butt}</style>
 </defs>
 <g id="figure_1">
  <g id="patch_1">
   <path d="M 0 321.466687 
L 404.4201 321.466687 
L 404.4201 0 
L 0 0 
z
" style="fill: #ffffff"/>
  </g>
  <g id="axes_1">
   <g id="patch_2">
    <path d="M 43.78125 283.910437 
L 329.47725 283.910437 
L 329.47725 17.798437 
L 43.78125 17.798437 
z
" style="fill: #ffffff"/>
   </g>
   <g id="QuadContourSet_1">
    <path d="M 50.92365 210.729637 
L 50.92365 210.729637 
L 58.06605 204.076837 
L 58.06605 204.076837 
L 58.06605 197.424037 
L 58.06605 197.424037 
L 58.06605 190.771237 
L 56.28045 184.118437 
L 54.49485 177.465637 
L 50.92365 174.804517 
L 47.862621 170.812837 
L 45.821936 164.160037 
L 45.821936 157.507237 
L 45.821936 150.854437 
L 45.821936 144.201637 
L 45.821936 137.548837 
L 47.35245 130.896037 
L 49.49517 124.243237 
L 49.49517 117.590437 
L 49.49517 110.937637 
L 49.49517 104.284837 
L 47.142379 97.632037 
L 47.142379 90.979237 
L 47.142379 84.326437 
L 47.142379 77.673637 
L 47.142379 71.020837 
L 47.142379 64.368037 
L 46.16205 57.715237 
L 46.16205 51.062437 
L 46.16205 44.409637 
L 46.16205 39.974437 
L 43.78125 37.756837 
L 43.78125 44.409637 
L 43.78125 51.062437 
L 43.78125 57.715237 
L 43.78125 64.368037 
L 43.78125 71.020837 
L 43.78125 77.673637 
L 43.78125 84.326437 
L 43.78125 90.979237 
L 43.78125 97.632037 
L 43.78125 104.284837 
L 43.78125 110.937637 
L 43.78125 110.937637 
L 43.78125 117.590437 
L 43.78125 124.243237 
L 43.78125 130.896037 
L 43.78125 137.548837 
L 43.78125 144.201637 
L 43.78125 150.854437 
L 43.78125 157.507237 
L 43.78125 164.160037 
L 43.78125 170.812837 
L 43.78125 177.465637 
L 43.78125 184.118437 
L 43.78125 190.771237 
L 43.78125 197.424037 
L 43.78125 204.076837 
L 43.78125 210.729637 
L 43.78125 217.382437 
z
" clip-path="url(#pb4ac222c2a)" style="fill: #f8f7fa"/>
    <path d="M 43.78125 270.604837 
L 50.92365 263.952037 
L 50.92365 263.952037 
L 58.06605 257.299237 
L 65.20845 257.299237 
L 72.35085 257.299237 
L 72.35085 257.299237 
L 79.49325 250.646437 
L 79.49325 250.646437 
L 86.63565 243.993637 
L 86.63565 243.993637 
L 93.77805 237.340837 
L 93.77805 237.340837 
L 100.92045 230.688037 
L 100.92045 230.688037 
L 108.06285 224.035237 
L 108.06285 224.035237 
L 115.20525 217.382437 
L 115.20525 217.382437 
L 115.20525 217.382437 
L 108.06285 216.550837 
L 100.92045 215.719237 
L 93.77805 215.719237 
L 89.01645 210.729637 
L 89.81005 204.076837 
L 86.63565 201.657637 
L 79.49325 201.052837 
L 75.92205 197.424037 
L 75.92205 190.771237 
L 72.35085 185.781637 
L 65.20845 184.950037 
L 64.31565 184.118437 
L 63.42285 177.465637 
L 60.44685 170.812837 
L 58.06605 169.482277 
L 53.984679 164.160037 
L 53.984679 157.507237 
L 53.984679 150.854437 
L 53.984679 144.201637 
L 53.984679 137.548837 
L 53.984679 130.896037 
L 55.20909 124.243237 
L 55.20909 117.590437 
L 55.20909 110.937637 
L 53.444497 104.284837 
L 50.92365 98.582437 
L 50.503509 97.632037 
L 50.503509 90.979237 
L 50.503509 84.326437 
L 50.503509 77.673637 
L 50.503509 71.020837 
L 50.503509 64.368037 
L 48.54285 57.715237 
L 48.54285 51.062437 
L 48.54285 44.409637 
L 48.54285 42.192037 
L 46.16205 39.974437 
L 46.16205 44.409637 
L 46.16205 51.062437 
L 46.16205 57.715237 
L 47.142379 64.368037 
L 47.142379 71.020837 
L 47.142379 77.673637 
L 47.142379 84.326437 
L 47.142379 90.979237 
L 47.142379 97.632037 
L 49.49517 104.284837 
L 49.49517 110.937637 
L 49.49517 117.590437 
L 49.49517 124.243237 
L 47.35245 130.896037 
L 45.821936 137.548837 
L 45.821936 144.201637 
L 45.821936 150.854437 
L 45.821936 157.507237 
L 45.821936 164.160037 
L 47.862621 170.812837 
L 50.92365 174.804517 
L 54.49485 177.465637 
L 56.28045 184.118437 
L 58.06605 190.771237 
L 58.06605 197.424037 
L 58.06605 197.424037 
L 58.06605 204.076837 
L 58.06605 204.076837 
L 50.92365 210.729637 
L 50.92365 210.729637 
L 43.78125 217.382437 
L 43.78125 217.382437 
L 43.78125 224.035237 
L 43.78125 230.688037 
L 43.78125 237.340837 
L 43.78125 243.993637 
L 43.78125 250.646437 
L 43.78125 257.299237 
L 43.78125 263.952037 
L 43.78125 270.604837 
L 43.78125 270.604837 
z
" clip-path="url(#pb4ac222c2a)" style="fill: #efedf5"/>
    <path d="M 50.92365 283.910437 
L 58.06605 283.910437 
L 65.20845 283.910437 
L 72.35085 283.910437 
L 79.49325 283.910437 
L 86.63565 283.910437 
L 93.77805 283.910437 
L 100.92045 283.910437 
L 108.06285 283.910437 
L 115.20525 283.910437 
L 122.34765 283.910437 
L 129.49005 283.910437 
L 136.63245 283.910437 
L 143.77485 283.910437 
L 150.91725 283.910437 
L 158.05965 283.910437 
L 165.20205 283.910437 
L 172.34445 283.910437 
L 179.48685 283.910437 
L 186.62925 283.910437 
L 193.77165 283.910437 
L 193.77165 283.910437 
L 200.91405 277.257637 
L 200.91405 277.257637 
L 200.91405 270.604837 
L 200.91405 270.604837 
L 193.77165 270.604837 
L 186.62925 270.604837 
L 179.862766 263.952037 
L 179.48685 263.582437 
L 173.096282 257.299237 
L 172.34445 256.598943 
L 165.20205 256.598943 
L 159.13101 250.646437 
L 159.48813 243.993637 
L 158.05965 242.428273 
L 150.91725 241.946622 
L 143.77485 241.946622 
L 139.183307 237.340837 
L 136.63245 234.782068 
L 132.551079 230.688037 
L 129.49005 228.026917 
L 125.47245 224.035237 
L 122.34765 220.930597 
L 118.77645 217.382437 
L 115.20525 212.947237 
L 109.49133 210.729637 
L 108.06285 210.175237 
L 100.92045 209.066437 
L 96.15885 204.076837 
L 93.77805 202.262437 
L 87.42925 197.424037 
L 86.63565 196.819237 
L 80.68365 190.771237 
L 79.49325 189.108037 
L 75.92205 184.118437 
L 72.35085 179.128837 
L 70.56525 177.465637 
L 70.56525 170.812837 
L 67.58925 164.160037 
L 66.228793 157.507237 
L 65.20845 155.844037 
L 62.147421 150.854437 
L 62.147421 144.201637 
L 62.147421 137.548837 
L 62.147421 130.896037 
L 62.147421 124.243237 
L 62.147421 117.590437 
L 62.147421 110.937637 
L 58.06605 107.136038 
L 56.805626 104.284837 
L 53.864638 97.632037 
L 53.864638 90.979237 
L 53.864638 84.326437 
L 53.864638 77.673637 
L 53.864638 71.020837 
L 53.00685 64.368037 
L 50.92365 57.715237 
L 50.92365 51.062437 
L 50.92365 44.409637 
L 50.92365 44.409637 
L 48.54285 42.192037 
L 48.54285 44.409638 
L 48.54285 51.062437 
L 48.54285 57.715237 
L 50.503509 64.368037 
L 50.503509 71.020837 
L 50.503509 77.673637 
L 50.503509 84.326437 
L 50.503509 90.979237 
L 50.503509 97.632037 
L 50.92365 98.582437 
L 53.444497 104.284837 
L 55.20909 110.937637 
L 55.20909 117.590437 
L 55.20909 124.243237 
L 53.984679 130.896037 
L 53.984679 137.548837 
L 53.984679 144.201637 
L 53.984679 150.854437 
L 53.984679 157.507237 
L 53.984679 164.160037 
L 58.06605 169.482277 
L 60.44685 170.812837 
L 63.42285 177.465637 
L 64.31565 184.118437 
L 65.20845 184.950037 
L 72.35085 185.781637 
L 75.92205 190.771237 
L 75.92205 197.424037 
L 79.49325 201.052837 
L 86.63565 201.657637 
L 89.81005 204.076837 
L 89.01645 210.729637 
L 93.77805 215.719237 
L 100.92045 215.719237 
L 108.06285 216.550837 
L 115.20525 217.382437 
L 115.20525 217.382437 
L 115.20525 217.382437 
L 108.06285 224.035237 
L 108.06285 224.035237 
L 100.92045 230.688037 
L 100.92045 230.688037 
L 93.77805 237.340837 
L 93.77805 237.340837 
L 86.63565 243.993637 
L 86.63565 243.993637 
L 79.49325 250.646437 
L 79.49325 250.646437 
L 72.35085 257.299237 
L 72.35085 257.299237 
L 65.20845 257.299237 
L 58.06605 257.299237 
L 50.92365 263.952037 
L 50.92365 263.952037 
L 43.78125 270.604837 
L 43.78125 270.604837 
L 43.78125 277.257637 
L 43.78125 283.910437 
z
" clip-path="url(#pb4ac222c2a)" style="fill: #e1e0ee"/>
    <path d="M 200.91405 283.910437 
L 208.05645 283.910437 
L 215.19885 283.910437 
L 217.04205 283.910437 
L 215.19885 281.491238 
L 208.05645 281.491237 
L 203.511286 277.257637 
L 203.511286 270.604837 
L 200.91405 268.185637 
L 193.77165 268.185637 
L 186.62925 267.648037 
L 182.870092 263.952037 
L 179.48685 260.625637 
L 176.103608 257.299237 
L 172.34445 253.797764 
L 165.20205 253.797764 
L 161.98797 250.646437 
L 162.34509 243.993637 
L 158.05965 239.297543 
L 150.91725 237.852591 
L 143.77485 237.852591 
L 143.264679 237.340837 
L 136.63245 230.688037 
L 136.63245 230.688037 
L 129.49005 224.478757 
L 129.04365 224.035237 
L 122.34765 217.382437 
L 122.34765 217.382437 
L 116.99085 210.729637 
L 115.20525 208.512037 
L 108.06285 205.740037 
L 103.77741 204.076837 
L 100.92045 201.415717 
L 93.77805 197.424037 
L 93.77805 197.424037 
L 86.63565 191.980837 
L 85.44525 190.771237 
L 83.06445 184.118437 
L 83.06445 177.465637 
L 83.06445 170.812837 
L 83.06445 164.160037 
L 83.06445 157.507237 
L 79.49325 154.180837 
L 72.35085 154.180837 
L 70.310164 150.854437 
L 70.310164 144.201637 
L 70.310164 137.548837 
L 70.310164 130.896037 
L 70.310164 124.243237 
L 70.310164 117.590437 
L 70.310164 110.937637 
L 65.20845 106.185637 
L 63.167764 104.284837 
L 58.06605 99.532837 
L 57.225768 97.632037 
L 57.225768 90.979237 
L 57.225768 84.326437 
L 57.225768 77.673637 
L 57.225768 71.020837 
L 55.38765 64.368037 
L 53.30445 57.715237 
L 53.30445 51.062437 
L 53.30445 44.409637 
L 50.92365 44.409637 
L 50.92365 51.062437 
L 50.92365 57.715237 
L 53.00685 64.368037 
L 53.864638 71.020837 
L 53.864638 77.673637 
L 53.864638 84.326437 
L 53.864638 90.979237 
L 53.864638 97.632037 
L 56.805626 104.284837 
L 58.06605 107.136038 
L 62.147421 110.937637 
L 62.147421 117.590437 
L 62.147421 124.243237 
L 62.147421 130.896037 
L 62.147421 137.548837 
L 62.147421 144.201637 
L 62.147421 150.854437 
L 65.20845 155.844037 
L 66.228793 157.507237 
L 67.58925 164.160037 
L 70.56525 170.812837 
L 70.56525 177.465637 
L 72.35085 179.128837 
L 75.92205 184.118437 
L 79.49325 189.108037 
L 80.68365 190.771237 
L 86.63565 196.819237 
L 87.42925 197.424037 
L 93.77805 202.262437 
L 96.15885 204.076837 
L 100.92045 209.066437 
L 108.06285 210.175237 
L 109.49133 210.729637 
L 115.20525 212.947237 
L 118.77645 217.382437 
L 122.34765 220.930597 
L 125.47245 224.035237 
L 129.49005 228.026917 
L 132.551079 230.688037 
L 136.63245 234.782068 
L 139.183307 237.340837 
L 143.77485 241.946622 
L 150.91725 241.946622 
L 158.05965 242.428273 
L 159.48813 243.993637 
L 159.13101 250.646437 
L 165.20205 256.598943 
L 172.34445 256.598943 
L 173.096282 257.299237 
L 179.48685 263.582437 
L 179.862766 263.952037 
L 186.62925 270.604837 
L 193.77165 270.604837 
L 200.91405 270.604837 
L 200.91405 270.604837 
L 200.91405 277.257637 
L 200.91405 277.257637 
L 193.77165 283.910437 
z
" clip-path="url(#pb4ac222c2a)" style="fill: #d0d1e6"/>
    <path d="M 208.05645 281.491237 
L 215.19885 281.491238 
L 217.04205 283.910437 
L 218.88525 283.910437 
L 215.19885 279.072037 
L 208.05645 279.072037 
L 206.108523 277.257637 
L 206.108523 270.604837 
L 200.91405 265.766437 
L 193.77165 265.766437 
L 186.62925 264.691237 
L 185.877418 263.952037 
L 179.48685 257.668837 
L 179.110934 257.299237 
L 172.34445 250.996585 
L 165.20205 250.996585 
L 164.84493 250.646437 
L 165.20205 243.993637 
L 165.20205 243.993637 
L 165.20205 243.993637 
L 163.41645 237.340837 
L 158.05965 236.166814 
L 150.91725 234.601449 
L 143.77485 233.758561 
L 140.713821 230.688037 
L 138.673136 224.035237 
L 136.63245 222.261157 
L 129.49005 220.930597 
L 125.91885 217.382437 
L 122.34765 212.947237 
L 120.56205 210.729637 
L 115.20525 204.076837 
L 115.20525 204.076837 
L 109.49133 197.424037 
L 108.06285 196.093477 
L 100.92045 190.771237 
L 100.92045 184.118437 
L 100.92045 177.465637 
L 100.92045 177.465637 
L 93.77805 172.476037 
L 92.757707 170.812837 
L 92.757707 164.160037 
L 92.757707 157.507237 
L 92.757707 150.854437 
L 86.63565 145.152037 
L 79.49325 145.152037 
L 78.472907 144.201637 
L 78.472907 137.548837 
L 78.472907 130.896037 
L 78.472907 124.243237 
L 78.472907 117.590437 
L 78.472907 110.937637 
L 72.35085 105.235237 
L 71.330507 104.284837 
L 65.20845 98.582437 
L 64.188107 97.632037 
L 64.188107 90.979237 
L 64.188107 84.326437 
L 64.188107 77.673637 
L 64.188107 71.020837 
L 58.06605 65.318437 
L 57.76845 64.368037 
L 55.68525 57.715237 
L 55.68525 51.062437 
L 55.68525 44.409637 
L 53.30445 44.409637 
L 53.30445 51.062437 
L 53.30445 57.715237 
L 55.38765 64.368037 
L 57.225768 71.020837 
L 57.225768 77.673637 
L 57.225768 84.326437 
L 57.225768 90.979237 
L 57.225768 97.632037 
L 58.06605 99.532837 
L 63.167764 104.284837 
L 65.20845 106.185637 
L 70.310164 110.937637 
L 70.310164 117.590437 
L 70.310164 124.243237 
L 70.310164 130.896037 
L 70.310164 137.548837 
L 70.310164 144.201637 
L 70.310164 150.854437 
L 72.35085 154.180837 
L 79.49325 154.180837 
L 83.06445 157.507237 
L 83.06445 164.160037 
L 83.06445 170.812837 
L 83.06445 177.465637 
L 83.06445 184.118437 
L 85.44525 190.771237 
L 86.63565 191.980837 
L 93.77805 197.424037 
L 93.77805 197.424037 
L 100.92045 201.415717 
L 103.77741 204.076837 
L 108.06285 205.740037 
L 115.20525 208.512037 
L 116.99085 210.729637 
L 122.34765 217.382437 
L 122.34765 217.382437 
L 129.04365 224.035237 
L 129.49005 224.478757 
L 136.63245 230.688037 
L 136.63245 230.688037 
L 143.264679 237.340837 
L 143.77485 237.852591 
L 150.91725 237.852591 
L 158.05965 239.297543 
L 162.34509 243.993637 
L 161.98797 250.646437 
L 165.20205 253.797764 
L 172.34445 253.797764 
L 176.103608 257.299237 
L 179.48685 260.625637 
L 182.870092 263.952037 
L 186.62925 267.648037 
L 193.77165 268.185637 
L 200.91405 268.185637 
L 203.511286 270.604837 
L 203.511286 277.257637 
z
" clip-path="url(#pb4ac222c2a)" style="fill: #bcbddc"/>
    <path d="M 208.05645 279.072037 
L 215.19885 279.072037 
L 218.88525 283.910437 
L 220.72845 283.910437 
L 215.65965 277.257637 
L 215.19885 276.652837 
L 208.705759 270.604837 
L 208.05645 270.000037 
L 201.563359 263.952037 
L 200.91405 263.347237 
L 193.77165 263.212837 
L 186.62925 261.734437 
L 182.118261 257.299237 
L 181.742345 250.646437 
L 179.48685 248.545553 
L 172.34445 248.195406 
L 168.05901 243.993637 
L 167.70189 237.340837 
L 165.20205 234.601449 
L 158.05965 233.036085 
L 150.91725 231.47072 
L 147.34605 230.688037 
L 143.77485 227.361637 
L 142.754507 224.035237 
L 136.63245 218.712997 
L 129.49005 217.382437 
L 129.49005 217.382437 
L 129.49005 210.729637 
L 129.49005 204.076837 
L 122.34765 197.424037 
L 122.34765 197.424037 
L 115.20525 190.771237 
L 115.20525 184.118437 
L 115.20525 177.465637 
L 115.20525 170.812837 
L 115.20525 164.160037 
L 115.20525 157.507237 
L 115.20525 157.507237 
L 108.06285 150.854437 
L 108.06285 150.854437 
L 100.92045 144.201637 
L 100.92045 137.548837 
L 100.92045 130.896037 
L 100.92045 130.896037 
L 93.77805 130.896037 
L 86.63565 130.896037 
L 86.63565 124.243237 
L 86.63565 117.590437 
L 86.63565 110.937637 
L 86.63565 110.937637 
L 86.63565 104.284837 
L 86.63565 104.284837 
L 79.49325 97.632037 
L 79.49325 97.632037 
L 72.35085 90.979237 
L 72.35085 84.326437 
L 72.35085 77.673637 
L 72.35085 71.020837 
L 72.35085 71.020837 
L 65.20845 64.368037 
L 65.20845 64.368037 
L 58.06605 57.715237 
L 58.06605 51.062437 
L 58.06605 51.062437 
L 58.06605 44.409637 
L 55.68525 44.409637 
L 55.68525 51.062437 
L 55.68525 57.715237 
L 57.76845 64.368037 
L 58.06605 65.318437 
L 64.188107 71.020837 
L 64.188107 77.673637 
L 64.188107 84.326437 
L 64.188107 90.979237 
L 64.188107 97.632037 
L 65.20845 98.582437 
L 71.330507 104.284837 
L 72.35085 105.235237 
L 78.472907 110.937637 
L 78.472907 117.590437 
L 78.472907 124.243237 
L 78.472907 130.896037 
L 78.472907 137.548837 
L 78.472907 144.201637 
L 79.49325 145.152037 
L 86.63565 145.152037 
L 92.757707 150.854437 
L 92.757707 157.507237 
L 92.757707 164.160037 
L 92.757707 170.812837 
L 93.77805 172.476037 
L 100.92045 177.465637 
L 100.92045 177.465637 
L 100.92045 184.118437 
L 100.92045 190.771237 
L 108.06285 196.093477 
L 109.49133 197.424037 
L 115.20525 204.076837 
L 115.20525 204.076837 
L 120.56205 210.729637 
L 122.34765 212.947237 
L 125.91885 217.382437 
L 129.49005 220.930597 
L 136.63245 222.261157 
L 138.673136 224.035237 
L 140.713821 230.688037 
L 143.77485 233.758561 
L 150.91725 234.601449 
L 158.05965 236.166814 
L 163.41645 237.340837 
L 165.20205 243.993637 
L 165.20205 243.993637 
L 165.20205 243.993637 
L 164.84493 250.646437 
L 165.20205 250.996585 
L 172.34445 250.996585 
L 179.110934 257.299237 
L 179.48685 257.668837 
L 185.877418 263.952037 
L 186.62925 264.691237 
L 193.77165 265.766437 
L 200.91405 265.766437 
L 206.108523 270.604837 
L 206.108523 277.257637 
z
" clip-path="url(#pb4ac222c2a)" style="fill: #a8a6cf"/>
    <path d="M 222.34125 283.910437 
L 222.57165 283.910437 
L 222.34125 283.608037 
L 217.50285 277.257637 
L 215.19885 274.233637 
L 211.302995 270.604837 
L 208.05645 267.580837 
L 204.160595 263.952037 
L 200.91405 260.928037 
L 193.77165 260.256037 
L 186.62925 258.777637 
L 185.125587 257.299237 
L 184.749671 250.646437 
L 179.48685 245.744374 
L 172.34445 245.394227 
L 170.91597 243.993637 
L 170.55885 237.340837 
L 165.20205 231.47072 
L 161.63085 230.688037 
L 158.05965 227.361637 
L 154.48845 224.035237 
L 150.91725 220.708837 
L 147.34605 217.382437 
L 147.34605 210.729637 
L 147.34605 204.076837 
L 143.77485 200.750437 
L 141.734164 197.424037 
L 137.652793 190.771237 
L 136.63245 188.553637 
L 134.591764 184.118437 
L 133.06125 177.465637 
L 129.49005 174.139237 
L 124.72845 170.812837 
L 123.367993 164.160037 
L 123.06189 157.507237 
L 122.34765 155.289638 
L 120.91917 150.854437 
L 115.91949 144.201637 
L 115.20525 143.251237 
L 109.083193 137.548837 
L 108.77709 130.896037 
L 108.06285 128.678437 
L 106.63437 124.243237 
L 101.63469 117.590437 
L 100.92045 116.640037 
L 94.798393 110.937637 
L 94.198191 104.284837 
L 93.77805 103.619557 
L 89.996779 97.632037 
L 87.055791 90.979237 
L 86.63565 90.028837 
L 80.513593 84.326437 
L 79.49325 83.661157 
L 75.711979 77.673637 
L 75.711979 71.020837 
L 72.35085 67.890108 
L 68.569579 64.368037 
L 65.20845 61.237308 
L 61.427179 57.715237 
L 61.427179 54.193167 
L 58.06605 51.062437 
L 58.06605 57.715237 
L 65.20845 64.368037 
L 65.20845 64.368037 
L 72.35085 71.020837 
L 72.35085 71.020837 
L 72.35085 77.673637 
L 72.35085 84.326437 
L 72.35085 90.979237 
L 79.49325 97.632037 
L 79.49325 97.632037 
L 86.63565 104.284837 
L 86.63565 104.284837 
L 86.63565 110.937637 
L 86.63565 110.937637 
L 86.63565 117.590438 
L 86.63565 124.243237 
L 86.63565 130.896037 
L 93.77805 130.896037 
L 100.92045 130.896037 
L 100.92045 130.896037 
L 100.92045 137.548837 
L 100.92045 144.201637 
L 108.06285 150.854437 
L 108.06285 150.854437 
L 115.20525 157.507237 
L 115.20525 157.507237 
L 115.20525 164.160037 
L 115.20525 170.812837 
L 115.20525 177.465637 
L 115.20525 184.118437 
L 115.20525 190.771237 
L 122.34765 197.424037 
L 122.34765 197.424037 
L 129.49005 204.076837 
L 129.49005 210.729637 
L 129.49005 217.382437 
L 129.49005 217.382437 
L 136.63245 218.712997 
L 142.754507 224.035237 
L 143.77485 227.361637 
L 147.34605 230.688037 
L 150.91725 231.47072 
L 158.05965 233.036085 
L 165.20205 234.601449 
L 167.70189 237.340837 
L 168.05901 243.993637 
L 172.34445 248.195406 
L 179.48685 248.545553 
L 181.742345 250.646437 
L 182.118261 257.299237 
L 186.62925 261.734437 
L 193.77165 263.212837 
L 200.91405 263.347237 
L 201.563359 263.952037 
L 208.05645 270.000037 
L 208.705759 270.604837 
L 215.19885 276.652837 
L 215.65965 277.257637 
L 220.72845 283.910437 
z
" clip-path="url(#pb4ac222c2a)" style="fill: #9490c3"/>
    <path d="M 222.34125 283.608037 
L 222.57165 283.910437 
L 224.41485 283.910437 
L 222.34125 281.188837 
L 219.34605 277.257637 
L 215.19885 271.814437 
L 213.900232 270.604837 
L 208.05645 265.161637 
L 206.757832 263.952037 
L 200.91405 258.508837 
L 193.77165 257.299237 
L 193.77165 250.646437 
L 193.77165 250.646437 
L 191.39085 243.993637 
L 186.62925 239.558437 
L 184.24845 237.340837 
L 179.48685 232.905637 
L 177.10605 230.688037 
L 172.34445 226.252837 
L 169.96365 224.035237 
L 165.20205 219.600037 
L 162.82125 217.382437 
L 162.82125 210.729637 
L 162.82125 204.076837 
L 158.05965 199.641637 
L 155.67885 197.424037 
L 150.91725 192.988837 
L 148.53645 190.771237 
L 148.53645 184.118437 
L 148.53645 177.465637 
L 143.77485 173.030437 
L 141.98925 170.812837 
L 136.63245 165.823237 
L 134.25165 164.160037 
L 129.49005 159.724837 
L 128.77581 157.507237 
L 126.63309 150.854437 
L 122.34765 145.152038 
L 121.63341 144.201637 
L 116.63373 137.548837 
L 115.20525 133.113637 
L 114.49101 130.896037 
L 112.34829 124.243237 
L 108.06285 118.540837 
L 107.34861 117.590437 
L 102.34893 110.937637 
L 100.92045 109.607077 
L 97.559321 104.284837 
L 93.77805 98.297317 
L 93.357909 97.632037 
L 90.416921 90.979237 
L 88.06413 84.326437 
L 86.63565 82.995877 
L 79.49325 78.338917 
L 79.073109 77.673637 
L 79.073109 71.020837 
L 72.35085 64.759379 
L 71.930709 64.368037 
L 65.20845 58.106579 
L 64.788309 57.715237 
L 64.788309 57.323896 
L 61.427179 54.193167 
L 61.427179 57.715237 
L 65.20845 61.237308 
L 68.569579 64.368037 
L 72.35085 67.890108 
L 75.711979 71.020837 
L 75.711979 77.673637 
L 79.49325 83.661157 
L 80.513593 84.326437 
L 86.63565 90.028837 
L 87.055791 90.979237 
L 89.996779 97.632037 
L 93.77805 103.619557 
L 94.198191 104.284837 
L 94.798393 110.937637 
L 100.92045 116.640037 
L 101.63469 117.590437 
L 106.63437 124.243237 
L 108.06285 128.678437 
L 108.77709 130.896037 
L 109.083193 137.548837 
L 115.20525 143.251237 
L 115.91949 144.201637 
L 120.91917 150.854437 
L 122.34765 155.289638 
L 123.06189 157.507237 
L 123.367993 164.160037 
L 124.72845 170.812837 
L 129.49005 174.139237 
L 133.06125 177.465637 
L 134.591764 184.118437 
L 136.63245 188.553637 
L 137.652793 190.771237 
L 141.734164 197.424037 
L 143.77485 200.750437 
L 147.34605 204.076837 
L 147.34605 210.729637 
L 147.34605 217.382437 
L 150.91725 220.708837 
L 154.48845 224.035237 
L 158.05965 227.361637 
L 161.63085 230.688037 
L 165.20205 231.47072 
L 170.55885 237.340837 
L 170.91597 243.993637 
L 172.34445 245.394227 
L 179.48685 245.744374 
L 184.749671 250.646437 
L 185.125587 257.299237 
L 186.62925 258.777637 
L 193.77165 260.256037 
L 200.91405 260.928037 
L 204.160595 263.952037 
L 208.05645 267.580837 
L 211.302995 270.604837 
L 215.19885 274.233637 
L 217.50285 277.257637 
z
" clip-path="url(#pb4ac222c2a)" style="fill: #807cba"/>
    <path d="M 222.34125 281.188837 
L 224.41485 283.910437 
L 226.25805 283.910437 
L 222.34125 278.769637 
L 221.18925 277.257637 
L 218.05581 270.604837 
L 215.19885 263.952037 
L 215.19885 263.952037 
L 208.05645 257.299237 
L 208.05645 257.299237 
L 208.05645 250.646437 
L 208.05645 250.646437 
L 208.05645 250.646437 
L 208.05645 243.993637 
L 200.91405 237.340837 
L 200.91405 237.340837 
L 193.77165 230.688037 
L 193.77165 224.035237 
L 193.77165 224.035237 
L 190.710621 217.382437 
L 186.62925 213.580837 
L 183.568221 210.729637 
L 179.48685 206.928037 
L 176.425821 204.076837 
L 172.34445 200.275237 
L 165.20205 197.424037 
L 165.20205 197.424037 
L 162.141021 190.771237 
L 162.141021 184.118437 
L 162.141021 177.465637 
L 158.05965 173.664037 
L 154.998621 170.812837 
L 150.91725 167.011237 
L 147.856221 164.160037 
L 143.77485 160.358437 
L 136.63245 157.507237 
L 136.63245 157.507237 
L 133.571421 150.854437 
L 129.49005 147.052837 
L 127.34733 144.201637 
L 122.34765 137.548837 
L 122.34765 137.548837 
L 122.34765 130.896037 
L 119.286621 124.243237 
L 115.20525 120.441637 
L 113.06253 117.590437 
L 108.06285 110.937637 
L 108.06285 110.937637 
L 100.92045 104.284837 
L 100.92045 104.284837 
L 96.719038 97.632037 
L 93.77805 90.979237 
L 93.77805 90.979237 
L 93.77805 84.326437 
L 93.77805 84.326437 
L 93.77805 84.326437 
L 86.63565 77.673637 
L 79.49325 71.020837 
L 72.35085 64.368037 
L 65.20845 57.715237 
L 64.788309 57.323896 
L 64.788309 57.715237 
L 65.20845 58.106579 
L 71.930709 64.368037 
L 72.35085 64.759379 
L 79.073109 71.020837 
L 79.073109 77.673637 
L 79.49325 78.338917 
L 86.63565 82.995877 
L 88.06413 84.326437 
L 90.416921 90.979237 
L 93.357909 97.632037 
L 93.77805 98.297317 
L 97.559321 104.284837 
L 100.92045 109.607077 
L 102.34893 110.937637 
L 107.34861 117.590437 
L 108.06285 118.540837 
L 112.34829 124.243237 
L 114.49101 130.896037 
L 115.20525 133.113637 
L 116.63373 137.548837 
L 121.63341 144.201637 
L 122.34765 145.152038 
L 126.63309 150.854437 
L 128.77581 157.507237 
L 129.49005 159.724837 
L 134.25165 164.160037 
L 136.63245 165.823237 
L 141.98925 170.812837 
L 143.77485 173.030437 
L 148.53645 177.465637 
L 148.53645 184.118437 
L 148.53645 190.771237 
L 150.91725 192.988837 
L 155.67885 197.424037 
L 158.05965 199.641637 
L 162.82125 204.076837 
L 162.82125 210.729637 
L 162.82125 217.382437 
L 165.20205 219.600037 
L 169.96365 224.035237 
L 172.34445 226.252837 
L 177.10605 230.688037 
L 179.48685 232.905637 
L 184.24845 237.340837 
L 186.62925 239.558437 
L 191.39085 243.993637 
L 193.77165 250.646437 
L 193.77165 250.646437 
L 193.77165 257.299237 
L 200.91405 258.508837 
L 206.757832 263.952037 
L 208.05645 265.161637 
L 213.900232 270.604837 
L 215.19885 271.814437 
L 219.34605 277.257637 
z
" clip-path="url(#pb4ac222c2a)" style="fill: #715faa"/>
    <path d="M 222.34125 278.769637 
L 226.25805 283.910437 
L 228.10125 283.910437 
L 224.48397 277.257637 
L 223.76973 270.604837 
L 223.05549 263.952037 
L 222.34125 262.288837 
L 219.280221 257.299237 
L 219.280221 250.646437 
L 222.34125 243.993637 
L 216.98445 237.340837 
L 215.19885 235.123238 
L 210.43725 230.688037 
L 208.05645 228.470437 
L 203.29485 224.035237 
L 200.91405 221.817637 
L 198.873364 217.382437 
L 198.873364 210.729637 
L 193.77165 205.977637 
L 186.62925 205.977637 
L 184.588564 204.076837 
L 179.48685 199.324837 
L 177.446164 197.424037 
L 172.34445 192.672037 
L 170.303764 190.771237 
L 170.303764 184.118437 
L 170.303764 177.465637 
L 170.303764 170.812837 
L 165.20205 166.060837 
L 158.05965 166.060837 
L 156.018964 164.160037 
L 150.91725 159.408037 
L 148.876564 157.507237 
L 143.77485 152.755237 
L 141.734164 150.854437 
L 136.63245 146.102437 
L 134.591764 144.201637 
L 129.49005 139.449637 
L 128.06157 137.548837 
L 128.06157 130.896037 
L 127.449364 124.243237 
L 122.34765 119.491237 
L 120.306964 117.590437 
L 115.20525 112.838437 
L 113.77677 110.937637 
L 113.77677 104.284837 
L 108.06285 98.962597 
L 100.92045 98.962597 
L 100.080168 97.632037 
L 99.49197 90.979237 
L 99.49197 84.326437 
L 93.77805 84.326437 
L 93.77805 84.326437 
L 93.77805 90.979237 
L 93.77805 90.979237 
L 96.719038 97.632037 
L 100.92045 104.284837 
L 100.92045 104.284837 
L 108.06285 110.937637 
L 108.06285 110.937637 
L 113.06253 117.590437 
L 115.20525 120.441637 
L 119.286621 124.243237 
L 122.34765 130.896037 
L 122.34765 137.548837 
L 122.34765 137.548837 
L 127.34733 144.201637 
L 129.49005 147.052838 
L 133.571421 150.854437 
L 136.63245 157.507237 
L 136.63245 157.507237 
L 143.77485 160.358437 
L 147.856221 164.160037 
L 150.91725 167.011237 
L 154.998621 170.812837 
L 158.05965 173.664037 
L 162.141021 177.465637 
L 162.141021 184.118437 
L 162.141021 190.771237 
L 165.20205 197.424037 
L 165.20205 197.424037 
L 172.34445 200.275238 
L 176.425821 204.076837 
L 179.48685 206.928037 
L 183.568221 210.729637 
L 186.62925 213.580837 
L 190.710621 217.382437 
L 193.77165 224.035237 
L 193.77165 224.035237 
L 193.77165 230.688037 
L 200.91405 237.340837 
L 200.91405 237.340837 
L 208.05645 243.993637 
L 208.05645 250.646437 
L 208.05645 250.646437 
L 208.05645 250.646437 
L 208.05645 257.299237 
L 208.05645 257.299237 
L 215.19885 263.952037 
L 215.19885 263.952037 
L 218.05581 270.604837 
L 221.18925 277.257637 
z
" clip-path="url(#pb4ac222c2a)" style="fill: #63439c"/>
    <path d="M 229.48365 283.910437 
L 236.62605 283.910437 
L 243.76845 283.910437 
L 250.91085 283.910437 
L 258.05325 283.910437 
L 265.19565 283.910437 
L 272.33805 283.910437 
L 279.48045 283.910437 
L 286.62285 283.910437 
L 293.76525 283.910437 
L 300.90765 283.910437 
L 305.66925 283.910437 
L 300.90765 279.475237 
L 293.76525 279.475237 
L 286.62285 279.475237 
L 279.48045 279.475237 
L 272.33805 279.475237 
L 265.19565 279.475237 
L 258.05325 279.475237 
L 254.48205 277.257637 
L 250.91085 275.040037 
L 243.76845 270.604837 
L 243.76845 270.604837 
L 236.62605 270.604837 
L 229.48365 270.604837 
L 228.76941 263.952037 
L 227.442964 257.299237 
L 229.48365 252.864037 
L 230.91213 250.646437 
L 235.19757 243.993637 
L 235.19757 237.340837 
L 235.19757 230.688037 
L 235.19757 224.035237 
L 235.19757 217.382437 
L 235.19757 216.051877 
L 229.48365 210.729637 
L 222.34125 204.076837 
L 215.19885 197.424037 
L 208.05645 190.771237 
L 200.91405 184.118437 
L 200.91405 177.465637 
L 193.77165 177.465637 
L 186.62925 170.812837 
L 186.62925 164.160037 
L 179.48685 164.160037 
L 172.34445 157.507237 
L 172.34445 150.854437 
L 165.20205 150.854437 
L 158.05965 144.201637 
L 158.05965 137.548837 
L 150.91725 137.548837 
L 143.77485 130.896037 
L 136.63245 124.243237 
L 129.49005 117.590437 
L 122.34765 110.937637 
L 115.20525 104.284837 
L 108.06285 97.632037 
L 100.92045 90.979237 
L 100.92045 84.326437 
L 99.49197 84.326437 
L 99.49197 90.979237 
L 100.080168 97.632037 
L 100.92045 98.962597 
L 108.06285 98.962597 
L 113.77677 104.284837 
L 113.77677 110.937637 
L 115.20525 112.838437 
L 120.306964 117.590437 
L 122.34765 119.491237 
L 127.449364 124.243237 
L 128.06157 130.896037 
L 128.06157 137.548837 
L 129.49005 139.449637 
L 134.591764 144.201637 
L 136.63245 146.102437 
L 141.734164 150.854437 
L 143.77485 152.755237 
L 148.876564 157.507237 
L 150.91725 159.408037 
L 156.018964 164.160037 
L 158.05965 166.060837 
L 165.20205 166.060837 
L 170.303764 170.812837 
L 170.303764 177.465637 
L 170.303764 184.118437 
L 170.303764 190.771237 
L 172.34445 192.672037 
L 177.446164 197.424037 
L 179.48685 199.324837 
L 184.588564 204.076837 
L 186.62925 205.977637 
L 193.77165 205.977637 
L 198.873364 210.729637 
L 198.873364 217.382437 
L 200.91405 221.817637 
L 203.29485 224.035237 
L 208.05645 228.470437 
L 210.43725 230.688037 
L 215.19885 235.123238 
L 216.98445 237.340837 
L 222.34125 243.993637 
L 219.280221 250.646437 
L 219.280221 257.299237 
L 222.34125 262.288837 
L 223.05549 263.952037 
L 223.76973 270.604837 
L 224.48397 277.257637 
L 228.10125 283.910437 
z
" clip-path="url(#pb4ac222c2a)" style="fill: #53268f"/>
    <path d="M 258.05325 279.475237 
L 265.19565 279.475237 
L 272.33805 279.475237 
L 279.48045 279.475237 
L 286.62285 279.475237 
L 293.76525 279.475237 
L 300.90765 279.475237 
L 305.66925 283.910437 
L 308.05005 283.910437 
L 300.90765 277.257637 
L 300.90765 270.604837 
L 293.76525 270.604837 
L 286.62285 263.952037 
L 279.48045 257.299237 
L 272.33805 250.646437 
L 265.19565 243.993637 
L 258.05325 237.340837 
L 258.05325 230.688037 
L 250.91085 230.688037 
L 243.76845 224.035237 
L 236.62605 217.382437 
L 235.19757 216.051877 
L 235.19757 217.382437 
L 235.19757 224.035237 
L 235.19757 230.688037 
L 235.19757 237.340837 
L 235.19757 243.993637 
L 230.91213 250.646437 
L 229.48365 252.864037 
L 227.442964 257.299237 
L 228.76941 263.952037 
L 229.48365 270.604837 
L 236.62605 270.604837 
L 243.76845 270.604837 
L 243.76845 270.604837 
L 250.91085 275.040037 
L 254.48205 277.257637 
z
" clip-path="url(#pb4ac222c2a)" style="fill: #460c83"/>
   </g>
   <g id="matplotlib.axis_1">
    <g id="xtick_1">
     <g id="line2d_1">
      <defs>
       <path id="m5ba8f98d3b" d="M 0 0 
L 0 3.5 
" style="stroke: #000000; stroke-width: 0.8"/>
      </defs>
      <g>
       <use xlink:href="#m5ba8f98d3b" x="43.78125" y="283.910437" style="stroke: #000000; stroke-width: 0.8"/>
      </g>
     </g>
     <g id="text_1">
      <!-- 0.0 -->
      <g transform="translate(35.829688 298.508875) scale(0.1 -0.1)">
       <defs>
        <path id="DejaVuSans-30" d="M 2034 4250 
Q 1547 4250 1301 3770 
Q 1056 3291 1056 2328 
Q 1056 1369 1301 889 
Q 1547 409 2034 409 
Q 2525 409 2770 889 
Q 3016 1369 3016 2328 
Q 3016 3291 2770 3770 
Q 2525 4250 2034 4250 
z
M 2034 4750 
Q 2819 4750 3233 4129 
Q 3647 3509 3647 2328 
Q 3647 1150 3233 529 
Q 2819 -91 2034 -91 
Q 1250 -91 836 529 
Q 422 1150 422 2328 
Q 422 3509 836 4129 
Q 1250 4750 2034 4750 
z
" transform="scale(0.015625)"/>
        <path id="DejaVuSans-2e" d="M 684 794 
L 1344 794 
L 1344 0 
L 684 0 
L 684 794 
z
" transform="scale(0.015625)"/>
       </defs>
       <use xlink:href="#DejaVuSans-30"/>
       <use xlink:href="#DejaVuSans-2e" x="63.623047"/>
       <use xlink:href="#DejaVuSans-30" x="95.410156"/>
      </g>
     </g>
    </g>
    <g id="xtick_2">
     <g id="line2d_2">
      <g>
       <use xlink:href="#m5ba8f98d3b" x="100.92045" y="283.910437" style="stroke: #000000; stroke-width: 0.8"/>
      </g>
     </g>
     <g id="text_2">
      <!-- 0.2 -->
      <g transform="translate(92.968888 298.508875) scale(0.1 -0.1)">
       <defs>
        <path id="DejaVuSans-32" d="M 1228 531 
L 3431 531 
L 3431 0 
L 469 0 
L 469 531 
Q 828 903 1448 1529 
Q 2069 2156 2228 2338 
Q 2531 2678 2651 2914 
Q 2772 3150 2772 3378 
Q 2772 3750 2511 3984 
Q 2250 4219 1831 4219 
Q 1534 4219 1204 4116 
Q 875 4013 500 3803 
L 500 4441 
Q 881 4594 1212 4672 
Q 1544 4750 1819 4750 
Q 2544 4750 2975 4387 
Q 3406 4025 3406 3419 
Q 3406 3131 3298 2873 
Q 3191 2616 2906 2266 
Q 2828 2175 2409 1742 
Q 1991 1309 1228 531 
z
" transform="scale(0.015625)"/>
       </defs>
       <use xlink:href="#DejaVuSans-30"/>
       <use xlink:href="#DejaVuSans-2e" x="63.623047"/>
       <use xlink:href="#DejaVuSans-32" x="95.410156"/>
      </g>
     </g>
    </g>
    <g id="xtick_3">
     <g id="line2d_3">
      <g>
       <use xlink:href="#m5ba8f98d3b" x="158.05965" y="283.910437" style="stroke: #000000; stroke-width: 0.8"/>
      </g>
     </g>
     <g id="text_3">
      <!-- 0.4 -->
      <g transform="translate(150.108088 298.508875) scale(0.1 -0.1)">
       <defs>
        <path id="DejaVuSans-34" d="M 2419 4116 
L 825 1625 
L 2419 1625 
L 2419 4116 
z
M 2253 4666 
L 3047 4666 
L 3047 1625 
L 3713 1625 
L 3713 1100 
L 3047 1100 
L 3047 0 
L 2419 0 
L 2419 1100 
L 313 1100 
L 313 1709 
L 2253 4666 
z
" transform="scale(0.015625)"/>
       </defs>
       <use xlink:href="#DejaVuSans-30"/>
       <use xlink:href="#DejaVuSans-2e" x="63.623047"/>
       <use xlink:href="#DejaVuSans-34" x="95.410156"/>
      </g>
     </g>
    </g>
    <g id="xtick_4">
     <g id="line2d_4">
      <g>
       <use xlink:href="#m5ba8f98d3b" x="215.19885" y="283.910437" style="stroke: #000000; stroke-width: 0.8"/>
      </g>
     </g>
     <g id="text_4">
      <!-- 0.6 -->
      <g transform="translate(207.247288 298.508875) scale(0.1 -0.1)">
       <defs>
        <path id="DejaVuSans-36" d="M 2113 2584 
Q 1688 2584 1439 2293 
Q 1191 2003 1191 1497 
Q 1191 994 1439 701 
Q 1688 409 2113 409 
Q 2538 409 2786 701 
Q 3034 994 3034 1497 
Q 3034 2003 2786 2293 
Q 2538 2584 2113 2584 
z
M 3366 4563 
L 3366 3988 
Q 3128 4100 2886 4159 
Q 2644 4219 2406 4219 
Q 1781 4219 1451 3797 
Q 1122 3375 1075 2522 
Q 1259 2794 1537 2939 
Q 1816 3084 2150 3084 
Q 2853 3084 3261 2657 
Q 3669 2231 3669 1497 
Q 3669 778 3244 343 
Q 2819 -91 2113 -91 
Q 1303 -91 875 529 
Q 447 1150 447 2328 
Q 447 3434 972 4092 
Q 1497 4750 2381 4750 
Q 2619 4750 2861 4703 
Q 3103 4656 3366 4563 
z
" transform="scale(0.015625)"/>
       </defs>
       <use xlink:href="#DejaVuSans-30"/>
       <use xlink:href="#DejaVuSans-2e" x="63.623047"/>
       <use xlink:href="#DejaVuSans-36" x="95.410156"/>
      </g>
     </g>
    </g>
    <g id="xtick_5">
     <g id="line2d_5">
      <g>
       <use xlink:href="#m5ba8f98d3b" x="272.33805" y="283.910437" style="stroke: #000000; stroke-width: 0.8"/>
      </g>
     </g>
     <g id="text_5">
      <!-- 0.8 -->
      <g transform="translate(264.386488 298.508875) scale(0.1 -0.1)">
       <defs>
        <path id="DejaVuSans-38" d="M 2034 2216 
Q 1584 2216 1326 1975 
Q 1069 1734 1069 1313 
Q 1069 891 1326 650 
Q 1584 409 2034 409 
Q 2484 409 2743 651 
Q 3003 894 3003 1313 
Q 3003 1734 2745 1975 
Q 2488 2216 2034 2216 
z
M 1403 2484 
Q 997 2584 770 2862 
Q 544 3141 544 3541 
Q 544 4100 942 4425 
Q 1341 4750 2034 4750 
Q 2731 4750 3128 4425 
Q 3525 4100 3525 3541 
Q 3525 3141 3298 2862 
Q 3072 2584 2669 2484 
Q 3125 2378 3379 2068 
Q 3634 1759 3634 1313 
Q 3634 634 3220 271 
Q 2806 -91 2034 -91 
Q 1263 -91 848 271 
Q 434 634 434 1313 
Q 434 1759 690 2068 
Q 947 2378 1403 2484 
z
M 1172 3481 
Q 1172 3119 1398 2916 
Q 1625 2713 2034 2713 
Q 2441 2713 2670 2916 
Q 2900 3119 2900 3481 
Q 2900 3844 2670 4047 
Q 2441 4250 2034 4250 
Q 1625 4250 1398 4047 
Q 1172 3844 1172 3481 
z
" transform="scale(0.015625)"/>
       </defs>
       <use xlink:href="#DejaVuSans-30"/>
       <use xlink:href="#DejaVuSans-2e" x="63.623047"/>
       <use xlink:href="#DejaVuSans-38" x="95.410156"/>
      </g>
     </g>
    </g>
    <g id="xtick_6">
     <g id="line2d_6">
      <g>
       <use xlink:href="#m5ba8f98d3b" x="329.47725" y="283.910437" style="stroke: #000000; stroke-width: 0.8"/>
      </g>
     </g>
     <g id="text_6">
      <!-- 1.0 -->
      <g transform="translate(321.525688 298.508875) scale(0.1 -0.1)">
       <defs>
        <path id="DejaVuSans-31" d="M 794 531 
L 1825 531 
L 1825 4091 
L 703 3866 
L 703 4441 
L 1819 4666 
L 2450 4666 
L 2450 531 
L 3481 531 
L 3481 0 
L 794 0 
L 794 531 
z
" transform="scale(0.015625)"/>
       </defs>
       <use xlink:href="#DejaVuSans-31"/>
       <use xlink:href="#DejaVuSans-2e" x="63.623047"/>
       <use xlink:href="#DejaVuSans-30" x="95.410156"/>
      </g>
     </g>
    </g>
    <g id="text_7">
     <!-- Equity in Vaccination Burden Multiplier (a) -->
     <g transform="translate(81.262844 312.187) scale(0.1 -0.1)">
      <defs>
       <path id="DejaVuSans-45" d="M 628 4666 
L 3578 4666 
L 3578 4134 
L 1259 4134 
L 1259 2753 
L 3481 2753 
L 3481 2222 
L 1259 2222 
L 1259 531 
L 3634 531 
L 3634 0 
L 628 0 
L 628 4666 
z
" transform="scale(0.015625)"/>
       <path id="DejaVuSans-71" d="M 947 1747 
Q 947 1113 1208 752 
Q 1469 391 1925 391 
Q 2381 391 2643 752 
Q 2906 1113 2906 1747 
Q 2906 2381 2643 2742 
Q 2381 3103 1925 3103 
Q 1469 3103 1208 2742 
Q 947 2381 947 1747 
z
M 2906 525 
Q 2725 213 2448 61 
Q 2172 -91 1784 -91 
Q 1150 -91 751 415 
Q 353 922 353 1747 
Q 353 2572 751 3078 
Q 1150 3584 1784 3584 
Q 2172 3584 2448 3432 
Q 2725 3281 2906 2969 
L 2906 3500 
L 3481 3500 
L 3481 -1331 
L 2906 -1331 
L 2906 525 
z
" transform="scale(0.015625)"/>
       <path id="DejaVuSans-75" d="M 544 1381 
L 544 3500 
L 1119 3500 
L 1119 1403 
Q 1119 906 1312 657 
Q 1506 409 1894 409 
Q 2359 409 2629 706 
Q 2900 1003 2900 1516 
L 2900 3500 
L 3475 3500 
L 3475 0 
L 2900 0 
L 2900 538 
Q 2691 219 2414 64 
Q 2138 -91 1772 -91 
Q 1169 -91 856 284 
Q 544 659 544 1381 
z
M 1991 3584 
L 1991 3584 
z
" transform="scale(0.015625)"/>
       <path id="DejaVuSans-69" d="M 603 3500 
L 1178 3500 
L 1178 0 
L 603 0 
L 603 3500 
z
M 603 4863 
L 1178 4863 
L 1178 4134 
L 603 4134 
L 603 4863 
z
" transform="scale(0.015625)"/>
       <path id="DejaVuSans-74" d="M 1172 4494 
L 1172 3500 
L 2356 3500 
L 2356 3053 
L 1172 3053 
L 1172 1153 
Q 1172 725 1289 603 
Q 1406 481 1766 481 
L 2356 481 
L 2356 0 
L 1766 0 
Q 1100 0 847 248 
Q 594 497 594 1153 
L 594 3053 
L 172 3053 
L 172 3500 
L 594 3500 
L 594 4494 
L 1172 4494 
z
" transform="scale(0.015625)"/>
       <path id="DejaVuSans-79" d="M 2059 -325 
Q 1816 -950 1584 -1140 
Q 1353 -1331 966 -1331 
L 506 -1331 
L 506 -850 
L 844 -850 
Q 1081 -850 1212 -737 
Q 1344 -625 1503 -206 
L 1606 56 
L 191 3500 
L 800 3500 
L 1894 763 
L 2988 3500 
L 3597 3500 
L 2059 -325 
z
" transform="scale(0.015625)"/>
       <path id="DejaVuSans-20" transform="scale(0.015625)"/>
       <path id="DejaVuSans-6e" d="M 3513 2113 
L 3513 0 
L 2938 0 
L 2938 2094 
Q 2938 2591 2744 2837 
Q 2550 3084 2163 3084 
Q 1697 3084 1428 2787 
Q 1159 2491 1159 1978 
L 1159 0 
L 581 0 
L 581 3500 
L 1159 3500 
L 1159 2956 
Q 1366 3272 1645 3428 
Q 1925 3584 2291 3584 
Q 2894 3584 3203 3211 
Q 3513 2838 3513 2113 
z
" transform="scale(0.015625)"/>
       <path id="DejaVuSans-56" d="M 1831 0 
L 50 4666 
L 709 4666 
L 2188 738 
L 3669 4666 
L 4325 4666 
L 2547 0 
L 1831 0 
z
" transform="scale(0.015625)"/>
       <path id="DejaVuSans-61" d="M 2194 1759 
Q 1497 1759 1228 1600 
Q 959 1441 959 1056 
Q 959 750 1161 570 
Q 1363 391 1709 391 
Q 2188 391 2477 730 
Q 2766 1069 2766 1631 
L 2766 1759 
L 2194 1759 
z
M 3341 1997 
L 3341 0 
L 2766 0 
L 2766 531 
Q 2569 213 2275 61 
Q 1981 -91 1556 -91 
Q 1019 -91 701 211 
Q 384 513 384 1019 
Q 384 1609 779 1909 
Q 1175 2209 1959 2209 
L 2766 2209 
L 2766 2266 
Q 2766 2663 2505 2880 
Q 2244 3097 1772 3097 
Q 1472 3097 1187 3025 
Q 903 2953 641 2809 
L 641 3341 
Q 956 3463 1253 3523 
Q 1550 3584 1831 3584 
Q 2591 3584 2966 3190 
Q 3341 2797 3341 1997 
z
" transform="scale(0.015625)"/>
       <path id="DejaVuSans-63" d="M 3122 3366 
L 3122 2828 
Q 2878 2963 2633 3030 
Q 2388 3097 2138 3097 
Q 1578 3097 1268 2742 
Q 959 2388 959 1747 
Q 959 1106 1268 751 
Q 1578 397 2138 397 
Q 2388 397 2633 464 
Q 2878 531 3122 666 
L 3122 134 
Q 2881 22 2623 -34 
Q 2366 -91 2075 -91 
Q 1284 -91 818 406 
Q 353 903 353 1747 
Q 353 2603 823 3093 
Q 1294 3584 2113 3584 
Q 2378 3584 2631 3529 
Q 2884 3475 3122 3366 
z
" transform="scale(0.015625)"/>
       <path id="DejaVuSans-6f" d="M 1959 3097 
Q 1497 3097 1228 2736 
Q 959 2375 959 1747 
Q 959 1119 1226 758 
Q 1494 397 1959 397 
Q 2419 397 2687 759 
Q 2956 1122 2956 1747 
Q 2956 2369 2687 2733 
Q 2419 3097 1959 3097 
z
M 1959 3584 
Q 2709 3584 3137 3096 
Q 3566 2609 3566 1747 
Q 3566 888 3137 398 
Q 2709 -91 1959 -91 
Q 1206 -91 779 398 
Q 353 888 353 1747 
Q 353 2609 779 3096 
Q 1206 3584 1959 3584 
z
" transform="scale(0.015625)"/>
       <path id="DejaVuSans-42" d="M 1259 2228 
L 1259 519 
L 2272 519 
Q 2781 519 3026 730 
Q 3272 941 3272 1375 
Q 3272 1813 3026 2020 
Q 2781 2228 2272 2228 
L 1259 2228 
z
M 1259 4147 
L 1259 2741 
L 2194 2741 
Q 2656 2741 2882 2914 
Q 3109 3088 3109 3444 
Q 3109 3797 2882 3972 
Q 2656 4147 2194 4147 
L 1259 4147 
z
M 628 4666 
L 2241 4666 
Q 2963 4666 3353 4366 
Q 3744 4066 3744 3513 
Q 3744 3084 3544 2831 
Q 3344 2578 2956 2516 
Q 3422 2416 3680 2098 
Q 3938 1781 3938 1306 
Q 3938 681 3513 340 
Q 3088 0 2303 0 
L 628 0 
L 628 4666 
z
" transform="scale(0.015625)"/>
       <path id="DejaVuSans-72" d="M 2631 2963 
Q 2534 3019 2420 3045 
Q 2306 3072 2169 3072 
Q 1681 3072 1420 2755 
Q 1159 2438 1159 1844 
L 1159 0 
L 581 0 
L 581 3500 
L 1159 3500 
L 1159 2956 
Q 1341 3275 1631 3429 
Q 1922 3584 2338 3584 
Q 2397 3584 2469 3576 
Q 2541 3569 2628 3553 
L 2631 2963 
z
" transform="scale(0.015625)"/>
       <path id="DejaVuSans-64" d="M 2906 2969 
L 2906 4863 
L 3481 4863 
L 3481 0 
L 2906 0 
L 2906 525 
Q 2725 213 2448 61 
Q 2172 -91 1784 -91 
Q 1150 -91 751 415 
Q 353 922 353 1747 
Q 353 2572 751 3078 
Q 1150 3584 1784 3584 
Q 2172 3584 2448 3432 
Q 2725 3281 2906 2969 
z
M 947 1747 
Q 947 1113 1208 752 
Q 1469 391 1925 391 
Q 2381 391 2643 752 
Q 2906 1113 2906 1747 
Q 2906 2381 2643 2742 
Q 2381 3103 1925 3103 
Q 1469 3103 1208 2742 
Q 947 2381 947 1747 
z
" transform="scale(0.015625)"/>
       <path id="DejaVuSans-65" d="M 3597 1894 
L 3597 1613 
L 953 1613 
Q 991 1019 1311 708 
Q 1631 397 2203 397 
Q 2534 397 2845 478 
Q 3156 559 3463 722 
L 3463 178 
Q 3153 47 2828 -22 
Q 2503 -91 2169 -91 
Q 1331 -91 842 396 
Q 353 884 353 1716 
Q 353 2575 817 3079 
Q 1281 3584 2069 3584 
Q 2775 3584 3186 3129 
Q 3597 2675 3597 1894 
z
M 3022 2063 
Q 3016 2534 2758 2815 
Q 2500 3097 2075 3097 
Q 1594 3097 1305 2825 
Q 1016 2553 972 2059 
L 3022 2063 
z
" transform="scale(0.015625)"/>
       <path id="DejaVuSans-4d" d="M 628 4666 
L 1569 4666 
L 2759 1491 
L 3956 4666 
L 4897 4666 
L 4897 0 
L 4281 0 
L 4281 4097 
L 3078 897 
L 2444 897 
L 1241 4097 
L 1241 0 
L 628 0 
L 628 4666 
z
" transform="scale(0.015625)"/>
       <path id="DejaVuSans-6c" d="M 603 4863 
L 1178 4863 
L 1178 0 
L 603 0 
L 603 4863 
z
" transform="scale(0.015625)"/>
       <path id="DejaVuSans-70" d="M 1159 525 
L 1159 -1331 
L 581 -1331 
L 581 3500 
L 1159 3500 
L 1159 2969 
Q 1341 3281 1617 3432 
Q 1894 3584 2278 3584 
Q 2916 3584 3314 3078 
Q 3713 2572 3713 1747 
Q 3713 922 3314 415 
Q 2916 -91 2278 -91 
Q 1894 -91 1617 61 
Q 1341 213 1159 525 
z
M 3116 1747 
Q 3116 2381 2855 2742 
Q 2594 3103 2138 3103 
Q 1681 3103 1420 2742 
Q 1159 2381 1159 1747 
Q 1159 1113 1420 752 
Q 1681 391 2138 391 
Q 2594 391 2855 752 
Q 3116 1113 3116 1747 
z
" transform="scale(0.015625)"/>
       <path id="DejaVuSans-28" d="M 1984 4856 
Q 1566 4138 1362 3434 
Q 1159 2731 1159 2009 
Q 1159 1288 1364 580 
Q 1569 -128 1984 -844 
L 1484 -844 
Q 1016 -109 783 600 
Q 550 1309 550 2009 
Q 550 2706 781 3412 
Q 1013 4119 1484 4856 
L 1984 4856 
z
" transform="scale(0.015625)"/>
       <path id="DejaVuSans-29" d="M 513 4856 
L 1013 4856 
Q 1481 4119 1714 3412 
Q 1947 2706 1947 2009 
Q 1947 1309 1714 600 
Q 1481 -109 1013 -844 
L 513 -844 
Q 928 -128 1133 580 
Q 1338 1288 1338 2009 
Q 1338 2731 1133 3434 
Q 928 4138 513 4856 
z
" transform="scale(0.015625)"/>
      </defs>
      <use xlink:href="#DejaVuSans-45"/>
      <use xlink:href="#DejaVuSans-71" x="63.183594"/>
      <use xlink:href="#DejaVuSans-75" x="126.660156"/>
      <use xlink:href="#DejaVuSans-69" x="190.039062"/>
      <use xlink:href="#DejaVuSans-74" x="217.822266"/>
      <use xlink:href="#DejaVuSans-79" x="257.03125"/>
      <use xlink:href="#DejaVuSans-20" x="316.210938"/>
      <use xlink:href="#DejaVuSans-69" x="347.998047"/>
      <use xlink:href="#DejaVuSans-6e" x="375.78125"/>
      <use xlink:href="#DejaVuSans-20" x="439.160156"/>
      <use xlink:href="#DejaVuSans-56" x="470.947266"/>
      <use xlink:href="#DejaVuSans-61" x="531.605469"/>
      <use xlink:href="#DejaVuSans-63" x="592.884766"/>
      <use xlink:href="#DejaVuSans-63" x="647.865234"/>
      <use xlink:href="#DejaVuSans-69" x="702.845703"/>
      <use xlink:href="#DejaVuSans-6e" x="730.628906"/>
      <use xlink:href="#DejaVuSans-61" x="794.007812"/>
      <use xlink:href="#DejaVuSans-74" x="855.287109"/>
      <use xlink:href="#DejaVuSans-69" x="894.496094"/>
      <use xlink:href="#DejaVuSans-6f" x="922.279297"/>
      <use xlink:href="#DejaVuSans-6e" x="983.460938"/>
      <use xlink:href="#DejaVuSans-20" x="1046.839844"/>
      <use xlink:href="#DejaVuSans-42" x="1078.626953"/>
      <use xlink:href="#DejaVuSans-75" x="1147.230469"/>
      <use xlink:href="#DejaVuSans-72" x="1210.609375"/>
      <use xlink:href="#DejaVuSans-64" x="1249.972656"/>
      <use xlink:href="#DejaVuSans-65" x="1313.449219"/>
      <use xlink:href="#DejaVuSans-6e" x="1374.972656"/>
      <use xlink:href="#DejaVuSans-20" x="1438.351562"/>
      <use xlink:href="#DejaVuSans-4d" x="1470.138672"/>
      <use xlink:href="#DejaVuSans-75" x="1556.417969"/>
      <use xlink:href="#DejaVuSans-6c" x="1619.796875"/>
      <use xlink:href="#DejaVuSans-74" x="1647.580078"/>
      <use xlink:href="#DejaVuSans-69" x="1686.789062"/>
      <use xlink:href="#DejaVuSans-70" x="1714.572266"/>
      <use xlink:href="#DejaVuSans-6c" x="1778.048828"/>
      <use xlink:href="#DejaVuSans-69" x="1805.832031"/>
      <use xlink:href="#DejaVuSans-65" x="1833.615234"/>
      <use xlink:href="#DejaVuSans-72" x="1895.138672"/>
      <use xlink:href="#DejaVuSans-20" x="1936.251953"/>
      <use xlink:href="#DejaVuSans-28" x="1968.039062"/>
      <use xlink:href="#DejaVuSans-61" x="2007.052734"/>
      <use xlink:href="#DejaVuSans-29" x="2068.332031"/>
     </g>
    </g>
   </g>
   <g id="matplotlib.axis_2">
    <g id="ytick_1">
     <g id="line2d_7">
      <defs>
       <path id="m08e9fd08d9" d="M 0 0 
L -3.5 0 
" style="stroke: #000000; stroke-width: 0.8"/>
      </defs>
      <g>
       <use xlink:href="#m08e9fd08d9" x="43.78125" y="283.910437" style="stroke: #000000; stroke-width: 0.8"/>
      </g>
     </g>
     <g id="text_8">
      <!-- 0.0 -->
      <g transform="translate(20.878125 287.709656) scale(0.1 -0.1)">
       <use xlink:href="#DejaVuSans-30"/>
       <use xlink:href="#DejaVuSans-2e" x="63.623047"/>
       <use xlink:href="#DejaVuSans-30" x="95.410156"/>
      </g>
     </g>
    </g>
    <g id="ytick_2">
     <g id="line2d_8">
      <g>
       <use xlink:href="#m08e9fd08d9" x="43.78125" y="230.688037" style="stroke: #000000; stroke-width: 0.8"/>
      </g>
     </g>
     <g id="text_9">
      <!-- 0.2 -->
      <g transform="translate(20.878125 234.487256) scale(0.1 -0.1)">
       <use xlink:href="#DejaVuSans-30"/>
       <use xlink:href="#DejaVuSans-2e" x="63.623047"/>
       <use xlink:href="#DejaVuSans-32" x="95.410156"/>
      </g>
     </g>
    </g>
    <g id="ytick_3">
     <g id="line2d_9">
      <g>
       <use xlink:href="#m08e9fd08d9" x="43.78125" y="177.465637" style="stroke: #000000; stroke-width: 0.8"/>
      </g>
     </g>
     <g id="text_10">
      <!-- 0.4 -->
      <g transform="translate(20.878125 181.264856) scale(0.1 -0.1)">
       <use xlink:href="#DejaVuSans-30"/>
       <use xlink:href="#DejaVuSans-2e" x="63.623047"/>
       <use xlink:href="#DejaVuSans-34" x="95.410156"/>
      </g>
     </g>
    </g>
    <g id="ytick_4">
     <g id="line2d_10">
      <g>
       <use xlink:href="#m08e9fd08d9" x="43.78125" y="124.243237" style="stroke: #000000; stroke-width: 0.8"/>
      </g>
     </g>
     <g id="text_11">
      <!-- 0.6 -->
      <g transform="translate(20.878125 128.042456) scale(0.1 -0.1)">
       <use xlink:href="#DejaVuSans-30"/>
       <use xlink:href="#DejaVuSans-2e" x="63.623047"/>
       <use xlink:href="#DejaVuSans-36" x="95.410156"/>
      </g>
     </g>
    </g>
    <g id="ytick_5">
     <g id="line2d_11">
      <g>
       <use xlink:href="#m08e9fd08d9" x="43.78125" y="71.020837" style="stroke: #000000; stroke-width: 0.8"/>
      </g>
     </g>
     <g id="text_12">
      <!-- 0.8 -->
      <g transform="translate(20.878125 74.820056) scale(0.1 -0.1)">
       <use xlink:href="#DejaVuSans-30"/>
       <use xlink:href="#DejaVuSans-2e" x="63.623047"/>
       <use xlink:href="#DejaVuSans-38" x="95.410156"/>
      </g>
     </g>
    </g>
    <g id="ytick_6">
     <g id="line2d_12">
      <g>
       <use xlink:href="#m08e9fd08d9" x="43.78125" y="17.798437" style="stroke: #000000; stroke-width: 0.8"/>
      </g>
     </g>
     <g id="text_13">
      <!-- 1.0 -->
      <g transform="translate(20.878125 21.597656) scale(0.1 -0.1)">
       <use xlink:href="#DejaVuSans-31"/>
       <use xlink:href="#DejaVuSans-2e" x="63.623047"/>
       <use xlink:href="#DejaVuSans-30" x="95.410156"/>
      </g>
     </g>
    </g>
    <g id="text_14">
     <!-- Equity in Infection Burden Multiplier (b) -->
     <g transform="translate(14.798438 249.3435) rotate(-90) scale(0.1 -0.1)">
      <defs>
       <path id="DejaVuSans-49" d="M 628 4666 
L 1259 4666 
L 1259 0 
L 628 0 
L 628 4666 
z
" transform="scale(0.015625)"/>
       <path id="DejaVuSans-66" d="M 2375 4863 
L 2375 4384 
L 1825 4384 
Q 1516 4384 1395 4259 
Q 1275 4134 1275 3809 
L 1275 3500 
L 2222 3500 
L 2222 3053 
L 1275 3053 
L 1275 0 
L 697 0 
L 697 3053 
L 147 3053 
L 147 3500 
L 697 3500 
L 697 3744 
Q 697 4328 969 4595 
Q 1241 4863 1831 4863 
L 2375 4863 
z
" transform="scale(0.015625)"/>
       <path id="DejaVuSans-62" d="M 3116 1747 
Q 3116 2381 2855 2742 
Q 2594 3103 2138 3103 
Q 1681 3103 1420 2742 
Q 1159 2381 1159 1747 
Q 1159 1113 1420 752 
Q 1681 391 2138 391 
Q 2594 391 2855 752 
Q 3116 1113 3116 1747 
z
M 1159 2969 
Q 1341 3281 1617 3432 
Q 1894 3584 2278 3584 
Q 2916 3584 3314 3078 
Q 3713 2572 3713 1747 
Q 3713 922 3314 415 
Q 2916 -91 2278 -91 
Q 1894 -91 1617 61 
Q 1341 213 1159 525 
L 1159 0 
L 581 0 
L 581 4863 
L 1159 4863 
L 1159 2969 
z
" transform="scale(0.015625)"/>
      </defs>
      <use xlink:href="#DejaVuSans-45"/>
      <use xlink:href="#DejaVuSans-71" x="63.183594"/>
      <use xlink:href="#DejaVuSans-75" x="126.660156"/>
      <use xlink:href="#DejaVuSans-69" x="190.039062"/>
      <use xlink:href="#DejaVuSans-74" x="217.822266"/>
      <use xlink:href="#DejaVuSans-79" x="257.03125"/>
      <use xlink:href="#DejaVuSans-20" x="316.210938"/>
      <use xlink:href="#DejaVuSans-69" x="347.998047"/>
      <use xlink:href="#DejaVuSans-6e" x="375.78125"/>
      <use xlink:href="#DejaVuSans-20" x="439.160156"/>
      <use xlink:href="#DejaVuSans-49" x="470.947266"/>
      <use xlink:href="#DejaVuSans-6e" x="500.439453"/>
      <use xlink:href="#DejaVuSans-66" x="563.818359"/>
      <use xlink:href="#DejaVuSans-65" x="599.023438"/>
      <use xlink:href="#DejaVuSans-63" x="660.546875"/>
      <use xlink:href="#DejaVuSans-74" x="715.527344"/>
      <use xlink:href="#DejaVuSans-69" x="754.736328"/>
      <use xlink:href="#DejaVuSans-6f" x="782.519531"/>
      <use xlink:href="#DejaVuSans-6e" x="843.701172"/>
      <use xlink:href="#DejaVuSans-20" x="907.080078"/>
      <use xlink:href="#DejaVuSans-42" x="938.867188"/>
      <use xlink:href="#DejaVuSans-75" x="1007.470703"/>
      <use xlink:href="#DejaVuSans-72" x="1070.849609"/>
      <use xlink:href="#DejaVuSans-64" x="1110.212891"/>
      <use xlink:href="#DejaVuSans-65" x="1173.689453"/>
      <use xlink:href="#DejaVuSans-6e" x="1235.212891"/>
      <use xlink:href="#DejaVuSans-20" x="1298.591797"/>
      <use xlink:href="#DejaVuSans-4d" x="1330.378906"/>
      <use xlink:href="#DejaVuSans-75" x="1416.658203"/>
      <use xlink:href="#DejaVuSans-6c" x="1480.037109"/>
      <use xlink:href="#DejaVuSans-74" x="1507.820312"/>
      <use xlink:href="#DejaVuSans-69" x="1547.029297"/>
      <use xlink:href="#DejaVuSans-70" x="1574.8125"/>
      <use xlink:href="#DejaVuSans-6c" x="1638.289062"/>
      <use xlink:href="#DejaVuSans-69" x="1666.072266"/>
      <use xlink:href="#DejaVuSans-65" x="1693.855469"/>
      <use xlink:href="#DejaVuSans-72" x="1755.378906"/>
      <use xlink:href="#DejaVuSans-20" x="1796.492188"/>
      <use xlink:href="#DejaVuSans-28" x="1828.279297"/>
      <use xlink:href="#DejaVuSans-62" x="1867.292969"/>
      <use xlink:href="#DejaVuSans-29" x="1930.769531"/>
     </g>
    </g>
   </g>
   <g id="patch_3">
    <path d="M 43.78125 283.910437 
L 43.78125 17.798437 
" style="fill: none; stroke: #000000; stroke-width: 0.8; stroke-linejoin: miter; stroke-linecap: square"/>
   </g>
   <g id="patch_4">
    <path d="M 329.47725 283.910437 
L 329.47725 17.798437 
" style="fill: none; stroke: #000000; stroke-width: 0.8; stroke-linejoin: miter; stroke-linecap: square"/>
   </g>
   <g id="patch_5">
    <path d="M 43.78125 283.910437 
L 329.47725 283.910437 
" style="fill: none; stroke: #000000; stroke-width: 0.8; stroke-linejoin: miter; stroke-linecap: square"/>
   </g>
   <g id="patch_6">
    <path d="M 43.78125 17.798437 
L 329.47725 17.798437 
" style="fill: none; stroke: #000000; stroke-width: 0.8; stroke-linejoin: miter; stroke-linecap: square"/>
   </g>
  </g>
  <g id="axes_2">
   <g id="patch_7">
    <path d="M 347.33325 283.910437 
L 360.63885 283.910437 
L 360.63885 17.798437 
L 347.33325 17.798437 
z
" style="fill: #ffffff"/>
   </g>
   <g id="QuadMesh_1">
    <path d="M 347.33325 283.910437 
L 360.63885 283.910437 
L 360.63885 261.734437 
L 347.33325 261.734437 
L 347.33325 283.910437 
" clip-path="url(#p705879a344)" style="fill: #f8f7fa"/>
    <path d="M 347.33325 261.734437 
L 360.63885 261.734437 
L 360.63885 239.558437 
L 347.33325 239.558437 
L 347.33325 261.734437 
" clip-path="url(#p705879a344)" style="fill: #efedf5"/>
    <path d="M 347.33325 239.558437 
L 360.63885 239.558437 
L 360.63885 217.382437 
L 347.33325 217.382437 
L 347.33325 239.558437 
" clip-path="url(#p705879a344)" style="fill: #e1e0ee"/>
    <path d="M 347.33325 217.382437 
L 360.63885 217.382437 
L 360.63885 195.206437 
L 347.33325 195.206437 
L 347.33325 217.382437 
" clip-path="url(#p705879a344)" style="fill: #d0d1e6"/>
    <path d="M 347.33325 195.206437 
L 360.63885 195.206437 
L 360.63885 173.030437 
L 347.33325 173.030437 
L 347.33325 195.206437 
" clip-path="url(#p705879a344)" style="fill: #bcbddc"/>
    <path d="M 347.33325 173.030437 
L 360.63885 173.030437 
L 360.63885 150.854437 
L 347.33325 150.854437 
L 347.33325 173.030437 
" clip-path="url(#p705879a344)" style="fill: #a8a6cf"/>
    <path d="M 347.33325 150.854437 
L 360.63885 150.854437 
L 360.63885 128.678437 
L 347.33325 128.678437 
L 347.33325 150.854437 
" clip-path="url(#p705879a344)" style="fill: #9490c3"/>
    <path d="M 347.33325 128.678437 
L 360.63885 128.678437 
L 360.63885 106.502437 
L 347.33325 106.502437 
L 347.33325 128.678437 
" clip-path="url(#p705879a344)" style="fill: #807cba"/>
    <path d="M 347.33325 106.502437 
L 360.63885 106.502437 
L 360.63885 84.326437 
L 347.33325 84.326437 
L 347.33325 106.502437 
" clip-path="url(#p705879a344)" style="fill: #715faa"/>
    <path d="M 347.33325 84.326437 
L 360.63885 84.326437 
L 360.63885 62.150437 
L 347.33325 62.150437 
L 347.33325 84.326437 
" clip-path="url(#p705879a344)" style="fill: #63439c"/>
    <path d="M 347.33325 62.150437 
L 360.63885 62.150437 
L 360.63885 39.974437 
L 347.33325 39.974437 
L 347.33325 62.150437 
" clip-path="url(#p705879a344)" style="fill: #53268f"/>
    <path d="M 347.33325 39.974437 
L 360.63885 39.974437 
L 360.63885 17.798437 
L 347.33325 17.798437 
L 347.33325 39.974437 
" clip-path="url(#p705879a344)" style="fill: #460c83"/>
   </g>
   <g id="matplotlib.axis_3"/>
   <g id="matplotlib.axis_4">
    <g id="ytick_7">
     <g id="line2d_13">
      <defs>
       <path id="m92f7fb3c9b" d="M 0 0 
L 3.5 0 
" style="stroke: #000000; stroke-width: 0.8"/>
      </defs>
      <g>
       <use xlink:href="#m92f7fb3c9b" x="360.63885" y="283.910437" style="stroke: #000000; stroke-width: 0.8"/>
      </g>
     </g>
     <g id="text_15">
      <!-- 0.0 -->
      <g transform="translate(367.63885 287.709656) scale(0.1 -0.1)">
       <use xlink:href="#DejaVuSans-30"/>
       <use xlink:href="#DejaVuSans-2e" x="63.623047"/>
       <use xlink:href="#DejaVuSans-30" x="95.410156"/>
      </g>
     </g>
    </g>
    <g id="ytick_8">
     <g id="line2d_14">
      <g>
       <use xlink:href="#m92f7fb3c9b" x="360.63885" y="239.558437" style="stroke: #000000; stroke-width: 0.8"/>
      </g>
     </g>
     <g id="text_16">
      <!-- 0.4 -->
      <g transform="translate(367.63885 243.357656) scale(0.1 -0.1)">
       <use xlink:href="#DejaVuSans-30"/>
       <use xlink:href="#DejaVuSans-2e" x="63.623047"/>
       <use xlink:href="#DejaVuSans-34" x="95.410156"/>
      </g>
     </g>
    </g>
    <g id="ytick_9">
     <g id="line2d_15">
      <g>
       <use xlink:href="#m92f7fb3c9b" x="360.63885" y="195.206437" style="stroke: #000000; stroke-width: 0.8"/>
      </g>
     </g>
     <g id="text_17">
      <!-- 0.8 -->
      <g transform="translate(367.63885 199.005656) scale(0.1 -0.1)">
       <use xlink:href="#DejaVuSans-30"/>
       <use xlink:href="#DejaVuSans-2e" x="63.623047"/>
       <use xlink:href="#DejaVuSans-38" x="95.410156"/>
      </g>
     </g>
    </g>
    <g id="ytick_10">
     <g id="line2d_16">
      <g>
       <use xlink:href="#m92f7fb3c9b" x="360.63885" y="150.854437" style="stroke: #000000; stroke-width: 0.8"/>
      </g>
     </g>
     <g id="text_18">
      <!-- 1.2 -->
      <g transform="translate(367.63885 154.653656) scale(0.1 -0.1)">
       <use xlink:href="#DejaVuSans-31"/>
       <use xlink:href="#DejaVuSans-2e" x="63.623047"/>
       <use xlink:href="#DejaVuSans-32" x="95.410156"/>
      </g>
     </g>
    </g>
    <g id="ytick_11">
     <g id="line2d_17">
      <g>
       <use xlink:href="#m92f7fb3c9b" x="360.63885" y="106.502437" style="stroke: #000000; stroke-width: 0.8"/>
      </g>
     </g>
     <g id="text_19">
      <!-- 1.6 -->
      <g transform="translate(367.63885 110.301656) scale(0.1 -0.1)">
       <use xlink:href="#DejaVuSans-31"/>
       <use xlink:href="#DejaVuSans-2e" x="63.623047"/>
       <use xlink:href="#DejaVuSans-36" x="95.410156"/>
      </g>
     </g>
    </g>
    <g id="ytick_12">
     <g id="line2d_18">
      <g>
       <use xlink:href="#m92f7fb3c9b" x="360.63885" y="62.150437" style="stroke: #000000; stroke-width: 0.8"/>
      </g>
     </g>
     <g id="text_20">
      <!-- 2.0 -->
      <g transform="translate(367.63885 65.949656) scale(0.1 -0.1)">
       <use xlink:href="#DejaVuSans-32"/>
       <use xlink:href="#DejaVuSans-2e" x="63.623047"/>
       <use xlink:href="#DejaVuSans-30" x="95.410156"/>
      </g>
     </g>
    </g>
    <g id="ytick_13">
     <g id="line2d_19">
      <g>
       <use xlink:href="#m92f7fb3c9b" x="360.63885" y="17.798437" style="stroke: #000000; stroke-width: 0.8"/>
      </g>
     </g>
     <g id="text_21">
      <!-- 2.4 -->
      <g transform="translate(367.63885 21.597656) scale(0.1 -0.1)">
       <use xlink:href="#DejaVuSans-32"/>
       <use xlink:href="#DejaVuSans-2e" x="63.623047"/>
       <use xlink:href="#DejaVuSans-34" x="95.410156"/>
      </g>
     </g>
    </g>
    <g id="text_22">
     <!-- Total Number of Vaccinated Individuals -->
     <g transform="translate(395.140413 248.177094) rotate(-90) scale(0.1 -0.1)">
      <defs>
       <path id="DejaVuSans-54" d="M -19 4666 
L 3928 4666 
L 3928 4134 
L 2272 4134 
L 2272 0 
L 1638 0 
L 1638 4134 
L -19 4134 
L -19 4666 
z
" transform="scale(0.015625)"/>
       <path id="DejaVuSans-4e" d="M 628 4666 
L 1478 4666 
L 3547 763 
L 3547 4666 
L 4159 4666 
L 4159 0 
L 3309 0 
L 1241 3903 
L 1241 0 
L 628 0 
L 628 4666 
z
" transform="scale(0.015625)"/>
       <path id="DejaVuSans-6d" d="M 3328 2828 
Q 3544 3216 3844 3400 
Q 4144 3584 4550 3584 
Q 5097 3584 5394 3201 
Q 5691 2819 5691 2113 
L 5691 0 
L 5113 0 
L 5113 2094 
Q 5113 2597 4934 2840 
Q 4756 3084 4391 3084 
Q 3944 3084 3684 2787 
Q 3425 2491 3425 1978 
L 3425 0 
L 2847 0 
L 2847 2094 
Q 2847 2600 2669 2842 
Q 2491 3084 2119 3084 
Q 1678 3084 1418 2786 
Q 1159 2488 1159 1978 
L 1159 0 
L 581 0 
L 581 3500 
L 1159 3500 
L 1159 2956 
Q 1356 3278 1631 3431 
Q 1906 3584 2284 3584 
Q 2666 3584 2933 3390 
Q 3200 3197 3328 2828 
z
" transform="scale(0.015625)"/>
       <path id="DejaVuSans-76" d="M 191 3500 
L 800 3500 
L 1894 563 
L 2988 3500 
L 3597 3500 
L 2284 0 
L 1503 0 
L 191 3500 
z
" transform="scale(0.015625)"/>
       <path id="DejaVuSans-73" d="M 2834 3397 
L 2834 2853 
Q 2591 2978 2328 3040 
Q 2066 3103 1784 3103 
Q 1356 3103 1142 2972 
Q 928 2841 928 2578 
Q 928 2378 1081 2264 
Q 1234 2150 1697 2047 
L 1894 2003 
Q 2506 1872 2764 1633 
Q 3022 1394 3022 966 
Q 3022 478 2636 193 
Q 2250 -91 1575 -91 
Q 1294 -91 989 -36 
Q 684 19 347 128 
L 347 722 
Q 666 556 975 473 
Q 1284 391 1588 391 
Q 1994 391 2212 530 
Q 2431 669 2431 922 
Q 2431 1156 2273 1281 
Q 2116 1406 1581 1522 
L 1381 1569 
Q 847 1681 609 1914 
Q 372 2147 372 2553 
Q 372 3047 722 3315 
Q 1072 3584 1716 3584 
Q 2034 3584 2315 3537 
Q 2597 3491 2834 3397 
z
" transform="scale(0.015625)"/>
      </defs>
      <use xlink:href="#DejaVuSans-54"/>
      <use xlink:href="#DejaVuSans-6f" x="44.083984"/>
      <use xlink:href="#DejaVuSans-74" x="105.265625"/>
      <use xlink:href="#DejaVuSans-61" x="144.474609"/>
      <use xlink:href="#DejaVuSans-6c" x="205.753906"/>
      <use xlink:href="#DejaVuSans-20" x="233.537109"/>
      <use xlink:href="#DejaVuSans-4e" x="265.324219"/>
      <use xlink:href="#DejaVuSans-75" x="340.128906"/>
      <use xlink:href="#DejaVuSans-6d" x="403.507812"/>
      <use xlink:href="#DejaVuSans-62" x="500.919922"/>
      <use xlink:href="#DejaVuSans-65" x="564.396484"/>
      <use xlink:href="#DejaVuSans-72" x="625.919922"/>
      <use xlink:href="#DejaVuSans-20" x="667.033203"/>
      <use xlink:href="#DejaVuSans-6f" x="698.820312"/>
      <use xlink:href="#DejaVuSans-66" x="760.001953"/>
      <use xlink:href="#DejaVuSans-20" x="795.207031"/>
      <use xlink:href="#DejaVuSans-56" x="826.994141"/>
      <use xlink:href="#DejaVuSans-61" x="887.652344"/>
      <use xlink:href="#DejaVuSans-63" x="948.931641"/>
      <use xlink:href="#DejaVuSans-63" x="1003.912109"/>
      <use xlink:href="#DejaVuSans-69" x="1058.892578"/>
      <use xlink:href="#DejaVuSans-6e" x="1086.675781"/>
      <use xlink:href="#DejaVuSans-61" x="1150.054688"/>
      <use xlink:href="#DejaVuSans-74" x="1211.333984"/>
      <use xlink:href="#DejaVuSans-65" x="1250.542969"/>
      <use xlink:href="#DejaVuSans-64" x="1312.066406"/>
      <use xlink:href="#DejaVuSans-20" x="1375.542969"/>
      <use xlink:href="#DejaVuSans-49" x="1407.330078"/>
      <use xlink:href="#DejaVuSans-6e" x="1436.822266"/>
      <use xlink:href="#DejaVuSans-64" x="1500.201172"/>
      <use xlink:href="#DejaVuSans-69" x="1563.677734"/>
      <use xlink:href="#DejaVuSans-76" x="1591.460938"/>
      <use xlink:href="#DejaVuSans-69" x="1650.640625"/>
      <use xlink:href="#DejaVuSans-64" x="1678.423828"/>
      <use xlink:href="#DejaVuSans-75" x="1741.900391"/>
      <use xlink:href="#DejaVuSans-61" x="1805.279297"/>
      <use xlink:href="#DejaVuSans-6c" x="1866.558594"/>
      <use xlink:href="#DejaVuSans-73" x="1894.341797"/>
     </g>
    </g>
    <g id="text_23">
     <!-- 1e6 -->
     <g transform="translate(341.760725 14.798437) scale(0.1 -0.1)">
      <use xlink:href="#DejaVuSans-31"/>
      <use xlink:href="#DejaVuSans-65" x="63.623047"/>
      <use xlink:href="#DejaVuSans-36" x="125.146484"/>
     </g>
    </g>
   </g>
   <g id="LineCollection_1"/>
   <g id="patch_8">
    <path d="M 347.33325 283.910437 
L 353.98605 283.910437 
L 360.63885 283.910437 
L 360.63885 17.798437 
L 353.98605 17.798437 
L 347.33325 17.798437 
L 347.33325 283.910437 
z
" style="fill: none; stroke: #000000; stroke-width: 0.8; stroke-linejoin: miter; stroke-linecap: square"/>
   </g>
  </g>
 </g>
 <defs>
  <clipPath id="pb4ac222c2a">
   <rect x="43.78125" y="17.798437" width="285.696" height="266.112"/>
  </clipPath>
  <clipPath id="p705879a344">
   <rect x="347.33325" y="17.798437" width="13.3056" height="266.112"/>
  </clipPath>
 </defs>
</svg>
