<?xml version="1.0" encoding="utf-8" standalone="no"?>
<!DOCTYPE svg PUBLIC "-//W3C//DTD SVG 1.1//EN"
  "http://www.w3.org/Graphics/SVG/1.1/DTD/svg11.dtd">
<svg xmlns:xlink="http://www.w3.org/1999/xlink" width="426.691975pt" height="314.667469pt" viewBox="0 0 426.691975 314.667469" xmlns="http://www.w3.org/2000/svg" version="1.1">
 <metadata>
  <rdf:RDF xmlns:dc="http://purl.org/dc/elements/1.1/" xmlns:cc="http://creativecommons.org/ns#" xmlns:rdf="http://www.w3.org/1999/02/22-rdf-syntax-ns#">
   <cc:Work>
    <dc:type rdf:resource="http://purl.org/dc/dcmitype/StillImage"/>
    <dc:date>2024-10-31T14:51:30.054740</dc:date>
    <dc:format>image/svg+xml</dc:format>
    <dc:creator>
     <cc:Agent>
      <dc:title>Matplotlib v3.9.0, https://matplotlib.org/</dc:title>
     </cc:Agent>
    </dc:creator>
   </cc:Work>
  </rdf:RDF>
 </metadata>
 <defs>
  <style type="text/css">*{stroke-linejoin: round; stroke-linecap: butt}</style>
 </defs>
 <g id="figure_1">
  <g id="patch_1">
   <path d="M 0 314.667469 
L 426.691975 314.667469 
L 426.691975 0 
L 0 0 
z
" style="fill: #ffffff"/>
  </g>
  <g id="axes_1">
   <g id="patch_2">
    <path d="M 43.78125 277.111219 
L 329.47725 277.111219 
L 329.47725 10.999219 
L 43.78125 10.999219 
z
" style="fill: #ffffff"/>
   </g>
   <g id="QuadContourSet_1">
    <path d="M 50.92365 277.111219 
L 58.06605 277.111219 
L 65.20845 277.111219 
L 72.35085 277.111219 
L 73.356308 277.111219 
L 72.35085 276.174683 
L 65.20845 276.174683 
L 58.06605 276.174683 
L 50.92365 276.174683 
L 43.78125 276.174683 
L 43.78125 277.111219 
z
" clip-path="url(#pacf46d29e0)" style="fill: #ffefe8"/>
    <path d="M 50.92365 276.174683 
L 58.06605 276.174683 
L 65.20845 276.174683 
L 72.35085 276.174683 
L 73.356308 277.111219 
L 79.49325 277.111219 
L 86.63565 277.111219 
L 93.77805 277.111219 
L 100.92045 277.111219 
L 108.06285 277.111219 
L 115.20525 277.111219 
L 122.34765 277.111219 
L 129.49005 277.111219 
L 136.63245 277.111219 
L 143.77485 277.111219 
L 150.91725 277.111219 
L 158.05965 277.111219 
L 165.20205 277.111219 
L 172.34445 277.111219 
L 179.48685 277.111219 
L 186.62925 277.111219 
L 193.77165 277.111219 
L 200.91405 277.111219 
L 208.05645 277.111219 
L 215.19885 277.111219 
L 222.34125 277.111219 
L 229.48365 277.111219 
L 233.236455 277.111219 
L 229.48365 273.927204 
L 222.34125 273.927204 
L 215.19885 273.927204 
L 208.05645 273.927204 
L 204.332386 270.458419 
L 204.332386 263.805619 
L 200.91405 260.621604 
L 193.77165 260.621604 
L 186.62925 260.621604 
L 182.905186 257.152819 
L 179.48685 253.968804 
L 175.762786 250.500019 
L 172.34445 247.316004 
L 165.20205 247.316004 
L 158.05965 247.316004 
L 154.335586 243.847219 
L 150.91725 240.663204 
L 147.193186 237.194419 
L 143.77485 234.010404 
L 136.63245 234.010404 
L 129.49005 234.010404 
L 122.34765 234.010404 
L 118.623586 230.541619 
L 118.623586 223.888819 
L 115.20525 220.704804 
L 108.06285 220.704804 
L 100.92045 220.704804 
L 97.196386 217.236019 
L 93.77805 214.052004 
L 90.053986 210.583219 
L 86.63565 207.399204 
L 79.49325 207.399204 
L 72.35085 207.399204 
L 65.20845 207.399204 
L 61.484386 203.930419 
L 61.484386 197.277619 
L 58.06605 194.093604 
L 50.92365 194.093604 
L 43.78125 194.093604 
L 43.78125 197.277619 
L 43.78125 203.930419 
L 43.78125 210.583219 
L 43.78125 217.236019 
L 43.78125 223.888819 
L 43.78125 230.541619 
L 43.78125 237.194419 
L 43.78125 243.847219 
L 43.78125 250.500019 
L 43.78125 257.152819 
L 43.78125 263.805619 
L 43.78125 270.458419 
L 43.78125 276.174683 
z
" clip-path="url(#pacf46d29e0)" style="fill: #fee3d7"/>
    <path d="M 208.05645 273.927204 
L 215.19885 273.927204 
L 222.34125 273.927204 
L 229.48365 273.927204 
L 233.236455 277.111219 
L 236.62605 277.111219 
L 243.76845 277.111219 
L 250.91085 277.111219 
L 258.05325 277.111219 
L 265.19565 277.111219 
L 272.33805 277.111219 
L 279.48045 277.111219 
L 286.62285 277.111219 
L 293.76525 277.111219 
L 300.90765 277.111219 
L 308.05005 277.111219 
L 300.90765 270.458419 
L 300.90765 263.805619 
L 293.76525 263.805619 
L 292.540487 262.664811 
L 286.62285 262.664811 
L 279.48045 262.664811 
L 272.33805 262.664811 
L 265.19565 263.00184 
L 258.05325 263.408622 
L 250.91085 263.408622 
L 244.194662 257.152819 
L 244.194662 250.500019 
L 243.76845 250.103022 
L 236.62605 250.103022 
L 229.48365 250.103022 
L 222.767462 243.847219 
L 222.34125 243.450222 
L 215.625062 237.194419 
L 215.19885 236.797422 
L 208.05645 236.797422 
L 200.91405 236.797422 
L 194.197862 230.541619 
L 193.77165 230.144622 
L 187.055462 223.888819 
L 186.62925 223.491822 
L 179.48685 223.491822 
L 172.34445 223.491822 
L 165.628262 217.236019 
L 165.20205 216.839022 
L 158.485862 210.583219 
L 158.05965 210.186222 
L 150.91725 210.186222 
L 144.201062 203.930419 
L 144.201062 197.277619 
L 143.77485 196.880622 
L 136.63245 196.880622 
L 129.49005 196.880622 
L 122.773862 190.624819 
L 122.34765 190.227822 
L 115.631462 183.972019 
L 115.20525 183.575022 
L 108.06285 183.575022 
L 100.92045 183.575022 
L 93.77805 183.575022 
L 87.061862 177.319219 
L 87.061862 170.666419 
L 86.63565 170.269422 
L 79.49325 170.269422 
L 72.35085 170.269422 
L 65.20845 170.269422 
L 58.492262 164.013619 
L 58.492262 157.360819 
L 58.06605 156.963822 
L 50.92365 156.963822 
L 43.78125 156.963822 
L 43.78125 157.360819 
L 43.78125 164.013619 
L 43.78125 170.666419 
L 43.78125 177.319219 
L 43.78125 183.972019 
L 43.78125 190.624819 
L 43.78125 194.093604 
L 50.92365 194.093604 
L 58.06605 194.093604 
L 61.484386 197.277619 
L 61.484386 203.930419 
L 65.20845 207.399204 
L 72.35085 207.399204 
L 79.49325 207.399204 
L 86.63565 207.399204 
L 90.053986 210.583219 
L 93.77805 214.052004 
L 97.196386 217.236019 
L 100.92045 220.704804 
L 108.06285 220.704804 
L 115.20525 220.704804 
L 118.623586 223.888819 
L 118.623586 230.541619 
L 122.34765 234.010404 
L 129.49005 234.010404 
L 136.63245 234.010404 
L 143.77485 234.010404 
L 147.193186 237.194419 
L 150.91725 240.663204 
L 154.335586 243.847219 
L 158.05965 247.316004 
L 165.20205 247.316004 
L 172.34445 247.316004 
L 175.762786 250.500019 
L 179.48685 253.968804 
L 182.905186 257.152819 
L 186.62925 260.621604 
L 193.77165 260.621604 
L 200.91405 260.621604 
L 204.332386 263.805619 
L 204.332386 270.458419 
z
" clip-path="url(#pacf46d29e0)" style="fill: #fdd1be"/>
    <path d="M 250.91085 263.408622 
L 258.05325 263.408622 
L 265.19565 263.00184 
L 272.33805 262.664811 
L 279.48045 262.664811 
L 286.62285 262.664811 
L 292.540487 262.664811 
L 286.62285 257.152819 
L 285.113426 255.746863 
L 279.48045 255.746863 
L 272.33805 255.746863 
L 265.19565 255.746863 
L 258.05325 256.067679 
L 252.075848 250.500019 
L 250.91085 249.414879 
L 244.933448 243.847219 
L 243.76845 242.762079 
L 236.62605 242.762079 
L 229.48365 242.762079 
L 223.506248 237.194419 
L 222.34125 236.109279 
L 216.363848 230.541619 
L 215.19885 229.456479 
L 208.05645 229.456479 
L 200.91405 229.456479 
L 194.936648 223.888819 
L 193.77165 222.803679 
L 187.794248 217.236019 
L 186.62925 216.150879 
L 179.48685 216.150879 
L 172.34445 216.150879 
L 166.367048 210.583219 
L 165.20205 209.498079 
L 159.224648 203.930419 
L 158.05965 202.845279 
L 152.082248 197.277619 
L 150.91725 196.192479 
L 144.939848 190.624819 
L 143.77485 189.539679 
L 136.63245 189.539679 
L 129.49005 189.539679 
L 123.512648 183.972019 
L 123.512648 177.319219 
L 122.34765 176.234079 
L 115.20525 176.234079 
L 108.06285 176.234079 
L 100.92045 176.234079 
L 94.943048 170.666419 
L 94.943048 164.013619 
L 93.77805 162.928479 
L 86.63565 162.928479 
L 79.49325 162.928479 
L 72.35085 162.928479 
L 66.373448 157.360819 
L 65.20845 156.275679 
L 59.231048 150.708019 
L 58.06605 149.622879 
L 50.92365 149.622879 
L 43.78125 149.622879 
L 43.78125 150.708019 
L 43.78125 156.963822 
L 50.92365 156.963822 
L 58.06605 156.963822 
L 58.492262 157.360819 
L 58.492262 164.013619 
L 65.20845 170.269422 
L 72.35085 170.269422 
L 79.49325 170.269422 
L 86.63565 170.269422 
L 87.061862 170.666419 
L 87.061862 177.319219 
L 93.77805 183.575022 
L 100.92045 183.575022 
L 108.06285 183.575022 
L 115.20525 183.575022 
L 115.631462 183.972019 
L 122.34765 190.227822 
L 122.773862 190.624819 
L 129.49005 196.880622 
L 136.63245 196.880622 
L 143.77485 196.880622 
L 144.201062 197.277619 
L 144.201062 203.930419 
L 150.91725 210.186222 
L 158.05965 210.186222 
L 158.485862 210.583219 
L 165.20205 216.839022 
L 165.628262 217.236019 
L 172.34445 223.491822 
L 179.48685 223.491822 
L 186.62925 223.491822 
L 187.055462 223.888819 
L 193.77165 230.144622 
L 194.197862 230.541619 
L 200.91405 236.797422 
L 208.05645 236.797422 
L 215.19885 236.797422 
L 215.625062 237.194419 
L 222.34125 243.450222 
L 222.767462 243.847219 
L 229.48365 250.103022 
L 236.62605 250.103022 
L 243.76845 250.103022 
L 244.194662 250.500019 
L 244.194662 257.152819 
z
" clip-path="url(#pacf46d29e0)" style="fill: #fcbba1"/>
    <path d="M 258.05325 256.067679 
L 265.19565 255.746863 
L 272.33805 255.746863 
L 279.48045 255.746863 
L 285.113426 255.746863 
L 279.48045 250.500019 
L 278.058496 249.175538 
L 272.33805 249.175538 
L 265.19565 249.175538 
L 259.475204 243.847219 
L 259.475204 237.194419 
L 258.05325 235.869938 
L 250.91085 235.869938 
L 243.76845 235.869938 
L 238.048004 230.541619 
L 236.62605 229.217138 
L 230.905604 223.888819 
L 229.48365 222.564338 
L 222.34125 222.564338 
L 216.620804 217.236019 
L 216.620804 210.583219 
L 215.19885 209.258738 
L 208.05645 209.258738 
L 200.91405 209.258738 
L 193.77165 209.258738 
L 188.051204 203.930419 
L 188.051204 197.277619 
L 186.62925 195.953138 
L 179.48685 195.953138 
L 172.34445 195.953138 
L 165.20205 195.953138 
L 159.481604 190.624819 
L 159.481604 183.972019 
L 158.05965 182.647538 
L 150.91725 182.647538 
L 145.196804 177.319219 
L 145.196804 170.666419 
L 143.77485 169.341938 
L 136.63245 169.341938 
L 129.49005 169.341938 
L 122.34765 169.341938 
L 116.627204 164.013619 
L 116.627204 157.360819 
L 115.20525 156.036338 
L 108.06285 156.036338 
L 100.92045 156.036338 
L 95.200004 150.708019 
L 93.77805 149.383538 
L 88.057604 144.055219 
L 86.63565 142.730738 
L 79.49325 142.730738 
L 72.35085 142.730738 
L 65.20845 142.730738 
L 59.488004 137.402419 
L 59.488004 130.749619 
L 58.06605 129.425138 
L 50.92365 129.425138 
L 45.203204 124.096819 
L 45.203204 117.444019 
L 43.78125 116.119538 
L 43.78125 117.444019 
L 43.78125 124.096819 
L 43.78125 130.749619 
L 43.78125 137.402419 
L 43.78125 144.055219 
L 43.78125 149.622879 
L 50.92365 149.622879 
L 58.06605 149.622879 
L 59.231048 150.708019 
L 65.20845 156.275679 
L 66.373448 157.360819 
L 72.35085 162.928479 
L 79.49325 162.928479 
L 86.63565 162.928479 
L 93.77805 162.928479 
L 94.943048 164.013619 
L 94.943048 170.666419 
L 100.92045 176.234079 
L 108.06285 176.234079 
L 115.20525 176.234079 
L 122.34765 176.234079 
L 123.512648 177.319219 
L 123.512648 183.972019 
L 129.49005 189.539679 
L 136.63245 189.539679 
L 143.77485 189.539679 
L 144.939848 190.624819 
L 150.91725 196.192479 
L 152.082248 197.277619 
L 158.05965 202.845279 
L 159.224648 203.930419 
L 165.20205 209.498079 
L 166.367048 210.583219 
L 172.34445 216.150879 
L 179.48685 216.150879 
L 186.62925 216.150879 
L 187.794248 217.236019 
L 193.77165 222.803679 
L 194.936648 223.888819 
L 200.91405 229.456479 
L 208.05645 229.456479 
L 215.19885 229.456479 
L 216.363848 230.541619 
L 222.34125 236.109279 
L 223.506248 237.194419 
L 229.48365 242.762079 
L 236.62605 242.762079 
L 243.76845 242.762079 
L 244.933448 243.847219 
L 250.91085 249.414879 
L 252.075848 250.500019 
z
" clip-path="url(#pacf46d29e0)" style="fill: #fca486"/>
    <path d="M 265.19565 249.175538 
L 272.33805 249.175538 
L 278.058496 249.175538 
L 272.33805 243.847219 
L 265.19565 237.194419 
L 258.05325 230.541619 
L 258.05325 230.386921 
L 250.91085 230.386921 
L 243.76845 230.386921 
L 236.792133 223.888819 
L 236.62605 223.734121 
L 229.649733 217.236019 
L 229.48365 217.081321 
L 222.507333 210.583219 
L 222.34125 210.428521 
L 215.364933 203.930419 
L 215.19885 203.775721 
L 208.05645 203.775721 
L 200.91405 203.775721 
L 193.937733 197.277619 
L 193.77165 197.122921 
L 186.795333 190.624819 
L 186.62925 190.470121 
L 179.48685 190.470121 
L 172.34445 190.470121 
L 165.368133 183.972019 
L 165.20205 183.817321 
L 158.225733 177.319219 
L 158.05965 177.164521 
L 151.083333 170.666419 
L 150.91725 170.511721 
L 143.940933 164.013619 
L 143.77485 163.858921 
L 136.63245 163.858921 
L 129.49005 163.858921 
L 122.513733 157.360819 
L 122.34765 157.206121 
L 115.371333 150.708019 
L 115.20525 150.553321 
L 108.06285 150.553321 
L 100.92045 150.553321 
L 93.944133 144.055219 
L 93.944133 137.402419 
L 93.77805 137.247721 
L 86.63565 137.247721 
L 79.49325 137.247721 
L 72.35085 137.247721 
L 65.374533 130.749619 
L 65.20845 130.594921 
L 58.232133 124.096819 
L 58.06605 123.942121 
L 51.089733 117.444019 
L 50.92365 117.289321 
L 43.947333 110.791219 
L 43.78125 110.636521 
L 43.78125 110.791219 
L 43.78125 116.119538 
L 45.203204 117.444019 
L 45.203204 124.096819 
L 50.92365 129.425138 
L 58.06605 129.425138 
L 59.488004 130.749619 
L 59.488004 137.402419 
L 65.20845 142.730738 
L 72.35085 142.730738 
L 79.49325 142.730738 
L 86.63565 142.730738 
L 88.057604 144.055219 
L 93.77805 149.383538 
L 95.200004 150.708019 
L 100.92045 156.036338 
L 108.06285 156.036338 
L 115.20525 156.036338 
L 116.627204 157.360819 
L 116.627204 164.013619 
L 122.34765 169.341938 
L 129.49005 169.341938 
L 136.63245 169.341938 
L 143.77485 169.341938 
L 145.196804 170.666419 
L 145.196804 177.319219 
L 150.91725 182.647538 
L 158.05965 182.647538 
L 159.481604 183.972019 
L 159.481604 190.624819 
L 165.20205 195.953138 
L 172.34445 195.953138 
L 179.48685 195.953138 
L 186.62925 195.953138 
L 188.051204 197.277619 
L 188.051204 203.930419 
L 193.77165 209.258738 
L 200.91405 209.258738 
L 208.05645 209.258738 
L 215.19885 209.258738 
L 216.620804 210.583219 
L 216.620804 217.236019 
L 222.34125 222.564338 
L 229.48365 222.564338 
L 230.905604 223.888819 
L 236.62605 229.217138 
L 238.048004 230.541619 
L 243.76845 235.869938 
L 250.91085 235.869938 
L 258.05325 235.869938 
L 259.475204 237.194419 
L 259.475204 243.847219 
z
" clip-path="url(#pacf46d29e0)" style="fill: #fc8d6d"/>
    <path d="M 243.76845 230.386921 
L 250.91085 230.386921 
L 258.05325 230.386921 
L 258.05325 224.903904 
L 250.91085 224.903904 
L 243.76845 224.903904 
L 242.678661 223.888819 
L 236.62605 218.251104 
L 235.536261 217.236019 
L 229.48365 211.598304 
L 228.393861 210.583219 
L 222.34125 204.945504 
L 221.251461 203.930419 
L 215.19885 198.292704 
L 208.05645 198.292704 
L 200.91405 198.292704 
L 199.824261 197.277619 
L 193.77165 191.639904 
L 192.681861 190.624819 
L 186.62925 184.987104 
L 179.48685 184.987104 
L 172.34445 184.987104 
L 171.254661 183.972019 
L 165.20205 178.334304 
L 164.112261 177.319219 
L 158.05965 171.681504 
L 156.969861 170.666419 
L 150.91725 165.028704 
L 149.827461 164.013619 
L 143.77485 158.375904 
L 136.63245 158.375904 
L 129.49005 158.375904 
L 128.400261 157.360819 
L 122.34765 151.723104 
L 121.257861 150.708019 
L 115.20525 145.070304 
L 108.06285 145.070304 
L 100.92045 145.070304 
L 99.830661 144.055219 
L 99.830661 137.402419 
L 93.77805 131.764704 
L 86.63565 131.764704 
L 79.49325 131.764704 
L 72.35085 131.764704 
L 71.261061 130.749619 
L 65.20845 125.111904 
L 64.118661 124.096819 
L 58.06605 118.459104 
L 56.976261 117.444019 
L 50.92365 111.806304 
L 49.833861 110.791219 
L 43.78125 105.153504 
L 43.78125 110.636521 
L 43.947333 110.791219 
L 50.92365 117.289321 
L 51.089733 117.444019 
L 58.06605 123.942121 
L 58.232133 124.096819 
L 65.20845 130.594921 
L 65.374533 130.749619 
L 72.35085 137.247721 
L 79.49325 137.247721 
L 86.63565 137.247721 
L 93.77805 137.247721 
L 93.944133 137.402419 
L 93.944133 144.055219 
L 100.92045 150.553321 
L 108.06285 150.553321 
L 115.20525 150.553321 
L 115.371333 150.708019 
L 122.34765 157.206121 
L 122.513733 157.360819 
L 129.49005 163.858921 
L 136.63245 163.858921 
L 143.77485 163.858921 
L 143.940933 164.013619 
L 150.91725 170.511721 
L 151.083333 170.666419 
L 158.05965 177.164521 
L 158.225733 177.319219 
L 165.20205 183.817321 
L 165.368133 183.972019 
L 172.34445 190.470121 
L 179.48685 190.470121 
L 186.62925 190.470121 
L 186.795333 190.624819 
L 193.77165 197.122921 
L 193.937733 197.277619 
L 200.91405 203.775721 
L 208.05645 203.775721 
L 215.19885 203.775721 
L 215.364933 203.930419 
L 222.34125 210.428521 
L 222.507333 210.583219 
L 229.48365 217.081321 
L 229.649733 217.236019 
L 236.62605 223.734121 
L 236.792133 223.888819 
z
" clip-path="url(#pacf46d29e0)" style="fill: #fb7656"/>
    <path d="M 243.76845 224.903904 
L 250.91085 224.903904 
L 258.05325 224.903904 
L 258.05325 223.888819 
L 250.91085 223.888819 
L 243.76845 217.236019 
L 236.62605 210.583219 
L 232.783113 207.003708 
L 229.48365 207.003708 
L 226.184187 203.930419 
L 222.34125 200.350908 
L 219.041787 197.277619 
L 215.19885 193.698108 
L 208.05645 193.698108 
L 204.756987 190.624819 
L 204.756987 183.972019 
L 200.91405 180.392508 
L 193.77165 180.392508 
L 186.62925 180.392508 
L 179.48685 180.392508 
L 176.187387 177.319219 
L 176.187387 170.666419 
L 172.34445 167.086908 
L 165.20205 167.086908 
L 158.05965 167.086908 
L 154.760187 164.013619 
L 150.91725 160.434108 
L 147.617787 157.360819 
L 143.77485 153.781308 
L 136.63245 153.781308 
L 133.332987 150.708019 
L 133.332987 144.055219 
L 129.49005 142.408041 
L 122.34765 140.475708 
L 115.20525 140.475708 
L 108.06285 140.475708 
L 104.763387 137.402419 
L 104.763387 130.749619 
L 100.92045 127.170108 
L 93.77805 127.170108 
L 86.63565 127.170108 
L 79.49325 127.170108 
L 76.193787 124.096819 
L 76.193787 117.444019 
L 72.35085 113.864508 
L 65.20845 113.864508 
L 58.06605 113.864508 
L 54.766587 110.791219 
L 50.92365 107.211708 
L 47.624187 104.138419 
L 43.78125 100.558908 
L 43.78125 104.138419 
L 43.78125 105.153504 
L 49.833861 110.791219 
L 50.92365 111.806304 
L 56.976261 117.444019 
L 58.06605 118.459104 
L 64.118661 124.096819 
L 65.20845 125.111904 
L 71.261061 130.749619 
L 72.35085 131.764704 
L 79.49325 131.764704 
L 86.63565 131.764704 
L 93.77805 131.764704 
L 99.830661 137.402419 
L 99.830661 144.055219 
L 100.92045 145.070304 
L 108.06285 145.070304 
L 115.20525 145.070304 
L 121.257861 150.708019 
L 122.34765 151.723104 
L 128.400261 157.360819 
L 129.49005 158.375904 
L 136.63245 158.375904 
L 143.77485 158.375904 
L 149.827461 164.013619 
L 150.91725 165.028704 
L 156.969861 170.666419 
L 158.05965 171.681504 
L 164.112261 177.319219 
L 165.20205 178.334304 
L 171.254661 183.972019 
L 172.34445 184.987104 
L 179.48685 184.987104 
L 186.62925 184.987104 
L 192.681861 190.624819 
L 193.77165 191.639904 
L 199.824261 197.277619 
L 200.91405 198.292704 
L 208.05645 198.292704 
L 215.19885 198.292704 
L 221.251461 203.930419 
L 222.34125 204.945504 
L 228.393861 210.583219 
L 229.48365 211.598304 
L 235.536261 217.236019 
L 236.62605 218.251104 
L 242.678661 223.888819 
z
" clip-path="url(#pacf46d29e0)" style="fill: #f75c41"/>
    <path d="M 229.48365 207.003708 
L 232.783113 207.003708 
L 229.48365 203.930419 
L 222.34125 197.277619 
L 215.19885 190.624819 
L 208.05645 183.972019 
L 200.91405 177.319219 
L 200.91405 175.999756 
L 193.77165 175.999756 
L 186.62925 175.999756 
L 180.903416 170.666419 
L 179.48685 169.346956 
L 173.761016 164.013619 
L 172.34445 162.694156 
L 165.20205 162.694156 
L 158.05965 162.694156 
L 152.333816 157.360819 
L 150.91725 156.041356 
L 145.191416 150.708019 
L 143.77485 149.388556 
L 138.049016 144.055219 
L 136.63245 143.448044 
L 129.49005 140.386636 
L 123.555172 137.402419 
L 122.34765 136.795244 
L 115.20525 136.082956 
L 109.479416 130.749619 
L 108.06285 129.430156 
L 102.337016 124.096819 
L 100.92045 122.777356 
L 93.77805 122.777356 
L 86.63565 122.777356 
L 80.909816 117.444019 
L 79.49325 116.124556 
L 73.767416 110.791219 
L 72.35085 109.471756 
L 65.20845 109.471756 
L 58.06605 109.471756 
L 52.340216 104.138419 
L 50.92365 102.818956 
L 45.197816 97.485619 
L 43.78125 96.166156 
L 43.78125 97.485619 
L 43.78125 100.558908 
L 47.624187 104.138419 
L 50.92365 107.211708 
L 54.766587 110.791219 
L 58.06605 113.864508 
L 65.20845 113.864508 
L 72.35085 113.864508 
L 76.193787 117.444019 
L 76.193787 124.096819 
L 79.49325 127.170108 
L 86.63565 127.170108 
L 93.77805 127.170108 
L 100.92045 127.170108 
L 104.763387 130.749619 
L 104.763387 137.402419 
L 108.06285 140.475708 
L 115.20525 140.475708 
L 122.34765 140.475708 
L 129.49005 142.408041 
L 133.332987 144.055219 
L 133.332987 150.708019 
L 136.63245 153.781308 
L 143.77485 153.781308 
L 147.617787 157.360819 
L 150.91725 160.434108 
L 154.760187 164.013619 
L 158.05965 167.086908 
L 165.20205 167.086908 
L 172.34445 167.086908 
L 176.187387 170.666419 
L 176.187387 177.319219 
L 179.48685 180.392508 
L 186.62925 180.392508 
L 193.77165 180.392508 
L 200.91405 180.392508 
L 204.756987 183.972019 
L 204.756987 190.624819 
L 208.05645 193.698108 
L 215.19885 193.698108 
L 219.041787 197.277619 
L 222.34125 200.350908 
L 226.184187 203.930419 
z
" clip-path="url(#pacf46d29e0)" style="fill: #f14130"/>
    <path d="M 186.62925 175.999756 
L 193.77165 175.999756 
L 200.91405 175.999756 
L 200.91405 171.607005 
L 193.77165 171.607005 
L 186.62925 171.607005 
L 185.619444 170.666419 
L 179.48685 164.954205 
L 178.477044 164.013619 
L 172.34445 158.301405 
L 165.20205 158.301405 
L 158.05965 158.301405 
L 157.049844 157.360819 
L 150.91725 151.648605 
L 149.907444 150.708019 
L 143.77485 144.995805 
L 142.765044 144.055219 
L 136.63245 141.426639 
L 129.49005 138.365231 
L 127.575253 137.402419 
L 122.34765 134.773839 
L 115.20525 131.690205 
L 114.195444 130.749619 
L 108.06285 125.037405 
L 107.053044 124.096819 
L 100.92045 118.384605 
L 93.77805 118.384605 
L 86.63565 118.384605 
L 85.625844 117.444019 
L 79.49325 111.731805 
L 78.483444 110.791219 
L 72.35085 105.079005 
L 65.20845 105.079005 
L 58.06605 105.079005 
L 57.056244 104.138419 
L 50.92365 98.426205 
L 49.913844 97.485619 
L 43.78125 91.773405 
L 43.78125 96.166156 
L 45.197816 97.485619 
L 50.92365 102.818956 
L 52.340216 104.138419 
L 58.06605 109.471756 
L 65.20845 109.471756 
L 72.35085 109.471756 
L 73.767416 110.791219 
L 79.49325 116.124556 
L 80.909816 117.444019 
L 86.63565 122.777356 
L 93.77805 122.777356 
L 100.92045 122.777356 
L 102.337016 124.096819 
L 108.06285 129.430156 
L 109.479416 130.749619 
L 115.20525 136.082956 
L 122.34765 136.795244 
L 123.555172 137.402419 
L 129.49005 140.386636 
L 136.63245 143.448044 
L 138.049016 144.055219 
L 143.77485 149.388556 
L 145.191416 150.708019 
L 150.91725 156.041356 
L 152.333816 157.360819 
L 158.05965 162.694156 
L 165.20205 162.694156 
L 172.34445 162.694156 
L 173.761016 164.013619 
L 179.48685 169.346956 
L 180.903416 170.666419 
z
" clip-path="url(#pacf46d29e0)" style="fill: #e02c26"/>
    <path d="M 186.62925 171.607005 
L 193.77165 171.607005 
L 200.91405 171.607005 
L 200.91405 170.666419 
L 193.77165 170.666419 
L 190.612358 167.723691 
L 186.62925 167.723691 
L 182.646142 164.013619 
L 179.48685 161.070891 
L 175.503742 157.360819 
L 172.34445 154.418091 
L 165.20205 154.418091 
L 158.05965 154.418091 
L 154.076542 150.708019 
L 150.91725 147.765291 
L 146.934142 144.055219 
L 143.77485 141.112491 
L 136.63245 139.405233 
L 131.959796 137.402419 
L 129.49005 136.343825 
L 122.34765 132.752433 
L 118.364542 130.749619 
L 115.20525 127.806891 
L 111.222142 124.096819 
L 108.06285 121.154091 
L 104.079742 117.444019 
L 100.92045 114.501291 
L 93.77805 114.501291 
L 86.63565 114.501291 
L 82.652542 110.791219 
L 79.49325 107.848491 
L 75.510142 104.138419 
L 72.35085 101.195691 
L 65.20845 101.195691 
L 58.06605 101.195691 
L 54.082942 97.485619 
L 50.92365 94.542891 
L 46.940542 90.832819 
L 43.78125 87.890091 
L 43.78125 90.832819 
L 43.78125 91.773405 
L 49.913844 97.485619 
L 50.92365 98.426205 
L 57.056244 104.138419 
L 58.06605 105.079005 
L 65.20845 105.079005 
L 72.35085 105.079005 
L 78.483444 110.791219 
L 79.49325 111.731805 
L 85.625844 117.444019 
L 86.63565 118.384605 
L 93.77805 118.384605 
L 100.92045 118.384605 
L 107.053044 124.096819 
L 108.06285 125.037405 
L 114.195444 130.749619 
L 115.20525 131.690205 
L 122.34765 134.773839 
L 127.575253 137.402419 
L 129.49005 138.365231 
L 136.63245 141.426639 
L 142.765044 144.055219 
L 143.77485 144.995805 
L 149.907444 150.708019 
L 150.91725 151.648605 
L 157.049844 157.360819 
L 158.05965 158.301405 
L 165.20205 158.301405 
L 172.34445 158.301405 
L 178.477044 164.013619 
L 179.48685 164.954205 
L 185.619444 170.666419 
z
" clip-path="url(#pacf46d29e0)" style="fill: #ca181d"/>
    <path d="M 186.62925 167.723691 
L 190.612358 167.723691 
L 186.62925 164.013619 
L 186.62925 163.97918 
L 179.523823 157.360819 
L 179.48685 157.360819 
L 172.34445 150.708019 
L 172.34445 150.67358 
L 165.20205 150.67358 
L 158.05965 150.67358 
L 150.954223 144.055219 
L 150.954223 137.402419 
L 150.91725 137.36798 
L 143.77485 137.36798 
L 136.63245 137.36798 
L 129.49005 134.32242 
L 122.384623 130.749619 
L 122.384623 124.096819 
L 122.34765 124.06238 
L 115.20525 124.06238 
L 108.099823 117.444019 
L 108.06285 117.40958 
L 100.957423 110.791219 
L 100.92045 110.75678 
L 93.77805 110.75678 
L 86.63565 110.75678 
L 79.530223 104.138419 
L 79.530223 97.485619 
L 79.49325 97.45118 
L 72.35085 97.45118 
L 65.20845 97.45118 
L 58.06605 97.45118 
L 50.960623 90.832819 
L 50.92365 90.79838 
L 43.818223 84.180019 
L 43.78125 84.14558 
L 43.78125 84.180019 
L 43.78125 87.890091 
L 46.940542 90.832819 
L 50.92365 94.542891 
L 54.082942 97.485619 
L 58.06605 101.195691 
L 65.20845 101.195691 
L 72.35085 101.195691 
L 75.510142 104.138419 
L 79.49325 107.848491 
L 82.652542 110.791219 
L 86.63565 114.501291 
L 93.77805 114.501291 
L 100.92045 114.501291 
L 104.079742 117.444019 
L 108.06285 121.154091 
L 111.222142 124.096819 
L 115.20525 127.806891 
L 118.364542 130.749619 
L 122.34765 132.752433 
L 129.49005 136.343825 
L 131.959796 137.402419 
L 136.63245 139.405233 
L 143.77485 141.112491 
L 146.934142 144.055219 
L 150.91725 147.765291 
L 154.076542 150.708019 
L 158.05965 154.418091 
L 165.20205 154.418091 
L 172.34445 154.418091 
L 175.503742 157.360819 
L 179.48685 161.070891 
L 182.646142 164.013619 
z
" clip-path="url(#pacf46d29e0)" style="fill: #b51318"/>
    <path d="M 186.62925 163.97918 
L 186.62925 160.234669 
L 183.543904 157.360819 
L 179.523823 157.360819 
z
M 158.05965 150.67358 
L 165.20205 150.67358 
L 172.34445 150.67358 
L 172.34445 146.929069 
L 165.20205 146.929069 
L 158.05965 146.929069 
L 154.974304 144.055219 
L 154.974304 137.402419 
L 150.91725 133.623469 
L 143.77485 133.623469 
L 136.63245 133.623469 
L 129.49005 132.301014 
L 126.404704 130.749619 
L 126.404704 124.096819 
L 122.34765 120.317869 
L 115.20525 120.317869 
L 112.119904 117.444019 
L 108.06285 113.665069 
L 104.977504 110.791219 
L 100.92045 107.012269 
L 93.77805 107.012269 
L 86.63565 107.012269 
L 83.550304 104.138419 
L 83.550304 97.485619 
L 79.49325 93.706669 
L 72.35085 93.706669 
L 65.20845 93.706669 
L 58.06605 93.706669 
L 54.980704 90.832819 
L 50.92365 87.053869 
L 47.838304 84.180019 
L 43.78125 80.401069 
L 43.78125 84.14558 
L 43.818223 84.180019 
L 50.92365 90.79838 
L 50.960623 90.832819 
L 58.06605 97.45118 
L 65.20845 97.45118 
L 72.35085 97.45118 
L 79.49325 97.45118 
L 79.530223 97.485619 
L 79.530223 104.138419 
L 86.63565 110.75678 
L 93.77805 110.75678 
L 100.92045 110.75678 
L 100.957423 110.791219 
L 108.06285 117.40958 
L 108.099823 117.444019 
L 115.20525 124.06238 
L 122.34765 124.06238 
L 122.384623 124.096819 
L 122.384623 130.749619 
L 129.49005 134.32242 
L 136.63245 137.36798 
L 143.77485 137.36798 
L 150.91725 137.36798 
L 150.954223 137.402419 
L 150.954223 144.055219 
z
" clip-path="url(#pacf46d29e0)" style="fill: #9c0d14"/>
    <path d="M 186.62925 160.234669 
L 186.62925 157.360819 
L 183.543904 157.360819 
z
M 158.05965 146.929069 
L 165.20205 146.929069 
L 172.34445 146.929069 
L 172.34445 144.055219 
L 165.20205 144.055219 
L 158.05965 137.402419 
L 158.05965 130.749619 
L 150.91725 130.749619 
L 143.77485 124.096819 
L 136.63245 117.444019 
L 129.49005 110.791219 
L 122.34765 104.138419 
L 115.20525 97.485619 
L 108.06285 90.832819 
L 100.92045 84.180019 
L 100.92045 77.527219 
L 93.77805 77.527219 
L 86.63565 70.874419 
L 79.49325 64.221619 
L 72.35085 57.568819 
L 65.20845 50.916019 
L 58.06605 44.263219 
L 58.06605 37.610419 
L 50.92365 37.610419 
L 43.78125 30.957619 
L 43.78125 37.610419 
L 43.78125 44.263219 
L 43.78125 50.916019 
L 43.78125 57.568819 
L 43.78125 64.221619 
L 43.78125 70.874419 
L 43.78125 77.527219 
L 43.78125 80.401069 
L 47.838304 84.180019 
L 50.92365 87.053869 
L 54.980704 90.832819 
L 58.06605 93.706669 
L 65.20845 93.706669 
L 72.35085 93.706669 
L 79.49325 93.706669 
L 83.550304 97.485619 
L 83.550304 104.138419 
L 86.63565 107.012269 
L 93.77805 107.012269 
L 100.92045 107.012269 
L 104.977504 110.791219 
L 108.06285 113.665069 
L 112.119904 117.444019 
L 115.20525 120.317869 
L 122.34765 120.317869 
L 126.404704 124.096819 
L 126.404704 130.749619 
L 129.49005 132.301014 
L 136.63245 133.623469 
L 143.77485 133.623469 
L 150.91725 133.623469 
L 154.974304 137.402419 
L 154.974304 144.055219 
z
" clip-path="url(#pacf46d29e0)" style="fill: #79040f"/>
   </g>
   <g id="matplotlib.axis_1">
    <g id="xtick_1">
     <g id="line2d_1">
      <defs>
       <path id="m476e95c24d" d="M 0 0 
L 0 3.5 
" style="stroke: #000000; stroke-width: 0.8"/>
      </defs>
      <g>
       <use xlink:href="#m476e95c24d" x="43.78125" y="277.111219" style="stroke: #000000; stroke-width: 0.8"/>
      </g>
     </g>
     <g id="text_1">
      <!-- 0.0 -->
      <g transform="translate(35.829688 291.709656) scale(0.1 -0.1)">
       <defs>
        <path id="DejaVuSans-30" d="M 2034 4250 
Q 1547 4250 1301 3770 
Q 1056 3291 1056 2328 
Q 1056 1369 1301 889 
Q 1547 409 2034 409 
Q 2525 409 2770 889 
Q 3016 1369 3016 2328 
Q 3016 3291 2770 3770 
Q 2525 4250 2034 4250 
z
M 2034 4750 
Q 2819 4750 3233 4129 
Q 3647 3509 3647 2328 
Q 3647 1150 3233 529 
Q 2819 -91 2034 -91 
Q 1250 -91 836 529 
Q 422 1150 422 2328 
Q 422 3509 836 4129 
Q 1250 4750 2034 4750 
z
" transform="scale(0.015625)"/>
        <path id="DejaVuSans-2e" d="M 684 794 
L 1344 794 
L 1344 0 
L 684 0 
L 684 794 
z
" transform="scale(0.015625)"/>
       </defs>
       <use xlink:href="#DejaVuSans-30"/>
       <use xlink:href="#DejaVuSans-2e" x="63.623047"/>
       <use xlink:href="#DejaVuSans-30" x="95.410156"/>
      </g>
     </g>
    </g>
    <g id="xtick_2">
     <g id="line2d_2">
      <g>
       <use xlink:href="#m476e95c24d" x="100.92045" y="277.111219" style="stroke: #000000; stroke-width: 0.8"/>
      </g>
     </g>
     <g id="text_2">
      <!-- 0.2 -->
      <g transform="translate(92.968888 291.709656) scale(0.1 -0.1)">
       <defs>
        <path id="DejaVuSans-32" d="M 1228 531 
L 3431 531 
L 3431 0 
L 469 0 
L 469 531 
Q 828 903 1448 1529 
Q 2069 2156 2228 2338 
Q 2531 2678 2651 2914 
Q 2772 3150 2772 3378 
Q 2772 3750 2511 3984 
Q 2250 4219 1831 4219 
Q 1534 4219 1204 4116 
Q 875 4013 500 3803 
L 500 4441 
Q 881 4594 1212 4672 
Q 1544 4750 1819 4750 
Q 2544 4750 2975 4387 
Q 3406 4025 3406 3419 
Q 3406 3131 3298 2873 
Q 3191 2616 2906 2266 
Q 2828 2175 2409 1742 
Q 1991 1309 1228 531 
z
" transform="scale(0.015625)"/>
       </defs>
       <use xlink:href="#DejaVuSans-30"/>
       <use xlink:href="#DejaVuSans-2e" x="63.623047"/>
       <use xlink:href="#DejaVuSans-32" x="95.410156"/>
      </g>
     </g>
    </g>
    <g id="xtick_3">
     <g id="line2d_3">
      <g>
       <use xlink:href="#m476e95c24d" x="158.05965" y="277.111219" style="stroke: #000000; stroke-width: 0.8"/>
      </g>
     </g>
     <g id="text_3">
      <!-- 0.4 -->
      <g transform="translate(150.108088 291.709656) scale(0.1 -0.1)">
       <defs>
        <path id="DejaVuSans-34" d="M 2419 4116 
L 825 1625 
L 2419 1625 
L 2419 4116 
z
M 2253 4666 
L 3047 4666 
L 3047 1625 
L 3713 1625 
L 3713 1100 
L 3047 1100 
L 3047 0 
L 2419 0 
L 2419 1100 
L 313 1100 
L 313 1709 
L 2253 4666 
z
" transform="scale(0.015625)"/>
       </defs>
       <use xlink:href="#DejaVuSans-30"/>
       <use xlink:href="#DejaVuSans-2e" x="63.623047"/>
       <use xlink:href="#DejaVuSans-34" x="95.410156"/>
      </g>
     </g>
    </g>
    <g id="xtick_4">
     <g id="line2d_4">
      <g>
       <use xlink:href="#m476e95c24d" x="215.19885" y="277.111219" style="stroke: #000000; stroke-width: 0.8"/>
      </g>
     </g>
     <g id="text_4">
      <!-- 0.6 -->
      <g transform="translate(207.247288 291.709656) scale(0.1 -0.1)">
       <defs>
        <path id="DejaVuSans-36" d="M 2113 2584 
Q 1688 2584 1439 2293 
Q 1191 2003 1191 1497 
Q 1191 994 1439 701 
Q 1688 409 2113 409 
Q 2538 409 2786 701 
Q 3034 994 3034 1497 
Q 3034 2003 2786 2293 
Q 2538 2584 2113 2584 
z
M 3366 4563 
L 3366 3988 
Q 3128 4100 2886 4159 
Q 2644 4219 2406 4219 
Q 1781 4219 1451 3797 
Q 1122 3375 1075 2522 
Q 1259 2794 1537 2939 
Q 1816 3084 2150 3084 
Q 2853 3084 3261 2657 
Q 3669 2231 3669 1497 
Q 3669 778 3244 343 
Q 2819 -91 2113 -91 
Q 1303 -91 875 529 
Q 447 1150 447 2328 
Q 447 3434 972 4092 
Q 1497 4750 2381 4750 
Q 2619 4750 2861 4703 
Q 3103 4656 3366 4563 
z
" transform="scale(0.015625)"/>
       </defs>
       <use xlink:href="#DejaVuSans-30"/>
       <use xlink:href="#DejaVuSans-2e" x="63.623047"/>
       <use xlink:href="#DejaVuSans-36" x="95.410156"/>
      </g>
     </g>
    </g>
    <g id="xtick_5">
     <g id="line2d_5">
      <g>
       <use xlink:href="#m476e95c24d" x="272.33805" y="277.111219" style="stroke: #000000; stroke-width: 0.8"/>
      </g>
     </g>
     <g id="text_5">
      <!-- 0.8 -->
      <g transform="translate(264.386488 291.709656) scale(0.1 -0.1)">
       <defs>
        <path id="DejaVuSans-38" d="M 2034 2216 
Q 1584 2216 1326 1975 
Q 1069 1734 1069 1313 
Q 1069 891 1326 650 
Q 1584 409 2034 409 
Q 2484 409 2743 651 
Q 3003 894 3003 1313 
Q 3003 1734 2745 1975 
Q 2488 2216 2034 2216 
z
M 1403 2484 
Q 997 2584 770 2862 
Q 544 3141 544 3541 
Q 544 4100 942 4425 
Q 1341 4750 2034 4750 
Q 2731 4750 3128 4425 
Q 3525 4100 3525 3541 
Q 3525 3141 3298 2862 
Q 3072 2584 2669 2484 
Q 3125 2378 3379 2068 
Q 3634 1759 3634 1313 
Q 3634 634 3220 271 
Q 2806 -91 2034 -91 
Q 1263 -91 848 271 
Q 434 634 434 1313 
Q 434 1759 690 2068 
Q 947 2378 1403 2484 
z
M 1172 3481 
Q 1172 3119 1398 2916 
Q 1625 2713 2034 2713 
Q 2441 2713 2670 2916 
Q 2900 3119 2900 3481 
Q 2900 3844 2670 4047 
Q 2441 4250 2034 4250 
Q 1625 4250 1398 4047 
Q 1172 3844 1172 3481 
z
" transform="scale(0.015625)"/>
       </defs>
       <use xlink:href="#DejaVuSans-30"/>
       <use xlink:href="#DejaVuSans-2e" x="63.623047"/>
       <use xlink:href="#DejaVuSans-38" x="95.410156"/>
      </g>
     </g>
    </g>
    <g id="xtick_6">
     <g id="line2d_6">
      <g>
       <use xlink:href="#m476e95c24d" x="329.47725" y="277.111219" style="stroke: #000000; stroke-width: 0.8"/>
      </g>
     </g>
     <g id="text_6">
      <!-- 1.0 -->
      <g transform="translate(321.525688 291.709656) scale(0.1 -0.1)">
       <defs>
        <path id="DejaVuSans-31" d="M 794 531 
L 1825 531 
L 1825 4091 
L 703 3866 
L 703 4441 
L 1819 4666 
L 2450 4666 
L 2450 531 
L 3481 531 
L 3481 0 
L 794 0 
L 794 531 
z
" transform="scale(0.015625)"/>
       </defs>
       <use xlink:href="#DejaVuSans-31"/>
       <use xlink:href="#DejaVuSans-2e" x="63.623047"/>
       <use xlink:href="#DejaVuSans-30" x="95.410156"/>
      </g>
     </g>
    </g>
    <g id="text_7">
     <!-- Equity in Vaccination Burden Multiplier (a) -->
     <g transform="translate(81.262844 305.387781) scale(0.1 -0.1)">
      <defs>
       <path id="DejaVuSans-45" d="M 628 4666 
L 3578 4666 
L 3578 4134 
L 1259 4134 
L 1259 2753 
L 3481 2753 
L 3481 2222 
L 1259 2222 
L 1259 531 
L 3634 531 
L 3634 0 
L 628 0 
L 628 4666 
z
" transform="scale(0.015625)"/>
       <path id="DejaVuSans-71" d="M 947 1747 
Q 947 1113 1208 752 
Q 1469 391 1925 391 
Q 2381 391 2643 752 
Q 2906 1113 2906 1747 
Q 2906 2381 2643 2742 
Q 2381 3103 1925 3103 
Q 1469 3103 1208 2742 
Q 947 2381 947 1747 
z
M 2906 525 
Q 2725 213 2448 61 
Q 2172 -91 1784 -91 
Q 1150 -91 751 415 
Q 353 922 353 1747 
Q 353 2572 751 3078 
Q 1150 3584 1784 3584 
Q 2172 3584 2448 3432 
Q 2725 3281 2906 2969 
L 2906 3500 
L 3481 3500 
L 3481 -1331 
L 2906 -1331 
L 2906 525 
z
" transform="scale(0.015625)"/>
       <path id="DejaVuSans-75" d="M 544 1381 
L 544 3500 
L 1119 3500 
L 1119 1403 
Q 1119 906 1312 657 
Q 1506 409 1894 409 
Q 2359 409 2629 706 
Q 2900 1003 2900 1516 
L 2900 3500 
L 3475 3500 
L 3475 0 
L 2900 0 
L 2900 538 
Q 2691 219 2414 64 
Q 2138 -91 1772 -91 
Q 1169 -91 856 284 
Q 544 659 544 1381 
z
M 1991 3584 
L 1991 3584 
z
" transform="scale(0.015625)"/>
       <path id="DejaVuSans-69" d="M 603 3500 
L 1178 3500 
L 1178 0 
L 603 0 
L 603 3500 
z
M 603 4863 
L 1178 4863 
L 1178 4134 
L 603 4134 
L 603 4863 
z
" transform="scale(0.015625)"/>
       <path id="DejaVuSans-74" d="M 1172 4494 
L 1172 3500 
L 2356 3500 
L 2356 3053 
L 1172 3053 
L 1172 1153 
Q 1172 725 1289 603 
Q 1406 481 1766 481 
L 2356 481 
L 2356 0 
L 1766 0 
Q 1100 0 847 248 
Q 594 497 594 1153 
L 594 3053 
L 172 3053 
L 172 3500 
L 594 3500 
L 594 4494 
L 1172 4494 
z
" transform="scale(0.015625)"/>
       <path id="DejaVuSans-79" d="M 2059 -325 
Q 1816 -950 1584 -1140 
Q 1353 -1331 966 -1331 
L 506 -1331 
L 506 -850 
L 844 -850 
Q 1081 -850 1212 -737 
Q 1344 -625 1503 -206 
L 1606 56 
L 191 3500 
L 800 3500 
L 1894 763 
L 2988 3500 
L 3597 3500 
L 2059 -325 
z
" transform="scale(0.015625)"/>
       <path id="DejaVuSans-20" transform="scale(0.015625)"/>
       <path id="DejaVuSans-6e" d="M 3513 2113 
L 3513 0 
L 2938 0 
L 2938 2094 
Q 2938 2591 2744 2837 
Q 2550 3084 2163 3084 
Q 1697 3084 1428 2787 
Q 1159 2491 1159 1978 
L 1159 0 
L 581 0 
L 581 3500 
L 1159 3500 
L 1159 2956 
Q 1366 3272 1645 3428 
Q 1925 3584 2291 3584 
Q 2894 3584 3203 3211 
Q 3513 2838 3513 2113 
z
" transform="scale(0.015625)"/>
       <path id="DejaVuSans-56" d="M 1831 0 
L 50 4666 
L 709 4666 
L 2188 738 
L 3669 4666 
L 4325 4666 
L 2547 0 
L 1831 0 
z
" transform="scale(0.015625)"/>
       <path id="DejaVuSans-61" d="M 2194 1759 
Q 1497 1759 1228 1600 
Q 959 1441 959 1056 
Q 959 750 1161 570 
Q 1363 391 1709 391 
Q 2188 391 2477 730 
Q 2766 1069 2766 1631 
L 2766 1759 
L 2194 1759 
z
M 3341 1997 
L 3341 0 
L 2766 0 
L 2766 531 
Q 2569 213 2275 61 
Q 1981 -91 1556 -91 
Q 1019 -91 701 211 
Q 384 513 384 1019 
Q 384 1609 779 1909 
Q 1175 2209 1959 2209 
L 2766 2209 
L 2766 2266 
Q 2766 2663 2505 2880 
Q 2244 3097 1772 3097 
Q 1472 3097 1187 3025 
Q 903 2953 641 2809 
L 641 3341 
Q 956 3463 1253 3523 
Q 1550 3584 1831 3584 
Q 2591 3584 2966 3190 
Q 3341 2797 3341 1997 
z
" transform="scale(0.015625)"/>
       <path id="DejaVuSans-63" d="M 3122 3366 
L 3122 2828 
Q 2878 2963 2633 3030 
Q 2388 3097 2138 3097 
Q 1578 3097 1268 2742 
Q 959 2388 959 1747 
Q 959 1106 1268 751 
Q 1578 397 2138 397 
Q 2388 397 2633 464 
Q 2878 531 3122 666 
L 3122 134 
Q 2881 22 2623 -34 
Q 2366 -91 2075 -91 
Q 1284 -91 818 406 
Q 353 903 353 1747 
Q 353 2603 823 3093 
Q 1294 3584 2113 3584 
Q 2378 3584 2631 3529 
Q 2884 3475 3122 3366 
z
" transform="scale(0.015625)"/>
       <path id="DejaVuSans-6f" d="M 1959 3097 
Q 1497 3097 1228 2736 
Q 959 2375 959 1747 
Q 959 1119 1226 758 
Q 1494 397 1959 397 
Q 2419 397 2687 759 
Q 2956 1122 2956 1747 
Q 2956 2369 2687 2733 
Q 2419 3097 1959 3097 
z
M 1959 3584 
Q 2709 3584 3137 3096 
Q 3566 2609 3566 1747 
Q 3566 888 3137 398 
Q 2709 -91 1959 -91 
Q 1206 -91 779 398 
Q 353 888 353 1747 
Q 353 2609 779 3096 
Q 1206 3584 1959 3584 
z
" transform="scale(0.015625)"/>
       <path id="DejaVuSans-42" d="M 1259 2228 
L 1259 519 
L 2272 519 
Q 2781 519 3026 730 
Q 3272 941 3272 1375 
Q 3272 1813 3026 2020 
Q 2781 2228 2272 2228 
L 1259 2228 
z
M 1259 4147 
L 1259 2741 
L 2194 2741 
Q 2656 2741 2882 2914 
Q 3109 3088 3109 3444 
Q 3109 3797 2882 3972 
Q 2656 4147 2194 4147 
L 1259 4147 
z
M 628 4666 
L 2241 4666 
Q 2963 4666 3353 4366 
Q 3744 4066 3744 3513 
Q 3744 3084 3544 2831 
Q 3344 2578 2956 2516 
Q 3422 2416 3680 2098 
Q 3938 1781 3938 1306 
Q 3938 681 3513 340 
Q 3088 0 2303 0 
L 628 0 
L 628 4666 
z
" transform="scale(0.015625)"/>
       <path id="DejaVuSans-72" d="M 2631 2963 
Q 2534 3019 2420 3045 
Q 2306 3072 2169 3072 
Q 1681 3072 1420 2755 
Q 1159 2438 1159 1844 
L 1159 0 
L 581 0 
L 581 3500 
L 1159 3500 
L 1159 2956 
Q 1341 3275 1631 3429 
Q 1922 3584 2338 3584 
Q 2397 3584 2469 3576 
Q 2541 3569 2628 3553 
L 2631 2963 
z
" transform="scale(0.015625)"/>
       <path id="DejaVuSans-64" d="M 2906 2969 
L 2906 4863 
L 3481 4863 
L 3481 0 
L 2906 0 
L 2906 525 
Q 2725 213 2448 61 
Q 2172 -91 1784 -91 
Q 1150 -91 751 415 
Q 353 922 353 1747 
Q 353 2572 751 3078 
Q 1150 3584 1784 3584 
Q 2172 3584 2448 3432 
Q 2725 3281 2906 2969 
z
M 947 1747 
Q 947 1113 1208 752 
Q 1469 391 1925 391 
Q 2381 391 2643 752 
Q 2906 1113 2906 1747 
Q 2906 2381 2643 2742 
Q 2381 3103 1925 3103 
Q 1469 3103 1208 2742 
Q 947 2381 947 1747 
z
" transform="scale(0.015625)"/>
       <path id="DejaVuSans-65" d="M 3597 1894 
L 3597 1613 
L 953 1613 
Q 991 1019 1311 708 
Q 1631 397 2203 397 
Q 2534 397 2845 478 
Q 3156 559 3463 722 
L 3463 178 
Q 3153 47 2828 -22 
Q 2503 -91 2169 -91 
Q 1331 -91 842 396 
Q 353 884 353 1716 
Q 353 2575 817 3079 
Q 1281 3584 2069 3584 
Q 2775 3584 3186 3129 
Q 3597 2675 3597 1894 
z
M 3022 2063 
Q 3016 2534 2758 2815 
Q 2500 3097 2075 3097 
Q 1594 3097 1305 2825 
Q 1016 2553 972 2059 
L 3022 2063 
z
" transform="scale(0.015625)"/>
       <path id="DejaVuSans-4d" d="M 628 4666 
L 1569 4666 
L 2759 1491 
L 3956 4666 
L 4897 4666 
L 4897 0 
L 4281 0 
L 4281 4097 
L 3078 897 
L 2444 897 
L 1241 4097 
L 1241 0 
L 628 0 
L 628 4666 
z
" transform="scale(0.015625)"/>
       <path id="DejaVuSans-6c" d="M 603 4863 
L 1178 4863 
L 1178 0 
L 603 0 
L 603 4863 
z
" transform="scale(0.015625)"/>
       <path id="DejaVuSans-70" d="M 1159 525 
L 1159 -1331 
L 581 -1331 
L 581 3500 
L 1159 3500 
L 1159 2969 
Q 1341 3281 1617 3432 
Q 1894 3584 2278 3584 
Q 2916 3584 3314 3078 
Q 3713 2572 3713 1747 
Q 3713 922 3314 415 
Q 2916 -91 2278 -91 
Q 1894 -91 1617 61 
Q 1341 213 1159 525 
z
M 3116 1747 
Q 3116 2381 2855 2742 
Q 2594 3103 2138 3103 
Q 1681 3103 1420 2742 
Q 1159 2381 1159 1747 
Q 1159 1113 1420 752 
Q 1681 391 2138 391 
Q 2594 391 2855 752 
Q 3116 1113 3116 1747 
z
" transform="scale(0.015625)"/>
       <path id="DejaVuSans-28" d="M 1984 4856 
Q 1566 4138 1362 3434 
Q 1159 2731 1159 2009 
Q 1159 1288 1364 580 
Q 1569 -128 1984 -844 
L 1484 -844 
Q 1016 -109 783 600 
Q 550 1309 550 2009 
Q 550 2706 781 3412 
Q 1013 4119 1484 4856 
L 1984 4856 
z
" transform="scale(0.015625)"/>
       <path id="DejaVuSans-29" d="M 513 4856 
L 1013 4856 
Q 1481 4119 1714 3412 
Q 1947 2706 1947 2009 
Q 1947 1309 1714 600 
Q 1481 -109 1013 -844 
L 513 -844 
Q 928 -128 1133 580 
Q 1338 1288 1338 2009 
Q 1338 2731 1133 3434 
Q 928 4138 513 4856 
z
" transform="scale(0.015625)"/>
      </defs>
      <use xlink:href="#DejaVuSans-45"/>
      <use xlink:href="#DejaVuSans-71" x="63.183594"/>
      <use xlink:href="#DejaVuSans-75" x="126.660156"/>
      <use xlink:href="#DejaVuSans-69" x="190.039062"/>
      <use xlink:href="#DejaVuSans-74" x="217.822266"/>
      <use xlink:href="#DejaVuSans-79" x="257.03125"/>
      <use xlink:href="#DejaVuSans-20" x="316.210938"/>
      <use xlink:href="#DejaVuSans-69" x="347.998047"/>
      <use xlink:href="#DejaVuSans-6e" x="375.78125"/>
      <use xlink:href="#DejaVuSans-20" x="439.160156"/>
      <use xlink:href="#DejaVuSans-56" x="470.947266"/>
      <use xlink:href="#DejaVuSans-61" x="531.605469"/>
      <use xlink:href="#DejaVuSans-63" x="592.884766"/>
      <use xlink:href="#DejaVuSans-63" x="647.865234"/>
      <use xlink:href="#DejaVuSans-69" x="702.845703"/>
      <use xlink:href="#DejaVuSans-6e" x="730.628906"/>
      <use xlink:href="#DejaVuSans-61" x="794.007812"/>
      <use xlink:href="#DejaVuSans-74" x="855.287109"/>
      <use xlink:href="#DejaVuSans-69" x="894.496094"/>
      <use xlink:href="#DejaVuSans-6f" x="922.279297"/>
      <use xlink:href="#DejaVuSans-6e" x="983.460938"/>
      <use xlink:href="#DejaVuSans-20" x="1046.839844"/>
      <use xlink:href="#DejaVuSans-42" x="1078.626953"/>
      <use xlink:href="#DejaVuSans-75" x="1147.230469"/>
      <use xlink:href="#DejaVuSans-72" x="1210.609375"/>
      <use xlink:href="#DejaVuSans-64" x="1249.972656"/>
      <use xlink:href="#DejaVuSans-65" x="1313.449219"/>
      <use xlink:href="#DejaVuSans-6e" x="1374.972656"/>
      <use xlink:href="#DejaVuSans-20" x="1438.351562"/>
      <use xlink:href="#DejaVuSans-4d" x="1470.138672"/>
      <use xlink:href="#DejaVuSans-75" x="1556.417969"/>
      <use xlink:href="#DejaVuSans-6c" x="1619.796875"/>
      <use xlink:href="#DejaVuSans-74" x="1647.580078"/>
      <use xlink:href="#DejaVuSans-69" x="1686.789062"/>
      <use xlink:href="#DejaVuSans-70" x="1714.572266"/>
      <use xlink:href="#DejaVuSans-6c" x="1778.048828"/>
      <use xlink:href="#DejaVuSans-69" x="1805.832031"/>
      <use xlink:href="#DejaVuSans-65" x="1833.615234"/>
      <use xlink:href="#DejaVuSans-72" x="1895.138672"/>
      <use xlink:href="#DejaVuSans-20" x="1936.251953"/>
      <use xlink:href="#DejaVuSans-28" x="1968.039062"/>
      <use xlink:href="#DejaVuSans-61" x="2007.052734"/>
      <use xlink:href="#DejaVuSans-29" x="2068.332031"/>
     </g>
    </g>
   </g>
   <g id="matplotlib.axis_2">
    <g id="ytick_1">
     <g id="line2d_7">
      <defs>
       <path id="m31726c6f97" d="M 0 0 
L -3.5 0 
" style="stroke: #000000; stroke-width: 0.8"/>
      </defs>
      <g>
       <use xlink:href="#m31726c6f97" x="43.78125" y="277.111219" style="stroke: #000000; stroke-width: 0.8"/>
      </g>
     </g>
     <g id="text_8">
      <!-- 0.0 -->
      <g transform="translate(20.878125 280.910437) scale(0.1 -0.1)">
       <use xlink:href="#DejaVuSans-30"/>
       <use xlink:href="#DejaVuSans-2e" x="63.623047"/>
       <use xlink:href="#DejaVuSans-30" x="95.410156"/>
      </g>
     </g>
    </g>
    <g id="ytick_2">
     <g id="line2d_8">
      <g>
       <use xlink:href="#m31726c6f97" x="43.78125" y="223.888819" style="stroke: #000000; stroke-width: 0.8"/>
      </g>
     </g>
     <g id="text_9">
      <!-- 0.2 -->
      <g transform="translate(20.878125 227.688037) scale(0.1 -0.1)">
       <use xlink:href="#DejaVuSans-30"/>
       <use xlink:href="#DejaVuSans-2e" x="63.623047"/>
       <use xlink:href="#DejaVuSans-32" x="95.410156"/>
      </g>
     </g>
    </g>
    <g id="ytick_3">
     <g id="line2d_9">
      <g>
       <use xlink:href="#m31726c6f97" x="43.78125" y="170.666419" style="stroke: #000000; stroke-width: 0.8"/>
      </g>
     </g>
     <g id="text_10">
      <!-- 0.4 -->
      <g transform="translate(20.878125 174.465637) scale(0.1 -0.1)">
       <use xlink:href="#DejaVuSans-30"/>
       <use xlink:href="#DejaVuSans-2e" x="63.623047"/>
       <use xlink:href="#DejaVuSans-34" x="95.410156"/>
      </g>
     </g>
    </g>
    <g id="ytick_4">
     <g id="line2d_10">
      <g>
       <use xlink:href="#m31726c6f97" x="43.78125" y="117.444019" style="stroke: #000000; stroke-width: 0.8"/>
      </g>
     </g>
     <g id="text_11">
      <!-- 0.6 -->
      <g transform="translate(20.878125 121.243237) scale(0.1 -0.1)">
       <use xlink:href="#DejaVuSans-30"/>
       <use xlink:href="#DejaVuSans-2e" x="63.623047"/>
       <use xlink:href="#DejaVuSans-36" x="95.410156"/>
      </g>
     </g>
    </g>
    <g id="ytick_5">
     <g id="line2d_11">
      <g>
       <use xlink:href="#m31726c6f97" x="43.78125" y="64.221619" style="stroke: #000000; stroke-width: 0.8"/>
      </g>
     </g>
     <g id="text_12">
      <!-- 0.8 -->
      <g transform="translate(20.878125 68.020837) scale(0.1 -0.1)">
       <use xlink:href="#DejaVuSans-30"/>
       <use xlink:href="#DejaVuSans-2e" x="63.623047"/>
       <use xlink:href="#DejaVuSans-38" x="95.410156"/>
      </g>
     </g>
    </g>
    <g id="ytick_6">
     <g id="line2d_12">
      <g>
       <use xlink:href="#m31726c6f97" x="43.78125" y="10.999219" style="stroke: #000000; stroke-width: 0.8"/>
      </g>
     </g>
     <g id="text_13">
      <!-- 1.0 -->
      <g transform="translate(20.878125 14.798437) scale(0.1 -0.1)">
       <use xlink:href="#DejaVuSans-31"/>
       <use xlink:href="#DejaVuSans-2e" x="63.623047"/>
       <use xlink:href="#DejaVuSans-30" x="95.410156"/>
      </g>
     </g>
    </g>
    <g id="text_14">
     <!-- Equity in Infection Burden Multiplier (b) -->
     <g transform="translate(14.798438 242.544281) rotate(-90) scale(0.1 -0.1)">
      <defs>
       <path id="DejaVuSans-49" d="M 628 4666 
L 1259 4666 
L 1259 0 
L 628 0 
L 628 4666 
z
" transform="scale(0.015625)"/>
       <path id="DejaVuSans-66" d="M 2375 4863 
L 2375 4384 
L 1825 4384 
Q 1516 4384 1395 4259 
Q 1275 4134 1275 3809 
L 1275 3500 
L 2222 3500 
L 2222 3053 
L 1275 3053 
L 1275 0 
L 697 0 
L 697 3053 
L 147 3053 
L 147 3500 
L 697 3500 
L 697 3744 
Q 697 4328 969 4595 
Q 1241 4863 1831 4863 
L 2375 4863 
z
" transform="scale(0.015625)"/>
       <path id="DejaVuSans-62" d="M 3116 1747 
Q 3116 2381 2855 2742 
Q 2594 3103 2138 3103 
Q 1681 3103 1420 2742 
Q 1159 2381 1159 1747 
Q 1159 1113 1420 752 
Q 1681 391 2138 391 
Q 2594 391 2855 752 
Q 3116 1113 3116 1747 
z
M 1159 2969 
Q 1341 3281 1617 3432 
Q 1894 3584 2278 3584 
Q 2916 3584 3314 3078 
Q 3713 2572 3713 1747 
Q 3713 922 3314 415 
Q 2916 -91 2278 -91 
Q 1894 -91 1617 61 
Q 1341 213 1159 525 
L 1159 0 
L 581 0 
L 581 4863 
L 1159 4863 
L 1159 2969 
z
" transform="scale(0.015625)"/>
      </defs>
      <use xlink:href="#DejaVuSans-45"/>
      <use xlink:href="#DejaVuSans-71" x="63.183594"/>
      <use xlink:href="#DejaVuSans-75" x="126.660156"/>
      <use xlink:href="#DejaVuSans-69" x="190.039062"/>
      <use xlink:href="#DejaVuSans-74" x="217.822266"/>
      <use xlink:href="#DejaVuSans-79" x="257.03125"/>
      <use xlink:href="#DejaVuSans-20" x="316.210938"/>
      <use xlink:href="#DejaVuSans-69" x="347.998047"/>
      <use xlink:href="#DejaVuSans-6e" x="375.78125"/>
      <use xlink:href="#DejaVuSans-20" x="439.160156"/>
      <use xlink:href="#DejaVuSans-49" x="470.947266"/>
      <use xlink:href="#DejaVuSans-6e" x="500.439453"/>
      <use xlink:href="#DejaVuSans-66" x="563.818359"/>
      <use xlink:href="#DejaVuSans-65" x="599.023438"/>
      <use xlink:href="#DejaVuSans-63" x="660.546875"/>
      <use xlink:href="#DejaVuSans-74" x="715.527344"/>
      <use xlink:href="#DejaVuSans-69" x="754.736328"/>
      <use xlink:href="#DejaVuSans-6f" x="782.519531"/>
      <use xlink:href="#DejaVuSans-6e" x="843.701172"/>
      <use xlink:href="#DejaVuSans-20" x="907.080078"/>
      <use xlink:href="#DejaVuSans-42" x="938.867188"/>
      <use xlink:href="#DejaVuSans-75" x="1007.470703"/>
      <use xlink:href="#DejaVuSans-72" x="1070.849609"/>
      <use xlink:href="#DejaVuSans-64" x="1110.212891"/>
      <use xlink:href="#DejaVuSans-65" x="1173.689453"/>
      <use xlink:href="#DejaVuSans-6e" x="1235.212891"/>
      <use xlink:href="#DejaVuSans-20" x="1298.591797"/>
      <use xlink:href="#DejaVuSans-4d" x="1330.378906"/>
      <use xlink:href="#DejaVuSans-75" x="1416.658203"/>
      <use xlink:href="#DejaVuSans-6c" x="1480.037109"/>
      <use xlink:href="#DejaVuSans-74" x="1507.820312"/>
      <use xlink:href="#DejaVuSans-69" x="1547.029297"/>
      <use xlink:href="#DejaVuSans-70" x="1574.8125"/>
      <use xlink:href="#DejaVuSans-6c" x="1638.289062"/>
      <use xlink:href="#DejaVuSans-69" x="1666.072266"/>
      <use xlink:href="#DejaVuSans-65" x="1693.855469"/>
      <use xlink:href="#DejaVuSans-72" x="1755.378906"/>
      <use xlink:href="#DejaVuSans-20" x="1796.492188"/>
      <use xlink:href="#DejaVuSans-28" x="1828.279297"/>
      <use xlink:href="#DejaVuSans-62" x="1867.292969"/>
      <use xlink:href="#DejaVuSans-29" x="1930.769531"/>
     </g>
    </g>
   </g>
   <g id="patch_3">
    <path d="M 43.78125 277.111219 
L 43.78125 10.999219 
" style="fill: none; stroke: #000000; stroke-width: 0.8; stroke-linejoin: miter; stroke-linecap: square"/>
   </g>
   <g id="patch_4">
    <path d="M 329.47725 277.111219 
L 329.47725 10.999219 
" style="fill: none; stroke: #000000; stroke-width: 0.8; stroke-linejoin: miter; stroke-linecap: square"/>
   </g>
   <g id="patch_5">
    <path d="M 43.78125 277.111219 
L 329.47725 277.111219 
" style="fill: none; stroke: #000000; stroke-width: 0.8; stroke-linejoin: miter; stroke-linecap: square"/>
   </g>
   <g id="patch_6">
    <path d="M 43.78125 10.999219 
L 329.47725 10.999219 
" style="fill: none; stroke: #000000; stroke-width: 0.8; stroke-linejoin: miter; stroke-linecap: square"/>
   </g>
  </g>
  <g id="axes_2">
   <g id="patch_7">
    <path d="M 347.33325 277.111219 
L 360.63885 277.111219 
L 360.63885 10.999219 
L 347.33325 10.999219 
z
" style="fill: #ffffff"/>
   </g>
   <g id="QuadMesh_1">
    <path d="M 347.33325 277.111219 
L 360.63885 277.111219 
L 360.63885 258.103219 
L 347.33325 258.103219 
L 347.33325 277.111219 
" clip-path="url(#pce3fde3c42)" style="fill: #ffefe8"/>
    <path d="M 347.33325 258.103219 
L 360.63885 258.103219 
L 360.63885 239.095219 
L 347.33325 239.095219 
L 347.33325 258.103219 
" clip-path="url(#pce3fde3c42)" style="fill: #fee3d7"/>
    <path d="M 347.33325 239.095219 
L 360.63885 239.095219 
L 360.63885 220.087219 
L 347.33325 220.087219 
L 347.33325 239.095219 
" clip-path="url(#pce3fde3c42)" style="fill: #fdd1be"/>
    <path d="M 347.33325 220.087219 
L 360.63885 220.087219 
L 360.63885 201.079219 
L 347.33325 201.079219 
L 347.33325 220.087219 
" clip-path="url(#pce3fde3c42)" style="fill: #fcbba1"/>
    <path d="M 347.33325 201.079219 
L 360.63885 201.079219 
L 360.63885 182.071219 
L 347.33325 182.071219 
L 347.33325 201.079219 
" clip-path="url(#pce3fde3c42)" style="fill: #fca486"/>
    <path d="M 347.33325 182.071219 
L 360.63885 182.071219 
L 360.63885 163.063219 
L 347.33325 163.063219 
L 347.33325 182.071219 
" clip-path="url(#pce3fde3c42)" style="fill: #fc8d6d"/>
    <path d="M 347.33325 163.063219 
L 360.63885 163.063219 
L 360.63885 144.055219 
L 347.33325 144.055219 
L 347.33325 163.063219 
" clip-path="url(#pce3fde3c42)" style="fill: #fb7656"/>
    <path d="M 347.33325 144.055219 
L 360.63885 144.055219 
L 360.63885 125.047219 
L 347.33325 125.047219 
L 347.33325 144.055219 
" clip-path="url(#pce3fde3c42)" style="fill: #f75c41"/>
    <path d="M 347.33325 125.047219 
L 360.63885 125.047219 
L 360.63885 106.039219 
L 347.33325 106.039219 
L 347.33325 125.047219 
" clip-path="url(#pce3fde3c42)" style="fill: #f14130"/>
    <path d="M 347.33325 106.039219 
L 360.63885 106.039219 
L 360.63885 87.031219 
L 347.33325 87.031219 
L 347.33325 106.039219 
" clip-path="url(#pce3fde3c42)" style="fill: #e02c26"/>
    <path d="M 347.33325 87.031219 
L 360.63885 87.031219 
L 360.63885 68.023219 
L 347.33325 68.023219 
L 347.33325 87.031219 
" clip-path="url(#pce3fde3c42)" style="fill: #ca181d"/>
    <path d="M 347.33325 68.023219 
L 360.63885 68.023219 
L 360.63885 49.015219 
L 347.33325 49.015219 
L 347.33325 68.023219 
" clip-path="url(#pce3fde3c42)" style="fill: #b51318"/>
    <path d="M 347.33325 49.015219 
L 360.63885 49.015219 
L 360.63885 30.007219 
L 347.33325 30.007219 
L 347.33325 49.015219 
" clip-path="url(#pce3fde3c42)" style="fill: #9c0d14"/>
    <path d="M 347.33325 30.007219 
L 360.63885 30.007219 
L 360.63885 10.999219 
L 347.33325 10.999219 
L 347.33325 30.007219 
" clip-path="url(#pce3fde3c42)" style="fill: #79040f"/>
   </g>
   <g id="matplotlib.axis_3"/>
   <g id="matplotlib.axis_4">
    <g id="ytick_7">
     <g id="line2d_13">
      <defs>
       <path id="ma0c58f6e12" d="M 0 0 
L 3.5 0 
" style="stroke: #000000; stroke-width: 0.8"/>
      </defs>
      <g>
       <use xlink:href="#ma0c58f6e12" x="360.63885" y="277.111219" style="stroke: #000000; stroke-width: 0.8"/>
      </g>
     </g>
     <g id="text_15">
      <!-- 72500 -->
      <g transform="translate(367.63885 280.910437) scale(0.1 -0.1)">
       <defs>
        <path id="DejaVuSans-37" d="M 525 4666 
L 3525 4666 
L 3525 4397 
L 1831 0 
L 1172 0 
L 2766 4134 
L 525 4134 
L 525 4666 
z
" transform="scale(0.015625)"/>
        <path id="DejaVuSans-35" d="M 691 4666 
L 3169 4666 
L 3169 4134 
L 1269 4134 
L 1269 2991 
Q 1406 3038 1543 3061 
Q 1681 3084 1819 3084 
Q 2600 3084 3056 2656 
Q 3513 2228 3513 1497 
Q 3513 744 3044 326 
Q 2575 -91 1722 -91 
Q 1428 -91 1123 -41 
Q 819 9 494 109 
L 494 744 
Q 775 591 1075 516 
Q 1375 441 1709 441 
Q 2250 441 2565 725 
Q 2881 1009 2881 1497 
Q 2881 1984 2565 2268 
Q 2250 2553 1709 2553 
Q 1456 2553 1204 2497 
Q 953 2441 691 2322 
L 691 4666 
z
" transform="scale(0.015625)"/>
       </defs>
       <use xlink:href="#DejaVuSans-37"/>
       <use xlink:href="#DejaVuSans-32" x="63.623047"/>
       <use xlink:href="#DejaVuSans-35" x="127.246094"/>
       <use xlink:href="#DejaVuSans-30" x="190.869141"/>
       <use xlink:href="#DejaVuSans-30" x="254.492188"/>
      </g>
     </g>
    </g>
    <g id="ytick_8">
     <g id="line2d_14">
      <g>
       <use xlink:href="#ma0c58f6e12" x="360.63885" y="239.095219" style="stroke: #000000; stroke-width: 0.8"/>
      </g>
     </g>
     <g id="text_16">
      <!-- 77500 -->
      <g transform="translate(367.63885 242.894437) scale(0.1 -0.1)">
       <use xlink:href="#DejaVuSans-37"/>
       <use xlink:href="#DejaVuSans-37" x="63.623047"/>
       <use xlink:href="#DejaVuSans-35" x="127.246094"/>
       <use xlink:href="#DejaVuSans-30" x="190.869141"/>
       <use xlink:href="#DejaVuSans-30" x="254.492188"/>
      </g>
     </g>
    </g>
    <g id="ytick_9">
     <g id="line2d_15">
      <g>
       <use xlink:href="#ma0c58f6e12" x="360.63885" y="201.079219" style="stroke: #000000; stroke-width: 0.8"/>
      </g>
     </g>
     <g id="text_17">
      <!-- 82500 -->
      <g transform="translate(367.63885 204.878437) scale(0.1 -0.1)">
       <use xlink:href="#DejaVuSans-38"/>
       <use xlink:href="#DejaVuSans-32" x="63.623047"/>
       <use xlink:href="#DejaVuSans-35" x="127.246094"/>
       <use xlink:href="#DejaVuSans-30" x="190.869141"/>
       <use xlink:href="#DejaVuSans-30" x="254.492188"/>
      </g>
     </g>
    </g>
    <g id="ytick_10">
     <g id="line2d_16">
      <g>
       <use xlink:href="#ma0c58f6e12" x="360.63885" y="163.063219" style="stroke: #000000; stroke-width: 0.8"/>
      </g>
     </g>
     <g id="text_18">
      <!-- 87500 -->
      <g transform="translate(367.63885 166.862437) scale(0.1 -0.1)">
       <use xlink:href="#DejaVuSans-38"/>
       <use xlink:href="#DejaVuSans-37" x="63.623047"/>
       <use xlink:href="#DejaVuSans-35" x="127.246094"/>
       <use xlink:href="#DejaVuSans-30" x="190.869141"/>
       <use xlink:href="#DejaVuSans-30" x="254.492188"/>
      </g>
     </g>
    </g>
    <g id="ytick_11">
     <g id="line2d_17">
      <g>
       <use xlink:href="#ma0c58f6e12" x="360.63885" y="125.047219" style="stroke: #000000; stroke-width: 0.8"/>
      </g>
     </g>
     <g id="text_19">
      <!-- 92500 -->
      <g transform="translate(367.63885 128.846437) scale(0.1 -0.1)">
       <defs>
        <path id="DejaVuSans-39" d="M 703 97 
L 703 672 
Q 941 559 1184 500 
Q 1428 441 1663 441 
Q 2288 441 2617 861 
Q 2947 1281 2994 2138 
Q 2813 1869 2534 1725 
Q 2256 1581 1919 1581 
Q 1219 1581 811 2004 
Q 403 2428 403 3163 
Q 403 3881 828 4315 
Q 1253 4750 1959 4750 
Q 2769 4750 3195 4129 
Q 3622 3509 3622 2328 
Q 3622 1225 3098 567 
Q 2575 -91 1691 -91 
Q 1453 -91 1209 -44 
Q 966 3 703 97 
z
M 1959 2075 
Q 2384 2075 2632 2365 
Q 2881 2656 2881 3163 
Q 2881 3666 2632 3958 
Q 2384 4250 1959 4250 
Q 1534 4250 1286 3958 
Q 1038 3666 1038 3163 
Q 1038 2656 1286 2365 
Q 1534 2075 1959 2075 
z
" transform="scale(0.015625)"/>
       </defs>
       <use xlink:href="#DejaVuSans-39"/>
       <use xlink:href="#DejaVuSans-32" x="63.623047"/>
       <use xlink:href="#DejaVuSans-35" x="127.246094"/>
       <use xlink:href="#DejaVuSans-30" x="190.869141"/>
       <use xlink:href="#DejaVuSans-30" x="254.492188"/>
      </g>
     </g>
    </g>
    <g id="ytick_12">
     <g id="line2d_18">
      <g>
       <use xlink:href="#ma0c58f6e12" x="360.63885" y="87.031219" style="stroke: #000000; stroke-width: 0.8"/>
      </g>
     </g>
     <g id="text_20">
      <!-- 97500 -->
      <g transform="translate(367.63885 90.830437) scale(0.1 -0.1)">
       <use xlink:href="#DejaVuSans-39"/>
       <use xlink:href="#DejaVuSans-37" x="63.623047"/>
       <use xlink:href="#DejaVuSans-35" x="127.246094"/>
       <use xlink:href="#DejaVuSans-30" x="190.869141"/>
       <use xlink:href="#DejaVuSans-30" x="254.492188"/>
      </g>
     </g>
    </g>
    <g id="ytick_13">
     <g id="line2d_19">
      <g>
       <use xlink:href="#ma0c58f6e12" x="360.63885" y="49.015219" style="stroke: #000000; stroke-width: 0.8"/>
      </g>
     </g>
     <g id="text_21">
      <!-- 102500 -->
      <g transform="translate(367.63885 52.814437) scale(0.1 -0.1)">
       <use xlink:href="#DejaVuSans-31"/>
       <use xlink:href="#DejaVuSans-30" x="63.623047"/>
       <use xlink:href="#DejaVuSans-32" x="127.246094"/>
       <use xlink:href="#DejaVuSans-35" x="190.869141"/>
       <use xlink:href="#DejaVuSans-30" x="254.492188"/>
       <use xlink:href="#DejaVuSans-30" x="318.115234"/>
      </g>
     </g>
    </g>
    <g id="ytick_14">
     <g id="line2d_20">
      <g>
       <use xlink:href="#ma0c58f6e12" x="360.63885" y="10.999219" style="stroke: #000000; stroke-width: 0.8"/>
      </g>
     </g>
     <g id="text_22">
      <!-- 107500 -->
      <g transform="translate(367.63885 14.798437) scale(0.1 -0.1)">
       <use xlink:href="#DejaVuSans-31"/>
       <use xlink:href="#DejaVuSans-30" x="63.623047"/>
       <use xlink:href="#DejaVuSans-37" x="127.246094"/>
       <use xlink:href="#DejaVuSans-35" x="190.869141"/>
       <use xlink:href="#DejaVuSans-30" x="254.492188"/>
       <use xlink:href="#DejaVuSans-30" x="318.115234"/>
      </g>
     </g>
    </g>
    <g id="text_23">
     <!-- Total Clinical Burden -->
     <g transform="translate(417.412288 194.926312) rotate(-90) scale(0.1 -0.1)">
      <defs>
       <path id="DejaVuSans-54" d="M -19 4666 
L 3928 4666 
L 3928 4134 
L 2272 4134 
L 2272 0 
L 1638 0 
L 1638 4134 
L -19 4134 
L -19 4666 
z
" transform="scale(0.015625)"/>
       <path id="DejaVuSans-43" d="M 4122 4306 
L 4122 3641 
Q 3803 3938 3442 4084 
Q 3081 4231 2675 4231 
Q 1875 4231 1450 3742 
Q 1025 3253 1025 2328 
Q 1025 1406 1450 917 
Q 1875 428 2675 428 
Q 3081 428 3442 575 
Q 3803 722 4122 1019 
L 4122 359 
Q 3791 134 3420 21 
Q 3050 -91 2638 -91 
Q 1578 -91 968 557 
Q 359 1206 359 2328 
Q 359 3453 968 4101 
Q 1578 4750 2638 4750 
Q 3056 4750 3426 4639 
Q 3797 4528 4122 4306 
z
" transform="scale(0.015625)"/>
      </defs>
      <use xlink:href="#DejaVuSans-54"/>
      <use xlink:href="#DejaVuSans-6f" x="44.083984"/>
      <use xlink:href="#DejaVuSans-74" x="105.265625"/>
      <use xlink:href="#DejaVuSans-61" x="144.474609"/>
      <use xlink:href="#DejaVuSans-6c" x="205.753906"/>
      <use xlink:href="#DejaVuSans-20" x="233.537109"/>
      <use xlink:href="#DejaVuSans-43" x="265.324219"/>
      <use xlink:href="#DejaVuSans-6c" x="335.148438"/>
      <use xlink:href="#DejaVuSans-69" x="362.931641"/>
      <use xlink:href="#DejaVuSans-6e" x="390.714844"/>
      <use xlink:href="#DejaVuSans-69" x="454.09375"/>
      <use xlink:href="#DejaVuSans-63" x="481.876953"/>
      <use xlink:href="#DejaVuSans-61" x="536.857422"/>
      <use xlink:href="#DejaVuSans-6c" x="598.136719"/>
      <use xlink:href="#DejaVuSans-20" x="625.919922"/>
      <use xlink:href="#DejaVuSans-42" x="657.707031"/>
      <use xlink:href="#DejaVuSans-75" x="726.310547"/>
      <use xlink:href="#DejaVuSans-72" x="789.689453"/>
      <use xlink:href="#DejaVuSans-64" x="829.052734"/>
      <use xlink:href="#DejaVuSans-65" x="892.529297"/>
      <use xlink:href="#DejaVuSans-6e" x="954.052734"/>
     </g>
    </g>
   </g>
   <g id="LineCollection_1"/>
   <g id="patch_8">
    <path d="M 347.33325 277.111219 
L 353.98605 277.111219 
L 360.63885 277.111219 
L 360.63885 10.999219 
L 353.98605 10.999219 
L 347.33325 10.999219 
L 347.33325 277.111219 
z
" style="fill: none; stroke: #000000; stroke-width: 0.8; stroke-linejoin: miter; stroke-linecap: square"/>
   </g>
  </g>
 </g>
 <defs>
  <clipPath id="pacf46d29e0">
   <rect x="43.78125" y="10.999219" width="285.696" height="266.112"/>
  </clipPath>
  <clipPath id="pce3fde3c42">
   <rect x="347.33325" y="10.999219" width="13.3056" height="266.112"/>
  </clipPath>
 </defs>
</svg>
