<?xml version="1.0" encoding="utf-8" standalone="no"?>
<!DOCTYPE svg PUBLIC "-//W3C//DTD SVG 1.1//EN"
  "http://www.w3.org/Graphics/SVG/1.1/DTD/svg11.dtd">
<svg xmlns:xlink="http://www.w3.org/1999/xlink" width="404.4201pt" height="321.466687pt" viewBox="0 0 404.4201 321.466687" xmlns="http://www.w3.org/2000/svg" version="1.1">
 <metadata>
  <rdf:RDF xmlns:dc="http://purl.org/dc/elements/1.1/" xmlns:cc="http://creativecommons.org/ns#" xmlns:rdf="http://www.w3.org/1999/02/22-rdf-syntax-ns#">
   <cc:Work>
    <dc:type rdf:resource="http://purl.org/dc/dcmitype/StillImage"/>
    <dc:date>2024-12-02T10:38:57.439584</dc:date>
    <dc:format>image/svg+xml</dc:format>
    <dc:creator>
     <cc:Agent>
      <dc:title>Matplotlib v3.9.0, https://matplotlib.org/</dc:title>
     </cc:Agent>
    </dc:creator>
   </cc:Work>
  </rdf:RDF>
 </metadata>
 <defs>
  <style type="text/css">*{stroke-linejoin: round; stroke-linecap: butt}</style>
 </defs>
 <g id="figure_1">
  <g id="patch_1">
   <path d="M 0 321.466687 
L 404.4201 321.466687 
L 404.4201 0 
L 0 0 
z
" style="fill: #ffffff"/>
  </g>
  <g id="axes_1">
   <g id="patch_2">
    <path d="M 43.78125 283.910437 
L 329.47725 283.910437 
L 329.47725 17.798437 
L 43.78125 17.798437 
z
" style="fill: #ffffff"/>
   </g>
   <g id="QuadContourSet_1">
    <path d="M 50.92365 271.293058 
L 58.06605 271.293058 
L 65.20845 271.293058 
L 72.35085 271.293058 
L 79.49325 271.293058 
L 86.63565 271.293058 
L 93.77805 271.293058 
L 100.92045 271.293058 
L 108.06285 271.293058 
L 115.20525 271.293058 
L 122.34765 271.293058 
L 129.49005 271.293058 
L 136.63245 271.293058 
L 143.77485 271.293058 
L 150.91725 271.293058 
L 158.05965 271.293058 
L 165.20205 271.293058 
L 172.34445 271.293058 
L 179.48685 271.293058 
L 186.62925 271.293058 
L 193.77165 271.293058 
L 200.91405 271.293058 
L 208.05645 271.293058 
L 215.19885 271.293058 
L 222.34125 271.293058 
L 229.48365 271.293058 
L 236.62605 271.293058 
L 243.76845 271.293058 
L 250.91085 271.293058 
L 258.05325 271.293058 
L 265.19565 271.293058 
L 272.33805 271.293058 
L 279.48045 271.293058 
L 286.62285 271.293058 
L 293.76525 271.293058 
L 300.90765 271.293058 
L 300.90765 270.604837 
L 293.76525 270.604837 
L 286.62285 263.952037 
L 279.48045 257.299237 
L 272.33805 250.646437 
L 265.19565 243.993637 
L 258.05325 237.340837 
L 258.05325 230.688037 
L 250.91085 230.688037 
L 243.76845 224.035237 
L 236.62605 217.382437 
L 229.48365 210.729637 
L 222.34125 204.076837 
L 215.19885 197.424037 
L 208.05645 190.771237 
L 200.91405 184.118437 
L 200.91405 177.465637 
L 193.77165 177.465637 
L 186.62925 170.812837 
L 186.62925 164.160037 
L 179.48685 164.160037 
L 172.34445 157.507237 
L 172.34445 150.854437 
L 165.20205 150.854437 
L 158.05965 144.201637 
L 158.05965 137.548837 
L 150.91725 137.548837 
L 143.77485 130.896037 
L 136.63245 124.243237 
L 129.49005 117.590437 
L 122.34765 110.937637 
L 115.20525 104.284837 
L 108.06285 97.632037 
L 100.92045 90.979237 
L 100.92045 84.326437 
L 93.77805 84.326437 
L 86.63565 77.673637 
L 79.49325 71.020837 
L 72.35085 64.368037 
L 65.20845 57.715237 
L 58.06605 51.062437 
L 58.06605 44.409637 
L 50.92365 44.409637 
L 43.78125 37.756837 
L 43.78125 44.409637 
L 43.78125 51.062437 
L 43.78125 57.715237 
L 43.78125 64.368037 
L 43.78125 71.020837 
L 43.78125 77.673637 
L 43.78125 84.326437 
L 43.78125 90.979237 
L 43.78125 97.632037 
L 43.78125 104.284837 
L 43.78125 110.937637 
L 43.78125 117.590437 
L 43.78125 124.243237 
L 43.78125 130.896037 
L 43.78125 137.548837 
L 43.78125 144.201637 
L 43.78125 150.854437 
L 43.78125 157.507237 
L 43.78125 164.160037 
L 43.78125 170.812837 
L 43.78125 177.465637 
L 43.78125 184.118437 
L 43.78125 190.771237 
L 43.78125 197.424037 
L 43.78125 204.076837 
L 43.78125 210.729637 
L 43.78125 217.382437 
L 43.78125 224.035237 
L 43.78125 230.688037 
L 43.78125 237.340837 
L 43.78125 243.993637 
L 43.78125 250.646437 
L 43.78125 257.299237 
L 43.78125 263.952037 
L 43.78125 270.604837 
L 43.78125 271.293058 
z
" clip-path="url(#p7785b0744a)" style="fill: #f9f7fb"/>
    <path d="M 50.92365 272.210686 
L 58.06605 272.210686 
L 65.20845 272.210686 
L 72.35085 272.210686 
L 79.49325 272.210686 
L 86.63565 272.210686 
L 93.77805 272.210686 
L 100.92045 272.210686 
L 108.06285 272.210686 
L 115.20525 272.210686 
L 122.34765 272.210686 
L 129.49005 272.210686 
L 136.63245 272.210686 
L 143.77485 272.210686 
L 150.91725 272.210686 
L 158.05965 272.210686 
L 165.20205 272.210686 
L 172.34445 272.210686 
L 179.48685 272.210686 
L 186.62925 272.210686 
L 193.77165 272.210686 
L 200.91405 272.210686 
L 208.05645 272.210686 
L 215.19885 272.210686 
L 222.34125 272.210686 
L 229.48365 272.210686 
L 236.62605 272.210686 
L 243.76845 272.210686 
L 250.91085 272.210686 
L 258.05325 272.210686 
L 265.19565 272.210686 
L 272.33805 272.210686 
L 279.48045 272.210686 
L 286.62285 272.210686 
L 293.76525 272.210686 
L 300.90765 272.210686 
L 300.90765 271.293058 
L 293.76525 271.293058 
L 286.62285 271.293058 
L 279.48045 271.293058 
L 272.33805 271.293058 
L 265.19565 271.293058 
L 258.05325 271.293058 
L 250.91085 271.293058 
L 243.76845 271.293058 
L 236.62605 271.293058 
L 229.48365 271.293058 
L 222.34125 271.293058 
L 215.19885 271.293058 
L 208.05645 271.293058 
L 200.91405 271.293058 
L 193.77165 271.293058 
L 186.62925 271.293058 
L 179.48685 271.293058 
L 172.34445 271.293058 
L 165.20205 271.293058 
L 158.05965 271.293058 
L 150.91725 271.293058 
L 143.77485 271.293058 
L 136.63245 271.293058 
L 129.49005 271.293058 
L 122.34765 271.293058 
L 115.20525 271.293058 
L 108.06285 271.293058 
L 100.92045 271.293058 
L 93.77805 271.293058 
L 86.63565 271.293058 
L 79.49325 271.293058 
L 72.35085 271.293058 
L 65.20845 271.293058 
L 58.06605 271.293058 
L 50.92365 271.293058 
L 43.78125 271.293058 
L 43.78125 272.210686 
z
" clip-path="url(#p7785b0744a)" style="fill: #f2f0f7"/>
    <path d="M 50.92365 273.128313 
L 58.06605 273.128313 
L 65.20845 273.128313 
L 72.35085 273.128313 
L 79.49325 273.128313 
L 86.63565 273.128313 
L 93.77805 273.128313 
L 100.92045 273.128313 
L 108.06285 273.128313 
L 115.20525 273.128313 
L 122.34765 273.128313 
L 129.49005 273.128313 
L 136.63245 273.128313 
L 143.77485 273.128313 
L 150.91725 273.128313 
L 158.05965 273.128313 
L 165.20205 273.128313 
L 172.34445 273.128313 
L 179.48685 273.128313 
L 186.62925 273.128313 
L 193.77165 273.128313 
L 200.91405 273.128313 
L 208.05645 273.128313 
L 215.19885 273.128313 
L 222.34125 273.128313 
L 229.48365 273.128313 
L 236.62605 273.128313 
L 243.76845 273.128313 
L 250.91085 273.128313 
L 258.05325 273.128313 
L 265.19565 273.128313 
L 272.33805 273.128313 
L 279.48045 273.128313 
L 286.62285 273.128313 
L 293.76525 273.128313 
L 300.90765 273.128313 
L 300.90765 272.210686 
L 293.76525 272.210686 
L 286.62285 272.210686 
L 279.48045 272.210686 
L 272.33805 272.210686 
L 265.19565 272.210686 
L 258.05325 272.210686 
L 250.91085 272.210686 
L 243.76845 272.210686 
L 236.62605 272.210686 
L 229.48365 272.210686 
L 222.34125 272.210686 
L 215.19885 272.210686 
L 208.05645 272.210686 
L 200.91405 272.210686 
L 193.77165 272.210686 
L 186.62925 272.210686 
L 179.48685 272.210686 
L 172.34445 272.210686 
L 165.20205 272.210686 
L 158.05965 272.210686 
L 150.91725 272.210686 
L 143.77485 272.210686 
L 136.63245 272.210686 
L 129.49005 272.210686 
L 122.34765 272.210686 
L 115.20525 272.210686 
L 108.06285 272.210686 
L 100.92045 272.210686 
L 93.77805 272.210686 
L 86.63565 272.210686 
L 79.49325 272.210686 
L 72.35085 272.210686 
L 65.20845 272.210686 
L 58.06605 272.210686 
L 50.92365 272.210686 
L 43.78125 272.210686 
L 43.78125 273.128313 
z
" clip-path="url(#p7785b0744a)" style="fill: #e8e7f2"/>
    <path d="M 308.05005 283.910437 
L 307.80376 283.681031 
L 307.967953 283.910437 
z
M 50.92365 274.045941 
L 58.06605 274.045941 
L 65.20845 274.045941 
L 72.35085 274.045941 
L 79.49325 274.045941 
L 86.63565 274.045941 
L 93.77805 274.045941 
L 100.92045 274.045941 
L 108.06285 274.045941 
L 115.20525 274.045941 
L 122.34765 274.045941 
L 129.49005 274.045941 
L 136.63245 274.045941 
L 143.77485 274.045941 
L 150.91725 274.045941 
L 158.05965 274.045941 
L 165.20205 274.045941 
L 172.34445 274.045941 
L 179.48685 274.045941 
L 186.62925 274.045941 
L 193.77165 274.045941 
L 200.91405 274.045941 
L 208.05645 274.045941 
L 215.19885 274.045941 
L 222.34125 274.045941 
L 229.48365 274.045941 
L 236.62605 274.045941 
L 243.76845 274.045941 
L 250.91085 274.045941 
L 258.05325 274.045941 
L 265.19565 274.045941 
L 272.33805 274.045941 
L 279.48045 274.045941 
L 286.62285 274.045941 
L 293.76525 274.045941 
L 300.90765 274.045941 
L 300.90765 273.128313 
L 293.76525 273.128313 
L 286.62285 273.128313 
L 279.48045 273.128313 
L 272.33805 273.128313 
L 265.19565 273.128313 
L 258.05325 273.128313 
L 250.91085 273.128313 
L 243.76845 273.128313 
L 236.62605 273.128313 
L 229.48365 273.128313 
L 222.34125 273.128313 
L 215.19885 273.128313 
L 208.05645 273.128313 
L 200.91405 273.128313 
L 193.77165 273.128313 
L 186.62925 273.128313 
L 179.48685 273.128313 
L 172.34445 273.128313 
L 165.20205 273.128313 
L 158.05965 273.128313 
L 150.91725 273.128313 
L 143.77485 273.128313 
L 136.63245 273.128313 
L 129.49005 273.128313 
L 122.34765 273.128313 
L 115.20525 273.128313 
L 108.06285 273.128313 
L 100.92045 273.128313 
L 93.77805 273.128313 
L 86.63565 273.128313 
L 79.49325 273.128313 
L 72.35085 273.128313 
L 65.20845 273.128313 
L 58.06605 273.128313 
L 50.92365 273.128313 
L 43.78125 273.128313 
L 43.78125 274.045941 
z
" clip-path="url(#p7785b0744a)" style="fill: #ddddec"/>
    <path d="M 307.80376 283.681031 
L 305.833443 281.845775 
L 307.311181 283.910437 
L 307.967953 283.910437 
z
M 50.92365 274.963569 
L 58.06605 274.963569 
L 65.20845 274.963569 
L 72.35085 274.963569 
L 79.49325 274.963569 
L 86.63565 274.963569 
L 93.77805 274.963569 
L 100.92045 274.963569 
L 108.06285 274.963569 
L 115.20525 274.963569 
L 122.34765 274.963569 
L 129.49005 274.963569 
L 136.63245 274.963569 
L 143.77485 274.963569 
L 150.91725 274.963569 
L 158.05965 274.963569 
L 165.20205 274.963569 
L 172.34445 274.963569 
L 179.48685 274.963569 
L 186.62925 274.963569 
L 193.77165 274.963569 
L 200.91405 274.963569 
L 208.05645 274.963569 
L 215.19885 274.963569 
L 222.34125 274.963569 
L 229.48365 274.963569 
L 236.62605 274.963569 
L 243.76845 274.963569 
L 250.91085 274.963569 
L 258.05325 274.963569 
L 265.19565 274.963569 
L 272.33805 274.963569 
L 279.48045 274.963569 
L 286.62285 274.963569 
L 293.76525 274.963569 
L 300.90765 274.963569 
L 300.90765 274.045941 
L 293.76525 274.045941 
L 286.62285 274.045941 
L 279.48045 274.045941 
L 272.33805 274.045941 
L 265.19565 274.045941 
L 258.05325 274.045941 
L 250.91085 274.045941 
L 243.76845 274.045941 
L 236.62605 274.045941 
L 229.48365 274.045941 
L 222.34125 274.045941 
L 215.19885 274.045941 
L 208.05645 274.045941 
L 200.91405 274.045941 
L 193.77165 274.045941 
L 186.62925 274.045941 
L 179.48685 274.045941 
L 172.34445 274.045941 
L 165.20205 274.045941 
L 158.05965 274.045941 
L 150.91725 274.045941 
L 143.77485 274.045941 
L 136.63245 274.045941 
L 129.49005 274.045941 
L 122.34765 274.045941 
L 115.20525 274.045941 
L 108.06285 274.045941 
L 100.92045 274.045941 
L 93.77805 274.045941 
L 86.63565 274.045941 
L 79.49325 274.045941 
L 72.35085 274.045941 
L 65.20845 274.045941 
L 58.06605 274.045941 
L 50.92365 274.045941 
L 43.78125 274.045941 
L 43.78125 274.963569 
z
" clip-path="url(#p7785b0744a)" style="fill: #cecfe5"/>
    <path d="M 305.833443 281.845775 
L 303.863126 280.01052 
L 306.654409 283.910437 
L 307.311181 283.910437 
z
M 50.92365 275.881196 
L 58.06605 275.881196 
L 65.20845 275.881196 
L 72.35085 275.881196 
L 79.49325 275.881196 
L 86.63565 275.881196 
L 93.77805 275.881196 
L 100.92045 275.881196 
L 108.06285 275.881196 
L 115.20525 275.881196 
L 122.34765 275.881196 
L 129.49005 275.881196 
L 136.63245 275.881196 
L 143.77485 275.881196 
L 150.91725 275.881196 
L 158.05965 275.881196 
L 165.20205 275.881196 
L 172.34445 275.881196 
L 179.48685 275.881196 
L 186.62925 275.881196 
L 193.77165 275.881196 
L 200.91405 275.881196 
L 208.05645 275.881196 
L 215.19885 275.881196 
L 222.34125 275.881196 
L 229.48365 275.881196 
L 236.62605 275.881196 
L 243.76845 275.881196 
L 250.91085 275.881196 
L 258.05325 275.881196 
L 265.19565 275.881196 
L 272.33805 275.881196 
L 279.48045 275.881196 
L 286.62285 275.881196 
L 293.76525 275.881196 
L 300.90765 275.881196 
L 300.90765 274.963569 
L 293.76525 274.963569 
L 286.62285 274.963569 
L 279.48045 274.963569 
L 272.33805 274.963569 
L 265.19565 274.963569 
L 258.05325 274.963569 
L 250.91085 274.963569 
L 243.76845 274.963569 
L 236.62605 274.963569 
L 229.48365 274.963569 
L 222.34125 274.963569 
L 215.19885 274.963569 
L 208.05645 274.963569 
L 200.91405 274.963569 
L 193.77165 274.963569 
L 186.62925 274.963569 
L 179.48685 274.963569 
L 172.34445 274.963569 
L 165.20205 274.963569 
L 158.05965 274.963569 
L 150.91725 274.963569 
L 143.77485 274.963569 
L 136.63245 274.963569 
L 129.49005 274.963569 
L 122.34765 274.963569 
L 115.20525 274.963569 
L 108.06285 274.963569 
L 100.92045 274.963569 
L 93.77805 274.963569 
L 86.63565 274.963569 
L 79.49325 274.963569 
L 72.35085 274.963569 
L 65.20845 274.963569 
L 58.06605 274.963569 
L 50.92365 274.963569 
L 43.78125 274.963569 
L 43.78125 275.881196 
z
" clip-path="url(#p7785b0744a)" style="fill: #bebfdd"/>
    <path d="M 303.863126 280.01052 
L 301.892809 278.175265 
L 305.997636 283.910437 
L 306.654409 283.910437 
z
M 50.92365 276.798824 
L 58.06605 276.798824 
L 65.20845 276.798824 
L 72.35085 276.798824 
L 79.49325 276.798824 
L 86.63565 276.798824 
L 93.77805 276.798824 
L 100.92045 276.798824 
L 108.06285 276.798824 
L 115.20525 276.798824 
L 122.34765 276.798824 
L 129.49005 276.798824 
L 136.63245 276.798824 
L 143.77485 276.798824 
L 150.91725 276.798824 
L 158.05965 276.798824 
L 165.20205 276.798824 
L 172.34445 276.798824 
L 179.48685 276.798824 
L 186.62925 276.798824 
L 193.77165 276.798824 
L 200.91405 276.798824 
L 208.05645 276.798824 
L 215.19885 276.798824 
L 222.34125 276.798824 
L 229.48365 276.798824 
L 236.62605 276.798824 
L 243.76845 276.798824 
L 250.91085 276.798824 
L 258.05325 276.798824 
L 265.19565 276.798824 
L 272.33805 276.798824 
L 279.48045 276.798824 
L 286.62285 276.798824 
L 293.76525 276.798824 
L 300.90765 276.798824 
L 300.90765 275.881196 
L 293.76525 275.881196 
L 286.62285 275.881196 
L 279.48045 275.881196 
L 272.33805 275.881196 
L 265.19565 275.881196 
L 258.05325 275.881196 
L 250.91085 275.881196 
L 243.76845 275.881196 
L 236.62605 275.881196 
L 229.48365 275.881196 
L 222.34125 275.881196 
L 215.19885 275.881196 
L 208.05645 275.881196 
L 200.91405 275.881196 
L 193.77165 275.881196 
L 186.62925 275.881196 
L 179.48685 275.881196 
L 172.34445 275.881196 
L 165.20205 275.881196 
L 158.05965 275.881196 
L 150.91725 275.881196 
L 143.77485 275.881196 
L 136.63245 275.881196 
L 129.49005 275.881196 
L 122.34765 275.881196 
L 115.20525 275.881196 
L 108.06285 275.881196 
L 100.92045 275.881196 
L 93.77805 275.881196 
L 86.63565 275.881196 
L 79.49325 275.881196 
L 72.35085 275.881196 
L 65.20845 275.881196 
L 58.06605 275.881196 
L 50.92365 275.881196 
L 43.78125 275.881196 
L 43.78125 276.798824 
z
" clip-path="url(#p7785b0744a)" style="fill: #aeadd3"/>
    <path d="M 50.92365 277.716451 
L 58.06605 277.716451 
L 65.20845 277.716451 
L 72.35085 277.716451 
L 79.49325 277.716451 
L 86.63565 277.716451 
L 93.77805 277.716451 
L 100.92045 277.716451 
L 108.06285 277.716451 
L 115.20525 277.716451 
L 122.34765 277.716451 
L 129.49005 277.716451 
L 136.63245 277.716451 
L 143.77485 277.716451 
L 150.91725 277.716451 
L 158.05965 277.716451 
L 165.20205 277.716451 
L 172.34445 277.716451 
L 179.48685 277.716451 
L 186.62925 277.716451 
L 193.77165 277.716451 
L 200.91405 277.716451 
L 208.05645 277.716451 
L 215.19885 277.716451 
L 222.34125 277.716451 
L 229.48365 277.716451 
L 236.62605 277.716451 
L 243.76845 277.716451 
L 250.91085 277.716451 
L 258.05325 277.716451 
L 265.19565 277.716451 
L 272.33805 277.716451 
L 279.48045 277.716451 
L 286.62285 277.716451 
L 293.76525 277.716451 
L 300.90765 277.716451 
L 305.340864 283.910437 
L 305.997636 283.910437 
L 301.892809 278.175265 
L 300.90765 277.257637 
L 300.90765 276.798824 
L 293.76525 276.798824 
L 286.62285 276.798824 
L 279.48045 276.798824 
L 272.33805 276.798824 
L 265.19565 276.798824 
L 258.05325 276.798824 
L 250.91085 276.798824 
L 243.76845 276.798824 
L 236.62605 276.798824 
L 229.48365 276.798824 
L 222.34125 276.798824 
L 215.19885 276.798824 
L 208.05645 276.798824 
L 200.91405 276.798824 
L 193.77165 276.798824 
L 186.62925 276.798824 
L 179.48685 276.798824 
L 172.34445 276.798824 
L 165.20205 276.798824 
L 158.05965 276.798824 
L 150.91725 276.798824 
L 143.77485 276.798824 
L 136.63245 276.798824 
L 129.49005 276.798824 
L 122.34765 276.798824 
L 115.20525 276.798824 
L 108.06285 276.798824 
L 100.92045 276.798824 
L 93.77805 276.798824 
L 86.63565 276.798824 
L 79.49325 276.798824 
L 72.35085 276.798824 
L 65.20845 276.798824 
L 58.06605 276.798824 
L 50.92365 276.798824 
L 43.78125 276.798824 
L 43.78125 277.257637 
L 43.78125 277.716451 
z
" clip-path="url(#p7785b0744a)" style="fill: #9e9ac8"/>
    <path d="M 50.92365 278.634079 
L 58.06605 278.634079 
L 65.20845 278.634079 
L 72.35085 278.634079 
L 79.49325 278.634079 
L 86.63565 278.634079 
L 93.77805 278.634079 
L 100.92045 278.634079 
L 108.06285 278.634079 
L 115.20525 278.634079 
L 122.34765 278.634079 
L 129.49005 278.634079 
L 136.63245 278.634079 
L 143.77485 278.634079 
L 150.91725 278.634079 
L 158.05965 278.634079 
L 165.20205 278.634079 
L 172.34445 278.634079 
L 179.48685 278.634079 
L 186.62925 278.634079 
L 193.77165 278.634079 
L 200.91405 278.634079 
L 208.05645 278.634079 
L 215.19885 278.634079 
L 222.34125 278.634079 
L 229.48365 278.634079 
L 236.62605 278.634079 
L 243.76845 278.634079 
L 250.91085 278.634079 
L 258.05325 278.634079 
L 265.19565 278.634079 
L 272.33805 278.634079 
L 279.48045 278.634079 
L 286.62285 278.634079 
L 293.76525 278.634079 
L 300.90765 278.634079 
L 304.684091 283.910437 
L 305.340864 283.910437 
L 300.90765 277.716451 
L 293.76525 277.716451 
L 286.62285 277.716451 
L 279.48045 277.716451 
L 272.33805 277.716451 
L 265.19565 277.716451 
L 258.05325 277.716451 
L 250.91085 277.716451 
L 243.76845 277.716451 
L 236.62605 277.716451 
L 229.48365 277.716451 
L 222.34125 277.716451 
L 215.19885 277.716451 
L 208.05645 277.716451 
L 200.91405 277.716451 
L 193.77165 277.716451 
L 186.62925 277.716451 
L 179.48685 277.716451 
L 172.34445 277.716451 
L 165.20205 277.716451 
L 158.05965 277.716451 
L 150.91725 277.716451 
L 143.77485 277.716451 
L 136.63245 277.716451 
L 129.49005 277.716451 
L 122.34765 277.716451 
L 115.20525 277.716451 
L 108.06285 277.716451 
L 100.92045 277.716451 
L 93.77805 277.716451 
L 86.63565 277.716451 
L 79.49325 277.716451 
L 72.35085 277.716451 
L 65.20845 277.716451 
L 58.06605 277.716451 
L 50.92365 277.716451 
L 43.78125 277.716451 
L 43.78125 278.634079 
z
" clip-path="url(#p7785b0744a)" style="fill: #8e8ac0"/>
    <path d="M 50.92365 279.551706 
L 58.06605 279.551706 
L 65.20845 279.551706 
L 72.35085 279.551706 
L 79.49325 279.551706 
L 86.63565 279.551706 
L 93.77805 279.551706 
L 100.92045 279.551706 
L 108.06285 279.551706 
L 115.20525 279.551706 
L 122.34765 279.551706 
L 129.49005 279.551706 
L 136.63245 279.551706 
L 143.77485 279.551706 
L 150.91725 279.551706 
L 158.05965 279.551706 
L 165.20205 279.551706 
L 172.34445 279.551706 
L 179.48685 279.551706 
L 186.62925 279.551706 
L 193.77165 279.551706 
L 200.91405 279.551706 
L 208.05645 279.551706 
L 215.19885 279.551706 
L 222.34125 279.551706 
L 229.48365 279.551706 
L 236.62605 279.551706 
L 243.76845 279.551706 
L 250.91085 279.551706 
L 258.05325 279.551706 
L 265.19565 279.551706 
L 272.33805 279.551706 
L 279.48045 279.551706 
L 286.62285 279.551706 
L 293.76525 279.551706 
L 300.90765 279.551706 
L 304.027319 283.910437 
L 304.684091 283.910437 
L 300.90765 278.634079 
L 293.76525 278.634079 
L 286.62285 278.634079 
L 279.48045 278.634079 
L 272.33805 278.634079 
L 265.19565 278.634079 
L 258.05325 278.634079 
L 250.91085 278.634079 
L 243.76845 278.634079 
L 236.62605 278.634079 
L 229.48365 278.634079 
L 222.34125 278.634079 
L 215.19885 278.634079 
L 208.05645 278.634079 
L 200.91405 278.634079 
L 193.77165 278.634079 
L 186.62925 278.634079 
L 179.48685 278.634079 
L 172.34445 278.634079 
L 165.20205 278.634079 
L 158.05965 278.634079 
L 150.91725 278.634079 
L 143.77485 278.634079 
L 136.63245 278.634079 
L 129.49005 278.634079 
L 122.34765 278.634079 
L 115.20525 278.634079 
L 108.06285 278.634079 
L 100.92045 278.634079 
L 93.77805 278.634079 
L 86.63565 278.634079 
L 79.49325 278.634079 
L 72.35085 278.634079 
L 65.20845 278.634079 
L 58.06605 278.634079 
L 50.92365 278.634079 
L 43.78125 278.634079 
L 43.78125 279.551706 
z
" clip-path="url(#p7785b0744a)" style="fill: #7e79b8"/>
    <path d="M 50.92365 280.469334 
L 58.06605 280.469334 
L 65.20845 280.469334 
L 72.35085 280.469334 
L 79.49325 280.469334 
L 86.63565 280.469334 
L 93.77805 280.469334 
L 100.92045 280.469334 
L 108.06285 280.469334 
L 115.20525 280.469334 
L 122.34765 280.469334 
L 129.49005 280.469334 
L 136.63245 280.469334 
L 143.77485 280.469334 
L 150.91725 280.469334 
L 158.05965 280.469334 
L 165.20205 280.469334 
L 172.34445 280.469334 
L 179.48685 280.469334 
L 186.62925 280.469334 
L 193.77165 280.469334 
L 200.91405 280.469334 
L 208.05645 280.469334 
L 215.19885 280.469334 
L 222.34125 280.469334 
L 229.48365 280.469334 
L 236.62605 280.469334 
L 243.76845 280.469334 
L 250.91085 280.469334 
L 258.05325 280.469334 
L 265.19565 280.469334 
L 272.33805 280.469334 
L 279.48045 280.469334 
L 286.62285 280.469334 
L 293.76525 280.469334 
L 300.90765 280.469334 
L 303.370547 283.910437 
L 304.027319 283.910437 
L 300.90765 279.551706 
L 293.76525 279.551706 
L 286.62285 279.551706 
L 279.48045 279.551706 
L 272.33805 279.551706 
L 265.19565 279.551706 
L 258.05325 279.551706 
L 250.91085 279.551706 
L 243.76845 279.551706 
L 236.62605 279.551706 
L 229.48365 279.551706 
L 222.34125 279.551706 
L 215.19885 279.551706 
L 208.05645 279.551706 
L 200.91405 279.551706 
L 193.77165 279.551706 
L 186.62925 279.551706 
L 179.48685 279.551706 
L 172.34445 279.551706 
L 165.20205 279.551706 
L 158.05965 279.551706 
L 150.91725 279.551706 
L 143.77485 279.551706 
L 136.63245 279.551706 
L 129.49005 279.551706 
L 122.34765 279.551706 
L 115.20525 279.551706 
L 108.06285 279.551706 
L 100.92045 279.551706 
L 93.77805 279.551706 
L 86.63565 279.551706 
L 79.49325 279.551706 
L 72.35085 279.551706 
L 65.20845 279.551706 
L 58.06605 279.551706 
L 50.92365 279.551706 
L 43.78125 279.551706 
L 43.78125 280.469334 
z
" clip-path="url(#p7785b0744a)" style="fill: #7262ac"/>
    <path d="M 50.92365 281.386962 
L 58.06605 281.386962 
L 65.20845 281.386962 
L 72.35085 281.386962 
L 79.49325 281.386962 
L 86.63565 281.386962 
L 93.77805 281.386962 
L 100.92045 281.386962 
L 108.06285 281.386962 
L 115.20525 281.386962 
L 122.34765 281.386962 
L 129.49005 281.386962 
L 136.63245 281.386962 
L 143.77485 281.386962 
L 150.91725 281.386962 
L 158.05965 281.386962 
L 165.20205 281.386962 
L 172.34445 281.386962 
L 179.48685 281.386962 
L 186.62925 281.386962 
L 193.77165 281.386962 
L 200.91405 281.386962 
L 208.05645 281.386962 
L 215.19885 281.386962 
L 222.34125 281.386962 
L 229.48365 281.386962 
L 236.62605 281.386962 
L 243.76845 281.386962 
L 250.91085 281.386962 
L 258.05325 281.386962 
L 265.19565 281.386962 
L 272.33805 281.386962 
L 279.48045 281.386962 
L 286.62285 281.386962 
L 293.76525 281.386962 
L 300.90765 281.386962 
L 302.713774 283.910437 
L 303.370547 283.910437 
L 300.90765 280.469334 
L 293.76525 280.469334 
L 286.62285 280.469334 
L 279.48045 280.469334 
L 272.33805 280.469334 
L 265.19565 280.469334 
L 258.05325 280.469334 
L 250.91085 280.469334 
L 243.76845 280.469334 
L 236.62605 280.469334 
L 229.48365 280.469334 
L 222.34125 280.469334 
L 215.19885 280.469334 
L 208.05645 280.469334 
L 200.91405 280.469334 
L 193.77165 280.469334 
L 186.62925 280.469334 
L 179.48685 280.469334 
L 172.34445 280.469334 
L 165.20205 280.469334 
L 158.05965 280.469334 
L 150.91725 280.469334 
L 143.77485 280.469334 
L 136.63245 280.469334 
L 129.49005 280.469334 
L 122.34765 280.469334 
L 115.20525 280.469334 
L 108.06285 280.469334 
L 100.92045 280.469334 
L 93.77805 280.469334 
L 86.63565 280.469334 
L 79.49325 280.469334 
L 72.35085 280.469334 
L 65.20845 280.469334 
L 58.06605 280.469334 
L 50.92365 280.469334 
L 43.78125 280.469334 
L 43.78125 281.386962 
z
" clip-path="url(#p7785b0744a)" style="fill: #674ba0"/>
    <path d="M 50.92365 282.304589 
L 58.06605 282.304589 
L 65.20845 282.304589 
L 72.35085 282.304589 
L 79.49325 282.304589 
L 86.63565 282.304589 
L 93.77805 282.304589 
L 100.92045 282.304589 
L 108.06285 282.304589 
L 115.20525 282.304589 
L 122.34765 282.304589 
L 129.49005 282.304589 
L 136.63245 282.304589 
L 143.77485 282.304589 
L 150.91725 282.304589 
L 158.05965 282.304589 
L 165.20205 282.304589 
L 172.34445 282.304589 
L 179.48685 282.304589 
L 186.62925 282.304589 
L 193.77165 282.304589 
L 200.91405 282.304589 
L 208.05645 282.304589 
L 215.19885 282.304589 
L 222.34125 282.304589 
L 229.48365 282.304589 
L 236.62605 282.304589 
L 243.76845 282.304589 
L 250.91085 282.304589 
L 258.05325 282.304589 
L 265.19565 282.304589 
L 272.33805 282.304589 
L 279.48045 282.304589 
L 286.62285 282.304589 
L 293.76525 282.304589 
L 300.90765 282.304589 
L 302.057002 283.910437 
L 302.713774 283.910437 
L 300.90765 281.386962 
L 293.76525 281.386962 
L 286.62285 281.386962 
L 279.48045 281.386962 
L 272.33805 281.386962 
L 265.19565 281.386962 
L 258.05325 281.386962 
L 250.91085 281.386962 
L 243.76845 281.386962 
L 236.62605 281.386962 
L 229.48365 281.386962 
L 222.34125 281.386962 
L 215.19885 281.386962 
L 208.05645 281.386962 
L 200.91405 281.386962 
L 193.77165 281.386962 
L 186.62925 281.386962 
L 179.48685 281.386962 
L 172.34445 281.386962 
L 165.20205 281.386962 
L 158.05965 281.386962 
L 150.91725 281.386962 
L 143.77485 281.386962 
L 136.63245 281.386962 
L 129.49005 281.386962 
L 122.34765 281.386962 
L 115.20525 281.386962 
L 108.06285 281.386962 
L 100.92045 281.386962 
L 93.77805 281.386962 
L 86.63565 281.386962 
L 79.49325 281.386962 
L 72.35085 281.386962 
L 65.20845 281.386962 
L 58.06605 281.386962 
L 50.92365 281.386962 
L 43.78125 281.386962 
L 43.78125 282.304589 
z
" clip-path="url(#p7785b0744a)" style="fill: #5b3495"/>
    <path d="M 50.92365 283.222217 
L 58.06605 283.222217 
L 65.20845 283.222217 
L 72.35085 283.222217 
L 79.49325 283.222217 
L 86.63565 283.222217 
L 93.77805 283.222217 
L 100.92045 283.222217 
L 108.06285 283.222217 
L 115.20525 283.222217 
L 122.34765 283.222217 
L 129.49005 283.222217 
L 136.63245 283.222217 
L 143.77485 283.222217 
L 150.91725 283.222217 
L 158.05965 283.222217 
L 165.20205 283.222217 
L 172.34445 283.222217 
L 179.48685 283.222217 
L 186.62925 283.222217 
L 193.77165 283.222217 
L 200.91405 283.222217 
L 208.05645 283.222217 
L 215.19885 283.222217 
L 222.34125 283.222217 
L 229.48365 283.222217 
L 236.62605 283.222217 
L 243.76845 283.222217 
L 250.91085 283.222217 
L 258.05325 283.222217 
L 265.19565 283.222217 
L 272.33805 283.222217 
L 279.48045 283.222217 
L 286.62285 283.222217 
L 293.76525 283.222217 
L 300.90765 283.222217 
L 301.400229 283.910437 
L 302.057002 283.910437 
L 300.90765 282.304589 
L 293.76525 282.304589 
L 286.62285 282.304589 
L 279.48045 282.304589 
L 272.33805 282.304589 
L 265.19565 282.304589 
L 258.05325 282.304589 
L 250.91085 282.304589 
L 243.76845 282.304589 
L 236.62605 282.304589 
L 229.48365 282.304589 
L 222.34125 282.304589 
L 215.19885 282.304589 
L 208.05645 282.304589 
L 200.91405 282.304589 
L 193.77165 282.304589 
L 186.62925 282.304589 
L 179.48685 282.304589 
L 172.34445 282.304589 
L 165.20205 282.304589 
L 158.05965 282.304589 
L 150.91725 282.304589 
L 143.77485 282.304589 
L 136.63245 282.304589 
L 129.49005 282.304589 
L 122.34765 282.304589 
L 115.20525 282.304589 
L 108.06285 282.304589 
L 100.92045 282.304589 
L 93.77805 282.304589 
L 86.63565 282.304589 
L 79.49325 282.304589 
L 72.35085 282.304589 
L 65.20845 282.304589 
L 58.06605 282.304589 
L 50.92365 282.304589 
L 43.78125 282.304589 
L 43.78125 283.222217 
z
" clip-path="url(#p7785b0744a)" style="fill: #4f1f8b"/>
    <path d="M 50.92365 283.910437 
L 58.06605 283.910437 
L 65.20845 283.910437 
L 72.35085 283.910437 
L 79.49325 283.910437 
L 86.63565 283.910437 
L 93.77805 283.910437 
L 100.92045 283.910437 
L 108.06285 283.910437 
L 115.20525 283.910437 
L 122.34765 283.910437 
L 129.49005 283.910437 
L 136.63245 283.910437 
L 143.77485 283.910437 
L 150.91725 283.910437 
L 158.05965 283.910437 
L 165.20205 283.910437 
L 172.34445 283.910437 
L 179.48685 283.910437 
L 186.62925 283.910437 
L 193.77165 283.910437 
L 200.91405 283.910437 
L 208.05645 283.910437 
L 215.19885 283.910437 
L 222.34125 283.910437 
L 229.48365 283.910437 
L 236.62605 283.910437 
L 243.76845 283.910437 
L 250.91085 283.910437 
L 258.05325 283.910437 
L 265.19565 283.910437 
L 272.33805 283.910437 
L 279.48045 283.910437 
L 286.62285 283.910437 
L 293.76525 283.910437 
L 300.90765 283.910437 
L 301.400229 283.910437 
L 300.90765 283.222217 
L 293.76525 283.222217 
L 286.62285 283.222217 
L 279.48045 283.222217 
L 272.33805 283.222217 
L 265.19565 283.222217 
L 258.05325 283.222217 
L 250.91085 283.222217 
L 243.76845 283.222217 
L 236.62605 283.222217 
L 229.48365 283.222217 
L 222.34125 283.222217 
L 215.19885 283.222217 
L 208.05645 283.222217 
L 200.91405 283.222217 
L 193.77165 283.222217 
L 186.62925 283.222217 
L 179.48685 283.222217 
L 172.34445 283.222217 
L 165.20205 283.222217 
L 158.05965 283.222217 
L 150.91725 283.222217 
L 143.77485 283.222217 
L 136.63245 283.222217 
L 129.49005 283.222217 
L 122.34765 283.222217 
L 115.20525 283.222217 
L 108.06285 283.222217 
L 100.92045 283.222217 
L 93.77805 283.222217 
L 86.63565 283.222217 
L 79.49325 283.222217 
L 72.35085 283.222217 
L 65.20845 283.222217 
L 58.06605 283.222217 
L 50.92365 283.222217 
L 43.78125 283.222217 
L 43.78125 283.910437 
z
" clip-path="url(#p7785b0744a)" style="fill: #440a82"/>
   </g>
   <g id="matplotlib.axis_1">
    <g id="xtick_1">
     <g id="line2d_1">
      <defs>
       <path id="m4d58d1b44d" d="M 0 0 
L 0 3.5 
" style="stroke: #000000; stroke-width: 0.8"/>
      </defs>
      <g>
       <use xlink:href="#m4d58d1b44d" x="43.78125" y="283.910437" style="stroke: #000000; stroke-width: 0.8"/>
      </g>
     </g>
     <g id="text_1">
      <!-- 0.0 -->
      <g transform="translate(35.829688 298.508875) scale(0.1 -0.1)">
       <defs>
        <path id="DejaVuSans-30" d="M 2034 4250 
Q 1547 4250 1301 3770 
Q 1056 3291 1056 2328 
Q 1056 1369 1301 889 
Q 1547 409 2034 409 
Q 2525 409 2770 889 
Q 3016 1369 3016 2328 
Q 3016 3291 2770 3770 
Q 2525 4250 2034 4250 
z
M 2034 4750 
Q 2819 4750 3233 4129 
Q 3647 3509 3647 2328 
Q 3647 1150 3233 529 
Q 2819 -91 2034 -91 
Q 1250 -91 836 529 
Q 422 1150 422 2328 
Q 422 3509 836 4129 
Q 1250 4750 2034 4750 
z
" transform="scale(0.015625)"/>
        <path id="DejaVuSans-2e" d="M 684 794 
L 1344 794 
L 1344 0 
L 684 0 
L 684 794 
z
" transform="scale(0.015625)"/>
       </defs>
       <use xlink:href="#DejaVuSans-30"/>
       <use xlink:href="#DejaVuSans-2e" x="63.623047"/>
       <use xlink:href="#DejaVuSans-30" x="95.410156"/>
      </g>
     </g>
    </g>
    <g id="xtick_2">
     <g id="line2d_2">
      <g>
       <use xlink:href="#m4d58d1b44d" x="100.92045" y="283.910437" style="stroke: #000000; stroke-width: 0.8"/>
      </g>
     </g>
     <g id="text_2">
      <!-- 0.2 -->
      <g transform="translate(92.968888 298.508875) scale(0.1 -0.1)">
       <defs>
        <path id="DejaVuSans-32" d="M 1228 531 
L 3431 531 
L 3431 0 
L 469 0 
L 469 531 
Q 828 903 1448 1529 
Q 2069 2156 2228 2338 
Q 2531 2678 2651 2914 
Q 2772 3150 2772 3378 
Q 2772 3750 2511 3984 
Q 2250 4219 1831 4219 
Q 1534 4219 1204 4116 
Q 875 4013 500 3803 
L 500 4441 
Q 881 4594 1212 4672 
Q 1544 4750 1819 4750 
Q 2544 4750 2975 4387 
Q 3406 4025 3406 3419 
Q 3406 3131 3298 2873 
Q 3191 2616 2906 2266 
Q 2828 2175 2409 1742 
Q 1991 1309 1228 531 
z
" transform="scale(0.015625)"/>
       </defs>
       <use xlink:href="#DejaVuSans-30"/>
       <use xlink:href="#DejaVuSans-2e" x="63.623047"/>
       <use xlink:href="#DejaVuSans-32" x="95.410156"/>
      </g>
     </g>
    </g>
    <g id="xtick_3">
     <g id="line2d_3">
      <g>
       <use xlink:href="#m4d58d1b44d" x="158.05965" y="283.910437" style="stroke: #000000; stroke-width: 0.8"/>
      </g>
     </g>
     <g id="text_3">
      <!-- 0.4 -->
      <g transform="translate(150.108088 298.508875) scale(0.1 -0.1)">
       <defs>
        <path id="DejaVuSans-34" d="M 2419 4116 
L 825 1625 
L 2419 1625 
L 2419 4116 
z
M 2253 4666 
L 3047 4666 
L 3047 1625 
L 3713 1625 
L 3713 1100 
L 3047 1100 
L 3047 0 
L 2419 0 
L 2419 1100 
L 313 1100 
L 313 1709 
L 2253 4666 
z
" transform="scale(0.015625)"/>
       </defs>
       <use xlink:href="#DejaVuSans-30"/>
       <use xlink:href="#DejaVuSans-2e" x="63.623047"/>
       <use xlink:href="#DejaVuSans-34" x="95.410156"/>
      </g>
     </g>
    </g>
    <g id="xtick_4">
     <g id="line2d_4">
      <g>
       <use xlink:href="#m4d58d1b44d" x="215.19885" y="283.910437" style="stroke: #000000; stroke-width: 0.8"/>
      </g>
     </g>
     <g id="text_4">
      <!-- 0.6 -->
      <g transform="translate(207.247288 298.508875) scale(0.1 -0.1)">
       <defs>
        <path id="DejaVuSans-36" d="M 2113 2584 
Q 1688 2584 1439 2293 
Q 1191 2003 1191 1497 
Q 1191 994 1439 701 
Q 1688 409 2113 409 
Q 2538 409 2786 701 
Q 3034 994 3034 1497 
Q 3034 2003 2786 2293 
Q 2538 2584 2113 2584 
z
M 3366 4563 
L 3366 3988 
Q 3128 4100 2886 4159 
Q 2644 4219 2406 4219 
Q 1781 4219 1451 3797 
Q 1122 3375 1075 2522 
Q 1259 2794 1537 2939 
Q 1816 3084 2150 3084 
Q 2853 3084 3261 2657 
Q 3669 2231 3669 1497 
Q 3669 778 3244 343 
Q 2819 -91 2113 -91 
Q 1303 -91 875 529 
Q 447 1150 447 2328 
Q 447 3434 972 4092 
Q 1497 4750 2381 4750 
Q 2619 4750 2861 4703 
Q 3103 4656 3366 4563 
z
" transform="scale(0.015625)"/>
       </defs>
       <use xlink:href="#DejaVuSans-30"/>
       <use xlink:href="#DejaVuSans-2e" x="63.623047"/>
       <use xlink:href="#DejaVuSans-36" x="95.410156"/>
      </g>
     </g>
    </g>
    <g id="xtick_5">
     <g id="line2d_5">
      <g>
       <use xlink:href="#m4d58d1b44d" x="272.33805" y="283.910437" style="stroke: #000000; stroke-width: 0.8"/>
      </g>
     </g>
     <g id="text_5">
      <!-- 0.8 -->
      <g transform="translate(264.386488 298.508875) scale(0.1 -0.1)">
       <defs>
        <path id="DejaVuSans-38" d="M 2034 2216 
Q 1584 2216 1326 1975 
Q 1069 1734 1069 1313 
Q 1069 891 1326 650 
Q 1584 409 2034 409 
Q 2484 409 2743 651 
Q 3003 894 3003 1313 
Q 3003 1734 2745 1975 
Q 2488 2216 2034 2216 
z
M 1403 2484 
Q 997 2584 770 2862 
Q 544 3141 544 3541 
Q 544 4100 942 4425 
Q 1341 4750 2034 4750 
Q 2731 4750 3128 4425 
Q 3525 4100 3525 3541 
Q 3525 3141 3298 2862 
Q 3072 2584 2669 2484 
Q 3125 2378 3379 2068 
Q 3634 1759 3634 1313 
Q 3634 634 3220 271 
Q 2806 -91 2034 -91 
Q 1263 -91 848 271 
Q 434 634 434 1313 
Q 434 1759 690 2068 
Q 947 2378 1403 2484 
z
M 1172 3481 
Q 1172 3119 1398 2916 
Q 1625 2713 2034 2713 
Q 2441 2713 2670 2916 
Q 2900 3119 2900 3481 
Q 2900 3844 2670 4047 
Q 2441 4250 2034 4250 
Q 1625 4250 1398 4047 
Q 1172 3844 1172 3481 
z
" transform="scale(0.015625)"/>
       </defs>
       <use xlink:href="#DejaVuSans-30"/>
       <use xlink:href="#DejaVuSans-2e" x="63.623047"/>
       <use xlink:href="#DejaVuSans-38" x="95.410156"/>
      </g>
     </g>
    </g>
    <g id="xtick_6">
     <g id="line2d_6">
      <g>
       <use xlink:href="#m4d58d1b44d" x="329.47725" y="283.910437" style="stroke: #000000; stroke-width: 0.8"/>
      </g>
     </g>
     <g id="text_6">
      <!-- 1.0 -->
      <g transform="translate(321.525688 298.508875) scale(0.1 -0.1)">
       <defs>
        <path id="DejaVuSans-31" d="M 794 531 
L 1825 531 
L 1825 4091 
L 703 3866 
L 703 4441 
L 1819 4666 
L 2450 4666 
L 2450 531 
L 3481 531 
L 3481 0 
L 794 0 
L 794 531 
z
" transform="scale(0.015625)"/>
       </defs>
       <use xlink:href="#DejaVuSans-31"/>
       <use xlink:href="#DejaVuSans-2e" x="63.623047"/>
       <use xlink:href="#DejaVuSans-30" x="95.410156"/>
      </g>
     </g>
    </g>
    <g id="text_7">
     <!-- Equity in Vaccination Burden Multiplier (a) -->
     <g transform="translate(81.262844 312.187) scale(0.1 -0.1)">
      <defs>
       <path id="DejaVuSans-45" d="M 628 4666 
L 3578 4666 
L 3578 4134 
L 1259 4134 
L 1259 2753 
L 3481 2753 
L 3481 2222 
L 1259 2222 
L 1259 531 
L 3634 531 
L 3634 0 
L 628 0 
L 628 4666 
z
" transform="scale(0.015625)"/>
       <path id="DejaVuSans-71" d="M 947 1747 
Q 947 1113 1208 752 
Q 1469 391 1925 391 
Q 2381 391 2643 752 
Q 2906 1113 2906 1747 
Q 2906 2381 2643 2742 
Q 2381 3103 1925 3103 
Q 1469 3103 1208 2742 
Q 947 2381 947 1747 
z
M 2906 525 
Q 2725 213 2448 61 
Q 2172 -91 1784 -91 
Q 1150 -91 751 415 
Q 353 922 353 1747 
Q 353 2572 751 3078 
Q 1150 3584 1784 3584 
Q 2172 3584 2448 3432 
Q 2725 3281 2906 2969 
L 2906 3500 
L 3481 3500 
L 3481 -1331 
L 2906 -1331 
L 2906 525 
z
" transform="scale(0.015625)"/>
       <path id="DejaVuSans-75" d="M 544 1381 
L 544 3500 
L 1119 3500 
L 1119 1403 
Q 1119 906 1312 657 
Q 1506 409 1894 409 
Q 2359 409 2629 706 
Q 2900 1003 2900 1516 
L 2900 3500 
L 3475 3500 
L 3475 0 
L 2900 0 
L 2900 538 
Q 2691 219 2414 64 
Q 2138 -91 1772 -91 
Q 1169 -91 856 284 
Q 544 659 544 1381 
z
M 1991 3584 
L 1991 3584 
z
" transform="scale(0.015625)"/>
       <path id="DejaVuSans-69" d="M 603 3500 
L 1178 3500 
L 1178 0 
L 603 0 
L 603 3500 
z
M 603 4863 
L 1178 4863 
L 1178 4134 
L 603 4134 
L 603 4863 
z
" transform="scale(0.015625)"/>
       <path id="DejaVuSans-74" d="M 1172 4494 
L 1172 3500 
L 2356 3500 
L 2356 3053 
L 1172 3053 
L 1172 1153 
Q 1172 725 1289 603 
Q 1406 481 1766 481 
L 2356 481 
L 2356 0 
L 1766 0 
Q 1100 0 847 248 
Q 594 497 594 1153 
L 594 3053 
L 172 3053 
L 172 3500 
L 594 3500 
L 594 4494 
L 1172 4494 
z
" transform="scale(0.015625)"/>
       <path id="DejaVuSans-79" d="M 2059 -325 
Q 1816 -950 1584 -1140 
Q 1353 -1331 966 -1331 
L 506 -1331 
L 506 -850 
L 844 -850 
Q 1081 -850 1212 -737 
Q 1344 -625 1503 -206 
L 1606 56 
L 191 3500 
L 800 3500 
L 1894 763 
L 2988 3500 
L 3597 3500 
L 2059 -325 
z
" transform="scale(0.015625)"/>
       <path id="DejaVuSans-20" transform="scale(0.015625)"/>
       <path id="DejaVuSans-6e" d="M 3513 2113 
L 3513 0 
L 2938 0 
L 2938 2094 
Q 2938 2591 2744 2837 
Q 2550 3084 2163 3084 
Q 1697 3084 1428 2787 
Q 1159 2491 1159 1978 
L 1159 0 
L 581 0 
L 581 3500 
L 1159 3500 
L 1159 2956 
Q 1366 3272 1645 3428 
Q 1925 3584 2291 3584 
Q 2894 3584 3203 3211 
Q 3513 2838 3513 2113 
z
" transform="scale(0.015625)"/>
       <path id="DejaVuSans-56" d="M 1831 0 
L 50 4666 
L 709 4666 
L 2188 738 
L 3669 4666 
L 4325 4666 
L 2547 0 
L 1831 0 
z
" transform="scale(0.015625)"/>
       <path id="DejaVuSans-61" d="M 2194 1759 
Q 1497 1759 1228 1600 
Q 959 1441 959 1056 
Q 959 750 1161 570 
Q 1363 391 1709 391 
Q 2188 391 2477 730 
Q 2766 1069 2766 1631 
L 2766 1759 
L 2194 1759 
z
M 3341 1997 
L 3341 0 
L 2766 0 
L 2766 531 
Q 2569 213 2275 61 
Q 1981 -91 1556 -91 
Q 1019 -91 701 211 
Q 384 513 384 1019 
Q 384 1609 779 1909 
Q 1175 2209 1959 2209 
L 2766 2209 
L 2766 2266 
Q 2766 2663 2505 2880 
Q 2244 3097 1772 3097 
Q 1472 3097 1187 3025 
Q 903 2953 641 2809 
L 641 3341 
Q 956 3463 1253 3523 
Q 1550 3584 1831 3584 
Q 2591 3584 2966 3190 
Q 3341 2797 3341 1997 
z
" transform="scale(0.015625)"/>
       <path id="DejaVuSans-63" d="M 3122 3366 
L 3122 2828 
Q 2878 2963 2633 3030 
Q 2388 3097 2138 3097 
Q 1578 3097 1268 2742 
Q 959 2388 959 1747 
Q 959 1106 1268 751 
Q 1578 397 2138 397 
Q 2388 397 2633 464 
Q 2878 531 3122 666 
L 3122 134 
Q 2881 22 2623 -34 
Q 2366 -91 2075 -91 
Q 1284 -91 818 406 
Q 353 903 353 1747 
Q 353 2603 823 3093 
Q 1294 3584 2113 3584 
Q 2378 3584 2631 3529 
Q 2884 3475 3122 3366 
z
" transform="scale(0.015625)"/>
       <path id="DejaVuSans-6f" d="M 1959 3097 
Q 1497 3097 1228 2736 
Q 959 2375 959 1747 
Q 959 1119 1226 758 
Q 1494 397 1959 397 
Q 2419 397 2687 759 
Q 2956 1122 2956 1747 
Q 2956 2369 2687 2733 
Q 2419 3097 1959 3097 
z
M 1959 3584 
Q 2709 3584 3137 3096 
Q 3566 2609 3566 1747 
Q 3566 888 3137 398 
Q 2709 -91 1959 -91 
Q 1206 -91 779 398 
Q 353 888 353 1747 
Q 353 2609 779 3096 
Q 1206 3584 1959 3584 
z
" transform="scale(0.015625)"/>
       <path id="DejaVuSans-42" d="M 1259 2228 
L 1259 519 
L 2272 519 
Q 2781 519 3026 730 
Q 3272 941 3272 1375 
Q 3272 1813 3026 2020 
Q 2781 2228 2272 2228 
L 1259 2228 
z
M 1259 4147 
L 1259 2741 
L 2194 2741 
Q 2656 2741 2882 2914 
Q 3109 3088 3109 3444 
Q 3109 3797 2882 3972 
Q 2656 4147 2194 4147 
L 1259 4147 
z
M 628 4666 
L 2241 4666 
Q 2963 4666 3353 4366 
Q 3744 4066 3744 3513 
Q 3744 3084 3544 2831 
Q 3344 2578 2956 2516 
Q 3422 2416 3680 2098 
Q 3938 1781 3938 1306 
Q 3938 681 3513 340 
Q 3088 0 2303 0 
L 628 0 
L 628 4666 
z
" transform="scale(0.015625)"/>
       <path id="DejaVuSans-72" d="M 2631 2963 
Q 2534 3019 2420 3045 
Q 2306 3072 2169 3072 
Q 1681 3072 1420 2755 
Q 1159 2438 1159 1844 
L 1159 0 
L 581 0 
L 581 3500 
L 1159 3500 
L 1159 2956 
Q 1341 3275 1631 3429 
Q 1922 3584 2338 3584 
Q 2397 3584 2469 3576 
Q 2541 3569 2628 3553 
L 2631 2963 
z
" transform="scale(0.015625)"/>
       <path id="DejaVuSans-64" d="M 2906 2969 
L 2906 4863 
L 3481 4863 
L 3481 0 
L 2906 0 
L 2906 525 
Q 2725 213 2448 61 
Q 2172 -91 1784 -91 
Q 1150 -91 751 415 
Q 353 922 353 1747 
Q 353 2572 751 3078 
Q 1150 3584 1784 3584 
Q 2172 3584 2448 3432 
Q 2725 3281 2906 2969 
z
M 947 1747 
Q 947 1113 1208 752 
Q 1469 391 1925 391 
Q 2381 391 2643 752 
Q 2906 1113 2906 1747 
Q 2906 2381 2643 2742 
Q 2381 3103 1925 3103 
Q 1469 3103 1208 2742 
Q 947 2381 947 1747 
z
" transform="scale(0.015625)"/>
       <path id="DejaVuSans-65" d="M 3597 1894 
L 3597 1613 
L 953 1613 
Q 991 1019 1311 708 
Q 1631 397 2203 397 
Q 2534 397 2845 478 
Q 3156 559 3463 722 
L 3463 178 
Q 3153 47 2828 -22 
Q 2503 -91 2169 -91 
Q 1331 -91 842 396 
Q 353 884 353 1716 
Q 353 2575 817 3079 
Q 1281 3584 2069 3584 
Q 2775 3584 3186 3129 
Q 3597 2675 3597 1894 
z
M 3022 2063 
Q 3016 2534 2758 2815 
Q 2500 3097 2075 3097 
Q 1594 3097 1305 2825 
Q 1016 2553 972 2059 
L 3022 2063 
z
" transform="scale(0.015625)"/>
       <path id="DejaVuSans-4d" d="M 628 4666 
L 1569 4666 
L 2759 1491 
L 3956 4666 
L 4897 4666 
L 4897 0 
L 4281 0 
L 4281 4097 
L 3078 897 
L 2444 897 
L 1241 4097 
L 1241 0 
L 628 0 
L 628 4666 
z
" transform="scale(0.015625)"/>
       <path id="DejaVuSans-6c" d="M 603 4863 
L 1178 4863 
L 1178 0 
L 603 0 
L 603 4863 
z
" transform="scale(0.015625)"/>
       <path id="DejaVuSans-70" d="M 1159 525 
L 1159 -1331 
L 581 -1331 
L 581 3500 
L 1159 3500 
L 1159 2969 
Q 1341 3281 1617 3432 
Q 1894 3584 2278 3584 
Q 2916 3584 3314 3078 
Q 3713 2572 3713 1747 
Q 3713 922 3314 415 
Q 2916 -91 2278 -91 
Q 1894 -91 1617 61 
Q 1341 213 1159 525 
z
M 3116 1747 
Q 3116 2381 2855 2742 
Q 2594 3103 2138 3103 
Q 1681 3103 1420 2742 
Q 1159 2381 1159 1747 
Q 1159 1113 1420 752 
Q 1681 391 2138 391 
Q 2594 391 2855 752 
Q 3116 1113 3116 1747 
z
" transform="scale(0.015625)"/>
       <path id="DejaVuSans-28" d="M 1984 4856 
Q 1566 4138 1362 3434 
Q 1159 2731 1159 2009 
Q 1159 1288 1364 580 
Q 1569 -128 1984 -844 
L 1484 -844 
Q 1016 -109 783 600 
Q 550 1309 550 2009 
Q 550 2706 781 3412 
Q 1013 4119 1484 4856 
L 1984 4856 
z
" transform="scale(0.015625)"/>
       <path id="DejaVuSans-29" d="M 513 4856 
L 1013 4856 
Q 1481 4119 1714 3412 
Q 1947 2706 1947 2009 
Q 1947 1309 1714 600 
Q 1481 -109 1013 -844 
L 513 -844 
Q 928 -128 1133 580 
Q 1338 1288 1338 2009 
Q 1338 2731 1133 3434 
Q 928 4138 513 4856 
z
" transform="scale(0.015625)"/>
      </defs>
      <use xlink:href="#DejaVuSans-45"/>
      <use xlink:href="#DejaVuSans-71" x="63.183594"/>
      <use xlink:href="#DejaVuSans-75" x="126.660156"/>
      <use xlink:href="#DejaVuSans-69" x="190.039062"/>
      <use xlink:href="#DejaVuSans-74" x="217.822266"/>
      <use xlink:href="#DejaVuSans-79" x="257.03125"/>
      <use xlink:href="#DejaVuSans-20" x="316.210938"/>
      <use xlink:href="#DejaVuSans-69" x="347.998047"/>
      <use xlink:href="#DejaVuSans-6e" x="375.78125"/>
      <use xlink:href="#DejaVuSans-20" x="439.160156"/>
      <use xlink:href="#DejaVuSans-56" x="470.947266"/>
      <use xlink:href="#DejaVuSans-61" x="531.605469"/>
      <use xlink:href="#DejaVuSans-63" x="592.884766"/>
      <use xlink:href="#DejaVuSans-63" x="647.865234"/>
      <use xlink:href="#DejaVuSans-69" x="702.845703"/>
      <use xlink:href="#DejaVuSans-6e" x="730.628906"/>
      <use xlink:href="#DejaVuSans-61" x="794.007812"/>
      <use xlink:href="#DejaVuSans-74" x="855.287109"/>
      <use xlink:href="#DejaVuSans-69" x="894.496094"/>
      <use xlink:href="#DejaVuSans-6f" x="922.279297"/>
      <use xlink:href="#DejaVuSans-6e" x="983.460938"/>
      <use xlink:href="#DejaVuSans-20" x="1046.839844"/>
      <use xlink:href="#DejaVuSans-42" x="1078.626953"/>
      <use xlink:href="#DejaVuSans-75" x="1147.230469"/>
      <use xlink:href="#DejaVuSans-72" x="1210.609375"/>
      <use xlink:href="#DejaVuSans-64" x="1249.972656"/>
      <use xlink:href="#DejaVuSans-65" x="1313.449219"/>
      <use xlink:href="#DejaVuSans-6e" x="1374.972656"/>
      <use xlink:href="#DejaVuSans-20" x="1438.351562"/>
      <use xlink:href="#DejaVuSans-4d" x="1470.138672"/>
      <use xlink:href="#DejaVuSans-75" x="1556.417969"/>
      <use xlink:href="#DejaVuSans-6c" x="1619.796875"/>
      <use xlink:href="#DejaVuSans-74" x="1647.580078"/>
      <use xlink:href="#DejaVuSans-69" x="1686.789062"/>
      <use xlink:href="#DejaVuSans-70" x="1714.572266"/>
      <use xlink:href="#DejaVuSans-6c" x="1778.048828"/>
      <use xlink:href="#DejaVuSans-69" x="1805.832031"/>
      <use xlink:href="#DejaVuSans-65" x="1833.615234"/>
      <use xlink:href="#DejaVuSans-72" x="1895.138672"/>
      <use xlink:href="#DejaVuSans-20" x="1936.251953"/>
      <use xlink:href="#DejaVuSans-28" x="1968.039062"/>
      <use xlink:href="#DejaVuSans-61" x="2007.052734"/>
      <use xlink:href="#DejaVuSans-29" x="2068.332031"/>
     </g>
    </g>
   </g>
   <g id="matplotlib.axis_2">
    <g id="ytick_1">
     <g id="line2d_7">
      <defs>
       <path id="m0894f97d22" d="M 0 0 
L -3.5 0 
" style="stroke: #000000; stroke-width: 0.8"/>
      </defs>
      <g>
       <use xlink:href="#m0894f97d22" x="43.78125" y="283.910437" style="stroke: #000000; stroke-width: 0.8"/>
      </g>
     </g>
     <g id="text_8">
      <!-- 0.0 -->
      <g transform="translate(20.878125 287.709656) scale(0.1 -0.1)">
       <use xlink:href="#DejaVuSans-30"/>
       <use xlink:href="#DejaVuSans-2e" x="63.623047"/>
       <use xlink:href="#DejaVuSans-30" x="95.410156"/>
      </g>
     </g>
    </g>
    <g id="ytick_2">
     <g id="line2d_8">
      <g>
       <use xlink:href="#m0894f97d22" x="43.78125" y="230.688037" style="stroke: #000000; stroke-width: 0.8"/>
      </g>
     </g>
     <g id="text_9">
      <!-- 0.2 -->
      <g transform="translate(20.878125 234.487256) scale(0.1 -0.1)">
       <use xlink:href="#DejaVuSans-30"/>
       <use xlink:href="#DejaVuSans-2e" x="63.623047"/>
       <use xlink:href="#DejaVuSans-32" x="95.410156"/>
      </g>
     </g>
    </g>
    <g id="ytick_3">
     <g id="line2d_9">
      <g>
       <use xlink:href="#m0894f97d22" x="43.78125" y="177.465637" style="stroke: #000000; stroke-width: 0.8"/>
      </g>
     </g>
     <g id="text_10">
      <!-- 0.4 -->
      <g transform="translate(20.878125 181.264856) scale(0.1 -0.1)">
       <use xlink:href="#DejaVuSans-30"/>
       <use xlink:href="#DejaVuSans-2e" x="63.623047"/>
       <use xlink:href="#DejaVuSans-34" x="95.410156"/>
      </g>
     </g>
    </g>
    <g id="ytick_4">
     <g id="line2d_10">
      <g>
       <use xlink:href="#m0894f97d22" x="43.78125" y="124.243237" style="stroke: #000000; stroke-width: 0.8"/>
      </g>
     </g>
     <g id="text_11">
      <!-- 0.6 -->
      <g transform="translate(20.878125 128.042456) scale(0.1 -0.1)">
       <use xlink:href="#DejaVuSans-30"/>
       <use xlink:href="#DejaVuSans-2e" x="63.623047"/>
       <use xlink:href="#DejaVuSans-36" x="95.410156"/>
      </g>
     </g>
    </g>
    <g id="ytick_5">
     <g id="line2d_11">
      <g>
       <use xlink:href="#m0894f97d22" x="43.78125" y="71.020837" style="stroke: #000000; stroke-width: 0.8"/>
      </g>
     </g>
     <g id="text_12">
      <!-- 0.8 -->
      <g transform="translate(20.878125 74.820056) scale(0.1 -0.1)">
       <use xlink:href="#DejaVuSans-30"/>
       <use xlink:href="#DejaVuSans-2e" x="63.623047"/>
       <use xlink:href="#DejaVuSans-38" x="95.410156"/>
      </g>
     </g>
    </g>
    <g id="ytick_6">
     <g id="line2d_12">
      <g>
       <use xlink:href="#m0894f97d22" x="43.78125" y="17.798437" style="stroke: #000000; stroke-width: 0.8"/>
      </g>
     </g>
     <g id="text_13">
      <!-- 1.0 -->
      <g transform="translate(20.878125 21.597656) scale(0.1 -0.1)">
       <use xlink:href="#DejaVuSans-31"/>
       <use xlink:href="#DejaVuSans-2e" x="63.623047"/>
       <use xlink:href="#DejaVuSans-30" x="95.410156"/>
      </g>
     </g>
    </g>
    <g id="text_14">
     <!-- Equity in Infection Burden Multiplier (b) -->
     <g transform="translate(14.798438 249.3435) rotate(-90) scale(0.1 -0.1)">
      <defs>
       <path id="DejaVuSans-49" d="M 628 4666 
L 1259 4666 
L 1259 0 
L 628 0 
L 628 4666 
z
" transform="scale(0.015625)"/>
       <path id="DejaVuSans-66" d="M 2375 4863 
L 2375 4384 
L 1825 4384 
Q 1516 4384 1395 4259 
Q 1275 4134 1275 3809 
L 1275 3500 
L 2222 3500 
L 2222 3053 
L 1275 3053 
L 1275 0 
L 697 0 
L 697 3053 
L 147 3053 
L 147 3500 
L 697 3500 
L 697 3744 
Q 697 4328 969 4595 
Q 1241 4863 1831 4863 
L 2375 4863 
z
" transform="scale(0.015625)"/>
       <path id="DejaVuSans-62" d="M 3116 1747 
Q 3116 2381 2855 2742 
Q 2594 3103 2138 3103 
Q 1681 3103 1420 2742 
Q 1159 2381 1159 1747 
Q 1159 1113 1420 752 
Q 1681 391 2138 391 
Q 2594 391 2855 752 
Q 3116 1113 3116 1747 
z
M 1159 2969 
Q 1341 3281 1617 3432 
Q 1894 3584 2278 3584 
Q 2916 3584 3314 3078 
Q 3713 2572 3713 1747 
Q 3713 922 3314 415 
Q 2916 -91 2278 -91 
Q 1894 -91 1617 61 
Q 1341 213 1159 525 
L 1159 0 
L 581 0 
L 581 4863 
L 1159 4863 
L 1159 2969 
z
" transform="scale(0.015625)"/>
      </defs>
      <use xlink:href="#DejaVuSans-45"/>
      <use xlink:href="#DejaVuSans-71" x="63.183594"/>
      <use xlink:href="#DejaVuSans-75" x="126.660156"/>
      <use xlink:href="#DejaVuSans-69" x="190.039062"/>
      <use xlink:href="#DejaVuSans-74" x="217.822266"/>
      <use xlink:href="#DejaVuSans-79" x="257.03125"/>
      <use xlink:href="#DejaVuSans-20" x="316.210938"/>
      <use xlink:href="#DejaVuSans-69" x="347.998047"/>
      <use xlink:href="#DejaVuSans-6e" x="375.78125"/>
      <use xlink:href="#DejaVuSans-20" x="439.160156"/>
      <use xlink:href="#DejaVuSans-49" x="470.947266"/>
      <use xlink:href="#DejaVuSans-6e" x="500.439453"/>
      <use xlink:href="#DejaVuSans-66" x="563.818359"/>
      <use xlink:href="#DejaVuSans-65" x="599.023438"/>
      <use xlink:href="#DejaVuSans-63" x="660.546875"/>
      <use xlink:href="#DejaVuSans-74" x="715.527344"/>
      <use xlink:href="#DejaVuSans-69" x="754.736328"/>
      <use xlink:href="#DejaVuSans-6f" x="782.519531"/>
      <use xlink:href="#DejaVuSans-6e" x="843.701172"/>
      <use xlink:href="#DejaVuSans-20" x="907.080078"/>
      <use xlink:href="#DejaVuSans-42" x="938.867188"/>
      <use xlink:href="#DejaVuSans-75" x="1007.470703"/>
      <use xlink:href="#DejaVuSans-72" x="1070.849609"/>
      <use xlink:href="#DejaVuSans-64" x="1110.212891"/>
      <use xlink:href="#DejaVuSans-65" x="1173.689453"/>
      <use xlink:href="#DejaVuSans-6e" x="1235.212891"/>
      <use xlink:href="#DejaVuSans-20" x="1298.591797"/>
      <use xlink:href="#DejaVuSans-4d" x="1330.378906"/>
      <use xlink:href="#DejaVuSans-75" x="1416.658203"/>
      <use xlink:href="#DejaVuSans-6c" x="1480.037109"/>
      <use xlink:href="#DejaVuSans-74" x="1507.820312"/>
      <use xlink:href="#DejaVuSans-69" x="1547.029297"/>
      <use xlink:href="#DejaVuSans-70" x="1574.8125"/>
      <use xlink:href="#DejaVuSans-6c" x="1638.289062"/>
      <use xlink:href="#DejaVuSans-69" x="1666.072266"/>
      <use xlink:href="#DejaVuSans-65" x="1693.855469"/>
      <use xlink:href="#DejaVuSans-72" x="1755.378906"/>
      <use xlink:href="#DejaVuSans-20" x="1796.492188"/>
      <use xlink:href="#DejaVuSans-28" x="1828.279297"/>
      <use xlink:href="#DejaVuSans-62" x="1867.292969"/>
      <use xlink:href="#DejaVuSans-29" x="1930.769531"/>
     </g>
    </g>
   </g>
   <g id="patch_3">
    <path d="M 43.78125 283.910437 
L 43.78125 17.798437 
" style="fill: none; stroke: #000000; stroke-width: 0.8; stroke-linejoin: miter; stroke-linecap: square"/>
   </g>
   <g id="patch_4">
    <path d="M 329.47725 283.910437 
L 329.47725 17.798437 
" style="fill: none; stroke: #000000; stroke-width: 0.8; stroke-linejoin: miter; stroke-linecap: square"/>
   </g>
   <g id="patch_5">
    <path d="M 43.78125 283.910437 
L 329.47725 283.910437 
" style="fill: none; stroke: #000000; stroke-width: 0.8; stroke-linejoin: miter; stroke-linecap: square"/>
   </g>
   <g id="patch_6">
    <path d="M 43.78125 17.798437 
L 329.47725 17.798437 
" style="fill: none; stroke: #000000; stroke-width: 0.8; stroke-linejoin: miter; stroke-linecap: square"/>
   </g>
  </g>
  <g id="axes_2">
   <g id="patch_7">
    <path d="M 347.33325 283.910437 
L 360.63885 283.910437 
L 360.63885 17.798437 
L 347.33325 17.798437 
z
" style="fill: #ffffff"/>
   </g>
   <g id="QuadMesh_1">
    <path d="M 347.33325 283.910437 
L 360.63885 283.910437 
L 360.63885 266.169637 
L 347.33325 266.169637 
L 347.33325 283.910437 
" clip-path="url(#pc274a7d023)" style="fill: #f9f7fb"/>
    <path d="M 347.33325 266.169637 
L 360.63885 266.169637 
L 360.63885 248.428837 
L 347.33325 248.428837 
L 347.33325 266.169637 
" clip-path="url(#pc274a7d023)" style="fill: #f2f0f7"/>
    <path d="M 347.33325 248.428837 
L 360.63885 248.428837 
L 360.63885 230.688037 
L 347.33325 230.688037 
L 347.33325 248.428837 
" clip-path="url(#pc274a7d023)" style="fill: #e8e7f2"/>
    <path d="M 347.33325 230.688037 
L 360.63885 230.688037 
L 360.63885 212.947237 
L 347.33325 212.947237 
L 347.33325 230.688037 
" clip-path="url(#pc274a7d023)" style="fill: #ddddec"/>
    <path d="M 347.33325 212.947237 
L 360.63885 212.947237 
L 360.63885 195.206437 
L 347.33325 195.206437 
L 347.33325 212.947237 
" clip-path="url(#pc274a7d023)" style="fill: #cecfe5"/>
    <path d="M 347.33325 195.206437 
L 360.63885 195.206437 
L 360.63885 177.465637 
L 347.33325 177.465637 
L 347.33325 195.206437 
" clip-path="url(#pc274a7d023)" style="fill: #bebfdd"/>
    <path d="M 347.33325 177.465637 
L 360.63885 177.465637 
L 360.63885 159.724837 
L 347.33325 159.724837 
L 347.33325 177.465637 
" clip-path="url(#pc274a7d023)" style="fill: #aeadd3"/>
    <path d="M 347.33325 159.724837 
L 360.63885 159.724837 
L 360.63885 141.984037 
L 347.33325 141.984037 
L 347.33325 159.724837 
" clip-path="url(#pc274a7d023)" style="fill: #9e9ac8"/>
    <path d="M 347.33325 141.984037 
L 360.63885 141.984037 
L 360.63885 124.243237 
L 347.33325 124.243237 
L 347.33325 141.984037 
" clip-path="url(#pc274a7d023)" style="fill: #8e8ac0"/>
    <path d="M 347.33325 124.243237 
L 360.63885 124.243237 
L 360.63885 106.502437 
L 347.33325 106.502437 
L 347.33325 124.243237 
" clip-path="url(#pc274a7d023)" style="fill: #7e79b8"/>
    <path d="M 347.33325 106.502437 
L 360.63885 106.502437 
L 360.63885 88.761637 
L 347.33325 88.761637 
L 347.33325 106.502437 
" clip-path="url(#pc274a7d023)" style="fill: #7262ac"/>
    <path d="M 347.33325 88.761637 
L 360.63885 88.761637 
L 360.63885 71.020837 
L 347.33325 71.020837 
L 347.33325 88.761637 
" clip-path="url(#pc274a7d023)" style="fill: #674ba0"/>
    <path d="M 347.33325 71.020837 
L 360.63885 71.020837 
L 360.63885 53.280037 
L 347.33325 53.280037 
L 347.33325 71.020837 
" clip-path="url(#pc274a7d023)" style="fill: #5b3495"/>
    <path d="M 347.33325 53.280037 
L 360.63885 53.280037 
L 360.63885 35.539237 
L 347.33325 35.539237 
L 347.33325 53.280037 
" clip-path="url(#pc274a7d023)" style="fill: #4f1f8b"/>
    <path d="M 347.33325 35.539237 
L 360.63885 35.539237 
L 360.63885 17.798437 
L 347.33325 17.798437 
L 347.33325 35.539237 
" clip-path="url(#pc274a7d023)" style="fill: #440a82"/>
   </g>
   <g id="matplotlib.axis_3"/>
   <g id="matplotlib.axis_4">
    <g id="ytick_7">
     <g id="line2d_13">
      <defs>
       <path id="mfb48fb7c23" d="M 0 0 
L 3.5 0 
" style="stroke: #000000; stroke-width: 0.8"/>
      </defs>
      <g>
       <use xlink:href="#mfb48fb7c23" x="360.63885" y="283.910437" style="stroke: #000000; stroke-width: 0.8"/>
      </g>
     </g>
     <g id="text_15">
      <!-- 2.0 -->
      <g transform="translate(367.63885 287.709656) scale(0.1 -0.1)">
       <use xlink:href="#DejaVuSans-32"/>
       <use xlink:href="#DejaVuSans-2e" x="63.623047"/>
       <use xlink:href="#DejaVuSans-30" x="95.410156"/>
      </g>
     </g>
    </g>
    <g id="ytick_8">
     <g id="line2d_14">
      <g>
       <use xlink:href="#mfb48fb7c23" x="360.63885" y="248.428837" style="stroke: #000000; stroke-width: 0.8"/>
      </g>
     </g>
     <g id="text_16">
      <!-- 2.4 -->
      <g transform="translate(367.63885 252.228056) scale(0.1 -0.1)">
       <use xlink:href="#DejaVuSans-32"/>
       <use xlink:href="#DejaVuSans-2e" x="63.623047"/>
       <use xlink:href="#DejaVuSans-34" x="95.410156"/>
      </g>
     </g>
    </g>
    <g id="ytick_9">
     <g id="line2d_15">
      <g>
       <use xlink:href="#mfb48fb7c23" x="360.63885" y="212.947237" style="stroke: #000000; stroke-width: 0.8"/>
      </g>
     </g>
     <g id="text_17">
      <!-- 2.8 -->
      <g transform="translate(367.63885 216.746456) scale(0.1 -0.1)">
       <use xlink:href="#DejaVuSans-32"/>
       <use xlink:href="#DejaVuSans-2e" x="63.623047"/>
       <use xlink:href="#DejaVuSans-38" x="95.410156"/>
      </g>
     </g>
    </g>
    <g id="ytick_10">
     <g id="line2d_16">
      <g>
       <use xlink:href="#mfb48fb7c23" x="360.63885" y="177.465637" style="stroke: #000000; stroke-width: 0.8"/>
      </g>
     </g>
     <g id="text_18">
      <!-- 3.2 -->
      <g transform="translate(367.63885 181.264856) scale(0.1 -0.1)">
       <defs>
        <path id="DejaVuSans-33" d="M 2597 2516 
Q 3050 2419 3304 2112 
Q 3559 1806 3559 1356 
Q 3559 666 3084 287 
Q 2609 -91 1734 -91 
Q 1441 -91 1130 -33 
Q 819 25 488 141 
L 488 750 
Q 750 597 1062 519 
Q 1375 441 1716 441 
Q 2309 441 2620 675 
Q 2931 909 2931 1356 
Q 2931 1769 2642 2001 
Q 2353 2234 1838 2234 
L 1294 2234 
L 1294 2753 
L 1863 2753 
Q 2328 2753 2575 2939 
Q 2822 3125 2822 3475 
Q 2822 3834 2567 4026 
Q 2313 4219 1838 4219 
Q 1578 4219 1281 4162 
Q 984 4106 628 3988 
L 628 4550 
Q 988 4650 1302 4700 
Q 1616 4750 1894 4750 
Q 2613 4750 3031 4423 
Q 3450 4097 3450 3541 
Q 3450 3153 3228 2886 
Q 3006 2619 2597 2516 
z
" transform="scale(0.015625)"/>
       </defs>
       <use xlink:href="#DejaVuSans-33"/>
       <use xlink:href="#DejaVuSans-2e" x="63.623047"/>
       <use xlink:href="#DejaVuSans-32" x="95.410156"/>
      </g>
     </g>
    </g>
    <g id="ytick_11">
     <g id="line2d_17">
      <g>
       <use xlink:href="#mfb48fb7c23" x="360.63885" y="141.984037" style="stroke: #000000; stroke-width: 0.8"/>
      </g>
     </g>
     <g id="text_19">
      <!-- 3.6 -->
      <g transform="translate(367.63885 145.783256) scale(0.1 -0.1)">
       <use xlink:href="#DejaVuSans-33"/>
       <use xlink:href="#DejaVuSans-2e" x="63.623047"/>
       <use xlink:href="#DejaVuSans-36" x="95.410156"/>
      </g>
     </g>
    </g>
    <g id="ytick_12">
     <g id="line2d_18">
      <g>
       <use xlink:href="#mfb48fb7c23" x="360.63885" y="106.502437" style="stroke: #000000; stroke-width: 0.8"/>
      </g>
     </g>
     <g id="text_20">
      <!-- 4.0 -->
      <g transform="translate(367.63885 110.301656) scale(0.1 -0.1)">
       <use xlink:href="#DejaVuSans-34"/>
       <use xlink:href="#DejaVuSans-2e" x="63.623047"/>
       <use xlink:href="#DejaVuSans-30" x="95.410156"/>
      </g>
     </g>
    </g>
    <g id="ytick_13">
     <g id="line2d_19">
      <g>
       <use xlink:href="#mfb48fb7c23" x="360.63885" y="71.020837" style="stroke: #000000; stroke-width: 0.8"/>
      </g>
     </g>
     <g id="text_21">
      <!-- 4.4 -->
      <g transform="translate(367.63885 74.820056) scale(0.1 -0.1)">
       <use xlink:href="#DejaVuSans-34"/>
       <use xlink:href="#DejaVuSans-2e" x="63.623047"/>
       <use xlink:href="#DejaVuSans-34" x="95.410156"/>
      </g>
     </g>
    </g>
    <g id="ytick_14">
     <g id="line2d_20">
      <g>
       <use xlink:href="#mfb48fb7c23" x="360.63885" y="35.539237" style="stroke: #000000; stroke-width: 0.8"/>
      </g>
     </g>
     <g id="text_22">
      <!-- 4.8 -->
      <g transform="translate(367.63885 39.338456) scale(0.1 -0.1)">
       <use xlink:href="#DejaVuSans-34"/>
       <use xlink:href="#DejaVuSans-2e" x="63.623047"/>
       <use xlink:href="#DejaVuSans-38" x="95.410156"/>
      </g>
     </g>
    </g>
    <g id="text_23">
     <!-- Total Number of Vaccinated Individuals -->
     <g transform="translate(395.140413 248.177094) rotate(-90) scale(0.1 -0.1)">
      <defs>
       <path id="DejaVuSans-54" d="M -19 4666 
L 3928 4666 
L 3928 4134 
L 2272 4134 
L 2272 0 
L 1638 0 
L 1638 4134 
L -19 4134 
L -19 4666 
z
" transform="scale(0.015625)"/>
       <path id="DejaVuSans-4e" d="M 628 4666 
L 1478 4666 
L 3547 763 
L 3547 4666 
L 4159 4666 
L 4159 0 
L 3309 0 
L 1241 3903 
L 1241 0 
L 628 0 
L 628 4666 
z
" transform="scale(0.015625)"/>
       <path id="DejaVuSans-6d" d="M 3328 2828 
Q 3544 3216 3844 3400 
Q 4144 3584 4550 3584 
Q 5097 3584 5394 3201 
Q 5691 2819 5691 2113 
L 5691 0 
L 5113 0 
L 5113 2094 
Q 5113 2597 4934 2840 
Q 4756 3084 4391 3084 
Q 3944 3084 3684 2787 
Q 3425 2491 3425 1978 
L 3425 0 
L 2847 0 
L 2847 2094 
Q 2847 2600 2669 2842 
Q 2491 3084 2119 3084 
Q 1678 3084 1418 2786 
Q 1159 2488 1159 1978 
L 1159 0 
L 581 0 
L 581 3500 
L 1159 3500 
L 1159 2956 
Q 1356 3278 1631 3431 
Q 1906 3584 2284 3584 
Q 2666 3584 2933 3390 
Q 3200 3197 3328 2828 
z
" transform="scale(0.015625)"/>
       <path id="DejaVuSans-76" d="M 191 3500 
L 800 3500 
L 1894 563 
L 2988 3500 
L 3597 3500 
L 2284 0 
L 1503 0 
L 191 3500 
z
" transform="scale(0.015625)"/>
       <path id="DejaVuSans-73" d="M 2834 3397 
L 2834 2853 
Q 2591 2978 2328 3040 
Q 2066 3103 1784 3103 
Q 1356 3103 1142 2972 
Q 928 2841 928 2578 
Q 928 2378 1081 2264 
Q 1234 2150 1697 2047 
L 1894 2003 
Q 2506 1872 2764 1633 
Q 3022 1394 3022 966 
Q 3022 478 2636 193 
Q 2250 -91 1575 -91 
Q 1294 -91 989 -36 
Q 684 19 347 128 
L 347 722 
Q 666 556 975 473 
Q 1284 391 1588 391 
Q 1994 391 2212 530 
Q 2431 669 2431 922 
Q 2431 1156 2273 1281 
Q 2116 1406 1581 1522 
L 1381 1569 
Q 847 1681 609 1914 
Q 372 2147 372 2553 
Q 372 3047 722 3315 
Q 1072 3584 1716 3584 
Q 2034 3584 2315 3537 
Q 2597 3491 2834 3397 
z
" transform="scale(0.015625)"/>
      </defs>
      <use xlink:href="#DejaVuSans-54"/>
      <use xlink:href="#DejaVuSans-6f" x="44.083984"/>
      <use xlink:href="#DejaVuSans-74" x="105.265625"/>
      <use xlink:href="#DejaVuSans-61" x="144.474609"/>
      <use xlink:href="#DejaVuSans-6c" x="205.753906"/>
      <use xlink:href="#DejaVuSans-20" x="233.537109"/>
      <use xlink:href="#DejaVuSans-4e" x="265.324219"/>
      <use xlink:href="#DejaVuSans-75" x="340.128906"/>
      <use xlink:href="#DejaVuSans-6d" x="403.507812"/>
      <use xlink:href="#DejaVuSans-62" x="500.919922"/>
      <use xlink:href="#DejaVuSans-65" x="564.396484"/>
      <use xlink:href="#DejaVuSans-72" x="625.919922"/>
      <use xlink:href="#DejaVuSans-20" x="667.033203"/>
      <use xlink:href="#DejaVuSans-6f" x="698.820312"/>
      <use xlink:href="#DejaVuSans-66" x="760.001953"/>
      <use xlink:href="#DejaVuSans-20" x="795.207031"/>
      <use xlink:href="#DejaVuSans-56" x="826.994141"/>
      <use xlink:href="#DejaVuSans-61" x="887.652344"/>
      <use xlink:href="#DejaVuSans-63" x="948.931641"/>
      <use xlink:href="#DejaVuSans-63" x="1003.912109"/>
      <use xlink:href="#DejaVuSans-69" x="1058.892578"/>
      <use xlink:href="#DejaVuSans-6e" x="1086.675781"/>
      <use xlink:href="#DejaVuSans-61" x="1150.054688"/>
      <use xlink:href="#DejaVuSans-74" x="1211.333984"/>
      <use xlink:href="#DejaVuSans-65" x="1250.542969"/>
      <use xlink:href="#DejaVuSans-64" x="1312.066406"/>
      <use xlink:href="#DejaVuSans-20" x="1375.542969"/>
      <use xlink:href="#DejaVuSans-49" x="1407.330078"/>
      <use xlink:href="#DejaVuSans-6e" x="1436.822266"/>
      <use xlink:href="#DejaVuSans-64" x="1500.201172"/>
      <use xlink:href="#DejaVuSans-69" x="1563.677734"/>
      <use xlink:href="#DejaVuSans-76" x="1591.460938"/>
      <use xlink:href="#DejaVuSans-69" x="1650.640625"/>
      <use xlink:href="#DejaVuSans-64" x="1678.423828"/>
      <use xlink:href="#DejaVuSans-75" x="1741.900391"/>
      <use xlink:href="#DejaVuSans-61" x="1805.279297"/>
      <use xlink:href="#DejaVuSans-6c" x="1866.558594"/>
      <use xlink:href="#DejaVuSans-73" x="1894.341797"/>
     </g>
    </g>
    <g id="text_24">
     <!-- 1e6 -->
     <g transform="translate(341.760725 14.798437) scale(0.1 -0.1)">
      <use xlink:href="#DejaVuSans-31"/>
      <use xlink:href="#DejaVuSans-65" x="63.623047"/>
      <use xlink:href="#DejaVuSans-36" x="125.146484"/>
     </g>
    </g>
   </g>
   <g id="LineCollection_1"/>
   <g id="patch_8">
    <path d="M 347.33325 283.910437 
L 353.98605 283.910437 
L 360.63885 283.910437 
L 360.63885 17.798437 
L 353.98605 17.798437 
L 347.33325 17.798437 
L 347.33325 283.910437 
z
" style="fill: none; stroke: #000000; stroke-width: 0.8; stroke-linejoin: miter; stroke-linecap: square"/>
   </g>
  </g>
 </g>
 <defs>
  <clipPath id="p7785b0744a">
   <rect x="43.78125" y="17.798437" width="285.696" height="266.112"/>
  </clipPath>
  <clipPath id="pc274a7d023">
   <rect x="347.33325" y="17.798437" width="13.3056" height="266.112"/>
  </clipPath>
 </defs>
</svg>
