<?xml version="1.0" encoding="utf-8" standalone="no"?>
<!DOCTYPE svg PUBLIC "-//W3C//DTD SVG 1.1//EN"
  "http://www.w3.org/Graphics/SVG/1.1/DTD/svg11.dtd">
<svg xmlns:xlink="http://www.w3.org/1999/xlink" width="401.241975pt" height="314.667469pt" viewBox="0 0 401.241975 314.667469" xmlns="http://www.w3.org/2000/svg" version="1.1">
 <metadata>
  <rdf:RDF xmlns:dc="http://purl.org/dc/elements/1.1/" xmlns:cc="http://creativecommons.org/ns#" xmlns:rdf="http://www.w3.org/1999/02/22-rdf-syntax-ns#">
   <cc:Work>
    <dc:type rdf:resource="http://purl.org/dc/dcmitype/StillImage"/>
    <dc:date>2024-12-02T10:41:21.876032</dc:date>
    <dc:format>image/svg+xml</dc:format>
    <dc:creator>
     <cc:Agent>
      <dc:title>Matplotlib v3.9.0, https://matplotlib.org/</dc:title>
     </cc:Agent>
    </dc:creator>
   </cc:Work>
  </rdf:RDF>
 </metadata>
 <defs>
  <style type="text/css">*{stroke-linejoin: round; stroke-linecap: butt}</style>
 </defs>
 <g id="figure_1">
  <g id="patch_1">
   <path d="M 0 314.667469 
L 401.241975 314.667469 
L 401.241975 0 
L 0 0 
z
" style="fill: #ffffff"/>
  </g>
  <g id="axes_1">
   <g id="patch_2">
    <path d="M 43.78125 277.111219 
L 329.47725 277.111219 
L 329.47725 10.999219 
L 43.78125 10.999219 
z
" style="fill: #ffffff"/>
   </g>
   <g id="QuadContourSet_1">
    <path d="M 208.05645 277.111219 
L 208.101584 277.111219 
L 215.19885 277.111219 
L 216.306762 277.111219 
L 215.19885 275.649266 
L 208.05645 275.649266 
L 202.483592 270.458419 
L 202.483592 263.805619 
L 200.91405 262.343666 
L 193.77165 262.343666 
L 186.62925 262.134816 
L 181.280613 257.152819 
L 179.48685 255.482016 
L 174.138213 250.500019 
L 172.34445 248.829216 
L 165.20205 248.829216 
L 159.853413 243.847219 
L 159.853413 237.194419 
L 158.05965 235.347742 
L 150.91725 235.00149 
L 143.77485 235.00149 
L 138.986764 230.541619 
L 136.63245 228.34869 
L 131.844364 223.888819 
L 129.49005 221.824885 
L 124.563475 217.236019 
L 122.34765 215.172085 
L 117.421075 210.583219 
L 115.20525 208.077014 
L 108.06285 206.684678 
L 100.92045 206.684678 
L 93.77805 206.684678 
L 90.821096 203.930419 
L 90.821096 197.277619 
L 86.63565 194.353713 
L 79.49325 194.353713 
L 75.489935 190.624819 
L 75.489935 183.972019 
L 72.35085 180.073478 
L 65.20845 180.073478 
L 61.406653 177.319219 
L 59.365967 170.666419 
L 58.06605 168.971285 
L 50.92365 166.310165 
L 48.458094 164.013619 
L 45.601134 157.360819 
L 45.601134 150.708019 
L 45.601134 144.055219 
L 45.601134 137.402419 
L 45.601134 130.749619 
L 47.121853 124.096819 
L 49.162538 117.444019 
L 49.162538 110.791219 
L 49.162538 104.138419 
L 49.162538 97.485619 
L 46.920335 90.832819 
L 46.920335 84.180019 
L 46.920335 77.527219 
L 46.920335 70.874419 
L 46.920335 64.221619 
L 46.920335 57.568819 
L 45.997075 50.916019 
L 45.997075 44.263219 
L 45.997075 37.610419 
L 45.997075 33.021552 
L 43.78125 30.957619 
L 43.78125 37.610419 
L 43.78125 44.263219 
L 43.78125 50.916019 
L 43.78125 57.568819 
L 43.78125 64.221619 
L 43.78125 70.874419 
L 43.78125 77.527219 
L 43.78125 84.180019 
L 43.78125 90.832819 
L 43.78125 97.485619 
L 43.78125 104.138419 
L 43.78125 104.138419 
L 43.78125 110.791219 
L 43.78125 117.444019 
L 43.78125 124.096819 
L 43.78125 130.749619 
L 43.78125 137.402419 
L 43.78125 144.055219 
L 43.78125 150.708019 
L 43.78125 157.360819 
L 43.78125 164.013619 
L 43.78125 170.666419 
L 43.78125 170.666419 
L 50.92365 177.319219 
L 50.92365 177.319219 
L 50.92365 183.972019 
L 58.06605 190.624819 
L 65.20845 183.972019 
L 65.20845 183.972019 
L 72.35085 183.972019 
L 72.35085 183.972019 
L 72.35085 190.624819 
L 72.35085 197.277619 
L 79.49325 203.930419 
L 86.63565 197.277619 
L 86.63565 197.277619 
L 86.63565 197.277619 
L 86.63565 203.930419 
L 93.77805 210.583219 
L 100.92045 210.583219 
L 108.06285 210.583219 
L 115.20525 210.583219 
L 115.20525 210.583219 
L 115.20525 217.236019 
L 122.34765 223.888819 
L 122.34765 223.888819 
L 129.49005 230.541619 
L 136.63245 230.541619 
L 136.63245 230.541619 
L 136.63245 237.194419 
L 143.77485 243.847219 
L 150.91725 243.847219 
L 158.05965 243.847219 
L 158.05965 243.847219 
L 165.20205 250.500019 
L 172.34445 250.500019 
L 172.34445 250.500019 
L 179.48685 257.152819 
L 179.48685 257.152819 
L 179.48685 263.805619 
L 186.62925 270.458419 
L 193.77165 270.458419 
L 200.91405 270.458419 
L 200.91405 270.458419 
z
" clip-path="url(#pf449b0d2fa)" style="fill: #f8f7fb"/>
    <path d="M 208.05645 275.649266 
L 215.19885 275.649266 
L 216.306762 277.111219 
L 217.414675 277.111219 
L 215.19885 274.187313 
L 208.05645 274.187313 
L 204.053135 270.458419 
L 204.053135 263.805619 
L 200.91405 260.881713 
L 193.77165 260.881713 
L 186.62925 260.464012 
L 183.074375 257.152819 
L 179.48685 253.811212 
L 175.931975 250.500019 
L 172.34445 247.158412 
L 165.20205 247.158412 
L 161.647175 243.847219 
L 161.647175 237.194419 
L 158.05965 233.501064 
L 150.91725 232.80856 
L 143.77485 232.80856 
L 141.341077 230.541619 
L 136.63245 226.15576 
L 134.198677 223.888819 
L 129.49005 219.760952 
L 126.779299 217.236019 
L 122.34765 213.108152 
L 119.636899 210.583219 
L 115.20525 205.570809 
L 110.274137 203.930419 
L 108.06285 203.194809 
L 100.92045 202.786137 
L 95.006543 197.277619 
L 93.77805 196.419408 
L 86.63565 191.429808 
L 79.49325 191.429808 
L 78.62902 190.624819 
L 78.62902 183.972019 
L 73.27222 177.319219 
L 72.35085 176.174937 
L 65.20845 172.169952 
L 64.747255 170.666419 
L 63.594268 164.013619 
L 58.06605 161.953912 
L 53.134937 157.360819 
L 53.134937 150.708019 
L 53.134937 144.055219 
L 53.134937 137.402419 
L 53.134937 130.749619 
L 53.134937 124.096819 
L 54.543826 117.444019 
L 54.543826 110.791219 
L 54.543826 104.138419 
L 53.03542 97.485619 
L 50.92365 92.764792 
L 50.05942 90.832819 
L 50.05942 84.180019 
L 50.05942 77.527219 
L 50.05942 70.874419 
L 50.05942 64.221619 
L 50.05942 57.568819 
L 48.212899 50.916019 
L 48.212899 44.263219 
L 48.212899 37.610419 
L 48.212899 35.085485 
L 45.997075 33.021552 
L 45.997075 37.610419 
L 45.997075 44.263219 
L 45.997075 50.916019 
L 46.920335 57.568819 
L 46.920335 64.221619 
L 46.920335 70.874419 
L 46.920335 77.527219 
L 46.920335 84.180019 
L 46.920335 90.832819 
L 49.162538 97.485619 
L 49.162538 104.138419 
L 49.162538 110.791219 
L 49.162538 117.444019 
L 47.121853 124.096819 
L 45.601134 130.749619 
L 45.601134 137.402419 
L 45.601134 144.055219 
L 45.601134 150.708019 
L 45.601134 157.360819 
L 48.458094 164.013619 
L 50.92365 166.310165 
L 58.06605 168.971285 
L 59.365967 170.666419 
L 61.406653 177.319219 
L 65.20845 180.073478 
L 72.35085 180.073478 
L 75.489935 183.972019 
L 75.489935 190.624819 
L 79.49325 194.353713 
L 86.63565 194.353713 
L 90.821096 197.277619 
L 90.821096 203.930419 
L 93.77805 206.684678 
L 100.92045 206.684678 
L 108.06285 206.684678 
L 115.20525 208.077014 
L 117.421075 210.583219 
L 122.34765 215.172085 
L 124.563475 217.236019 
L 129.49005 221.824885 
L 131.844364 223.888819 
L 136.63245 228.34869 
L 138.986764 230.541619 
L 143.77485 235.00149 
L 150.91725 235.00149 
L 158.05965 235.347742 
L 159.853413 237.194419 
L 159.853413 243.847219 
L 165.20205 248.829216 
L 172.34445 248.829216 
L 174.138213 250.500019 
L 179.48685 255.482016 
L 181.280613 257.152819 
L 186.62925 262.134816 
L 193.77165 262.343666 
L 200.91405 262.343666 
L 202.483592 263.805619 
L 202.483592 270.458419 
z
" clip-path="url(#pf449b0d2fa)" style="fill: #f1eff6"/>
    <path d="M 208.05645 274.187313 
L 215.19885 274.187313 
L 217.414675 277.111219 
L 218.522587 277.111219 
L 215.19885 272.72536 
L 208.05645 272.72536 
L 205.622677 270.458419 
L 205.622677 263.805619 
L 200.91405 259.41976 
L 193.77165 259.41976 
L 186.62925 258.793209 
L 184.868138 257.152819 
L 179.48685 252.140409 
L 177.725738 250.500019 
L 172.34445 245.487609 
L 165.20205 245.487609 
L 163.440938 243.847219 
L 163.440938 237.194419 
L 158.05965 231.654387 
L 150.91725 230.615631 
L 143.77485 230.615631 
L 143.695391 230.541619 
L 136.63245 223.962831 
L 136.552991 223.888819 
L 129.49005 217.697019 
L 128.995124 217.236019 
L 122.34765 211.044219 
L 121.852724 210.583219 
L 115.970747 203.930419 
L 115.20525 203.064604 
L 108.06285 200.688604 
L 100.92045 198.887596 
L 99.191989 197.277619 
L 93.77805 193.495502 
L 89.668789 190.624819 
L 86.63565 188.505902 
L 81.768104 183.972019 
L 79.49325 181.146796 
L 76.411304 177.319219 
L 72.35085 172.276396 
L 70.128543 170.666419 
L 70.128543 164.013619 
L 65.20845 157.597658 
L 64.572776 157.360819 
L 64.572776 150.708019 
L 60.668741 144.055219 
L 60.668741 137.402419 
L 60.668741 130.749619 
L 60.668741 124.096819 
L 60.668741 117.444019 
L 60.668741 110.791219 
L 60.668741 104.138419 
L 58.06605 101.714138 
L 56.174504 97.485619 
L 53.198504 90.832819 
L 53.198504 84.180019 
L 53.198504 77.527219 
L 53.198504 70.874419 
L 53.198504 64.221619 
L 52.52943 57.568819 
L 50.92365 52.483418 
L 50.428724 50.916019 
L 50.428724 44.263219 
L 50.428724 37.610419 
L 50.428724 37.149419 
L 48.212899 35.085485 
L 48.212899 37.610419 
L 48.212899 44.263219 
L 48.212899 50.916019 
L 50.05942 57.568819 
L 50.05942 64.221619 
L 50.05942 70.874419 
L 50.05942 77.527219 
L 50.05942 84.180019 
L 50.05942 90.832819 
L 50.92365 92.764792 
L 53.03542 97.485619 
L 54.543826 104.138419 
L 54.543826 110.791219 
L 54.543826 117.444019 
L 53.134937 124.096819 
L 53.134937 130.749619 
L 53.134937 137.402419 
L 53.134937 144.055219 
L 53.134937 150.708019 
L 53.134937 157.360819 
L 58.06605 161.953912 
L 63.594268 164.013619 
L 64.747255 170.666419 
L 65.20845 172.169952 
L 72.35085 176.174937 
L 73.27222 177.319219 
L 78.62902 183.972019 
L 78.62902 190.624819 
L 79.49325 191.429808 
L 86.63565 191.429808 
L 93.77805 196.419408 
L 95.006543 197.277619 
L 100.92045 202.786137 
L 108.06285 203.194809 
L 110.274137 203.930419 
L 115.20525 205.570809 
L 119.636899 210.583219 
L 122.34765 213.108152 
L 126.779299 217.236019 
L 129.49005 219.760952 
L 134.198677 223.888819 
L 136.63245 226.15576 
L 141.341077 230.541619 
L 143.77485 232.80856 
L 150.91725 232.80856 
L 158.05965 233.501064 
L 161.647175 237.194419 
L 161.647175 243.847219 
L 165.20205 247.158412 
L 172.34445 247.158412 
L 175.931975 250.500019 
L 179.48685 253.811212 
L 183.074375 257.152819 
L 186.62925 260.464012 
L 193.77165 260.881713 
L 200.91405 260.881713 
L 204.053135 263.805619 
L 204.053135 270.458419 
z
" clip-path="url(#pf449b0d2fa)" style="fill: #e6e5f1"/>
    <path d="M 208.05645 272.72536 
L 215.19885 272.72536 
L 218.522587 277.111219 
L 219.630499 277.111219 
L 215.19885 271.263408 
L 208.05645 271.263408 
L 207.19222 270.458419 
L 207.19222 263.805619 
L 200.91405 257.957808 
L 193.77165 257.957808 
L 186.857807 257.152819 
L 186.62925 257.122406 
L 179.519501 250.500019 
L 179.48685 249.86135 
L 173.03012 243.847219 
L 172.34445 243.816806 
L 165.234701 237.194419 
L 165.20205 236.55575 
L 163.049807 230.541619 
L 158.05965 229.80771 
L 150.91725 228.757268 
L 143.77485 228.422702 
L 138.907304 223.888819 
L 137.568104 217.236019 
L 136.63245 216.415768 
L 129.49005 215.633085 
L 124.068548 210.583219 
L 122.34765 208.6368 
L 118.186572 203.930419 
L 115.20525 200.5584 
L 108.06285 198.1824 
L 105.343024 197.277619 
L 100.92045 193.158205 
L 94.120885 190.624819 
L 93.77805 190.497085 
L 86.63565 185.581996 
L 84.907189 183.972019 
L 79.721807 177.319219 
L 79.721807 170.666419 
L 79.721807 164.013619 
L 79.721807 157.360819 
L 79.721807 150.708019 
L 79.49325 150.495129 
L 72.35085 150.495129 
L 68.202544 144.055219 
L 68.202544 137.402419 
L 68.202544 130.749619 
L 68.202544 124.096819 
L 68.202544 117.444019 
L 68.202544 110.791219 
L 68.202544 104.138419 
L 65.20845 101.349565 
L 61.060144 97.485619 
L 58.06605 94.696765 
L 56.337589 90.832819 
L 56.337589 84.180019 
L 56.337589 77.527219 
L 56.337589 70.874419 
L 56.337589 64.221619 
L 54.745254 57.568819 
L 52.644548 50.916019 
L 52.644548 44.263219 
L 52.644548 37.610419 
L 50.92365 37.610419 
L 50.428724 37.149419 
L 50.428724 37.610419 
L 50.428724 44.263219 
L 50.428724 50.916019 
L 50.92365 52.483418 
L 52.52943 57.568819 
L 53.198504 64.221619 
L 53.198504 70.874419 
L 53.198504 77.527219 
L 53.198504 84.180019 
L 53.198504 90.832819 
L 56.174504 97.485619 
L 58.06605 101.714138 
L 60.668741 104.138419 
L 60.668741 110.791219 
L 60.668741 117.444019 
L 60.668741 124.096819 
L 60.668741 130.749619 
L 60.668741 137.402419 
L 60.668741 144.055219 
L 64.572776 150.708019 
L 64.572776 157.360819 
L 65.20845 157.597658 
L 70.128543 164.013619 
L 70.128543 170.666419 
L 72.35085 172.276396 
L 76.411304 177.319219 
L 79.49325 181.146796 
L 81.768104 183.972019 
L 86.63565 188.505902 
L 89.668789 190.624819 
L 93.77805 193.495502 
L 99.191989 197.277619 
L 100.92045 198.887596 
L 108.06285 200.688604 
L 115.20525 203.064604 
L 115.970747 203.930419 
L 121.852724 210.583219 
L 122.34765 211.044219 
L 128.995124 217.236019 
L 129.49005 217.697019 
L 136.552991 223.888819 
L 136.63245 223.962831 
L 143.695391 230.541619 
L 143.77485 230.615631 
L 150.91725 230.615631 
L 158.05965 231.654387 
L 163.440938 237.194419 
L 163.440938 243.847219 
L 165.20205 245.487609 
L 172.34445 245.487609 
L 177.725738 250.500019 
L 179.48685 252.140409 
L 184.868138 257.152819 
L 186.62925 258.793209 
L 193.77165 259.41976 
L 200.91405 259.41976 
L 205.622677 263.805619 
L 205.622677 270.458419 
z
" clip-path="url(#pf449b0d2fa)" style="fill: #dadaeb"/>
    <path d="M 208.05645 271.263408 
L 215.19885 271.263408 
L 219.630499 277.111219 
L 220.738411 277.111219 
L 215.696717 270.458419 
L 215.19885 269.801455 
L 208.761762 263.805619 
L 208.05645 263.148655 
L 201.619362 257.152819 
L 200.91405 256.495855 
L 193.77165 256.402003 
L 186.62925 255.451603 
L 181.313264 250.500019 
L 180.973149 243.847219 
L 179.48685 242.462803 
L 172.34445 242.146003 
L 167.028464 237.194419 
L 166.688349 230.541619 
L 165.20205 229.011475 
L 158.05965 227.961033 
L 150.91725 226.910591 
L 143.77485 226.229773 
L 141.261618 223.888819 
L 139.922418 217.236019 
L 136.63245 214.351834 
L 129.49005 213.569152 
L 126.284373 210.583219 
L 122.34765 206.130595 
L 120.402396 203.930419 
L 115.20525 198.052195 
L 112.876828 197.277619 
L 108.591388 190.624819 
L 108.06285 190.132512 
L 100.92045 186.140832 
L 95.099394 183.972019 
L 95.099394 177.319219 
L 95.099394 170.666419 
L 93.77805 169.845907 
L 90.021148 164.013619 
L 90.021148 157.360819 
L 90.021148 150.708019 
L 90.021148 144.055219 
L 86.63565 140.901792 
L 79.49325 140.901792 
L 75.736348 137.402419 
L 75.736348 130.749619 
L 75.736348 124.096819 
L 75.736348 117.444019 
L 75.736348 110.791219 
L 75.736348 104.138419 
L 72.35085 100.984992 
L 68.593948 97.485619 
L 65.20845 94.332192 
L 61.451548 90.832819 
L 61.451548 84.180019 
L 61.451548 77.527219 
L 61.451548 70.874419 
L 61.451548 64.221619 
L 58.06605 61.068192 
L 56.961079 57.568819 
L 54.860373 50.916019 
L 54.860373 44.263219 
L 54.860373 37.610419 
L 52.644548 37.610419 
L 52.644548 44.263219 
L 52.644548 50.916019 
L 54.745254 57.568819 
L 56.337589 64.221619 
L 56.337589 70.874419 
L 56.337589 77.527219 
L 56.337589 84.180019 
L 56.337589 90.832819 
L 58.06605 94.696765 
L 61.060144 97.485619 
L 65.20845 101.349565 
L 68.202544 104.138419 
L 68.202544 110.791219 
L 68.202544 117.444019 
L 68.202544 124.096819 
L 68.202544 130.749619 
L 68.202544 137.402419 
L 68.202544 144.055219 
L 72.35085 150.495129 
L 79.49325 150.495129 
L 79.721807 150.708019 
L 79.721807 157.360819 
L 79.721807 164.013619 
L 79.721807 170.666419 
L 79.721807 177.319219 
L 84.907189 183.972019 
L 86.63565 185.581996 
L 93.77805 190.497085 
L 94.120885 190.624819 
L 100.92045 193.158205 
L 105.343024 197.277619 
L 108.06285 198.1824 
L 115.20525 200.5584 
L 118.186572 203.930419 
L 122.34765 208.6368 
L 124.068548 210.583219 
L 129.49005 215.633085 
L 136.63245 216.415768 
L 137.568104 217.236019 
L 138.907304 223.888819 
L 143.77485 228.422702 
L 150.91725 228.757268 
L 158.05965 229.80771 
L 163.049807 230.541619 
L 165.20205 236.55575 
L 165.234701 237.194419 
L 172.34445 243.816806 
L 173.03012 243.847219 
L 179.48685 249.86135 
L 179.519501 250.500019 
L 186.62925 257.122406 
L 186.857807 257.152819 
L 193.77165 257.957808 
L 200.91405 257.957808 
L 207.19222 263.805619 
L 207.19222 270.458419 
z
" clip-path="url(#pf449b0d2fa)" style="fill: #c9c9e2"/>
    <path d="M 216.80463 270.458419 
L 215.19885 268.339502 
L 210.331304 263.805619 
L 208.05645 261.686702 
L 203.188904 257.152819 
L 200.91405 255.033902 
L 193.77165 254.7312 
L 186.62925 253.7808 
L 183.107026 250.500019 
L 182.766912 243.847219 
L 179.48685 240.792 
L 172.34445 240.4752 
L 168.822226 237.194419 
L 168.482112 230.541619 
L 165.20205 227.164798 
L 158.05965 226.114355 
L 150.91725 225.063913 
L 143.77485 224.036844 
L 143.615932 223.888819 
L 142.276732 217.236019 
L 136.63245 212.287901 
L 129.49005 211.505219 
L 128.500197 210.583219 
L 123.880885 203.930419 
L 123.880885 197.277619 
L 122.34765 195.849484 
L 116.738485 190.624819 
L 115.20525 189.196684 
L 109.596085 183.972019 
L 109.596085 177.319219 
L 109.596085 170.666419 
L 108.06285 169.238284 
L 102.453685 164.013619 
L 100.92045 162.585484 
L 97.554951 157.360819 
L 97.554951 150.708019 
L 97.554951 144.055219 
L 97.554951 137.402419 
L 93.77805 133.884418 
L 86.63565 133.884418 
L 83.270151 130.749619 
L 83.270151 124.096819 
L 83.270151 117.444019 
L 83.270151 110.791219 
L 83.270151 104.138419 
L 83.270151 97.485619 
L 79.49325 93.967618 
L 72.35085 93.967618 
L 68.985351 90.832819 
L 68.985351 84.180019 
L 68.985351 77.527219 
L 68.985351 70.874419 
L 68.985351 64.221619 
L 65.20845 60.703618 
L 61.842951 57.568819 
L 58.06605 54.050818 
L 57.076197 50.916019 
L 57.076197 44.263219 
L 57.076197 37.610419 
L 54.860373 37.610419 
L 54.860373 44.263219 
L 54.860373 50.916019 
L 56.961079 57.568819 
L 58.06605 61.068192 
L 61.451548 64.221619 
L 61.451548 70.874419 
L 61.451548 77.527219 
L 61.451548 84.180019 
L 61.451548 90.832819 
L 65.20845 94.332192 
L 68.593948 97.485619 
L 72.35085 100.984992 
L 75.736348 104.138419 
L 75.736348 110.791219 
L 75.736348 117.444019 
L 75.736348 124.096819 
L 75.736348 130.749619 
L 75.736348 137.402419 
L 79.49325 140.901792 
L 86.63565 140.901792 
L 90.021148 144.055219 
L 90.021148 150.708019 
L 90.021148 157.360819 
L 90.021148 164.013619 
L 93.77805 169.845907 
L 95.099394 170.666419 
L 95.099394 177.319219 
L 95.099394 183.972019 
L 100.92045 186.140832 
L 108.06285 190.132512 
L 108.591388 190.624819 
L 112.876828 197.277619 
L 115.20525 198.052195 
L 120.402396 203.930419 
L 122.34765 206.130595 
L 126.284373 210.583219 
L 129.49005 213.569152 
L 136.63245 214.351834 
L 139.922418 217.236019 
L 141.261618 223.888819 
L 143.77485 226.229773 
L 150.91725 226.910591 
L 158.05965 227.961033 
L 165.20205 229.011475 
L 166.688349 230.541619 
L 167.028464 237.194419 
L 172.34445 242.146003 
L 179.48685 242.462803 
L 180.973149 243.847219 
L 181.313264 250.500019 
L 186.62925 255.451603 
L 193.77165 256.402003 
L 200.91405 256.495855 
L 201.619362 257.152819 
L 208.05645 263.148655 
L 208.761762 263.805619 
L 215.19885 269.801455 
L 215.696717 270.458419 
L 220.738411 277.111219 
L 221.846324 277.111219 
z
" clip-path="url(#pf449b0d2fa)" style="fill: #b8b8d9"/>
    <path d="M 222.34125 277.111219 
L 222.954236 277.111219 
L 222.34125 276.302349 
L 217.912542 270.458419 
L 215.19885 266.877549 
L 211.900847 263.805619 
L 208.05645 260.224749 
L 204.758447 257.152819 
L 200.91405 253.571949 
L 193.77165 253.060396 
L 186.62925 252.109996 
L 184.900789 250.500019 
L 184.560675 243.847219 
L 179.48685 239.121196 
L 172.34445 238.804396 
L 170.615989 237.194419 
L 170.275875 230.541619 
L 165.20205 225.31812 
L 158.05965 224.267678 
L 155.483624 223.888819 
L 150.91725 219.635462 
L 148.341224 217.236019 
L 143.77485 212.982662 
L 139.910812 210.583219 
L 139.910812 203.930419 
L 139.910812 197.277619 
L 137.943795 190.624819 
L 136.63245 188.589062 
L 133.658355 183.972019 
L 130.801395 177.319219 
L 129.49005 174.265584 
L 125.626012 170.666419 
L 122.34765 168.630662 
L 119.373555 164.013619 
L 119.373555 157.360819 
L 119.373555 150.708019 
L 118.18261 144.055219 
L 115.20525 140.172645 
L 108.06285 140.172645 
L 105.088755 137.402419 
L 105.088755 130.749619 
L 105.088755 124.096819 
L 103.89781 117.444019 
L 100.92045 113.561445 
L 93.77805 113.561445 
L 90.803955 110.791219 
L 90.803955 104.138419 
L 90.803955 97.485619 
L 88.372444 90.832819 
L 86.63565 86.950245 
L 83.661555 84.180019 
L 79.49325 80.297445 
L 76.519155 77.527219 
L 74.087644 70.874419 
L 74.087644 64.221619 
L 72.35085 62.60388 
L 66.945244 57.568819 
L 65.20845 55.95108 
L 59.802844 50.916019 
L 59.802844 45.880958 
L 58.06605 44.263219 
L 58.06605 37.610419 
L 57.076197 37.610419 
L 57.076197 44.263219 
L 57.076197 50.916019 
L 58.06605 54.050818 
L 61.842951 57.568819 
L 65.20845 60.703618 
L 68.985351 64.221619 
L 68.985351 70.874419 
L 68.985351 77.527219 
L 68.985351 84.180019 
L 68.985351 90.832819 
L 72.35085 93.967618 
L 79.49325 93.967618 
L 83.270151 97.485619 
L 83.270151 104.138419 
L 83.270151 110.791219 
L 83.270151 117.444019 
L 83.270151 124.096819 
L 83.270151 130.749619 
L 86.63565 133.884418 
L 93.77805 133.884418 
L 97.554951 137.402419 
L 97.554951 144.055219 
L 97.554951 150.708019 
L 97.554951 157.360819 
L 100.92045 162.585484 
L 102.453685 164.013619 
L 108.06285 169.238284 
L 109.596085 170.666419 
L 109.596085 177.319219 
L 109.596085 183.972019 
L 115.20525 189.196684 
L 116.738485 190.624819 
L 122.34765 195.849484 
L 123.880885 197.277619 
L 123.880885 203.930419 
L 128.500197 210.583219 
L 129.49005 211.505219 
L 136.63245 212.287901 
L 142.276732 217.236019 
L 143.615932 223.888819 
L 143.77485 224.036844 
L 150.91725 225.063913 
L 158.05965 226.114355 
L 165.20205 227.164798 
L 168.482112 230.541619 
L 168.822226 237.194419 
L 172.34445 240.4752 
L 179.48685 240.792 
L 182.766912 243.847219 
L 183.107026 250.500019 
L 186.62925 253.7808 
L 193.77165 254.7312 
L 200.91405 255.033902 
L 203.188904 257.152819 
L 208.05645 261.686702 
L 210.331304 263.805619 
L 215.19885 268.339502 
L 216.80463 270.458419 
L 221.846324 277.111219 
z
" clip-path="url(#pf449b0d2fa)" style="fill: #a7a4ce"/>
    <path d="M 222.34125 276.302349 
L 222.954236 277.111219 
L 224.062148 277.111219 
L 222.34125 274.840396 
L 219.020454 270.458419 
L 215.19885 265.415596 
L 213.470389 263.805619 
L 208.05645 258.762796 
L 206.327989 257.152819 
L 200.91405 252.109996 
L 193.77165 251.389593 
L 187.086364 250.500019 
L 186.62925 249.222681 
L 186.354438 243.847219 
L 179.48685 237.450393 
L 173.715791 237.194419 
L 172.34445 235.917081 
L 172.069638 230.541619 
L 168.039964 223.888819 
L 165.20205 221.24544 
L 160.897564 217.236019 
L 158.05965 214.59264 
L 153.755164 210.583219 
L 153.755164 203.930419 
L 153.755164 197.277619 
L 150.91725 194.63424 
L 146.612764 190.624819 
L 143.77485 187.98144 
L 141.192158 183.972019 
L 139.470364 177.319219 
L 139.470364 170.666419 
L 136.63245 166.70135 
L 133.74692 164.013619 
L 129.49005 161.37024 
L 126.907358 157.360819 
L 125.604584 150.708019 
L 123.563899 144.055219 
L 122.34765 142.469191 
L 118.462184 137.402419 
L 115.20525 133.155271 
L 112.622558 130.749619 
L 111.319784 124.096819 
L 109.279099 117.444019 
L 108.06285 115.857991 
L 104.177384 110.791219 
L 100.92045 106.544071 
L 98.337758 104.138419 
L 95.677928 97.485619 
L 93.77805 94.451942 
L 91.511528 90.832819 
L 88.535528 84.180019 
L 86.63565 79.932871 
L 84.052958 77.527219 
L 79.49325 74.493542 
L 77.226728 70.874419 
L 77.226728 64.221619 
L 72.35085 59.679974 
L 70.084328 57.568819 
L 65.20845 53.027174 
L 62.941928 50.916019 
L 62.941928 48.804864 
L 59.802844 45.880958 
L 59.802844 50.916019 
L 65.20845 55.95108 
L 66.945244 57.568819 
L 72.35085 62.60388 
L 74.087644 64.221619 
L 74.087644 70.874419 
L 76.519155 77.527219 
L 79.49325 80.297445 
L 83.661555 84.180019 
L 86.63565 86.950245 
L 88.372444 90.832819 
L 90.803955 97.485619 
L 90.803955 104.138419 
L 90.803955 110.791219 
L 93.77805 113.561445 
L 100.92045 113.561445 
L 103.89781 117.444019 
L 105.088755 124.096819 
L 105.088755 130.749619 
L 105.088755 137.402419 
L 108.06285 140.172645 
L 115.20525 140.172645 
L 118.18261 144.055219 
L 119.373555 150.708019 
L 119.373555 157.360819 
L 119.373555 164.013619 
L 122.34765 168.630662 
L 125.626012 170.666419 
L 129.49005 174.265584 
L 130.801395 177.319219 
L 133.658355 183.972019 
L 136.63245 188.589062 
L 137.943795 190.624819 
L 139.910812 197.277619 
L 139.910812 203.930419 
L 139.910812 210.583219 
L 143.77485 212.982662 
L 148.341224 217.236019 
L 150.91725 219.635462 
L 155.483624 223.888819 
L 158.05965 224.267678 
L 165.20205 225.31812 
L 170.275875 230.541619 
L 170.615989 237.194419 
L 172.34445 238.804396 
L 179.48685 239.121196 
L 184.560675 243.847219 
L 184.900789 250.500019 
L 186.62925 252.109996 
L 193.77165 253.060396 
L 200.91405 253.571949 
L 204.758447 257.152819 
L 208.05645 260.224749 
L 211.900847 263.805619 
L 215.19885 266.877549 
L 217.912542 270.458419 
z
" clip-path="url(#pf449b0d2fa)" style="fill: #9591c4"/>
    <path d="M 222.34125 274.840396 
L 224.062148 277.111219 
L 225.170061 277.111219 
L 222.34125 273.378444 
L 220.128366 270.458419 
L 215.19885 263.953644 
L 215.039932 263.805619 
L 208.05645 257.300844 
L 207.897532 257.152819 
L 200.91405 250.648044 
L 199.642703 250.500019 
L 199.642703 243.847219 
L 199.007029 237.194419 
L 193.77165 232.317916 
L 191.864629 230.541619 
L 186.62925 225.665116 
L 184.722229 223.888819 
L 184.722229 217.236019 
L 179.48685 212.359516 
L 172.34445 212.359516 
L 170.437429 210.583219 
L 170.437429 203.930419 
L 170.437429 197.277619 
L 165.20205 195.327018 
L 160.153802 190.624819 
L 158.05965 185.748316 
L 156.152629 183.972019 
L 156.152629 177.319219 
L 156.152629 170.666419 
L 150.91725 165.789916 
L 149.010229 164.013619 
L 143.77485 159.137116 
L 141.867829 157.360819 
L 136.63245 155.410218 
L 131.584202 150.708019 
L 129.49005 145.831516 
L 128.945187 144.055219 
L 123.843473 137.402419 
L 122.34765 135.451818 
L 118.741758 130.749619 
L 117.299402 124.096819 
L 115.20525 119.220316 
L 114.660387 117.444019 
L 109.558673 110.791219 
L 108.06285 108.840618 
L 104.456958 104.138419 
L 100.92045 100.844332 
L 98.817013 97.485619 
L 94.650613 90.832819 
L 93.77805 88.882218 
L 91.674613 84.180019 
L 90.172158 77.527219 
L 86.63565 74.233132 
L 81.587402 70.874419 
L 81.587402 66.17222 
L 79.49325 64.221619 
L 72.35085 57.568819 
L 65.20845 50.916019 
L 62.941928 48.804864 
L 62.941928 50.916019 
L 65.20845 53.027174 
L 70.084328 57.568819 
L 72.35085 59.679974 
L 77.226728 64.221619 
L 77.226728 70.874419 
L 79.49325 74.493542 
L 84.052958 77.527219 
L 86.63565 79.932871 
L 88.535528 84.180019 
L 91.511528 90.832819 
L 93.77805 94.451942 
L 95.677928 97.485619 
L 98.337758 104.138419 
L 100.92045 106.544071 
L 104.177384 110.791219 
L 108.06285 115.857991 
L 109.279099 117.444019 
L 111.319784 124.096819 
L 112.622558 130.749619 
L 115.20525 133.155271 
L 118.462184 137.402419 
L 122.34765 142.469191 
L 123.563899 144.055219 
L 125.604584 150.708019 
L 126.907358 157.360819 
L 129.49005 161.37024 
L 133.74692 164.013619 
L 136.63245 166.70135 
L 139.470364 170.666419 
L 139.470364 177.319219 
L 141.192158 183.972019 
L 143.77485 187.98144 
L 146.612764 190.624819 
L 150.91725 194.63424 
L 153.755164 197.277619 
L 153.755164 203.930419 
L 153.755164 210.583219 
L 158.05965 214.59264 
L 160.897564 217.236019 
L 165.20205 221.24544 
L 168.039964 223.888819 
L 172.069638 230.541619 
L 172.34445 235.917081 
L 173.715791 237.194419 
L 179.48685 237.450393 
L 186.354438 243.847219 
L 186.62925 249.222681 
L 187.086364 250.500019 
L 193.77165 251.389593 
L 200.91405 252.109996 
L 206.327989 257.152819 
L 208.05645 258.762796 
L 213.470389 263.805619 
L 215.19885 265.415596 
L 219.020454 270.458419 
z
" clip-path="url(#pf449b0d2fa)" style="fill: #8481bc"/>
    <path d="M 222.34125 273.378444 
L 225.170061 277.111219 
L 226.277973 277.111219 
L 222.34125 271.916491 
L 221.236279 270.458419 
L 218.584348 263.805619 
L 216.974247 257.152819 
L 215.19885 253.294195 
L 212.199042 250.500019 
L 212.199042 243.847219 
L 212.199042 237.194419 
L 208.05645 231.406483 
L 207.127938 230.541619 
L 200.91405 226.682995 
L 197.914242 223.888819 
L 196.257205 217.236019 
L 193.77165 211.448083 
L 193.400245 210.583219 
L 186.62925 204.276364 
L 186.257845 203.930419 
L 179.48685 197.623564 
L 179.115445 197.277619 
L 172.34445 190.970764 
L 171.415938 190.624819 
L 165.20205 184.836883 
L 164.830645 183.972019 
L 164.830645 177.319219 
L 164.830645 170.666419 
L 158.05965 164.359564 
L 157.688245 164.013619 
L 150.91725 157.706764 
L 150.545845 157.360819 
L 143.77485 151.053964 
L 142.846338 150.708019 
L 136.63245 144.920083 
L 136.261045 144.055219 
L 129.49005 137.748364 
L 129.224761 137.402419 
L 124.123047 130.749619 
L 124.123047 124.096819 
L 122.34765 118.308883 
L 121.976245 117.444019 
L 115.20525 111.137164 
L 114.939961 110.791219 
L 109.838247 104.138419 
L 109.838247 97.485619 
L 108.06285 95.831923 
L 100.92045 95.831923 
L 97.789698 90.832819 
L 95.553447 84.180019 
L 95.553447 77.527219 
L 93.77805 77.527219 
L 86.63565 70.874419 
L 81.587402 66.17222 
L 81.587402 70.874419 
L 86.63565 74.233132 
L 90.172158 77.527219 
L 91.674613 84.180019 
L 93.77805 88.882218 
L 94.650613 90.832819 
L 98.817013 97.485619 
L 100.92045 100.844332 
L 104.456958 104.138419 
L 108.06285 108.840618 
L 109.558673 110.791219 
L 114.660387 117.444019 
L 115.20525 119.220316 
L 117.299402 124.096819 
L 118.741758 130.749619 
L 122.34765 135.451818 
L 123.843473 137.402419 
L 128.945187 144.055219 
L 129.49005 145.831516 
L 131.584202 150.708019 
L 136.63245 155.410218 
L 141.867829 157.360819 
L 143.77485 159.137116 
L 149.010229 164.013619 
L 150.91725 165.789916 
L 156.152629 170.666419 
L 156.152629 177.319219 
L 156.152629 183.972019 
L 158.05965 185.748316 
L 160.153802 190.624819 
L 165.20205 195.327018 
L 170.437429 197.277619 
L 170.437429 203.930419 
L 170.437429 210.583219 
L 172.34445 212.359516 
L 179.48685 212.359516 
L 184.722229 217.236019 
L 184.722229 223.888819 
L 186.62925 225.665116 
L 191.864629 230.541619 
L 193.77165 232.317916 
L 199.007029 237.194419 
L 199.642703 243.847219 
L 199.642703 250.500019 
L 200.91405 250.648044 
L 207.897532 257.152819 
L 208.05645 257.300844 
L 215.039932 263.805619 
L 215.19885 263.953644 
L 220.128366 270.458419 
z
" clip-path="url(#pf449b0d2fa)" style="fill: #776ab0"/>
    <path d="M 222.34125 271.916491 
L 226.277973 277.111219 
L 227.385885 277.111219 
L 222.351249 270.458419 
L 222.351249 263.805619 
L 222.351249 257.152819 
L 222.34125 257.121772 
L 219.294506 250.500019 
L 219.294506 243.847219 
L 222.34125 238.880904 
L 224.755381 237.194419 
L 222.34125 233.821449 
L 219.993781 230.541619 
L 215.298844 223.888819 
L 215.298844 217.236019 
L 215.298844 210.583219 
L 215.298844 203.930419 
L 215.298844 197.277619 
L 215.298844 190.717958 
L 215.19885 190.624819 
L 208.05645 183.972019 
L 200.91405 177.319219 
L 200.91405 170.666419 
L 193.77165 170.666419 
L 186.62925 164.013619 
L 186.62925 157.360819 
L 179.48685 157.360819 
L 172.34445 150.708019 
L 172.34445 144.055219 
L 165.20205 144.055219 
L 158.05965 137.402419 
L 158.05965 130.749619 
L 150.91725 130.749619 
L 143.77485 124.096819 
L 136.63245 117.444019 
L 129.49005 110.791219 
L 122.34765 104.138419 
L 115.20525 97.485619 
L 108.06285 90.832819 
L 100.92045 84.180019 
L 100.92045 77.527219 
L 95.553447 77.527219 
L 95.553447 84.180019 
L 97.789698 90.832819 
L 100.92045 95.831923 
L 108.06285 95.831923 
L 109.838247 97.485619 
L 109.838247 104.138419 
L 114.939961 110.791219 
L 115.20525 111.137164 
L 121.976245 117.444019 
L 122.34765 118.308883 
L 124.123047 124.096819 
L 124.123047 130.749619 
L 129.224761 137.402419 
L 129.49005 137.748364 
L 136.261045 144.055219 
L 136.63245 144.920083 
L 142.846338 150.708019 
L 143.77485 151.053964 
L 150.545845 157.360819 
L 150.91725 157.706764 
L 157.688245 164.013619 
L 158.05965 164.359564 
L 164.830645 170.666419 
L 164.830645 177.319219 
L 164.830645 183.972019 
L 165.20205 184.836883 
L 171.415938 190.624819 
L 172.34445 190.970764 
L 179.115445 197.277619 
L 179.48685 197.623564 
L 186.257845 203.930419 
L 186.62925 204.276364 
L 193.400245 210.583219 
L 193.77165 211.448083 
L 196.257205 217.236019 
L 197.914242 223.888819 
L 200.91405 226.682995 
L 207.127938 230.541619 
L 208.05645 231.406483 
L 212.199042 237.194419 
L 212.199042 243.847219 
L 212.199042 250.500019 
L 215.19885 253.294195 
L 216.974247 257.152819 
L 218.584348 263.805619 
L 221.236279 270.458419 
z
" clip-path="url(#pf449b0d2fa)" style="fill: #6950a3"/>
    <path d="M 226.118151 270.458419 
L 226.118151 263.805619 
L 226.118151 257.152819 
L 224.675794 250.500019 
L 227.78852 243.847219 
L 229.48365 242.66302 
L 234.180492 237.194419 
L 234.180492 230.541619 
L 234.180492 223.888819 
L 234.180492 217.236019 
L 234.180492 210.583219 
L 234.180492 208.3053 
L 229.48365 203.930419 
L 222.34125 197.277619 
L 215.298844 190.717958 
L 215.298844 197.277619 
L 215.298844 203.930419 
L 215.298844 210.583219 
L 215.298844 217.236019 
L 215.298844 223.888819 
L 219.993781 230.541619 
L 222.34125 233.821449 
L 224.755381 237.194419 
L 222.34125 238.880904 
L 219.294506 243.847219 
L 219.294506 250.500019 
L 222.34125 257.121772 
L 222.351249 257.152819 
L 222.351249 263.805619 
L 222.351249 270.458419 
L 227.385885 277.111219 
L 228.493797 277.111219 
z
" clip-path="url(#pf449b0d2fa)" style="fill: #5d3897"/>
    <path d="M 229.48365 277.111219 
L 236.62605 277.111219 
L 243.76845 277.111219 
L 250.91085 277.111219 
L 258.05325 277.111219 
L 265.19565 277.111219 
L 272.33805 277.111219 
L 276.352079 277.111219 
L 272.33805 273.372345 
L 265.19565 273.372345 
L 258.05325 273.372345 
L 254.924879 270.458419 
L 250.91085 266.719545 
L 247.782479 263.805619 
L 243.76845 260.066745 
L 240.640079 257.152819 
L 236.62605 253.413945 
L 233.497679 250.500019 
L 236.000376 243.847219 
L 236.62605 243.118737 
L 241.714296 237.194419 
L 241.714296 230.541619 
L 241.714296 223.888819 
L 241.714296 217.236019 
L 241.714296 215.322673 
L 236.62605 210.583219 
L 234.180492 208.3053 
L 234.180492 210.583219 
L 234.180492 217.236019 
L 234.180492 223.888819 
L 234.180492 230.541619 
L 234.180492 237.194419 
L 229.48365 242.66302 
L 227.78852 243.847219 
L 224.675794 250.500019 
L 226.118151 257.152819 
L 226.118151 263.805619 
L 226.118151 270.458419 
L 228.493797 277.111219 
z
" clip-path="url(#pf449b0d2fa)" style="fill: #51218c"/>
    <path d="M 258.05325 273.372345 
L 265.19565 273.372345 
L 272.33805 273.372345 
L 276.352079 277.111219 
L 279.48045 277.111219 
L 286.62285 277.111219 
L 293.76525 277.111219 
L 300.90765 277.111219 
L 308.05005 277.111219 
L 300.90765 270.458419 
L 300.90765 263.805619 
L 293.76525 263.805619 
L 286.62285 257.152819 
L 279.48045 250.500019 
L 272.33805 243.847219 
L 265.19565 237.194419 
L 258.05325 230.541619 
L 258.05325 223.888819 
L 250.91085 223.888819 
L 243.76845 217.236019 
L 241.714296 215.322673 
L 241.714296 217.236019 
L 241.714296 223.888819 
L 241.714296 230.541619 
L 241.714296 237.194419 
L 236.62605 243.118737 
L 236.000376 243.847219 
L 233.497679 250.500019 
L 236.62605 253.413945 
L 240.640079 257.152819 
L 243.76845 260.066745 
L 247.782479 263.805619 
L 250.91085 266.719545 
L 254.924879 270.458419 
z
" clip-path="url(#pf449b0d2fa)" style="fill: #450b82"/>
   </g>
   <g id="matplotlib.axis_1">
    <g id="xtick_1">
     <g id="line2d_1">
      <defs>
       <path id="m2a846d691c" d="M 0 0 
L 0 3.5 
" style="stroke: #000000; stroke-width: 0.8"/>
      </defs>
      <g>
       <use xlink:href="#m2a846d691c" x="43.78125" y="277.111219" style="stroke: #000000; stroke-width: 0.8"/>
      </g>
     </g>
     <g id="text_1">
      <!-- 0.0 -->
      <g transform="translate(35.829688 291.709656) scale(0.1 -0.1)">
       <defs>
        <path id="DejaVuSans-30" d="M 2034 4250 
Q 1547 4250 1301 3770 
Q 1056 3291 1056 2328 
Q 1056 1369 1301 889 
Q 1547 409 2034 409 
Q 2525 409 2770 889 
Q 3016 1369 3016 2328 
Q 3016 3291 2770 3770 
Q 2525 4250 2034 4250 
z
M 2034 4750 
Q 2819 4750 3233 4129 
Q 3647 3509 3647 2328 
Q 3647 1150 3233 529 
Q 2819 -91 2034 -91 
Q 1250 -91 836 529 
Q 422 1150 422 2328 
Q 422 3509 836 4129 
Q 1250 4750 2034 4750 
z
" transform="scale(0.015625)"/>
        <path id="DejaVuSans-2e" d="M 684 794 
L 1344 794 
L 1344 0 
L 684 0 
L 684 794 
z
" transform="scale(0.015625)"/>
       </defs>
       <use xlink:href="#DejaVuSans-30"/>
       <use xlink:href="#DejaVuSans-2e" x="63.623047"/>
       <use xlink:href="#DejaVuSans-30" x="95.410156"/>
      </g>
     </g>
    </g>
    <g id="xtick_2">
     <g id="line2d_2">
      <g>
       <use xlink:href="#m2a846d691c" x="100.92045" y="277.111219" style="stroke: #000000; stroke-width: 0.8"/>
      </g>
     </g>
     <g id="text_2">
      <!-- 0.2 -->
      <g transform="translate(92.968888 291.709656) scale(0.1 -0.1)">
       <defs>
        <path id="DejaVuSans-32" d="M 1228 531 
L 3431 531 
L 3431 0 
L 469 0 
L 469 531 
Q 828 903 1448 1529 
Q 2069 2156 2228 2338 
Q 2531 2678 2651 2914 
Q 2772 3150 2772 3378 
Q 2772 3750 2511 3984 
Q 2250 4219 1831 4219 
Q 1534 4219 1204 4116 
Q 875 4013 500 3803 
L 500 4441 
Q 881 4594 1212 4672 
Q 1544 4750 1819 4750 
Q 2544 4750 2975 4387 
Q 3406 4025 3406 3419 
Q 3406 3131 3298 2873 
Q 3191 2616 2906 2266 
Q 2828 2175 2409 1742 
Q 1991 1309 1228 531 
z
" transform="scale(0.015625)"/>
       </defs>
       <use xlink:href="#DejaVuSans-30"/>
       <use xlink:href="#DejaVuSans-2e" x="63.623047"/>
       <use xlink:href="#DejaVuSans-32" x="95.410156"/>
      </g>
     </g>
    </g>
    <g id="xtick_3">
     <g id="line2d_3">
      <g>
       <use xlink:href="#m2a846d691c" x="158.05965" y="277.111219" style="stroke: #000000; stroke-width: 0.8"/>
      </g>
     </g>
     <g id="text_3">
      <!-- 0.4 -->
      <g transform="translate(150.108088 291.709656) scale(0.1 -0.1)">
       <defs>
        <path id="DejaVuSans-34" d="M 2419 4116 
L 825 1625 
L 2419 1625 
L 2419 4116 
z
M 2253 4666 
L 3047 4666 
L 3047 1625 
L 3713 1625 
L 3713 1100 
L 3047 1100 
L 3047 0 
L 2419 0 
L 2419 1100 
L 313 1100 
L 313 1709 
L 2253 4666 
z
" transform="scale(0.015625)"/>
       </defs>
       <use xlink:href="#DejaVuSans-30"/>
       <use xlink:href="#DejaVuSans-2e" x="63.623047"/>
       <use xlink:href="#DejaVuSans-34" x="95.410156"/>
      </g>
     </g>
    </g>
    <g id="xtick_4">
     <g id="line2d_4">
      <g>
       <use xlink:href="#m2a846d691c" x="215.19885" y="277.111219" style="stroke: #000000; stroke-width: 0.8"/>
      </g>
     </g>
     <g id="text_4">
      <!-- 0.6 -->
      <g transform="translate(207.247288 291.709656) scale(0.1 -0.1)">
       <defs>
        <path id="DejaVuSans-36" d="M 2113 2584 
Q 1688 2584 1439 2293 
Q 1191 2003 1191 1497 
Q 1191 994 1439 701 
Q 1688 409 2113 409 
Q 2538 409 2786 701 
Q 3034 994 3034 1497 
Q 3034 2003 2786 2293 
Q 2538 2584 2113 2584 
z
M 3366 4563 
L 3366 3988 
Q 3128 4100 2886 4159 
Q 2644 4219 2406 4219 
Q 1781 4219 1451 3797 
Q 1122 3375 1075 2522 
Q 1259 2794 1537 2939 
Q 1816 3084 2150 3084 
Q 2853 3084 3261 2657 
Q 3669 2231 3669 1497 
Q 3669 778 3244 343 
Q 2819 -91 2113 -91 
Q 1303 -91 875 529 
Q 447 1150 447 2328 
Q 447 3434 972 4092 
Q 1497 4750 2381 4750 
Q 2619 4750 2861 4703 
Q 3103 4656 3366 4563 
z
" transform="scale(0.015625)"/>
       </defs>
       <use xlink:href="#DejaVuSans-30"/>
       <use xlink:href="#DejaVuSans-2e" x="63.623047"/>
       <use xlink:href="#DejaVuSans-36" x="95.410156"/>
      </g>
     </g>
    </g>
    <g id="xtick_5">
     <g id="line2d_5">
      <g>
       <use xlink:href="#m2a846d691c" x="272.33805" y="277.111219" style="stroke: #000000; stroke-width: 0.8"/>
      </g>
     </g>
     <g id="text_5">
      <!-- 0.8 -->
      <g transform="translate(264.386488 291.709656) scale(0.1 -0.1)">
       <defs>
        <path id="DejaVuSans-38" d="M 2034 2216 
Q 1584 2216 1326 1975 
Q 1069 1734 1069 1313 
Q 1069 891 1326 650 
Q 1584 409 2034 409 
Q 2484 409 2743 651 
Q 3003 894 3003 1313 
Q 3003 1734 2745 1975 
Q 2488 2216 2034 2216 
z
M 1403 2484 
Q 997 2584 770 2862 
Q 544 3141 544 3541 
Q 544 4100 942 4425 
Q 1341 4750 2034 4750 
Q 2731 4750 3128 4425 
Q 3525 4100 3525 3541 
Q 3525 3141 3298 2862 
Q 3072 2584 2669 2484 
Q 3125 2378 3379 2068 
Q 3634 1759 3634 1313 
Q 3634 634 3220 271 
Q 2806 -91 2034 -91 
Q 1263 -91 848 271 
Q 434 634 434 1313 
Q 434 1759 690 2068 
Q 947 2378 1403 2484 
z
M 1172 3481 
Q 1172 3119 1398 2916 
Q 1625 2713 2034 2713 
Q 2441 2713 2670 2916 
Q 2900 3119 2900 3481 
Q 2900 3844 2670 4047 
Q 2441 4250 2034 4250 
Q 1625 4250 1398 4047 
Q 1172 3844 1172 3481 
z
" transform="scale(0.015625)"/>
       </defs>
       <use xlink:href="#DejaVuSans-30"/>
       <use xlink:href="#DejaVuSans-2e" x="63.623047"/>
       <use xlink:href="#DejaVuSans-38" x="95.410156"/>
      </g>
     </g>
    </g>
    <g id="xtick_6">
     <g id="line2d_6">
      <g>
       <use xlink:href="#m2a846d691c" x="329.47725" y="277.111219" style="stroke: #000000; stroke-width: 0.8"/>
      </g>
     </g>
     <g id="text_6">
      <!-- 1.0 -->
      <g transform="translate(321.525688 291.709656) scale(0.1 -0.1)">
       <defs>
        <path id="DejaVuSans-31" d="M 794 531 
L 1825 531 
L 1825 4091 
L 703 3866 
L 703 4441 
L 1819 4666 
L 2450 4666 
L 2450 531 
L 3481 531 
L 3481 0 
L 794 0 
L 794 531 
z
" transform="scale(0.015625)"/>
       </defs>
       <use xlink:href="#DejaVuSans-31"/>
       <use xlink:href="#DejaVuSans-2e" x="63.623047"/>
       <use xlink:href="#DejaVuSans-30" x="95.410156"/>
      </g>
     </g>
    </g>
    <g id="text_7">
     <!-- Equity in Vaccination Burden Multiplier (a) -->
     <g transform="translate(81.262844 305.387781) scale(0.1 -0.1)">
      <defs>
       <path id="DejaVuSans-45" d="M 628 4666 
L 3578 4666 
L 3578 4134 
L 1259 4134 
L 1259 2753 
L 3481 2753 
L 3481 2222 
L 1259 2222 
L 1259 531 
L 3634 531 
L 3634 0 
L 628 0 
L 628 4666 
z
" transform="scale(0.015625)"/>
       <path id="DejaVuSans-71" d="M 947 1747 
Q 947 1113 1208 752 
Q 1469 391 1925 391 
Q 2381 391 2643 752 
Q 2906 1113 2906 1747 
Q 2906 2381 2643 2742 
Q 2381 3103 1925 3103 
Q 1469 3103 1208 2742 
Q 947 2381 947 1747 
z
M 2906 525 
Q 2725 213 2448 61 
Q 2172 -91 1784 -91 
Q 1150 -91 751 415 
Q 353 922 353 1747 
Q 353 2572 751 3078 
Q 1150 3584 1784 3584 
Q 2172 3584 2448 3432 
Q 2725 3281 2906 2969 
L 2906 3500 
L 3481 3500 
L 3481 -1331 
L 2906 -1331 
L 2906 525 
z
" transform="scale(0.015625)"/>
       <path id="DejaVuSans-75" d="M 544 1381 
L 544 3500 
L 1119 3500 
L 1119 1403 
Q 1119 906 1312 657 
Q 1506 409 1894 409 
Q 2359 409 2629 706 
Q 2900 1003 2900 1516 
L 2900 3500 
L 3475 3500 
L 3475 0 
L 2900 0 
L 2900 538 
Q 2691 219 2414 64 
Q 2138 -91 1772 -91 
Q 1169 -91 856 284 
Q 544 659 544 1381 
z
M 1991 3584 
L 1991 3584 
z
" transform="scale(0.015625)"/>
       <path id="DejaVuSans-69" d="M 603 3500 
L 1178 3500 
L 1178 0 
L 603 0 
L 603 3500 
z
M 603 4863 
L 1178 4863 
L 1178 4134 
L 603 4134 
L 603 4863 
z
" transform="scale(0.015625)"/>
       <path id="DejaVuSans-74" d="M 1172 4494 
L 1172 3500 
L 2356 3500 
L 2356 3053 
L 1172 3053 
L 1172 1153 
Q 1172 725 1289 603 
Q 1406 481 1766 481 
L 2356 481 
L 2356 0 
L 1766 0 
Q 1100 0 847 248 
Q 594 497 594 1153 
L 594 3053 
L 172 3053 
L 172 3500 
L 594 3500 
L 594 4494 
L 1172 4494 
z
" transform="scale(0.015625)"/>
       <path id="DejaVuSans-79" d="M 2059 -325 
Q 1816 -950 1584 -1140 
Q 1353 -1331 966 -1331 
L 506 -1331 
L 506 -850 
L 844 -850 
Q 1081 -850 1212 -737 
Q 1344 -625 1503 -206 
L 1606 56 
L 191 3500 
L 800 3500 
L 1894 763 
L 2988 3500 
L 3597 3500 
L 2059 -325 
z
" transform="scale(0.015625)"/>
       <path id="DejaVuSans-20" transform="scale(0.015625)"/>
       <path id="DejaVuSans-6e" d="M 3513 2113 
L 3513 0 
L 2938 0 
L 2938 2094 
Q 2938 2591 2744 2837 
Q 2550 3084 2163 3084 
Q 1697 3084 1428 2787 
Q 1159 2491 1159 1978 
L 1159 0 
L 581 0 
L 581 3500 
L 1159 3500 
L 1159 2956 
Q 1366 3272 1645 3428 
Q 1925 3584 2291 3584 
Q 2894 3584 3203 3211 
Q 3513 2838 3513 2113 
z
" transform="scale(0.015625)"/>
       <path id="DejaVuSans-56" d="M 1831 0 
L 50 4666 
L 709 4666 
L 2188 738 
L 3669 4666 
L 4325 4666 
L 2547 0 
L 1831 0 
z
" transform="scale(0.015625)"/>
       <path id="DejaVuSans-61" d="M 2194 1759 
Q 1497 1759 1228 1600 
Q 959 1441 959 1056 
Q 959 750 1161 570 
Q 1363 391 1709 391 
Q 2188 391 2477 730 
Q 2766 1069 2766 1631 
L 2766 1759 
L 2194 1759 
z
M 3341 1997 
L 3341 0 
L 2766 0 
L 2766 531 
Q 2569 213 2275 61 
Q 1981 -91 1556 -91 
Q 1019 -91 701 211 
Q 384 513 384 1019 
Q 384 1609 779 1909 
Q 1175 2209 1959 2209 
L 2766 2209 
L 2766 2266 
Q 2766 2663 2505 2880 
Q 2244 3097 1772 3097 
Q 1472 3097 1187 3025 
Q 903 2953 641 2809 
L 641 3341 
Q 956 3463 1253 3523 
Q 1550 3584 1831 3584 
Q 2591 3584 2966 3190 
Q 3341 2797 3341 1997 
z
" transform="scale(0.015625)"/>
       <path id="DejaVuSans-63" d="M 3122 3366 
L 3122 2828 
Q 2878 2963 2633 3030 
Q 2388 3097 2138 3097 
Q 1578 3097 1268 2742 
Q 959 2388 959 1747 
Q 959 1106 1268 751 
Q 1578 397 2138 397 
Q 2388 397 2633 464 
Q 2878 531 3122 666 
L 3122 134 
Q 2881 22 2623 -34 
Q 2366 -91 2075 -91 
Q 1284 -91 818 406 
Q 353 903 353 1747 
Q 353 2603 823 3093 
Q 1294 3584 2113 3584 
Q 2378 3584 2631 3529 
Q 2884 3475 3122 3366 
z
" transform="scale(0.015625)"/>
       <path id="DejaVuSans-6f" d="M 1959 3097 
Q 1497 3097 1228 2736 
Q 959 2375 959 1747 
Q 959 1119 1226 758 
Q 1494 397 1959 397 
Q 2419 397 2687 759 
Q 2956 1122 2956 1747 
Q 2956 2369 2687 2733 
Q 2419 3097 1959 3097 
z
M 1959 3584 
Q 2709 3584 3137 3096 
Q 3566 2609 3566 1747 
Q 3566 888 3137 398 
Q 2709 -91 1959 -91 
Q 1206 -91 779 398 
Q 353 888 353 1747 
Q 353 2609 779 3096 
Q 1206 3584 1959 3584 
z
" transform="scale(0.015625)"/>
       <path id="DejaVuSans-42" d="M 1259 2228 
L 1259 519 
L 2272 519 
Q 2781 519 3026 730 
Q 3272 941 3272 1375 
Q 3272 1813 3026 2020 
Q 2781 2228 2272 2228 
L 1259 2228 
z
M 1259 4147 
L 1259 2741 
L 2194 2741 
Q 2656 2741 2882 2914 
Q 3109 3088 3109 3444 
Q 3109 3797 2882 3972 
Q 2656 4147 2194 4147 
L 1259 4147 
z
M 628 4666 
L 2241 4666 
Q 2963 4666 3353 4366 
Q 3744 4066 3744 3513 
Q 3744 3084 3544 2831 
Q 3344 2578 2956 2516 
Q 3422 2416 3680 2098 
Q 3938 1781 3938 1306 
Q 3938 681 3513 340 
Q 3088 0 2303 0 
L 628 0 
L 628 4666 
z
" transform="scale(0.015625)"/>
       <path id="DejaVuSans-72" d="M 2631 2963 
Q 2534 3019 2420 3045 
Q 2306 3072 2169 3072 
Q 1681 3072 1420 2755 
Q 1159 2438 1159 1844 
L 1159 0 
L 581 0 
L 581 3500 
L 1159 3500 
L 1159 2956 
Q 1341 3275 1631 3429 
Q 1922 3584 2338 3584 
Q 2397 3584 2469 3576 
Q 2541 3569 2628 3553 
L 2631 2963 
z
" transform="scale(0.015625)"/>
       <path id="DejaVuSans-64" d="M 2906 2969 
L 2906 4863 
L 3481 4863 
L 3481 0 
L 2906 0 
L 2906 525 
Q 2725 213 2448 61 
Q 2172 -91 1784 -91 
Q 1150 -91 751 415 
Q 353 922 353 1747 
Q 353 2572 751 3078 
Q 1150 3584 1784 3584 
Q 2172 3584 2448 3432 
Q 2725 3281 2906 2969 
z
M 947 1747 
Q 947 1113 1208 752 
Q 1469 391 1925 391 
Q 2381 391 2643 752 
Q 2906 1113 2906 1747 
Q 2906 2381 2643 2742 
Q 2381 3103 1925 3103 
Q 1469 3103 1208 2742 
Q 947 2381 947 1747 
z
" transform="scale(0.015625)"/>
       <path id="DejaVuSans-65" d="M 3597 1894 
L 3597 1613 
L 953 1613 
Q 991 1019 1311 708 
Q 1631 397 2203 397 
Q 2534 397 2845 478 
Q 3156 559 3463 722 
L 3463 178 
Q 3153 47 2828 -22 
Q 2503 -91 2169 -91 
Q 1331 -91 842 396 
Q 353 884 353 1716 
Q 353 2575 817 3079 
Q 1281 3584 2069 3584 
Q 2775 3584 3186 3129 
Q 3597 2675 3597 1894 
z
M 3022 2063 
Q 3016 2534 2758 2815 
Q 2500 3097 2075 3097 
Q 1594 3097 1305 2825 
Q 1016 2553 972 2059 
L 3022 2063 
z
" transform="scale(0.015625)"/>
       <path id="DejaVuSans-4d" d="M 628 4666 
L 1569 4666 
L 2759 1491 
L 3956 4666 
L 4897 4666 
L 4897 0 
L 4281 0 
L 4281 4097 
L 3078 897 
L 2444 897 
L 1241 4097 
L 1241 0 
L 628 0 
L 628 4666 
z
" transform="scale(0.015625)"/>
       <path id="DejaVuSans-6c" d="M 603 4863 
L 1178 4863 
L 1178 0 
L 603 0 
L 603 4863 
z
" transform="scale(0.015625)"/>
       <path id="DejaVuSans-70" d="M 1159 525 
L 1159 -1331 
L 581 -1331 
L 581 3500 
L 1159 3500 
L 1159 2969 
Q 1341 3281 1617 3432 
Q 1894 3584 2278 3584 
Q 2916 3584 3314 3078 
Q 3713 2572 3713 1747 
Q 3713 922 3314 415 
Q 2916 -91 2278 -91 
Q 1894 -91 1617 61 
Q 1341 213 1159 525 
z
M 3116 1747 
Q 3116 2381 2855 2742 
Q 2594 3103 2138 3103 
Q 1681 3103 1420 2742 
Q 1159 2381 1159 1747 
Q 1159 1113 1420 752 
Q 1681 391 2138 391 
Q 2594 391 2855 752 
Q 3116 1113 3116 1747 
z
" transform="scale(0.015625)"/>
       <path id="DejaVuSans-28" d="M 1984 4856 
Q 1566 4138 1362 3434 
Q 1159 2731 1159 2009 
Q 1159 1288 1364 580 
Q 1569 -128 1984 -844 
L 1484 -844 
Q 1016 -109 783 600 
Q 550 1309 550 2009 
Q 550 2706 781 3412 
Q 1013 4119 1484 4856 
L 1984 4856 
z
" transform="scale(0.015625)"/>
       <path id="DejaVuSans-29" d="M 513 4856 
L 1013 4856 
Q 1481 4119 1714 3412 
Q 1947 2706 1947 2009 
Q 1947 1309 1714 600 
Q 1481 -109 1013 -844 
L 513 -844 
Q 928 -128 1133 580 
Q 1338 1288 1338 2009 
Q 1338 2731 1133 3434 
Q 928 4138 513 4856 
z
" transform="scale(0.015625)"/>
      </defs>
      <use xlink:href="#DejaVuSans-45"/>
      <use xlink:href="#DejaVuSans-71" x="63.183594"/>
      <use xlink:href="#DejaVuSans-75" x="126.660156"/>
      <use xlink:href="#DejaVuSans-69" x="190.039062"/>
      <use xlink:href="#DejaVuSans-74" x="217.822266"/>
      <use xlink:href="#DejaVuSans-79" x="257.03125"/>
      <use xlink:href="#DejaVuSans-20" x="316.210938"/>
      <use xlink:href="#DejaVuSans-69" x="347.998047"/>
      <use xlink:href="#DejaVuSans-6e" x="375.78125"/>
      <use xlink:href="#DejaVuSans-20" x="439.160156"/>
      <use xlink:href="#DejaVuSans-56" x="470.947266"/>
      <use xlink:href="#DejaVuSans-61" x="531.605469"/>
      <use xlink:href="#DejaVuSans-63" x="592.884766"/>
      <use xlink:href="#DejaVuSans-63" x="647.865234"/>
      <use xlink:href="#DejaVuSans-69" x="702.845703"/>
      <use xlink:href="#DejaVuSans-6e" x="730.628906"/>
      <use xlink:href="#DejaVuSans-61" x="794.007812"/>
      <use xlink:href="#DejaVuSans-74" x="855.287109"/>
      <use xlink:href="#DejaVuSans-69" x="894.496094"/>
      <use xlink:href="#DejaVuSans-6f" x="922.279297"/>
      <use xlink:href="#DejaVuSans-6e" x="983.460938"/>
      <use xlink:href="#DejaVuSans-20" x="1046.839844"/>
      <use xlink:href="#DejaVuSans-42" x="1078.626953"/>
      <use xlink:href="#DejaVuSans-75" x="1147.230469"/>
      <use xlink:href="#DejaVuSans-72" x="1210.609375"/>
      <use xlink:href="#DejaVuSans-64" x="1249.972656"/>
      <use xlink:href="#DejaVuSans-65" x="1313.449219"/>
      <use xlink:href="#DejaVuSans-6e" x="1374.972656"/>
      <use xlink:href="#DejaVuSans-20" x="1438.351562"/>
      <use xlink:href="#DejaVuSans-4d" x="1470.138672"/>
      <use xlink:href="#DejaVuSans-75" x="1556.417969"/>
      <use xlink:href="#DejaVuSans-6c" x="1619.796875"/>
      <use xlink:href="#DejaVuSans-74" x="1647.580078"/>
      <use xlink:href="#DejaVuSans-69" x="1686.789062"/>
      <use xlink:href="#DejaVuSans-70" x="1714.572266"/>
      <use xlink:href="#DejaVuSans-6c" x="1778.048828"/>
      <use xlink:href="#DejaVuSans-69" x="1805.832031"/>
      <use xlink:href="#DejaVuSans-65" x="1833.615234"/>
      <use xlink:href="#DejaVuSans-72" x="1895.138672"/>
      <use xlink:href="#DejaVuSans-20" x="1936.251953"/>
      <use xlink:href="#DejaVuSans-28" x="1968.039062"/>
      <use xlink:href="#DejaVuSans-61" x="2007.052734"/>
      <use xlink:href="#DejaVuSans-29" x="2068.332031"/>
     </g>
    </g>
   </g>
   <g id="matplotlib.axis_2">
    <g id="ytick_1">
     <g id="line2d_7">
      <defs>
       <path id="me928cf7f9d" d="M 0 0 
L -3.5 0 
" style="stroke: #000000; stroke-width: 0.8"/>
      </defs>
      <g>
       <use xlink:href="#me928cf7f9d" x="43.78125" y="277.111219" style="stroke: #000000; stroke-width: 0.8"/>
      </g>
     </g>
     <g id="text_8">
      <!-- 0.0 -->
      <g transform="translate(20.878125 280.910437) scale(0.1 -0.1)">
       <use xlink:href="#DejaVuSans-30"/>
       <use xlink:href="#DejaVuSans-2e" x="63.623047"/>
       <use xlink:href="#DejaVuSans-30" x="95.410156"/>
      </g>
     </g>
    </g>
    <g id="ytick_2">
     <g id="line2d_8">
      <g>
       <use xlink:href="#me928cf7f9d" x="43.78125" y="223.888819" style="stroke: #000000; stroke-width: 0.8"/>
      </g>
     </g>
     <g id="text_9">
      <!-- 0.2 -->
      <g transform="translate(20.878125 227.688037) scale(0.1 -0.1)">
       <use xlink:href="#DejaVuSans-30"/>
       <use xlink:href="#DejaVuSans-2e" x="63.623047"/>
       <use xlink:href="#DejaVuSans-32" x="95.410156"/>
      </g>
     </g>
    </g>
    <g id="ytick_3">
     <g id="line2d_9">
      <g>
       <use xlink:href="#me928cf7f9d" x="43.78125" y="170.666419" style="stroke: #000000; stroke-width: 0.8"/>
      </g>
     </g>
     <g id="text_10">
      <!-- 0.4 -->
      <g transform="translate(20.878125 174.465637) scale(0.1 -0.1)">
       <use xlink:href="#DejaVuSans-30"/>
       <use xlink:href="#DejaVuSans-2e" x="63.623047"/>
       <use xlink:href="#DejaVuSans-34" x="95.410156"/>
      </g>
     </g>
    </g>
    <g id="ytick_4">
     <g id="line2d_10">
      <g>
       <use xlink:href="#me928cf7f9d" x="43.78125" y="117.444019" style="stroke: #000000; stroke-width: 0.8"/>
      </g>
     </g>
     <g id="text_11">
      <!-- 0.6 -->
      <g transform="translate(20.878125 121.243237) scale(0.1 -0.1)">
       <use xlink:href="#DejaVuSans-30"/>
       <use xlink:href="#DejaVuSans-2e" x="63.623047"/>
       <use xlink:href="#DejaVuSans-36" x="95.410156"/>
      </g>
     </g>
    </g>
    <g id="ytick_5">
     <g id="line2d_11">
      <g>
       <use xlink:href="#me928cf7f9d" x="43.78125" y="64.221619" style="stroke: #000000; stroke-width: 0.8"/>
      </g>
     </g>
     <g id="text_12">
      <!-- 0.8 -->
      <g transform="translate(20.878125 68.020837) scale(0.1 -0.1)">
       <use xlink:href="#DejaVuSans-30"/>
       <use xlink:href="#DejaVuSans-2e" x="63.623047"/>
       <use xlink:href="#DejaVuSans-38" x="95.410156"/>
      </g>
     </g>
    </g>
    <g id="ytick_6">
     <g id="line2d_12">
      <g>
       <use xlink:href="#me928cf7f9d" x="43.78125" y="10.999219" style="stroke: #000000; stroke-width: 0.8"/>
      </g>
     </g>
     <g id="text_13">
      <!-- 1.0 -->
      <g transform="translate(20.878125 14.798437) scale(0.1 -0.1)">
       <use xlink:href="#DejaVuSans-31"/>
       <use xlink:href="#DejaVuSans-2e" x="63.623047"/>
       <use xlink:href="#DejaVuSans-30" x="95.410156"/>
      </g>
     </g>
    </g>
    <g id="text_14">
     <!-- Equity in Infection Burden Multiplier (b) -->
     <g transform="translate(14.798438 242.544281) rotate(-90) scale(0.1 -0.1)">
      <defs>
       <path id="DejaVuSans-49" d="M 628 4666 
L 1259 4666 
L 1259 0 
L 628 0 
L 628 4666 
z
" transform="scale(0.015625)"/>
       <path id="DejaVuSans-66" d="M 2375 4863 
L 2375 4384 
L 1825 4384 
Q 1516 4384 1395 4259 
Q 1275 4134 1275 3809 
L 1275 3500 
L 2222 3500 
L 2222 3053 
L 1275 3053 
L 1275 0 
L 697 0 
L 697 3053 
L 147 3053 
L 147 3500 
L 697 3500 
L 697 3744 
Q 697 4328 969 4595 
Q 1241 4863 1831 4863 
L 2375 4863 
z
" transform="scale(0.015625)"/>
       <path id="DejaVuSans-62" d="M 3116 1747 
Q 3116 2381 2855 2742 
Q 2594 3103 2138 3103 
Q 1681 3103 1420 2742 
Q 1159 2381 1159 1747 
Q 1159 1113 1420 752 
Q 1681 391 2138 391 
Q 2594 391 2855 752 
Q 3116 1113 3116 1747 
z
M 1159 2969 
Q 1341 3281 1617 3432 
Q 1894 3584 2278 3584 
Q 2916 3584 3314 3078 
Q 3713 2572 3713 1747 
Q 3713 922 3314 415 
Q 2916 -91 2278 -91 
Q 1894 -91 1617 61 
Q 1341 213 1159 525 
L 1159 0 
L 581 0 
L 581 4863 
L 1159 4863 
L 1159 2969 
z
" transform="scale(0.015625)"/>
      </defs>
      <use xlink:href="#DejaVuSans-45"/>
      <use xlink:href="#DejaVuSans-71" x="63.183594"/>
      <use xlink:href="#DejaVuSans-75" x="126.660156"/>
      <use xlink:href="#DejaVuSans-69" x="190.039062"/>
      <use xlink:href="#DejaVuSans-74" x="217.822266"/>
      <use xlink:href="#DejaVuSans-79" x="257.03125"/>
      <use xlink:href="#DejaVuSans-20" x="316.210938"/>
      <use xlink:href="#DejaVuSans-69" x="347.998047"/>
      <use xlink:href="#DejaVuSans-6e" x="375.78125"/>
      <use xlink:href="#DejaVuSans-20" x="439.160156"/>
      <use xlink:href="#DejaVuSans-49" x="470.947266"/>
      <use xlink:href="#DejaVuSans-6e" x="500.439453"/>
      <use xlink:href="#DejaVuSans-66" x="563.818359"/>
      <use xlink:href="#DejaVuSans-65" x="599.023438"/>
      <use xlink:href="#DejaVuSans-63" x="660.546875"/>
      <use xlink:href="#DejaVuSans-74" x="715.527344"/>
      <use xlink:href="#DejaVuSans-69" x="754.736328"/>
      <use xlink:href="#DejaVuSans-6f" x="782.519531"/>
      <use xlink:href="#DejaVuSans-6e" x="843.701172"/>
      <use xlink:href="#DejaVuSans-20" x="907.080078"/>
      <use xlink:href="#DejaVuSans-42" x="938.867188"/>
      <use xlink:href="#DejaVuSans-75" x="1007.470703"/>
      <use xlink:href="#DejaVuSans-72" x="1070.849609"/>
      <use xlink:href="#DejaVuSans-64" x="1110.212891"/>
      <use xlink:href="#DejaVuSans-65" x="1173.689453"/>
      <use xlink:href="#DejaVuSans-6e" x="1235.212891"/>
      <use xlink:href="#DejaVuSans-20" x="1298.591797"/>
      <use xlink:href="#DejaVuSans-4d" x="1330.378906"/>
      <use xlink:href="#DejaVuSans-75" x="1416.658203"/>
      <use xlink:href="#DejaVuSans-6c" x="1480.037109"/>
      <use xlink:href="#DejaVuSans-74" x="1507.820312"/>
      <use xlink:href="#DejaVuSans-69" x="1547.029297"/>
      <use xlink:href="#DejaVuSans-70" x="1574.8125"/>
      <use xlink:href="#DejaVuSans-6c" x="1638.289062"/>
      <use xlink:href="#DejaVuSans-69" x="1666.072266"/>
      <use xlink:href="#DejaVuSans-65" x="1693.855469"/>
      <use xlink:href="#DejaVuSans-72" x="1755.378906"/>
      <use xlink:href="#DejaVuSans-20" x="1796.492188"/>
      <use xlink:href="#DejaVuSans-28" x="1828.279297"/>
      <use xlink:href="#DejaVuSans-62" x="1867.292969"/>
      <use xlink:href="#DejaVuSans-29" x="1930.769531"/>
     </g>
    </g>
   </g>
   <g id="patch_3">
    <path d="M 43.78125 277.111219 
L 43.78125 10.999219 
" style="fill: none; stroke: #000000; stroke-width: 0.8; stroke-linejoin: miter; stroke-linecap: square"/>
   </g>
   <g id="patch_4">
    <path d="M 329.47725 277.111219 
L 329.47725 10.999219 
" style="fill: none; stroke: #000000; stroke-width: 0.8; stroke-linejoin: miter; stroke-linecap: square"/>
   </g>
   <g id="patch_5">
    <path d="M 43.78125 277.111219 
L 329.47725 277.111219 
" style="fill: none; stroke: #000000; stroke-width: 0.8; stroke-linejoin: miter; stroke-linecap: square"/>
   </g>
   <g id="patch_6">
    <path d="M 43.78125 10.999219 
L 329.47725 10.999219 
" style="fill: none; stroke: #000000; stroke-width: 0.8; stroke-linejoin: miter; stroke-linecap: square"/>
   </g>
  </g>
  <g id="axes_2">
   <g id="patch_7">
    <path d="M 347.33325 277.111219 
L 360.63885 277.111219 
L 360.63885 10.999219 
L 347.33325 10.999219 
z
" style="fill: #ffffff"/>
   </g>
   <g id="QuadMesh_1">
    <path d="M 347.33325 277.111219 
L 360.63885 277.111219 
L 360.63885 258.103219 
L 347.33325 258.103219 
L 347.33325 277.111219 
" clip-path="url(#pe73120d467)" style="fill: #f8f7fb"/>
    <path d="M 347.33325 258.103219 
L 360.63885 258.103219 
L 360.63885 239.095219 
L 347.33325 239.095219 
L 347.33325 258.103219 
" clip-path="url(#pe73120d467)" style="fill: #f1eff6"/>
    <path d="M 347.33325 239.095219 
L 360.63885 239.095219 
L 360.63885 220.087219 
L 347.33325 220.087219 
L 347.33325 239.095219 
" clip-path="url(#pe73120d467)" style="fill: #e6e5f1"/>
    <path d="M 347.33325 220.087219 
L 360.63885 220.087219 
L 360.63885 201.079219 
L 347.33325 201.079219 
L 347.33325 220.087219 
" clip-path="url(#pe73120d467)" style="fill: #dadaeb"/>
    <path d="M 347.33325 201.079219 
L 360.63885 201.079219 
L 360.63885 182.071219 
L 347.33325 182.071219 
L 347.33325 201.079219 
" clip-path="url(#pe73120d467)" style="fill: #c9c9e2"/>
    <path d="M 347.33325 182.071219 
L 360.63885 182.071219 
L 360.63885 163.063219 
L 347.33325 163.063219 
L 347.33325 182.071219 
" clip-path="url(#pe73120d467)" style="fill: #b8b8d9"/>
    <path d="M 347.33325 163.063219 
L 360.63885 163.063219 
L 360.63885 144.055219 
L 347.33325 144.055219 
L 347.33325 163.063219 
" clip-path="url(#pe73120d467)" style="fill: #a7a4ce"/>
    <path d="M 347.33325 144.055219 
L 360.63885 144.055219 
L 360.63885 125.047219 
L 347.33325 125.047219 
L 347.33325 144.055219 
" clip-path="url(#pe73120d467)" style="fill: #9591c4"/>
    <path d="M 347.33325 125.047219 
L 360.63885 125.047219 
L 360.63885 106.039219 
L 347.33325 106.039219 
L 347.33325 125.047219 
" clip-path="url(#pe73120d467)" style="fill: #8481bc"/>
    <path d="M 347.33325 106.039219 
L 360.63885 106.039219 
L 360.63885 87.031219 
L 347.33325 87.031219 
L 347.33325 106.039219 
" clip-path="url(#pe73120d467)" style="fill: #776ab0"/>
    <path d="M 347.33325 87.031219 
L 360.63885 87.031219 
L 360.63885 68.023219 
L 347.33325 68.023219 
L 347.33325 87.031219 
" clip-path="url(#pe73120d467)" style="fill: #6950a3"/>
    <path d="M 347.33325 68.023219 
L 360.63885 68.023219 
L 360.63885 49.015219 
L 347.33325 49.015219 
L 347.33325 68.023219 
" clip-path="url(#pe73120d467)" style="fill: #5d3897"/>
    <path d="M 347.33325 49.015219 
L 360.63885 49.015219 
L 360.63885 30.007219 
L 347.33325 30.007219 
L 347.33325 49.015219 
" clip-path="url(#pe73120d467)" style="fill: #51218c"/>
    <path d="M 347.33325 30.007219 
L 360.63885 30.007219 
L 360.63885 10.999219 
L 347.33325 10.999219 
L 347.33325 30.007219 
" clip-path="url(#pe73120d467)" style="fill: #450b82"/>
   </g>
   <g id="matplotlib.axis_3"/>
   <g id="matplotlib.axis_4">
    <g id="ytick_7">
     <g id="line2d_13">
      <defs>
       <path id="m7404cb58a7" d="M 0 0 
L 3.5 0 
" style="stroke: #000000; stroke-width: 0.8"/>
      </defs>
      <g>
       <use xlink:href="#m7404cb58a7" x="360.63885" y="277.111219" style="stroke: #000000; stroke-width: 0.8"/>
      </g>
     </g>
     <g id="text_15">
      <!-- 0 -->
      <g transform="translate(367.63885 280.910437) scale(0.1 -0.1)">
       <use xlink:href="#DejaVuSans-30"/>
      </g>
     </g>
    </g>
    <g id="ytick_8">
     <g id="line2d_14">
      <g>
       <use xlink:href="#m7404cb58a7" x="360.63885" y="239.095219" style="stroke: #000000; stroke-width: 0.8"/>
      </g>
     </g>
     <g id="text_16">
      <!-- 6 -->
      <g transform="translate(367.63885 242.894437) scale(0.1 -0.1)">
       <use xlink:href="#DejaVuSans-36"/>
      </g>
     </g>
    </g>
    <g id="ytick_9">
     <g id="line2d_15">
      <g>
       <use xlink:href="#m7404cb58a7" x="360.63885" y="201.079219" style="stroke: #000000; stroke-width: 0.8"/>
      </g>
     </g>
     <g id="text_17">
      <!-- 12 -->
      <g transform="translate(367.63885 204.878437) scale(0.1 -0.1)">
       <use xlink:href="#DejaVuSans-31"/>
       <use xlink:href="#DejaVuSans-32" x="63.623047"/>
      </g>
     </g>
    </g>
    <g id="ytick_10">
     <g id="line2d_16">
      <g>
       <use xlink:href="#m7404cb58a7" x="360.63885" y="163.063219" style="stroke: #000000; stroke-width: 0.8"/>
      </g>
     </g>
     <g id="text_18">
      <!-- 18 -->
      <g transform="translate(367.63885 166.862437) scale(0.1 -0.1)">
       <use xlink:href="#DejaVuSans-31"/>
       <use xlink:href="#DejaVuSans-38" x="63.623047"/>
      </g>
     </g>
    </g>
    <g id="ytick_11">
     <g id="line2d_17">
      <g>
       <use xlink:href="#m7404cb58a7" x="360.63885" y="125.047219" style="stroke: #000000; stroke-width: 0.8"/>
      </g>
     </g>
     <g id="text_19">
      <!-- 24 -->
      <g transform="translate(367.63885 128.846437) scale(0.1 -0.1)">
       <use xlink:href="#DejaVuSans-32"/>
       <use xlink:href="#DejaVuSans-34" x="63.623047"/>
      </g>
     </g>
    </g>
    <g id="ytick_12">
     <g id="line2d_18">
      <g>
       <use xlink:href="#m7404cb58a7" x="360.63885" y="87.031219" style="stroke: #000000; stroke-width: 0.8"/>
      </g>
     </g>
     <g id="text_20">
      <!-- 30 -->
      <g transform="translate(367.63885 90.830437) scale(0.1 -0.1)">
       <defs>
        <path id="DejaVuSans-33" d="M 2597 2516 
Q 3050 2419 3304 2112 
Q 3559 1806 3559 1356 
Q 3559 666 3084 287 
Q 2609 -91 1734 -91 
Q 1441 -91 1130 -33 
Q 819 25 488 141 
L 488 750 
Q 750 597 1062 519 
Q 1375 441 1716 441 
Q 2309 441 2620 675 
Q 2931 909 2931 1356 
Q 2931 1769 2642 2001 
Q 2353 2234 1838 2234 
L 1294 2234 
L 1294 2753 
L 1863 2753 
Q 2328 2753 2575 2939 
Q 2822 3125 2822 3475 
Q 2822 3834 2567 4026 
Q 2313 4219 1838 4219 
Q 1578 4219 1281 4162 
Q 984 4106 628 3988 
L 628 4550 
Q 988 4650 1302 4700 
Q 1616 4750 1894 4750 
Q 2613 4750 3031 4423 
Q 3450 4097 3450 3541 
Q 3450 3153 3228 2886 
Q 3006 2619 2597 2516 
z
" transform="scale(0.015625)"/>
       </defs>
       <use xlink:href="#DejaVuSans-33"/>
       <use xlink:href="#DejaVuSans-30" x="63.623047"/>
      </g>
     </g>
    </g>
    <g id="ytick_13">
     <g id="line2d_19">
      <g>
       <use xlink:href="#m7404cb58a7" x="360.63885" y="49.015219" style="stroke: #000000; stroke-width: 0.8"/>
      </g>
     </g>
     <g id="text_21">
      <!-- 36 -->
      <g transform="translate(367.63885 52.814437) scale(0.1 -0.1)">
       <use xlink:href="#DejaVuSans-33"/>
       <use xlink:href="#DejaVuSans-36" x="63.623047"/>
      </g>
     </g>
    </g>
    <g id="ytick_14">
     <g id="line2d_20">
      <g>
       <use xlink:href="#m7404cb58a7" x="360.63885" y="10.999219" style="stroke: #000000; stroke-width: 0.8"/>
      </g>
     </g>
     <g id="text_22">
      <!-- 42 -->
      <g transform="translate(367.63885 14.798437) scale(0.1 -0.1)">
       <use xlink:href="#DejaVuSans-34"/>
       <use xlink:href="#DejaVuSans-32" x="63.623047"/>
      </g>
     </g>
    </g>
    <g id="text_23">
     <!-- Vaccinations in group 1 (%) -->
     <g transform="translate(391.962288 212.721625) rotate(-90) scale(0.1 -0.1)">
      <defs>
       <path id="DejaVuSans-73" d="M 2834 3397 
L 2834 2853 
Q 2591 2978 2328 3040 
Q 2066 3103 1784 3103 
Q 1356 3103 1142 2972 
Q 928 2841 928 2578 
Q 928 2378 1081 2264 
Q 1234 2150 1697 2047 
L 1894 2003 
Q 2506 1872 2764 1633 
Q 3022 1394 3022 966 
Q 3022 478 2636 193 
Q 2250 -91 1575 -91 
Q 1294 -91 989 -36 
Q 684 19 347 128 
L 347 722 
Q 666 556 975 473 
Q 1284 391 1588 391 
Q 1994 391 2212 530 
Q 2431 669 2431 922 
Q 2431 1156 2273 1281 
Q 2116 1406 1581 1522 
L 1381 1569 
Q 847 1681 609 1914 
Q 372 2147 372 2553 
Q 372 3047 722 3315 
Q 1072 3584 1716 3584 
Q 2034 3584 2315 3537 
Q 2597 3491 2834 3397 
z
" transform="scale(0.015625)"/>
       <path id="DejaVuSans-67" d="M 2906 1791 
Q 2906 2416 2648 2759 
Q 2391 3103 1925 3103 
Q 1463 3103 1205 2759 
Q 947 2416 947 1791 
Q 947 1169 1205 825 
Q 1463 481 1925 481 
Q 2391 481 2648 825 
Q 2906 1169 2906 1791 
z
M 3481 434 
Q 3481 -459 3084 -895 
Q 2688 -1331 1869 -1331 
Q 1566 -1331 1297 -1286 
Q 1028 -1241 775 -1147 
L 775 -588 
Q 1028 -725 1275 -790 
Q 1522 -856 1778 -856 
Q 2344 -856 2625 -561 
Q 2906 -266 2906 331 
L 2906 616 
Q 2728 306 2450 153 
Q 2172 0 1784 0 
Q 1141 0 747 490 
Q 353 981 353 1791 
Q 353 2603 747 3093 
Q 1141 3584 1784 3584 
Q 2172 3584 2450 3431 
Q 2728 3278 2906 2969 
L 2906 3500 
L 3481 3500 
L 3481 434 
z
" transform="scale(0.015625)"/>
       <path id="DejaVuSans-25" d="M 4653 2053 
Q 4381 2053 4226 1822 
Q 4072 1591 4072 1178 
Q 4072 772 4226 539 
Q 4381 306 4653 306 
Q 4919 306 5073 539 
Q 5228 772 5228 1178 
Q 5228 1588 5073 1820 
Q 4919 2053 4653 2053 
z
M 4653 2450 
Q 5147 2450 5437 2106 
Q 5728 1763 5728 1178 
Q 5728 594 5436 251 
Q 5144 -91 4653 -91 
Q 4153 -91 3862 251 
Q 3572 594 3572 1178 
Q 3572 1766 3864 2108 
Q 4156 2450 4653 2450 
z
M 1428 4353 
Q 1159 4353 1004 4120 
Q 850 3888 850 3481 
Q 850 3069 1003 2837 
Q 1156 2606 1428 2606 
Q 1700 2606 1854 2837 
Q 2009 3069 2009 3481 
Q 2009 3884 1853 4118 
Q 1697 4353 1428 4353 
z
M 4250 4750 
L 4750 4750 
L 1831 -91 
L 1331 -91 
L 4250 4750 
z
M 1428 4750 
Q 1922 4750 2215 4408 
Q 2509 4066 2509 3481 
Q 2509 2891 2217 2550 
Q 1925 2209 1428 2209 
Q 931 2209 642 2551 
Q 353 2894 353 3481 
Q 353 4063 643 4406 
Q 934 4750 1428 4750 
z
" transform="scale(0.015625)"/>
      </defs>
      <use xlink:href="#DejaVuSans-56"/>
      <use xlink:href="#DejaVuSans-61" x="60.658203"/>
      <use xlink:href="#DejaVuSans-63" x="121.9375"/>
      <use xlink:href="#DejaVuSans-63" x="176.917969"/>
      <use xlink:href="#DejaVuSans-69" x="231.898438"/>
      <use xlink:href="#DejaVuSans-6e" x="259.681641"/>
      <use xlink:href="#DejaVuSans-61" x="323.060547"/>
      <use xlink:href="#DejaVuSans-74" x="384.339844"/>
      <use xlink:href="#DejaVuSans-69" x="423.548828"/>
      <use xlink:href="#DejaVuSans-6f" x="451.332031"/>
      <use xlink:href="#DejaVuSans-6e" x="512.513672"/>
      <use xlink:href="#DejaVuSans-73" x="575.892578"/>
      <use xlink:href="#DejaVuSans-20" x="627.992188"/>
      <use xlink:href="#DejaVuSans-69" x="659.779297"/>
      <use xlink:href="#DejaVuSans-6e" x="687.5625"/>
      <use xlink:href="#DejaVuSans-20" x="750.941406"/>
      <use xlink:href="#DejaVuSans-67" x="782.728516"/>
      <use xlink:href="#DejaVuSans-72" x="846.205078"/>
      <use xlink:href="#DejaVuSans-6f" x="885.068359"/>
      <use xlink:href="#DejaVuSans-75" x="946.25"/>
      <use xlink:href="#DejaVuSans-70" x="1009.628906"/>
      <use xlink:href="#DejaVuSans-20" x="1073.105469"/>
      <use xlink:href="#DejaVuSans-31" x="1104.892578"/>
      <use xlink:href="#DejaVuSans-20" x="1168.515625"/>
      <use xlink:href="#DejaVuSans-28" x="1200.302734"/>
      <use xlink:href="#DejaVuSans-25" x="1239.316406"/>
      <use xlink:href="#DejaVuSans-29" x="1334.335938"/>
     </g>
    </g>
   </g>
   <g id="LineCollection_1"/>
   <g id="patch_8">
    <path d="M 347.33325 277.111219 
L 353.98605 277.111219 
L 360.63885 277.111219 
L 360.63885 10.999219 
L 353.98605 10.999219 
L 347.33325 10.999219 
L 347.33325 277.111219 
z
" style="fill: none; stroke: #000000; stroke-width: 0.8; stroke-linejoin: miter; stroke-linecap: square"/>
   </g>
  </g>
 </g>
 <defs>
  <clipPath id="pf449b0d2fa">
   <rect x="43.78125" y="10.999219" width="285.696" height="266.112"/>
  </clipPath>
  <clipPath id="pe73120d467">
   <rect x="347.33325" y="10.999219" width="13.3056" height="266.112"/>
  </clipPath>
 </defs>
</svg>
