<?xml version="1.0" encoding="utf-8" standalone="no"?>
<!DOCTYPE svg PUBLIC "-//W3C//DTD SVG 1.1//EN"
  "http://www.w3.org/Graphics/SVG/1.1/DTD/svg11.dtd">
<svg xmlns:xlink="http://www.w3.org/1999/xlink" width="426.691975pt" height="314.667469pt" viewBox="0 0 426.691975 314.667469" xmlns="http://www.w3.org/2000/svg" version="1.1">
 <metadata>
  <rdf:RDF xmlns:dc="http://purl.org/dc/elements/1.1/" xmlns:cc="http://creativecommons.org/ns#" xmlns:rdf="http://www.w3.org/1999/02/22-rdf-syntax-ns#">
   <cc:Work>
    <dc:type rdf:resource="http://purl.org/dc/dcmitype/StillImage"/>
    <dc:date>2024-11-11T09:33:36.329721</dc:date>
    <dc:format>image/svg+xml</dc:format>
    <dc:creator>
     <cc:Agent>
      <dc:title>Matplotlib v3.9.0, https://matplotlib.org/</dc:title>
     </cc:Agent>
    </dc:creator>
   </cc:Work>
  </rdf:RDF>
 </metadata>
 <defs>
  <style type="text/css">*{stroke-linejoin: round; stroke-linecap: butt}</style>
 </defs>
 <g id="figure_1">
  <g id="patch_1">
   <path d="M 0 314.667469 
L 426.691975 314.667469 
L 426.691975 0 
L 0 0 
z
" style="fill: #ffffff"/>
  </g>
  <g id="axes_1">
   <g id="patch_2">
    <path d="M 43.78125 277.111219 
L 329.47725 277.111219 
L 329.47725 10.999219 
L 43.78125 10.999219 
z
" style="fill: #ffffff"/>
   </g>
   <g id="QuadContourSet_1">
    <path d="M 100.92045 239.721424 
L 108.06285 239.721424 
L 115.20525 239.721424 
L 120.731575 237.194419 
L 115.20525 232.046914 
L 108.06285 232.046914 
L 106.446775 230.541619 
L 106.446775 223.888819 
L 100.92045 218.741314 
L 99.304375 217.236019 
L 93.77805 212.088514 
L 92.161975 210.583219 
L 86.63565 205.435714 
L 85.019575 203.930419 
L 79.49325 198.782914 
L 77.877175 197.277619 
L 72.35085 192.130114 
L 70.734775 190.624819 
L 65.20845 185.477314 
L 63.592375 183.972019 
L 58.06605 181.399526 
L 53.68546 177.319219 
L 50.92365 174.746726 
L 46.54306 170.666419 
L 43.78125 169.380796 
L 43.78125 170.666419 
L 43.78125 177.319219 
L 43.78125 183.972019 
L 43.78125 190.624819 
L 43.78125 197.277619 
L 43.78125 203.930419 
L 43.78125 210.583219 
L 43.78125 217.236019 
L 43.78125 223.888819 
L 43.78125 226.415824 
L 50.92365 226.415824 
L 58.06605 226.415824 
L 65.20845 226.415824 
L 72.35085 226.415824 
L 79.49325 226.415824 
L 86.63565 226.415824 
L 91.065075 230.541619 
L 93.77805 233.068624 
L 98.207475 237.194419 
z
" clip-path="url(#pddcdf18d7e)" style="fill: #ffefe8"/>
    <path d="M 100.92045 243.20868 
L 108.06285 243.20868 
L 115.20525 243.20868 
L 122.34765 239.942697 
L 128.357878 237.194419 
L 128.357878 230.541619 
L 122.34765 224.943383 
L 115.20525 224.943383 
L 114.073078 223.888819 
L 108.06285 218.290583 
L 106.930678 217.236019 
L 100.92045 211.637783 
L 99.788278 210.583219 
L 99.788278 203.930419 
L 93.77805 198.332183 
L 86.63565 198.332183 
L 85.503478 197.277619 
L 85.503478 190.624819 
L 79.49325 185.026583 
L 72.35085 185.026583 
L 71.218678 183.972019 
L 65.20845 178.379261 
L 58.06605 177.849499 
L 57.496745 177.319219 
L 50.92365 171.196699 
L 50.354345 170.666419 
L 43.78125 167.606643 
L 43.78125 169.380796 
L 46.54306 170.666419 
L 50.92365 174.746726 
L 53.68546 177.319219 
L 58.06605 181.399526 
L 63.592375 183.972019 
L 65.20845 185.477314 
L 70.734775 190.624819 
L 72.35085 192.130114 
L 77.877175 197.277619 
L 79.49325 198.782914 
L 85.019575 203.930419 
L 86.63565 205.435714 
L 92.161975 210.583219 
L 93.77805 212.088514 
L 99.304375 217.236019 
L 100.92045 218.741314 
L 106.446775 223.888819 
L 106.446775 230.541619 
L 108.06285 232.046914 
L 115.20525 232.046914 
L 120.731575 237.194419 
L 115.20525 239.721424 
L 108.06285 239.721424 
L 100.92045 239.721424 
L 98.207475 237.194419 
L 93.77805 233.068624 
L 91.065075 230.541619 
L 86.63565 226.415824 
L 79.49325 226.415824 
L 72.35085 226.415824 
L 65.20845 226.415824 
L 58.06605 226.415824 
L 50.92365 226.415824 
L 43.78125 226.415824 
L 43.78125 229.90308 
L 50.92365 229.90308 
L 58.06605 229.90308 
L 65.20845 229.90308 
L 72.35085 229.90308 
L 79.49325 229.90308 
L 86.63565 229.90308 
L 87.321181 230.541619 
L 93.77805 236.55588 
L 94.463581 237.194419 
z
" clip-path="url(#pddcdf18d7e)" style="fill: #fee3d7"/>
    <path d="M 215.19885 266.530763 
L 222.34125 266.530763 
L 229.48365 266.530763 
L 236.62605 266.530763 
L 243.76845 266.530763 
L 250.91085 265.584456 
L 258.05325 265.584456 
L 265.19565 265.584456 
L 272.33805 265.584456 
L 279.48045 265.584456 
L 286.62285 265.584456 
L 293.76525 265.584456 
L 300.90765 265.584456 
L 300.90765 263.805619 
L 293.76525 263.805619 
L 286.62285 257.152819 
L 279.48045 250.500019 
L 272.33805 243.847219 
L 265.19565 237.194419 
L 258.707875 231.15137 
L 258.05325 231.15137 
L 250.91085 231.15137 
L 250.256225 230.541619 
L 250.256225 223.888819 
L 243.76845 217.84577 
L 236.62605 217.84577 
L 229.48365 217.84577 
L 222.34125 217.84577 
L 215.19885 217.84577 
L 208.05645 217.84577 
L 200.91405 217.84577 
L 200.259425 217.236019 
L 193.77165 211.19297 
L 193.117025 210.583219 
L 186.62925 204.54017 
L 179.48685 204.54017 
L 172.34445 204.54017 
L 165.20205 204.54017 
L 158.05965 204.54017 
L 150.91725 204.54017 
L 150.262625 203.930419 
L 150.262625 197.277619 
L 143.77485 191.23457 
L 136.63245 191.23457 
L 129.49005 191.23457 
L 122.34765 191.23457 
L 115.20525 191.23457 
L 108.06285 191.23457 
L 100.92045 191.23457 
L 100.265825 190.624819 
L 93.77805 184.58177 
L 93.123425 183.972019 
L 86.63565 177.92897 
L 79.49325 177.92897 
L 72.35085 177.92897 
L 71.695584 177.319219 
L 65.20845 174.299472 
L 58.06605 174.299472 
L 54.165629 170.666419 
L 50.92365 167.649599 
L 43.78125 165.83249 
L 43.78125 167.606643 
L 50.354345 170.666419 
L 50.92365 171.196699 
L 57.496745 177.319219 
L 58.06605 177.849499 
L 65.20845 178.379261 
L 71.218678 183.972019 
L 72.35085 185.026583 
L 79.49325 185.026583 
L 85.503478 190.624819 
L 85.503478 197.277619 
L 86.63565 198.332183 
L 93.77805 198.332183 
L 99.788278 203.930419 
L 99.788278 210.583219 
L 100.92045 211.637783 
L 106.930678 217.236019 
L 108.06285 218.290583 
L 114.073078 223.888819 
L 115.20525 224.943383 
L 122.34765 224.943383 
L 128.357878 230.541619 
L 128.357878 237.194419 
L 122.34765 239.942697 
L 115.20525 243.20868 
L 108.06285 243.20868 
L 100.92045 243.20868 
L 94.463581 237.194419 
L 93.77805 236.55588 
L 87.321181 230.541619 
L 86.63565 229.90308 
L 79.49325 229.90308 
L 72.35085 229.90308 
L 65.20845 229.90308 
L 58.06605 229.90308 
L 50.92365 229.90308 
L 43.78125 229.90308 
L 43.78125 230.541619 
L 43.78125 233.390335 
L 50.92365 233.390335 
L 58.06605 233.390335 
L 65.20845 233.390335 
L 72.35085 233.390335 
L 79.49325 233.390335 
L 86.63565 233.390335 
L 90.719688 237.194419 
L 90.719688 243.847219 
L 93.77805 246.695935 
L 100.92045 246.695935 
L 108.06285 246.695935 
L 115.20525 246.695935 
L 121.435127 243.847219 
L 122.34765 243.429952 
L 129.49005 243.027573 
L 136.63245 239.919563 
L 143.77485 239.919563 
L 147.991554 243.847219 
L 150.91725 246.572363 
L 155.133954 250.500019 
L 158.05965 253.225163 
L 165.20205 253.225163 
L 172.34445 253.225163 
L 179.48685 253.225163 
L 186.62925 253.225163 
L 193.77165 253.225163 
L 200.91405 253.225163 
L 205.130754 257.152819 
L 208.05645 259.877963 
L 212.273154 263.805619 
z
" clip-path="url(#pddcdf18d7e)" style="fill: #fdd1be"/>
    <path d="M 215.19885 269.731004 
L 222.34125 269.731004 
L 229.48365 269.731004 
L 236.62605 269.731004 
L 243.76845 269.731004 
L 250.91085 267.673411 
L 258.05325 267.673411 
L 265.19565 267.673411 
L 272.33805 267.673411 
L 279.48045 267.673411 
L 286.62285 267.673411 
L 293.76525 267.673411 
L 300.90765 267.673411 
L 300.90765 265.584456 
L 293.76525 265.584456 
L 286.62285 265.584456 
L 279.48045 265.584456 
L 272.33805 265.584456 
L 265.19565 265.584456 
L 258.05325 265.584456 
L 250.91085 265.584456 
L 243.76845 266.530763 
L 236.62605 266.530763 
L 229.48365 266.530763 
L 222.34125 266.530763 
L 215.19885 266.530763 
L 212.273154 263.805619 
L 208.05645 259.877963 
L 205.130754 257.152819 
L 200.91405 253.225163 
L 193.77165 253.225163 
L 186.62925 253.225163 
L 179.48685 253.225163 
L 172.34445 253.225163 
L 165.20205 253.225163 
L 158.05965 253.225163 
L 155.133954 250.500019 
L 150.91725 246.572363 
L 147.991554 243.847219 
L 143.77485 239.919563 
L 136.63245 239.919563 
L 129.49005 243.027573 
L 122.34765 243.429952 
L 121.435127 243.847219 
L 115.20525 246.695935 
L 108.06285 246.695935 
L 100.92045 246.695935 
L 93.77805 246.695935 
L 90.719688 243.847219 
L 90.719688 237.194419 
L 86.63565 233.390335 
L 79.49325 233.390335 
L 72.35085 233.390335 
L 65.20845 233.390335 
L 58.06605 233.390335 
L 50.92365 233.390335 
L 43.78125 233.390335 
L 43.78125 236.87759 
L 50.92365 236.87759 
L 58.06605 236.87759 
L 65.20845 236.87759 
L 72.35085 236.87759 
L 79.49325 236.87759 
L 86.63565 236.87759 
L 86.975795 237.194419 
L 86.975795 243.847219 
L 93.77805 250.18319 
L 100.92045 250.18319 
L 108.06285 250.18319 
L 115.20525 250.18319 
L 122.34765 249.877666 
L 129.49005 249.877666 
L 135.166757 243.847219 
L 136.63245 243.119804 
L 143.77485 243.119804 
L 144.555797 243.847219 
L 150.91725 249.772604 
L 151.698197 250.500019 
L 150.91725 251.865241 
L 147.892598 257.152819 
L 150.91725 259.970135 
L 156.593957 257.152819 
L 158.05965 256.425404 
L 165.20205 256.425404 
L 172.34445 256.425404 
L 179.48685 256.425404 
L 186.62925 256.425404 
L 193.77165 256.425404 
L 200.91405 256.425404 
L 201.694997 257.152819 
L 208.05645 263.078204 
L 208.837397 263.805619 
z
M 250.91085 231.15137 
L 258.05325 231.15137 
L 258.707875 231.15137 
L 258.05325 230.541619 
L 258.05325 224.054789 
L 257.875065 223.888819 
L 250.91085 223.888819 
L 243.76845 217.236019 
L 236.804235 210.749189 
L 236.62605 210.749189 
L 229.48365 210.749189 
L 222.34125 210.749189 
L 215.19885 210.749189 
L 208.05645 210.749189 
L 200.91405 210.749189 
L 200.735865 210.583219 
L 200.735865 203.930419 
L 193.77165 197.443589 
L 186.62925 197.443589 
L 179.48685 197.443589 
L 172.34445 197.443589 
L 165.20205 197.443589 
L 158.05965 197.443589 
L 157.881465 197.277619 
L 150.91725 190.790789 
L 150.739065 190.624819 
L 143.77485 184.137989 
L 136.63245 184.137989 
L 129.49005 184.137989 
L 122.34765 184.137989 
L 115.20525 184.137989 
L 108.06285 184.137989 
L 100.92045 184.137989 
L 100.742265 183.972019 
L 100.742265 177.319219 
L 93.77805 170.832389 
L 86.63565 170.832389 
L 79.49325 170.832389 
L 72.35085 170.832389 
L 65.20845 170.749445 
L 58.06605 170.749445 
L 57.976914 170.666419 
L 50.92365 164.103013 
L 43.78125 164.058337 
L 43.78125 165.83249 
L 50.92365 167.649599 
L 54.165629 170.666419 
L 58.06605 174.299472 
L 65.20845 174.299472 
L 71.695584 177.319219 
L 72.35085 177.92897 
L 79.49325 177.92897 
L 86.63565 177.92897 
L 93.123425 183.972019 
L 93.77805 184.58177 
L 100.265825 190.624819 
L 100.92045 191.23457 
L 108.06285 191.23457 
L 115.20525 191.23457 
L 122.34765 191.23457 
L 129.49005 191.23457 
L 136.63245 191.23457 
L 143.77485 191.23457 
L 150.262625 197.277619 
L 150.262625 203.930419 
L 150.91725 204.54017 
L 158.05965 204.54017 
L 165.20205 204.54017 
L 172.34445 204.54017 
L 179.48685 204.54017 
L 186.62925 204.54017 
L 193.117025 210.583219 
L 193.77165 211.19297 
L 200.259425 217.236019 
L 200.91405 217.84577 
L 208.05645 217.84577 
L 215.19885 217.84577 
L 222.34125 217.84577 
L 229.48365 217.84577 
L 236.62605 217.84577 
L 243.76845 217.84577 
L 250.256225 223.888819 
L 250.256225 230.541619 
z
" clip-path="url(#pddcdf18d7e)" style="fill: #fcbba1"/>
    <path d="M 50.92365 277.111219 
L 58.06605 277.111219 
L 65.20845 277.111219 
L 72.35085 277.111219 
L 79.49325 277.111219 
L 86.63565 277.111219 
L 93.77805 277.111219 
L 100.92045 277.111219 
L 108.06285 277.111219 
L 115.20525 277.111219 
L 122.34765 277.111219 
L 129.49005 277.111219 
L 136.63245 277.111219 
L 143.77485 277.111219 
L 150.91725 277.111219 
L 158.05965 277.111219 
L 163.922077 277.111219 
L 158.05965 271.650651 
L 156.779677 270.458419 
L 150.91725 264.997851 
L 149.637277 263.805619 
L 150.91725 263.170376 
L 158.05965 259.625644 
L 165.20205 259.625644 
L 172.34445 259.625644 
L 179.48685 259.625644 
L 186.62925 259.625644 
L 193.77165 259.625644 
L 200.91405 259.625644 
L 205.401641 263.805619 
L 205.401641 270.458419 
L 208.05645 272.931244 
L 215.19885 272.931244 
L 222.34125 272.931244 
L 229.48365 272.931244 
L 236.62605 272.931244 
L 243.76845 272.931244 
L 248.758867 270.458419 
L 250.91085 269.762366 
L 258.05325 269.762366 
L 265.19565 269.762366 
L 272.33805 269.762366 
L 279.48045 269.762366 
L 286.62285 269.762366 
L 293.76525 269.762366 
L 300.90765 269.762366 
L 300.90765 267.673411 
L 293.76525 267.673411 
L 286.62285 267.673411 
L 279.48045 267.673411 
L 272.33805 267.673411 
L 265.19565 267.673411 
L 258.05325 267.673411 
L 250.91085 267.673411 
L 243.76845 269.731004 
L 236.62605 269.731004 
L 229.48365 269.731004 
L 222.34125 269.731004 
L 215.19885 269.731004 
L 208.837397 263.805619 
L 208.05645 263.078204 
L 201.694997 257.152819 
L 200.91405 256.425404 
L 193.77165 256.425404 
L 186.62925 256.425404 
L 179.48685 256.425404 
L 172.34445 256.425404 
L 165.20205 256.425404 
L 158.05965 256.425404 
L 156.593957 257.152819 
L 150.91725 259.970135 
L 147.892598 257.152819 
L 150.91725 251.865241 
L 151.698197 250.500019 
L 150.91725 249.772604 
L 144.555797 243.847219 
L 143.77485 243.119804 
L 136.63245 243.119804 
L 135.166757 243.847219 
L 129.49005 249.877666 
L 122.34765 249.877666 
L 115.20525 250.18319 
L 108.06285 250.18319 
L 100.92045 250.18319 
L 93.77805 250.18319 
L 86.975795 243.847219 
L 86.975795 237.194419 
L 86.63565 236.87759 
L 79.49325 236.87759 
L 72.35085 236.87759 
L 65.20845 236.87759 
L 58.06605 236.87759 
L 50.92365 236.87759 
L 43.78125 236.87759 
L 43.78125 237.194419 
L 43.78125 243.847219 
L 43.78125 250.500019 
L 43.78125 257.152819 
L 43.78125 263.805619 
L 43.78125 270.458419 
L 43.78125 277.111219 
z
M 142.494877 257.152819 
L 136.63245 251.692251 
L 135.352477 250.500019 
L 136.63245 249.140286 
L 143.77485 246.320044 
L 148.262441 250.500019 
L 144.456842 257.152819 
L 143.77485 258.345051 
z
M 258.05325 224.054789 
L 258.05325 223.888819 
L 257.875065 223.888819 
z
M 200.91405 210.749189 
L 208.05645 210.749189 
L 215.19885 210.749189 
L 222.34125 210.749189 
L 229.48365 210.749189 
L 236.62605 210.749189 
L 236.804235 210.749189 
L 236.62605 210.583219 
L 229.48365 203.930419 
L 222.34125 197.277619 
L 215.19885 190.624819 
L 208.05645 183.972019 
L 200.91405 177.319219 
L 200.91405 170.666419 
L 193.77165 170.666419 
L 186.62925 164.013619 
L 186.62925 157.360819 
L 179.48685 157.360819 
L 175.768309 153.897178 
L 172.34445 153.897178 
L 165.20205 153.897178 
L 158.05965 153.897178 
L 154.341109 157.360819 
L 154.341109 164.013619 
L 150.91725 167.202778 
L 143.77485 167.202778 
L 136.63245 167.202778 
L 129.49005 167.202778 
L 122.34765 167.202778 
L 115.20525 167.202778 
L 108.06285 167.202778 
L 100.92045 167.202778 
L 93.77805 167.202778 
L 86.63565 167.202778 
L 79.49325 167.202778 
L 72.35085 167.202778 
L 65.20845 167.202778 
L 58.06605 167.202778 
L 54.638869 164.013619 
L 50.92365 162.284184 
L 43.78125 162.284184 
L 43.78125 164.013619 
L 43.78125 164.058337 
L 50.92365 164.103013 
L 57.976914 170.666419 
L 58.06605 170.749445 
L 65.20845 170.749445 
L 72.35085 170.832389 
L 79.49325 170.832389 
L 86.63565 170.832389 
L 93.77805 170.832389 
L 100.742265 177.319219 
L 100.742265 183.972019 
L 100.92045 184.137989 
L 108.06285 184.137989 
L 115.20525 184.137989 
L 122.34765 184.137989 
L 129.49005 184.137989 
L 136.63245 184.137989 
L 143.77485 184.137989 
L 150.739065 190.624819 
L 150.91725 190.790789 
L 157.881465 197.277619 
L 158.05965 197.443589 
L 165.20205 197.443589 
L 172.34445 197.443589 
L 179.48685 197.443589 
L 186.62925 197.443589 
L 193.77165 197.443589 
L 200.735865 203.930419 
L 200.735865 210.583219 
z
" clip-path="url(#pddcdf18d7e)" style="fill: #fca486"/>
    <path d="M 158.05965 271.650651 
L 163.922077 277.111219 
L 165.20205 277.111219 
L 170.370351 277.111219 
L 165.20205 272.297196 
L 163.227951 270.458419 
L 158.05965 265.644396 
L 156.085551 263.805619 
L 158.05965 262.825885 
L 165.20205 262.825885 
L 172.34445 262.825885 
L 179.48685 262.825885 
L 186.62925 262.825885 
L 193.77165 262.825885 
L 200.91405 262.825885 
L 201.965885 263.805619 
L 201.965885 270.458419 
L 208.05645 276.131485 
L 215.19885 276.131485 
L 222.34125 276.131485 
L 229.48365 276.131485 
L 236.62605 276.131485 
L 243.76845 276.131485 
L 250.91085 272.592319 
L 258.05325 271.851321 
L 265.19565 271.851321 
L 272.33805 271.851321 
L 279.48045 271.851321 
L 286.62285 271.851321 
L 293.76525 271.851321 
L 300.90765 271.851321 
L 302.403061 271.851321 
L 300.90765 270.458419 
L 300.90765 269.762366 
L 293.76525 269.762366 
L 286.62285 269.762366 
L 279.48045 269.762366 
L 272.33805 269.762366 
L 265.19565 269.762366 
L 258.05325 269.762366 
L 250.91085 269.762366 
L 248.758867 270.458419 
L 243.76845 272.931244 
L 236.62605 272.931244 
L 229.48365 272.931244 
L 222.34125 272.931244 
L 215.19885 272.931244 
L 208.05645 272.931244 
L 205.401641 270.458419 
L 205.401641 263.805619 
L 200.91405 259.625644 
L 193.77165 259.625644 
L 186.62925 259.625644 
L 179.48685 259.625644 
L 172.34445 259.625644 
L 165.20205 259.625644 
L 158.05965 259.625644 
L 150.91725 263.170376 
L 149.637277 263.805619 
L 150.91725 264.997851 
L 156.779677 270.458419 
z
M 143.77485 258.345051 
L 144.456842 257.152819 
L 148.262441 250.500019 
L 143.77485 246.320044 
L 136.63245 249.140286 
L 135.352477 250.500019 
L 136.63245 251.692251 
L 142.494877 257.152819 
z
M 141.800751 250.500019 
L 143.77485 249.520285 
L 144.826685 250.500019 
L 143.77485 252.338796 
z
M 58.06605 167.202778 
L 65.20845 167.202778 
L 72.35085 167.202778 
L 79.49325 167.202778 
L 86.63565 167.202778 
L 93.77805 167.202778 
L 100.92045 167.202778 
L 108.06285 167.202778 
L 115.20525 167.202778 
L 122.34765 167.202778 
L 129.49005 167.202778 
L 136.63245 167.202778 
L 143.77485 167.202778 
L 150.91725 167.202778 
L 154.341109 164.013619 
L 154.341109 157.360819 
L 158.05965 153.897178 
L 165.20205 153.897178 
L 172.34445 153.897178 
L 175.768309 153.897178 
L 172.34445 150.708019 
L 172.34445 150.350592 
L 165.20205 150.350592 
L 158.05965 150.350592 
L 150.91725 150.350592 
L 150.533519 150.708019 
L 150.533519 157.360819 
L 143.77485 163.656192 
L 136.63245 163.656192 
L 129.49005 163.656192 
L 122.34765 163.656192 
L 115.20525 163.656192 
L 108.06285 163.656192 
L 100.92045 163.656192 
L 93.77805 163.656192 
L 86.63565 163.656192 
L 79.49325 163.656192 
L 72.35085 163.656192 
L 65.20845 163.656192 
L 58.06605 163.656192 
L 50.92365 160.510031 
L 43.78125 160.510031 
L 43.78125 162.284184 
L 50.92365 162.284184 
L 54.638869 164.013619 
z
" clip-path="url(#pddcdf18d7e)" style="fill: #fc8d6d"/>
    <path d="M 165.20205 272.297196 
L 170.370351 277.111219 
L 172.34445 277.111219 
L 179.48685 277.111219 
L 186.62925 277.111219 
L 193.77165 277.111219 
L 200.91405 277.111219 
L 208.05645 277.111219 
L 215.19885 277.111219 
L 222.34125 277.111219 
L 229.48365 277.111219 
L 236.62605 277.111219 
L 243.76845 277.111219 
L 248.249661 277.111219 
L 250.91085 275.79256 
L 258.05325 273.940277 
L 265.19565 273.940277 
L 272.33805 273.940277 
L 279.48045 273.940277 
L 286.62285 273.940277 
L 293.76525 273.940277 
L 300.90765 273.940277 
L 304.645748 273.940277 
L 302.403061 271.851321 
L 300.90765 271.851321 
L 293.76525 271.851321 
L 286.62285 271.851321 
L 279.48045 271.851321 
L 272.33805 271.851321 
L 265.19565 271.851321 
L 258.05325 271.851321 
L 250.91085 272.592319 
L 243.76845 276.131485 
L 236.62605 276.131485 
L 229.48365 276.131485 
L 222.34125 276.131485 
L 215.19885 276.131485 
L 208.05645 276.131485 
L 201.965885 270.458419 
L 201.965885 263.805619 
L 200.91405 262.825885 
L 193.77165 262.825885 
L 186.62925 262.825885 
L 179.48685 262.825885 
L 172.34445 262.825885 
L 165.20205 262.825885 
L 158.05965 262.825885 
L 156.085551 263.805619 
L 158.05965 265.644396 
L 163.227951 270.458419 
z
M 143.77485 252.338796 
L 144.826685 250.500019 
L 143.77485 249.520285 
L 141.800751 250.500019 
z
M 50.92365 160.510031 
L 58.06605 163.656192 
L 65.20845 163.656192 
L 72.35085 163.656192 
L 79.49325 163.656192 
L 86.63565 163.656192 
L 93.77805 163.656192 
L 100.92045 163.656192 
L 108.06285 163.656192 
L 115.20525 163.656192 
L 122.34765 163.656192 
L 129.49005 163.656192 
L 136.63245 163.656192 
L 143.77485 163.656192 
L 150.533519 157.360819 
L 150.533519 150.708019 
L 150.91725 150.350592 
L 158.05965 150.350592 
L 165.20205 150.350592 
L 172.34445 150.350592 
L 172.34445 146.804005 
L 165.20205 146.804005 
L 158.05965 146.804005 
L 150.91725 146.804005 
L 146.725928 150.708019 
L 146.725928 157.360819 
L 143.77485 160.109605 
L 136.63245 160.109605 
L 129.49005 160.109605 
L 122.34765 160.109605 
L 115.20525 160.109605 
L 108.06285 160.109605 
L 100.92045 160.109605 
L 93.77805 160.109605 
L 86.63565 160.109605 
L 79.49325 160.109605 
L 72.35085 160.109605 
L 65.20845 160.109605 
L 58.06605 160.109605 
L 50.92365 158.735878 
L 43.78125 158.735878 
L 43.78125 160.510031 
z
" clip-path="url(#pddcdf18d7e)" style="fill: #fb7656"/>
    <path d="M 250.91085 277.111219 
L 254.708075 277.111219 
L 258.05325 276.029232 
L 265.19565 276.029232 
L 272.33805 276.029232 
L 279.48045 276.029232 
L 286.62285 276.029232 
L 293.76525 276.029232 
L 300.90765 276.029232 
L 306.888436 276.029232 
L 304.645748 273.940277 
L 300.90765 273.940277 
L 293.76525 273.940277 
L 286.62285 273.940277 
L 279.48045 273.940277 
L 272.33805 273.940277 
L 265.19565 273.940277 
L 258.05325 273.940277 
L 250.91085 275.79256 
L 248.249661 277.111219 
z
M 50.92365 158.735878 
L 58.06605 160.109605 
L 65.20845 160.109605 
L 72.35085 160.109605 
L 79.49325 160.109605 
L 86.63565 160.109605 
L 93.77805 160.109605 
L 100.92045 160.109605 
L 108.06285 160.109605 
L 115.20525 160.109605 
L 122.34765 160.109605 
L 129.49005 160.109605 
L 136.63245 160.109605 
L 143.77485 160.109605 
L 146.725928 157.360819 
L 146.725928 150.708019 
L 150.91725 146.804005 
L 158.05965 146.804005 
L 165.20205 146.804005 
L 172.34445 146.804005 
L 172.34445 144.055219 
L 165.20205 144.055219 
L 158.05965 137.402419 
L 158.05965 130.749619 
L 150.91725 130.749619 
L 149.485797 129.41629 
L 143.77485 129.41629 
L 136.63245 129.41629 
L 129.49005 129.41629 
L 128.058597 130.749619 
L 128.058597 137.402419 
L 122.34765 142.72189 
L 115.20525 142.72189 
L 108.06285 142.72189 
L 100.92045 142.72189 
L 93.77805 142.72189 
L 86.63565 142.72189 
L 79.49325 142.72189 
L 72.35085 142.72189 
L 65.20845 142.72189 
L 58.06605 142.72189 
L 56.634597 144.055219 
L 50.92365 149.37469 
L 49.492197 150.708019 
L 43.78125 156.02749 
L 43.78125 157.360819 
L 43.78125 158.735878 
z
" clip-path="url(#pddcdf18d7e)" style="fill: #f75c41"/>
    <path d="M 258.05325 277.111219 
L 265.19565 277.111219 
L 272.33805 277.111219 
L 279.48045 277.111219 
L 286.62285 277.111219 
L 293.76525 277.111219 
L 300.90765 277.111219 
L 308.05005 277.111219 
L 306.888436 276.029232 
L 300.90765 276.029232 
L 293.76525 276.029232 
L 286.62285 276.029232 
L 279.48045 276.029232 
L 272.33805 276.029232 
L 265.19565 276.029232 
L 258.05325 276.029232 
L 254.708075 277.111219 
z
M 49.492197 150.708019 
L 50.92365 149.37469 
L 56.634597 144.055219 
L 58.06605 142.72189 
L 65.20845 142.72189 
L 72.35085 142.72189 
L 79.49325 142.72189 
L 86.63565 142.72189 
L 93.77805 142.72189 
L 100.92045 142.72189 
L 108.06285 142.72189 
L 115.20525 142.72189 
L 122.34765 142.72189 
L 128.058597 137.402419 
L 128.058597 130.749619 
L 129.49005 129.41629 
L 136.63245 129.41629 
L 143.77485 129.41629 
L 149.485797 129.41629 
L 143.77485 124.096819 
L 143.122333 123.489031 
L 136.63245 123.489031 
L 129.49005 123.489031 
L 128.837533 124.096819 
L 122.34765 130.141831 
L 121.695133 130.749619 
L 115.20525 136.794631 
L 108.06285 136.794631 
L 100.92045 136.794631 
L 93.77805 136.794631 
L 86.63565 136.794631 
L 79.49325 136.794631 
L 72.35085 136.794631 
L 65.20845 136.794631 
L 58.06605 136.794631 
L 50.92365 136.794631 
L 50.271133 137.402419 
L 50.271133 144.055219 
L 43.78125 150.100231 
L 43.78125 150.708019 
L 43.78125 156.02749 
z
" clip-path="url(#pddcdf18d7e)" style="fill: #f14130"/>
    <path d="M 50.271133 144.055219 
L 50.271133 137.402419 
L 50.92365 136.794631 
L 58.06605 136.794631 
L 65.20845 136.794631 
L 72.35085 136.794631 
L 79.49325 136.794631 
L 86.63565 136.794631 
L 93.77805 136.794631 
L 100.92045 136.794631 
L 108.06285 136.794631 
L 115.20525 136.794631 
L 121.695133 130.749619 
L 122.34765 130.141831 
L 128.837533 124.096819 
L 129.49005 123.489031 
L 136.63245 123.489031 
L 143.122333 123.489031 
L 136.758869 117.561772 
L 136.63245 117.561772 
L 129.49005 117.561772 
L 122.474069 124.096819 
L 122.34765 124.214572 
L 115.331669 130.749619 
L 115.20525 130.867372 
L 108.06285 130.867372 
L 100.92045 130.867372 
L 93.77805 130.867372 
L 86.63565 130.867372 
L 79.49325 130.867372 
L 72.35085 130.867372 
L 65.20845 130.867372 
L 58.06605 130.867372 
L 50.92365 130.867372 
L 43.907669 137.402419 
L 43.907669 144.055219 
L 43.78125 144.172972 
L 43.78125 150.100231 
z
" clip-path="url(#pddcdf18d7e)" style="fill: #e02c26"/>
    <path d="M 43.907669 144.055219 
L 43.907669 137.402419 
L 50.92365 130.867372 
L 58.06605 130.867372 
L 65.20845 130.867372 
L 72.35085 130.867372 
L 79.49325 130.867372 
L 86.63565 130.867372 
L 93.77805 130.867372 
L 100.92045 130.867372 
L 108.06285 130.867372 
L 115.20525 130.867372 
L 115.331669 130.749619 
L 122.34765 124.214572 
L 122.474069 124.096819 
L 129.49005 117.561772 
L 136.63245 117.561772 
L 136.758869 117.561772 
L 136.63245 117.444019 
L 129.49005 110.791219 
L 122.34765 104.138419 
L 115.20525 97.485619 
L 108.06285 90.832819 
L 100.92045 84.180019 
L 100.92045 77.527219 
L 93.77805 77.527219 
L 86.63565 70.874419 
L 79.49325 64.221619 
L 72.35085 57.568819 
L 65.20845 50.916019 
L 58.06605 44.263219 
L 58.06605 37.610419 
L 53.863271 37.610419 
L 50.92365 40.348533 
L 46.720871 44.263219 
L 43.78125 47.001333 
L 43.78125 50.916019 
L 43.78125 57.568819 
L 43.78125 64.221619 
L 43.78125 70.874419 
L 43.78125 77.527219 
L 43.78125 84.180019 
L 43.78125 90.832819 
L 43.78125 97.485619 
L 43.78125 104.138419 
L 43.78125 110.791219 
L 43.78125 117.444019 
L 43.78125 124.096819 
L 43.78125 130.749619 
L 43.78125 137.402419 
L 43.78125 144.055219 
L 43.78125 144.172972 
z
" clip-path="url(#pddcdf18d7e)" style="fill: #ca181d"/>
    <path d="M 46.720871 44.263219 
L 50.92365 40.348533 
L 53.863271 37.610419 
L 50.92365 37.610419 
L 49.575305 36.3545 
L 49.575305 37.610419 
L 43.78125 43.0073 
L 43.78125 44.263219 
L 43.78125 47.001333 
z
" clip-path="url(#pddcdf18d7e)" style="fill: #b51318"/>
    <path d="M 49.575305 37.610419 
L 49.575305 36.3545 
L 45.287339 32.360468 
L 45.287339 37.610419 
L 43.78125 39.013268 
L 43.78125 43.0073 
z
" clip-path="url(#pddcdf18d7e)" style="fill: #9c0d14"/>
    <path d="M 45.287339 37.610419 
L 45.287339 32.360468 
L 43.78125 30.957619 
L 43.78125 37.610419 
L 43.78125 39.013268 
z
" clip-path="url(#pddcdf18d7e)" style="fill: #79040f"/>
   </g>
   <g id="matplotlib.axis_1">
    <g id="xtick_1">
     <g id="line2d_1">
      <defs>
       <path id="m5cdb797d86" d="M 0 0 
L 0 3.5 
" style="stroke: #000000; stroke-width: 0.8"/>
      </defs>
      <g>
       <use xlink:href="#m5cdb797d86" x="43.78125" y="277.111219" style="stroke: #000000; stroke-width: 0.8"/>
      </g>
     </g>
     <g id="text_1">
      <!-- 0.0 -->
      <g transform="translate(35.829688 291.709656) scale(0.1 -0.1)">
       <defs>
        <path id="DejaVuSans-30" d="M 2034 4250 
Q 1547 4250 1301 3770 
Q 1056 3291 1056 2328 
Q 1056 1369 1301 889 
Q 1547 409 2034 409 
Q 2525 409 2770 889 
Q 3016 1369 3016 2328 
Q 3016 3291 2770 3770 
Q 2525 4250 2034 4250 
z
M 2034 4750 
Q 2819 4750 3233 4129 
Q 3647 3509 3647 2328 
Q 3647 1150 3233 529 
Q 2819 -91 2034 -91 
Q 1250 -91 836 529 
Q 422 1150 422 2328 
Q 422 3509 836 4129 
Q 1250 4750 2034 4750 
z
" transform="scale(0.015625)"/>
        <path id="DejaVuSans-2e" d="M 684 794 
L 1344 794 
L 1344 0 
L 684 0 
L 684 794 
z
" transform="scale(0.015625)"/>
       </defs>
       <use xlink:href="#DejaVuSans-30"/>
       <use xlink:href="#DejaVuSans-2e" x="63.623047"/>
       <use xlink:href="#DejaVuSans-30" x="95.410156"/>
      </g>
     </g>
    </g>
    <g id="xtick_2">
     <g id="line2d_2">
      <g>
       <use xlink:href="#m5cdb797d86" x="100.92045" y="277.111219" style="stroke: #000000; stroke-width: 0.8"/>
      </g>
     </g>
     <g id="text_2">
      <!-- 0.2 -->
      <g transform="translate(92.968888 291.709656) scale(0.1 -0.1)">
       <defs>
        <path id="DejaVuSans-32" d="M 1228 531 
L 3431 531 
L 3431 0 
L 469 0 
L 469 531 
Q 828 903 1448 1529 
Q 2069 2156 2228 2338 
Q 2531 2678 2651 2914 
Q 2772 3150 2772 3378 
Q 2772 3750 2511 3984 
Q 2250 4219 1831 4219 
Q 1534 4219 1204 4116 
Q 875 4013 500 3803 
L 500 4441 
Q 881 4594 1212 4672 
Q 1544 4750 1819 4750 
Q 2544 4750 2975 4387 
Q 3406 4025 3406 3419 
Q 3406 3131 3298 2873 
Q 3191 2616 2906 2266 
Q 2828 2175 2409 1742 
Q 1991 1309 1228 531 
z
" transform="scale(0.015625)"/>
       </defs>
       <use xlink:href="#DejaVuSans-30"/>
       <use xlink:href="#DejaVuSans-2e" x="63.623047"/>
       <use xlink:href="#DejaVuSans-32" x="95.410156"/>
      </g>
     </g>
    </g>
    <g id="xtick_3">
     <g id="line2d_3">
      <g>
       <use xlink:href="#m5cdb797d86" x="158.05965" y="277.111219" style="stroke: #000000; stroke-width: 0.8"/>
      </g>
     </g>
     <g id="text_3">
      <!-- 0.4 -->
      <g transform="translate(150.108088 291.709656) scale(0.1 -0.1)">
       <defs>
        <path id="DejaVuSans-34" d="M 2419 4116 
L 825 1625 
L 2419 1625 
L 2419 4116 
z
M 2253 4666 
L 3047 4666 
L 3047 1625 
L 3713 1625 
L 3713 1100 
L 3047 1100 
L 3047 0 
L 2419 0 
L 2419 1100 
L 313 1100 
L 313 1709 
L 2253 4666 
z
" transform="scale(0.015625)"/>
       </defs>
       <use xlink:href="#DejaVuSans-30"/>
       <use xlink:href="#DejaVuSans-2e" x="63.623047"/>
       <use xlink:href="#DejaVuSans-34" x="95.410156"/>
      </g>
     </g>
    </g>
    <g id="xtick_4">
     <g id="line2d_4">
      <g>
       <use xlink:href="#m5cdb797d86" x="215.19885" y="277.111219" style="stroke: #000000; stroke-width: 0.8"/>
      </g>
     </g>
     <g id="text_4">
      <!-- 0.6 -->
      <g transform="translate(207.247288 291.709656) scale(0.1 -0.1)">
       <defs>
        <path id="DejaVuSans-36" d="M 2113 2584 
Q 1688 2584 1439 2293 
Q 1191 2003 1191 1497 
Q 1191 994 1439 701 
Q 1688 409 2113 409 
Q 2538 409 2786 701 
Q 3034 994 3034 1497 
Q 3034 2003 2786 2293 
Q 2538 2584 2113 2584 
z
M 3366 4563 
L 3366 3988 
Q 3128 4100 2886 4159 
Q 2644 4219 2406 4219 
Q 1781 4219 1451 3797 
Q 1122 3375 1075 2522 
Q 1259 2794 1537 2939 
Q 1816 3084 2150 3084 
Q 2853 3084 3261 2657 
Q 3669 2231 3669 1497 
Q 3669 778 3244 343 
Q 2819 -91 2113 -91 
Q 1303 -91 875 529 
Q 447 1150 447 2328 
Q 447 3434 972 4092 
Q 1497 4750 2381 4750 
Q 2619 4750 2861 4703 
Q 3103 4656 3366 4563 
z
" transform="scale(0.015625)"/>
       </defs>
       <use xlink:href="#DejaVuSans-30"/>
       <use xlink:href="#DejaVuSans-2e" x="63.623047"/>
       <use xlink:href="#DejaVuSans-36" x="95.410156"/>
      </g>
     </g>
    </g>
    <g id="xtick_5">
     <g id="line2d_5">
      <g>
       <use xlink:href="#m5cdb797d86" x="272.33805" y="277.111219" style="stroke: #000000; stroke-width: 0.8"/>
      </g>
     </g>
     <g id="text_5">
      <!-- 0.8 -->
      <g transform="translate(264.386488 291.709656) scale(0.1 -0.1)">
       <defs>
        <path id="DejaVuSans-38" d="M 2034 2216 
Q 1584 2216 1326 1975 
Q 1069 1734 1069 1313 
Q 1069 891 1326 650 
Q 1584 409 2034 409 
Q 2484 409 2743 651 
Q 3003 894 3003 1313 
Q 3003 1734 2745 1975 
Q 2488 2216 2034 2216 
z
M 1403 2484 
Q 997 2584 770 2862 
Q 544 3141 544 3541 
Q 544 4100 942 4425 
Q 1341 4750 2034 4750 
Q 2731 4750 3128 4425 
Q 3525 4100 3525 3541 
Q 3525 3141 3298 2862 
Q 3072 2584 2669 2484 
Q 3125 2378 3379 2068 
Q 3634 1759 3634 1313 
Q 3634 634 3220 271 
Q 2806 -91 2034 -91 
Q 1263 -91 848 271 
Q 434 634 434 1313 
Q 434 1759 690 2068 
Q 947 2378 1403 2484 
z
M 1172 3481 
Q 1172 3119 1398 2916 
Q 1625 2713 2034 2713 
Q 2441 2713 2670 2916 
Q 2900 3119 2900 3481 
Q 2900 3844 2670 4047 
Q 2441 4250 2034 4250 
Q 1625 4250 1398 4047 
Q 1172 3844 1172 3481 
z
" transform="scale(0.015625)"/>
       </defs>
       <use xlink:href="#DejaVuSans-30"/>
       <use xlink:href="#DejaVuSans-2e" x="63.623047"/>
       <use xlink:href="#DejaVuSans-38" x="95.410156"/>
      </g>
     </g>
    </g>
    <g id="xtick_6">
     <g id="line2d_6">
      <g>
       <use xlink:href="#m5cdb797d86" x="329.47725" y="277.111219" style="stroke: #000000; stroke-width: 0.8"/>
      </g>
     </g>
     <g id="text_6">
      <!-- 1.0 -->
      <g transform="translate(321.525688 291.709656) scale(0.1 -0.1)">
       <defs>
        <path id="DejaVuSans-31" d="M 794 531 
L 1825 531 
L 1825 4091 
L 703 3866 
L 703 4441 
L 1819 4666 
L 2450 4666 
L 2450 531 
L 3481 531 
L 3481 0 
L 794 0 
L 794 531 
z
" transform="scale(0.015625)"/>
       </defs>
       <use xlink:href="#DejaVuSans-31"/>
       <use xlink:href="#DejaVuSans-2e" x="63.623047"/>
       <use xlink:href="#DejaVuSans-30" x="95.410156"/>
      </g>
     </g>
    </g>
    <g id="text_7">
     <!-- Equity in Vaccination Burden Multiplier (a) -->
     <g transform="translate(81.262844 305.387781) scale(0.1 -0.1)">
      <defs>
       <path id="DejaVuSans-45" d="M 628 4666 
L 3578 4666 
L 3578 4134 
L 1259 4134 
L 1259 2753 
L 3481 2753 
L 3481 2222 
L 1259 2222 
L 1259 531 
L 3634 531 
L 3634 0 
L 628 0 
L 628 4666 
z
" transform="scale(0.015625)"/>
       <path id="DejaVuSans-71" d="M 947 1747 
Q 947 1113 1208 752 
Q 1469 391 1925 391 
Q 2381 391 2643 752 
Q 2906 1113 2906 1747 
Q 2906 2381 2643 2742 
Q 2381 3103 1925 3103 
Q 1469 3103 1208 2742 
Q 947 2381 947 1747 
z
M 2906 525 
Q 2725 213 2448 61 
Q 2172 -91 1784 -91 
Q 1150 -91 751 415 
Q 353 922 353 1747 
Q 353 2572 751 3078 
Q 1150 3584 1784 3584 
Q 2172 3584 2448 3432 
Q 2725 3281 2906 2969 
L 2906 3500 
L 3481 3500 
L 3481 -1331 
L 2906 -1331 
L 2906 525 
z
" transform="scale(0.015625)"/>
       <path id="DejaVuSans-75" d="M 544 1381 
L 544 3500 
L 1119 3500 
L 1119 1403 
Q 1119 906 1312 657 
Q 1506 409 1894 409 
Q 2359 409 2629 706 
Q 2900 1003 2900 1516 
L 2900 3500 
L 3475 3500 
L 3475 0 
L 2900 0 
L 2900 538 
Q 2691 219 2414 64 
Q 2138 -91 1772 -91 
Q 1169 -91 856 284 
Q 544 659 544 1381 
z
M 1991 3584 
L 1991 3584 
z
" transform="scale(0.015625)"/>
       <path id="DejaVuSans-69" d="M 603 3500 
L 1178 3500 
L 1178 0 
L 603 0 
L 603 3500 
z
M 603 4863 
L 1178 4863 
L 1178 4134 
L 603 4134 
L 603 4863 
z
" transform="scale(0.015625)"/>
       <path id="DejaVuSans-74" d="M 1172 4494 
L 1172 3500 
L 2356 3500 
L 2356 3053 
L 1172 3053 
L 1172 1153 
Q 1172 725 1289 603 
Q 1406 481 1766 481 
L 2356 481 
L 2356 0 
L 1766 0 
Q 1100 0 847 248 
Q 594 497 594 1153 
L 594 3053 
L 172 3053 
L 172 3500 
L 594 3500 
L 594 4494 
L 1172 4494 
z
" transform="scale(0.015625)"/>
       <path id="DejaVuSans-79" d="M 2059 -325 
Q 1816 -950 1584 -1140 
Q 1353 -1331 966 -1331 
L 506 -1331 
L 506 -850 
L 844 -850 
Q 1081 -850 1212 -737 
Q 1344 -625 1503 -206 
L 1606 56 
L 191 3500 
L 800 3500 
L 1894 763 
L 2988 3500 
L 3597 3500 
L 2059 -325 
z
" transform="scale(0.015625)"/>
       <path id="DejaVuSans-20" transform="scale(0.015625)"/>
       <path id="DejaVuSans-6e" d="M 3513 2113 
L 3513 0 
L 2938 0 
L 2938 2094 
Q 2938 2591 2744 2837 
Q 2550 3084 2163 3084 
Q 1697 3084 1428 2787 
Q 1159 2491 1159 1978 
L 1159 0 
L 581 0 
L 581 3500 
L 1159 3500 
L 1159 2956 
Q 1366 3272 1645 3428 
Q 1925 3584 2291 3584 
Q 2894 3584 3203 3211 
Q 3513 2838 3513 2113 
z
" transform="scale(0.015625)"/>
       <path id="DejaVuSans-56" d="M 1831 0 
L 50 4666 
L 709 4666 
L 2188 738 
L 3669 4666 
L 4325 4666 
L 2547 0 
L 1831 0 
z
" transform="scale(0.015625)"/>
       <path id="DejaVuSans-61" d="M 2194 1759 
Q 1497 1759 1228 1600 
Q 959 1441 959 1056 
Q 959 750 1161 570 
Q 1363 391 1709 391 
Q 2188 391 2477 730 
Q 2766 1069 2766 1631 
L 2766 1759 
L 2194 1759 
z
M 3341 1997 
L 3341 0 
L 2766 0 
L 2766 531 
Q 2569 213 2275 61 
Q 1981 -91 1556 -91 
Q 1019 -91 701 211 
Q 384 513 384 1019 
Q 384 1609 779 1909 
Q 1175 2209 1959 2209 
L 2766 2209 
L 2766 2266 
Q 2766 2663 2505 2880 
Q 2244 3097 1772 3097 
Q 1472 3097 1187 3025 
Q 903 2953 641 2809 
L 641 3341 
Q 956 3463 1253 3523 
Q 1550 3584 1831 3584 
Q 2591 3584 2966 3190 
Q 3341 2797 3341 1997 
z
" transform="scale(0.015625)"/>
       <path id="DejaVuSans-63" d="M 3122 3366 
L 3122 2828 
Q 2878 2963 2633 3030 
Q 2388 3097 2138 3097 
Q 1578 3097 1268 2742 
Q 959 2388 959 1747 
Q 959 1106 1268 751 
Q 1578 397 2138 397 
Q 2388 397 2633 464 
Q 2878 531 3122 666 
L 3122 134 
Q 2881 22 2623 -34 
Q 2366 -91 2075 -91 
Q 1284 -91 818 406 
Q 353 903 353 1747 
Q 353 2603 823 3093 
Q 1294 3584 2113 3584 
Q 2378 3584 2631 3529 
Q 2884 3475 3122 3366 
z
" transform="scale(0.015625)"/>
       <path id="DejaVuSans-6f" d="M 1959 3097 
Q 1497 3097 1228 2736 
Q 959 2375 959 1747 
Q 959 1119 1226 758 
Q 1494 397 1959 397 
Q 2419 397 2687 759 
Q 2956 1122 2956 1747 
Q 2956 2369 2687 2733 
Q 2419 3097 1959 3097 
z
M 1959 3584 
Q 2709 3584 3137 3096 
Q 3566 2609 3566 1747 
Q 3566 888 3137 398 
Q 2709 -91 1959 -91 
Q 1206 -91 779 398 
Q 353 888 353 1747 
Q 353 2609 779 3096 
Q 1206 3584 1959 3584 
z
" transform="scale(0.015625)"/>
       <path id="DejaVuSans-42" d="M 1259 2228 
L 1259 519 
L 2272 519 
Q 2781 519 3026 730 
Q 3272 941 3272 1375 
Q 3272 1813 3026 2020 
Q 2781 2228 2272 2228 
L 1259 2228 
z
M 1259 4147 
L 1259 2741 
L 2194 2741 
Q 2656 2741 2882 2914 
Q 3109 3088 3109 3444 
Q 3109 3797 2882 3972 
Q 2656 4147 2194 4147 
L 1259 4147 
z
M 628 4666 
L 2241 4666 
Q 2963 4666 3353 4366 
Q 3744 4066 3744 3513 
Q 3744 3084 3544 2831 
Q 3344 2578 2956 2516 
Q 3422 2416 3680 2098 
Q 3938 1781 3938 1306 
Q 3938 681 3513 340 
Q 3088 0 2303 0 
L 628 0 
L 628 4666 
z
" transform="scale(0.015625)"/>
       <path id="DejaVuSans-72" d="M 2631 2963 
Q 2534 3019 2420 3045 
Q 2306 3072 2169 3072 
Q 1681 3072 1420 2755 
Q 1159 2438 1159 1844 
L 1159 0 
L 581 0 
L 581 3500 
L 1159 3500 
L 1159 2956 
Q 1341 3275 1631 3429 
Q 1922 3584 2338 3584 
Q 2397 3584 2469 3576 
Q 2541 3569 2628 3553 
L 2631 2963 
z
" transform="scale(0.015625)"/>
       <path id="DejaVuSans-64" d="M 2906 2969 
L 2906 4863 
L 3481 4863 
L 3481 0 
L 2906 0 
L 2906 525 
Q 2725 213 2448 61 
Q 2172 -91 1784 -91 
Q 1150 -91 751 415 
Q 353 922 353 1747 
Q 353 2572 751 3078 
Q 1150 3584 1784 3584 
Q 2172 3584 2448 3432 
Q 2725 3281 2906 2969 
z
M 947 1747 
Q 947 1113 1208 752 
Q 1469 391 1925 391 
Q 2381 391 2643 752 
Q 2906 1113 2906 1747 
Q 2906 2381 2643 2742 
Q 2381 3103 1925 3103 
Q 1469 3103 1208 2742 
Q 947 2381 947 1747 
z
" transform="scale(0.015625)"/>
       <path id="DejaVuSans-65" d="M 3597 1894 
L 3597 1613 
L 953 1613 
Q 991 1019 1311 708 
Q 1631 397 2203 397 
Q 2534 397 2845 478 
Q 3156 559 3463 722 
L 3463 178 
Q 3153 47 2828 -22 
Q 2503 -91 2169 -91 
Q 1331 -91 842 396 
Q 353 884 353 1716 
Q 353 2575 817 3079 
Q 1281 3584 2069 3584 
Q 2775 3584 3186 3129 
Q 3597 2675 3597 1894 
z
M 3022 2063 
Q 3016 2534 2758 2815 
Q 2500 3097 2075 3097 
Q 1594 3097 1305 2825 
Q 1016 2553 972 2059 
L 3022 2063 
z
" transform="scale(0.015625)"/>
       <path id="DejaVuSans-4d" d="M 628 4666 
L 1569 4666 
L 2759 1491 
L 3956 4666 
L 4897 4666 
L 4897 0 
L 4281 0 
L 4281 4097 
L 3078 897 
L 2444 897 
L 1241 4097 
L 1241 0 
L 628 0 
L 628 4666 
z
" transform="scale(0.015625)"/>
       <path id="DejaVuSans-6c" d="M 603 4863 
L 1178 4863 
L 1178 0 
L 603 0 
L 603 4863 
z
" transform="scale(0.015625)"/>
       <path id="DejaVuSans-70" d="M 1159 525 
L 1159 -1331 
L 581 -1331 
L 581 3500 
L 1159 3500 
L 1159 2969 
Q 1341 3281 1617 3432 
Q 1894 3584 2278 3584 
Q 2916 3584 3314 3078 
Q 3713 2572 3713 1747 
Q 3713 922 3314 415 
Q 2916 -91 2278 -91 
Q 1894 -91 1617 61 
Q 1341 213 1159 525 
z
M 3116 1747 
Q 3116 2381 2855 2742 
Q 2594 3103 2138 3103 
Q 1681 3103 1420 2742 
Q 1159 2381 1159 1747 
Q 1159 1113 1420 752 
Q 1681 391 2138 391 
Q 2594 391 2855 752 
Q 3116 1113 3116 1747 
z
" transform="scale(0.015625)"/>
       <path id="DejaVuSans-28" d="M 1984 4856 
Q 1566 4138 1362 3434 
Q 1159 2731 1159 2009 
Q 1159 1288 1364 580 
Q 1569 -128 1984 -844 
L 1484 -844 
Q 1016 -109 783 600 
Q 550 1309 550 2009 
Q 550 2706 781 3412 
Q 1013 4119 1484 4856 
L 1984 4856 
z
" transform="scale(0.015625)"/>
       <path id="DejaVuSans-29" d="M 513 4856 
L 1013 4856 
Q 1481 4119 1714 3412 
Q 1947 2706 1947 2009 
Q 1947 1309 1714 600 
Q 1481 -109 1013 -844 
L 513 -844 
Q 928 -128 1133 580 
Q 1338 1288 1338 2009 
Q 1338 2731 1133 3434 
Q 928 4138 513 4856 
z
" transform="scale(0.015625)"/>
      </defs>
      <use xlink:href="#DejaVuSans-45"/>
      <use xlink:href="#DejaVuSans-71" x="63.183594"/>
      <use xlink:href="#DejaVuSans-75" x="126.660156"/>
      <use xlink:href="#DejaVuSans-69" x="190.039062"/>
      <use xlink:href="#DejaVuSans-74" x="217.822266"/>
      <use xlink:href="#DejaVuSans-79" x="257.03125"/>
      <use xlink:href="#DejaVuSans-20" x="316.210938"/>
      <use xlink:href="#DejaVuSans-69" x="347.998047"/>
      <use xlink:href="#DejaVuSans-6e" x="375.78125"/>
      <use xlink:href="#DejaVuSans-20" x="439.160156"/>
      <use xlink:href="#DejaVuSans-56" x="470.947266"/>
      <use xlink:href="#DejaVuSans-61" x="531.605469"/>
      <use xlink:href="#DejaVuSans-63" x="592.884766"/>
      <use xlink:href="#DejaVuSans-63" x="647.865234"/>
      <use xlink:href="#DejaVuSans-69" x="702.845703"/>
      <use xlink:href="#DejaVuSans-6e" x="730.628906"/>
      <use xlink:href="#DejaVuSans-61" x="794.007812"/>
      <use xlink:href="#DejaVuSans-74" x="855.287109"/>
      <use xlink:href="#DejaVuSans-69" x="894.496094"/>
      <use xlink:href="#DejaVuSans-6f" x="922.279297"/>
      <use xlink:href="#DejaVuSans-6e" x="983.460938"/>
      <use xlink:href="#DejaVuSans-20" x="1046.839844"/>
      <use xlink:href="#DejaVuSans-42" x="1078.626953"/>
      <use xlink:href="#DejaVuSans-75" x="1147.230469"/>
      <use xlink:href="#DejaVuSans-72" x="1210.609375"/>
      <use xlink:href="#DejaVuSans-64" x="1249.972656"/>
      <use xlink:href="#DejaVuSans-65" x="1313.449219"/>
      <use xlink:href="#DejaVuSans-6e" x="1374.972656"/>
      <use xlink:href="#DejaVuSans-20" x="1438.351562"/>
      <use xlink:href="#DejaVuSans-4d" x="1470.138672"/>
      <use xlink:href="#DejaVuSans-75" x="1556.417969"/>
      <use xlink:href="#DejaVuSans-6c" x="1619.796875"/>
      <use xlink:href="#DejaVuSans-74" x="1647.580078"/>
      <use xlink:href="#DejaVuSans-69" x="1686.789062"/>
      <use xlink:href="#DejaVuSans-70" x="1714.572266"/>
      <use xlink:href="#DejaVuSans-6c" x="1778.048828"/>
      <use xlink:href="#DejaVuSans-69" x="1805.832031"/>
      <use xlink:href="#DejaVuSans-65" x="1833.615234"/>
      <use xlink:href="#DejaVuSans-72" x="1895.138672"/>
      <use xlink:href="#DejaVuSans-20" x="1936.251953"/>
      <use xlink:href="#DejaVuSans-28" x="1968.039062"/>
      <use xlink:href="#DejaVuSans-61" x="2007.052734"/>
      <use xlink:href="#DejaVuSans-29" x="2068.332031"/>
     </g>
    </g>
   </g>
   <g id="matplotlib.axis_2">
    <g id="ytick_1">
     <g id="line2d_7">
      <defs>
       <path id="m712c1ed0ea" d="M 0 0 
L -3.5 0 
" style="stroke: #000000; stroke-width: 0.8"/>
      </defs>
      <g>
       <use xlink:href="#m712c1ed0ea" x="43.78125" y="277.111219" style="stroke: #000000; stroke-width: 0.8"/>
      </g>
     </g>
     <g id="text_8">
      <!-- 0.0 -->
      <g transform="translate(20.878125 280.910437) scale(0.1 -0.1)">
       <use xlink:href="#DejaVuSans-30"/>
       <use xlink:href="#DejaVuSans-2e" x="63.623047"/>
       <use xlink:href="#DejaVuSans-30" x="95.410156"/>
      </g>
     </g>
    </g>
    <g id="ytick_2">
     <g id="line2d_8">
      <g>
       <use xlink:href="#m712c1ed0ea" x="43.78125" y="223.888819" style="stroke: #000000; stroke-width: 0.8"/>
      </g>
     </g>
     <g id="text_9">
      <!-- 0.2 -->
      <g transform="translate(20.878125 227.688037) scale(0.1 -0.1)">
       <use xlink:href="#DejaVuSans-30"/>
       <use xlink:href="#DejaVuSans-2e" x="63.623047"/>
       <use xlink:href="#DejaVuSans-32" x="95.410156"/>
      </g>
     </g>
    </g>
    <g id="ytick_3">
     <g id="line2d_9">
      <g>
       <use xlink:href="#m712c1ed0ea" x="43.78125" y="170.666419" style="stroke: #000000; stroke-width: 0.8"/>
      </g>
     </g>
     <g id="text_10">
      <!-- 0.4 -->
      <g transform="translate(20.878125 174.465637) scale(0.1 -0.1)">
       <use xlink:href="#DejaVuSans-30"/>
       <use xlink:href="#DejaVuSans-2e" x="63.623047"/>
       <use xlink:href="#DejaVuSans-34" x="95.410156"/>
      </g>
     </g>
    </g>
    <g id="ytick_4">
     <g id="line2d_10">
      <g>
       <use xlink:href="#m712c1ed0ea" x="43.78125" y="117.444019" style="stroke: #000000; stroke-width: 0.8"/>
      </g>
     </g>
     <g id="text_11">
      <!-- 0.6 -->
      <g transform="translate(20.878125 121.243237) scale(0.1 -0.1)">
       <use xlink:href="#DejaVuSans-30"/>
       <use xlink:href="#DejaVuSans-2e" x="63.623047"/>
       <use xlink:href="#DejaVuSans-36" x="95.410156"/>
      </g>
     </g>
    </g>
    <g id="ytick_5">
     <g id="line2d_11">
      <g>
       <use xlink:href="#m712c1ed0ea" x="43.78125" y="64.221619" style="stroke: #000000; stroke-width: 0.8"/>
      </g>
     </g>
     <g id="text_12">
      <!-- 0.8 -->
      <g transform="translate(20.878125 68.020837) scale(0.1 -0.1)">
       <use xlink:href="#DejaVuSans-30"/>
       <use xlink:href="#DejaVuSans-2e" x="63.623047"/>
       <use xlink:href="#DejaVuSans-38" x="95.410156"/>
      </g>
     </g>
    </g>
    <g id="ytick_6">
     <g id="line2d_12">
      <g>
       <use xlink:href="#m712c1ed0ea" x="43.78125" y="10.999219" style="stroke: #000000; stroke-width: 0.8"/>
      </g>
     </g>
     <g id="text_13">
      <!-- 1.0 -->
      <g transform="translate(20.878125 14.798437) scale(0.1 -0.1)">
       <use xlink:href="#DejaVuSans-31"/>
       <use xlink:href="#DejaVuSans-2e" x="63.623047"/>
       <use xlink:href="#DejaVuSans-30" x="95.410156"/>
      </g>
     </g>
    </g>
    <g id="text_14">
     <!-- Equity in Infection Burden Multiplier (b) -->
     <g transform="translate(14.798438 242.544281) rotate(-90) scale(0.1 -0.1)">
      <defs>
       <path id="DejaVuSans-49" d="M 628 4666 
L 1259 4666 
L 1259 0 
L 628 0 
L 628 4666 
z
" transform="scale(0.015625)"/>
       <path id="DejaVuSans-66" d="M 2375 4863 
L 2375 4384 
L 1825 4384 
Q 1516 4384 1395 4259 
Q 1275 4134 1275 3809 
L 1275 3500 
L 2222 3500 
L 2222 3053 
L 1275 3053 
L 1275 0 
L 697 0 
L 697 3053 
L 147 3053 
L 147 3500 
L 697 3500 
L 697 3744 
Q 697 4328 969 4595 
Q 1241 4863 1831 4863 
L 2375 4863 
z
" transform="scale(0.015625)"/>
       <path id="DejaVuSans-62" d="M 3116 1747 
Q 3116 2381 2855 2742 
Q 2594 3103 2138 3103 
Q 1681 3103 1420 2742 
Q 1159 2381 1159 1747 
Q 1159 1113 1420 752 
Q 1681 391 2138 391 
Q 2594 391 2855 752 
Q 3116 1113 3116 1747 
z
M 1159 2969 
Q 1341 3281 1617 3432 
Q 1894 3584 2278 3584 
Q 2916 3584 3314 3078 
Q 3713 2572 3713 1747 
Q 3713 922 3314 415 
Q 2916 -91 2278 -91 
Q 1894 -91 1617 61 
Q 1341 213 1159 525 
L 1159 0 
L 581 0 
L 581 4863 
L 1159 4863 
L 1159 2969 
z
" transform="scale(0.015625)"/>
      </defs>
      <use xlink:href="#DejaVuSans-45"/>
      <use xlink:href="#DejaVuSans-71" x="63.183594"/>
      <use xlink:href="#DejaVuSans-75" x="126.660156"/>
      <use xlink:href="#DejaVuSans-69" x="190.039062"/>
      <use xlink:href="#DejaVuSans-74" x="217.822266"/>
      <use xlink:href="#DejaVuSans-79" x="257.03125"/>
      <use xlink:href="#DejaVuSans-20" x="316.210938"/>
      <use xlink:href="#DejaVuSans-69" x="347.998047"/>
      <use xlink:href="#DejaVuSans-6e" x="375.78125"/>
      <use xlink:href="#DejaVuSans-20" x="439.160156"/>
      <use xlink:href="#DejaVuSans-49" x="470.947266"/>
      <use xlink:href="#DejaVuSans-6e" x="500.439453"/>
      <use xlink:href="#DejaVuSans-66" x="563.818359"/>
      <use xlink:href="#DejaVuSans-65" x="599.023438"/>
      <use xlink:href="#DejaVuSans-63" x="660.546875"/>
      <use xlink:href="#DejaVuSans-74" x="715.527344"/>
      <use xlink:href="#DejaVuSans-69" x="754.736328"/>
      <use xlink:href="#DejaVuSans-6f" x="782.519531"/>
      <use xlink:href="#DejaVuSans-6e" x="843.701172"/>
      <use xlink:href="#DejaVuSans-20" x="907.080078"/>
      <use xlink:href="#DejaVuSans-42" x="938.867188"/>
      <use xlink:href="#DejaVuSans-75" x="1007.470703"/>
      <use xlink:href="#DejaVuSans-72" x="1070.849609"/>
      <use xlink:href="#DejaVuSans-64" x="1110.212891"/>
      <use xlink:href="#DejaVuSans-65" x="1173.689453"/>
      <use xlink:href="#DejaVuSans-6e" x="1235.212891"/>
      <use xlink:href="#DejaVuSans-20" x="1298.591797"/>
      <use xlink:href="#DejaVuSans-4d" x="1330.378906"/>
      <use xlink:href="#DejaVuSans-75" x="1416.658203"/>
      <use xlink:href="#DejaVuSans-6c" x="1480.037109"/>
      <use xlink:href="#DejaVuSans-74" x="1507.820312"/>
      <use xlink:href="#DejaVuSans-69" x="1547.029297"/>
      <use xlink:href="#DejaVuSans-70" x="1574.8125"/>
      <use xlink:href="#DejaVuSans-6c" x="1638.289062"/>
      <use xlink:href="#DejaVuSans-69" x="1666.072266"/>
      <use xlink:href="#DejaVuSans-65" x="1693.855469"/>
      <use xlink:href="#DejaVuSans-72" x="1755.378906"/>
      <use xlink:href="#DejaVuSans-20" x="1796.492188"/>
      <use xlink:href="#DejaVuSans-28" x="1828.279297"/>
      <use xlink:href="#DejaVuSans-62" x="1867.292969"/>
      <use xlink:href="#DejaVuSans-29" x="1930.769531"/>
     </g>
    </g>
   </g>
   <g id="patch_3">
    <path d="M 43.78125 277.111219 
L 43.78125 10.999219 
" style="fill: none; stroke: #000000; stroke-width: 0.8; stroke-linejoin: miter; stroke-linecap: square"/>
   </g>
   <g id="patch_4">
    <path d="M 329.47725 277.111219 
L 329.47725 10.999219 
" style="fill: none; stroke: #000000; stroke-width: 0.8; stroke-linejoin: miter; stroke-linecap: square"/>
   </g>
   <g id="patch_5">
    <path d="M 43.78125 277.111219 
L 329.47725 277.111219 
" style="fill: none; stroke: #000000; stroke-width: 0.8; stroke-linejoin: miter; stroke-linecap: square"/>
   </g>
   <g id="patch_6">
    <path d="M 43.78125 10.999219 
L 329.47725 10.999219 
" style="fill: none; stroke: #000000; stroke-width: 0.8; stroke-linejoin: miter; stroke-linecap: square"/>
   </g>
  </g>
  <g id="axes_2">
   <g id="patch_7">
    <path d="M 347.33325 277.111219 
L 360.63885 277.111219 
L 360.63885 10.999219 
L 347.33325 10.999219 
z
" style="fill: #ffffff"/>
   </g>
   <g id="QuadMesh_1">
    <path d="M 347.33325 277.111219 
L 360.63885 277.111219 
L 360.63885 258.103219 
L 347.33325 258.103219 
L 347.33325 277.111219 
" clip-path="url(#pffd1b48473)" style="fill: #ffefe8"/>
    <path d="M 347.33325 258.103219 
L 360.63885 258.103219 
L 360.63885 239.095219 
L 347.33325 239.095219 
L 347.33325 258.103219 
" clip-path="url(#pffd1b48473)" style="fill: #fee3d7"/>
    <path d="M 347.33325 239.095219 
L 360.63885 239.095219 
L 360.63885 220.087219 
L 347.33325 220.087219 
L 347.33325 239.095219 
" clip-path="url(#pffd1b48473)" style="fill: #fdd1be"/>
    <path d="M 347.33325 220.087219 
L 360.63885 220.087219 
L 360.63885 201.079219 
L 347.33325 201.079219 
L 347.33325 220.087219 
" clip-path="url(#pffd1b48473)" style="fill: #fcbba1"/>
    <path d="M 347.33325 201.079219 
L 360.63885 201.079219 
L 360.63885 182.071219 
L 347.33325 182.071219 
L 347.33325 201.079219 
" clip-path="url(#pffd1b48473)" style="fill: #fca486"/>
    <path d="M 347.33325 182.071219 
L 360.63885 182.071219 
L 360.63885 163.063219 
L 347.33325 163.063219 
L 347.33325 182.071219 
" clip-path="url(#pffd1b48473)" style="fill: #fc8d6d"/>
    <path d="M 347.33325 163.063219 
L 360.63885 163.063219 
L 360.63885 144.055219 
L 347.33325 144.055219 
L 347.33325 163.063219 
" clip-path="url(#pffd1b48473)" style="fill: #fb7656"/>
    <path d="M 347.33325 144.055219 
L 360.63885 144.055219 
L 360.63885 125.047219 
L 347.33325 125.047219 
L 347.33325 144.055219 
" clip-path="url(#pffd1b48473)" style="fill: #f75c41"/>
    <path d="M 347.33325 125.047219 
L 360.63885 125.047219 
L 360.63885 106.039219 
L 347.33325 106.039219 
L 347.33325 125.047219 
" clip-path="url(#pffd1b48473)" style="fill: #f14130"/>
    <path d="M 347.33325 106.039219 
L 360.63885 106.039219 
L 360.63885 87.031219 
L 347.33325 87.031219 
L 347.33325 106.039219 
" clip-path="url(#pffd1b48473)" style="fill: #e02c26"/>
    <path d="M 347.33325 87.031219 
L 360.63885 87.031219 
L 360.63885 68.023219 
L 347.33325 68.023219 
L 347.33325 87.031219 
" clip-path="url(#pffd1b48473)" style="fill: #ca181d"/>
    <path d="M 347.33325 68.023219 
L 360.63885 68.023219 
L 360.63885 49.015219 
L 347.33325 49.015219 
L 347.33325 68.023219 
" clip-path="url(#pffd1b48473)" style="fill: #b51318"/>
    <path d="M 347.33325 49.015219 
L 360.63885 49.015219 
L 360.63885 30.007219 
L 347.33325 30.007219 
L 347.33325 49.015219 
" clip-path="url(#pffd1b48473)" style="fill: #9c0d14"/>
    <path d="M 347.33325 30.007219 
L 360.63885 30.007219 
L 360.63885 10.999219 
L 347.33325 10.999219 
L 347.33325 30.007219 
" clip-path="url(#pffd1b48473)" style="fill: #79040f"/>
   </g>
   <g id="matplotlib.axis_3"/>
   <g id="matplotlib.axis_4">
    <g id="ytick_7">
     <g id="line2d_13">
      <defs>
       <path id="mbfabf287e6" d="M 0 0 
L 3.5 0 
" style="stroke: #000000; stroke-width: 0.8"/>
      </defs>
      <g>
       <use xlink:href="#mbfabf287e6" x="360.63885" y="277.111219" style="stroke: #000000; stroke-width: 0.8"/>
      </g>
     </g>
     <g id="text_15">
      <!-- 252000 -->
      <g transform="translate(367.63885 280.910437) scale(0.1 -0.1)">
       <defs>
        <path id="DejaVuSans-35" d="M 691 4666 
L 3169 4666 
L 3169 4134 
L 1269 4134 
L 1269 2991 
Q 1406 3038 1543 3061 
Q 1681 3084 1819 3084 
Q 2600 3084 3056 2656 
Q 3513 2228 3513 1497 
Q 3513 744 3044 326 
Q 2575 -91 1722 -91 
Q 1428 -91 1123 -41 
Q 819 9 494 109 
L 494 744 
Q 775 591 1075 516 
Q 1375 441 1709 441 
Q 2250 441 2565 725 
Q 2881 1009 2881 1497 
Q 2881 1984 2565 2268 
Q 2250 2553 1709 2553 
Q 1456 2553 1204 2497 
Q 953 2441 691 2322 
L 691 4666 
z
" transform="scale(0.015625)"/>
       </defs>
       <use xlink:href="#DejaVuSans-32"/>
       <use xlink:href="#DejaVuSans-35" x="63.623047"/>
       <use xlink:href="#DejaVuSans-32" x="127.246094"/>
       <use xlink:href="#DejaVuSans-30" x="190.869141"/>
       <use xlink:href="#DejaVuSans-30" x="254.492188"/>
       <use xlink:href="#DejaVuSans-30" x="318.115234"/>
      </g>
     </g>
    </g>
    <g id="ytick_8">
     <g id="line2d_14">
      <g>
       <use xlink:href="#mbfabf287e6" x="360.63885" y="239.095219" style="stroke: #000000; stroke-width: 0.8"/>
      </g>
     </g>
     <g id="text_16">
      <!-- 258000 -->
      <g transform="translate(367.63885 242.894437) scale(0.1 -0.1)">
       <use xlink:href="#DejaVuSans-32"/>
       <use xlink:href="#DejaVuSans-35" x="63.623047"/>
       <use xlink:href="#DejaVuSans-38" x="127.246094"/>
       <use xlink:href="#DejaVuSans-30" x="190.869141"/>
       <use xlink:href="#DejaVuSans-30" x="254.492188"/>
       <use xlink:href="#DejaVuSans-30" x="318.115234"/>
      </g>
     </g>
    </g>
    <g id="ytick_9">
     <g id="line2d_15">
      <g>
       <use xlink:href="#mbfabf287e6" x="360.63885" y="201.079219" style="stroke: #000000; stroke-width: 0.8"/>
      </g>
     </g>
     <g id="text_17">
      <!-- 264000 -->
      <g transform="translate(367.63885 204.878437) scale(0.1 -0.1)">
       <use xlink:href="#DejaVuSans-32"/>
       <use xlink:href="#DejaVuSans-36" x="63.623047"/>
       <use xlink:href="#DejaVuSans-34" x="127.246094"/>
       <use xlink:href="#DejaVuSans-30" x="190.869141"/>
       <use xlink:href="#DejaVuSans-30" x="254.492188"/>
       <use xlink:href="#DejaVuSans-30" x="318.115234"/>
      </g>
     </g>
    </g>
    <g id="ytick_10">
     <g id="line2d_16">
      <g>
       <use xlink:href="#mbfabf287e6" x="360.63885" y="163.063219" style="stroke: #000000; stroke-width: 0.8"/>
      </g>
     </g>
     <g id="text_18">
      <!-- 270000 -->
      <g transform="translate(367.63885 166.862437) scale(0.1 -0.1)">
       <defs>
        <path id="DejaVuSans-37" d="M 525 4666 
L 3525 4666 
L 3525 4397 
L 1831 0 
L 1172 0 
L 2766 4134 
L 525 4134 
L 525 4666 
z
" transform="scale(0.015625)"/>
       </defs>
       <use xlink:href="#DejaVuSans-32"/>
       <use xlink:href="#DejaVuSans-37" x="63.623047"/>
       <use xlink:href="#DejaVuSans-30" x="127.246094"/>
       <use xlink:href="#DejaVuSans-30" x="190.869141"/>
       <use xlink:href="#DejaVuSans-30" x="254.492188"/>
       <use xlink:href="#DejaVuSans-30" x="318.115234"/>
      </g>
     </g>
    </g>
    <g id="ytick_11">
     <g id="line2d_17">
      <g>
       <use xlink:href="#mbfabf287e6" x="360.63885" y="125.047219" style="stroke: #000000; stroke-width: 0.8"/>
      </g>
     </g>
     <g id="text_19">
      <!-- 276000 -->
      <g transform="translate(367.63885 128.846437) scale(0.1 -0.1)">
       <use xlink:href="#DejaVuSans-32"/>
       <use xlink:href="#DejaVuSans-37" x="63.623047"/>
       <use xlink:href="#DejaVuSans-36" x="127.246094"/>
       <use xlink:href="#DejaVuSans-30" x="190.869141"/>
       <use xlink:href="#DejaVuSans-30" x="254.492188"/>
       <use xlink:href="#DejaVuSans-30" x="318.115234"/>
      </g>
     </g>
    </g>
    <g id="ytick_12">
     <g id="line2d_18">
      <g>
       <use xlink:href="#mbfabf287e6" x="360.63885" y="87.031219" style="stroke: #000000; stroke-width: 0.8"/>
      </g>
     </g>
     <g id="text_20">
      <!-- 282000 -->
      <g transform="translate(367.63885 90.830437) scale(0.1 -0.1)">
       <use xlink:href="#DejaVuSans-32"/>
       <use xlink:href="#DejaVuSans-38" x="63.623047"/>
       <use xlink:href="#DejaVuSans-32" x="127.246094"/>
       <use xlink:href="#DejaVuSans-30" x="190.869141"/>
       <use xlink:href="#DejaVuSans-30" x="254.492188"/>
       <use xlink:href="#DejaVuSans-30" x="318.115234"/>
      </g>
     </g>
    </g>
    <g id="ytick_13">
     <g id="line2d_19">
      <g>
       <use xlink:href="#mbfabf287e6" x="360.63885" y="49.015219" style="stroke: #000000; stroke-width: 0.8"/>
      </g>
     </g>
     <g id="text_21">
      <!-- 288000 -->
      <g transform="translate(367.63885 52.814437) scale(0.1 -0.1)">
       <use xlink:href="#DejaVuSans-32"/>
       <use xlink:href="#DejaVuSans-38" x="63.623047"/>
       <use xlink:href="#DejaVuSans-38" x="127.246094"/>
       <use xlink:href="#DejaVuSans-30" x="190.869141"/>
       <use xlink:href="#DejaVuSans-30" x="254.492188"/>
       <use xlink:href="#DejaVuSans-30" x="318.115234"/>
      </g>
     </g>
    </g>
    <g id="ytick_14">
     <g id="line2d_20">
      <g>
       <use xlink:href="#mbfabf287e6" x="360.63885" y="10.999219" style="stroke: #000000; stroke-width: 0.8"/>
      </g>
     </g>
     <g id="text_22">
      <!-- 294000 -->
      <g transform="translate(367.63885 14.798437) scale(0.1 -0.1)">
       <defs>
        <path id="DejaVuSans-39" d="M 703 97 
L 703 672 
Q 941 559 1184 500 
Q 1428 441 1663 441 
Q 2288 441 2617 861 
Q 2947 1281 2994 2138 
Q 2813 1869 2534 1725 
Q 2256 1581 1919 1581 
Q 1219 1581 811 2004 
Q 403 2428 403 3163 
Q 403 3881 828 4315 
Q 1253 4750 1959 4750 
Q 2769 4750 3195 4129 
Q 3622 3509 3622 2328 
Q 3622 1225 3098 567 
Q 2575 -91 1691 -91 
Q 1453 -91 1209 -44 
Q 966 3 703 97 
z
M 1959 2075 
Q 2384 2075 2632 2365 
Q 2881 2656 2881 3163 
Q 2881 3666 2632 3958 
Q 2384 4250 1959 4250 
Q 1534 4250 1286 3958 
Q 1038 3666 1038 3163 
Q 1038 2656 1286 2365 
Q 1534 2075 1959 2075 
z
" transform="scale(0.015625)"/>
       </defs>
       <use xlink:href="#DejaVuSans-32"/>
       <use xlink:href="#DejaVuSans-39" x="63.623047"/>
       <use xlink:href="#DejaVuSans-34" x="127.246094"/>
       <use xlink:href="#DejaVuSans-30" x="190.869141"/>
       <use xlink:href="#DejaVuSans-30" x="254.492188"/>
       <use xlink:href="#DejaVuSans-30" x="318.115234"/>
      </g>
     </g>
    </g>
    <g id="text_23">
     <!-- Total Clinical Burden -->
     <g transform="translate(417.412288 194.926312) rotate(-90) scale(0.1 -0.1)">
      <defs>
       <path id="DejaVuSans-54" d="M -19 4666 
L 3928 4666 
L 3928 4134 
L 2272 4134 
L 2272 0 
L 1638 0 
L 1638 4134 
L -19 4134 
L -19 4666 
z
" transform="scale(0.015625)"/>
       <path id="DejaVuSans-43" d="M 4122 4306 
L 4122 3641 
Q 3803 3938 3442 4084 
Q 3081 4231 2675 4231 
Q 1875 4231 1450 3742 
Q 1025 3253 1025 2328 
Q 1025 1406 1450 917 
Q 1875 428 2675 428 
Q 3081 428 3442 575 
Q 3803 722 4122 1019 
L 4122 359 
Q 3791 134 3420 21 
Q 3050 -91 2638 -91 
Q 1578 -91 968 557 
Q 359 1206 359 2328 
Q 359 3453 968 4101 
Q 1578 4750 2638 4750 
Q 3056 4750 3426 4639 
Q 3797 4528 4122 4306 
z
" transform="scale(0.015625)"/>
      </defs>
      <use xlink:href="#DejaVuSans-54"/>
      <use xlink:href="#DejaVuSans-6f" x="44.083984"/>
      <use xlink:href="#DejaVuSans-74" x="105.265625"/>
      <use xlink:href="#DejaVuSans-61" x="144.474609"/>
      <use xlink:href="#DejaVuSans-6c" x="205.753906"/>
      <use xlink:href="#DejaVuSans-20" x="233.537109"/>
      <use xlink:href="#DejaVuSans-43" x="265.324219"/>
      <use xlink:href="#DejaVuSans-6c" x="335.148438"/>
      <use xlink:href="#DejaVuSans-69" x="362.931641"/>
      <use xlink:href="#DejaVuSans-6e" x="390.714844"/>
      <use xlink:href="#DejaVuSans-69" x="454.09375"/>
      <use xlink:href="#DejaVuSans-63" x="481.876953"/>
      <use xlink:href="#DejaVuSans-61" x="536.857422"/>
      <use xlink:href="#DejaVuSans-6c" x="598.136719"/>
      <use xlink:href="#DejaVuSans-20" x="625.919922"/>
      <use xlink:href="#DejaVuSans-42" x="657.707031"/>
      <use xlink:href="#DejaVuSans-75" x="726.310547"/>
      <use xlink:href="#DejaVuSans-72" x="789.689453"/>
      <use xlink:href="#DejaVuSans-64" x="829.052734"/>
      <use xlink:href="#DejaVuSans-65" x="892.529297"/>
      <use xlink:href="#DejaVuSans-6e" x="954.052734"/>
     </g>
    </g>
   </g>
   <g id="LineCollection_1"/>
   <g id="patch_8">
    <path d="M 347.33325 277.111219 
L 353.98605 277.111219 
L 360.63885 277.111219 
L 360.63885 10.999219 
L 353.98605 10.999219 
L 347.33325 10.999219 
L 347.33325 277.111219 
z
" style="fill: none; stroke: #000000; stroke-width: 0.8; stroke-linejoin: miter; stroke-linecap: square"/>
   </g>
  </g>
 </g>
 <defs>
  <clipPath id="pddcdf18d7e">
   <rect x="43.78125" y="10.999219" width="285.696" height="266.112"/>
  </clipPath>
  <clipPath id="pffd1b48473">
   <rect x="347.33325" y="10.999219" width="13.3056" height="266.112"/>
  </clipPath>
 </defs>
</svg>
