<?xml version="1.0" encoding="utf-8" standalone="no"?>
<!DOCTYPE svg PUBLIC "-//W3C//DTD SVG 1.1//EN"
  "http://www.w3.org/Graphics/SVG/1.1/DTD/svg11.dtd">
<svg xmlns:xlink="http://www.w3.org/1999/xlink" width="404.4201pt" height="321.466687pt" viewBox="0 0 404.4201 321.466687" xmlns="http://www.w3.org/2000/svg" version="1.1">
 <metadata>
  <rdf:RDF xmlns:dc="http://purl.org/dc/elements/1.1/" xmlns:cc="http://creativecommons.org/ns#" xmlns:rdf="http://www.w3.org/1999/02/22-rdf-syntax-ns#">
   <cc:Work>
    <dc:type rdf:resource="http://purl.org/dc/dcmitype/StillImage"/>
    <dc:date>2024-11-11T09:33:36.552582</dc:date>
    <dc:format>image/svg+xml</dc:format>
    <dc:creator>
     <cc:Agent>
      <dc:title>Matplotlib v3.9.0, https://matplotlib.org/</dc:title>
     </cc:Agent>
    </dc:creator>
   </cc:Work>
  </rdf:RDF>
 </metadata>
 <defs>
  <style type="text/css">*{stroke-linejoin: round; stroke-linecap: butt}</style>
 </defs>
 <g id="figure_1">
  <g id="patch_1">
   <path d="M 0 321.466687 
L 404.4201 321.466687 
L 404.4201 0 
L 0 0 
z
" style="fill: #ffffff"/>
  </g>
  <g id="axes_1">
   <g id="patch_2">
    <path d="M 43.78125 283.910437 
L 329.47725 283.910437 
L 329.47725 17.798437 
L 43.78125 17.798437 
z
" style="fill: #ffffff"/>
   </g>
   <g id="QuadContourSet_1">
    <path d="M 165.20205 277.257637 
L 172.34445 283.910437 
L 172.34445 283.910437 
L 179.48685 283.910437 
L 186.62925 283.910437 
L 193.77165 283.910437 
L 196.15245 283.910437 
L 200.91405 279.475237 
L 200.91405 277.257637 
L 200.91405 270.604837 
L 200.91405 270.604837 
L 193.77165 270.604837 
L 186.62925 270.604837 
L 179.48685 270.604837 
L 172.34445 270.604837 
L 165.20205 270.604837 
L 158.05965 270.604837 
L 158.05965 270.604837 
L 158.05965 270.604837 
L 165.20205 277.257637 
z
M 215.19885 283.910437 
L 222.34125 283.910437 
L 229.48365 283.910437 
L 231.86445 283.910437 
L 229.48365 283.910437 
L 222.34125 283.910437 
L 215.19885 283.910437 
L 212.81805 283.910437 
z
M 243.76845 283.910437 
L 250.91085 283.910437 
L 258.05325 283.910437 
L 265.19565 283.910437 
L 272.33805 283.910437 
L 279.48045 283.910437 
L 286.62285 283.910437 
L 293.76525 283.910437 
L 300.90765 283.910437 
L 308.05005 283.910437 
L 306.85965 282.801637 
L 300.90765 282.801637 
L 293.76525 282.801637 
L 286.62285 282.801637 
L 279.48045 282.801637 
L 272.33805 282.801637 
L 265.19565 282.801637 
L 258.05325 282.801637 
L 250.91085 283.305637 
L 243.76845 283.910437 
L 240.19725 283.910437 
z
M 143.77485 257.299237 
L 143.77485 257.299237 
L 143.77485 257.299237 
L 143.77485 257.299237 
z
" clip-path="url(#p6b4349d60a)" style="fill: #f8f7fa"/>
    <path d="M 50.92365 283.910437 
L 58.06605 283.910437 
L 65.20845 283.910437 
L 72.35085 283.910437 
L 79.49325 283.910437 
L 86.63565 283.910437 
L 93.77805 283.910437 
L 100.92045 283.910437 
L 108.06285 283.910437 
L 115.20525 283.910437 
L 122.34765 283.910437 
L 129.49005 283.910437 
L 136.63245 283.910437 
L 143.77485 283.910437 
L 150.91725 283.910437 
L 150.91725 283.910437 
L 158.05965 283.910437 
L 158.05965 283.910437 
L 165.20205 283.910437 
L 172.34445 283.910437 
L 165.20205 277.257637 
L 165.20205 277.257637 
L 158.05965 270.604837 
L 158.05965 270.604837 
L 158.05965 270.604837 
L 165.20205 270.604837 
L 172.34445 270.604837 
L 179.48685 270.604837 
L 186.62925 270.604837 
L 193.77165 270.604837 
L 200.91405 270.604837 
L 200.91405 270.604837 
L 200.91405 277.257637 
L 200.91405 279.475237 
L 196.15245 283.910437 
L 200.91405 283.910437 
L 208.05645 283.910437 
L 212.81805 283.910437 
L 215.19885 283.910437 
L 222.34125 283.910437 
L 229.48365 283.910437 
L 231.86445 283.910437 
L 236.62605 283.910437 
L 240.19725 283.910437 
L 243.76845 283.910437 
L 250.91085 283.305637 
L 258.05325 282.801637 
L 265.19565 282.801637 
L 272.33805 282.801637 
L 279.48045 282.801637 
L 286.62285 282.801637 
L 293.76525 282.801637 
L 300.90765 282.801637 
L 306.85965 282.801637 
L 305.66925 281.692837 
L 300.90765 281.692837 
L 293.76525 281.692837 
L 286.62285 281.692837 
L 279.48045 281.692837 
L 272.33805 281.692837 
L 265.19565 281.692837 
L 258.05325 281.692837 
L 250.91085 282.096037 
L 243.76845 282.700837 
L 236.62605 282.700837 
L 229.48365 282.700837 
L 222.34125 282.700837 
L 215.19885 282.700837 
L 208.05645 282.700837 
L 202.212668 277.257637 
L 202.212668 270.604837 
L 200.91405 269.395237 
L 193.77165 269.395237 
L 186.62925 269.395237 
L 179.48685 269.395237 
L 172.34445 269.395237 
L 165.20205 269.395237 
L 158.05965 269.395237 
L 150.91725 270.000037 
L 144.424159 263.952037 
L 145.073468 257.299237 
L 143.77485 256.089637 
L 136.63245 256.633957 
L 129.49005 257.299237 
L 122.34765 257.299237 
L 115.20525 257.299237 
L 108.06285 257.299237 
L 100.92045 257.299237 
L 96.15885 257.299237 
L 93.77805 263.952037 
L 86.63565 263.952037 
L 79.49325 257.299237 
L 79.49325 250.646437 
L 79.49325 250.646437 
L 72.35085 250.646437 
L 65.20845 250.646437 
L 58.06605 250.646437 
L 50.92365 250.646437 
L 43.78125 250.646437 
L 43.78125 250.646437 
L 43.78125 257.299237 
L 43.78125 263.952037 
L 43.78125 270.604837 
L 43.78125 277.257637 
L 43.78125 283.910437 
z
M 143.77485 277.257637 
L 150.91725 277.257637 
L 150.91725 277.257637 
L 150.91725 283.910437 
z
M 143.77485 257.299237 
L 143.77485 257.299237 
L 143.77485 257.299237 
L 143.77485 257.299237 
z
" clip-path="url(#p6b4349d60a)" style="fill: #efedf5"/>
    <path d="M 150.91725 283.910437 
L 150.91725 277.257637 
L 150.91725 277.257637 
L 143.77485 277.257637 
z
M 158.05965 283.910437 
L 158.05965 283.910437 
L 158.05965 283.910437 
L 150.91725 283.910437 
z
M 208.05645 282.700837 
L 215.19885 282.700837 
L 222.34125 282.700837 
L 229.48365 282.700837 
L 236.62605 282.700837 
L 243.76845 282.700837 
L 250.91085 282.096037 
L 258.05325 281.692837 
L 265.19565 281.692837 
L 272.33805 281.692837 
L 279.48045 281.692837 
L 286.62285 281.692837 
L 293.76525 281.692837 
L 300.90765 281.692837 
L 305.66925 281.692837 
L 304.47885 280.584037 
L 300.90765 280.584037 
L 293.76525 280.584037 
L 286.62285 280.584037 
L 279.48045 280.584037 
L 272.33805 280.584037 
L 265.19565 280.584037 
L 258.05325 280.584037 
L 250.91085 280.886437 
L 243.76845 281.491237 
L 236.62605 281.491237 
L 229.48365 281.491237 
L 222.34125 281.491237 
L 215.19885 281.491237 
L 208.05645 281.491237 
L 203.511286 277.257637 
L 203.511286 270.604837 
L 200.91405 268.185637 
L 193.77165 268.185637 
L 186.62925 268.185637 
L 179.48685 268.185637 
L 172.34445 268.185637 
L 165.20205 268.185637 
L 158.05965 268.185637 
L 150.91725 268.790437 
L 145.722777 263.952037 
L 146.372086 257.299237 
L 143.77485 254.880037 
L 136.63245 255.303397 
L 129.49005 255.968677 
L 122.34765 255.968677 
L 115.20525 255.968677 
L 108.06285 255.968677 
L 100.92045 255.968677 
L 93.77805 255.968677 
L 88.06413 250.646437 
L 88.06413 243.993637 
L 86.63565 242.663077 
L 79.49325 242.663077 
L 72.35085 242.663077 
L 65.20845 242.663077 
L 58.06605 242.663077 
L 50.92365 242.663077 
L 43.78125 242.663077 
L 43.78125 243.993637 
L 43.78125 250.646437 
L 50.92365 250.646437 
L 58.06605 250.646437 
L 65.20845 250.646437 
L 72.35085 250.646437 
L 79.49325 250.646437 
L 79.49325 250.646437 
L 79.49325 257.299237 
L 86.63565 263.952037 
L 93.77805 263.952037 
L 96.15885 257.299237 
L 100.92045 257.299237 
L 108.06285 257.299237 
L 115.20525 257.299237 
L 122.34765 257.299237 
L 129.49005 257.299237 
L 136.63245 256.633957 
L 143.77485 256.089637 
L 145.073468 257.299237 
L 144.424159 263.952037 
L 150.91725 270.000037 
L 158.05965 269.395237 
L 165.20205 269.395237 
L 172.34445 269.395237 
L 179.48685 269.395237 
L 186.62925 269.395237 
L 193.77165 269.395237 
L 200.91405 269.395237 
L 202.212668 270.604837 
L 202.212668 277.257637 
z
" clip-path="url(#p6b4349d60a)" style="fill: #e1e0ee"/>
    <path d="M 208.05645 281.491237 
L 215.19885 281.491237 
L 222.34125 281.491237 
L 229.48365 281.491237 
L 236.62605 281.491237 
L 243.76845 281.491237 
L 250.91085 280.886437 
L 258.05325 280.584037 
L 265.19565 280.584037 
L 272.33805 280.584037 
L 279.48045 280.584037 
L 286.62285 280.584037 
L 293.76525 280.584037 
L 300.90765 280.584037 
L 304.47885 280.584037 
L 303.28845 279.475237 
L 300.90765 279.475237 
L 293.76525 279.475237 
L 286.62285 279.475237 
L 279.48045 279.475237 
L 272.33805 279.475237 
L 265.19565 279.475237 
L 258.05325 279.475237 
L 250.91085 279.676837 
L 243.76845 280.281637 
L 236.62605 280.281637 
L 229.48365 280.281637 
L 222.34125 280.281637 
L 215.19885 280.281637 
L 208.05645 280.281637 
L 204.809905 277.257637 
L 204.809905 270.604837 
L 200.91405 266.976037 
L 193.77165 266.976037 
L 186.62925 266.976037 
L 179.48685 266.976037 
L 172.34445 266.976037 
L 165.20205 266.976037 
L 158.05965 266.976037 
L 150.91725 267.580837 
L 147.021395 263.952037 
L 147.670705 257.299237 
L 143.77485 253.670437 
L 136.63245 253.972837 
L 129.49005 254.638117 
L 122.34765 254.638117 
L 115.20525 254.638117 
L 108.06285 254.638117 
L 100.92045 254.638117 
L 93.77805 254.638117 
L 89.49261 250.646437 
L 89.49261 243.993637 
L 86.63565 241.332517 
L 79.49325 241.332517 
L 72.35085 241.332517 
L 65.20845 241.332517 
L 58.06605 241.332517 
L 50.92365 241.332517 
L 43.78125 241.332517 
L 43.78125 242.663077 
L 50.92365 242.663077 
L 58.06605 242.663077 
L 65.20845 242.663077 
L 72.35085 242.663077 
L 79.49325 242.663077 
L 86.63565 242.663077 
L 88.06413 243.993637 
L 88.06413 250.646437 
L 93.77805 255.968677 
L 100.92045 255.968677 
L 108.06285 255.968677 
L 115.20525 255.968677 
L 122.34765 255.968677 
L 129.49005 255.968677 
L 136.63245 255.303397 
L 143.77485 254.880037 
L 146.372086 257.299237 
L 145.722777 263.952037 
L 150.91725 268.790437 
L 158.05965 268.185637 
L 165.20205 268.185637 
L 172.34445 268.185637 
L 179.48685 268.185637 
L 186.62925 268.185637 
L 193.77165 268.185637 
L 200.91405 268.185637 
L 203.511286 270.604837 
L 203.511286 277.257637 
z
" clip-path="url(#p6b4349d60a)" style="fill: #d0d1e6"/>
    <path d="M 208.05645 280.281637 
L 215.19885 280.281637 
L 222.34125 280.281637 
L 229.48365 280.281637 
L 236.62605 280.281637 
L 243.76845 280.281637 
L 250.91085 279.676837 
L 258.05325 279.475237 
L 265.19565 279.475237 
L 272.33805 279.475237 
L 279.48045 279.475237 
L 286.62285 279.475237 
L 293.76525 279.475237 
L 300.90765 279.475237 
L 303.28845 279.475237 
L 302.09805 278.366437 
L 300.90765 278.366437 
L 293.76525 278.366437 
L 286.62285 278.366437 
L 279.48045 278.366437 
L 272.33805 278.366437 
L 265.19565 278.366437 
L 258.05325 278.366437 
L 250.91085 278.467237 
L 243.76845 279.072037 
L 236.62605 279.072037 
L 229.48365 279.072037 
L 222.34125 279.072037 
L 215.19885 279.072037 
L 208.05645 279.072037 
L 206.108523 277.257637 
L 206.108523 270.604837 
L 200.91405 265.766437 
L 193.77165 265.766437 
L 186.62925 265.766437 
L 179.48685 265.766437 
L 172.34445 265.766437 
L 165.20205 265.766437 
L 158.05965 265.766437 
L 150.91725 266.371237 
L 148.320014 263.952037 
L 148.969323 257.299237 
L 143.77485 252.460837 
L 136.63245 252.642277 
L 129.49005 253.307557 
L 122.34765 253.307557 
L 115.20525 253.307557 
L 108.06285 253.307557 
L 100.92045 253.307557 
L 93.77805 253.307557 
L 90.92109 250.646437 
L 90.92109 243.993637 
L 86.63565 240.001957 
L 79.49325 240.001957 
L 72.35085 240.001957 
L 65.20845 240.001957 
L 58.06605 240.001957 
L 50.92365 240.001957 
L 43.78125 240.001957 
L 43.78125 241.332517 
L 50.92365 241.332517 
L 58.06605 241.332517 
L 65.20845 241.332517 
L 72.35085 241.332517 
L 79.49325 241.332517 
L 86.63565 241.332517 
L 89.49261 243.993637 
L 89.49261 250.646437 
L 93.77805 254.638117 
L 100.92045 254.638117 
L 108.06285 254.638117 
L 115.20525 254.638117 
L 122.34765 254.638117 
L 129.49005 254.638117 
L 136.63245 253.972837 
L 143.77485 253.670437 
L 147.670705 257.299237 
L 147.021395 263.952037 
L 150.91725 267.580837 
L 158.05965 266.976037 
L 165.20205 266.976037 
L 172.34445 266.976037 
L 179.48685 266.976037 
L 186.62925 266.976037 
L 193.77165 266.976037 
L 200.91405 266.976037 
L 204.809905 270.604837 
L 204.809905 277.257637 
z
" clip-path="url(#p6b4349d60a)" style="fill: #bcbddc"/>
    <path d="M 208.05645 279.072037 
L 215.19885 279.072037 
L 222.34125 279.072037 
L 229.48365 279.072037 
L 236.62605 279.072037 
L 243.76845 279.072037 
L 250.91085 278.467237 
L 258.05325 278.366437 
L 265.19565 278.366437 
L 272.33805 278.366437 
L 279.48045 278.366437 
L 286.62285 278.366437 
L 293.76525 278.366437 
L 300.90765 278.366437 
L 302.09805 278.366437 
L 300.90765 277.257637 
L 300.90765 277.257637 
L 293.76525 277.257637 
L 286.62285 277.257637 
L 279.48045 277.257637 
L 272.33805 277.257637 
L 265.19565 277.257637 
L 258.05325 277.257637 
L 250.91085 277.257637 
L 250.91085 277.257637 
L 243.76845 277.862437 
L 236.62605 277.862437 
L 229.48365 277.862437 
L 222.34125 277.862437 
L 215.19885 277.862437 
L 208.05645 277.862437 
L 207.407141 277.257637 
L 207.407141 270.604837 
L 200.91405 264.556837 
L 193.77165 264.556837 
L 186.62925 264.556837 
L 179.48685 264.556837 
L 172.34445 264.556837 
L 165.20205 264.556837 
L 158.05965 264.556837 
L 150.91725 265.161637 
L 149.618632 263.952037 
L 150.267941 257.299237 
L 143.77485 251.251237 
L 136.63245 251.311717 
L 129.49005 251.976997 
L 122.34765 251.976997 
L 115.20525 251.976997 
L 108.06285 251.976997 
L 100.92045 251.976997 
L 93.77805 251.976997 
L 92.34957 250.646437 
L 92.34957 243.993637 
L 86.63565 238.671397 
L 79.49325 238.671397 
L 72.35085 238.671397 
L 65.20845 238.671397 
L 58.06605 238.671397 
L 50.92365 238.671397 
L 43.78125 238.671397 
L 43.78125 240.001957 
L 50.92365 240.001957 
L 58.06605 240.001957 
L 65.20845 240.001957 
L 72.35085 240.001957 
L 79.49325 240.001957 
L 86.63565 240.001957 
L 90.92109 243.993637 
L 90.92109 250.646437 
L 93.77805 253.307557 
L 100.92045 253.307557 
L 108.06285 253.307557 
L 115.20525 253.307557 
L 122.34765 253.307557 
L 129.49005 253.307557 
L 136.63245 252.642277 
L 143.77485 252.460837 
L 148.969323 257.299237 
L 148.320014 263.952037 
L 150.91725 266.371237 
L 158.05965 265.766437 
L 165.20205 265.766437 
L 172.34445 265.766437 
L 179.48685 265.766437 
L 186.62925 265.766437 
L 193.77165 265.766437 
L 200.91405 265.766437 
L 206.108523 270.604837 
L 206.108523 277.257637 
z
" clip-path="url(#p6b4349d60a)" style="fill: #a8a6cf"/>
    <path d="M 208.05645 277.862437 
L 215.19885 277.862437 
L 222.34125 277.862437 
L 229.48365 277.862437 
L 236.62605 277.862437 
L 243.76845 277.862437 
L 250.91085 277.257637 
L 250.91085 277.257637 
L 258.05325 277.257637 
L 265.19565 277.257637 
L 272.33805 277.257637 
L 279.48045 277.257637 
L 286.62285 277.257637 
L 293.76525 277.257637 
L 300.90765 277.257637 
L 300.90765 276.148837 
L 293.76525 276.148837 
L 286.62285 276.148837 
L 279.48045 276.148837 
L 272.33805 276.148837 
L 265.19565 276.148837 
L 258.05325 276.148837 
L 250.91085 276.148837 
L 243.76845 276.652837 
L 236.62605 276.652837 
L 229.48365 276.652837 
L 222.34125 276.652837 
L 215.19885 276.652837 
L 208.705759 270.604837 
L 208.05645 270.000037 
L 201.563359 263.952037 
L 200.91405 263.347237 
L 193.77165 263.347237 
L 186.62925 263.347237 
L 179.48685 263.347237 
L 172.34445 263.347237 
L 165.20205 263.347237 
L 158.05965 263.347237 
L 151.566559 257.299237 
L 150.91725 256.694437 
L 144.424159 250.646437 
L 143.77485 250.041637 
L 136.63245 250.041637 
L 129.49005 250.646437 
L 122.34765 250.646437 
L 115.20525 250.646437 
L 108.06285 250.646437 
L 100.92045 250.646437 
L 93.77805 243.993637 
L 93.77805 243.993637 
L 86.63565 237.340837 
L 86.63565 237.340837 
L 79.49325 237.340837 
L 79.49325 237.340837 
L 72.35085 237.340837 
L 65.20845 237.340837 
L 58.06605 237.340837 
L 50.92365 237.340837 
L 43.78125 237.340837 
L 43.78125 238.671397 
L 50.92365 238.671397 
L 58.06605 238.671397 
L 65.20845 238.671397 
L 72.35085 238.671397 
L 79.49325 238.671397 
L 86.63565 238.671397 
L 92.34957 243.993637 
L 92.34957 250.646437 
L 93.77805 251.976997 
L 100.92045 251.976997 
L 108.06285 251.976997 
L 115.20525 251.976997 
L 122.34765 251.976997 
L 129.49005 251.976997 
L 136.63245 251.311717 
L 143.77485 251.251237 
L 150.267941 257.299237 
L 149.618632 263.952037 
L 150.91725 265.161637 
L 158.05965 264.556837 
L 165.20205 264.556837 
L 172.34445 264.556837 
L 179.48685 264.556837 
L 186.62925 264.556837 
L 193.77165 264.556837 
L 200.91405 264.556837 
L 207.407141 270.604837 
L 207.407141 277.257637 
z
M 43.78125 44.409637 
L 43.78125 37.756837 
L 43.78125 37.756837 
L 43.78125 44.409637 
L 43.78125 44.409637 
z
" clip-path="url(#p6b4349d60a)" style="fill: #9490c3"/>
    <path d="M 215.19885 276.652837 
L 222.34125 276.652837 
L 229.48365 276.652837 
L 236.62605 276.652837 
L 243.76845 276.652837 
L 250.91085 276.148837 
L 258.05325 276.148837 
L 265.19565 276.148837 
L 272.33805 276.148837 
L 279.48045 276.148837 
L 286.62285 276.148837 
L 293.76525 276.148837 
L 300.90765 276.148837 
L 300.90765 275.040037 
L 293.76525 275.040037 
L 286.62285 275.040037 
L 279.48045 275.040037 
L 272.33805 275.040037 
L 265.19565 275.040037 
L 258.05325 275.040037 
L 250.91085 275.040037 
L 243.76845 275.443237 
L 236.62605 275.443237 
L 229.48365 275.443237 
L 222.34125 275.443237 
L 215.19885 275.443237 
L 210.004377 270.604837 
L 208.05645 268.790437 
L 202.861977 263.952037 
L 200.91405 262.137637 
L 193.77165 262.137637 
L 186.62925 262.137637 
L 179.48685 262.137637 
L 172.34445 262.137637 
L 165.20205 262.137637 
L 158.05965 262.137637 
L 152.865177 257.299237 
L 150.91725 255.484837 
L 145.722777 250.646437 
L 143.77485 248.832037 
L 136.63245 248.832037 
L 129.49005 249.315877 
L 122.34765 249.315877 
L 115.20525 249.315877 
L 108.06285 249.315877 
L 100.92045 249.315877 
L 95.20653 243.993637 
L 93.77805 242.663077 
L 88.06413 237.340837 
L 86.63565 236.010277 
L 79.49325 236.010277 
L 72.35085 236.010277 
L 65.20845 236.010277 
L 58.06605 236.010277 
L 50.92365 236.010277 
L 43.78125 236.010277 
L 43.78125 237.340837 
L 43.78125 237.340837 
L 50.92365 237.340837 
L 58.06605 237.340837 
L 65.20845 237.340837 
L 72.35085 237.340837 
L 79.49325 237.340837 
L 79.49325 237.340837 
L 86.63565 237.340837 
L 86.63565 237.340837 
L 93.77805 243.993637 
L 93.77805 243.993637 
L 100.92045 250.646437 
L 108.06285 250.646437 
L 115.20525 250.646437 
L 122.34765 250.646437 
L 129.49005 250.646437 
L 136.63245 250.041637 
L 143.77485 250.041637 
L 144.424159 250.646437 
L 150.91725 256.694437 
L 151.566559 257.299237 
L 158.05965 263.347237 
L 165.20205 263.347237 
L 172.34445 263.347237 
L 179.48685 263.347237 
L 186.62925 263.347237 
L 193.77165 263.347237 
L 200.91405 263.347237 
L 201.563359 263.952037 
L 208.05645 270.000037 
L 208.705759 270.604837 
z
M 47.35245 44.409637 
L 47.35245 41.083237 
L 43.78125 37.756837 
L 43.78125 44.409637 
L 43.78125 44.409637 
L 43.78125 47.736037 
z
" clip-path="url(#p6b4349d60a)" style="fill: #807cba"/>
    <path d="M 215.19885 275.443237 
L 222.34125 275.443237 
L 229.48365 275.443237 
L 236.62605 275.443237 
L 243.76845 275.443237 
L 250.91085 275.040037 
L 258.05325 275.040037 
L 265.19565 275.040037 
L 272.33805 275.040037 
L 279.48045 275.040037 
L 286.62285 275.040037 
L 293.76525 275.040037 
L 300.90765 275.040037 
L 300.90765 273.931237 
L 293.76525 273.931237 
L 286.62285 273.931237 
L 279.48045 273.931237 
L 272.33805 273.931237 
L 265.19565 273.931237 
L 258.05325 273.931237 
L 250.91085 273.931237 
L 243.76845 274.233637 
L 236.62605 274.233637 
L 229.48365 274.233637 
L 222.34125 274.233637 
L 215.19885 274.233637 
L 211.302995 270.604837 
L 208.05645 267.580837 
L 204.160595 263.952037 
L 200.91405 260.928037 
L 193.77165 260.928037 
L 186.62925 260.928037 
L 179.48685 260.928037 
L 172.34445 260.928037 
L 165.20205 260.928037 
L 158.05965 260.928037 
L 154.163795 257.299237 
L 150.91725 254.275237 
L 147.021395 250.646437 
L 143.77485 247.622437 
L 136.63245 247.622437 
L 129.49005 247.985317 
L 122.34765 247.985317 
L 115.20525 247.985317 
L 108.06285 247.985317 
L 100.92045 247.985317 
L 96.63501 243.993637 
L 93.77805 241.332517 
L 89.49261 237.340837 
L 86.63565 234.679717 
L 79.49325 234.679717 
L 72.35085 234.679717 
L 65.20845 234.679717 
L 58.06605 234.679717 
L 50.92365 234.679717 
L 43.78125 234.679717 
L 43.78125 236.010277 
L 50.92365 236.010277 
L 58.06605 236.010277 
L 65.20845 236.010277 
L 72.35085 236.010277 
L 79.49325 236.010277 
L 86.63565 236.010277 
L 88.06413 237.340837 
L 93.77805 242.663077 
L 95.20653 243.993637 
L 100.92045 249.315877 
L 108.06285 249.315877 
L 115.20525 249.315877 
L 122.34765 249.315877 
L 129.49005 249.315877 
L 136.63245 248.832037 
L 143.77485 248.832037 
L 145.722777 250.646437 
L 150.91725 255.484837 
L 152.865177 257.299237 
L 158.05965 262.137637 
L 165.20205 262.137637 
L 172.34445 262.137637 
L 179.48685 262.137637 
L 186.62925 262.137637 
L 193.77165 262.137637 
L 200.91405 262.137637 
L 202.861977 263.952037 
L 208.05645 268.790437 
L 210.004377 270.604837 
z
M 50.92365 44.409637 
L 50.92365 44.409637 
L 50.92365 44.409637 
L 47.35245 41.083237 
L 47.35245 44.409637 
L 43.78125 47.736037 
L 43.78125 51.062437 
z
" clip-path="url(#p6b4349d60a)" style="fill: #715faa"/>
    <path d="M 215.19885 274.233637 
L 222.34125 274.233637 
L 229.48365 274.233637 
L 236.62605 274.233637 
L 243.76845 274.233637 
L 250.91085 273.931237 
L 258.05325 273.931237 
L 265.19565 273.931237 
L 272.33805 273.931237 
L 279.48045 273.931237 
L 286.62285 273.931237 
L 293.76525 273.931237 
L 300.90765 273.931237 
L 300.90765 272.822437 
L 293.76525 272.822437 
L 286.62285 272.822437 
L 279.48045 272.822437 
L 272.33805 272.822437 
L 265.19565 272.822437 
L 258.05325 272.822437 
L 250.91085 272.822437 
L 243.76845 273.024037 
L 236.62605 273.024037 
L 229.48365 273.024037 
L 222.34125 273.024037 
L 215.19885 273.024037 
L 212.601614 270.604837 
L 208.05645 266.371237 
L 205.459214 263.952037 
L 200.91405 259.718437 
L 193.77165 259.718437 
L 186.62925 259.718437 
L 179.48685 259.718437 
L 172.34445 259.718437 
L 165.20205 259.718437 
L 158.05965 259.718437 
L 155.462414 257.299237 
L 150.91725 253.065637 
L 148.320014 250.646437 
L 143.77485 246.412837 
L 136.63245 246.412837 
L 129.49005 246.654757 
L 122.34765 246.654757 
L 115.20525 246.654757 
L 108.06285 246.654757 
L 100.92045 246.654757 
L 98.06349 243.993637 
L 93.77805 240.001957 
L 90.92109 237.340837 
L 86.63565 233.349157 
L 79.49325 233.349157 
L 72.35085 233.349157 
L 65.20845 233.349157 
L 58.06605 233.349157 
L 50.92365 233.349157 
L 43.78125 233.349157 
L 43.78125 234.679717 
L 50.92365 234.679717 
L 58.06605 234.679717 
L 65.20845 234.679717 
L 72.35085 234.679717 
L 79.49325 234.679717 
L 86.63565 234.679717 
L 89.49261 237.340837 
L 93.77805 241.332517 
L 96.63501 243.993637 
L 100.92045 247.985317 
L 108.06285 247.985317 
L 115.20525 247.985317 
L 122.34765 247.985317 
L 129.49005 247.985317 
L 136.63245 247.622437 
L 143.77485 247.622437 
L 147.021395 250.646437 
L 150.91725 254.275237 
L 154.163795 257.299237 
L 158.05965 260.928037 
L 165.20205 260.928037 
L 172.34445 260.928037 
L 179.48685 260.928037 
L 186.62925 260.928037 
L 193.77165 260.928037 
L 200.91405 260.928037 
L 204.160595 263.952037 
L 208.05645 267.580837 
L 211.302995 270.604837 
z
M 47.35245 51.062437 
L 50.92365 47.736037 
L 54.49485 44.409637 
L 50.92365 44.409637 
L 50.92365 44.409637 
L 43.78125 51.062437 
L 43.78125 51.062437 
L 43.78125 54.388837 
z
" clip-path="url(#p6b4349d60a)" style="fill: #63439c"/>
    <path d="M 215.19885 273.024037 
L 222.34125 273.024037 
L 229.48365 273.024037 
L 236.62605 273.024037 
L 243.76845 273.024037 
L 250.91085 272.822437 
L 258.05325 272.822437 
L 265.19565 272.822437 
L 272.33805 272.822437 
L 279.48045 272.822437 
L 286.62285 272.822437 
L 293.76525 272.822437 
L 300.90765 272.822437 
L 300.90765 271.713637 
L 293.76525 271.713637 
L 286.62285 271.713637 
L 279.48045 271.713637 
L 272.33805 271.713637 
L 265.19565 271.713637 
L 258.05325 271.713637 
L 250.91085 271.713637 
L 243.76845 271.814437 
L 236.62605 271.814437 
L 229.48365 271.814437 
L 222.34125 271.814437 
L 215.19885 271.814437 
L 213.900232 270.604837 
L 208.05645 265.161637 
L 206.757832 263.952037 
L 200.91405 258.508837 
L 193.77165 258.508837 
L 186.62925 258.508837 
L 179.48685 258.508837 
L 172.34445 258.508837 
L 165.20205 258.508837 
L 158.05965 258.508837 
L 156.761032 257.299237 
L 150.91725 251.856037 
L 149.618632 250.646437 
L 143.77485 245.203237 
L 136.63245 245.203237 
L 129.49005 245.324197 
L 122.34765 245.324197 
L 115.20525 245.324197 
L 108.06285 245.324197 
L 100.92045 245.324197 
L 99.49197 243.993637 
L 93.77805 238.671397 
L 92.34957 237.340837 
L 86.63565 232.018597 
L 79.49325 232.018597 
L 72.35085 232.018597 
L 65.20845 232.018597 
L 58.06605 232.018597 
L 50.92365 232.018597 
L 43.78125 232.018597 
L 43.78125 233.349157 
L 50.92365 233.349157 
L 58.06605 233.349157 
L 65.20845 233.349157 
L 72.35085 233.349157 
L 79.49325 233.349157 
L 86.63565 233.349157 
L 90.92109 237.340837 
L 93.77805 240.001957 
L 98.06349 243.993637 
L 100.92045 246.654757 
L 108.06285 246.654757 
L 115.20525 246.654757 
L 122.34765 246.654757 
L 129.49005 246.654757 
L 136.63245 246.412837 
L 143.77485 246.412837 
L 148.320014 250.646437 
L 150.91725 253.065637 
L 155.462414 257.299237 
L 158.05965 259.718437 
L 165.20205 259.718437 
L 172.34445 259.718437 
L 179.48685 259.718437 
L 186.62925 259.718437 
L 193.77165 259.718437 
L 200.91405 259.718437 
L 205.459214 263.952037 
L 208.05645 266.371237 
L 212.601614 270.604837 
z
M 43.78125 150.854437 
L 43.78125 150.854437 
L 43.78125 150.854437 
L 43.78125 150.854437 
z
M 50.92365 137.548837 
L 58.06605 137.548837 
L 65.20845 137.548837 
L 72.35085 137.548837 
L 79.49325 137.548837 
L 79.49325 137.548837 
L 79.49325 130.896037 
L 86.63565 127.569637 
L 93.77805 127.569637 
L 100.92045 127.569637 
L 108.06285 130.896037 
L 100.92045 134.222437 
L 97.34925 137.548837 
L 100.92045 137.548837 
L 108.06285 137.548837 
L 115.20525 137.548837 
L 115.20525 137.548837 
L 122.34765 130.896037 
L 122.34765 130.896037 
L 129.49005 124.243237 
L 136.63245 124.243237 
L 136.63245 124.243237 
L 136.63245 124.243237 
L 129.49005 117.590437 
L 122.34765 110.937637 
L 115.20525 104.284837 
L 108.06285 97.632037 
L 100.92045 90.979237 
L 100.92045 84.326437 
L 93.77805 84.326437 
L 86.63565 77.673637 
L 79.49325 71.020837 
L 72.35085 64.368037 
L 72.35085 64.368037 
L 65.20845 64.368037 
L 58.06605 64.368037 
L 50.92365 64.368037 
L 43.78125 57.715237 
L 50.92365 51.062437 
L 50.92365 51.062437 
L 58.06605 44.409637 
L 58.06605 44.409637 
L 54.49485 44.409637 
L 50.92365 47.736037 
L 47.35245 51.062437 
L 43.78125 54.388837 
L 43.78125 57.715237 
L 43.78125 64.368037 
L 43.78125 64.368037 
L 50.92365 71.020837 
L 50.92365 71.020837 
L 50.92365 71.020837 
L 58.06605 64.368037 
L 65.20845 71.020837 
L 65.20845 71.020837 
L 72.35085 71.020837 
L 79.49325 77.673637 
L 79.49325 84.326437 
L 79.49325 90.979237 
L 79.49325 97.632037 
L 72.35085 104.284837 
L 65.20845 104.284837 
L 58.06605 104.284837 
L 50.92365 104.284837 
L 43.78125 104.284837 
L 43.78125 104.284837 
L 43.78125 110.937637 
L 43.78125 110.937637 
L 50.92365 110.937637 
L 58.06605 110.937637 
L 65.20845 110.937637 
L 72.35085 110.937637 
L 79.49325 117.590437 
L 79.49325 124.243237 
L 72.35085 130.896037 
L 65.20845 130.896037 
L 58.06605 130.896037 
L 50.92365 130.896037 
L 43.78125 130.896037 
L 43.78125 130.896037 
L 43.78125 137.548837 
L 43.78125 137.548837 
z
M 79.49325 110.937637 
L 79.49325 104.284837 
L 86.63565 100.958437 
L 93.77805 100.958437 
L 100.92045 100.958437 
L 108.06285 104.284837 
L 100.92045 110.937637 
L 100.92045 110.937637 
L 93.77805 114.264037 
L 86.63565 114.264037 
z
" clip-path="url(#p6b4349d60a)" style="fill: #53268f"/>
    <path d="M 215.19885 271.814437 
L 222.34125 271.814437 
L 229.48365 271.814437 
L 236.62605 271.814437 
L 243.76845 271.814437 
L 250.91085 271.713637 
L 258.05325 271.713637 
L 265.19565 271.713637 
L 272.33805 271.713637 
L 279.48045 271.713637 
L 286.62285 271.713637 
L 293.76525 271.713637 
L 300.90765 271.713637 
L 300.90765 270.604837 
L 293.76525 270.604837 
L 286.62285 263.952037 
L 286.62285 263.952037 
L 279.48045 260.625637 
L 272.33805 263.952037 
L 265.19565 257.299237 
L 272.33805 250.646437 
L 272.33805 250.646437 
L 272.33805 250.646437 
L 265.19565 243.993637 
L 258.05325 237.340837 
L 258.05325 230.688037 
L 250.91085 230.688037 
L 243.76845 224.035237 
L 243.76845 224.035237 
L 243.76845 224.035237 
L 243.76845 230.688037 
L 236.62605 234.014437 
L 229.48365 237.340837 
L 222.34125 230.688037 
L 229.48365 224.035237 
L 229.48365 224.035237 
L 229.48365 224.035237 
L 222.34125 217.382437 
L 229.48365 210.729637 
L 229.48365 210.729637 
L 229.48365 210.729637 
L 222.34125 204.076837 
L 215.19885 197.424037 
L 208.05645 190.771237 
L 208.05645 190.771237 
L 208.05645 190.771237 
L 200.91405 197.424037 
L 193.77165 197.424037 
L 186.62925 190.771237 
L 186.62925 184.118437 
L 193.77165 177.465637 
L 200.91405 177.465637 
L 200.91405 177.465637 
L 193.77165 177.465637 
L 186.62925 170.812837 
L 186.62925 164.160037 
L 179.48685 164.160037 
L 172.34445 157.507237 
L 172.34445 150.854437 
L 165.20205 150.854437 
L 165.20205 150.854437 
L 158.05965 150.854437 
L 158.05965 150.854437 
L 150.91725 157.507237 
L 143.77485 157.507237 
L 136.63245 150.854437 
L 136.63245 144.201637 
L 143.77485 140.875237 
L 150.91725 140.875237 
L 158.05965 137.548837 
L 158.05965 137.548837 
L 150.91725 137.548837 
L 143.77485 130.896037 
L 136.63245 124.243237 
L 136.63245 124.243237 
L 129.49005 124.243237 
L 122.34765 130.896037 
L 122.34765 130.896037 
L 115.20525 137.548837 
L 115.20525 137.548837 
L 108.06285 137.548837 
L 100.92045 137.548837 
L 97.34925 137.548837 
L 100.92045 134.222437 
L 108.06285 130.896037 
L 100.92045 127.569637 
L 93.77805 127.569637 
L 86.63565 127.569637 
L 79.49325 130.896037 
L 79.49325 137.548837 
L 79.49325 137.548837 
L 72.35085 137.548837 
L 65.20845 137.548837 
L 58.06605 137.548837 
L 50.92365 137.548837 
L 43.78125 137.548837 
L 43.78125 144.201637 
L 43.78125 150.854437 
L 43.78125 150.854437 
L 43.78125 150.854437 
L 43.78125 157.507237 
L 43.78125 164.160037 
L 43.78125 170.812837 
L 43.78125 177.465637 
L 43.78125 184.118437 
L 43.78125 190.771237 
L 43.78125 197.424037 
L 43.78125 204.076837 
L 43.78125 210.729637 
L 43.78125 217.382437 
L 43.78125 224.035237 
L 43.78125 230.688037 
L 43.78125 232.018597 
L 50.92365 232.018597 
L 58.06605 232.018597 
L 65.20845 232.018597 
L 72.35085 232.018597 
L 79.49325 232.018597 
L 86.63565 232.018597 
L 92.34957 237.340837 
L 93.77805 238.671397 
L 99.49197 243.993637 
L 100.92045 245.324197 
L 108.06285 245.324197 
L 115.20525 245.324197 
L 122.34765 245.324197 
L 129.49005 245.324197 
L 136.63245 245.203237 
L 143.77485 245.203237 
L 149.618632 250.646437 
L 150.91725 251.856037 
L 156.761032 257.299237 
L 158.05965 258.508837 
L 165.20205 258.508837 
L 172.34445 258.508837 
L 179.48685 258.508837 
L 186.62925 258.508837 
L 193.77165 258.508837 
L 200.91405 258.508837 
L 206.757832 263.952037 
L 208.05645 265.161637 
L 213.900232 270.604837 
z
M 204.48525 257.299237 
L 200.91405 250.646437 
L 208.05645 247.320037 
L 215.19885 250.646437 
L 215.19885 257.299237 
L 208.05645 260.625637 
z
M 229.48365 257.299237 
L 229.48365 250.646437 
L 236.62605 247.320037 
L 243.76845 250.646437 
L 243.76845 257.299237 
L 236.62605 260.625637 
z
M 204.48525 230.688037 
L 200.91405 224.035237 
L 200.91405 224.035237 
L 193.77165 217.382437 
L 200.91405 210.729637 
L 200.91405 210.729637 
L 200.91405 204.076837 
L 200.91405 197.424037 
L 208.05645 190.771237 
L 215.19885 197.424037 
L 215.19885 204.076837 
L 215.19885 210.729637 
L 215.19885 217.382437 
L 215.19885 224.035237 
L 215.19885 230.688037 
L 208.05645 234.014437 
z
M 136.63245 190.771237 
L 136.63245 184.118437 
L 143.77485 177.465637 
L 150.91725 177.465637 
L 158.05965 177.465637 
L 165.20205 184.118437 
L 165.20205 190.771237 
L 158.05965 197.424037 
L 150.91725 197.424037 
L 143.77485 197.424037 
z
M 50.92365 130.896037 
L 58.06605 130.896037 
L 65.20845 130.896037 
L 72.35085 130.896037 
L 79.49325 124.243237 
L 79.49325 117.590437 
L 72.35085 110.937637 
L 65.20845 110.937637 
L 58.06605 110.937637 
L 50.92365 110.937637 
L 43.78125 110.937637 
L 43.78125 117.590437 
L 43.78125 124.243237 
L 43.78125 130.896037 
z
M 86.63565 114.264037 
L 93.77805 114.264037 
L 100.92045 110.937637 
L 100.92045 110.937637 
L 108.06285 104.284837 
L 100.92045 100.958437 
L 93.77805 100.958437 
L 86.63565 100.958437 
L 79.49325 104.284837 
L 79.49325 110.937637 
z
M 50.92365 104.284837 
L 58.06605 104.284837 
L 65.20845 104.284837 
L 72.35085 104.284837 
L 79.49325 97.632037 
L 79.49325 90.979237 
L 79.49325 84.326437 
L 79.49325 77.673637 
L 72.35085 71.020837 
L 65.20845 71.020837 
L 65.20845 71.020837 
L 58.06605 64.368037 
L 50.92365 71.020837 
L 50.92365 71.020837 
L 50.92365 71.020837 
L 43.78125 64.368037 
L 43.78125 71.020837 
L 43.78125 77.673637 
L 43.78125 84.326437 
L 43.78125 90.979237 
L 43.78125 97.632037 
L 43.78125 104.284837 
z
M 50.92365 64.368037 
L 58.06605 64.368037 
L 65.20845 64.368037 
L 72.35085 64.368037 
L 65.20845 57.715237 
L 58.06605 51.062437 
L 58.06605 44.409637 
L 50.92365 51.062437 
L 50.92365 51.062437 
L 43.78125 57.715237 
z
" clip-path="url(#p6b4349d60a)" style="fill: #460c83"/>
   </g>
   <g id="matplotlib.axis_1">
    <g id="xtick_1">
     <g id="line2d_1">
      <defs>
       <path id="m6dc933a338" d="M 0 0 
L 0 3.5 
" style="stroke: #000000; stroke-width: 0.8"/>
      </defs>
      <g>
       <use xlink:href="#m6dc933a338" x="43.78125" y="283.910437" style="stroke: #000000; stroke-width: 0.8"/>
      </g>
     </g>
     <g id="text_1">
      <!-- 0.0 -->
      <g transform="translate(35.829688 298.508875) scale(0.1 -0.1)">
       <defs>
        <path id="DejaVuSans-30" d="M 2034 4250 
Q 1547 4250 1301 3770 
Q 1056 3291 1056 2328 
Q 1056 1369 1301 889 
Q 1547 409 2034 409 
Q 2525 409 2770 889 
Q 3016 1369 3016 2328 
Q 3016 3291 2770 3770 
Q 2525 4250 2034 4250 
z
M 2034 4750 
Q 2819 4750 3233 4129 
Q 3647 3509 3647 2328 
Q 3647 1150 3233 529 
Q 2819 -91 2034 -91 
Q 1250 -91 836 529 
Q 422 1150 422 2328 
Q 422 3509 836 4129 
Q 1250 4750 2034 4750 
z
" transform="scale(0.015625)"/>
        <path id="DejaVuSans-2e" d="M 684 794 
L 1344 794 
L 1344 0 
L 684 0 
L 684 794 
z
" transform="scale(0.015625)"/>
       </defs>
       <use xlink:href="#DejaVuSans-30"/>
       <use xlink:href="#DejaVuSans-2e" x="63.623047"/>
       <use xlink:href="#DejaVuSans-30" x="95.410156"/>
      </g>
     </g>
    </g>
    <g id="xtick_2">
     <g id="line2d_2">
      <g>
       <use xlink:href="#m6dc933a338" x="100.92045" y="283.910437" style="stroke: #000000; stroke-width: 0.8"/>
      </g>
     </g>
     <g id="text_2">
      <!-- 0.2 -->
      <g transform="translate(92.968888 298.508875) scale(0.1 -0.1)">
       <defs>
        <path id="DejaVuSans-32" d="M 1228 531 
L 3431 531 
L 3431 0 
L 469 0 
L 469 531 
Q 828 903 1448 1529 
Q 2069 2156 2228 2338 
Q 2531 2678 2651 2914 
Q 2772 3150 2772 3378 
Q 2772 3750 2511 3984 
Q 2250 4219 1831 4219 
Q 1534 4219 1204 4116 
Q 875 4013 500 3803 
L 500 4441 
Q 881 4594 1212 4672 
Q 1544 4750 1819 4750 
Q 2544 4750 2975 4387 
Q 3406 4025 3406 3419 
Q 3406 3131 3298 2873 
Q 3191 2616 2906 2266 
Q 2828 2175 2409 1742 
Q 1991 1309 1228 531 
z
" transform="scale(0.015625)"/>
       </defs>
       <use xlink:href="#DejaVuSans-30"/>
       <use xlink:href="#DejaVuSans-2e" x="63.623047"/>
       <use xlink:href="#DejaVuSans-32" x="95.410156"/>
      </g>
     </g>
    </g>
    <g id="xtick_3">
     <g id="line2d_3">
      <g>
       <use xlink:href="#m6dc933a338" x="158.05965" y="283.910437" style="stroke: #000000; stroke-width: 0.8"/>
      </g>
     </g>
     <g id="text_3">
      <!-- 0.4 -->
      <g transform="translate(150.108088 298.508875) scale(0.1 -0.1)">
       <defs>
        <path id="DejaVuSans-34" d="M 2419 4116 
L 825 1625 
L 2419 1625 
L 2419 4116 
z
M 2253 4666 
L 3047 4666 
L 3047 1625 
L 3713 1625 
L 3713 1100 
L 3047 1100 
L 3047 0 
L 2419 0 
L 2419 1100 
L 313 1100 
L 313 1709 
L 2253 4666 
z
" transform="scale(0.015625)"/>
       </defs>
       <use xlink:href="#DejaVuSans-30"/>
       <use xlink:href="#DejaVuSans-2e" x="63.623047"/>
       <use xlink:href="#DejaVuSans-34" x="95.410156"/>
      </g>
     </g>
    </g>
    <g id="xtick_4">
     <g id="line2d_4">
      <g>
       <use xlink:href="#m6dc933a338" x="215.19885" y="283.910437" style="stroke: #000000; stroke-width: 0.8"/>
      </g>
     </g>
     <g id="text_4">
      <!-- 0.6 -->
      <g transform="translate(207.247288 298.508875) scale(0.1 -0.1)">
       <defs>
        <path id="DejaVuSans-36" d="M 2113 2584 
Q 1688 2584 1439 2293 
Q 1191 2003 1191 1497 
Q 1191 994 1439 701 
Q 1688 409 2113 409 
Q 2538 409 2786 701 
Q 3034 994 3034 1497 
Q 3034 2003 2786 2293 
Q 2538 2584 2113 2584 
z
M 3366 4563 
L 3366 3988 
Q 3128 4100 2886 4159 
Q 2644 4219 2406 4219 
Q 1781 4219 1451 3797 
Q 1122 3375 1075 2522 
Q 1259 2794 1537 2939 
Q 1816 3084 2150 3084 
Q 2853 3084 3261 2657 
Q 3669 2231 3669 1497 
Q 3669 778 3244 343 
Q 2819 -91 2113 -91 
Q 1303 -91 875 529 
Q 447 1150 447 2328 
Q 447 3434 972 4092 
Q 1497 4750 2381 4750 
Q 2619 4750 2861 4703 
Q 3103 4656 3366 4563 
z
" transform="scale(0.015625)"/>
       </defs>
       <use xlink:href="#DejaVuSans-30"/>
       <use xlink:href="#DejaVuSans-2e" x="63.623047"/>
       <use xlink:href="#DejaVuSans-36" x="95.410156"/>
      </g>
     </g>
    </g>
    <g id="xtick_5">
     <g id="line2d_5">
      <g>
       <use xlink:href="#m6dc933a338" x="272.33805" y="283.910437" style="stroke: #000000; stroke-width: 0.8"/>
      </g>
     </g>
     <g id="text_5">
      <!-- 0.8 -->
      <g transform="translate(264.386488 298.508875) scale(0.1 -0.1)">
       <defs>
        <path id="DejaVuSans-38" d="M 2034 2216 
Q 1584 2216 1326 1975 
Q 1069 1734 1069 1313 
Q 1069 891 1326 650 
Q 1584 409 2034 409 
Q 2484 409 2743 651 
Q 3003 894 3003 1313 
Q 3003 1734 2745 1975 
Q 2488 2216 2034 2216 
z
M 1403 2484 
Q 997 2584 770 2862 
Q 544 3141 544 3541 
Q 544 4100 942 4425 
Q 1341 4750 2034 4750 
Q 2731 4750 3128 4425 
Q 3525 4100 3525 3541 
Q 3525 3141 3298 2862 
Q 3072 2584 2669 2484 
Q 3125 2378 3379 2068 
Q 3634 1759 3634 1313 
Q 3634 634 3220 271 
Q 2806 -91 2034 -91 
Q 1263 -91 848 271 
Q 434 634 434 1313 
Q 434 1759 690 2068 
Q 947 2378 1403 2484 
z
M 1172 3481 
Q 1172 3119 1398 2916 
Q 1625 2713 2034 2713 
Q 2441 2713 2670 2916 
Q 2900 3119 2900 3481 
Q 2900 3844 2670 4047 
Q 2441 4250 2034 4250 
Q 1625 4250 1398 4047 
Q 1172 3844 1172 3481 
z
" transform="scale(0.015625)"/>
       </defs>
       <use xlink:href="#DejaVuSans-30"/>
       <use xlink:href="#DejaVuSans-2e" x="63.623047"/>
       <use xlink:href="#DejaVuSans-38" x="95.410156"/>
      </g>
     </g>
    </g>
    <g id="xtick_6">
     <g id="line2d_6">
      <g>
       <use xlink:href="#m6dc933a338" x="329.47725" y="283.910437" style="stroke: #000000; stroke-width: 0.8"/>
      </g>
     </g>
     <g id="text_6">
      <!-- 1.0 -->
      <g transform="translate(321.525688 298.508875) scale(0.1 -0.1)">
       <defs>
        <path id="DejaVuSans-31" d="M 794 531 
L 1825 531 
L 1825 4091 
L 703 3866 
L 703 4441 
L 1819 4666 
L 2450 4666 
L 2450 531 
L 3481 531 
L 3481 0 
L 794 0 
L 794 531 
z
" transform="scale(0.015625)"/>
       </defs>
       <use xlink:href="#DejaVuSans-31"/>
       <use xlink:href="#DejaVuSans-2e" x="63.623047"/>
       <use xlink:href="#DejaVuSans-30" x="95.410156"/>
      </g>
     </g>
    </g>
    <g id="text_7">
     <!-- Equity in Vaccination Burden Multiplier (a) -->
     <g transform="translate(81.262844 312.187) scale(0.1 -0.1)">
      <defs>
       <path id="DejaVuSans-45" d="M 628 4666 
L 3578 4666 
L 3578 4134 
L 1259 4134 
L 1259 2753 
L 3481 2753 
L 3481 2222 
L 1259 2222 
L 1259 531 
L 3634 531 
L 3634 0 
L 628 0 
L 628 4666 
z
" transform="scale(0.015625)"/>
       <path id="DejaVuSans-71" d="M 947 1747 
Q 947 1113 1208 752 
Q 1469 391 1925 391 
Q 2381 391 2643 752 
Q 2906 1113 2906 1747 
Q 2906 2381 2643 2742 
Q 2381 3103 1925 3103 
Q 1469 3103 1208 2742 
Q 947 2381 947 1747 
z
M 2906 525 
Q 2725 213 2448 61 
Q 2172 -91 1784 -91 
Q 1150 -91 751 415 
Q 353 922 353 1747 
Q 353 2572 751 3078 
Q 1150 3584 1784 3584 
Q 2172 3584 2448 3432 
Q 2725 3281 2906 2969 
L 2906 3500 
L 3481 3500 
L 3481 -1331 
L 2906 -1331 
L 2906 525 
z
" transform="scale(0.015625)"/>
       <path id="DejaVuSans-75" d="M 544 1381 
L 544 3500 
L 1119 3500 
L 1119 1403 
Q 1119 906 1312 657 
Q 1506 409 1894 409 
Q 2359 409 2629 706 
Q 2900 1003 2900 1516 
L 2900 3500 
L 3475 3500 
L 3475 0 
L 2900 0 
L 2900 538 
Q 2691 219 2414 64 
Q 2138 -91 1772 -91 
Q 1169 -91 856 284 
Q 544 659 544 1381 
z
M 1991 3584 
L 1991 3584 
z
" transform="scale(0.015625)"/>
       <path id="DejaVuSans-69" d="M 603 3500 
L 1178 3500 
L 1178 0 
L 603 0 
L 603 3500 
z
M 603 4863 
L 1178 4863 
L 1178 4134 
L 603 4134 
L 603 4863 
z
" transform="scale(0.015625)"/>
       <path id="DejaVuSans-74" d="M 1172 4494 
L 1172 3500 
L 2356 3500 
L 2356 3053 
L 1172 3053 
L 1172 1153 
Q 1172 725 1289 603 
Q 1406 481 1766 481 
L 2356 481 
L 2356 0 
L 1766 0 
Q 1100 0 847 248 
Q 594 497 594 1153 
L 594 3053 
L 172 3053 
L 172 3500 
L 594 3500 
L 594 4494 
L 1172 4494 
z
" transform="scale(0.015625)"/>
       <path id="DejaVuSans-79" d="M 2059 -325 
Q 1816 -950 1584 -1140 
Q 1353 -1331 966 -1331 
L 506 -1331 
L 506 -850 
L 844 -850 
Q 1081 -850 1212 -737 
Q 1344 -625 1503 -206 
L 1606 56 
L 191 3500 
L 800 3500 
L 1894 763 
L 2988 3500 
L 3597 3500 
L 2059 -325 
z
" transform="scale(0.015625)"/>
       <path id="DejaVuSans-20" transform="scale(0.015625)"/>
       <path id="DejaVuSans-6e" d="M 3513 2113 
L 3513 0 
L 2938 0 
L 2938 2094 
Q 2938 2591 2744 2837 
Q 2550 3084 2163 3084 
Q 1697 3084 1428 2787 
Q 1159 2491 1159 1978 
L 1159 0 
L 581 0 
L 581 3500 
L 1159 3500 
L 1159 2956 
Q 1366 3272 1645 3428 
Q 1925 3584 2291 3584 
Q 2894 3584 3203 3211 
Q 3513 2838 3513 2113 
z
" transform="scale(0.015625)"/>
       <path id="DejaVuSans-56" d="M 1831 0 
L 50 4666 
L 709 4666 
L 2188 738 
L 3669 4666 
L 4325 4666 
L 2547 0 
L 1831 0 
z
" transform="scale(0.015625)"/>
       <path id="DejaVuSans-61" d="M 2194 1759 
Q 1497 1759 1228 1600 
Q 959 1441 959 1056 
Q 959 750 1161 570 
Q 1363 391 1709 391 
Q 2188 391 2477 730 
Q 2766 1069 2766 1631 
L 2766 1759 
L 2194 1759 
z
M 3341 1997 
L 3341 0 
L 2766 0 
L 2766 531 
Q 2569 213 2275 61 
Q 1981 -91 1556 -91 
Q 1019 -91 701 211 
Q 384 513 384 1019 
Q 384 1609 779 1909 
Q 1175 2209 1959 2209 
L 2766 2209 
L 2766 2266 
Q 2766 2663 2505 2880 
Q 2244 3097 1772 3097 
Q 1472 3097 1187 3025 
Q 903 2953 641 2809 
L 641 3341 
Q 956 3463 1253 3523 
Q 1550 3584 1831 3584 
Q 2591 3584 2966 3190 
Q 3341 2797 3341 1997 
z
" transform="scale(0.015625)"/>
       <path id="DejaVuSans-63" d="M 3122 3366 
L 3122 2828 
Q 2878 2963 2633 3030 
Q 2388 3097 2138 3097 
Q 1578 3097 1268 2742 
Q 959 2388 959 1747 
Q 959 1106 1268 751 
Q 1578 397 2138 397 
Q 2388 397 2633 464 
Q 2878 531 3122 666 
L 3122 134 
Q 2881 22 2623 -34 
Q 2366 -91 2075 -91 
Q 1284 -91 818 406 
Q 353 903 353 1747 
Q 353 2603 823 3093 
Q 1294 3584 2113 3584 
Q 2378 3584 2631 3529 
Q 2884 3475 3122 3366 
z
" transform="scale(0.015625)"/>
       <path id="DejaVuSans-6f" d="M 1959 3097 
Q 1497 3097 1228 2736 
Q 959 2375 959 1747 
Q 959 1119 1226 758 
Q 1494 397 1959 397 
Q 2419 397 2687 759 
Q 2956 1122 2956 1747 
Q 2956 2369 2687 2733 
Q 2419 3097 1959 3097 
z
M 1959 3584 
Q 2709 3584 3137 3096 
Q 3566 2609 3566 1747 
Q 3566 888 3137 398 
Q 2709 -91 1959 -91 
Q 1206 -91 779 398 
Q 353 888 353 1747 
Q 353 2609 779 3096 
Q 1206 3584 1959 3584 
z
" transform="scale(0.015625)"/>
       <path id="DejaVuSans-42" d="M 1259 2228 
L 1259 519 
L 2272 519 
Q 2781 519 3026 730 
Q 3272 941 3272 1375 
Q 3272 1813 3026 2020 
Q 2781 2228 2272 2228 
L 1259 2228 
z
M 1259 4147 
L 1259 2741 
L 2194 2741 
Q 2656 2741 2882 2914 
Q 3109 3088 3109 3444 
Q 3109 3797 2882 3972 
Q 2656 4147 2194 4147 
L 1259 4147 
z
M 628 4666 
L 2241 4666 
Q 2963 4666 3353 4366 
Q 3744 4066 3744 3513 
Q 3744 3084 3544 2831 
Q 3344 2578 2956 2516 
Q 3422 2416 3680 2098 
Q 3938 1781 3938 1306 
Q 3938 681 3513 340 
Q 3088 0 2303 0 
L 628 0 
L 628 4666 
z
" transform="scale(0.015625)"/>
       <path id="DejaVuSans-72" d="M 2631 2963 
Q 2534 3019 2420 3045 
Q 2306 3072 2169 3072 
Q 1681 3072 1420 2755 
Q 1159 2438 1159 1844 
L 1159 0 
L 581 0 
L 581 3500 
L 1159 3500 
L 1159 2956 
Q 1341 3275 1631 3429 
Q 1922 3584 2338 3584 
Q 2397 3584 2469 3576 
Q 2541 3569 2628 3553 
L 2631 2963 
z
" transform="scale(0.015625)"/>
       <path id="DejaVuSans-64" d="M 2906 2969 
L 2906 4863 
L 3481 4863 
L 3481 0 
L 2906 0 
L 2906 525 
Q 2725 213 2448 61 
Q 2172 -91 1784 -91 
Q 1150 -91 751 415 
Q 353 922 353 1747 
Q 353 2572 751 3078 
Q 1150 3584 1784 3584 
Q 2172 3584 2448 3432 
Q 2725 3281 2906 2969 
z
M 947 1747 
Q 947 1113 1208 752 
Q 1469 391 1925 391 
Q 2381 391 2643 752 
Q 2906 1113 2906 1747 
Q 2906 2381 2643 2742 
Q 2381 3103 1925 3103 
Q 1469 3103 1208 2742 
Q 947 2381 947 1747 
z
" transform="scale(0.015625)"/>
       <path id="DejaVuSans-65" d="M 3597 1894 
L 3597 1613 
L 953 1613 
Q 991 1019 1311 708 
Q 1631 397 2203 397 
Q 2534 397 2845 478 
Q 3156 559 3463 722 
L 3463 178 
Q 3153 47 2828 -22 
Q 2503 -91 2169 -91 
Q 1331 -91 842 396 
Q 353 884 353 1716 
Q 353 2575 817 3079 
Q 1281 3584 2069 3584 
Q 2775 3584 3186 3129 
Q 3597 2675 3597 1894 
z
M 3022 2063 
Q 3016 2534 2758 2815 
Q 2500 3097 2075 3097 
Q 1594 3097 1305 2825 
Q 1016 2553 972 2059 
L 3022 2063 
z
" transform="scale(0.015625)"/>
       <path id="DejaVuSans-4d" d="M 628 4666 
L 1569 4666 
L 2759 1491 
L 3956 4666 
L 4897 4666 
L 4897 0 
L 4281 0 
L 4281 4097 
L 3078 897 
L 2444 897 
L 1241 4097 
L 1241 0 
L 628 0 
L 628 4666 
z
" transform="scale(0.015625)"/>
       <path id="DejaVuSans-6c" d="M 603 4863 
L 1178 4863 
L 1178 0 
L 603 0 
L 603 4863 
z
" transform="scale(0.015625)"/>
       <path id="DejaVuSans-70" d="M 1159 525 
L 1159 -1331 
L 581 -1331 
L 581 3500 
L 1159 3500 
L 1159 2969 
Q 1341 3281 1617 3432 
Q 1894 3584 2278 3584 
Q 2916 3584 3314 3078 
Q 3713 2572 3713 1747 
Q 3713 922 3314 415 
Q 2916 -91 2278 -91 
Q 1894 -91 1617 61 
Q 1341 213 1159 525 
z
M 3116 1747 
Q 3116 2381 2855 2742 
Q 2594 3103 2138 3103 
Q 1681 3103 1420 2742 
Q 1159 2381 1159 1747 
Q 1159 1113 1420 752 
Q 1681 391 2138 391 
Q 2594 391 2855 752 
Q 3116 1113 3116 1747 
z
" transform="scale(0.015625)"/>
       <path id="DejaVuSans-28" d="M 1984 4856 
Q 1566 4138 1362 3434 
Q 1159 2731 1159 2009 
Q 1159 1288 1364 580 
Q 1569 -128 1984 -844 
L 1484 -844 
Q 1016 -109 783 600 
Q 550 1309 550 2009 
Q 550 2706 781 3412 
Q 1013 4119 1484 4856 
L 1984 4856 
z
" transform="scale(0.015625)"/>
       <path id="DejaVuSans-29" d="M 513 4856 
L 1013 4856 
Q 1481 4119 1714 3412 
Q 1947 2706 1947 2009 
Q 1947 1309 1714 600 
Q 1481 -109 1013 -844 
L 513 -844 
Q 928 -128 1133 580 
Q 1338 1288 1338 2009 
Q 1338 2731 1133 3434 
Q 928 4138 513 4856 
z
" transform="scale(0.015625)"/>
      </defs>
      <use xlink:href="#DejaVuSans-45"/>
      <use xlink:href="#DejaVuSans-71" x="63.183594"/>
      <use xlink:href="#DejaVuSans-75" x="126.660156"/>
      <use xlink:href="#DejaVuSans-69" x="190.039062"/>
      <use xlink:href="#DejaVuSans-74" x="217.822266"/>
      <use xlink:href="#DejaVuSans-79" x="257.03125"/>
      <use xlink:href="#DejaVuSans-20" x="316.210938"/>
      <use xlink:href="#DejaVuSans-69" x="347.998047"/>
      <use xlink:href="#DejaVuSans-6e" x="375.78125"/>
      <use xlink:href="#DejaVuSans-20" x="439.160156"/>
      <use xlink:href="#DejaVuSans-56" x="470.947266"/>
      <use xlink:href="#DejaVuSans-61" x="531.605469"/>
      <use xlink:href="#DejaVuSans-63" x="592.884766"/>
      <use xlink:href="#DejaVuSans-63" x="647.865234"/>
      <use xlink:href="#DejaVuSans-69" x="702.845703"/>
      <use xlink:href="#DejaVuSans-6e" x="730.628906"/>
      <use xlink:href="#DejaVuSans-61" x="794.007812"/>
      <use xlink:href="#DejaVuSans-74" x="855.287109"/>
      <use xlink:href="#DejaVuSans-69" x="894.496094"/>
      <use xlink:href="#DejaVuSans-6f" x="922.279297"/>
      <use xlink:href="#DejaVuSans-6e" x="983.460938"/>
      <use xlink:href="#DejaVuSans-20" x="1046.839844"/>
      <use xlink:href="#DejaVuSans-42" x="1078.626953"/>
      <use xlink:href="#DejaVuSans-75" x="1147.230469"/>
      <use xlink:href="#DejaVuSans-72" x="1210.609375"/>
      <use xlink:href="#DejaVuSans-64" x="1249.972656"/>
      <use xlink:href="#DejaVuSans-65" x="1313.449219"/>
      <use xlink:href="#DejaVuSans-6e" x="1374.972656"/>
      <use xlink:href="#DejaVuSans-20" x="1438.351562"/>
      <use xlink:href="#DejaVuSans-4d" x="1470.138672"/>
      <use xlink:href="#DejaVuSans-75" x="1556.417969"/>
      <use xlink:href="#DejaVuSans-6c" x="1619.796875"/>
      <use xlink:href="#DejaVuSans-74" x="1647.580078"/>
      <use xlink:href="#DejaVuSans-69" x="1686.789062"/>
      <use xlink:href="#DejaVuSans-70" x="1714.572266"/>
      <use xlink:href="#DejaVuSans-6c" x="1778.048828"/>
      <use xlink:href="#DejaVuSans-69" x="1805.832031"/>
      <use xlink:href="#DejaVuSans-65" x="1833.615234"/>
      <use xlink:href="#DejaVuSans-72" x="1895.138672"/>
      <use xlink:href="#DejaVuSans-20" x="1936.251953"/>
      <use xlink:href="#DejaVuSans-28" x="1968.039062"/>
      <use xlink:href="#DejaVuSans-61" x="2007.052734"/>
      <use xlink:href="#DejaVuSans-29" x="2068.332031"/>
     </g>
    </g>
   </g>
   <g id="matplotlib.axis_2">
    <g id="ytick_1">
     <g id="line2d_7">
      <defs>
       <path id="me6f4ac1544" d="M 0 0 
L -3.5 0 
" style="stroke: #000000; stroke-width: 0.8"/>
      </defs>
      <g>
       <use xlink:href="#me6f4ac1544" x="43.78125" y="283.910437" style="stroke: #000000; stroke-width: 0.8"/>
      </g>
     </g>
     <g id="text_8">
      <!-- 0.0 -->
      <g transform="translate(20.878125 287.709656) scale(0.1 -0.1)">
       <use xlink:href="#DejaVuSans-30"/>
       <use xlink:href="#DejaVuSans-2e" x="63.623047"/>
       <use xlink:href="#DejaVuSans-30" x="95.410156"/>
      </g>
     </g>
    </g>
    <g id="ytick_2">
     <g id="line2d_8">
      <g>
       <use xlink:href="#me6f4ac1544" x="43.78125" y="230.688037" style="stroke: #000000; stroke-width: 0.8"/>
      </g>
     </g>
     <g id="text_9">
      <!-- 0.2 -->
      <g transform="translate(20.878125 234.487256) scale(0.1 -0.1)">
       <use xlink:href="#DejaVuSans-30"/>
       <use xlink:href="#DejaVuSans-2e" x="63.623047"/>
       <use xlink:href="#DejaVuSans-32" x="95.410156"/>
      </g>
     </g>
    </g>
    <g id="ytick_3">
     <g id="line2d_9">
      <g>
       <use xlink:href="#me6f4ac1544" x="43.78125" y="177.465637" style="stroke: #000000; stroke-width: 0.8"/>
      </g>
     </g>
     <g id="text_10">
      <!-- 0.4 -->
      <g transform="translate(20.878125 181.264856) scale(0.1 -0.1)">
       <use xlink:href="#DejaVuSans-30"/>
       <use xlink:href="#DejaVuSans-2e" x="63.623047"/>
       <use xlink:href="#DejaVuSans-34" x="95.410156"/>
      </g>
     </g>
    </g>
    <g id="ytick_4">
     <g id="line2d_10">
      <g>
       <use xlink:href="#me6f4ac1544" x="43.78125" y="124.243237" style="stroke: #000000; stroke-width: 0.8"/>
      </g>
     </g>
     <g id="text_11">
      <!-- 0.6 -->
      <g transform="translate(20.878125 128.042456) scale(0.1 -0.1)">
       <use xlink:href="#DejaVuSans-30"/>
       <use xlink:href="#DejaVuSans-2e" x="63.623047"/>
       <use xlink:href="#DejaVuSans-36" x="95.410156"/>
      </g>
     </g>
    </g>
    <g id="ytick_5">
     <g id="line2d_11">
      <g>
       <use xlink:href="#me6f4ac1544" x="43.78125" y="71.020837" style="stroke: #000000; stroke-width: 0.8"/>
      </g>
     </g>
     <g id="text_12">
      <!-- 0.8 -->
      <g transform="translate(20.878125 74.820056) scale(0.1 -0.1)">
       <use xlink:href="#DejaVuSans-30"/>
       <use xlink:href="#DejaVuSans-2e" x="63.623047"/>
       <use xlink:href="#DejaVuSans-38" x="95.410156"/>
      </g>
     </g>
    </g>
    <g id="ytick_6">
     <g id="line2d_12">
      <g>
       <use xlink:href="#me6f4ac1544" x="43.78125" y="17.798437" style="stroke: #000000; stroke-width: 0.8"/>
      </g>
     </g>
     <g id="text_13">
      <!-- 1.0 -->
      <g transform="translate(20.878125 21.597656) scale(0.1 -0.1)">
       <use xlink:href="#DejaVuSans-31"/>
       <use xlink:href="#DejaVuSans-2e" x="63.623047"/>
       <use xlink:href="#DejaVuSans-30" x="95.410156"/>
      </g>
     </g>
    </g>
    <g id="text_14">
     <!-- Equity in Infection Burden Multiplier (b) -->
     <g transform="translate(14.798438 249.3435) rotate(-90) scale(0.1 -0.1)">
      <defs>
       <path id="DejaVuSans-49" d="M 628 4666 
L 1259 4666 
L 1259 0 
L 628 0 
L 628 4666 
z
" transform="scale(0.015625)"/>
       <path id="DejaVuSans-66" d="M 2375 4863 
L 2375 4384 
L 1825 4384 
Q 1516 4384 1395 4259 
Q 1275 4134 1275 3809 
L 1275 3500 
L 2222 3500 
L 2222 3053 
L 1275 3053 
L 1275 0 
L 697 0 
L 697 3053 
L 147 3053 
L 147 3500 
L 697 3500 
L 697 3744 
Q 697 4328 969 4595 
Q 1241 4863 1831 4863 
L 2375 4863 
z
" transform="scale(0.015625)"/>
       <path id="DejaVuSans-62" d="M 3116 1747 
Q 3116 2381 2855 2742 
Q 2594 3103 2138 3103 
Q 1681 3103 1420 2742 
Q 1159 2381 1159 1747 
Q 1159 1113 1420 752 
Q 1681 391 2138 391 
Q 2594 391 2855 752 
Q 3116 1113 3116 1747 
z
M 1159 2969 
Q 1341 3281 1617 3432 
Q 1894 3584 2278 3584 
Q 2916 3584 3314 3078 
Q 3713 2572 3713 1747 
Q 3713 922 3314 415 
Q 2916 -91 2278 -91 
Q 1894 -91 1617 61 
Q 1341 213 1159 525 
L 1159 0 
L 581 0 
L 581 4863 
L 1159 4863 
L 1159 2969 
z
" transform="scale(0.015625)"/>
      </defs>
      <use xlink:href="#DejaVuSans-45"/>
      <use xlink:href="#DejaVuSans-71" x="63.183594"/>
      <use xlink:href="#DejaVuSans-75" x="126.660156"/>
      <use xlink:href="#DejaVuSans-69" x="190.039062"/>
      <use xlink:href="#DejaVuSans-74" x="217.822266"/>
      <use xlink:href="#DejaVuSans-79" x="257.03125"/>
      <use xlink:href="#DejaVuSans-20" x="316.210938"/>
      <use xlink:href="#DejaVuSans-69" x="347.998047"/>
      <use xlink:href="#DejaVuSans-6e" x="375.78125"/>
      <use xlink:href="#DejaVuSans-20" x="439.160156"/>
      <use xlink:href="#DejaVuSans-49" x="470.947266"/>
      <use xlink:href="#DejaVuSans-6e" x="500.439453"/>
      <use xlink:href="#DejaVuSans-66" x="563.818359"/>
      <use xlink:href="#DejaVuSans-65" x="599.023438"/>
      <use xlink:href="#DejaVuSans-63" x="660.546875"/>
      <use xlink:href="#DejaVuSans-74" x="715.527344"/>
      <use xlink:href="#DejaVuSans-69" x="754.736328"/>
      <use xlink:href="#DejaVuSans-6f" x="782.519531"/>
      <use xlink:href="#DejaVuSans-6e" x="843.701172"/>
      <use xlink:href="#DejaVuSans-20" x="907.080078"/>
      <use xlink:href="#DejaVuSans-42" x="938.867188"/>
      <use xlink:href="#DejaVuSans-75" x="1007.470703"/>
      <use xlink:href="#DejaVuSans-72" x="1070.849609"/>
      <use xlink:href="#DejaVuSans-64" x="1110.212891"/>
      <use xlink:href="#DejaVuSans-65" x="1173.689453"/>
      <use xlink:href="#DejaVuSans-6e" x="1235.212891"/>
      <use xlink:href="#DejaVuSans-20" x="1298.591797"/>
      <use xlink:href="#DejaVuSans-4d" x="1330.378906"/>
      <use xlink:href="#DejaVuSans-75" x="1416.658203"/>
      <use xlink:href="#DejaVuSans-6c" x="1480.037109"/>
      <use xlink:href="#DejaVuSans-74" x="1507.820312"/>
      <use xlink:href="#DejaVuSans-69" x="1547.029297"/>
      <use xlink:href="#DejaVuSans-70" x="1574.8125"/>
      <use xlink:href="#DejaVuSans-6c" x="1638.289062"/>
      <use xlink:href="#DejaVuSans-69" x="1666.072266"/>
      <use xlink:href="#DejaVuSans-65" x="1693.855469"/>
      <use xlink:href="#DejaVuSans-72" x="1755.378906"/>
      <use xlink:href="#DejaVuSans-20" x="1796.492188"/>
      <use xlink:href="#DejaVuSans-28" x="1828.279297"/>
      <use xlink:href="#DejaVuSans-62" x="1867.292969"/>
      <use xlink:href="#DejaVuSans-29" x="1930.769531"/>
     </g>
    </g>
   </g>
   <g id="patch_3">
    <path d="M 43.78125 283.910437 
L 43.78125 17.798437 
" style="fill: none; stroke: #000000; stroke-width: 0.8; stroke-linejoin: miter; stroke-linecap: square"/>
   </g>
   <g id="patch_4">
    <path d="M 329.47725 283.910437 
L 329.47725 17.798437 
" style="fill: none; stroke: #000000; stroke-width: 0.8; stroke-linejoin: miter; stroke-linecap: square"/>
   </g>
   <g id="patch_5">
    <path d="M 43.78125 283.910437 
L 329.47725 283.910437 
" style="fill: none; stroke: #000000; stroke-width: 0.8; stroke-linejoin: miter; stroke-linecap: square"/>
   </g>
   <g id="patch_6">
    <path d="M 43.78125 17.798437 
L 329.47725 17.798437 
" style="fill: none; stroke: #000000; stroke-width: 0.8; stroke-linejoin: miter; stroke-linecap: square"/>
   </g>
  </g>
  <g id="axes_2">
   <g id="patch_7">
    <path d="M 347.33325 283.910437 
L 360.63885 283.910437 
L 360.63885 17.798437 
L 347.33325 17.798437 
z
" style="fill: #ffffff"/>
   </g>
   <g id="QuadMesh_1">
    <path d="M 347.33325 283.910437 
L 360.63885 283.910437 
L 360.63885 261.734437 
L 347.33325 261.734437 
L 347.33325 283.910437 
" clip-path="url(#pf81d9da621)" style="fill: #f8f7fa"/>
    <path d="M 347.33325 261.734437 
L 360.63885 261.734437 
L 360.63885 239.558437 
L 347.33325 239.558437 
L 347.33325 261.734437 
" clip-path="url(#pf81d9da621)" style="fill: #efedf5"/>
    <path d="M 347.33325 239.558437 
L 360.63885 239.558437 
L 360.63885 217.382437 
L 347.33325 217.382437 
L 347.33325 239.558437 
" clip-path="url(#pf81d9da621)" style="fill: #e1e0ee"/>
    <path d="M 347.33325 217.382437 
L 360.63885 217.382437 
L 360.63885 195.206437 
L 347.33325 195.206437 
L 347.33325 217.382437 
" clip-path="url(#pf81d9da621)" style="fill: #d0d1e6"/>
    <path d="M 347.33325 195.206437 
L 360.63885 195.206437 
L 360.63885 173.030437 
L 347.33325 173.030437 
L 347.33325 195.206437 
" clip-path="url(#pf81d9da621)" style="fill: #bcbddc"/>
    <path d="M 347.33325 173.030437 
L 360.63885 173.030437 
L 360.63885 150.854437 
L 347.33325 150.854437 
L 347.33325 173.030437 
" clip-path="url(#pf81d9da621)" style="fill: #a8a6cf"/>
    <path d="M 347.33325 150.854437 
L 360.63885 150.854437 
L 360.63885 128.678437 
L 347.33325 128.678437 
L 347.33325 150.854437 
" clip-path="url(#pf81d9da621)" style="fill: #9490c3"/>
    <path d="M 347.33325 128.678437 
L 360.63885 128.678437 
L 360.63885 106.502437 
L 347.33325 106.502437 
L 347.33325 128.678437 
" clip-path="url(#pf81d9da621)" style="fill: #807cba"/>
    <path d="M 347.33325 106.502437 
L 360.63885 106.502437 
L 360.63885 84.326437 
L 347.33325 84.326437 
L 347.33325 106.502437 
" clip-path="url(#pf81d9da621)" style="fill: #715faa"/>
    <path d="M 347.33325 84.326437 
L 360.63885 84.326437 
L 360.63885 62.150437 
L 347.33325 62.150437 
L 347.33325 84.326437 
" clip-path="url(#pf81d9da621)" style="fill: #63439c"/>
    <path d="M 347.33325 62.150437 
L 360.63885 62.150437 
L 360.63885 39.974437 
L 347.33325 39.974437 
L 347.33325 62.150437 
" clip-path="url(#pf81d9da621)" style="fill: #53268f"/>
    <path d="M 347.33325 39.974437 
L 360.63885 39.974437 
L 360.63885 17.798437 
L 347.33325 17.798437 
L 347.33325 39.974437 
" clip-path="url(#pf81d9da621)" style="fill: #460c83"/>
   </g>
   <g id="matplotlib.axis_3"/>
   <g id="matplotlib.axis_4">
    <g id="ytick_7">
     <g id="line2d_13">
      <defs>
       <path id="m6e5fc4b062" d="M 0 0 
L 3.5 0 
" style="stroke: #000000; stroke-width: 0.8"/>
      </defs>
      <g>
       <use xlink:href="#m6e5fc4b062" x="360.63885" y="283.910437" style="stroke: #000000; stroke-width: 0.8"/>
      </g>
     </g>
     <g id="text_15">
      <!-- 0.4 -->
      <g transform="translate(367.63885 287.709656) scale(0.1 -0.1)">
       <use xlink:href="#DejaVuSans-30"/>
       <use xlink:href="#DejaVuSans-2e" x="63.623047"/>
       <use xlink:href="#DejaVuSans-34" x="95.410156"/>
      </g>
     </g>
    </g>
    <g id="ytick_8">
     <g id="line2d_14">
      <g>
       <use xlink:href="#m6e5fc4b062" x="360.63885" y="239.558437" style="stroke: #000000; stroke-width: 0.8"/>
      </g>
     </g>
     <g id="text_16">
      <!-- 0.5 -->
      <g transform="translate(367.63885 243.357656) scale(0.1 -0.1)">
       <defs>
        <path id="DejaVuSans-35" d="M 691 4666 
L 3169 4666 
L 3169 4134 
L 1269 4134 
L 1269 2991 
Q 1406 3038 1543 3061 
Q 1681 3084 1819 3084 
Q 2600 3084 3056 2656 
Q 3513 2228 3513 1497 
Q 3513 744 3044 326 
Q 2575 -91 1722 -91 
Q 1428 -91 1123 -41 
Q 819 9 494 109 
L 494 744 
Q 775 591 1075 516 
Q 1375 441 1709 441 
Q 2250 441 2565 725 
Q 2881 1009 2881 1497 
Q 2881 1984 2565 2268 
Q 2250 2553 1709 2553 
Q 1456 2553 1204 2497 
Q 953 2441 691 2322 
L 691 4666 
z
" transform="scale(0.015625)"/>
       </defs>
       <use xlink:href="#DejaVuSans-30"/>
       <use xlink:href="#DejaVuSans-2e" x="63.623047"/>
       <use xlink:href="#DejaVuSans-35" x="95.410156"/>
      </g>
     </g>
    </g>
    <g id="ytick_9">
     <g id="line2d_15">
      <g>
       <use xlink:href="#m6e5fc4b062" x="360.63885" y="195.206437" style="stroke: #000000; stroke-width: 0.8"/>
      </g>
     </g>
     <g id="text_17">
      <!-- 0.6 -->
      <g transform="translate(367.63885 199.005656) scale(0.1 -0.1)">
       <use xlink:href="#DejaVuSans-30"/>
       <use xlink:href="#DejaVuSans-2e" x="63.623047"/>
       <use xlink:href="#DejaVuSans-36" x="95.410156"/>
      </g>
     </g>
    </g>
    <g id="ytick_10">
     <g id="line2d_16">
      <g>
       <use xlink:href="#m6e5fc4b062" x="360.63885" y="150.854437" style="stroke: #000000; stroke-width: 0.8"/>
      </g>
     </g>
     <g id="text_18">
      <!-- 0.7 -->
      <g transform="translate(367.63885 154.653656) scale(0.1 -0.1)">
       <defs>
        <path id="DejaVuSans-37" d="M 525 4666 
L 3525 4666 
L 3525 4397 
L 1831 0 
L 1172 0 
L 2766 4134 
L 525 4134 
L 525 4666 
z
" transform="scale(0.015625)"/>
       </defs>
       <use xlink:href="#DejaVuSans-30"/>
       <use xlink:href="#DejaVuSans-2e" x="63.623047"/>
       <use xlink:href="#DejaVuSans-37" x="95.410156"/>
      </g>
     </g>
    </g>
    <g id="ytick_11">
     <g id="line2d_17">
      <g>
       <use xlink:href="#m6e5fc4b062" x="360.63885" y="106.502437" style="stroke: #000000; stroke-width: 0.8"/>
      </g>
     </g>
     <g id="text_19">
      <!-- 0.8 -->
      <g transform="translate(367.63885 110.301656) scale(0.1 -0.1)">
       <use xlink:href="#DejaVuSans-30"/>
       <use xlink:href="#DejaVuSans-2e" x="63.623047"/>
       <use xlink:href="#DejaVuSans-38" x="95.410156"/>
      </g>
     </g>
    </g>
    <g id="ytick_12">
     <g id="line2d_18">
      <g>
       <use xlink:href="#m6e5fc4b062" x="360.63885" y="62.150437" style="stroke: #000000; stroke-width: 0.8"/>
      </g>
     </g>
     <g id="text_20">
      <!-- 0.9 -->
      <g transform="translate(367.63885 65.949656) scale(0.1 -0.1)">
       <defs>
        <path id="DejaVuSans-39" d="M 703 97 
L 703 672 
Q 941 559 1184 500 
Q 1428 441 1663 441 
Q 2288 441 2617 861 
Q 2947 1281 2994 2138 
Q 2813 1869 2534 1725 
Q 2256 1581 1919 1581 
Q 1219 1581 811 2004 
Q 403 2428 403 3163 
Q 403 3881 828 4315 
Q 1253 4750 1959 4750 
Q 2769 4750 3195 4129 
Q 3622 3509 3622 2328 
Q 3622 1225 3098 567 
Q 2575 -91 1691 -91 
Q 1453 -91 1209 -44 
Q 966 3 703 97 
z
M 1959 2075 
Q 2384 2075 2632 2365 
Q 2881 2656 2881 3163 
Q 2881 3666 2632 3958 
Q 2384 4250 1959 4250 
Q 1534 4250 1286 3958 
Q 1038 3666 1038 3163 
Q 1038 2656 1286 2365 
Q 1534 2075 1959 2075 
z
" transform="scale(0.015625)"/>
       </defs>
       <use xlink:href="#DejaVuSans-30"/>
       <use xlink:href="#DejaVuSans-2e" x="63.623047"/>
       <use xlink:href="#DejaVuSans-39" x="95.410156"/>
      </g>
     </g>
    </g>
    <g id="ytick_13">
     <g id="line2d_19">
      <g>
       <use xlink:href="#m6e5fc4b062" x="360.63885" y="17.798437" style="stroke: #000000; stroke-width: 0.8"/>
      </g>
     </g>
     <g id="text_21">
      <!-- 1.0 -->
      <g transform="translate(367.63885 21.597656) scale(0.1 -0.1)">
       <use xlink:href="#DejaVuSans-31"/>
       <use xlink:href="#DejaVuSans-2e" x="63.623047"/>
       <use xlink:href="#DejaVuSans-30" x="95.410156"/>
      </g>
     </g>
    </g>
    <g id="text_22">
     <!-- Total Number of Vaccinated Individuals -->
     <g transform="translate(395.140413 248.177094) rotate(-90) scale(0.1 -0.1)">
      <defs>
       <path id="DejaVuSans-54" d="M -19 4666 
L 3928 4666 
L 3928 4134 
L 2272 4134 
L 2272 0 
L 1638 0 
L 1638 4134 
L -19 4134 
L -19 4666 
z
" transform="scale(0.015625)"/>
       <path id="DejaVuSans-4e" d="M 628 4666 
L 1478 4666 
L 3547 763 
L 3547 4666 
L 4159 4666 
L 4159 0 
L 3309 0 
L 1241 3903 
L 1241 0 
L 628 0 
L 628 4666 
z
" transform="scale(0.015625)"/>
       <path id="DejaVuSans-6d" d="M 3328 2828 
Q 3544 3216 3844 3400 
Q 4144 3584 4550 3584 
Q 5097 3584 5394 3201 
Q 5691 2819 5691 2113 
L 5691 0 
L 5113 0 
L 5113 2094 
Q 5113 2597 4934 2840 
Q 4756 3084 4391 3084 
Q 3944 3084 3684 2787 
Q 3425 2491 3425 1978 
L 3425 0 
L 2847 0 
L 2847 2094 
Q 2847 2600 2669 2842 
Q 2491 3084 2119 3084 
Q 1678 3084 1418 2786 
Q 1159 2488 1159 1978 
L 1159 0 
L 581 0 
L 581 3500 
L 1159 3500 
L 1159 2956 
Q 1356 3278 1631 3431 
Q 1906 3584 2284 3584 
Q 2666 3584 2933 3390 
Q 3200 3197 3328 2828 
z
" transform="scale(0.015625)"/>
       <path id="DejaVuSans-76" d="M 191 3500 
L 800 3500 
L 1894 563 
L 2988 3500 
L 3597 3500 
L 2284 0 
L 1503 0 
L 191 3500 
z
" transform="scale(0.015625)"/>
       <path id="DejaVuSans-73" d="M 2834 3397 
L 2834 2853 
Q 2591 2978 2328 3040 
Q 2066 3103 1784 3103 
Q 1356 3103 1142 2972 
Q 928 2841 928 2578 
Q 928 2378 1081 2264 
Q 1234 2150 1697 2047 
L 1894 2003 
Q 2506 1872 2764 1633 
Q 3022 1394 3022 966 
Q 3022 478 2636 193 
Q 2250 -91 1575 -91 
Q 1294 -91 989 -36 
Q 684 19 347 128 
L 347 722 
Q 666 556 975 473 
Q 1284 391 1588 391 
Q 1994 391 2212 530 
Q 2431 669 2431 922 
Q 2431 1156 2273 1281 
Q 2116 1406 1581 1522 
L 1381 1569 
Q 847 1681 609 1914 
Q 372 2147 372 2553 
Q 372 3047 722 3315 
Q 1072 3584 1716 3584 
Q 2034 3584 2315 3537 
Q 2597 3491 2834 3397 
z
" transform="scale(0.015625)"/>
      </defs>
      <use xlink:href="#DejaVuSans-54"/>
      <use xlink:href="#DejaVuSans-6f" x="44.083984"/>
      <use xlink:href="#DejaVuSans-74" x="105.265625"/>
      <use xlink:href="#DejaVuSans-61" x="144.474609"/>
      <use xlink:href="#DejaVuSans-6c" x="205.753906"/>
      <use xlink:href="#DejaVuSans-20" x="233.537109"/>
      <use xlink:href="#DejaVuSans-4e" x="265.324219"/>
      <use xlink:href="#DejaVuSans-75" x="340.128906"/>
      <use xlink:href="#DejaVuSans-6d" x="403.507812"/>
      <use xlink:href="#DejaVuSans-62" x="500.919922"/>
      <use xlink:href="#DejaVuSans-65" x="564.396484"/>
      <use xlink:href="#DejaVuSans-72" x="625.919922"/>
      <use xlink:href="#DejaVuSans-20" x="667.033203"/>
      <use xlink:href="#DejaVuSans-6f" x="698.820312"/>
      <use xlink:href="#DejaVuSans-66" x="760.001953"/>
      <use xlink:href="#DejaVuSans-20" x="795.207031"/>
      <use xlink:href="#DejaVuSans-56" x="826.994141"/>
      <use xlink:href="#DejaVuSans-61" x="887.652344"/>
      <use xlink:href="#DejaVuSans-63" x="948.931641"/>
      <use xlink:href="#DejaVuSans-63" x="1003.912109"/>
      <use xlink:href="#DejaVuSans-69" x="1058.892578"/>
      <use xlink:href="#DejaVuSans-6e" x="1086.675781"/>
      <use xlink:href="#DejaVuSans-61" x="1150.054688"/>
      <use xlink:href="#DejaVuSans-74" x="1211.333984"/>
      <use xlink:href="#DejaVuSans-65" x="1250.542969"/>
      <use xlink:href="#DejaVuSans-64" x="1312.066406"/>
      <use xlink:href="#DejaVuSans-20" x="1375.542969"/>
      <use xlink:href="#DejaVuSans-49" x="1407.330078"/>
      <use xlink:href="#DejaVuSans-6e" x="1436.822266"/>
      <use xlink:href="#DejaVuSans-64" x="1500.201172"/>
      <use xlink:href="#DejaVuSans-69" x="1563.677734"/>
      <use xlink:href="#DejaVuSans-76" x="1591.460938"/>
      <use xlink:href="#DejaVuSans-69" x="1650.640625"/>
      <use xlink:href="#DejaVuSans-64" x="1678.423828"/>
      <use xlink:href="#DejaVuSans-75" x="1741.900391"/>
      <use xlink:href="#DejaVuSans-61" x="1805.279297"/>
      <use xlink:href="#DejaVuSans-6c" x="1866.558594"/>
      <use xlink:href="#DejaVuSans-73" x="1894.341797"/>
     </g>
    </g>
    <g id="text_23">
     <!-- 1e6 -->
     <g transform="translate(341.760725 14.798437) scale(0.1 -0.1)">
      <use xlink:href="#DejaVuSans-31"/>
      <use xlink:href="#DejaVuSans-65" x="63.623047"/>
      <use xlink:href="#DejaVuSans-36" x="125.146484"/>
     </g>
    </g>
   </g>
   <g id="LineCollection_1"/>
   <g id="patch_8">
    <path d="M 347.33325 283.910437 
L 353.98605 283.910437 
L 360.63885 283.910437 
L 360.63885 17.798437 
L 353.98605 17.798437 
L 347.33325 17.798437 
L 347.33325 283.910437 
z
" style="fill: none; stroke: #000000; stroke-width: 0.8; stroke-linejoin: miter; stroke-linecap: square"/>
   </g>
  </g>
 </g>
 <defs>
  <clipPath id="p6b4349d60a">
   <rect x="43.78125" y="17.798437" width="285.696" height="266.112"/>
  </clipPath>
  <clipPath id="pf81d9da621">
   <rect x="347.33325" y="17.798437" width="13.3056" height="266.112"/>
  </clipPath>
 </defs>
</svg>
