<?xml version="1.0" encoding="utf-8" standalone="no"?>
<!DOCTYPE svg PUBLIC "-//W3C//DTD SVG 1.1//EN"
  "http://www.w3.org/Graphics/SVG/1.1/DTD/svg11.dtd">
<svg xmlns:xlink="http://www.w3.org/1999/xlink" width="420.329475pt" height="314.667469pt" viewBox="0 0 420.329475 314.667469" xmlns="http://www.w3.org/2000/svg" version="1.1">
 <metadata>
  <rdf:RDF xmlns:dc="http://purl.org/dc/elements/1.1/" xmlns:cc="http://creativecommons.org/ns#" xmlns:rdf="http://www.w3.org/1999/02/22-rdf-syntax-ns#">
   <cc:Work>
    <dc:type rdf:resource="http://purl.org/dc/dcmitype/StillImage"/>
    <dc:date>2024-12-02T09:49:10.799126</dc:date>
    <dc:format>image/svg+xml</dc:format>
    <dc:creator>
     <cc:Agent>
      <dc:title>Matplotlib v3.9.0, https://matplotlib.org/</dc:title>
     </cc:Agent>
    </dc:creator>
   </cc:Work>
  </rdf:RDF>
 </metadata>
 <defs>
  <style type="text/css">*{stroke-linejoin: round; stroke-linecap: butt}</style>
 </defs>
 <g id="figure_1">
  <g id="patch_1">
   <path d="M 0 314.667469 
L 420.329475 314.667469 
L 420.329475 0 
L 0 0 
z
" style="fill: #ffffff"/>
  </g>
  <g id="axes_1">
   <g id="patch_2">
    <path d="M 43.78125 277.111219 
L 329.47725 277.111219 
L 329.47725 10.999219 
L 43.78125 10.999219 
z
" style="fill: #ffffff"/>
   </g>
   <g id="QuadContourSet_1">
    <path d="M 50.92365 277.111219 
L 58.06605 277.111219 
L 65.20845 277.111219 
L 72.35085 277.111219 
L 79.49325 277.111219 
L 86.63565 277.111219 
L 93.77805 277.111219 
L 100.92045 277.111219 
L 108.06285 277.111219 
L 115.20525 277.111219 
L 122.34765 277.111219 
L 129.49005 277.111219 
L 136.63245 277.111219 
L 143.77485 277.111219 
L 150.91725 277.111219 
L 158.05965 277.111219 
L 165.20205 277.111219 
L 172.34445 277.111219 
L 179.48685 277.111219 
L 186.62925 277.111219 
L 193.77165 277.111219 
L 200.91405 277.111219 
L 208.05645 277.111219 
L 215.19885 277.111219 
L 222.34125 277.111219 
L 229.48365 277.111219 
L 236.62605 277.111219 
L 243.76845 277.111219 
L 250.91085 277.111219 
L 258.05325 277.111219 
L 265.19565 277.111219 
L 272.33805 277.111219 
L 279.48045 277.111219 
L 286.62285 277.111219 
L 293.76525 277.111219 
L 300.90765 277.111219 
L 308.05005 277.111219 
L 307.717886 276.801824 
L 300.90765 276.801824 
L 293.76525 276.801824 
L 286.62285 276.801824 
L 279.48045 276.801824 
L 272.33805 276.801824 
L 265.19565 276.801824 
L 258.05325 276.801824 
L 250.91085 276.801824 
L 243.76845 276.801824 
L 236.62605 276.801824 
L 229.48365 276.801824 
L 222.34125 276.801824 
L 215.19885 276.801824 
L 208.05645 276.801824 
L 200.91405 276.801824 
L 193.77165 276.801824 
L 186.62925 276.801824 
L 179.48685 276.801824 
L 172.34445 276.801824 
L 165.20205 276.801824 
L 158.05965 276.801824 
L 150.91725 276.802445 
L 143.77485 276.803096 
L 136.63245 276.805615 
L 129.49005 276.80802 
L 122.34765 276.809964 
L 115.20525 276.81182 
L 108.06285 276.81182 
L 100.92045 276.81182 
L 93.77805 276.814275 
L 86.63565 276.816621 
L 79.49325 276.819503 
L 72.35085 276.822518 
L 65.20845 276.825988 
L 58.06605 276.829615 
L 50.92365 276.829615 
L 43.78125 276.829615 
L 43.78125 277.111219 
z
" clip-path="url(#p790e594db4)" style="fill: #fff0e8"/>
    <path d="M 50.92365 276.829615 
L 58.06605 276.829615 
L 65.20845 276.825988 
L 72.35085 276.822518 
L 79.49325 276.819503 
L 86.63565 276.816621 
L 93.77805 276.814275 
L 100.92045 276.81182 
L 108.06285 276.81182 
L 115.20525 276.81182 
L 122.34765 276.809964 
L 129.49005 276.80802 
L 136.63245 276.805615 
L 143.77485 276.803096 
L 150.91725 276.802445 
L 158.05965 276.801824 
L 165.20205 276.801824 
L 172.34445 276.801824 
L 179.48685 276.801824 
L 186.62925 276.801824 
L 193.77165 276.801824 
L 200.91405 276.801824 
L 208.05645 276.801824 
L 215.19885 276.801824 
L 222.34125 276.801824 
L 229.48365 276.801824 
L 236.62605 276.801824 
L 243.76845 276.801824 
L 250.91085 276.801824 
L 258.05325 276.801824 
L 265.19565 276.801824 
L 272.33805 276.801824 
L 279.48045 276.801824 
L 286.62285 276.801824 
L 293.76525 276.801824 
L 300.90765 276.801824 
L 307.717886 276.801824 
L 306.397481 275.571931 
L 300.90765 275.571931 
L 293.76525 275.571931 
L 286.62285 275.571931 
L 279.48045 275.571931 
L 272.33805 275.571931 
L 265.19565 275.571931 
L 258.05325 275.571931 
L 250.91085 275.571931 
L 243.76845 275.571931 
L 236.62605 275.571931 
L 229.48365 275.571931 
L 222.34125 275.571931 
L 215.19885 275.571931 
L 208.05645 275.571931 
L 200.91405 275.571931 
L 193.77165 275.571931 
L 186.62925 275.571931 
L 179.48685 275.571931 
L 172.34445 275.571931 
L 165.20205 275.571931 
L 158.05965 275.571931 
L 150.91725 275.572431 
L 143.77485 275.573082 
L 136.63245 275.575602 
L 129.49005 275.577541 
L 122.34765 275.579484 
L 115.20525 275.580981 
L 108.06285 275.580981 
L 100.92045 275.580981 
L 93.77805 275.583436 
L 86.63565 275.585328 
L 79.49325 275.587652 
L 72.35085 275.590667 
L 65.20845 275.593465 
L 58.06605 275.597092 
L 50.92365 275.597092 
L 43.78125 275.597092 
L 43.78125 276.829615 
z
" clip-path="url(#p790e594db4)" style="fill: #fee5d9"/>
    <path d="M 50.92365 275.597092 
L 58.06605 275.597092 
L 65.20845 275.593465 
L 72.35085 275.590667 
L 79.49325 275.587652 
L 86.63565 275.585328 
L 93.77805 275.583436 
L 100.92045 275.580981 
L 108.06285 275.580981 
L 115.20525 275.580981 
L 122.34765 275.579484 
L 129.49005 275.577541 
L 136.63245 275.575602 
L 143.77485 275.573082 
L 150.91725 275.572431 
L 158.05965 275.571931 
L 165.20205 275.571931 
L 172.34445 275.571931 
L 179.48685 275.571931 
L 186.62925 275.571931 
L 193.77165 275.571931 
L 200.91405 275.571931 
L 208.05645 275.571931 
L 215.19885 275.571931 
L 222.34125 275.571931 
L 229.48365 275.571931 
L 236.62605 275.571931 
L 243.76845 275.571931 
L 250.91085 275.571931 
L 258.05325 275.571931 
L 265.19565 275.571931 
L 272.33805 275.571931 
L 279.48045 275.571931 
L 286.62285 275.571931 
L 293.76525 275.571931 
L 300.90765 275.571931 
L 306.397481 275.571931 
L 305.077077 274.342038 
L 300.90765 274.342038 
L 293.76525 274.342038 
L 286.62285 274.342038 
L 279.48045 274.342038 
L 272.33805 274.342038 
L 265.19565 274.342038 
L 258.05325 274.342038 
L 250.91085 274.342038 
L 243.76845 274.342038 
L 236.62605 274.342038 
L 229.48365 274.342038 
L 222.34125 274.342038 
L 215.19885 274.342038 
L 208.05645 274.342038 
L 200.91405 274.342038 
L 193.77165 274.342038 
L 186.62925 274.342038 
L 179.48685 274.342038 
L 172.34445 274.342038 
L 165.20205 274.342038 
L 158.05965 274.342038 
L 150.91725 274.342418 
L 143.77485 274.343069 
L 136.63245 274.345589 
L 129.49005 274.347062 
L 122.34765 274.349005 
L 115.20525 274.350142 
L 108.06285 274.350142 
L 100.92045 274.350142 
L 93.77805 274.352597 
L 86.63565 274.354034 
L 79.49325 274.3558 
L 72.35085 274.358816 
L 65.20845 274.360942 
L 58.06605 274.364569 
L 50.92365 274.364569 
L 43.78125 274.364569 
L 43.78125 275.597092 
z
" clip-path="url(#p790e594db4)" style="fill: #fdd7c6"/>
    <path d="M 50.92365 274.364569 
L 58.06605 274.364569 
L 65.20845 274.360942 
L 72.35085 274.358816 
L 79.49325 274.3558 
L 86.63565 274.354034 
L 93.77805 274.352597 
L 100.92045 274.350142 
L 108.06285 274.350142 
L 115.20525 274.350142 
L 122.34765 274.349005 
L 129.49005 274.347062 
L 136.63245 274.345589 
L 143.77485 274.343069 
L 150.91725 274.342418 
L 158.05965 274.342038 
L 165.20205 274.342038 
L 172.34445 274.342038 
L 179.48685 274.342038 
L 186.62925 274.342038 
L 193.77165 274.342038 
L 200.91405 274.342038 
L 208.05645 274.342038 
L 215.19885 274.342038 
L 222.34125 274.342038 
L 229.48365 274.342038 
L 236.62605 274.342038 
L 243.76845 274.342038 
L 250.91085 274.342038 
L 258.05325 274.342038 
L 265.19565 274.342038 
L 272.33805 274.342038 
L 279.48045 274.342038 
L 286.62285 274.342038 
L 293.76525 274.342038 
L 300.90765 274.342038 
L 305.077077 274.342038 
L 303.756672 273.112145 
L 300.90765 273.112145 
L 293.76525 273.112145 
L 286.62285 273.112145 
L 279.48045 273.112145 
L 272.33805 273.112145 
L 265.19565 273.112145 
L 258.05325 273.112145 
L 250.91085 273.112145 
L 243.76845 273.112145 
L 236.62605 273.112145 
L 229.48365 273.112145 
L 222.34125 273.112145 
L 215.19885 273.112145 
L 208.05645 273.112145 
L 200.91405 273.112145 
L 193.77165 273.112145 
L 186.62925 273.112145 
L 179.48685 273.112145 
L 172.34445 273.112145 
L 165.20205 273.112145 
L 158.05965 273.112145 
L 150.91725 273.112405 
L 143.77485 273.113056 
L 136.63245 273.115575 
L 129.49005 273.116582 
L 122.34765 273.118526 
L 115.20525 273.119303 
L 108.06285 273.119303 
L 100.92045 273.119303 
L 93.77805 273.121758 
L 86.63565 273.122741 
L 79.49325 273.123949 
L 72.35085 273.126964 
L 65.20845 273.128419 
L 58.06605 273.132046 
L 50.92365 273.132046 
L 43.78125 273.132046 
L 43.78125 274.364569 
z
" clip-path="url(#p790e594db4)" style="fill: #fcc4ad"/>
    <path d="M 50.92365 273.132046 
L 58.06605 273.132046 
L 65.20845 273.128419 
L 72.35085 273.126964 
L 79.49325 273.123949 
L 86.63565 273.122741 
L 93.77805 273.121758 
L 100.92045 273.119303 
L 108.06285 273.119303 
L 115.20525 273.119303 
L 122.34765 273.118526 
L 129.49005 273.116582 
L 136.63245 273.115575 
L 143.77485 273.113056 
L 150.91725 273.112405 
L 158.05965 273.112145 
L 165.20205 273.112145 
L 172.34445 273.112145 
L 179.48685 273.112145 
L 186.62925 273.112145 
L 193.77165 273.112145 
L 200.91405 273.112145 
L 208.05645 273.112145 
L 215.19885 273.112145 
L 222.34125 273.112145 
L 229.48365 273.112145 
L 236.62605 273.112145 
L 243.76845 273.112145 
L 250.91085 273.112145 
L 258.05325 273.112145 
L 265.19565 273.112145 
L 272.33805 273.112145 
L 279.48045 273.112145 
L 286.62285 273.112145 
L 293.76525 273.112145 
L 300.90765 273.112145 
L 303.756672 273.112145 
L 302.436267 271.882252 
L 300.90765 271.882252 
L 293.76525 271.882252 
L 286.62285 271.882252 
L 279.48045 271.882252 
L 272.33805 271.882252 
L 265.19565 271.882252 
L 258.05325 271.882252 
L 250.91085 271.882252 
L 243.76845 271.882252 
L 236.62605 271.882252 
L 229.48365 271.882252 
L 222.34125 271.882252 
L 215.19885 271.882252 
L 208.05645 271.882252 
L 200.91405 271.882252 
L 193.77165 271.882252 
L 186.62925 271.882252 
L 179.48685 271.882252 
L 172.34445 271.882252 
L 165.20205 271.882252 
L 158.05965 271.882252 
L 150.91725 271.882391 
L 143.77485 271.883043 
L 136.63245 271.885562 
L 129.49005 271.886103 
L 122.34765 271.888046 
L 115.20525 271.888464 
L 108.06285 271.888464 
L 100.92045 271.888464 
L 93.77805 271.890919 
L 86.63565 271.891448 
L 79.49325 271.892097 
L 72.35085 271.895113 
L 65.20845 271.895896 
L 58.06605 271.899523 
L 50.92365 271.899523 
L 43.78125 271.899523 
L 43.78125 273.132046 
z
" clip-path="url(#p790e594db4)" style="fill: #fcb095"/>
    <path d="M 50.92365 271.899523 
L 58.06605 271.899523 
L 65.20845 271.895896 
L 72.35085 271.895113 
L 79.49325 271.892097 
L 86.63565 271.891448 
L 93.77805 271.890919 
L 100.92045 271.888464 
L 108.06285 271.888464 
L 115.20525 271.888464 
L 122.34765 271.888046 
L 129.49005 271.886103 
L 136.63245 271.885562 
L 143.77485 271.883043 
L 150.91725 271.882391 
L 158.05965 271.882252 
L 165.20205 271.882252 
L 172.34445 271.882252 
L 179.48685 271.882252 
L 186.62925 271.882252 
L 193.77165 271.882252 
L 200.91405 271.882252 
L 208.05645 271.882252 
L 215.19885 271.882252 
L 222.34125 271.882252 
L 229.48365 271.882252 
L 236.62605 271.882252 
L 243.76845 271.882252 
L 250.91085 271.882252 
L 258.05325 271.882252 
L 265.19565 271.882252 
L 272.33805 271.882252 
L 279.48045 271.882252 
L 286.62285 271.882252 
L 293.76525 271.882252 
L 300.90765 271.882252 
L 302.436267 271.882252 
L 301.115863 270.652359 
L 300.90765 270.652359 
L 293.76525 270.652359 
L 286.62285 270.652359 
L 279.48045 270.652359 
L 272.33805 270.652359 
L 265.19565 270.652359 
L 258.05325 270.652359 
L 250.91085 270.652359 
L 243.76845 270.652359 
L 236.62605 270.652359 
L 229.48365 270.652359 
L 222.34125 270.652359 
L 215.19885 270.652359 
L 208.05645 270.652359 
L 200.91405 270.652359 
L 193.77165 270.652359 
L 186.62925 270.652359 
L 179.48685 270.652359 
L 172.34445 270.652359 
L 165.20205 270.652359 
L 158.05965 270.652359 
L 150.91725 270.652378 
L 143.77485 270.653029 
L 136.63245 270.655549 
L 129.49005 270.655624 
L 122.34765 270.657567 
L 115.20525 270.657625 
L 108.06285 270.657625 
L 100.92045 270.657625 
L 93.77805 270.66008 
L 86.63565 270.660155 
L 79.49325 270.660246 
L 72.35085 270.663262 
L 65.20845 270.663373 
L 58.06605 270.667 
L 50.92365 270.667 
L 43.78125 270.667 
L 43.78125 271.899523 
z
" clip-path="url(#p790e594db4)" style="fill: #fc9c7d"/>
    <path d="M 50.92365 270.667 
L 58.06605 270.667 
L 65.20845 270.663373 
L 72.35085 270.663262 
L 79.49325 270.660246 
L 86.63565 270.660155 
L 93.77805 270.66008 
L 100.92045 270.657625 
L 108.06285 270.657625 
L 115.20525 270.657625 
L 122.34765 270.657567 
L 129.49005 270.655624 
L 136.63245 270.655549 
L 143.77485 270.653029 
L 150.91725 270.652378 
L 158.05965 270.652359 
L 165.20205 270.652359 
L 172.34445 270.652359 
L 179.48685 270.652359 
L 186.62925 270.652359 
L 193.77165 270.652359 
L 200.91405 270.652359 
L 208.05645 270.652359 
L 215.19885 270.652359 
L 222.34125 270.652359 
L 229.48365 270.652359 
L 236.62605 270.652359 
L 243.76845 270.652359 
L 250.91085 270.652359 
L 258.05325 270.652359 
L 265.19565 270.652359 
L 272.33805 270.652359 
L 279.48045 270.652359 
L 286.62285 270.652359 
L 293.76525 270.652359 
L 300.90765 270.652359 
L 301.115863 270.652359 
L 300.90765 270.458419 
L 300.90765 269.422466 
L 293.76525 269.422466 
L 286.62285 269.422466 
L 279.48045 269.422466 
L 272.33805 269.422466 
L 265.19565 269.422466 
L 258.05325 269.422466 
L 250.91085 269.422466 
L 243.76845 269.422466 
L 236.62605 269.422466 
L 229.48365 269.422466 
L 222.34125 269.422466 
L 215.19885 269.422466 
L 208.05645 269.422466 
L 200.91405 269.422466 
L 193.77165 269.422466 
L 186.62925 269.422466 
L 179.48685 269.422466 
L 172.34445 269.422466 
L 165.20205 269.422466 
L 158.05965 269.422466 
L 150.91725 269.422466 
L 143.77485 269.423016 
L 136.63245 269.425144 
L 129.49005 269.425144 
L 122.34765 269.426786 
L 115.20525 269.426786 
L 108.06285 269.426786 
L 100.92045 269.426786 
L 93.77805 269.428861 
L 86.63565 269.428861 
L 79.49325 269.428861 
L 72.35085 269.43141 
L 65.20845 269.43141 
L 58.06605 269.434477 
L 50.92365 269.434477 
L 43.78125 269.434477 
L 43.78125 270.458419 
L 43.78125 270.667 
z
" clip-path="url(#p790e594db4)" style="fill: #fc8767"/>
    <path d="M 50.92365 269.434477 
L 58.06605 269.434477 
L 65.20845 269.43141 
L 72.35085 269.43141 
L 79.49325 269.428861 
L 86.63565 269.428861 
L 93.77805 269.428861 
L 100.92045 269.426786 
L 108.06285 269.426786 
L 115.20525 269.426786 
L 122.34765 269.426786 
L 129.49005 269.425144 
L 136.63245 269.425144 
L 143.77485 269.423016 
L 150.91725 269.422466 
L 158.05965 269.422466 
L 165.20205 269.422466 
L 172.34445 269.422466 
L 179.48685 269.422466 
L 186.62925 269.422466 
L 193.77165 269.422466 
L 200.91405 269.422466 
L 208.05645 269.422466 
L 215.19885 269.422466 
L 222.34125 269.422466 
L 229.48365 269.422466 
L 236.62605 269.422466 
L 243.76845 269.422466 
L 250.91085 269.422466 
L 258.05325 269.422466 
L 265.19565 269.422466 
L 272.33805 269.422466 
L 279.48045 269.422466 
L 286.62285 269.422466 
L 293.76525 269.422466 
L 300.90765 269.422466 
L 300.90765 268.192573 
L 293.76525 268.192573 
L 286.62285 268.192573 
L 279.48045 268.192573 
L 272.33805 268.192573 
L 265.19565 268.192573 
L 258.05325 268.192573 
L 250.91085 268.192573 
L 243.76845 268.192573 
L 236.62605 268.192573 
L 229.48365 268.192573 
L 222.34125 268.192573 
L 215.19885 268.192573 
L 208.05645 268.192573 
L 200.91405 268.192573 
L 193.77165 268.192573 
L 186.62925 268.192573 
L 179.48685 268.192573 
L 172.34445 268.192573 
L 165.20205 268.192573 
L 158.05965 268.192573 
L 150.91725 268.192573 
L 143.77485 268.193003 
L 136.63245 268.194665 
L 129.49005 268.194665 
L 122.34765 268.195947 
L 115.20525 268.195947 
L 108.06285 268.195947 
L 100.92045 268.195947 
L 93.77805 268.197568 
L 86.63565 268.197568 
L 79.49325 268.197568 
L 72.35085 268.199559 
L 65.20845 268.199559 
L 58.06605 268.201954 
L 50.92365 268.201954 
L 43.78125 268.201954 
L 43.78125 269.434477 
z
" clip-path="url(#p790e594db4)" style="fill: #fb7353"/>
    <path d="M 50.92365 268.201954 
L 58.06605 268.201954 
L 65.20845 268.199559 
L 72.35085 268.199559 
L 79.49325 268.197568 
L 86.63565 268.197568 
L 93.77805 268.197568 
L 100.92045 268.195947 
L 108.06285 268.195947 
L 115.20525 268.195947 
L 122.34765 268.195947 
L 129.49005 268.194665 
L 136.63245 268.194665 
L 143.77485 268.193003 
L 150.91725 268.192573 
L 158.05965 268.192573 
L 165.20205 268.192573 
L 172.34445 268.192573 
L 179.48685 268.192573 
L 186.62925 268.192573 
L 193.77165 268.192573 
L 200.91405 268.192573 
L 208.05645 268.192573 
L 215.19885 268.192573 
L 222.34125 268.192573 
L 229.48365 268.192573 
L 236.62605 268.192573 
L 243.76845 268.192573 
L 250.91085 268.192573 
L 258.05325 268.192573 
L 265.19565 268.192573 
L 272.33805 268.192573 
L 279.48045 268.192573 
L 286.62285 268.192573 
L 293.76525 268.192573 
L 300.90765 268.192573 
L 300.90765 266.96268 
L 293.76525 266.96268 
L 286.62285 266.96268 
L 279.48045 266.96268 
L 272.33805 266.96268 
L 265.19565 266.96268 
L 258.05325 266.96268 
L 250.91085 266.96268 
L 243.76845 266.96268 
L 236.62605 266.96268 
L 229.48365 266.96268 
L 222.34125 266.96268 
L 215.19885 266.96268 
L 208.05645 266.96268 
L 200.91405 266.96268 
L 193.77165 266.96268 
L 186.62925 266.96268 
L 179.48685 266.96268 
L 172.34445 266.96268 
L 165.20205 266.96268 
L 158.05965 266.96268 
L 150.91725 266.96268 
L 143.77485 266.962989 
L 136.63245 266.964186 
L 129.49005 266.964186 
L 122.34765 266.965109 
L 115.20525 266.965109 
L 108.06285 266.965109 
L 100.92045 266.965109 
L 93.77805 266.966275 
L 86.63565 266.966275 
L 79.49325 266.966275 
L 72.35085 266.967708 
L 65.20845 266.967708 
L 58.06605 266.969431 
L 50.92365 266.969431 
L 43.78125 266.969431 
L 43.78125 268.201954 
z
" clip-path="url(#p790e594db4)" style="fill: #f85d42"/>
    <path d="M 50.92365 266.969431 
L 58.06605 266.969431 
L 65.20845 266.967708 
L 72.35085 266.967708 
L 79.49325 266.966275 
L 86.63565 266.966275 
L 93.77805 266.966275 
L 100.92045 266.965109 
L 108.06285 266.965109 
L 115.20525 266.965109 
L 122.34765 266.965109 
L 129.49005 266.964186 
L 136.63245 266.964186 
L 143.77485 266.962989 
L 150.91725 266.96268 
L 158.05965 266.96268 
L 165.20205 266.96268 
L 172.34445 266.96268 
L 179.48685 266.96268 
L 186.62925 266.96268 
L 193.77165 266.96268 
L 200.91405 266.96268 
L 208.05645 266.96268 
L 215.19885 266.96268 
L 222.34125 266.96268 
L 229.48365 266.96268 
L 236.62605 266.96268 
L 243.76845 266.96268 
L 250.91085 266.96268 
L 258.05325 266.96268 
L 265.19565 266.96268 
L 272.33805 266.96268 
L 279.48045 266.96268 
L 286.62285 266.96268 
L 293.76525 266.96268 
L 300.90765 266.96268 
L 300.90765 265.732787 
L 293.76525 265.732787 
L 286.62285 265.732787 
L 279.48045 265.732787 
L 272.33805 265.732787 
L 265.19565 265.732787 
L 258.05325 265.732787 
L 250.91085 265.732787 
L 243.76845 265.732787 
L 236.62605 265.732787 
L 229.48365 265.732787 
L 222.34125 265.732787 
L 215.19885 265.732787 
L 208.05645 265.732787 
L 200.91405 265.732787 
L 193.77165 265.732787 
L 186.62925 265.732787 
L 179.48685 265.732787 
L 172.34445 265.732787 
L 165.20205 265.732787 
L 158.05965 265.732787 
L 150.91725 265.732787 
L 143.77485 265.732976 
L 136.63245 265.733706 
L 129.49005 265.733706 
L 122.34765 265.73427 
L 115.20525 265.73427 
L 108.06285 265.73427 
L 100.92045 265.73427 
L 93.77805 265.734982 
L 86.63565 265.734982 
L 79.49325 265.734982 
L 72.35085 265.735856 
L 65.20845 265.735856 
L 58.06605 265.736909 
L 50.92365 265.736909 
L 43.78125 265.736909 
L 43.78125 266.969431 
z
" clip-path="url(#p790e594db4)" style="fill: #f24633"/>
    <path d="M 50.92365 265.736909 
L 58.06605 265.736909 
L 65.20845 265.735856 
L 72.35085 265.735856 
L 79.49325 265.734982 
L 86.63565 265.734982 
L 93.77805 265.734982 
L 100.92045 265.73427 
L 108.06285 265.73427 
L 115.20525 265.73427 
L 122.34765 265.73427 
L 129.49005 265.733706 
L 136.63245 265.733706 
L 143.77485 265.732976 
L 150.91725 265.732787 
L 158.05965 265.732787 
L 165.20205 265.732787 
L 172.34445 265.732787 
L 179.48685 265.732787 
L 186.62925 265.732787 
L 193.77165 265.732787 
L 200.91405 265.732787 
L 208.05645 265.732787 
L 215.19885 265.732787 
L 222.34125 265.732787 
L 229.48365 265.732787 
L 236.62605 265.732787 
L 243.76845 265.732787 
L 250.91085 265.732787 
L 258.05325 265.732787 
L 265.19565 265.732787 
L 272.33805 265.732787 
L 279.48045 265.732787 
L 286.62285 265.732787 
L 293.76525 265.732787 
L 300.90765 265.732787 
L 300.90765 264.502895 
L 293.76525 264.502895 
L 286.62285 264.502895 
L 279.48045 264.502895 
L 272.33805 264.502895 
L 265.19565 264.502895 
L 258.05325 264.502895 
L 250.91085 264.502895 
L 243.76845 264.502895 
L 236.62605 264.502895 
L 229.48365 264.502895 
L 222.34125 264.502895 
L 215.19885 264.502895 
L 208.05645 264.502895 
L 200.91405 264.502895 
L 193.77165 264.502895 
L 186.62925 264.502895 
L 179.48685 264.502895 
L 172.34445 264.502895 
L 165.20205 264.502895 
L 158.05965 264.502895 
L 150.91725 264.502895 
L 143.77485 264.502963 
L 136.63245 264.503227 
L 129.49005 264.503227 
L 122.34765 264.503431 
L 115.20525 264.503431 
L 108.06285 264.503431 
L 100.92045 264.503431 
L 93.77805 264.503688 
L 86.63565 264.503688 
L 79.49325 264.503688 
L 72.35085 264.504005 
L 65.20845 264.504005 
L 58.06605 264.504386 
L 50.92365 264.504386 
L 43.78125 264.504386 
L 43.78125 265.736909 
z
" clip-path="url(#p790e594db4)" style="fill: #e53228"/>
    <path d="M 50.92365 264.504386 
L 58.06605 264.504386 
L 65.20845 264.504005 
L 72.35085 264.504005 
L 79.49325 264.503688 
L 86.63565 264.503688 
L 93.77805 264.503688 
L 100.92045 264.503431 
L 108.06285 264.503431 
L 115.20525 264.503431 
L 122.34765 264.503431 
L 129.49005 264.503227 
L 136.63245 264.503227 
L 143.77485 264.502963 
L 150.91725 264.502895 
L 158.05965 264.502895 
L 165.20205 264.502895 
L 172.34445 264.502895 
L 179.48685 264.502895 
L 186.62925 264.502895 
L 193.77165 264.502895 
L 200.91405 264.502895 
L 208.05645 264.502895 
L 215.19885 264.502895 
L 222.34125 264.502895 
L 229.48365 264.502895 
L 236.62605 264.502895 
L 243.76845 264.502895 
L 250.91085 264.502895 
L 258.05325 264.502895 
L 265.19565 264.502895 
L 272.33805 264.502895 
L 279.48045 264.502895 
L 286.62285 264.502895 
L 293.76525 264.502895 
L 300.90765 264.502895 
L 300.90765 263.805619 
L 293.76525 263.805619 
L 292.084412 262.24 
L 286.62285 262.24 
L 279.48045 262.24 
L 272.33805 262.24 
L 265.19565 262.24 
L 258.05325 262.24 
L 250.91085 262.24 
L 243.76845 262.24 
L 236.62605 262.24 
L 229.48365 262.24 
L 222.34125 262.24 
L 215.19885 262.24 
L 208.05645 262.24 
L 200.91405 262.24 
L 193.77165 262.24 
L 186.62925 262.24 
L 179.48685 262.24 
L 172.34445 262.24 
L 165.20205 262.24 
L 158.05965 262.24 
L 150.91725 262.24 
L 143.77485 262.24 
L 136.63245 262.24 
L 129.49005 262.24 
L 122.34765 262.24 
L 115.20525 262.24 
L 108.06285 262.24 
L 100.92045 262.24 
L 93.77805 262.24 
L 86.63565 262.24 
L 79.49325 262.24 
L 72.35085 262.24 
L 65.20845 262.24 
L 58.06605 262.24 
L 50.92365 262.24 
L 43.78125 262.24 
L 43.78125 263.805619 
L 43.78125 264.504386 
z
" clip-path="url(#p790e594db4)" style="fill: #d32020"/>
    <path d="M 50.92365 262.24 
L 58.06605 262.24 
L 65.20845 262.24 
L 72.35085 262.24 
L 79.49325 262.24 
L 86.63565 262.24 
L 93.77805 262.24 
L 100.92045 262.24 
L 108.06285 262.24 
L 115.20525 262.24 
L 122.34765 262.24 
L 129.49005 262.24 
L 136.63245 262.24 
L 143.77485 262.24 
L 150.91725 262.24 
L 158.05965 262.24 
L 165.20205 262.24 
L 172.34445 262.24 
L 179.48685 262.24 
L 186.62925 262.24 
L 193.77165 262.24 
L 200.91405 262.24 
L 208.05645 262.24 
L 215.19885 262.24 
L 222.34125 262.24 
L 229.48365 262.24 
L 236.62605 262.24 
L 243.76845 262.24 
L 250.91085 262.24 
L 258.05325 262.24 
L 265.19565 262.24 
L 272.33805 262.24 
L 279.48045 262.24 
L 286.62285 262.24 
L 292.084412 262.24 
L 288.203105 258.62475 
L 286.62285 258.62475 
L 279.48045 258.62475 
L 272.33805 258.62475 
L 265.19565 258.62475 
L 258.05325 258.62475 
L 250.91085 258.62475 
L 243.76845 258.62475 
L 236.62605 258.62475 
L 229.48365 258.62475 
L 222.34125 258.62475 
L 215.19885 258.62475 
L 208.05645 258.62475 
L 200.91405 258.62475 
L 193.77165 258.62475 
L 186.62925 258.62475 
L 179.48685 258.62475 
L 172.34445 258.62475 
L 165.20205 258.62475 
L 158.05965 258.62475 
L 150.91725 258.62475 
L 143.77485 258.62475 
L 136.63245 258.62475 
L 129.49005 258.62475 
L 122.34765 258.62475 
L 115.20525 258.62475 
L 108.06285 258.62475 
L 100.92045 258.62475 
L 93.77805 258.62475 
L 86.63565 258.62475 
L 79.49325 258.62475 
L 72.35085 258.62475 
L 65.20845 258.62475 
L 58.06605 258.62475 
L 50.92365 258.62475 
L 43.78125 258.62475 
L 43.78125 262.24 
z
" clip-path="url(#p790e594db4)" style="fill: #c1161b"/>
    <path d="M 50.92365 258.62475 
L 58.06605 258.62475 
L 65.20845 258.62475 
L 72.35085 258.62475 
L 79.49325 258.62475 
L 86.63565 258.62475 
L 93.77805 258.62475 
L 100.92045 258.62475 
L 108.06285 258.62475 
L 115.20525 258.62475 
L 122.34765 258.62475 
L 129.49005 258.62475 
L 136.63245 258.62475 
L 143.77485 258.62475 
L 150.91725 258.62475 
L 158.05965 258.62475 
L 165.20205 258.62475 
L 172.34445 258.62475 
L 179.48685 258.62475 
L 186.62925 258.62475 
L 193.77165 258.62475 
L 200.91405 258.62475 
L 208.05645 258.62475 
L 215.19885 258.62475 
L 222.34125 258.62475 
L 229.48365 258.62475 
L 236.62605 258.62475 
L 243.76845 258.62475 
L 250.91085 258.62475 
L 258.05325 258.62475 
L 265.19565 258.62475 
L 272.33805 258.62475 
L 279.48045 258.62475 
L 286.62285 258.62475 
L 288.203105 258.62475 
L 286.62285 257.152819 
L 284.321798 255.0095 
L 279.48045 255.0095 
L 272.33805 255.0095 
L 265.19565 255.0095 
L 258.05325 255.0095 
L 250.91085 255.0095 
L 243.76845 255.0095 
L 236.62605 255.0095 
L 229.48365 255.0095 
L 222.34125 255.0095 
L 215.19885 255.0095 
L 208.05645 255.0095 
L 200.91405 255.0095 
L 193.77165 255.0095 
L 186.62925 255.0095 
L 179.48685 255.0095 
L 172.34445 255.0095 
L 165.20205 255.0095 
L 158.05965 255.0095 
L 150.91725 255.0095 
L 143.77485 255.0095 
L 136.63245 255.0095 
L 129.49005 255.0095 
L 122.34765 255.0095 
L 115.20525 255.0095 
L 108.06285 255.0095 
L 100.92045 255.0095 
L 93.77805 255.0095 
L 86.63565 255.0095 
L 79.49325 255.0095 
L 72.35085 255.0095 
L 65.20845 255.0095 
L 58.06605 255.0095 
L 50.92365 255.0095 
L 43.78125 255.0095 
L 43.78125 257.152819 
L 43.78125 258.62475 
z
" clip-path="url(#p790e594db4)" style="fill: #ad1117"/>
    <path d="M 50.92365 255.0095 
L 58.06605 255.0095 
L 65.20845 255.0095 
L 72.35085 255.0095 
L 79.49325 255.0095 
L 86.63565 255.0095 
L 93.77805 255.0095 
L 100.92045 255.0095 
L 108.06285 255.0095 
L 115.20525 255.0095 
L 122.34765 255.0095 
L 129.49005 255.0095 
L 136.63245 255.0095 
L 143.77485 255.0095 
L 150.91725 255.0095 
L 158.05965 255.0095 
L 165.20205 255.0095 
L 172.34445 255.0095 
L 179.48685 255.0095 
L 186.62925 255.0095 
L 193.77165 255.0095 
L 200.91405 255.0095 
L 208.05645 255.0095 
L 215.19885 255.0095 
L 222.34125 255.0095 
L 229.48365 255.0095 
L 236.62605 255.0095 
L 243.76845 255.0095 
L 250.91085 255.0095 
L 258.05325 255.0095 
L 265.19565 255.0095 
L 272.33805 255.0095 
L 279.48045 255.0095 
L 284.321798 255.0095 
L 280.440491 251.394251 
L 279.48045 251.394251 
L 272.33805 251.394251 
L 265.19565 251.394251 
L 258.05325 251.394251 
L 250.91085 251.394251 
L 243.76845 251.394251 
L 236.62605 251.394251 
L 229.48365 251.394251 
L 222.34125 251.394251 
L 215.19885 251.394251 
L 208.05645 251.394251 
L 200.91405 251.394251 
L 193.77165 251.394251 
L 186.62925 251.394251 
L 179.48685 251.394251 
L 172.34445 251.394251 
L 165.20205 251.394251 
L 158.05965 251.394251 
L 150.91725 251.394251 
L 143.77485 251.394251 
L 136.63245 251.394251 
L 129.49005 251.394251 
L 122.34765 251.394251 
L 115.20525 251.394251 
L 108.06285 251.394251 
L 100.92045 251.394251 
L 93.77805 251.394251 
L 86.63565 251.394251 
L 79.49325 251.394251 
L 72.35085 251.394251 
L 65.20845 251.394251 
L 58.06605 251.394251 
L 50.92365 251.394251 
L 43.78125 251.394251 
L 43.78125 255.0095 
z
" clip-path="url(#p790e594db4)" style="fill: #940b13"/>
    <path d="M 50.92365 251.394251 
L 58.06605 251.394251 
L 65.20845 251.394251 
L 72.35085 251.394251 
L 79.49325 251.394251 
L 86.63565 251.394251 
L 93.77805 251.394251 
L 100.92045 251.394251 
L 108.06285 251.394251 
L 115.20525 251.394251 
L 122.34765 251.394251 
L 129.49005 251.394251 
L 136.63245 251.394251 
L 143.77485 251.394251 
L 150.91725 251.394251 
L 158.05965 251.394251 
L 165.20205 251.394251 
L 172.34445 251.394251 
L 179.48685 251.394251 
L 186.62925 251.394251 
L 193.77165 251.394251 
L 200.91405 251.394251 
L 208.05645 251.394251 
L 215.19885 251.394251 
L 222.34125 251.394251 
L 229.48365 251.394251 
L 236.62605 251.394251 
L 243.76845 251.394251 
L 250.91085 251.394251 
L 258.05325 251.394251 
L 265.19565 251.394251 
L 272.33805 251.394251 
L 279.48045 251.394251 
L 280.440491 251.394251 
L 279.48045 250.500019 
L 272.33805 243.847219 
L 265.19565 237.194419 
L 258.05325 230.541619 
L 258.05325 223.888819 
L 250.91085 223.888819 
L 243.76845 217.236019 
L 236.62605 210.583219 
L 229.48365 203.930419 
L 222.34125 197.277619 
L 215.19885 190.624819 
L 208.05645 183.972019 
L 200.91405 177.319219 
L 200.91405 170.666419 
L 193.77165 170.666419 
L 186.62925 164.013619 
L 186.62925 157.360819 
L 179.48685 157.360819 
L 172.34445 150.708019 
L 172.34445 144.055219 
L 165.20205 144.055219 
L 158.05965 137.402419 
L 158.05965 130.749619 
L 150.91725 130.749619 
L 143.77485 124.096819 
L 136.63245 117.444019 
L 129.49005 110.791219 
L 122.34765 104.138419 
L 115.20525 97.485619 
L 108.06285 90.832819 
L 100.92045 84.180019 
L 100.92045 77.527219 
L 93.77805 77.527219 
L 86.63565 70.874419 
L 79.49325 64.221619 
L 72.35085 57.568819 
L 65.20845 50.916019 
L 58.06605 44.263219 
L 58.06605 37.610419 
L 50.92365 37.610419 
L 43.78125 30.957619 
L 43.78125 37.610419 
L 43.78125 44.263219 
L 43.78125 50.916019 
L 43.78125 57.568819 
L 43.78125 64.221619 
L 43.78125 70.874419 
L 43.78125 77.527219 
L 43.78125 84.180019 
L 43.78125 90.832819 
L 43.78125 97.485619 
L 43.78125 104.138419 
L 43.78125 110.791219 
L 43.78125 117.444019 
L 43.78125 124.096819 
L 43.78125 130.749619 
L 43.78125 137.402419 
L 43.78125 144.055219 
L 43.78125 150.708019 
L 43.78125 157.360819 
L 43.78125 164.013619 
L 43.78125 170.666419 
L 43.78125 177.319219 
L 43.78125 183.972019 
L 43.78125 190.624819 
L 43.78125 197.277619 
L 43.78125 203.930419 
L 43.78125 210.583219 
L 43.78125 217.236019 
L 43.78125 223.888819 
L 43.78125 230.541619 
L 43.78125 237.194419 
L 43.78125 243.847219 
L 43.78125 250.500019 
L 43.78125 251.394251 
z
" clip-path="url(#p790e594db4)" style="fill: #75030f"/>
   </g>
   <g id="matplotlib.axis_1">
    <g id="xtick_1">
     <g id="line2d_1">
      <defs>
       <path id="m0f0e1dabd6" d="M 0 0 
L 0 3.5 
" style="stroke: #000000; stroke-width: 0.8"/>
      </defs>
      <g>
       <use xlink:href="#m0f0e1dabd6" x="43.78125" y="277.111219" style="stroke: #000000; stroke-width: 0.8"/>
      </g>
     </g>
     <g id="text_1">
      <!-- 0.0 -->
      <g transform="translate(35.829688 291.709656) scale(0.1 -0.1)">
       <defs>
        <path id="DejaVuSans-30" d="M 2034 4250 
Q 1547 4250 1301 3770 
Q 1056 3291 1056 2328 
Q 1056 1369 1301 889 
Q 1547 409 2034 409 
Q 2525 409 2770 889 
Q 3016 1369 3016 2328 
Q 3016 3291 2770 3770 
Q 2525 4250 2034 4250 
z
M 2034 4750 
Q 2819 4750 3233 4129 
Q 3647 3509 3647 2328 
Q 3647 1150 3233 529 
Q 2819 -91 2034 -91 
Q 1250 -91 836 529 
Q 422 1150 422 2328 
Q 422 3509 836 4129 
Q 1250 4750 2034 4750 
z
" transform="scale(0.015625)"/>
        <path id="DejaVuSans-2e" d="M 684 794 
L 1344 794 
L 1344 0 
L 684 0 
L 684 794 
z
" transform="scale(0.015625)"/>
       </defs>
       <use xlink:href="#DejaVuSans-30"/>
       <use xlink:href="#DejaVuSans-2e" x="63.623047"/>
       <use xlink:href="#DejaVuSans-30" x="95.410156"/>
      </g>
     </g>
    </g>
    <g id="xtick_2">
     <g id="line2d_2">
      <g>
       <use xlink:href="#m0f0e1dabd6" x="100.92045" y="277.111219" style="stroke: #000000; stroke-width: 0.8"/>
      </g>
     </g>
     <g id="text_2">
      <!-- 0.2 -->
      <g transform="translate(92.968888 291.709656) scale(0.1 -0.1)">
       <defs>
        <path id="DejaVuSans-32" d="M 1228 531 
L 3431 531 
L 3431 0 
L 469 0 
L 469 531 
Q 828 903 1448 1529 
Q 2069 2156 2228 2338 
Q 2531 2678 2651 2914 
Q 2772 3150 2772 3378 
Q 2772 3750 2511 3984 
Q 2250 4219 1831 4219 
Q 1534 4219 1204 4116 
Q 875 4013 500 3803 
L 500 4441 
Q 881 4594 1212 4672 
Q 1544 4750 1819 4750 
Q 2544 4750 2975 4387 
Q 3406 4025 3406 3419 
Q 3406 3131 3298 2873 
Q 3191 2616 2906 2266 
Q 2828 2175 2409 1742 
Q 1991 1309 1228 531 
z
" transform="scale(0.015625)"/>
       </defs>
       <use xlink:href="#DejaVuSans-30"/>
       <use xlink:href="#DejaVuSans-2e" x="63.623047"/>
       <use xlink:href="#DejaVuSans-32" x="95.410156"/>
      </g>
     </g>
    </g>
    <g id="xtick_3">
     <g id="line2d_3">
      <g>
       <use xlink:href="#m0f0e1dabd6" x="158.05965" y="277.111219" style="stroke: #000000; stroke-width: 0.8"/>
      </g>
     </g>
     <g id="text_3">
      <!-- 0.4 -->
      <g transform="translate(150.108088 291.709656) scale(0.1 -0.1)">
       <defs>
        <path id="DejaVuSans-34" d="M 2419 4116 
L 825 1625 
L 2419 1625 
L 2419 4116 
z
M 2253 4666 
L 3047 4666 
L 3047 1625 
L 3713 1625 
L 3713 1100 
L 3047 1100 
L 3047 0 
L 2419 0 
L 2419 1100 
L 313 1100 
L 313 1709 
L 2253 4666 
z
" transform="scale(0.015625)"/>
       </defs>
       <use xlink:href="#DejaVuSans-30"/>
       <use xlink:href="#DejaVuSans-2e" x="63.623047"/>
       <use xlink:href="#DejaVuSans-34" x="95.410156"/>
      </g>
     </g>
    </g>
    <g id="xtick_4">
     <g id="line2d_4">
      <g>
       <use xlink:href="#m0f0e1dabd6" x="215.19885" y="277.111219" style="stroke: #000000; stroke-width: 0.8"/>
      </g>
     </g>
     <g id="text_4">
      <!-- 0.6 -->
      <g transform="translate(207.247288 291.709656) scale(0.1 -0.1)">
       <defs>
        <path id="DejaVuSans-36" d="M 2113 2584 
Q 1688 2584 1439 2293 
Q 1191 2003 1191 1497 
Q 1191 994 1439 701 
Q 1688 409 2113 409 
Q 2538 409 2786 701 
Q 3034 994 3034 1497 
Q 3034 2003 2786 2293 
Q 2538 2584 2113 2584 
z
M 3366 4563 
L 3366 3988 
Q 3128 4100 2886 4159 
Q 2644 4219 2406 4219 
Q 1781 4219 1451 3797 
Q 1122 3375 1075 2522 
Q 1259 2794 1537 2939 
Q 1816 3084 2150 3084 
Q 2853 3084 3261 2657 
Q 3669 2231 3669 1497 
Q 3669 778 3244 343 
Q 2819 -91 2113 -91 
Q 1303 -91 875 529 
Q 447 1150 447 2328 
Q 447 3434 972 4092 
Q 1497 4750 2381 4750 
Q 2619 4750 2861 4703 
Q 3103 4656 3366 4563 
z
" transform="scale(0.015625)"/>
       </defs>
       <use xlink:href="#DejaVuSans-30"/>
       <use xlink:href="#DejaVuSans-2e" x="63.623047"/>
       <use xlink:href="#DejaVuSans-36" x="95.410156"/>
      </g>
     </g>
    </g>
    <g id="xtick_5">
     <g id="line2d_5">
      <g>
       <use xlink:href="#m0f0e1dabd6" x="272.33805" y="277.111219" style="stroke: #000000; stroke-width: 0.8"/>
      </g>
     </g>
     <g id="text_5">
      <!-- 0.8 -->
      <g transform="translate(264.386488 291.709656) scale(0.1 -0.1)">
       <defs>
        <path id="DejaVuSans-38" d="M 2034 2216 
Q 1584 2216 1326 1975 
Q 1069 1734 1069 1313 
Q 1069 891 1326 650 
Q 1584 409 2034 409 
Q 2484 409 2743 651 
Q 3003 894 3003 1313 
Q 3003 1734 2745 1975 
Q 2488 2216 2034 2216 
z
M 1403 2484 
Q 997 2584 770 2862 
Q 544 3141 544 3541 
Q 544 4100 942 4425 
Q 1341 4750 2034 4750 
Q 2731 4750 3128 4425 
Q 3525 4100 3525 3541 
Q 3525 3141 3298 2862 
Q 3072 2584 2669 2484 
Q 3125 2378 3379 2068 
Q 3634 1759 3634 1313 
Q 3634 634 3220 271 
Q 2806 -91 2034 -91 
Q 1263 -91 848 271 
Q 434 634 434 1313 
Q 434 1759 690 2068 
Q 947 2378 1403 2484 
z
M 1172 3481 
Q 1172 3119 1398 2916 
Q 1625 2713 2034 2713 
Q 2441 2713 2670 2916 
Q 2900 3119 2900 3481 
Q 2900 3844 2670 4047 
Q 2441 4250 2034 4250 
Q 1625 4250 1398 4047 
Q 1172 3844 1172 3481 
z
" transform="scale(0.015625)"/>
       </defs>
       <use xlink:href="#DejaVuSans-30"/>
       <use xlink:href="#DejaVuSans-2e" x="63.623047"/>
       <use xlink:href="#DejaVuSans-38" x="95.410156"/>
      </g>
     </g>
    </g>
    <g id="xtick_6">
     <g id="line2d_6">
      <g>
       <use xlink:href="#m0f0e1dabd6" x="329.47725" y="277.111219" style="stroke: #000000; stroke-width: 0.8"/>
      </g>
     </g>
     <g id="text_6">
      <!-- 1.0 -->
      <g transform="translate(321.525688 291.709656) scale(0.1 -0.1)">
       <defs>
        <path id="DejaVuSans-31" d="M 794 531 
L 1825 531 
L 1825 4091 
L 703 3866 
L 703 4441 
L 1819 4666 
L 2450 4666 
L 2450 531 
L 3481 531 
L 3481 0 
L 794 0 
L 794 531 
z
" transform="scale(0.015625)"/>
       </defs>
       <use xlink:href="#DejaVuSans-31"/>
       <use xlink:href="#DejaVuSans-2e" x="63.623047"/>
       <use xlink:href="#DejaVuSans-30" x="95.410156"/>
      </g>
     </g>
    </g>
    <g id="text_7">
     <!-- Equity in Vaccination Burden Multiplier (a) -->
     <g transform="translate(81.262844 305.387781) scale(0.1 -0.1)">
      <defs>
       <path id="DejaVuSans-45" d="M 628 4666 
L 3578 4666 
L 3578 4134 
L 1259 4134 
L 1259 2753 
L 3481 2753 
L 3481 2222 
L 1259 2222 
L 1259 531 
L 3634 531 
L 3634 0 
L 628 0 
L 628 4666 
z
" transform="scale(0.015625)"/>
       <path id="DejaVuSans-71" d="M 947 1747 
Q 947 1113 1208 752 
Q 1469 391 1925 391 
Q 2381 391 2643 752 
Q 2906 1113 2906 1747 
Q 2906 2381 2643 2742 
Q 2381 3103 1925 3103 
Q 1469 3103 1208 2742 
Q 947 2381 947 1747 
z
M 2906 525 
Q 2725 213 2448 61 
Q 2172 -91 1784 -91 
Q 1150 -91 751 415 
Q 353 922 353 1747 
Q 353 2572 751 3078 
Q 1150 3584 1784 3584 
Q 2172 3584 2448 3432 
Q 2725 3281 2906 2969 
L 2906 3500 
L 3481 3500 
L 3481 -1331 
L 2906 -1331 
L 2906 525 
z
" transform="scale(0.015625)"/>
       <path id="DejaVuSans-75" d="M 544 1381 
L 544 3500 
L 1119 3500 
L 1119 1403 
Q 1119 906 1312 657 
Q 1506 409 1894 409 
Q 2359 409 2629 706 
Q 2900 1003 2900 1516 
L 2900 3500 
L 3475 3500 
L 3475 0 
L 2900 0 
L 2900 538 
Q 2691 219 2414 64 
Q 2138 -91 1772 -91 
Q 1169 -91 856 284 
Q 544 659 544 1381 
z
M 1991 3584 
L 1991 3584 
z
" transform="scale(0.015625)"/>
       <path id="DejaVuSans-69" d="M 603 3500 
L 1178 3500 
L 1178 0 
L 603 0 
L 603 3500 
z
M 603 4863 
L 1178 4863 
L 1178 4134 
L 603 4134 
L 603 4863 
z
" transform="scale(0.015625)"/>
       <path id="DejaVuSans-74" d="M 1172 4494 
L 1172 3500 
L 2356 3500 
L 2356 3053 
L 1172 3053 
L 1172 1153 
Q 1172 725 1289 603 
Q 1406 481 1766 481 
L 2356 481 
L 2356 0 
L 1766 0 
Q 1100 0 847 248 
Q 594 497 594 1153 
L 594 3053 
L 172 3053 
L 172 3500 
L 594 3500 
L 594 4494 
L 1172 4494 
z
" transform="scale(0.015625)"/>
       <path id="DejaVuSans-79" d="M 2059 -325 
Q 1816 -950 1584 -1140 
Q 1353 -1331 966 -1331 
L 506 -1331 
L 506 -850 
L 844 -850 
Q 1081 -850 1212 -737 
Q 1344 -625 1503 -206 
L 1606 56 
L 191 3500 
L 800 3500 
L 1894 763 
L 2988 3500 
L 3597 3500 
L 2059 -325 
z
" transform="scale(0.015625)"/>
       <path id="DejaVuSans-20" transform="scale(0.015625)"/>
       <path id="DejaVuSans-6e" d="M 3513 2113 
L 3513 0 
L 2938 0 
L 2938 2094 
Q 2938 2591 2744 2837 
Q 2550 3084 2163 3084 
Q 1697 3084 1428 2787 
Q 1159 2491 1159 1978 
L 1159 0 
L 581 0 
L 581 3500 
L 1159 3500 
L 1159 2956 
Q 1366 3272 1645 3428 
Q 1925 3584 2291 3584 
Q 2894 3584 3203 3211 
Q 3513 2838 3513 2113 
z
" transform="scale(0.015625)"/>
       <path id="DejaVuSans-56" d="M 1831 0 
L 50 4666 
L 709 4666 
L 2188 738 
L 3669 4666 
L 4325 4666 
L 2547 0 
L 1831 0 
z
" transform="scale(0.015625)"/>
       <path id="DejaVuSans-61" d="M 2194 1759 
Q 1497 1759 1228 1600 
Q 959 1441 959 1056 
Q 959 750 1161 570 
Q 1363 391 1709 391 
Q 2188 391 2477 730 
Q 2766 1069 2766 1631 
L 2766 1759 
L 2194 1759 
z
M 3341 1997 
L 3341 0 
L 2766 0 
L 2766 531 
Q 2569 213 2275 61 
Q 1981 -91 1556 -91 
Q 1019 -91 701 211 
Q 384 513 384 1019 
Q 384 1609 779 1909 
Q 1175 2209 1959 2209 
L 2766 2209 
L 2766 2266 
Q 2766 2663 2505 2880 
Q 2244 3097 1772 3097 
Q 1472 3097 1187 3025 
Q 903 2953 641 2809 
L 641 3341 
Q 956 3463 1253 3523 
Q 1550 3584 1831 3584 
Q 2591 3584 2966 3190 
Q 3341 2797 3341 1997 
z
" transform="scale(0.015625)"/>
       <path id="DejaVuSans-63" d="M 3122 3366 
L 3122 2828 
Q 2878 2963 2633 3030 
Q 2388 3097 2138 3097 
Q 1578 3097 1268 2742 
Q 959 2388 959 1747 
Q 959 1106 1268 751 
Q 1578 397 2138 397 
Q 2388 397 2633 464 
Q 2878 531 3122 666 
L 3122 134 
Q 2881 22 2623 -34 
Q 2366 -91 2075 -91 
Q 1284 -91 818 406 
Q 353 903 353 1747 
Q 353 2603 823 3093 
Q 1294 3584 2113 3584 
Q 2378 3584 2631 3529 
Q 2884 3475 3122 3366 
z
" transform="scale(0.015625)"/>
       <path id="DejaVuSans-6f" d="M 1959 3097 
Q 1497 3097 1228 2736 
Q 959 2375 959 1747 
Q 959 1119 1226 758 
Q 1494 397 1959 397 
Q 2419 397 2687 759 
Q 2956 1122 2956 1747 
Q 2956 2369 2687 2733 
Q 2419 3097 1959 3097 
z
M 1959 3584 
Q 2709 3584 3137 3096 
Q 3566 2609 3566 1747 
Q 3566 888 3137 398 
Q 2709 -91 1959 -91 
Q 1206 -91 779 398 
Q 353 888 353 1747 
Q 353 2609 779 3096 
Q 1206 3584 1959 3584 
z
" transform="scale(0.015625)"/>
       <path id="DejaVuSans-42" d="M 1259 2228 
L 1259 519 
L 2272 519 
Q 2781 519 3026 730 
Q 3272 941 3272 1375 
Q 3272 1813 3026 2020 
Q 2781 2228 2272 2228 
L 1259 2228 
z
M 1259 4147 
L 1259 2741 
L 2194 2741 
Q 2656 2741 2882 2914 
Q 3109 3088 3109 3444 
Q 3109 3797 2882 3972 
Q 2656 4147 2194 4147 
L 1259 4147 
z
M 628 4666 
L 2241 4666 
Q 2963 4666 3353 4366 
Q 3744 4066 3744 3513 
Q 3744 3084 3544 2831 
Q 3344 2578 2956 2516 
Q 3422 2416 3680 2098 
Q 3938 1781 3938 1306 
Q 3938 681 3513 340 
Q 3088 0 2303 0 
L 628 0 
L 628 4666 
z
" transform="scale(0.015625)"/>
       <path id="DejaVuSans-72" d="M 2631 2963 
Q 2534 3019 2420 3045 
Q 2306 3072 2169 3072 
Q 1681 3072 1420 2755 
Q 1159 2438 1159 1844 
L 1159 0 
L 581 0 
L 581 3500 
L 1159 3500 
L 1159 2956 
Q 1341 3275 1631 3429 
Q 1922 3584 2338 3584 
Q 2397 3584 2469 3576 
Q 2541 3569 2628 3553 
L 2631 2963 
z
" transform="scale(0.015625)"/>
       <path id="DejaVuSans-64" d="M 2906 2969 
L 2906 4863 
L 3481 4863 
L 3481 0 
L 2906 0 
L 2906 525 
Q 2725 213 2448 61 
Q 2172 -91 1784 -91 
Q 1150 -91 751 415 
Q 353 922 353 1747 
Q 353 2572 751 3078 
Q 1150 3584 1784 3584 
Q 2172 3584 2448 3432 
Q 2725 3281 2906 2969 
z
M 947 1747 
Q 947 1113 1208 752 
Q 1469 391 1925 391 
Q 2381 391 2643 752 
Q 2906 1113 2906 1747 
Q 2906 2381 2643 2742 
Q 2381 3103 1925 3103 
Q 1469 3103 1208 2742 
Q 947 2381 947 1747 
z
" transform="scale(0.015625)"/>
       <path id="DejaVuSans-65" d="M 3597 1894 
L 3597 1613 
L 953 1613 
Q 991 1019 1311 708 
Q 1631 397 2203 397 
Q 2534 397 2845 478 
Q 3156 559 3463 722 
L 3463 178 
Q 3153 47 2828 -22 
Q 2503 -91 2169 -91 
Q 1331 -91 842 396 
Q 353 884 353 1716 
Q 353 2575 817 3079 
Q 1281 3584 2069 3584 
Q 2775 3584 3186 3129 
Q 3597 2675 3597 1894 
z
M 3022 2063 
Q 3016 2534 2758 2815 
Q 2500 3097 2075 3097 
Q 1594 3097 1305 2825 
Q 1016 2553 972 2059 
L 3022 2063 
z
" transform="scale(0.015625)"/>
       <path id="DejaVuSans-4d" d="M 628 4666 
L 1569 4666 
L 2759 1491 
L 3956 4666 
L 4897 4666 
L 4897 0 
L 4281 0 
L 4281 4097 
L 3078 897 
L 2444 897 
L 1241 4097 
L 1241 0 
L 628 0 
L 628 4666 
z
" transform="scale(0.015625)"/>
       <path id="DejaVuSans-6c" d="M 603 4863 
L 1178 4863 
L 1178 0 
L 603 0 
L 603 4863 
z
" transform="scale(0.015625)"/>
       <path id="DejaVuSans-70" d="M 1159 525 
L 1159 -1331 
L 581 -1331 
L 581 3500 
L 1159 3500 
L 1159 2969 
Q 1341 3281 1617 3432 
Q 1894 3584 2278 3584 
Q 2916 3584 3314 3078 
Q 3713 2572 3713 1747 
Q 3713 922 3314 415 
Q 2916 -91 2278 -91 
Q 1894 -91 1617 61 
Q 1341 213 1159 525 
z
M 3116 1747 
Q 3116 2381 2855 2742 
Q 2594 3103 2138 3103 
Q 1681 3103 1420 2742 
Q 1159 2381 1159 1747 
Q 1159 1113 1420 752 
Q 1681 391 2138 391 
Q 2594 391 2855 752 
Q 3116 1113 3116 1747 
z
" transform="scale(0.015625)"/>
       <path id="DejaVuSans-28" d="M 1984 4856 
Q 1566 4138 1362 3434 
Q 1159 2731 1159 2009 
Q 1159 1288 1364 580 
Q 1569 -128 1984 -844 
L 1484 -844 
Q 1016 -109 783 600 
Q 550 1309 550 2009 
Q 550 2706 781 3412 
Q 1013 4119 1484 4856 
L 1984 4856 
z
" transform="scale(0.015625)"/>
       <path id="DejaVuSans-29" d="M 513 4856 
L 1013 4856 
Q 1481 4119 1714 3412 
Q 1947 2706 1947 2009 
Q 1947 1309 1714 600 
Q 1481 -109 1013 -844 
L 513 -844 
Q 928 -128 1133 580 
Q 1338 1288 1338 2009 
Q 1338 2731 1133 3434 
Q 928 4138 513 4856 
z
" transform="scale(0.015625)"/>
      </defs>
      <use xlink:href="#DejaVuSans-45"/>
      <use xlink:href="#DejaVuSans-71" x="63.183594"/>
      <use xlink:href="#DejaVuSans-75" x="126.660156"/>
      <use xlink:href="#DejaVuSans-69" x="190.039062"/>
      <use xlink:href="#DejaVuSans-74" x="217.822266"/>
      <use xlink:href="#DejaVuSans-79" x="257.03125"/>
      <use xlink:href="#DejaVuSans-20" x="316.210938"/>
      <use xlink:href="#DejaVuSans-69" x="347.998047"/>
      <use xlink:href="#DejaVuSans-6e" x="375.78125"/>
      <use xlink:href="#DejaVuSans-20" x="439.160156"/>
      <use xlink:href="#DejaVuSans-56" x="470.947266"/>
      <use xlink:href="#DejaVuSans-61" x="531.605469"/>
      <use xlink:href="#DejaVuSans-63" x="592.884766"/>
      <use xlink:href="#DejaVuSans-63" x="647.865234"/>
      <use xlink:href="#DejaVuSans-69" x="702.845703"/>
      <use xlink:href="#DejaVuSans-6e" x="730.628906"/>
      <use xlink:href="#DejaVuSans-61" x="794.007812"/>
      <use xlink:href="#DejaVuSans-74" x="855.287109"/>
      <use xlink:href="#DejaVuSans-69" x="894.496094"/>
      <use xlink:href="#DejaVuSans-6f" x="922.279297"/>
      <use xlink:href="#DejaVuSans-6e" x="983.460938"/>
      <use xlink:href="#DejaVuSans-20" x="1046.839844"/>
      <use xlink:href="#DejaVuSans-42" x="1078.626953"/>
      <use xlink:href="#DejaVuSans-75" x="1147.230469"/>
      <use xlink:href="#DejaVuSans-72" x="1210.609375"/>
      <use xlink:href="#DejaVuSans-64" x="1249.972656"/>
      <use xlink:href="#DejaVuSans-65" x="1313.449219"/>
      <use xlink:href="#DejaVuSans-6e" x="1374.972656"/>
      <use xlink:href="#DejaVuSans-20" x="1438.351562"/>
      <use xlink:href="#DejaVuSans-4d" x="1470.138672"/>
      <use xlink:href="#DejaVuSans-75" x="1556.417969"/>
      <use xlink:href="#DejaVuSans-6c" x="1619.796875"/>
      <use xlink:href="#DejaVuSans-74" x="1647.580078"/>
      <use xlink:href="#DejaVuSans-69" x="1686.789062"/>
      <use xlink:href="#DejaVuSans-70" x="1714.572266"/>
      <use xlink:href="#DejaVuSans-6c" x="1778.048828"/>
      <use xlink:href="#DejaVuSans-69" x="1805.832031"/>
      <use xlink:href="#DejaVuSans-65" x="1833.615234"/>
      <use xlink:href="#DejaVuSans-72" x="1895.138672"/>
      <use xlink:href="#DejaVuSans-20" x="1936.251953"/>
      <use xlink:href="#DejaVuSans-28" x="1968.039062"/>
      <use xlink:href="#DejaVuSans-61" x="2007.052734"/>
      <use xlink:href="#DejaVuSans-29" x="2068.332031"/>
     </g>
    </g>
   </g>
   <g id="matplotlib.axis_2">
    <g id="ytick_1">
     <g id="line2d_7">
      <defs>
       <path id="m25e023baca" d="M 0 0 
L -3.5 0 
" style="stroke: #000000; stroke-width: 0.8"/>
      </defs>
      <g>
       <use xlink:href="#m25e023baca" x="43.78125" y="277.111219" style="stroke: #000000; stroke-width: 0.8"/>
      </g>
     </g>
     <g id="text_8">
      <!-- 0.0 -->
      <g transform="translate(20.878125 280.910437) scale(0.1 -0.1)">
       <use xlink:href="#DejaVuSans-30"/>
       <use xlink:href="#DejaVuSans-2e" x="63.623047"/>
       <use xlink:href="#DejaVuSans-30" x="95.410156"/>
      </g>
     </g>
    </g>
    <g id="ytick_2">
     <g id="line2d_8">
      <g>
       <use xlink:href="#m25e023baca" x="43.78125" y="223.888819" style="stroke: #000000; stroke-width: 0.8"/>
      </g>
     </g>
     <g id="text_9">
      <!-- 0.2 -->
      <g transform="translate(20.878125 227.688037) scale(0.1 -0.1)">
       <use xlink:href="#DejaVuSans-30"/>
       <use xlink:href="#DejaVuSans-2e" x="63.623047"/>
       <use xlink:href="#DejaVuSans-32" x="95.410156"/>
      </g>
     </g>
    </g>
    <g id="ytick_3">
     <g id="line2d_9">
      <g>
       <use xlink:href="#m25e023baca" x="43.78125" y="170.666419" style="stroke: #000000; stroke-width: 0.8"/>
      </g>
     </g>
     <g id="text_10">
      <!-- 0.4 -->
      <g transform="translate(20.878125 174.465637) scale(0.1 -0.1)">
       <use xlink:href="#DejaVuSans-30"/>
       <use xlink:href="#DejaVuSans-2e" x="63.623047"/>
       <use xlink:href="#DejaVuSans-34" x="95.410156"/>
      </g>
     </g>
    </g>
    <g id="ytick_4">
     <g id="line2d_10">
      <g>
       <use xlink:href="#m25e023baca" x="43.78125" y="117.444019" style="stroke: #000000; stroke-width: 0.8"/>
      </g>
     </g>
     <g id="text_11">
      <!-- 0.6 -->
      <g transform="translate(20.878125 121.243237) scale(0.1 -0.1)">
       <use xlink:href="#DejaVuSans-30"/>
       <use xlink:href="#DejaVuSans-2e" x="63.623047"/>
       <use xlink:href="#DejaVuSans-36" x="95.410156"/>
      </g>
     </g>
    </g>
    <g id="ytick_5">
     <g id="line2d_11">
      <g>
       <use xlink:href="#m25e023baca" x="43.78125" y="64.221619" style="stroke: #000000; stroke-width: 0.8"/>
      </g>
     </g>
     <g id="text_12">
      <!-- 0.8 -->
      <g transform="translate(20.878125 68.020837) scale(0.1 -0.1)">
       <use xlink:href="#DejaVuSans-30"/>
       <use xlink:href="#DejaVuSans-2e" x="63.623047"/>
       <use xlink:href="#DejaVuSans-38" x="95.410156"/>
      </g>
     </g>
    </g>
    <g id="ytick_6">
     <g id="line2d_12">
      <g>
       <use xlink:href="#m25e023baca" x="43.78125" y="10.999219" style="stroke: #000000; stroke-width: 0.8"/>
      </g>
     </g>
     <g id="text_13">
      <!-- 1.0 -->
      <g transform="translate(20.878125 14.798437) scale(0.1 -0.1)">
       <use xlink:href="#DejaVuSans-31"/>
       <use xlink:href="#DejaVuSans-2e" x="63.623047"/>
       <use xlink:href="#DejaVuSans-30" x="95.410156"/>
      </g>
     </g>
    </g>
    <g id="text_14">
     <!-- Equity in Infection Burden Multiplier (b) -->
     <g transform="translate(14.798438 242.544281) rotate(-90) scale(0.1 -0.1)">
      <defs>
       <path id="DejaVuSans-49" d="M 628 4666 
L 1259 4666 
L 1259 0 
L 628 0 
L 628 4666 
z
" transform="scale(0.015625)"/>
       <path id="DejaVuSans-66" d="M 2375 4863 
L 2375 4384 
L 1825 4384 
Q 1516 4384 1395 4259 
Q 1275 4134 1275 3809 
L 1275 3500 
L 2222 3500 
L 2222 3053 
L 1275 3053 
L 1275 0 
L 697 0 
L 697 3053 
L 147 3053 
L 147 3500 
L 697 3500 
L 697 3744 
Q 697 4328 969 4595 
Q 1241 4863 1831 4863 
L 2375 4863 
z
" transform="scale(0.015625)"/>
       <path id="DejaVuSans-62" d="M 3116 1747 
Q 3116 2381 2855 2742 
Q 2594 3103 2138 3103 
Q 1681 3103 1420 2742 
Q 1159 2381 1159 1747 
Q 1159 1113 1420 752 
Q 1681 391 2138 391 
Q 2594 391 2855 752 
Q 3116 1113 3116 1747 
z
M 1159 2969 
Q 1341 3281 1617 3432 
Q 1894 3584 2278 3584 
Q 2916 3584 3314 3078 
Q 3713 2572 3713 1747 
Q 3713 922 3314 415 
Q 2916 -91 2278 -91 
Q 1894 -91 1617 61 
Q 1341 213 1159 525 
L 1159 0 
L 581 0 
L 581 4863 
L 1159 4863 
L 1159 2969 
z
" transform="scale(0.015625)"/>
      </defs>
      <use xlink:href="#DejaVuSans-45"/>
      <use xlink:href="#DejaVuSans-71" x="63.183594"/>
      <use xlink:href="#DejaVuSans-75" x="126.660156"/>
      <use xlink:href="#DejaVuSans-69" x="190.039062"/>
      <use xlink:href="#DejaVuSans-74" x="217.822266"/>
      <use xlink:href="#DejaVuSans-79" x="257.03125"/>
      <use xlink:href="#DejaVuSans-20" x="316.210938"/>
      <use xlink:href="#DejaVuSans-69" x="347.998047"/>
      <use xlink:href="#DejaVuSans-6e" x="375.78125"/>
      <use xlink:href="#DejaVuSans-20" x="439.160156"/>
      <use xlink:href="#DejaVuSans-49" x="470.947266"/>
      <use xlink:href="#DejaVuSans-6e" x="500.439453"/>
      <use xlink:href="#DejaVuSans-66" x="563.818359"/>
      <use xlink:href="#DejaVuSans-65" x="599.023438"/>
      <use xlink:href="#DejaVuSans-63" x="660.546875"/>
      <use xlink:href="#DejaVuSans-74" x="715.527344"/>
      <use xlink:href="#DejaVuSans-69" x="754.736328"/>
      <use xlink:href="#DejaVuSans-6f" x="782.519531"/>
      <use xlink:href="#DejaVuSans-6e" x="843.701172"/>
      <use xlink:href="#DejaVuSans-20" x="907.080078"/>
      <use xlink:href="#DejaVuSans-42" x="938.867188"/>
      <use xlink:href="#DejaVuSans-75" x="1007.470703"/>
      <use xlink:href="#DejaVuSans-72" x="1070.849609"/>
      <use xlink:href="#DejaVuSans-64" x="1110.212891"/>
      <use xlink:href="#DejaVuSans-65" x="1173.689453"/>
      <use xlink:href="#DejaVuSans-6e" x="1235.212891"/>
      <use xlink:href="#DejaVuSans-20" x="1298.591797"/>
      <use xlink:href="#DejaVuSans-4d" x="1330.378906"/>
      <use xlink:href="#DejaVuSans-75" x="1416.658203"/>
      <use xlink:href="#DejaVuSans-6c" x="1480.037109"/>
      <use xlink:href="#DejaVuSans-74" x="1507.820312"/>
      <use xlink:href="#DejaVuSans-69" x="1547.029297"/>
      <use xlink:href="#DejaVuSans-70" x="1574.8125"/>
      <use xlink:href="#DejaVuSans-6c" x="1638.289062"/>
      <use xlink:href="#DejaVuSans-69" x="1666.072266"/>
      <use xlink:href="#DejaVuSans-65" x="1693.855469"/>
      <use xlink:href="#DejaVuSans-72" x="1755.378906"/>
      <use xlink:href="#DejaVuSans-20" x="1796.492188"/>
      <use xlink:href="#DejaVuSans-28" x="1828.279297"/>
      <use xlink:href="#DejaVuSans-62" x="1867.292969"/>
      <use xlink:href="#DejaVuSans-29" x="1930.769531"/>
     </g>
    </g>
   </g>
   <g id="patch_3">
    <path d="M 43.78125 277.111219 
L 43.78125 10.999219 
" style="fill: none; stroke: #000000; stroke-width: 0.8; stroke-linejoin: miter; stroke-linecap: square"/>
   </g>
   <g id="patch_4">
    <path d="M 329.47725 277.111219 
L 329.47725 10.999219 
" style="fill: none; stroke: #000000; stroke-width: 0.8; stroke-linejoin: miter; stroke-linecap: square"/>
   </g>
   <g id="patch_5">
    <path d="M 43.78125 277.111219 
L 329.47725 277.111219 
" style="fill: none; stroke: #000000; stroke-width: 0.8; stroke-linejoin: miter; stroke-linecap: square"/>
   </g>
   <g id="patch_6">
    <path d="M 43.78125 10.999219 
L 329.47725 10.999219 
" style="fill: none; stroke: #000000; stroke-width: 0.8; stroke-linejoin: miter; stroke-linecap: square"/>
   </g>
  </g>
  <g id="axes_2">
   <g id="patch_7">
    <path d="M 347.33325 277.111219 
L 360.63885 277.111219 
L 360.63885 10.999219 
L 347.33325 10.999219 
z
" style="fill: #ffffff"/>
   </g>
   <g id="QuadMesh_1">
    <path d="M 347.33325 277.111219 
L 360.63885 277.111219 
L 360.63885 260.479219 
L 347.33325 260.479219 
L 347.33325 277.111219 
" clip-path="url(#p7c3dc9a7e9)" style="fill: #fff0e8"/>
    <path d="M 347.33325 260.479219 
L 360.63885 260.479219 
L 360.63885 243.847219 
L 347.33325 243.847219 
L 347.33325 260.479219 
" clip-path="url(#p7c3dc9a7e9)" style="fill: #fee5d9"/>
    <path d="M 347.33325 243.847219 
L 360.63885 243.847219 
L 360.63885 227.215219 
L 347.33325 227.215219 
L 347.33325 243.847219 
" clip-path="url(#p7c3dc9a7e9)" style="fill: #fdd7c6"/>
    <path d="M 347.33325 227.215219 
L 360.63885 227.215219 
L 360.63885 210.583219 
L 347.33325 210.583219 
L 347.33325 227.215219 
" clip-path="url(#p7c3dc9a7e9)" style="fill: #fcc4ad"/>
    <path d="M 347.33325 210.583219 
L 360.63885 210.583219 
L 360.63885 193.951219 
L 347.33325 193.951219 
L 347.33325 210.583219 
" clip-path="url(#p7c3dc9a7e9)" style="fill: #fcb095"/>
    <path d="M 347.33325 193.951219 
L 360.63885 193.951219 
L 360.63885 177.319219 
L 347.33325 177.319219 
L 347.33325 193.951219 
" clip-path="url(#p7c3dc9a7e9)" style="fill: #fc9c7d"/>
    <path d="M 347.33325 177.319219 
L 360.63885 177.319219 
L 360.63885 160.687219 
L 347.33325 160.687219 
L 347.33325 177.319219 
" clip-path="url(#p7c3dc9a7e9)" style="fill: #fc8767"/>
    <path d="M 347.33325 160.687219 
L 360.63885 160.687219 
L 360.63885 144.055219 
L 347.33325 144.055219 
L 347.33325 160.687219 
" clip-path="url(#p7c3dc9a7e9)" style="fill: #fb7353"/>
    <path d="M 347.33325 144.055219 
L 360.63885 144.055219 
L 360.63885 127.423219 
L 347.33325 127.423219 
L 347.33325 144.055219 
" clip-path="url(#p7c3dc9a7e9)" style="fill: #f85d42"/>
    <path d="M 347.33325 127.423219 
L 360.63885 127.423219 
L 360.63885 110.791219 
L 347.33325 110.791219 
L 347.33325 127.423219 
" clip-path="url(#p7c3dc9a7e9)" style="fill: #f24633"/>
    <path d="M 347.33325 110.791219 
L 360.63885 110.791219 
L 360.63885 94.159219 
L 347.33325 94.159219 
L 347.33325 110.791219 
" clip-path="url(#p7c3dc9a7e9)" style="fill: #e53228"/>
    <path d="M 347.33325 94.159219 
L 360.63885 94.159219 
L 360.63885 77.527219 
L 347.33325 77.527219 
L 347.33325 94.159219 
" clip-path="url(#p7c3dc9a7e9)" style="fill: #d32020"/>
    <path d="M 347.33325 77.527219 
L 360.63885 77.527219 
L 360.63885 60.895219 
L 347.33325 60.895219 
L 347.33325 77.527219 
" clip-path="url(#p7c3dc9a7e9)" style="fill: #c1161b"/>
    <path d="M 347.33325 60.895219 
L 360.63885 60.895219 
L 360.63885 44.263219 
L 347.33325 44.263219 
L 347.33325 60.895219 
" clip-path="url(#p7c3dc9a7e9)" style="fill: #ad1117"/>
    <path d="M 347.33325 44.263219 
L 360.63885 44.263219 
L 360.63885 27.631219 
L 347.33325 27.631219 
L 347.33325 44.263219 
" clip-path="url(#p7c3dc9a7e9)" style="fill: #940b13"/>
    <path d="M 347.33325 27.631219 
L 360.63885 27.631219 
L 360.63885 10.999219 
L 347.33325 10.999219 
L 347.33325 27.631219 
" clip-path="url(#p7c3dc9a7e9)" style="fill: #75030f"/>
   </g>
   <g id="matplotlib.axis_3"/>
   <g id="matplotlib.axis_4">
    <g id="ytick_7">
     <g id="line2d_13">
      <defs>
       <path id="m84eaa869c8" d="M 0 0 
L 3.5 0 
" style="stroke: #000000; stroke-width: 0.8"/>
      </defs>
      <g>
       <use xlink:href="#m84eaa869c8" x="360.63885" y="277.111219" style="stroke: #000000; stroke-width: 0.8"/>
      </g>
     </g>
     <g id="text_15">
      <!-- 0 -->
      <g transform="translate(367.63885 280.910437) scale(0.1 -0.1)">
       <use xlink:href="#DejaVuSans-30"/>
      </g>
     </g>
    </g>
    <g id="ytick_8">
     <g id="line2d_14">
      <g>
       <use xlink:href="#m84eaa869c8" x="360.63885" y="243.847219" style="stroke: #000000; stroke-width: 0.8"/>
      </g>
     </g>
     <g id="text_16">
      <!-- 5000 -->
      <g transform="translate(367.63885 247.646437) scale(0.1 -0.1)">
       <defs>
        <path id="DejaVuSans-35" d="M 691 4666 
L 3169 4666 
L 3169 4134 
L 1269 4134 
L 1269 2991 
Q 1406 3038 1543 3061 
Q 1681 3084 1819 3084 
Q 2600 3084 3056 2656 
Q 3513 2228 3513 1497 
Q 3513 744 3044 326 
Q 2575 -91 1722 -91 
Q 1428 -91 1123 -41 
Q 819 9 494 109 
L 494 744 
Q 775 591 1075 516 
Q 1375 441 1709 441 
Q 2250 441 2565 725 
Q 2881 1009 2881 1497 
Q 2881 1984 2565 2268 
Q 2250 2553 1709 2553 
Q 1456 2553 1204 2497 
Q 953 2441 691 2322 
L 691 4666 
z
" transform="scale(0.015625)"/>
       </defs>
       <use xlink:href="#DejaVuSans-35"/>
       <use xlink:href="#DejaVuSans-30" x="63.623047"/>
       <use xlink:href="#DejaVuSans-30" x="127.246094"/>
       <use xlink:href="#DejaVuSans-30" x="190.869141"/>
      </g>
     </g>
    </g>
    <g id="ytick_9">
     <g id="line2d_15">
      <g>
       <use xlink:href="#m84eaa869c8" x="360.63885" y="210.583219" style="stroke: #000000; stroke-width: 0.8"/>
      </g>
     </g>
     <g id="text_17">
      <!-- 10000 -->
      <g transform="translate(367.63885 214.382437) scale(0.1 -0.1)">
       <use xlink:href="#DejaVuSans-31"/>
       <use xlink:href="#DejaVuSans-30" x="63.623047"/>
       <use xlink:href="#DejaVuSans-30" x="127.246094"/>
       <use xlink:href="#DejaVuSans-30" x="190.869141"/>
       <use xlink:href="#DejaVuSans-30" x="254.492188"/>
      </g>
     </g>
    </g>
    <g id="ytick_10">
     <g id="line2d_16">
      <g>
       <use xlink:href="#m84eaa869c8" x="360.63885" y="177.319219" style="stroke: #000000; stroke-width: 0.8"/>
      </g>
     </g>
     <g id="text_18">
      <!-- 15000 -->
      <g transform="translate(367.63885 181.118437) scale(0.1 -0.1)">
       <use xlink:href="#DejaVuSans-31"/>
       <use xlink:href="#DejaVuSans-35" x="63.623047"/>
       <use xlink:href="#DejaVuSans-30" x="127.246094"/>
       <use xlink:href="#DejaVuSans-30" x="190.869141"/>
       <use xlink:href="#DejaVuSans-30" x="254.492188"/>
      </g>
     </g>
    </g>
    <g id="ytick_11">
     <g id="line2d_17">
      <g>
       <use xlink:href="#m84eaa869c8" x="360.63885" y="144.055219" style="stroke: #000000; stroke-width: 0.8"/>
      </g>
     </g>
     <g id="text_19">
      <!-- 20000 -->
      <g transform="translate(367.63885 147.854437) scale(0.1 -0.1)">
       <use xlink:href="#DejaVuSans-32"/>
       <use xlink:href="#DejaVuSans-30" x="63.623047"/>
       <use xlink:href="#DejaVuSans-30" x="127.246094"/>
       <use xlink:href="#DejaVuSans-30" x="190.869141"/>
       <use xlink:href="#DejaVuSans-30" x="254.492188"/>
      </g>
     </g>
    </g>
    <g id="ytick_12">
     <g id="line2d_18">
      <g>
       <use xlink:href="#m84eaa869c8" x="360.63885" y="110.791219" style="stroke: #000000; stroke-width: 0.8"/>
      </g>
     </g>
     <g id="text_20">
      <!-- 25000 -->
      <g transform="translate(367.63885 114.590437) scale(0.1 -0.1)">
       <use xlink:href="#DejaVuSans-32"/>
       <use xlink:href="#DejaVuSans-35" x="63.623047"/>
       <use xlink:href="#DejaVuSans-30" x="127.246094"/>
       <use xlink:href="#DejaVuSans-30" x="190.869141"/>
       <use xlink:href="#DejaVuSans-30" x="254.492188"/>
      </g>
     </g>
    </g>
    <g id="ytick_13">
     <g id="line2d_19">
      <g>
       <use xlink:href="#m84eaa869c8" x="360.63885" y="77.527219" style="stroke: #000000; stroke-width: 0.8"/>
      </g>
     </g>
     <g id="text_21">
      <!-- 30000 -->
      <g transform="translate(367.63885 81.326437) scale(0.1 -0.1)">
       <defs>
        <path id="DejaVuSans-33" d="M 2597 2516 
Q 3050 2419 3304 2112 
Q 3559 1806 3559 1356 
Q 3559 666 3084 287 
Q 2609 -91 1734 -91 
Q 1441 -91 1130 -33 
Q 819 25 488 141 
L 488 750 
Q 750 597 1062 519 
Q 1375 441 1716 441 
Q 2309 441 2620 675 
Q 2931 909 2931 1356 
Q 2931 1769 2642 2001 
Q 2353 2234 1838 2234 
L 1294 2234 
L 1294 2753 
L 1863 2753 
Q 2328 2753 2575 2939 
Q 2822 3125 2822 3475 
Q 2822 3834 2567 4026 
Q 2313 4219 1838 4219 
Q 1578 4219 1281 4162 
Q 984 4106 628 3988 
L 628 4550 
Q 988 4650 1302 4700 
Q 1616 4750 1894 4750 
Q 2613 4750 3031 4423 
Q 3450 4097 3450 3541 
Q 3450 3153 3228 2886 
Q 3006 2619 2597 2516 
z
" transform="scale(0.015625)"/>
       </defs>
       <use xlink:href="#DejaVuSans-33"/>
       <use xlink:href="#DejaVuSans-30" x="63.623047"/>
       <use xlink:href="#DejaVuSans-30" x="127.246094"/>
       <use xlink:href="#DejaVuSans-30" x="190.869141"/>
       <use xlink:href="#DejaVuSans-30" x="254.492188"/>
      </g>
     </g>
    </g>
    <g id="ytick_14">
     <g id="line2d_20">
      <g>
       <use xlink:href="#m84eaa869c8" x="360.63885" y="44.263219" style="stroke: #000000; stroke-width: 0.8"/>
      </g>
     </g>
     <g id="text_22">
      <!-- 35000 -->
      <g transform="translate(367.63885 48.062437) scale(0.1 -0.1)">
       <use xlink:href="#DejaVuSans-33"/>
       <use xlink:href="#DejaVuSans-35" x="63.623047"/>
       <use xlink:href="#DejaVuSans-30" x="127.246094"/>
       <use xlink:href="#DejaVuSans-30" x="190.869141"/>
       <use xlink:href="#DejaVuSans-30" x="254.492188"/>
      </g>
     </g>
    </g>
    <g id="ytick_15">
     <g id="line2d_21">
      <g>
       <use xlink:href="#m84eaa869c8" x="360.63885" y="10.999219" style="stroke: #000000; stroke-width: 0.8"/>
      </g>
     </g>
     <g id="text_23">
      <!-- 40000 -->
      <g transform="translate(367.63885 14.798437) scale(0.1 -0.1)">
       <use xlink:href="#DejaVuSans-34"/>
       <use xlink:href="#DejaVuSans-30" x="63.623047"/>
       <use xlink:href="#DejaVuSans-30" x="127.246094"/>
       <use xlink:href="#DejaVuSans-30" x="190.869141"/>
       <use xlink:href="#DejaVuSans-30" x="254.492188"/>
      </g>
     </g>
    </g>
    <g id="text_24">
     <!-- Total Clinical Burden -->
     <g transform="translate(411.049788 194.926312) rotate(-90) scale(0.1 -0.1)">
      <defs>
       <path id="DejaVuSans-54" d="M -19 4666 
L 3928 4666 
L 3928 4134 
L 2272 4134 
L 2272 0 
L 1638 0 
L 1638 4134 
L -19 4134 
L -19 4666 
z
" transform="scale(0.015625)"/>
       <path id="DejaVuSans-43" d="M 4122 4306 
L 4122 3641 
Q 3803 3938 3442 4084 
Q 3081 4231 2675 4231 
Q 1875 4231 1450 3742 
Q 1025 3253 1025 2328 
Q 1025 1406 1450 917 
Q 1875 428 2675 428 
Q 3081 428 3442 575 
Q 3803 722 4122 1019 
L 4122 359 
Q 3791 134 3420 21 
Q 3050 -91 2638 -91 
Q 1578 -91 968 557 
Q 359 1206 359 2328 
Q 359 3453 968 4101 
Q 1578 4750 2638 4750 
Q 3056 4750 3426 4639 
Q 3797 4528 4122 4306 
z
" transform="scale(0.015625)"/>
      </defs>
      <use xlink:href="#DejaVuSans-54"/>
      <use xlink:href="#DejaVuSans-6f" x="44.083984"/>
      <use xlink:href="#DejaVuSans-74" x="105.265625"/>
      <use xlink:href="#DejaVuSans-61" x="144.474609"/>
      <use xlink:href="#DejaVuSans-6c" x="205.753906"/>
      <use xlink:href="#DejaVuSans-20" x="233.537109"/>
      <use xlink:href="#DejaVuSans-43" x="265.324219"/>
      <use xlink:href="#DejaVuSans-6c" x="335.148438"/>
      <use xlink:href="#DejaVuSans-69" x="362.931641"/>
      <use xlink:href="#DejaVuSans-6e" x="390.714844"/>
      <use xlink:href="#DejaVuSans-69" x="454.09375"/>
      <use xlink:href="#DejaVuSans-63" x="481.876953"/>
      <use xlink:href="#DejaVuSans-61" x="536.857422"/>
      <use xlink:href="#DejaVuSans-6c" x="598.136719"/>
      <use xlink:href="#DejaVuSans-20" x="625.919922"/>
      <use xlink:href="#DejaVuSans-42" x="657.707031"/>
      <use xlink:href="#DejaVuSans-75" x="726.310547"/>
      <use xlink:href="#DejaVuSans-72" x="789.689453"/>
      <use xlink:href="#DejaVuSans-64" x="829.052734"/>
      <use xlink:href="#DejaVuSans-65" x="892.529297"/>
      <use xlink:href="#DejaVuSans-6e" x="954.052734"/>
     </g>
    </g>
   </g>
   <g id="LineCollection_1"/>
   <g id="patch_8">
    <path d="M 347.33325 277.111219 
L 353.98605 277.111219 
L 360.63885 277.111219 
L 360.63885 10.999219 
L 353.98605 10.999219 
L 347.33325 10.999219 
L 347.33325 277.111219 
z
" style="fill: none; stroke: #000000; stroke-width: 0.8; stroke-linejoin: miter; stroke-linecap: square"/>
   </g>
  </g>
 </g>
 <defs>
  <clipPath id="p790e594db4">
   <rect x="43.78125" y="10.999219" width="285.696" height="266.112"/>
  </clipPath>
  <clipPath id="p7c3dc9a7e9">
   <rect x="347.33325" y="10.999219" width="13.3056" height="266.112"/>
  </clipPath>
 </defs>
</svg>
