<?xml version="1.0" encoding="utf-8" standalone="no"?>
<!DOCTYPE svg PUBLIC "-//W3C//DTD SVG 1.1//EN"
  "http://www.w3.org/Graphics/SVG/1.1/DTD/svg11.dtd">
<svg xmlns:xlink="http://www.w3.org/1999/xlink" width="404.4201pt" height="314.667469pt" viewBox="0 0 404.4201 314.667469" xmlns="http://www.w3.org/2000/svg" version="1.1">
 <metadata>
  <rdf:RDF xmlns:dc="http://purl.org/dc/elements/1.1/" xmlns:cc="http://creativecommons.org/ns#" xmlns:rdf="http://www.w3.org/1999/02/22-rdf-syntax-ns#">
   <cc:Work>
    <dc:type rdf:resource="http://purl.org/dc/dcmitype/StillImage"/>
    <dc:date>2024-12-02T09:49:10.117811</dc:date>
    <dc:format>image/svg+xml</dc:format>
    <dc:creator>
     <cc:Agent>
      <dc:title>Matplotlib v3.9.0, https://matplotlib.org/</dc:title>
     </cc:Agent>
    </dc:creator>
   </cc:Work>
  </rdf:RDF>
 </metadata>
 <defs>
  <style type="text/css">*{stroke-linejoin: round; stroke-linecap: butt}</style>
 </defs>
 <g id="figure_1">
  <g id="patch_1">
   <path d="M 0 314.667469 
L 404.4201 314.667469 
L 404.4201 0 
L 0 0 
z
" style="fill: #ffffff"/>
  </g>
  <g id="axes_1">
   <g id="patch_2">
    <path d="M 43.78125 277.111219 
L 329.47725 277.111219 
L 329.47725 10.999219 
L 43.78125 10.999219 
z
" style="fill: #ffffff"/>
   </g>
   <g id="QuadContourSet_1">
    <path d="M 50.92365 277.111219 
L 58.06605 277.111219 
L 65.20845 277.111219 
L 72.35085 277.111219 
L 79.49325 277.111219 
L 86.63565 277.111219 
L 93.77805 277.111219 
L 100.92045 277.111219 
L 108.06285 277.111219 
L 115.20525 277.111219 
L 122.34765 277.111219 
L 129.49005 277.111219 
L 136.63245 277.111219 
L 143.77485 277.111219 
L 150.91725 277.111219 
L 158.05965 277.111219 
L 165.20205 277.111219 
L 172.34445 277.111219 
L 179.48685 277.111219 
L 186.62925 277.111219 
L 193.77165 277.111219 
L 200.91405 277.111219 
L 208.05645 277.111219 
L 215.19885 277.111219 
L 222.34125 277.111219 
L 229.48365 277.111219 
L 236.62605 277.111219 
L 243.76845 277.111219 
L 250.91085 277.111219 
L 258.05325 277.111219 
L 265.19565 277.111219 
L 272.33805 277.111219 
L 279.48045 277.111219 
L 286.62285 277.111219 
L 293.76525 277.111219 
L 300.90765 277.111219 
L 308.05005 277.111219 
L 306.773615 275.922281 
L 300.90765 275.922281 
L 293.76525 275.922281 
L 286.62285 275.922281 
L 279.48045 275.922281 
L 272.33805 275.922281 
L 265.19565 275.922281 
L 258.05325 275.922281 
L 250.91085 275.922281 
L 243.76845 275.922281 
L 236.62605 275.922281 
L 229.48365 275.922281 
L 222.34125 275.922281 
L 215.19885 275.922281 
L 208.05645 275.922281 
L 200.91405 275.922281 
L 193.77165 275.922281 
L 186.62925 275.922281 
L 179.48685 275.922281 
L 172.34445 275.922281 
L 165.20205 275.922281 
L 158.05965 275.922281 
L 150.91725 275.92619 
L 143.77485 275.93095 
L 136.63245 275.941659 
L 129.49005 275.950499 
L 122.34765 275.956529 
L 115.20525 275.961518 
L 108.06285 275.961518 
L 100.92045 275.961518 
L 93.77805 275.968054 
L 86.63565 275.973472 
L 79.49325 275.979354 
L 72.35085 275.98645 
L 65.20845 275.992849 
L 58.06605 276.000551 
L 50.92365 276.000551 
L 43.78125 276.000551 
L 43.78125 277.111219 
z
" clip-path="url(#pfc531830ab)" style="fill: #ffefe8"/>
    <path d="M 50.92365 276.000551 
L 58.06605 276.000551 
L 65.20845 275.992849 
L 72.35085 275.98645 
L 79.49325 275.979354 
L 86.63565 275.973472 
L 93.77805 275.968054 
L 100.92045 275.961518 
L 108.06285 275.961518 
L 115.20525 275.961518 
L 122.34765 275.956529 
L 129.49005 275.950499 
L 136.63245 275.941659 
L 143.77485 275.93095 
L 150.91725 275.92619 
L 158.05965 275.922281 
L 165.20205 275.922281 
L 172.34445 275.922281 
L 179.48685 275.922281 
L 186.62925 275.922281 
L 193.77165 275.922281 
L 200.91405 275.922281 
L 208.05645 275.922281 
L 215.19885 275.922281 
L 222.34125 275.922281 
L 229.48365 275.922281 
L 236.62605 275.922281 
L 243.76845 275.922281 
L 250.91085 275.922281 
L 258.05325 275.922281 
L 265.19565 275.922281 
L 272.33805 275.922281 
L 279.48045 275.922281 
L 286.62285 275.922281 
L 293.76525 275.922281 
L 300.90765 275.922281 
L 306.773615 275.922281 
L 305.336199 274.583398 
L 300.90765 274.583398 
L 293.76525 274.583398 
L 286.62285 274.583398 
L 279.48045 274.583398 
L 272.33805 274.583398 
L 265.19565 274.583398 
L 258.05325 274.583398 
L 250.91085 274.583398 
L 243.76845 274.583398 
L 236.62605 274.583398 
L 229.48365 274.583398 
L 222.34125 274.583398 
L 215.19885 274.583398 
L 208.05645 274.583398 
L 200.91405 274.583398 
L 193.77165 274.583398 
L 186.62925 274.583398 
L 179.48685 274.583398 
L 172.34445 274.583398 
L 165.20205 274.583398 
L 158.05965 274.583398 
L 150.91725 274.586349 
L 143.77485 274.591109 
L 136.63245 274.601817 
L 129.49005 274.608497 
L 122.34765 274.614528 
L 115.20525 274.618298 
L 108.06285 274.618298 
L 100.92045 274.618298 
L 93.77805 274.624834 
L 86.63565 274.628932 
L 79.49325 274.63338 
L 72.35085 274.640476 
L 65.20845 274.645317 
L 58.06605 274.653018 
L 50.92365 274.653018 
L 43.78125 274.653018 
L 43.78125 276.000551 
z
" clip-path="url(#pfc531830ab)" style="fill: #fee3d7"/>
    <path d="M 50.92365 274.653018 
L 58.06605 274.653018 
L 65.20845 274.645317 
L 72.35085 274.640476 
L 79.49325 274.63338 
L 86.63565 274.628932 
L 93.77805 274.624834 
L 100.92045 274.618298 
L 108.06285 274.618298 
L 115.20525 274.618298 
L 122.34765 274.614528 
L 129.49005 274.608497 
L 136.63245 274.601817 
L 143.77485 274.591109 
L 150.91725 274.586349 
L 158.05965 274.583398 
L 165.20205 274.583398 
L 172.34445 274.583398 
L 179.48685 274.583398 
L 186.62925 274.583398 
L 193.77165 274.583398 
L 200.91405 274.583398 
L 208.05645 274.583398 
L 215.19885 274.583398 
L 222.34125 274.583398 
L 229.48365 274.583398 
L 236.62605 274.583398 
L 243.76845 274.583398 
L 250.91085 274.583398 
L 258.05325 274.583398 
L 265.19565 274.583398 
L 272.33805 274.583398 
L 279.48045 274.583398 
L 286.62285 274.583398 
L 293.76525 274.583398 
L 300.90765 274.583398 
L 305.336199 274.583398 
L 303.898783 273.244514 
L 300.90765 273.244514 
L 293.76525 273.244514 
L 286.62285 273.244514 
L 279.48045 273.244514 
L 272.33805 273.244514 
L 265.19565 273.244514 
L 258.05325 273.244514 
L 250.91085 273.244514 
L 243.76845 273.244514 
L 236.62605 273.244514 
L 229.48365 273.244514 
L 222.34125 273.244514 
L 215.19885 273.244514 
L 208.05645 273.244514 
L 200.91405 273.244514 
L 193.77165 273.244514 
L 186.62925 273.244514 
L 179.48685 273.244514 
L 172.34445 273.244514 
L 165.20205 273.244514 
L 158.05965 273.244514 
L 150.91725 273.246507 
L 143.77485 273.251267 
L 136.63245 273.261976 
L 129.49005 273.266495 
L 122.34765 273.272526 
L 115.20525 273.275079 
L 108.06285 273.275079 
L 100.92045 273.275079 
L 93.77805 273.281615 
L 86.63565 273.284392 
L 79.49325 273.287406 
L 72.35085 273.294502 
L 65.20845 273.297785 
L 58.06605 273.305486 
L 50.92365 273.305486 
L 43.78125 273.305486 
L 43.78125 274.653018 
z
" clip-path="url(#pfc531830ab)" style="fill: #fdd1be"/>
    <path d="M 50.92365 273.305486 
L 58.06605 273.305486 
L 65.20845 273.297785 
L 72.35085 273.294502 
L 79.49325 273.287406 
L 86.63565 273.284392 
L 93.77805 273.281615 
L 100.92045 273.275079 
L 108.06285 273.275079 
L 115.20525 273.275079 
L 122.34765 273.272526 
L 129.49005 273.266495 
L 136.63245 273.261976 
L 143.77485 273.251267 
L 150.91725 273.246507 
L 158.05965 273.244514 
L 165.20205 273.244514 
L 172.34445 273.244514 
L 179.48685 273.244514 
L 186.62925 273.244514 
L 193.77165 273.244514 
L 200.91405 273.244514 
L 208.05645 273.244514 
L 215.19885 273.244514 
L 222.34125 273.244514 
L 229.48365 273.244514 
L 236.62605 273.244514 
L 243.76845 273.244514 
L 250.91085 273.244514 
L 258.05325 273.244514 
L 265.19565 273.244514 
L 272.33805 273.244514 
L 279.48045 273.244514 
L 286.62285 273.244514 
L 293.76525 273.244514 
L 300.90765 273.244514 
L 303.898783 273.244514 
L 302.461367 271.905631 
L 300.90765 271.905631 
L 293.76525 271.905631 
L 286.62285 271.905631 
L 279.48045 271.905631 
L 272.33805 271.905631 
L 265.19565 271.905631 
L 258.05325 271.905631 
L 250.91085 271.905631 
L 243.76845 271.905631 
L 236.62605 271.905631 
L 229.48365 271.905631 
L 222.34125 271.905631 
L 215.19885 271.905631 
L 208.05645 271.905631 
L 200.91405 271.905631 
L 193.77165 271.905631 
L 186.62925 271.905631 
L 179.48685 271.905631 
L 172.34445 271.905631 
L 165.20205 271.905631 
L 158.05965 271.905631 
L 150.91725 271.906666 
L 143.77485 271.911426 
L 136.63245 271.922134 
L 129.49005 271.924494 
L 122.34765 271.930524 
L 115.20525 271.93186 
L 108.06285 271.93186 
L 100.92045 271.93186 
L 93.77805 271.938396 
L 86.63565 271.939851 
L 79.49325 271.941432 
L 72.35085 271.948527 
L 65.20845 271.950252 
L 58.06605 271.957954 
L 50.92365 271.957954 
L 43.78125 271.957954 
L 43.78125 273.305486 
z
" clip-path="url(#pfc531830ab)" style="fill: #fcbba1"/>
    <path d="M 50.92365 271.957954 
L 58.06605 271.957954 
L 65.20845 271.950252 
L 72.35085 271.948527 
L 79.49325 271.941432 
L 86.63565 271.939851 
L 93.77805 271.938396 
L 100.92045 271.93186 
L 108.06285 271.93186 
L 115.20525 271.93186 
L 122.34765 271.930524 
L 129.49005 271.924494 
L 136.63245 271.922134 
L 143.77485 271.911426 
L 150.91725 271.906666 
L 158.05965 271.905631 
L 165.20205 271.905631 
L 172.34445 271.905631 
L 179.48685 271.905631 
L 186.62925 271.905631 
L 193.77165 271.905631 
L 200.91405 271.905631 
L 208.05645 271.905631 
L 215.19885 271.905631 
L 222.34125 271.905631 
L 229.48365 271.905631 
L 236.62605 271.905631 
L 243.76845 271.905631 
L 250.91085 271.905631 
L 258.05325 271.905631 
L 265.19565 271.905631 
L 272.33805 271.905631 
L 279.48045 271.905631 
L 286.62285 271.905631 
L 293.76525 271.905631 
L 300.90765 271.905631 
L 302.461367 271.905631 
L 301.02395 270.566747 
L 300.90765 270.566747 
L 293.76525 270.566747 
L 286.62285 270.566747 
L 279.48045 270.566747 
L 272.33805 270.566747 
L 265.19565 270.566747 
L 258.05325 270.566747 
L 250.91085 270.566747 
L 243.76845 270.566747 
L 236.62605 270.566747 
L 229.48365 270.566747 
L 222.34125 270.566747 
L 215.19885 270.566747 
L 208.05645 270.566747 
L 200.91405 270.566747 
L 193.77165 270.566747 
L 186.62925 270.566747 
L 179.48685 270.566747 
L 172.34445 270.566747 
L 165.20205 270.566747 
L 158.05965 270.566747 
L 150.91725 270.566824 
L 143.77485 270.571584 
L 136.63245 270.582293 
L 129.49005 270.582492 
L 122.34765 270.588523 
L 115.20525 270.588641 
L 108.06285 270.588641 
L 100.92045 270.588641 
L 93.77805 270.595177 
L 86.63565 270.595311 
L 79.49325 270.595457 
L 72.35085 270.602553 
L 65.20845 270.60272 
L 58.06605 270.610421 
L 50.92365 270.610421 
L 43.78125 270.610421 
L 43.78125 271.957954 
z
" clip-path="url(#pfc531830ab)" style="fill: #fca486"/>
    <path d="M 50.92365 270.610421 
L 58.06605 270.610421 
L 65.20845 270.60272 
L 72.35085 270.602553 
L 79.49325 270.595457 
L 86.63565 270.595311 
L 93.77805 270.595177 
L 100.92045 270.588641 
L 108.06285 270.588641 
L 115.20525 270.588641 
L 122.34765 270.588523 
L 129.49005 270.582492 
L 136.63245 270.582293 
L 143.77485 270.571584 
L 150.91725 270.566824 
L 158.05965 270.566747 
L 165.20205 270.566747 
L 172.34445 270.566747 
L 179.48685 270.566747 
L 186.62925 270.566747 
L 193.77165 270.566747 
L 200.91405 270.566747 
L 208.05645 270.566747 
L 215.19885 270.566747 
L 222.34125 270.566747 
L 229.48365 270.566747 
L 236.62605 270.566747 
L 243.76845 270.566747 
L 250.91085 270.566747 
L 258.05325 270.566747 
L 265.19565 270.566747 
L 272.33805 270.566747 
L 279.48045 270.566747 
L 286.62285 270.566747 
L 293.76525 270.566747 
L 300.90765 270.566747 
L 301.02395 270.566747 
L 300.90765 270.458419 
L 300.90765 269.227863 
L 293.76525 269.227863 
L 286.62285 269.227863 
L 279.48045 269.227863 
L 272.33805 269.227863 
L 265.19565 269.227863 
L 258.05325 269.227863 
L 250.91085 269.227863 
L 243.76845 269.227863 
L 236.62605 269.227863 
L 229.48365 269.227863 
L 222.34125 269.227863 
L 215.19885 269.227863 
L 208.05645 269.227863 
L 200.91405 269.227863 
L 193.77165 269.227863 
L 186.62925 269.227863 
L 179.48685 269.227863 
L 172.34445 269.227863 
L 165.20205 269.227863 
L 158.05965 269.227863 
L 150.91725 269.227863 
L 143.77485 269.231743 
L 136.63245 269.240491 
L 129.49005 269.240491 
L 122.34765 269.245422 
L 115.20525 269.245422 
L 108.06285 269.245422 
L 100.92045 269.245422 
L 93.77805 269.250771 
L 86.63565 269.250771 
L 79.49325 269.250771 
L 72.35085 269.256579 
L 65.20845 269.256579 
L 58.06605 269.262889 
L 50.92365 269.262889 
L 43.78125 269.262889 
L 43.78125 270.458419 
L 43.78125 270.610421 
z
" clip-path="url(#pfc531830ab)" style="fill: #fc8d6d"/>
    <path d="M 50.92365 269.262889 
L 58.06605 269.262889 
L 65.20845 269.256579 
L 72.35085 269.256579 
L 79.49325 269.250771 
L 86.63565 269.250771 
L 93.77805 269.250771 
L 100.92045 269.245422 
L 108.06285 269.245422 
L 115.20525 269.245422 
L 122.34765 269.245422 
L 129.49005 269.240491 
L 136.63245 269.240491 
L 143.77485 269.231743 
L 150.91725 269.227863 
L 158.05965 269.227863 
L 165.20205 269.227863 
L 172.34445 269.227863 
L 179.48685 269.227863 
L 186.62925 269.227863 
L 193.77165 269.227863 
L 200.91405 269.227863 
L 208.05645 269.227863 
L 215.19885 269.227863 
L 222.34125 269.227863 
L 229.48365 269.227863 
L 236.62605 269.227863 
L 243.76845 269.227863 
L 250.91085 269.227863 
L 258.05325 269.227863 
L 265.19565 269.227863 
L 272.33805 269.227863 
L 279.48045 269.227863 
L 286.62285 269.227863 
L 293.76525 269.227863 
L 300.90765 269.227863 
L 300.90765 267.88898 
L 293.76525 267.88898 
L 286.62285 267.88898 
L 279.48045 267.88898 
L 272.33805 267.88898 
L 265.19565 267.88898 
L 258.05325 267.88898 
L 250.91085 267.88898 
L 243.76845 267.88898 
L 236.62605 267.88898 
L 229.48365 267.88898 
L 222.34125 267.88898 
L 215.19885 267.88898 
L 208.05645 267.88898 
L 200.91405 267.88898 
L 193.77165 267.88898 
L 186.62925 267.88898 
L 179.48685 267.88898 
L 172.34445 267.88898 
L 165.20205 267.88898 
L 158.05965 267.88898 
L 150.91725 267.88898 
L 143.77485 267.891901 
L 136.63245 267.898489 
L 129.49005 267.898489 
L 122.34765 267.902203 
L 115.20525 267.902203 
L 108.06285 267.902203 
L 100.92045 267.902203 
L 93.77805 267.906231 
L 86.63565 267.906231 
L 79.49325 267.906231 
L 72.35085 267.910605 
L 65.20845 267.910605 
L 58.06605 267.915357 
L 50.92365 267.915357 
L 43.78125 267.915357 
L 43.78125 269.262889 
z
" clip-path="url(#pfc531830ab)" style="fill: #fb7656"/>
    <path d="M 50.92365 267.915357 
L 58.06605 267.915357 
L 65.20845 267.910605 
L 72.35085 267.910605 
L 79.49325 267.906231 
L 86.63565 267.906231 
L 93.77805 267.906231 
L 100.92045 267.902203 
L 108.06285 267.902203 
L 115.20525 267.902203 
L 122.34765 267.902203 
L 129.49005 267.898489 
L 136.63245 267.898489 
L 143.77485 267.891901 
L 150.91725 267.88898 
L 158.05965 267.88898 
L 165.20205 267.88898 
L 172.34445 267.88898 
L 179.48685 267.88898 
L 186.62925 267.88898 
L 193.77165 267.88898 
L 200.91405 267.88898 
L 208.05645 267.88898 
L 215.19885 267.88898 
L 222.34125 267.88898 
L 229.48365 267.88898 
L 236.62605 267.88898 
L 243.76845 267.88898 
L 250.91085 267.88898 
L 258.05325 267.88898 
L 265.19565 267.88898 
L 272.33805 267.88898 
L 279.48045 267.88898 
L 286.62285 267.88898 
L 293.76525 267.88898 
L 300.90765 267.88898 
L 300.90765 266.550096 
L 293.76525 266.550096 
L 286.62285 266.550096 
L 279.48045 266.550096 
L 272.33805 266.550096 
L 265.19565 266.550096 
L 258.05325 266.550096 
L 250.91085 266.550096 
L 243.76845 266.550096 
L 236.62605 266.550096 
L 229.48365 266.550096 
L 222.34125 266.550096 
L 215.19885 266.550096 
L 208.05645 266.550096 
L 200.91405 266.550096 
L 193.77165 266.550096 
L 186.62925 266.550096 
L 179.48685 266.550096 
L 172.34445 266.550096 
L 165.20205 266.550096 
L 158.05965 266.550096 
L 150.91725 266.550096 
L 143.77485 266.55206 
L 136.63245 266.556488 
L 129.49005 266.556488 
L 122.34765 266.558983 
L 115.20525 266.558983 
L 108.06285 266.558983 
L 100.92045 266.558983 
L 93.77805 266.561691 
L 86.63565 266.561691 
L 79.49325 266.561691 
L 72.35085 266.564631 
L 65.20845 266.564631 
L 58.06605 266.567825 
L 50.92365 266.567825 
L 43.78125 266.567825 
L 43.78125 267.915357 
z
" clip-path="url(#pfc531830ab)" style="fill: #f75c41"/>
    <path d="M 50.92365 266.567825 
L 58.06605 266.567825 
L 65.20845 266.564631 
L 72.35085 266.564631 
L 79.49325 266.561691 
L 86.63565 266.561691 
L 93.77805 266.561691 
L 100.92045 266.558983 
L 108.06285 266.558983 
L 115.20525 266.558983 
L 122.34765 266.558983 
L 129.49005 266.556488 
L 136.63245 266.556488 
L 143.77485 266.55206 
L 150.91725 266.550096 
L 158.05965 266.550096 
L 165.20205 266.550096 
L 172.34445 266.550096 
L 179.48685 266.550096 
L 186.62925 266.550096 
L 193.77165 266.550096 
L 200.91405 266.550096 
L 208.05645 266.550096 
L 215.19885 266.550096 
L 222.34125 266.550096 
L 229.48365 266.550096 
L 236.62605 266.550096 
L 243.76845 266.550096 
L 250.91085 266.550096 
L 258.05325 266.550096 
L 265.19565 266.550096 
L 272.33805 266.550096 
L 279.48045 266.550096 
L 286.62285 266.550096 
L 293.76525 266.550096 
L 300.90765 266.550096 
L 300.90765 265.211213 
L 293.76525 265.211213 
L 286.62285 265.211213 
L 279.48045 265.211213 
L 272.33805 265.211213 
L 265.19565 265.211213 
L 258.05325 265.211213 
L 250.91085 265.211213 
L 243.76845 265.211213 
L 236.62605 265.211213 
L 229.48365 265.211213 
L 222.34125 265.211213 
L 215.19885 265.211213 
L 208.05645 265.211213 
L 200.91405 265.211213 
L 193.77165 265.211213 
L 186.62925 265.211213 
L 179.48685 265.211213 
L 172.34445 265.211213 
L 165.20205 265.211213 
L 158.05965 265.211213 
L 150.91725 265.211213 
L 143.77485 265.212218 
L 136.63245 265.214486 
L 129.49005 265.214486 
L 122.34765 265.215764 
L 115.20525 265.215764 
L 108.06285 265.215764 
L 100.92045 265.215764 
L 93.77805 265.217151 
L 86.63565 265.217151 
L 79.49325 265.217151 
L 72.35085 265.218656 
L 65.20845 265.218656 
L 58.06605 265.220292 
L 50.92365 265.220292 
L 43.78125 265.220292 
L 43.78125 266.567825 
z
" clip-path="url(#pfc531830ab)" style="fill: #f14130"/>
    <path d="M 50.92365 265.220292 
L 58.06605 265.220292 
L 65.20845 265.218656 
L 72.35085 265.218656 
L 79.49325 265.217151 
L 86.63565 265.217151 
L 93.77805 265.217151 
L 100.92045 265.215764 
L 108.06285 265.215764 
L 115.20525 265.215764 
L 122.34765 265.215764 
L 129.49005 265.214486 
L 136.63245 265.214486 
L 143.77485 265.212218 
L 150.91725 265.211213 
L 158.05965 265.211213 
L 165.20205 265.211213 
L 172.34445 265.211213 
L 179.48685 265.211213 
L 186.62925 265.211213 
L 193.77165 265.211213 
L 200.91405 265.211213 
L 208.05645 265.211213 
L 215.19885 265.211213 
L 222.34125 265.211213 
L 229.48365 265.211213 
L 236.62605 265.211213 
L 243.76845 265.211213 
L 250.91085 265.211213 
L 258.05325 265.211213 
L 265.19565 265.211213 
L 272.33805 265.211213 
L 279.48045 265.211213 
L 286.62285 265.211213 
L 293.76525 265.211213 
L 300.90765 265.211213 
L 300.90765 263.872329 
L 293.76525 263.872329 
L 286.62285 263.872329 
L 279.48045 263.872329 
L 272.33805 263.872329 
L 265.19565 263.872329 
L 258.05325 263.872329 
L 250.91085 263.872329 
L 243.76845 263.872329 
L 236.62605 263.872329 
L 229.48365 263.872329 
L 222.34125 263.872329 
L 215.19885 263.872329 
L 208.05645 263.872329 
L 200.91405 263.872329 
L 193.77165 263.872329 
L 186.62925 263.872329 
L 179.48685 263.872329 
L 172.34445 263.872329 
L 165.20205 263.872329 
L 158.05965 263.872329 
L 150.91725 263.872329 
L 143.77485 263.872377 
L 136.63245 263.872484 
L 129.49005 263.872484 
L 122.34765 263.872545 
L 115.20525 263.872545 
L 108.06285 263.872545 
L 100.92045 263.872545 
L 93.77805 263.872611 
L 86.63565 263.872611 
L 79.49325 263.872611 
L 72.35085 263.872682 
L 65.20845 263.872682 
L 58.06605 263.87276 
L 50.92365 263.87276 
L 43.78125 263.87276 
L 43.78125 265.220292 
z
" clip-path="url(#pfc531830ab)" style="fill: #e02c26"/>
    <path d="M 50.92365 263.87276 
L 58.06605 263.87276 
L 65.20845 263.872682 
L 72.35085 263.872682 
L 79.49325 263.872611 
L 86.63565 263.872611 
L 93.77805 263.872611 
L 100.92045 263.872545 
L 108.06285 263.872545 
L 115.20525 263.872545 
L 122.34765 263.872545 
L 129.49005 263.872484 
L 136.63245 263.872484 
L 143.77485 263.872377 
L 150.91725 263.872329 
L 158.05965 263.872329 
L 165.20205 263.872329 
L 172.34445 263.872329 
L 179.48685 263.872329 
L 186.62925 263.872329 
L 193.77165 263.872329 
L 200.91405 263.872329 
L 208.05645 263.872329 
L 215.19885 263.872329 
L 222.34125 263.872329 
L 229.48365 263.872329 
L 236.62605 263.872329 
L 243.76845 263.872329 
L 250.91085 263.872329 
L 258.05325 263.872329 
L 265.19565 263.872329 
L 272.33805 263.872329 
L 279.48045 263.872329 
L 286.62285 263.872329 
L 293.76525 263.872329 
L 300.90765 263.872329 
L 300.90765 263.805619 
L 293.76525 263.805619 
L 289.614205 259.939121 
L 286.62285 259.939121 
L 279.48045 259.939121 
L 272.33805 259.939121 
L 265.19565 259.939121 
L 258.05325 259.939121 
L 250.91085 259.939121 
L 243.76845 259.939121 
L 236.62605 259.939121 
L 229.48365 259.939121 
L 222.34125 259.939121 
L 215.19885 259.939121 
L 208.05645 259.939121 
L 200.91405 259.939121 
L 193.77165 259.939121 
L 186.62925 259.939121 
L 179.48685 259.939121 
L 172.34445 259.939121 
L 165.20205 259.939121 
L 158.05965 259.939121 
L 150.91725 259.939121 
L 143.77485 259.939121 
L 136.63245 259.939121 
L 129.49005 259.939121 
L 122.34765 259.939121 
L 115.20525 259.939121 
L 108.06285 259.939121 
L 100.92045 259.939121 
L 93.77805 259.939121 
L 86.63565 259.939121 
L 79.49325 259.939121 
L 72.35085 259.939121 
L 65.20845 259.939121 
L 58.06605 259.939121 
L 50.92365 259.939121 
L 43.78125 259.939121 
L 43.78125 263.805619 
L 43.78125 263.87276 
z
" clip-path="url(#pfc531830ab)" style="fill: #cb181d"/>
    <path d="M 50.92365 259.939121 
L 58.06605 259.939121 
L 65.20845 259.939121 
L 72.35085 259.939121 
L 79.49325 259.939121 
L 86.63565 259.939121 
L 93.77805 259.939121 
L 100.92045 259.939121 
L 108.06285 259.939121 
L 115.20525 259.939121 
L 122.34765 259.939121 
L 129.49005 259.939121 
L 136.63245 259.939121 
L 143.77485 259.939121 
L 150.91725 259.939121 
L 158.05965 259.939121 
L 165.20205 259.939121 
L 172.34445 259.939121 
L 179.48685 259.939121 
L 186.62925 259.939121 
L 193.77165 259.939121 
L 200.91405 259.939121 
L 208.05645 259.939121 
L 215.19885 259.939121 
L 222.34125 259.939121 
L 229.48365 259.939121 
L 236.62605 259.939121 
L 243.76845 259.939121 
L 250.91085 259.939121 
L 258.05325 259.939121 
L 265.19565 259.939121 
L 272.33805 259.939121 
L 279.48045 259.939121 
L 286.62285 259.939121 
L 289.614205 259.939121 
L 286.62285 257.152819 
L 285.245487 255.869872 
L 279.48045 255.869872 
L 272.33805 255.869872 
L 265.19565 255.869872 
L 258.05325 255.869872 
L 250.91085 255.869872 
L 243.76845 255.869872 
L 236.62605 255.869872 
L 229.48365 255.869872 
L 222.34125 255.869872 
L 215.19885 255.869872 
L 208.05645 255.869872 
L 200.91405 255.869872 
L 193.77165 255.869872 
L 186.62925 255.869872 
L 179.48685 255.869872 
L 172.34445 255.869872 
L 165.20205 255.869872 
L 158.05965 255.869872 
L 150.91725 255.869872 
L 143.77485 255.869872 
L 136.63245 255.869872 
L 129.49005 255.869872 
L 122.34765 255.869872 
L 115.20525 255.869872 
L 108.06285 255.869872 
L 100.92045 255.869872 
L 93.77805 255.869872 
L 86.63565 255.869872 
L 79.49325 255.869872 
L 72.35085 255.869872 
L 65.20845 255.869872 
L 58.06605 255.869872 
L 50.92365 255.869872 
L 43.78125 255.869872 
L 43.78125 257.152819 
L 43.78125 259.939121 
z
" clip-path="url(#pfc531830ab)" style="fill: #b51318"/>
    <path d="M 50.92365 255.869872 
L 58.06605 255.869872 
L 65.20845 255.869872 
L 72.35085 255.869872 
L 79.49325 255.869872 
L 86.63565 255.869872 
L 93.77805 255.869872 
L 100.92045 255.869872 
L 108.06285 255.869872 
L 115.20525 255.869872 
L 122.34765 255.869872 
L 129.49005 255.869872 
L 136.63245 255.869872 
L 143.77485 255.869872 
L 150.91725 255.869872 
L 158.05965 255.869872 
L 165.20205 255.869872 
L 172.34445 255.869872 
L 179.48685 255.869872 
L 186.62925 255.869872 
L 193.77165 255.869872 
L 200.91405 255.869872 
L 208.05645 255.869872 
L 215.19885 255.869872 
L 222.34125 255.869872 
L 229.48365 255.869872 
L 236.62605 255.869872 
L 243.76845 255.869872 
L 250.91085 255.869872 
L 258.05325 255.869872 
L 265.19565 255.869872 
L 272.33805 255.869872 
L 279.48045 255.869872 
L 285.245487 255.869872 
L 280.87677 251.800623 
L 279.48045 251.800623 
L 272.33805 251.800623 
L 265.19565 251.800623 
L 258.05325 251.800623 
L 250.91085 251.800623 
L 243.76845 251.800623 
L 236.62605 251.800623 
L 229.48365 251.800623 
L 222.34125 251.800623 
L 215.19885 251.800623 
L 208.05645 251.800623 
L 200.91405 251.800623 
L 193.77165 251.800623 
L 186.62925 251.800623 
L 179.48685 251.800623 
L 172.34445 251.800623 
L 165.20205 251.800623 
L 158.05965 251.800623 
L 150.91725 251.800623 
L 143.77485 251.800623 
L 136.63245 251.800623 
L 129.49005 251.800623 
L 122.34765 251.800623 
L 115.20525 251.800623 
L 108.06285 251.800623 
L 100.92045 251.800623 
L 93.77805 251.800623 
L 86.63565 251.800623 
L 79.49325 251.800623 
L 72.35085 251.800623 
L 65.20845 251.800623 
L 58.06605 251.800623 
L 50.92365 251.800623 
L 43.78125 251.800623 
L 43.78125 255.869872 
z
" clip-path="url(#pfc531830ab)" style="fill: #9c0d14"/>
    <path d="M 50.92365 251.800623 
L 58.06605 251.800623 
L 65.20845 251.800623 
L 72.35085 251.800623 
L 79.49325 251.800623 
L 86.63565 251.800623 
L 93.77805 251.800623 
L 100.92045 251.800623 
L 108.06285 251.800623 
L 115.20525 251.800623 
L 122.34765 251.800623 
L 129.49005 251.800623 
L 136.63245 251.800623 
L 143.77485 251.800623 
L 150.91725 251.800623 
L 158.05965 251.800623 
L 165.20205 251.800623 
L 172.34445 251.800623 
L 179.48685 251.800623 
L 186.62925 251.800623 
L 193.77165 251.800623 
L 200.91405 251.800623 
L 208.05645 251.800623 
L 215.19885 251.800623 
L 222.34125 251.800623 
L 229.48365 251.800623 
L 236.62605 251.800623 
L 243.76845 251.800623 
L 250.91085 251.800623 
L 258.05325 251.800623 
L 265.19565 251.800623 
L 272.33805 251.800623 
L 279.48045 251.800623 
L 280.87677 251.800623 
L 279.48045 250.500019 
L 272.33805 243.847219 
L 265.19565 237.194419 
L 258.05325 230.541619 
L 258.05325 223.888819 
L 250.91085 223.888819 
L 243.76845 217.236019 
L 236.62605 210.583219 
L 229.48365 203.930419 
L 222.34125 197.277619 
L 215.19885 190.624819 
L 208.05645 183.972019 
L 200.91405 177.319219 
L 200.91405 170.666419 
L 193.77165 170.666419 
L 186.62925 164.013619 
L 186.62925 157.360819 
L 179.48685 157.360819 
L 172.34445 150.708019 
L 172.34445 144.055219 
L 165.20205 144.055219 
L 158.05965 137.402419 
L 158.05965 130.749619 
L 150.91725 130.749619 
L 143.77485 124.096819 
L 136.63245 117.444019 
L 129.49005 110.791219 
L 122.34765 104.138419 
L 115.20525 97.485619 
L 108.06285 90.832819 
L 100.92045 84.180019 
L 100.92045 77.527219 
L 93.77805 77.527219 
L 86.63565 70.874419 
L 79.49325 64.221619 
L 72.35085 57.568819 
L 65.20845 50.916019 
L 58.06605 44.263219 
L 58.06605 37.610419 
L 50.92365 37.610419 
L 43.78125 30.957619 
L 43.78125 37.610419 
L 43.78125 44.263219 
L 43.78125 50.916019 
L 43.78125 57.568819 
L 43.78125 64.221619 
L 43.78125 70.874419 
L 43.78125 77.527219 
L 43.78125 84.180019 
L 43.78125 90.832819 
L 43.78125 97.485619 
L 43.78125 104.138419 
L 43.78125 110.791219 
L 43.78125 117.444019 
L 43.78125 124.096819 
L 43.78125 130.749619 
L 43.78125 137.402419 
L 43.78125 144.055219 
L 43.78125 150.708019 
L 43.78125 157.360819 
L 43.78125 164.013619 
L 43.78125 170.666419 
L 43.78125 177.319219 
L 43.78125 183.972019 
L 43.78125 190.624819 
L 43.78125 197.277619 
L 43.78125 203.930419 
L 43.78125 210.583219 
L 43.78125 217.236019 
L 43.78125 223.888819 
L 43.78125 230.541619 
L 43.78125 237.194419 
L 43.78125 243.847219 
L 43.78125 250.500019 
L 43.78125 251.800623 
z
" clip-path="url(#pfc531830ab)" style="fill: #79040f"/>
   </g>
   <g id="matplotlib.axis_1">
    <g id="xtick_1">
     <g id="line2d_1">
      <defs>
       <path id="m22acb04362" d="M 0 0 
L 0 3.5 
" style="stroke: #000000; stroke-width: 0.8"/>
      </defs>
      <g>
       <use xlink:href="#m22acb04362" x="43.78125" y="277.111219" style="stroke: #000000; stroke-width: 0.8"/>
      </g>
     </g>
     <g id="text_1">
      <!-- 0.0 -->
      <g transform="translate(35.829688 291.709656) scale(0.1 -0.1)">
       <defs>
        <path id="DejaVuSans-30" d="M 2034 4250 
Q 1547 4250 1301 3770 
Q 1056 3291 1056 2328 
Q 1056 1369 1301 889 
Q 1547 409 2034 409 
Q 2525 409 2770 889 
Q 3016 1369 3016 2328 
Q 3016 3291 2770 3770 
Q 2525 4250 2034 4250 
z
M 2034 4750 
Q 2819 4750 3233 4129 
Q 3647 3509 3647 2328 
Q 3647 1150 3233 529 
Q 2819 -91 2034 -91 
Q 1250 -91 836 529 
Q 422 1150 422 2328 
Q 422 3509 836 4129 
Q 1250 4750 2034 4750 
z
" transform="scale(0.015625)"/>
        <path id="DejaVuSans-2e" d="M 684 794 
L 1344 794 
L 1344 0 
L 684 0 
L 684 794 
z
" transform="scale(0.015625)"/>
       </defs>
       <use xlink:href="#DejaVuSans-30"/>
       <use xlink:href="#DejaVuSans-2e" x="63.623047"/>
       <use xlink:href="#DejaVuSans-30" x="95.410156"/>
      </g>
     </g>
    </g>
    <g id="xtick_2">
     <g id="line2d_2">
      <g>
       <use xlink:href="#m22acb04362" x="100.92045" y="277.111219" style="stroke: #000000; stroke-width: 0.8"/>
      </g>
     </g>
     <g id="text_2">
      <!-- 0.2 -->
      <g transform="translate(92.968888 291.709656) scale(0.1 -0.1)">
       <defs>
        <path id="DejaVuSans-32" d="M 1228 531 
L 3431 531 
L 3431 0 
L 469 0 
L 469 531 
Q 828 903 1448 1529 
Q 2069 2156 2228 2338 
Q 2531 2678 2651 2914 
Q 2772 3150 2772 3378 
Q 2772 3750 2511 3984 
Q 2250 4219 1831 4219 
Q 1534 4219 1204 4116 
Q 875 4013 500 3803 
L 500 4441 
Q 881 4594 1212 4672 
Q 1544 4750 1819 4750 
Q 2544 4750 2975 4387 
Q 3406 4025 3406 3419 
Q 3406 3131 3298 2873 
Q 3191 2616 2906 2266 
Q 2828 2175 2409 1742 
Q 1991 1309 1228 531 
z
" transform="scale(0.015625)"/>
       </defs>
       <use xlink:href="#DejaVuSans-30"/>
       <use xlink:href="#DejaVuSans-2e" x="63.623047"/>
       <use xlink:href="#DejaVuSans-32" x="95.410156"/>
      </g>
     </g>
    </g>
    <g id="xtick_3">
     <g id="line2d_3">
      <g>
       <use xlink:href="#m22acb04362" x="158.05965" y="277.111219" style="stroke: #000000; stroke-width: 0.8"/>
      </g>
     </g>
     <g id="text_3">
      <!-- 0.4 -->
      <g transform="translate(150.108088 291.709656) scale(0.1 -0.1)">
       <defs>
        <path id="DejaVuSans-34" d="M 2419 4116 
L 825 1625 
L 2419 1625 
L 2419 4116 
z
M 2253 4666 
L 3047 4666 
L 3047 1625 
L 3713 1625 
L 3713 1100 
L 3047 1100 
L 3047 0 
L 2419 0 
L 2419 1100 
L 313 1100 
L 313 1709 
L 2253 4666 
z
" transform="scale(0.015625)"/>
       </defs>
       <use xlink:href="#DejaVuSans-30"/>
       <use xlink:href="#DejaVuSans-2e" x="63.623047"/>
       <use xlink:href="#DejaVuSans-34" x="95.410156"/>
      </g>
     </g>
    </g>
    <g id="xtick_4">
     <g id="line2d_4">
      <g>
       <use xlink:href="#m22acb04362" x="215.19885" y="277.111219" style="stroke: #000000; stroke-width: 0.8"/>
      </g>
     </g>
     <g id="text_4">
      <!-- 0.6 -->
      <g transform="translate(207.247288 291.709656) scale(0.1 -0.1)">
       <defs>
        <path id="DejaVuSans-36" d="M 2113 2584 
Q 1688 2584 1439 2293 
Q 1191 2003 1191 1497 
Q 1191 994 1439 701 
Q 1688 409 2113 409 
Q 2538 409 2786 701 
Q 3034 994 3034 1497 
Q 3034 2003 2786 2293 
Q 2538 2584 2113 2584 
z
M 3366 4563 
L 3366 3988 
Q 3128 4100 2886 4159 
Q 2644 4219 2406 4219 
Q 1781 4219 1451 3797 
Q 1122 3375 1075 2522 
Q 1259 2794 1537 2939 
Q 1816 3084 2150 3084 
Q 2853 3084 3261 2657 
Q 3669 2231 3669 1497 
Q 3669 778 3244 343 
Q 2819 -91 2113 -91 
Q 1303 -91 875 529 
Q 447 1150 447 2328 
Q 447 3434 972 4092 
Q 1497 4750 2381 4750 
Q 2619 4750 2861 4703 
Q 3103 4656 3366 4563 
z
" transform="scale(0.015625)"/>
       </defs>
       <use xlink:href="#DejaVuSans-30"/>
       <use xlink:href="#DejaVuSans-2e" x="63.623047"/>
       <use xlink:href="#DejaVuSans-36" x="95.410156"/>
      </g>
     </g>
    </g>
    <g id="xtick_5">
     <g id="line2d_5">
      <g>
       <use xlink:href="#m22acb04362" x="272.33805" y="277.111219" style="stroke: #000000; stroke-width: 0.8"/>
      </g>
     </g>
     <g id="text_5">
      <!-- 0.8 -->
      <g transform="translate(264.386488 291.709656) scale(0.1 -0.1)">
       <defs>
        <path id="DejaVuSans-38" d="M 2034 2216 
Q 1584 2216 1326 1975 
Q 1069 1734 1069 1313 
Q 1069 891 1326 650 
Q 1584 409 2034 409 
Q 2484 409 2743 651 
Q 3003 894 3003 1313 
Q 3003 1734 2745 1975 
Q 2488 2216 2034 2216 
z
M 1403 2484 
Q 997 2584 770 2862 
Q 544 3141 544 3541 
Q 544 4100 942 4425 
Q 1341 4750 2034 4750 
Q 2731 4750 3128 4425 
Q 3525 4100 3525 3541 
Q 3525 3141 3298 2862 
Q 3072 2584 2669 2484 
Q 3125 2378 3379 2068 
Q 3634 1759 3634 1313 
Q 3634 634 3220 271 
Q 2806 -91 2034 -91 
Q 1263 -91 848 271 
Q 434 634 434 1313 
Q 434 1759 690 2068 
Q 947 2378 1403 2484 
z
M 1172 3481 
Q 1172 3119 1398 2916 
Q 1625 2713 2034 2713 
Q 2441 2713 2670 2916 
Q 2900 3119 2900 3481 
Q 2900 3844 2670 4047 
Q 2441 4250 2034 4250 
Q 1625 4250 1398 4047 
Q 1172 3844 1172 3481 
z
" transform="scale(0.015625)"/>
       </defs>
       <use xlink:href="#DejaVuSans-30"/>
       <use xlink:href="#DejaVuSans-2e" x="63.623047"/>
       <use xlink:href="#DejaVuSans-38" x="95.410156"/>
      </g>
     </g>
    </g>
    <g id="xtick_6">
     <g id="line2d_6">
      <g>
       <use xlink:href="#m22acb04362" x="329.47725" y="277.111219" style="stroke: #000000; stroke-width: 0.8"/>
      </g>
     </g>
     <g id="text_6">
      <!-- 1.0 -->
      <g transform="translate(321.525688 291.709656) scale(0.1 -0.1)">
       <defs>
        <path id="DejaVuSans-31" d="M 794 531 
L 1825 531 
L 1825 4091 
L 703 3866 
L 703 4441 
L 1819 4666 
L 2450 4666 
L 2450 531 
L 3481 531 
L 3481 0 
L 794 0 
L 794 531 
z
" transform="scale(0.015625)"/>
       </defs>
       <use xlink:href="#DejaVuSans-31"/>
       <use xlink:href="#DejaVuSans-2e" x="63.623047"/>
       <use xlink:href="#DejaVuSans-30" x="95.410156"/>
      </g>
     </g>
    </g>
    <g id="text_7">
     <!-- Equity in Vaccination Burden Multiplier (a) -->
     <g transform="translate(81.262844 305.387781) scale(0.1 -0.1)">
      <defs>
       <path id="DejaVuSans-45" d="M 628 4666 
L 3578 4666 
L 3578 4134 
L 1259 4134 
L 1259 2753 
L 3481 2753 
L 3481 2222 
L 1259 2222 
L 1259 531 
L 3634 531 
L 3634 0 
L 628 0 
L 628 4666 
z
" transform="scale(0.015625)"/>
       <path id="DejaVuSans-71" d="M 947 1747 
Q 947 1113 1208 752 
Q 1469 391 1925 391 
Q 2381 391 2643 752 
Q 2906 1113 2906 1747 
Q 2906 2381 2643 2742 
Q 2381 3103 1925 3103 
Q 1469 3103 1208 2742 
Q 947 2381 947 1747 
z
M 2906 525 
Q 2725 213 2448 61 
Q 2172 -91 1784 -91 
Q 1150 -91 751 415 
Q 353 922 353 1747 
Q 353 2572 751 3078 
Q 1150 3584 1784 3584 
Q 2172 3584 2448 3432 
Q 2725 3281 2906 2969 
L 2906 3500 
L 3481 3500 
L 3481 -1331 
L 2906 -1331 
L 2906 525 
z
" transform="scale(0.015625)"/>
       <path id="DejaVuSans-75" d="M 544 1381 
L 544 3500 
L 1119 3500 
L 1119 1403 
Q 1119 906 1312 657 
Q 1506 409 1894 409 
Q 2359 409 2629 706 
Q 2900 1003 2900 1516 
L 2900 3500 
L 3475 3500 
L 3475 0 
L 2900 0 
L 2900 538 
Q 2691 219 2414 64 
Q 2138 -91 1772 -91 
Q 1169 -91 856 284 
Q 544 659 544 1381 
z
M 1991 3584 
L 1991 3584 
z
" transform="scale(0.015625)"/>
       <path id="DejaVuSans-69" d="M 603 3500 
L 1178 3500 
L 1178 0 
L 603 0 
L 603 3500 
z
M 603 4863 
L 1178 4863 
L 1178 4134 
L 603 4134 
L 603 4863 
z
" transform="scale(0.015625)"/>
       <path id="DejaVuSans-74" d="M 1172 4494 
L 1172 3500 
L 2356 3500 
L 2356 3053 
L 1172 3053 
L 1172 1153 
Q 1172 725 1289 603 
Q 1406 481 1766 481 
L 2356 481 
L 2356 0 
L 1766 0 
Q 1100 0 847 248 
Q 594 497 594 1153 
L 594 3053 
L 172 3053 
L 172 3500 
L 594 3500 
L 594 4494 
L 1172 4494 
z
" transform="scale(0.015625)"/>
       <path id="DejaVuSans-79" d="M 2059 -325 
Q 1816 -950 1584 -1140 
Q 1353 -1331 966 -1331 
L 506 -1331 
L 506 -850 
L 844 -850 
Q 1081 -850 1212 -737 
Q 1344 -625 1503 -206 
L 1606 56 
L 191 3500 
L 800 3500 
L 1894 763 
L 2988 3500 
L 3597 3500 
L 2059 -325 
z
" transform="scale(0.015625)"/>
       <path id="DejaVuSans-20" transform="scale(0.015625)"/>
       <path id="DejaVuSans-6e" d="M 3513 2113 
L 3513 0 
L 2938 0 
L 2938 2094 
Q 2938 2591 2744 2837 
Q 2550 3084 2163 3084 
Q 1697 3084 1428 2787 
Q 1159 2491 1159 1978 
L 1159 0 
L 581 0 
L 581 3500 
L 1159 3500 
L 1159 2956 
Q 1366 3272 1645 3428 
Q 1925 3584 2291 3584 
Q 2894 3584 3203 3211 
Q 3513 2838 3513 2113 
z
" transform="scale(0.015625)"/>
       <path id="DejaVuSans-56" d="M 1831 0 
L 50 4666 
L 709 4666 
L 2188 738 
L 3669 4666 
L 4325 4666 
L 2547 0 
L 1831 0 
z
" transform="scale(0.015625)"/>
       <path id="DejaVuSans-61" d="M 2194 1759 
Q 1497 1759 1228 1600 
Q 959 1441 959 1056 
Q 959 750 1161 570 
Q 1363 391 1709 391 
Q 2188 391 2477 730 
Q 2766 1069 2766 1631 
L 2766 1759 
L 2194 1759 
z
M 3341 1997 
L 3341 0 
L 2766 0 
L 2766 531 
Q 2569 213 2275 61 
Q 1981 -91 1556 -91 
Q 1019 -91 701 211 
Q 384 513 384 1019 
Q 384 1609 779 1909 
Q 1175 2209 1959 2209 
L 2766 2209 
L 2766 2266 
Q 2766 2663 2505 2880 
Q 2244 3097 1772 3097 
Q 1472 3097 1187 3025 
Q 903 2953 641 2809 
L 641 3341 
Q 956 3463 1253 3523 
Q 1550 3584 1831 3584 
Q 2591 3584 2966 3190 
Q 3341 2797 3341 1997 
z
" transform="scale(0.015625)"/>
       <path id="DejaVuSans-63" d="M 3122 3366 
L 3122 2828 
Q 2878 2963 2633 3030 
Q 2388 3097 2138 3097 
Q 1578 3097 1268 2742 
Q 959 2388 959 1747 
Q 959 1106 1268 751 
Q 1578 397 2138 397 
Q 2388 397 2633 464 
Q 2878 531 3122 666 
L 3122 134 
Q 2881 22 2623 -34 
Q 2366 -91 2075 -91 
Q 1284 -91 818 406 
Q 353 903 353 1747 
Q 353 2603 823 3093 
Q 1294 3584 2113 3584 
Q 2378 3584 2631 3529 
Q 2884 3475 3122 3366 
z
" transform="scale(0.015625)"/>
       <path id="DejaVuSans-6f" d="M 1959 3097 
Q 1497 3097 1228 2736 
Q 959 2375 959 1747 
Q 959 1119 1226 758 
Q 1494 397 1959 397 
Q 2419 397 2687 759 
Q 2956 1122 2956 1747 
Q 2956 2369 2687 2733 
Q 2419 3097 1959 3097 
z
M 1959 3584 
Q 2709 3584 3137 3096 
Q 3566 2609 3566 1747 
Q 3566 888 3137 398 
Q 2709 -91 1959 -91 
Q 1206 -91 779 398 
Q 353 888 353 1747 
Q 353 2609 779 3096 
Q 1206 3584 1959 3584 
z
" transform="scale(0.015625)"/>
       <path id="DejaVuSans-42" d="M 1259 2228 
L 1259 519 
L 2272 519 
Q 2781 519 3026 730 
Q 3272 941 3272 1375 
Q 3272 1813 3026 2020 
Q 2781 2228 2272 2228 
L 1259 2228 
z
M 1259 4147 
L 1259 2741 
L 2194 2741 
Q 2656 2741 2882 2914 
Q 3109 3088 3109 3444 
Q 3109 3797 2882 3972 
Q 2656 4147 2194 4147 
L 1259 4147 
z
M 628 4666 
L 2241 4666 
Q 2963 4666 3353 4366 
Q 3744 4066 3744 3513 
Q 3744 3084 3544 2831 
Q 3344 2578 2956 2516 
Q 3422 2416 3680 2098 
Q 3938 1781 3938 1306 
Q 3938 681 3513 340 
Q 3088 0 2303 0 
L 628 0 
L 628 4666 
z
" transform="scale(0.015625)"/>
       <path id="DejaVuSans-72" d="M 2631 2963 
Q 2534 3019 2420 3045 
Q 2306 3072 2169 3072 
Q 1681 3072 1420 2755 
Q 1159 2438 1159 1844 
L 1159 0 
L 581 0 
L 581 3500 
L 1159 3500 
L 1159 2956 
Q 1341 3275 1631 3429 
Q 1922 3584 2338 3584 
Q 2397 3584 2469 3576 
Q 2541 3569 2628 3553 
L 2631 2963 
z
" transform="scale(0.015625)"/>
       <path id="DejaVuSans-64" d="M 2906 2969 
L 2906 4863 
L 3481 4863 
L 3481 0 
L 2906 0 
L 2906 525 
Q 2725 213 2448 61 
Q 2172 -91 1784 -91 
Q 1150 -91 751 415 
Q 353 922 353 1747 
Q 353 2572 751 3078 
Q 1150 3584 1784 3584 
Q 2172 3584 2448 3432 
Q 2725 3281 2906 2969 
z
M 947 1747 
Q 947 1113 1208 752 
Q 1469 391 1925 391 
Q 2381 391 2643 752 
Q 2906 1113 2906 1747 
Q 2906 2381 2643 2742 
Q 2381 3103 1925 3103 
Q 1469 3103 1208 2742 
Q 947 2381 947 1747 
z
" transform="scale(0.015625)"/>
       <path id="DejaVuSans-65" d="M 3597 1894 
L 3597 1613 
L 953 1613 
Q 991 1019 1311 708 
Q 1631 397 2203 397 
Q 2534 397 2845 478 
Q 3156 559 3463 722 
L 3463 178 
Q 3153 47 2828 -22 
Q 2503 -91 2169 -91 
Q 1331 -91 842 396 
Q 353 884 353 1716 
Q 353 2575 817 3079 
Q 1281 3584 2069 3584 
Q 2775 3584 3186 3129 
Q 3597 2675 3597 1894 
z
M 3022 2063 
Q 3016 2534 2758 2815 
Q 2500 3097 2075 3097 
Q 1594 3097 1305 2825 
Q 1016 2553 972 2059 
L 3022 2063 
z
" transform="scale(0.015625)"/>
       <path id="DejaVuSans-4d" d="M 628 4666 
L 1569 4666 
L 2759 1491 
L 3956 4666 
L 4897 4666 
L 4897 0 
L 4281 0 
L 4281 4097 
L 3078 897 
L 2444 897 
L 1241 4097 
L 1241 0 
L 628 0 
L 628 4666 
z
" transform="scale(0.015625)"/>
       <path id="DejaVuSans-6c" d="M 603 4863 
L 1178 4863 
L 1178 0 
L 603 0 
L 603 4863 
z
" transform="scale(0.015625)"/>
       <path id="DejaVuSans-70" d="M 1159 525 
L 1159 -1331 
L 581 -1331 
L 581 3500 
L 1159 3500 
L 1159 2969 
Q 1341 3281 1617 3432 
Q 1894 3584 2278 3584 
Q 2916 3584 3314 3078 
Q 3713 2572 3713 1747 
Q 3713 922 3314 415 
Q 2916 -91 2278 -91 
Q 1894 -91 1617 61 
Q 1341 213 1159 525 
z
M 3116 1747 
Q 3116 2381 2855 2742 
Q 2594 3103 2138 3103 
Q 1681 3103 1420 2742 
Q 1159 2381 1159 1747 
Q 1159 1113 1420 752 
Q 1681 391 2138 391 
Q 2594 391 2855 752 
Q 3116 1113 3116 1747 
z
" transform="scale(0.015625)"/>
       <path id="DejaVuSans-28" d="M 1984 4856 
Q 1566 4138 1362 3434 
Q 1159 2731 1159 2009 
Q 1159 1288 1364 580 
Q 1569 -128 1984 -844 
L 1484 -844 
Q 1016 -109 783 600 
Q 550 1309 550 2009 
Q 550 2706 781 3412 
Q 1013 4119 1484 4856 
L 1984 4856 
z
" transform="scale(0.015625)"/>
       <path id="DejaVuSans-29" d="M 513 4856 
L 1013 4856 
Q 1481 4119 1714 3412 
Q 1947 2706 1947 2009 
Q 1947 1309 1714 600 
Q 1481 -109 1013 -844 
L 513 -844 
Q 928 -128 1133 580 
Q 1338 1288 1338 2009 
Q 1338 2731 1133 3434 
Q 928 4138 513 4856 
z
" transform="scale(0.015625)"/>
      </defs>
      <use xlink:href="#DejaVuSans-45"/>
      <use xlink:href="#DejaVuSans-71" x="63.183594"/>
      <use xlink:href="#DejaVuSans-75" x="126.660156"/>
      <use xlink:href="#DejaVuSans-69" x="190.039062"/>
      <use xlink:href="#DejaVuSans-74" x="217.822266"/>
      <use xlink:href="#DejaVuSans-79" x="257.03125"/>
      <use xlink:href="#DejaVuSans-20" x="316.210938"/>
      <use xlink:href="#DejaVuSans-69" x="347.998047"/>
      <use xlink:href="#DejaVuSans-6e" x="375.78125"/>
      <use xlink:href="#DejaVuSans-20" x="439.160156"/>
      <use xlink:href="#DejaVuSans-56" x="470.947266"/>
      <use xlink:href="#DejaVuSans-61" x="531.605469"/>
      <use xlink:href="#DejaVuSans-63" x="592.884766"/>
      <use xlink:href="#DejaVuSans-63" x="647.865234"/>
      <use xlink:href="#DejaVuSans-69" x="702.845703"/>
      <use xlink:href="#DejaVuSans-6e" x="730.628906"/>
      <use xlink:href="#DejaVuSans-61" x="794.007812"/>
      <use xlink:href="#DejaVuSans-74" x="855.287109"/>
      <use xlink:href="#DejaVuSans-69" x="894.496094"/>
      <use xlink:href="#DejaVuSans-6f" x="922.279297"/>
      <use xlink:href="#DejaVuSans-6e" x="983.460938"/>
      <use xlink:href="#DejaVuSans-20" x="1046.839844"/>
      <use xlink:href="#DejaVuSans-42" x="1078.626953"/>
      <use xlink:href="#DejaVuSans-75" x="1147.230469"/>
      <use xlink:href="#DejaVuSans-72" x="1210.609375"/>
      <use xlink:href="#DejaVuSans-64" x="1249.972656"/>
      <use xlink:href="#DejaVuSans-65" x="1313.449219"/>
      <use xlink:href="#DejaVuSans-6e" x="1374.972656"/>
      <use xlink:href="#DejaVuSans-20" x="1438.351562"/>
      <use xlink:href="#DejaVuSans-4d" x="1470.138672"/>
      <use xlink:href="#DejaVuSans-75" x="1556.417969"/>
      <use xlink:href="#DejaVuSans-6c" x="1619.796875"/>
      <use xlink:href="#DejaVuSans-74" x="1647.580078"/>
      <use xlink:href="#DejaVuSans-69" x="1686.789062"/>
      <use xlink:href="#DejaVuSans-70" x="1714.572266"/>
      <use xlink:href="#DejaVuSans-6c" x="1778.048828"/>
      <use xlink:href="#DejaVuSans-69" x="1805.832031"/>
      <use xlink:href="#DejaVuSans-65" x="1833.615234"/>
      <use xlink:href="#DejaVuSans-72" x="1895.138672"/>
      <use xlink:href="#DejaVuSans-20" x="1936.251953"/>
      <use xlink:href="#DejaVuSans-28" x="1968.039062"/>
      <use xlink:href="#DejaVuSans-61" x="2007.052734"/>
      <use xlink:href="#DejaVuSans-29" x="2068.332031"/>
     </g>
    </g>
   </g>
   <g id="matplotlib.axis_2">
    <g id="ytick_1">
     <g id="line2d_7">
      <defs>
       <path id="mf11c530e86" d="M 0 0 
L -3.5 0 
" style="stroke: #000000; stroke-width: 0.8"/>
      </defs>
      <g>
       <use xlink:href="#mf11c530e86" x="43.78125" y="277.111219" style="stroke: #000000; stroke-width: 0.8"/>
      </g>
     </g>
     <g id="text_8">
      <!-- 0.0 -->
      <g transform="translate(20.878125 280.910437) scale(0.1 -0.1)">
       <use xlink:href="#DejaVuSans-30"/>
       <use xlink:href="#DejaVuSans-2e" x="63.623047"/>
       <use xlink:href="#DejaVuSans-30" x="95.410156"/>
      </g>
     </g>
    </g>
    <g id="ytick_2">
     <g id="line2d_8">
      <g>
       <use xlink:href="#mf11c530e86" x="43.78125" y="223.888819" style="stroke: #000000; stroke-width: 0.8"/>
      </g>
     </g>
     <g id="text_9">
      <!-- 0.2 -->
      <g transform="translate(20.878125 227.688037) scale(0.1 -0.1)">
       <use xlink:href="#DejaVuSans-30"/>
       <use xlink:href="#DejaVuSans-2e" x="63.623047"/>
       <use xlink:href="#DejaVuSans-32" x="95.410156"/>
      </g>
     </g>
    </g>
    <g id="ytick_3">
     <g id="line2d_9">
      <g>
       <use xlink:href="#mf11c530e86" x="43.78125" y="170.666419" style="stroke: #000000; stroke-width: 0.8"/>
      </g>
     </g>
     <g id="text_10">
      <!-- 0.4 -->
      <g transform="translate(20.878125 174.465637) scale(0.1 -0.1)">
       <use xlink:href="#DejaVuSans-30"/>
       <use xlink:href="#DejaVuSans-2e" x="63.623047"/>
       <use xlink:href="#DejaVuSans-34" x="95.410156"/>
      </g>
     </g>
    </g>
    <g id="ytick_4">
     <g id="line2d_10">
      <g>
       <use xlink:href="#mf11c530e86" x="43.78125" y="117.444019" style="stroke: #000000; stroke-width: 0.8"/>
      </g>
     </g>
     <g id="text_11">
      <!-- 0.6 -->
      <g transform="translate(20.878125 121.243237) scale(0.1 -0.1)">
       <use xlink:href="#DejaVuSans-30"/>
       <use xlink:href="#DejaVuSans-2e" x="63.623047"/>
       <use xlink:href="#DejaVuSans-36" x="95.410156"/>
      </g>
     </g>
    </g>
    <g id="ytick_5">
     <g id="line2d_11">
      <g>
       <use xlink:href="#mf11c530e86" x="43.78125" y="64.221619" style="stroke: #000000; stroke-width: 0.8"/>
      </g>
     </g>
     <g id="text_12">
      <!-- 0.8 -->
      <g transform="translate(20.878125 68.020837) scale(0.1 -0.1)">
       <use xlink:href="#DejaVuSans-30"/>
       <use xlink:href="#DejaVuSans-2e" x="63.623047"/>
       <use xlink:href="#DejaVuSans-38" x="95.410156"/>
      </g>
     </g>
    </g>
    <g id="ytick_6">
     <g id="line2d_12">
      <g>
       <use xlink:href="#mf11c530e86" x="43.78125" y="10.999219" style="stroke: #000000; stroke-width: 0.8"/>
      </g>
     </g>
     <g id="text_13">
      <!-- 1.0 -->
      <g transform="translate(20.878125 14.798437) scale(0.1 -0.1)">
       <use xlink:href="#DejaVuSans-31"/>
       <use xlink:href="#DejaVuSans-2e" x="63.623047"/>
       <use xlink:href="#DejaVuSans-30" x="95.410156"/>
      </g>
     </g>
    </g>
    <g id="text_14">
     <!-- Equity in Infection Burden Multiplier (b) -->
     <g transform="translate(14.798438 242.544281) rotate(-90) scale(0.1 -0.1)">
      <defs>
       <path id="DejaVuSans-49" d="M 628 4666 
L 1259 4666 
L 1259 0 
L 628 0 
L 628 4666 
z
" transform="scale(0.015625)"/>
       <path id="DejaVuSans-66" d="M 2375 4863 
L 2375 4384 
L 1825 4384 
Q 1516 4384 1395 4259 
Q 1275 4134 1275 3809 
L 1275 3500 
L 2222 3500 
L 2222 3053 
L 1275 3053 
L 1275 0 
L 697 0 
L 697 3053 
L 147 3053 
L 147 3500 
L 697 3500 
L 697 3744 
Q 697 4328 969 4595 
Q 1241 4863 1831 4863 
L 2375 4863 
z
" transform="scale(0.015625)"/>
       <path id="DejaVuSans-62" d="M 3116 1747 
Q 3116 2381 2855 2742 
Q 2594 3103 2138 3103 
Q 1681 3103 1420 2742 
Q 1159 2381 1159 1747 
Q 1159 1113 1420 752 
Q 1681 391 2138 391 
Q 2594 391 2855 752 
Q 3116 1113 3116 1747 
z
M 1159 2969 
Q 1341 3281 1617 3432 
Q 1894 3584 2278 3584 
Q 2916 3584 3314 3078 
Q 3713 2572 3713 1747 
Q 3713 922 3314 415 
Q 2916 -91 2278 -91 
Q 1894 -91 1617 61 
Q 1341 213 1159 525 
L 1159 0 
L 581 0 
L 581 4863 
L 1159 4863 
L 1159 2969 
z
" transform="scale(0.015625)"/>
      </defs>
      <use xlink:href="#DejaVuSans-45"/>
      <use xlink:href="#DejaVuSans-71" x="63.183594"/>
      <use xlink:href="#DejaVuSans-75" x="126.660156"/>
      <use xlink:href="#DejaVuSans-69" x="190.039062"/>
      <use xlink:href="#DejaVuSans-74" x="217.822266"/>
      <use xlink:href="#DejaVuSans-79" x="257.03125"/>
      <use xlink:href="#DejaVuSans-20" x="316.210938"/>
      <use xlink:href="#DejaVuSans-69" x="347.998047"/>
      <use xlink:href="#DejaVuSans-6e" x="375.78125"/>
      <use xlink:href="#DejaVuSans-20" x="439.160156"/>
      <use xlink:href="#DejaVuSans-49" x="470.947266"/>
      <use xlink:href="#DejaVuSans-6e" x="500.439453"/>
      <use xlink:href="#DejaVuSans-66" x="563.818359"/>
      <use xlink:href="#DejaVuSans-65" x="599.023438"/>
      <use xlink:href="#DejaVuSans-63" x="660.546875"/>
      <use xlink:href="#DejaVuSans-74" x="715.527344"/>
      <use xlink:href="#DejaVuSans-69" x="754.736328"/>
      <use xlink:href="#DejaVuSans-6f" x="782.519531"/>
      <use xlink:href="#DejaVuSans-6e" x="843.701172"/>
      <use xlink:href="#DejaVuSans-20" x="907.080078"/>
      <use xlink:href="#DejaVuSans-42" x="938.867188"/>
      <use xlink:href="#DejaVuSans-75" x="1007.470703"/>
      <use xlink:href="#DejaVuSans-72" x="1070.849609"/>
      <use xlink:href="#DejaVuSans-64" x="1110.212891"/>
      <use xlink:href="#DejaVuSans-65" x="1173.689453"/>
      <use xlink:href="#DejaVuSans-6e" x="1235.212891"/>
      <use xlink:href="#DejaVuSans-20" x="1298.591797"/>
      <use xlink:href="#DejaVuSans-4d" x="1330.378906"/>
      <use xlink:href="#DejaVuSans-75" x="1416.658203"/>
      <use xlink:href="#DejaVuSans-6c" x="1480.037109"/>
      <use xlink:href="#DejaVuSans-74" x="1507.820312"/>
      <use xlink:href="#DejaVuSans-69" x="1547.029297"/>
      <use xlink:href="#DejaVuSans-70" x="1574.8125"/>
      <use xlink:href="#DejaVuSans-6c" x="1638.289062"/>
      <use xlink:href="#DejaVuSans-69" x="1666.072266"/>
      <use xlink:href="#DejaVuSans-65" x="1693.855469"/>
      <use xlink:href="#DejaVuSans-72" x="1755.378906"/>
      <use xlink:href="#DejaVuSans-20" x="1796.492188"/>
      <use xlink:href="#DejaVuSans-28" x="1828.279297"/>
      <use xlink:href="#DejaVuSans-62" x="1867.292969"/>
      <use xlink:href="#DejaVuSans-29" x="1930.769531"/>
     </g>
    </g>
   </g>
   <g id="patch_3">
    <path d="M 43.78125 277.111219 
L 43.78125 10.999219 
" style="fill: none; stroke: #000000; stroke-width: 0.8; stroke-linejoin: miter; stroke-linecap: square"/>
   </g>
   <g id="patch_4">
    <path d="M 329.47725 277.111219 
L 329.47725 10.999219 
" style="fill: none; stroke: #000000; stroke-width: 0.8; stroke-linejoin: miter; stroke-linecap: square"/>
   </g>
   <g id="patch_5">
    <path d="M 43.78125 277.111219 
L 329.47725 277.111219 
" style="fill: none; stroke: #000000; stroke-width: 0.8; stroke-linejoin: miter; stroke-linecap: square"/>
   </g>
   <g id="patch_6">
    <path d="M 43.78125 10.999219 
L 329.47725 10.999219 
" style="fill: none; stroke: #000000; stroke-width: 0.8; stroke-linejoin: miter; stroke-linecap: square"/>
   </g>
  </g>
  <g id="axes_2">
   <g id="patch_7">
    <path d="M 347.33325 277.111219 
L 360.63885 277.111219 
L 360.63885 10.999219 
L 347.33325 10.999219 
z
" style="fill: #ffffff"/>
   </g>
   <g id="QuadMesh_1">
    <path d="M 347.33325 277.111219 
L 360.63885 277.111219 
L 360.63885 258.103219 
L 347.33325 258.103219 
L 347.33325 277.111219 
" clip-path="url(#p600f802568)" style="fill: #ffefe8"/>
    <path d="M 347.33325 258.103219 
L 360.63885 258.103219 
L 360.63885 239.095219 
L 347.33325 239.095219 
L 347.33325 258.103219 
" clip-path="url(#p600f802568)" style="fill: #fee3d7"/>
    <path d="M 347.33325 239.095219 
L 360.63885 239.095219 
L 360.63885 220.087219 
L 347.33325 220.087219 
L 347.33325 239.095219 
" clip-path="url(#p600f802568)" style="fill: #fdd1be"/>
    <path d="M 347.33325 220.087219 
L 360.63885 220.087219 
L 360.63885 201.079219 
L 347.33325 201.079219 
L 347.33325 220.087219 
" clip-path="url(#p600f802568)" style="fill: #fcbba1"/>
    <path d="M 347.33325 201.079219 
L 360.63885 201.079219 
L 360.63885 182.071219 
L 347.33325 182.071219 
L 347.33325 201.079219 
" clip-path="url(#p600f802568)" style="fill: #fca486"/>
    <path d="M 347.33325 182.071219 
L 360.63885 182.071219 
L 360.63885 163.063219 
L 347.33325 163.063219 
L 347.33325 182.071219 
" clip-path="url(#p600f802568)" style="fill: #fc8d6d"/>
    <path d="M 347.33325 163.063219 
L 360.63885 163.063219 
L 360.63885 144.055219 
L 347.33325 144.055219 
L 347.33325 163.063219 
" clip-path="url(#p600f802568)" style="fill: #fb7656"/>
    <path d="M 347.33325 144.055219 
L 360.63885 144.055219 
L 360.63885 125.047219 
L 347.33325 125.047219 
L 347.33325 144.055219 
" clip-path="url(#p600f802568)" style="fill: #f75c41"/>
    <path d="M 347.33325 125.047219 
L 360.63885 125.047219 
L 360.63885 106.039219 
L 347.33325 106.039219 
L 347.33325 125.047219 
" clip-path="url(#p600f802568)" style="fill: #f14130"/>
    <path d="M 347.33325 106.039219 
L 360.63885 106.039219 
L 360.63885 87.031219 
L 347.33325 87.031219 
L 347.33325 106.039219 
" clip-path="url(#p600f802568)" style="fill: #e02c26"/>
    <path d="M 347.33325 87.031219 
L 360.63885 87.031219 
L 360.63885 68.023219 
L 347.33325 68.023219 
L 347.33325 87.031219 
" clip-path="url(#p600f802568)" style="fill: #cb181d"/>
    <path d="M 347.33325 68.023219 
L 360.63885 68.023219 
L 360.63885 49.015219 
L 347.33325 49.015219 
L 347.33325 68.023219 
" clip-path="url(#p600f802568)" style="fill: #b51318"/>
    <path d="M 347.33325 49.015219 
L 360.63885 49.015219 
L 360.63885 30.007219 
L 347.33325 30.007219 
L 347.33325 49.015219 
" clip-path="url(#p600f802568)" style="fill: #9c0d14"/>
    <path d="M 347.33325 30.007219 
L 360.63885 30.007219 
L 360.63885 10.999219 
L 347.33325 10.999219 
L 347.33325 30.007219 
" clip-path="url(#p600f802568)" style="fill: #79040f"/>
   </g>
   <g id="matplotlib.axis_3"/>
   <g id="matplotlib.axis_4">
    <g id="ytick_7">
     <g id="line2d_13">
      <defs>
       <path id="m023eeba949" d="M 0 0 
L 3.5 0 
" style="stroke: #000000; stroke-width: 0.8"/>
      </defs>
      <g>
       <use xlink:href="#m023eeba949" x="360.63885" y="277.111219" style="stroke: #000000; stroke-width: 0.8"/>
      </g>
     </g>
     <g id="text_15">
      <!-- 0.0 -->
      <g transform="translate(367.63885 280.910437) scale(0.1 -0.1)">
       <use xlink:href="#DejaVuSans-30"/>
       <use xlink:href="#DejaVuSans-2e" x="63.623047"/>
       <use xlink:href="#DejaVuSans-30" x="95.410156"/>
      </g>
     </g>
    </g>
    <g id="ytick_8">
     <g id="line2d_14">
      <g>
       <use xlink:href="#m023eeba949" x="360.63885" y="239.095219" style="stroke: #000000; stroke-width: 0.8"/>
      </g>
     </g>
     <g id="text_16">
      <!-- 0.3 -->
      <g transform="translate(367.63885 242.894437) scale(0.1 -0.1)">
       <defs>
        <path id="DejaVuSans-33" d="M 2597 2516 
Q 3050 2419 3304 2112 
Q 3559 1806 3559 1356 
Q 3559 666 3084 287 
Q 2609 -91 1734 -91 
Q 1441 -91 1130 -33 
Q 819 25 488 141 
L 488 750 
Q 750 597 1062 519 
Q 1375 441 1716 441 
Q 2309 441 2620 675 
Q 2931 909 2931 1356 
Q 2931 1769 2642 2001 
Q 2353 2234 1838 2234 
L 1294 2234 
L 1294 2753 
L 1863 2753 
Q 2328 2753 2575 2939 
Q 2822 3125 2822 3475 
Q 2822 3834 2567 4026 
Q 2313 4219 1838 4219 
Q 1578 4219 1281 4162 
Q 984 4106 628 3988 
L 628 4550 
Q 988 4650 1302 4700 
Q 1616 4750 1894 4750 
Q 2613 4750 3031 4423 
Q 3450 4097 3450 3541 
Q 3450 3153 3228 2886 
Q 3006 2619 2597 2516 
z
" transform="scale(0.015625)"/>
       </defs>
       <use xlink:href="#DejaVuSans-30"/>
       <use xlink:href="#DejaVuSans-2e" x="63.623047"/>
       <use xlink:href="#DejaVuSans-33" x="95.410156"/>
      </g>
     </g>
    </g>
    <g id="ytick_9">
     <g id="line2d_15">
      <g>
       <use xlink:href="#m023eeba949" x="360.63885" y="201.079219" style="stroke: #000000; stroke-width: 0.8"/>
      </g>
     </g>
     <g id="text_17">
      <!-- 0.6 -->
      <g transform="translate(367.63885 204.878437) scale(0.1 -0.1)">
       <use xlink:href="#DejaVuSans-30"/>
       <use xlink:href="#DejaVuSans-2e" x="63.623047"/>
       <use xlink:href="#DejaVuSans-36" x="95.410156"/>
      </g>
     </g>
    </g>
    <g id="ytick_10">
     <g id="line2d_16">
      <g>
       <use xlink:href="#m023eeba949" x="360.63885" y="163.063219" style="stroke: #000000; stroke-width: 0.8"/>
      </g>
     </g>
     <g id="text_18">
      <!-- 0.9 -->
      <g transform="translate(367.63885 166.862437) scale(0.1 -0.1)">
       <defs>
        <path id="DejaVuSans-39" d="M 703 97 
L 703 672 
Q 941 559 1184 500 
Q 1428 441 1663 441 
Q 2288 441 2617 861 
Q 2947 1281 2994 2138 
Q 2813 1869 2534 1725 
Q 2256 1581 1919 1581 
Q 1219 1581 811 2004 
Q 403 2428 403 3163 
Q 403 3881 828 4315 
Q 1253 4750 1959 4750 
Q 2769 4750 3195 4129 
Q 3622 3509 3622 2328 
Q 3622 1225 3098 567 
Q 2575 -91 1691 -91 
Q 1453 -91 1209 -44 
Q 966 3 703 97 
z
M 1959 2075 
Q 2384 2075 2632 2365 
Q 2881 2656 2881 3163 
Q 2881 3666 2632 3958 
Q 2384 4250 1959 4250 
Q 1534 4250 1286 3958 
Q 1038 3666 1038 3163 
Q 1038 2656 1286 2365 
Q 1534 2075 1959 2075 
z
" transform="scale(0.015625)"/>
       </defs>
       <use xlink:href="#DejaVuSans-30"/>
       <use xlink:href="#DejaVuSans-2e" x="63.623047"/>
       <use xlink:href="#DejaVuSans-39" x="95.410156"/>
      </g>
     </g>
    </g>
    <g id="ytick_11">
     <g id="line2d_17">
      <g>
       <use xlink:href="#m023eeba949" x="360.63885" y="125.047219" style="stroke: #000000; stroke-width: 0.8"/>
      </g>
     </g>
     <g id="text_19">
      <!-- 1.2 -->
      <g transform="translate(367.63885 128.846437) scale(0.1 -0.1)">
       <use xlink:href="#DejaVuSans-31"/>
       <use xlink:href="#DejaVuSans-2e" x="63.623047"/>
       <use xlink:href="#DejaVuSans-32" x="95.410156"/>
      </g>
     </g>
    </g>
    <g id="ytick_12">
     <g id="line2d_18">
      <g>
       <use xlink:href="#m023eeba949" x="360.63885" y="87.031219" style="stroke: #000000; stroke-width: 0.8"/>
      </g>
     </g>
     <g id="text_20">
      <!-- 1.5 -->
      <g transform="translate(367.63885 90.830437) scale(0.1 -0.1)">
       <defs>
        <path id="DejaVuSans-35" d="M 691 4666 
L 3169 4666 
L 3169 4134 
L 1269 4134 
L 1269 2991 
Q 1406 3038 1543 3061 
Q 1681 3084 1819 3084 
Q 2600 3084 3056 2656 
Q 3513 2228 3513 1497 
Q 3513 744 3044 326 
Q 2575 -91 1722 -91 
Q 1428 -91 1123 -41 
Q 819 9 494 109 
L 494 744 
Q 775 591 1075 516 
Q 1375 441 1709 441 
Q 2250 441 2565 725 
Q 2881 1009 2881 1497 
Q 2881 1984 2565 2268 
Q 2250 2553 1709 2553 
Q 1456 2553 1204 2497 
Q 953 2441 691 2322 
L 691 4666 
z
" transform="scale(0.015625)"/>
       </defs>
       <use xlink:href="#DejaVuSans-31"/>
       <use xlink:href="#DejaVuSans-2e" x="63.623047"/>
       <use xlink:href="#DejaVuSans-35" x="95.410156"/>
      </g>
     </g>
    </g>
    <g id="ytick_13">
     <g id="line2d_19">
      <g>
       <use xlink:href="#m023eeba949" x="360.63885" y="49.015219" style="stroke: #000000; stroke-width: 0.8"/>
      </g>
     </g>
     <g id="text_21">
      <!-- 1.8 -->
      <g transform="translate(367.63885 52.814437) scale(0.1 -0.1)">
       <use xlink:href="#DejaVuSans-31"/>
       <use xlink:href="#DejaVuSans-2e" x="63.623047"/>
       <use xlink:href="#DejaVuSans-38" x="95.410156"/>
      </g>
     </g>
    </g>
    <g id="ytick_14">
     <g id="line2d_20">
      <g>
       <use xlink:href="#m023eeba949" x="360.63885" y="10.999219" style="stroke: #000000; stroke-width: 0.8"/>
      </g>
     </g>
     <g id="text_22">
      <!-- 2.1 -->
      <g transform="translate(367.63885 14.798437) scale(0.1 -0.1)">
       <use xlink:href="#DejaVuSans-32"/>
       <use xlink:href="#DejaVuSans-2e" x="63.623047"/>
       <use xlink:href="#DejaVuSans-31" x="95.410156"/>
      </g>
     </g>
    </g>
    <g id="text_23">
     <!-- Infections in group 2 (%) -->
     <g transform="translate(395.140413 205.734125) rotate(-90) scale(0.1 -0.1)">
      <defs>
       <path id="DejaVuSans-73" d="M 2834 3397 
L 2834 2853 
Q 2591 2978 2328 3040 
Q 2066 3103 1784 3103 
Q 1356 3103 1142 2972 
Q 928 2841 928 2578 
Q 928 2378 1081 2264 
Q 1234 2150 1697 2047 
L 1894 2003 
Q 2506 1872 2764 1633 
Q 3022 1394 3022 966 
Q 3022 478 2636 193 
Q 2250 -91 1575 -91 
Q 1294 -91 989 -36 
Q 684 19 347 128 
L 347 722 
Q 666 556 975 473 
Q 1284 391 1588 391 
Q 1994 391 2212 530 
Q 2431 669 2431 922 
Q 2431 1156 2273 1281 
Q 2116 1406 1581 1522 
L 1381 1569 
Q 847 1681 609 1914 
Q 372 2147 372 2553 
Q 372 3047 722 3315 
Q 1072 3584 1716 3584 
Q 2034 3584 2315 3537 
Q 2597 3491 2834 3397 
z
" transform="scale(0.015625)"/>
       <path id="DejaVuSans-67" d="M 2906 1791 
Q 2906 2416 2648 2759 
Q 2391 3103 1925 3103 
Q 1463 3103 1205 2759 
Q 947 2416 947 1791 
Q 947 1169 1205 825 
Q 1463 481 1925 481 
Q 2391 481 2648 825 
Q 2906 1169 2906 1791 
z
M 3481 434 
Q 3481 -459 3084 -895 
Q 2688 -1331 1869 -1331 
Q 1566 -1331 1297 -1286 
Q 1028 -1241 775 -1147 
L 775 -588 
Q 1028 -725 1275 -790 
Q 1522 -856 1778 -856 
Q 2344 -856 2625 -561 
Q 2906 -266 2906 331 
L 2906 616 
Q 2728 306 2450 153 
Q 2172 0 1784 0 
Q 1141 0 747 490 
Q 353 981 353 1791 
Q 353 2603 747 3093 
Q 1141 3584 1784 3584 
Q 2172 3584 2450 3431 
Q 2728 3278 2906 2969 
L 2906 3500 
L 3481 3500 
L 3481 434 
z
" transform="scale(0.015625)"/>
       <path id="DejaVuSans-25" d="M 4653 2053 
Q 4381 2053 4226 1822 
Q 4072 1591 4072 1178 
Q 4072 772 4226 539 
Q 4381 306 4653 306 
Q 4919 306 5073 539 
Q 5228 772 5228 1178 
Q 5228 1588 5073 1820 
Q 4919 2053 4653 2053 
z
M 4653 2450 
Q 5147 2450 5437 2106 
Q 5728 1763 5728 1178 
Q 5728 594 5436 251 
Q 5144 -91 4653 -91 
Q 4153 -91 3862 251 
Q 3572 594 3572 1178 
Q 3572 1766 3864 2108 
Q 4156 2450 4653 2450 
z
M 1428 4353 
Q 1159 4353 1004 4120 
Q 850 3888 850 3481 
Q 850 3069 1003 2837 
Q 1156 2606 1428 2606 
Q 1700 2606 1854 2837 
Q 2009 3069 2009 3481 
Q 2009 3884 1853 4118 
Q 1697 4353 1428 4353 
z
M 4250 4750 
L 4750 4750 
L 1831 -91 
L 1331 -91 
L 4250 4750 
z
M 1428 4750 
Q 1922 4750 2215 4408 
Q 2509 4066 2509 3481 
Q 2509 2891 2217 2550 
Q 1925 2209 1428 2209 
Q 931 2209 642 2551 
Q 353 2894 353 3481 
Q 353 4063 643 4406 
Q 934 4750 1428 4750 
z
" transform="scale(0.015625)"/>
      </defs>
      <use xlink:href="#DejaVuSans-49"/>
      <use xlink:href="#DejaVuSans-6e" x="29.492188"/>
      <use xlink:href="#DejaVuSans-66" x="92.871094"/>
      <use xlink:href="#DejaVuSans-65" x="128.076172"/>
      <use xlink:href="#DejaVuSans-63" x="189.599609"/>
      <use xlink:href="#DejaVuSans-74" x="244.580078"/>
      <use xlink:href="#DejaVuSans-69" x="283.789062"/>
      <use xlink:href="#DejaVuSans-6f" x="311.572266"/>
      <use xlink:href="#DejaVuSans-6e" x="372.753906"/>
      <use xlink:href="#DejaVuSans-73" x="436.132812"/>
      <use xlink:href="#DejaVuSans-20" x="488.232422"/>
      <use xlink:href="#DejaVuSans-69" x="520.019531"/>
      <use xlink:href="#DejaVuSans-6e" x="547.802734"/>
      <use xlink:href="#DejaVuSans-20" x="611.181641"/>
      <use xlink:href="#DejaVuSans-67" x="642.96875"/>
      <use xlink:href="#DejaVuSans-72" x="706.445312"/>
      <use xlink:href="#DejaVuSans-6f" x="745.308594"/>
      <use xlink:href="#DejaVuSans-75" x="806.490234"/>
      <use xlink:href="#DejaVuSans-70" x="869.869141"/>
      <use xlink:href="#DejaVuSans-20" x="933.345703"/>
      <use xlink:href="#DejaVuSans-32" x="965.132812"/>
      <use xlink:href="#DejaVuSans-20" x="1028.755859"/>
      <use xlink:href="#DejaVuSans-28" x="1060.542969"/>
      <use xlink:href="#DejaVuSans-25" x="1099.556641"/>
      <use xlink:href="#DejaVuSans-29" x="1194.576172"/>
     </g>
    </g>
   </g>
   <g id="LineCollection_1"/>
   <g id="patch_8">
    <path d="M 347.33325 277.111219 
L 353.98605 277.111219 
L 360.63885 277.111219 
L 360.63885 10.999219 
L 353.98605 10.999219 
L 347.33325 10.999219 
L 347.33325 277.111219 
z
" style="fill: none; stroke: #000000; stroke-width: 0.8; stroke-linejoin: miter; stroke-linecap: square"/>
   </g>
  </g>
 </g>
 <defs>
  <clipPath id="pfc531830ab">
   <rect x="43.78125" y="10.999219" width="285.696" height="266.112"/>
  </clipPath>
  <clipPath id="p600f802568">
   <rect x="347.33325" y="10.999219" width="13.3056" height="266.112"/>
  </clipPath>
 </defs>
</svg>
